%TF.GenerationSoftware,KiCad,Pcbnew,7.0.9-7.0.9~ubuntu20.04.1*%
%TF.CreationDate,2024-02-02T11:04:46+00:00*%
%TF.ProjectId,ICE40UPDevBoard,49434534-3055-4504-9465-76426f617264,rev?*%
%TF.SameCoordinates,Original*%
%TF.FileFunction,Legend,Top*%
%TF.FilePolarity,Positive*%
%FSLAX46Y46*%
G04 Gerber Fmt 4.6, Leading zero omitted, Abs format (unit mm)*
G04 Created by KiCad (PCBNEW 7.0.9-7.0.9~ubuntu20.04.1) date 2024-02-02 11:04:46*
%MOMM*%
%LPD*%
G01*
G04 APERTURE LIST*
%ADD10C,0.127000*%
%ADD11C,0.254000*%
%ADD12C,0.150000*%
%ADD13C,0.120000*%
G04 APERTURE END LIST*
D10*
X184814123Y-111380197D02*
X184741552Y-111343911D01*
X184741552Y-111343911D02*
X184632694Y-111343911D01*
X184632694Y-111343911D02*
X184523837Y-111380197D01*
X184523837Y-111380197D02*
X184451266Y-111452768D01*
X184451266Y-111452768D02*
X184414980Y-111525340D01*
X184414980Y-111525340D02*
X184378694Y-111670483D01*
X184378694Y-111670483D02*
X184378694Y-111779340D01*
X184378694Y-111779340D02*
X184414980Y-111924483D01*
X184414980Y-111924483D02*
X184451266Y-111997054D01*
X184451266Y-111997054D02*
X184523837Y-112069626D01*
X184523837Y-112069626D02*
X184632694Y-112105911D01*
X184632694Y-112105911D02*
X184705266Y-112105911D01*
X184705266Y-112105911D02*
X184814123Y-112069626D01*
X184814123Y-112069626D02*
X184850409Y-112033340D01*
X184850409Y-112033340D02*
X184850409Y-111779340D01*
X184850409Y-111779340D02*
X184705266Y-111779340D01*
X185176980Y-112105911D02*
X185176980Y-111343911D01*
X185176980Y-111343911D02*
X185612409Y-112105911D01*
X185612409Y-112105911D02*
X185612409Y-111343911D01*
X185975266Y-112105911D02*
X185975266Y-111343911D01*
X185975266Y-111343911D02*
X186156695Y-111343911D01*
X186156695Y-111343911D02*
X186265552Y-111380197D01*
X186265552Y-111380197D02*
X186338123Y-111452768D01*
X186338123Y-111452768D02*
X186374409Y-111525340D01*
X186374409Y-111525340D02*
X186410695Y-111670483D01*
X186410695Y-111670483D02*
X186410695Y-111779340D01*
X186410695Y-111779340D02*
X186374409Y-111924483D01*
X186374409Y-111924483D02*
X186338123Y-111997054D01*
X186338123Y-111997054D02*
X186265552Y-112069626D01*
X186265552Y-112069626D02*
X186156695Y-112105911D01*
X186156695Y-112105911D02*
X185975266Y-112105911D01*
X225689980Y-85435911D02*
X225689980Y-84673911D01*
X225689980Y-84673911D02*
X225943980Y-85218197D01*
X225943980Y-85218197D02*
X226197980Y-84673911D01*
X226197980Y-84673911D02*
X226197980Y-85435911D01*
X226705980Y-84673911D02*
X226851123Y-84673911D01*
X226851123Y-84673911D02*
X226923694Y-84710197D01*
X226923694Y-84710197D02*
X226996266Y-84782768D01*
X226996266Y-84782768D02*
X227032551Y-84927911D01*
X227032551Y-84927911D02*
X227032551Y-85181911D01*
X227032551Y-85181911D02*
X226996266Y-85327054D01*
X226996266Y-85327054D02*
X226923694Y-85399626D01*
X226923694Y-85399626D02*
X226851123Y-85435911D01*
X226851123Y-85435911D02*
X226705980Y-85435911D01*
X226705980Y-85435911D02*
X226633409Y-85399626D01*
X226633409Y-85399626D02*
X226560837Y-85327054D01*
X226560837Y-85327054D02*
X226524551Y-85181911D01*
X226524551Y-85181911D02*
X226524551Y-84927911D01*
X226524551Y-84927911D02*
X226560837Y-84782768D01*
X226560837Y-84782768D02*
X226633409Y-84710197D01*
X226633409Y-84710197D02*
X226705980Y-84673911D01*
X227322837Y-85399626D02*
X227431695Y-85435911D01*
X227431695Y-85435911D02*
X227613123Y-85435911D01*
X227613123Y-85435911D02*
X227685695Y-85399626D01*
X227685695Y-85399626D02*
X227721980Y-85363340D01*
X227721980Y-85363340D02*
X227758266Y-85290768D01*
X227758266Y-85290768D02*
X227758266Y-85218197D01*
X227758266Y-85218197D02*
X227721980Y-85145626D01*
X227721980Y-85145626D02*
X227685695Y-85109340D01*
X227685695Y-85109340D02*
X227613123Y-85073054D01*
X227613123Y-85073054D02*
X227467980Y-85036768D01*
X227467980Y-85036768D02*
X227395409Y-85000483D01*
X227395409Y-85000483D02*
X227359123Y-84964197D01*
X227359123Y-84964197D02*
X227322837Y-84891626D01*
X227322837Y-84891626D02*
X227322837Y-84819054D01*
X227322837Y-84819054D02*
X227359123Y-84746483D01*
X227359123Y-84746483D02*
X227395409Y-84710197D01*
X227395409Y-84710197D02*
X227467980Y-84673911D01*
X227467980Y-84673911D02*
X227649409Y-84673911D01*
X227649409Y-84673911D02*
X227758266Y-84710197D01*
X228084837Y-85435911D02*
X228084837Y-84673911D01*
X225617409Y-87213911D02*
X226089123Y-87213911D01*
X226089123Y-87213911D02*
X225835123Y-87504197D01*
X225835123Y-87504197D02*
X225943980Y-87504197D01*
X225943980Y-87504197D02*
X226016552Y-87540483D01*
X226016552Y-87540483D02*
X226052837Y-87576768D01*
X226052837Y-87576768D02*
X226089123Y-87649340D01*
X226089123Y-87649340D02*
X226089123Y-87830768D01*
X226089123Y-87830768D02*
X226052837Y-87903340D01*
X226052837Y-87903340D02*
X226016552Y-87939626D01*
X226016552Y-87939626D02*
X225943980Y-87975911D01*
X225943980Y-87975911D02*
X225726266Y-87975911D01*
X225726266Y-87975911D02*
X225653694Y-87939626D01*
X225653694Y-87939626D02*
X225617409Y-87903340D01*
X226306837Y-87213911D02*
X226560837Y-87975911D01*
X226560837Y-87975911D02*
X226814837Y-87213911D01*
X226996266Y-87213911D02*
X227467980Y-87213911D01*
X227467980Y-87213911D02*
X227213980Y-87504197D01*
X227213980Y-87504197D02*
X227322837Y-87504197D01*
X227322837Y-87504197D02*
X227395409Y-87540483D01*
X227395409Y-87540483D02*
X227431694Y-87576768D01*
X227431694Y-87576768D02*
X227467980Y-87649340D01*
X227467980Y-87649340D02*
X227467980Y-87830768D01*
X227467980Y-87830768D02*
X227431694Y-87903340D01*
X227431694Y-87903340D02*
X227395409Y-87939626D01*
X227395409Y-87939626D02*
X227322837Y-87975911D01*
X227322837Y-87975911D02*
X227105123Y-87975911D01*
X227105123Y-87975911D02*
X227032551Y-87939626D01*
X227032551Y-87939626D02*
X226996266Y-87903340D01*
X212324742Y-95193321D02*
X212324742Y-94431321D01*
X212324742Y-94431321D02*
X212566647Y-94431321D01*
X212566647Y-94431321D02*
X212627123Y-94467607D01*
X212627123Y-94467607D02*
X212657361Y-94503893D01*
X212657361Y-94503893D02*
X212687599Y-94576464D01*
X212687599Y-94576464D02*
X212687599Y-94685321D01*
X212687599Y-94685321D02*
X212657361Y-94757893D01*
X212657361Y-94757893D02*
X212627123Y-94794178D01*
X212627123Y-94794178D02*
X212566647Y-94830464D01*
X212566647Y-94830464D02*
X212324742Y-94830464D01*
X212959742Y-95193321D02*
X212959742Y-94685321D01*
X212959742Y-94830464D02*
X212989980Y-94757893D01*
X212989980Y-94757893D02*
X213020218Y-94721607D01*
X213020218Y-94721607D02*
X213080694Y-94685321D01*
X213080694Y-94685321D02*
X213141171Y-94685321D01*
X213443551Y-95193321D02*
X213383075Y-95157036D01*
X213383075Y-95157036D02*
X213352837Y-95120750D01*
X213352837Y-95120750D02*
X213322599Y-95048178D01*
X213322599Y-95048178D02*
X213322599Y-94830464D01*
X213322599Y-94830464D02*
X213352837Y-94757893D01*
X213352837Y-94757893D02*
X213383075Y-94721607D01*
X213383075Y-94721607D02*
X213443551Y-94685321D01*
X213443551Y-94685321D02*
X213534266Y-94685321D01*
X213534266Y-94685321D02*
X213594742Y-94721607D01*
X213594742Y-94721607D02*
X213624980Y-94757893D01*
X213624980Y-94757893D02*
X213655218Y-94830464D01*
X213655218Y-94830464D02*
X213655218Y-95048178D01*
X213655218Y-95048178D02*
X213624980Y-95120750D01*
X213624980Y-95120750D02*
X213594742Y-95157036D01*
X213594742Y-95157036D02*
X213534266Y-95193321D01*
X213534266Y-95193321D02*
X213443551Y-95193321D01*
X214199504Y-94685321D02*
X214199504Y-95302178D01*
X214199504Y-95302178D02*
X214169266Y-95374750D01*
X214169266Y-95374750D02*
X214139028Y-95411036D01*
X214139028Y-95411036D02*
X214078551Y-95447321D01*
X214078551Y-95447321D02*
X213987837Y-95447321D01*
X213987837Y-95447321D02*
X213927361Y-95411036D01*
X214199504Y-95157036D02*
X214139028Y-95193321D01*
X214139028Y-95193321D02*
X214018075Y-95193321D01*
X214018075Y-95193321D02*
X213957599Y-95157036D01*
X213957599Y-95157036D02*
X213927361Y-95120750D01*
X213927361Y-95120750D02*
X213897123Y-95048178D01*
X213897123Y-95048178D02*
X213897123Y-94830464D01*
X213897123Y-94830464D02*
X213927361Y-94757893D01*
X213927361Y-94757893D02*
X213957599Y-94721607D01*
X213957599Y-94721607D02*
X214018075Y-94685321D01*
X214018075Y-94685321D02*
X214139028Y-94685321D01*
X214139028Y-94685321D02*
X214199504Y-94721607D01*
X214501885Y-95193321D02*
X214501885Y-94685321D01*
X214501885Y-94830464D02*
X214532123Y-94757893D01*
X214532123Y-94757893D02*
X214562361Y-94721607D01*
X214562361Y-94721607D02*
X214622837Y-94685321D01*
X214622837Y-94685321D02*
X214683314Y-94685321D01*
X215167123Y-95193321D02*
X215167123Y-94794178D01*
X215167123Y-94794178D02*
X215136885Y-94721607D01*
X215136885Y-94721607D02*
X215076409Y-94685321D01*
X215076409Y-94685321D02*
X214955456Y-94685321D01*
X214955456Y-94685321D02*
X214894980Y-94721607D01*
X215167123Y-95157036D02*
X215106647Y-95193321D01*
X215106647Y-95193321D02*
X214955456Y-95193321D01*
X214955456Y-95193321D02*
X214894980Y-95157036D01*
X214894980Y-95157036D02*
X214864742Y-95084464D01*
X214864742Y-95084464D02*
X214864742Y-95011893D01*
X214864742Y-95011893D02*
X214894980Y-94939321D01*
X214894980Y-94939321D02*
X214955456Y-94903036D01*
X214955456Y-94903036D02*
X215106647Y-94903036D01*
X215106647Y-94903036D02*
X215167123Y-94866750D01*
X215469504Y-95193321D02*
X215469504Y-94685321D01*
X215469504Y-94757893D02*
X215499742Y-94721607D01*
X215499742Y-94721607D02*
X215560218Y-94685321D01*
X215560218Y-94685321D02*
X215650933Y-94685321D01*
X215650933Y-94685321D02*
X215711409Y-94721607D01*
X215711409Y-94721607D02*
X215741647Y-94794178D01*
X215741647Y-94794178D02*
X215741647Y-95193321D01*
X215741647Y-94794178D02*
X215771885Y-94721607D01*
X215771885Y-94721607D02*
X215832361Y-94685321D01*
X215832361Y-94685321D02*
X215923075Y-94685321D01*
X215923075Y-94685321D02*
X215983552Y-94721607D01*
X215983552Y-94721607D02*
X216013790Y-94794178D01*
X216013790Y-94794178D02*
X216013790Y-95193321D01*
X216316171Y-95193321D02*
X216316171Y-94685321D01*
X216316171Y-94757893D02*
X216346409Y-94721607D01*
X216346409Y-94721607D02*
X216406885Y-94685321D01*
X216406885Y-94685321D02*
X216497600Y-94685321D01*
X216497600Y-94685321D02*
X216558076Y-94721607D01*
X216558076Y-94721607D02*
X216588314Y-94794178D01*
X216588314Y-94794178D02*
X216588314Y-95193321D01*
X216588314Y-94794178D02*
X216618552Y-94721607D01*
X216618552Y-94721607D02*
X216679028Y-94685321D01*
X216679028Y-94685321D02*
X216769742Y-94685321D01*
X216769742Y-94685321D02*
X216830219Y-94721607D01*
X216830219Y-94721607D02*
X216860457Y-94794178D01*
X216860457Y-94794178D02*
X216860457Y-95193321D01*
X217162838Y-95193321D02*
X217162838Y-94685321D01*
X217162838Y-94431321D02*
X217132600Y-94467607D01*
X217132600Y-94467607D02*
X217162838Y-94503893D01*
X217162838Y-94503893D02*
X217193076Y-94467607D01*
X217193076Y-94467607D02*
X217162838Y-94431321D01*
X217162838Y-94431321D02*
X217162838Y-94503893D01*
X217465219Y-94685321D02*
X217465219Y-95193321D01*
X217465219Y-94757893D02*
X217495457Y-94721607D01*
X217495457Y-94721607D02*
X217555933Y-94685321D01*
X217555933Y-94685321D02*
X217646648Y-94685321D01*
X217646648Y-94685321D02*
X217707124Y-94721607D01*
X217707124Y-94721607D02*
X217737362Y-94794178D01*
X217737362Y-94794178D02*
X217737362Y-95193321D01*
X218311886Y-94685321D02*
X218311886Y-95302178D01*
X218311886Y-95302178D02*
X218281648Y-95374750D01*
X218281648Y-95374750D02*
X218251410Y-95411036D01*
X218251410Y-95411036D02*
X218190933Y-95447321D01*
X218190933Y-95447321D02*
X218100219Y-95447321D01*
X218100219Y-95447321D02*
X218039743Y-95411036D01*
X218311886Y-95157036D02*
X218251410Y-95193321D01*
X218251410Y-95193321D02*
X218130457Y-95193321D01*
X218130457Y-95193321D02*
X218069981Y-95157036D01*
X218069981Y-95157036D02*
X218039743Y-95120750D01*
X218039743Y-95120750D02*
X218009505Y-95048178D01*
X218009505Y-95048178D02*
X218009505Y-94830464D01*
X218009505Y-94830464D02*
X218039743Y-94757893D01*
X218039743Y-94757893D02*
X218069981Y-94721607D01*
X218069981Y-94721607D02*
X218130457Y-94685321D01*
X218130457Y-94685321D02*
X218251410Y-94685321D01*
X218251410Y-94685321D02*
X218311886Y-94721607D01*
X219098077Y-95193321D02*
X219098077Y-94685321D01*
X219098077Y-94431321D02*
X219067839Y-94467607D01*
X219067839Y-94467607D02*
X219098077Y-94503893D01*
X219098077Y-94503893D02*
X219128315Y-94467607D01*
X219128315Y-94467607D02*
X219098077Y-94431321D01*
X219098077Y-94431321D02*
X219098077Y-94503893D01*
X219763315Y-95120750D02*
X219733077Y-95157036D01*
X219733077Y-95157036D02*
X219642363Y-95193321D01*
X219642363Y-95193321D02*
X219581887Y-95193321D01*
X219581887Y-95193321D02*
X219491172Y-95157036D01*
X219491172Y-95157036D02*
X219430696Y-95084464D01*
X219430696Y-95084464D02*
X219400458Y-95011893D01*
X219400458Y-95011893D02*
X219370220Y-94866750D01*
X219370220Y-94866750D02*
X219370220Y-94757893D01*
X219370220Y-94757893D02*
X219400458Y-94612750D01*
X219400458Y-94612750D02*
X219430696Y-94540178D01*
X219430696Y-94540178D02*
X219491172Y-94467607D01*
X219491172Y-94467607D02*
X219581887Y-94431321D01*
X219581887Y-94431321D02*
X219642363Y-94431321D01*
X219642363Y-94431321D02*
X219733077Y-94467607D01*
X219733077Y-94467607D02*
X219763315Y-94503893D01*
X220035458Y-94794178D02*
X220247125Y-94794178D01*
X220337839Y-95193321D02*
X220035458Y-95193321D01*
X220035458Y-95193321D02*
X220035458Y-94431321D01*
X220035458Y-94431321D02*
X220337839Y-94431321D01*
X220882125Y-94685321D02*
X220882125Y-95193321D01*
X220730934Y-94395036D02*
X220579744Y-94939321D01*
X220579744Y-94939321D02*
X220972839Y-94939321D01*
X221335696Y-94431321D02*
X221396173Y-94431321D01*
X221396173Y-94431321D02*
X221456649Y-94467607D01*
X221456649Y-94467607D02*
X221486887Y-94503893D01*
X221486887Y-94503893D02*
X221517125Y-94576464D01*
X221517125Y-94576464D02*
X221547363Y-94721607D01*
X221547363Y-94721607D02*
X221547363Y-94903036D01*
X221547363Y-94903036D02*
X221517125Y-95048178D01*
X221517125Y-95048178D02*
X221486887Y-95120750D01*
X221486887Y-95120750D02*
X221456649Y-95157036D01*
X221456649Y-95157036D02*
X221396173Y-95193321D01*
X221396173Y-95193321D02*
X221335696Y-95193321D01*
X221335696Y-95193321D02*
X221275220Y-95157036D01*
X221275220Y-95157036D02*
X221244982Y-95120750D01*
X221244982Y-95120750D02*
X221214744Y-95048178D01*
X221214744Y-95048178D02*
X221184506Y-94903036D01*
X221184506Y-94903036D02*
X221184506Y-94721607D01*
X221184506Y-94721607D02*
X221214744Y-94576464D01*
X221214744Y-94576464D02*
X221244982Y-94503893D01*
X221244982Y-94503893D02*
X221275220Y-94467607D01*
X221275220Y-94467607D02*
X221335696Y-94431321D01*
X222938316Y-95447321D02*
X222938316Y-94358750D01*
X223543078Y-95447321D02*
X223543078Y-94358750D01*
X212324742Y-96420141D02*
X212324742Y-95658141D01*
X212324742Y-95658141D02*
X212566647Y-95658141D01*
X212566647Y-95658141D02*
X212627123Y-95694427D01*
X212627123Y-95694427D02*
X212657361Y-95730713D01*
X212657361Y-95730713D02*
X212687599Y-95803284D01*
X212687599Y-95803284D02*
X212687599Y-95912141D01*
X212687599Y-95912141D02*
X212657361Y-95984713D01*
X212657361Y-95984713D02*
X212627123Y-96020998D01*
X212627123Y-96020998D02*
X212566647Y-96057284D01*
X212566647Y-96057284D02*
X212324742Y-96057284D01*
X212959742Y-96420141D02*
X212959742Y-95912141D01*
X212959742Y-96057284D02*
X212989980Y-95984713D01*
X212989980Y-95984713D02*
X213020218Y-95948427D01*
X213020218Y-95948427D02*
X213080694Y-95912141D01*
X213080694Y-95912141D02*
X213141171Y-95912141D01*
X213443551Y-96420141D02*
X213383075Y-96383856D01*
X213383075Y-96383856D02*
X213352837Y-96347570D01*
X213352837Y-96347570D02*
X213322599Y-96274998D01*
X213322599Y-96274998D02*
X213322599Y-96057284D01*
X213322599Y-96057284D02*
X213352837Y-95984713D01*
X213352837Y-95984713D02*
X213383075Y-95948427D01*
X213383075Y-95948427D02*
X213443551Y-95912141D01*
X213443551Y-95912141D02*
X213534266Y-95912141D01*
X213534266Y-95912141D02*
X213594742Y-95948427D01*
X213594742Y-95948427D02*
X213624980Y-95984713D01*
X213624980Y-95984713D02*
X213655218Y-96057284D01*
X213655218Y-96057284D02*
X213655218Y-96274998D01*
X213655218Y-96274998D02*
X213624980Y-96347570D01*
X213624980Y-96347570D02*
X213594742Y-96383856D01*
X213594742Y-96383856D02*
X213534266Y-96420141D01*
X213534266Y-96420141D02*
X213443551Y-96420141D01*
X214199504Y-95912141D02*
X214199504Y-96528998D01*
X214199504Y-96528998D02*
X214169266Y-96601570D01*
X214169266Y-96601570D02*
X214139028Y-96637856D01*
X214139028Y-96637856D02*
X214078551Y-96674141D01*
X214078551Y-96674141D02*
X213987837Y-96674141D01*
X213987837Y-96674141D02*
X213927361Y-96637856D01*
X214199504Y-96383856D02*
X214139028Y-96420141D01*
X214139028Y-96420141D02*
X214018075Y-96420141D01*
X214018075Y-96420141D02*
X213957599Y-96383856D01*
X213957599Y-96383856D02*
X213927361Y-96347570D01*
X213927361Y-96347570D02*
X213897123Y-96274998D01*
X213897123Y-96274998D02*
X213897123Y-96057284D01*
X213897123Y-96057284D02*
X213927361Y-95984713D01*
X213927361Y-95984713D02*
X213957599Y-95948427D01*
X213957599Y-95948427D02*
X214018075Y-95912141D01*
X214018075Y-95912141D02*
X214139028Y-95912141D01*
X214139028Y-95912141D02*
X214199504Y-95948427D01*
X214501885Y-96420141D02*
X214501885Y-95912141D01*
X214501885Y-96057284D02*
X214532123Y-95984713D01*
X214532123Y-95984713D02*
X214562361Y-95948427D01*
X214562361Y-95948427D02*
X214622837Y-95912141D01*
X214622837Y-95912141D02*
X214683314Y-95912141D01*
X215167123Y-96420141D02*
X215167123Y-96020998D01*
X215167123Y-96020998D02*
X215136885Y-95948427D01*
X215136885Y-95948427D02*
X215076409Y-95912141D01*
X215076409Y-95912141D02*
X214955456Y-95912141D01*
X214955456Y-95912141D02*
X214894980Y-95948427D01*
X215167123Y-96383856D02*
X215106647Y-96420141D01*
X215106647Y-96420141D02*
X214955456Y-96420141D01*
X214955456Y-96420141D02*
X214894980Y-96383856D01*
X214894980Y-96383856D02*
X214864742Y-96311284D01*
X214864742Y-96311284D02*
X214864742Y-96238713D01*
X214864742Y-96238713D02*
X214894980Y-96166141D01*
X214894980Y-96166141D02*
X214955456Y-96129856D01*
X214955456Y-96129856D02*
X215106647Y-96129856D01*
X215106647Y-96129856D02*
X215167123Y-96093570D01*
X215469504Y-96420141D02*
X215469504Y-95912141D01*
X215469504Y-95984713D02*
X215499742Y-95948427D01*
X215499742Y-95948427D02*
X215560218Y-95912141D01*
X215560218Y-95912141D02*
X215650933Y-95912141D01*
X215650933Y-95912141D02*
X215711409Y-95948427D01*
X215711409Y-95948427D02*
X215741647Y-96020998D01*
X215741647Y-96020998D02*
X215741647Y-96420141D01*
X215741647Y-96020998D02*
X215771885Y-95948427D01*
X215771885Y-95948427D02*
X215832361Y-95912141D01*
X215832361Y-95912141D02*
X215923075Y-95912141D01*
X215923075Y-95912141D02*
X215983552Y-95948427D01*
X215983552Y-95948427D02*
X216013790Y-96020998D01*
X216013790Y-96020998D02*
X216013790Y-96420141D01*
X216316171Y-96420141D02*
X216316171Y-95912141D01*
X216316171Y-95984713D02*
X216346409Y-95948427D01*
X216346409Y-95948427D02*
X216406885Y-95912141D01*
X216406885Y-95912141D02*
X216497600Y-95912141D01*
X216497600Y-95912141D02*
X216558076Y-95948427D01*
X216558076Y-95948427D02*
X216588314Y-96020998D01*
X216588314Y-96020998D02*
X216588314Y-96420141D01*
X216588314Y-96020998D02*
X216618552Y-95948427D01*
X216618552Y-95948427D02*
X216679028Y-95912141D01*
X216679028Y-95912141D02*
X216769742Y-95912141D01*
X216769742Y-95912141D02*
X216830219Y-95948427D01*
X216830219Y-95948427D02*
X216860457Y-96020998D01*
X216860457Y-96020998D02*
X216860457Y-96420141D01*
X217162838Y-96420141D02*
X217162838Y-95912141D01*
X217162838Y-95658141D02*
X217132600Y-95694427D01*
X217132600Y-95694427D02*
X217162838Y-95730713D01*
X217162838Y-95730713D02*
X217193076Y-95694427D01*
X217193076Y-95694427D02*
X217162838Y-95658141D01*
X217162838Y-95658141D02*
X217162838Y-95730713D01*
X217465219Y-95912141D02*
X217465219Y-96420141D01*
X217465219Y-95984713D02*
X217495457Y-95948427D01*
X217495457Y-95948427D02*
X217555933Y-95912141D01*
X217555933Y-95912141D02*
X217646648Y-95912141D01*
X217646648Y-95912141D02*
X217707124Y-95948427D01*
X217707124Y-95948427D02*
X217737362Y-96020998D01*
X217737362Y-96020998D02*
X217737362Y-96420141D01*
X218311886Y-95912141D02*
X218311886Y-96528998D01*
X218311886Y-96528998D02*
X218281648Y-96601570D01*
X218281648Y-96601570D02*
X218251410Y-96637856D01*
X218251410Y-96637856D02*
X218190933Y-96674141D01*
X218190933Y-96674141D02*
X218100219Y-96674141D01*
X218100219Y-96674141D02*
X218039743Y-96637856D01*
X218311886Y-96383856D02*
X218251410Y-96420141D01*
X218251410Y-96420141D02*
X218130457Y-96420141D01*
X218130457Y-96420141D02*
X218069981Y-96383856D01*
X218069981Y-96383856D02*
X218039743Y-96347570D01*
X218039743Y-96347570D02*
X218009505Y-96274998D01*
X218009505Y-96274998D02*
X218009505Y-96057284D01*
X218009505Y-96057284D02*
X218039743Y-95984713D01*
X218039743Y-95984713D02*
X218069981Y-95948427D01*
X218069981Y-95948427D02*
X218130457Y-95912141D01*
X218130457Y-95912141D02*
X218251410Y-95912141D01*
X218251410Y-95912141D02*
X218311886Y-95948427D01*
X219309744Y-96020998D02*
X219098077Y-96020998D01*
X219098077Y-96420141D02*
X219098077Y-95658141D01*
X219098077Y-95658141D02*
X219400458Y-95658141D01*
X219733077Y-96420141D02*
X219672601Y-96383856D01*
X219672601Y-96383856D02*
X219642363Y-96311284D01*
X219642363Y-96311284D02*
X219642363Y-95658141D01*
X220247125Y-96420141D02*
X220247125Y-96020998D01*
X220247125Y-96020998D02*
X220216887Y-95948427D01*
X220216887Y-95948427D02*
X220156411Y-95912141D01*
X220156411Y-95912141D02*
X220035458Y-95912141D01*
X220035458Y-95912141D02*
X219974982Y-95948427D01*
X220247125Y-96383856D02*
X220186649Y-96420141D01*
X220186649Y-96420141D02*
X220035458Y-96420141D01*
X220035458Y-96420141D02*
X219974982Y-96383856D01*
X219974982Y-96383856D02*
X219944744Y-96311284D01*
X219944744Y-96311284D02*
X219944744Y-96238713D01*
X219944744Y-96238713D02*
X219974982Y-96166141D01*
X219974982Y-96166141D02*
X220035458Y-96129856D01*
X220035458Y-96129856D02*
X220186649Y-96129856D01*
X220186649Y-96129856D02*
X220247125Y-96093570D01*
X220519268Y-96383856D02*
X220579744Y-96420141D01*
X220579744Y-96420141D02*
X220700696Y-96420141D01*
X220700696Y-96420141D02*
X220761173Y-96383856D01*
X220761173Y-96383856D02*
X220791411Y-96311284D01*
X220791411Y-96311284D02*
X220791411Y-96274998D01*
X220791411Y-96274998D02*
X220761173Y-96202427D01*
X220761173Y-96202427D02*
X220700696Y-96166141D01*
X220700696Y-96166141D02*
X220609982Y-96166141D01*
X220609982Y-96166141D02*
X220549506Y-96129856D01*
X220549506Y-96129856D02*
X220519268Y-96057284D01*
X220519268Y-96057284D02*
X220519268Y-96020998D01*
X220519268Y-96020998D02*
X220549506Y-95948427D01*
X220549506Y-95948427D02*
X220609982Y-95912141D01*
X220609982Y-95912141D02*
X220700696Y-95912141D01*
X220700696Y-95912141D02*
X220761173Y-95948427D01*
X221063554Y-96420141D02*
X221063554Y-95658141D01*
X221335697Y-96420141D02*
X221335697Y-96020998D01*
X221335697Y-96020998D02*
X221305459Y-95948427D01*
X221305459Y-95948427D02*
X221244983Y-95912141D01*
X221244983Y-95912141D02*
X221154268Y-95912141D01*
X221154268Y-95912141D02*
X221093792Y-95948427D01*
X221093792Y-95948427D02*
X221063554Y-95984713D01*
X222605698Y-96020998D02*
X223089508Y-96020998D01*
X223089508Y-96238713D02*
X222605698Y-96238713D01*
X223391888Y-96020998D02*
X223875698Y-96020998D01*
X223875698Y-96238713D02*
X223391888Y-96238713D01*
X168431123Y-131700197D02*
X168358552Y-131663911D01*
X168358552Y-131663911D02*
X168249694Y-131663911D01*
X168249694Y-131663911D02*
X168140837Y-131700197D01*
X168140837Y-131700197D02*
X168068266Y-131772768D01*
X168068266Y-131772768D02*
X168031980Y-131845340D01*
X168031980Y-131845340D02*
X167995694Y-131990483D01*
X167995694Y-131990483D02*
X167995694Y-132099340D01*
X167995694Y-132099340D02*
X168031980Y-132244483D01*
X168031980Y-132244483D02*
X168068266Y-132317054D01*
X168068266Y-132317054D02*
X168140837Y-132389626D01*
X168140837Y-132389626D02*
X168249694Y-132425911D01*
X168249694Y-132425911D02*
X168322266Y-132425911D01*
X168322266Y-132425911D02*
X168431123Y-132389626D01*
X168431123Y-132389626D02*
X168467409Y-132353340D01*
X168467409Y-132353340D02*
X168467409Y-132099340D01*
X168467409Y-132099340D02*
X168322266Y-132099340D01*
X168793980Y-132425911D02*
X168793980Y-131663911D01*
X168793980Y-131663911D02*
X169229409Y-132425911D01*
X169229409Y-132425911D02*
X169229409Y-131663911D01*
X169592266Y-132425911D02*
X169592266Y-131663911D01*
X169592266Y-131663911D02*
X169773695Y-131663911D01*
X169773695Y-131663911D02*
X169882552Y-131700197D01*
X169882552Y-131700197D02*
X169955123Y-131772768D01*
X169955123Y-131772768D02*
X169991409Y-131845340D01*
X169991409Y-131845340D02*
X170027695Y-131990483D01*
X170027695Y-131990483D02*
X170027695Y-132099340D01*
X170027695Y-132099340D02*
X169991409Y-132244483D01*
X169991409Y-132244483D02*
X169955123Y-132317054D01*
X169955123Y-132317054D02*
X169882552Y-132389626D01*
X169882552Y-132389626D02*
X169773695Y-132425911D01*
X169773695Y-132425911D02*
X169592266Y-132425911D01*
X225653694Y-80319626D02*
X225762552Y-80355911D01*
X225762552Y-80355911D02*
X225943980Y-80355911D01*
X225943980Y-80355911D02*
X226016552Y-80319626D01*
X226016552Y-80319626D02*
X226052837Y-80283340D01*
X226052837Y-80283340D02*
X226089123Y-80210768D01*
X226089123Y-80210768D02*
X226089123Y-80138197D01*
X226089123Y-80138197D02*
X226052837Y-80065626D01*
X226052837Y-80065626D02*
X226016552Y-80029340D01*
X226016552Y-80029340D02*
X225943980Y-79993054D01*
X225943980Y-79993054D02*
X225798837Y-79956768D01*
X225798837Y-79956768D02*
X225726266Y-79920483D01*
X225726266Y-79920483D02*
X225689980Y-79884197D01*
X225689980Y-79884197D02*
X225653694Y-79811626D01*
X225653694Y-79811626D02*
X225653694Y-79739054D01*
X225653694Y-79739054D02*
X225689980Y-79666483D01*
X225689980Y-79666483D02*
X225726266Y-79630197D01*
X225726266Y-79630197D02*
X225798837Y-79593911D01*
X225798837Y-79593911D02*
X225980266Y-79593911D01*
X225980266Y-79593911D02*
X226089123Y-79630197D01*
X226851123Y-80283340D02*
X226814837Y-80319626D01*
X226814837Y-80319626D02*
X226705980Y-80355911D01*
X226705980Y-80355911D02*
X226633408Y-80355911D01*
X226633408Y-80355911D02*
X226524551Y-80319626D01*
X226524551Y-80319626D02*
X226451980Y-80247054D01*
X226451980Y-80247054D02*
X226415694Y-80174483D01*
X226415694Y-80174483D02*
X226379408Y-80029340D01*
X226379408Y-80029340D02*
X226379408Y-79920483D01*
X226379408Y-79920483D02*
X226415694Y-79775340D01*
X226415694Y-79775340D02*
X226451980Y-79702768D01*
X226451980Y-79702768D02*
X226524551Y-79630197D01*
X226524551Y-79630197D02*
X226633408Y-79593911D01*
X226633408Y-79593911D02*
X226705980Y-79593911D01*
X226705980Y-79593911D02*
X226814837Y-79630197D01*
X226814837Y-79630197D02*
X226851123Y-79666483D01*
X227177694Y-80355911D02*
X227177694Y-79593911D01*
X227613123Y-80355911D02*
X227286551Y-79920483D01*
X227613123Y-79593911D02*
X227177694Y-80029340D01*
X214386980Y-75275911D02*
X214386980Y-74513911D01*
X215185266Y-75203340D02*
X215148980Y-75239626D01*
X215148980Y-75239626D02*
X215040123Y-75275911D01*
X215040123Y-75275911D02*
X214967551Y-75275911D01*
X214967551Y-75275911D02*
X214858694Y-75239626D01*
X214858694Y-75239626D02*
X214786123Y-75167054D01*
X214786123Y-75167054D02*
X214749837Y-75094483D01*
X214749837Y-75094483D02*
X214713551Y-74949340D01*
X214713551Y-74949340D02*
X214713551Y-74840483D01*
X214713551Y-74840483D02*
X214749837Y-74695340D01*
X214749837Y-74695340D02*
X214786123Y-74622768D01*
X214786123Y-74622768D02*
X214858694Y-74550197D01*
X214858694Y-74550197D02*
X214967551Y-74513911D01*
X214967551Y-74513911D02*
X215040123Y-74513911D01*
X215040123Y-74513911D02*
X215148980Y-74550197D01*
X215148980Y-74550197D02*
X215185266Y-74586483D01*
X215511837Y-74876768D02*
X215765837Y-74876768D01*
X215874694Y-75275911D02*
X215511837Y-75275911D01*
X215511837Y-75275911D02*
X215511837Y-74513911D01*
X215511837Y-74513911D02*
X215874694Y-74513911D01*
X216019838Y-75348483D02*
X216600409Y-75348483D01*
X216745551Y-75239626D02*
X216854409Y-75275911D01*
X216854409Y-75275911D02*
X217035837Y-75275911D01*
X217035837Y-75275911D02*
X217108409Y-75239626D01*
X217108409Y-75239626D02*
X217144694Y-75203340D01*
X217144694Y-75203340D02*
X217180980Y-75130768D01*
X217180980Y-75130768D02*
X217180980Y-75058197D01*
X217180980Y-75058197D02*
X217144694Y-74985626D01*
X217144694Y-74985626D02*
X217108409Y-74949340D01*
X217108409Y-74949340D02*
X217035837Y-74913054D01*
X217035837Y-74913054D02*
X216890694Y-74876768D01*
X216890694Y-74876768D02*
X216818123Y-74840483D01*
X216818123Y-74840483D02*
X216781837Y-74804197D01*
X216781837Y-74804197D02*
X216745551Y-74731626D01*
X216745551Y-74731626D02*
X216745551Y-74659054D01*
X216745551Y-74659054D02*
X216781837Y-74586483D01*
X216781837Y-74586483D02*
X216818123Y-74550197D01*
X216818123Y-74550197D02*
X216890694Y-74513911D01*
X216890694Y-74513911D02*
X217072123Y-74513911D01*
X217072123Y-74513911D02*
X217180980Y-74550197D01*
X217471265Y-75239626D02*
X217580123Y-75275911D01*
X217580123Y-75275911D02*
X217761551Y-75275911D01*
X217761551Y-75275911D02*
X217834123Y-75239626D01*
X217834123Y-75239626D02*
X217870408Y-75203340D01*
X217870408Y-75203340D02*
X217906694Y-75130768D01*
X217906694Y-75130768D02*
X217906694Y-75058197D01*
X217906694Y-75058197D02*
X217870408Y-74985626D01*
X217870408Y-74985626D02*
X217834123Y-74949340D01*
X217834123Y-74949340D02*
X217761551Y-74913054D01*
X217761551Y-74913054D02*
X217616408Y-74876768D01*
X217616408Y-74876768D02*
X217543837Y-74840483D01*
X217543837Y-74840483D02*
X217507551Y-74804197D01*
X217507551Y-74804197D02*
X217471265Y-74731626D01*
X217471265Y-74731626D02*
X217471265Y-74659054D01*
X217471265Y-74659054D02*
X217507551Y-74586483D01*
X217507551Y-74586483D02*
X217543837Y-74550197D01*
X217543837Y-74550197D02*
X217616408Y-74513911D01*
X217616408Y-74513911D02*
X217797837Y-74513911D01*
X217797837Y-74513911D02*
X217906694Y-74550197D01*
X167868694Y-127436626D02*
X167977552Y-127472911D01*
X167977552Y-127472911D02*
X168158980Y-127472911D01*
X168158980Y-127472911D02*
X168231552Y-127436626D01*
X168231552Y-127436626D02*
X168267837Y-127400340D01*
X168267837Y-127400340D02*
X168304123Y-127327768D01*
X168304123Y-127327768D02*
X168304123Y-127255197D01*
X168304123Y-127255197D02*
X168267837Y-127182626D01*
X168267837Y-127182626D02*
X168231552Y-127146340D01*
X168231552Y-127146340D02*
X168158980Y-127110054D01*
X168158980Y-127110054D02*
X168013837Y-127073768D01*
X168013837Y-127073768D02*
X167941266Y-127037483D01*
X167941266Y-127037483D02*
X167904980Y-127001197D01*
X167904980Y-127001197D02*
X167868694Y-126928626D01*
X167868694Y-126928626D02*
X167868694Y-126856054D01*
X167868694Y-126856054D02*
X167904980Y-126783483D01*
X167904980Y-126783483D02*
X167941266Y-126747197D01*
X167941266Y-126747197D02*
X168013837Y-126710911D01*
X168013837Y-126710911D02*
X168195266Y-126710911D01*
X168195266Y-126710911D02*
X168304123Y-126747197D01*
X168630694Y-127472911D02*
X168630694Y-126710911D01*
X168630694Y-126710911D02*
X168812123Y-126710911D01*
X168812123Y-126710911D02*
X168920980Y-126747197D01*
X168920980Y-126747197D02*
X168993551Y-126819768D01*
X168993551Y-126819768D02*
X169029837Y-126892340D01*
X169029837Y-126892340D02*
X169066123Y-127037483D01*
X169066123Y-127037483D02*
X169066123Y-127146340D01*
X169066123Y-127146340D02*
X169029837Y-127291483D01*
X169029837Y-127291483D02*
X168993551Y-127364054D01*
X168993551Y-127364054D02*
X168920980Y-127436626D01*
X168920980Y-127436626D02*
X168812123Y-127472911D01*
X168812123Y-127472911D02*
X168630694Y-127472911D01*
X169356408Y-127255197D02*
X169719266Y-127255197D01*
X169283837Y-127472911D02*
X169537837Y-126710911D01*
X169537837Y-126710911D02*
X169791837Y-127472911D01*
X225653694Y-77779626D02*
X225762552Y-77815911D01*
X225762552Y-77815911D02*
X225943980Y-77815911D01*
X225943980Y-77815911D02*
X226016552Y-77779626D01*
X226016552Y-77779626D02*
X226052837Y-77743340D01*
X226052837Y-77743340D02*
X226089123Y-77670768D01*
X226089123Y-77670768D02*
X226089123Y-77598197D01*
X226089123Y-77598197D02*
X226052837Y-77525626D01*
X226052837Y-77525626D02*
X226016552Y-77489340D01*
X226016552Y-77489340D02*
X225943980Y-77453054D01*
X225943980Y-77453054D02*
X225798837Y-77416768D01*
X225798837Y-77416768D02*
X225726266Y-77380483D01*
X225726266Y-77380483D02*
X225689980Y-77344197D01*
X225689980Y-77344197D02*
X225653694Y-77271626D01*
X225653694Y-77271626D02*
X225653694Y-77199054D01*
X225653694Y-77199054D02*
X225689980Y-77126483D01*
X225689980Y-77126483D02*
X225726266Y-77090197D01*
X225726266Y-77090197D02*
X225798837Y-77053911D01*
X225798837Y-77053911D02*
X225980266Y-77053911D01*
X225980266Y-77053911D02*
X226089123Y-77090197D01*
X226379408Y-77779626D02*
X226488266Y-77815911D01*
X226488266Y-77815911D02*
X226669694Y-77815911D01*
X226669694Y-77815911D02*
X226742266Y-77779626D01*
X226742266Y-77779626D02*
X226778551Y-77743340D01*
X226778551Y-77743340D02*
X226814837Y-77670768D01*
X226814837Y-77670768D02*
X226814837Y-77598197D01*
X226814837Y-77598197D02*
X226778551Y-77525626D01*
X226778551Y-77525626D02*
X226742266Y-77489340D01*
X226742266Y-77489340D02*
X226669694Y-77453054D01*
X226669694Y-77453054D02*
X226524551Y-77416768D01*
X226524551Y-77416768D02*
X226451980Y-77380483D01*
X226451980Y-77380483D02*
X226415694Y-77344197D01*
X226415694Y-77344197D02*
X226379408Y-77271626D01*
X226379408Y-77271626D02*
X226379408Y-77199054D01*
X226379408Y-77199054D02*
X226415694Y-77126483D01*
X226415694Y-77126483D02*
X226451980Y-77090197D01*
X226451980Y-77090197D02*
X226524551Y-77053911D01*
X226524551Y-77053911D02*
X226705980Y-77053911D01*
X226705980Y-77053911D02*
X226814837Y-77090197D01*
X225584752Y-76842366D02*
X226883780Y-76842366D01*
X226089123Y-74550197D02*
X226016552Y-74513911D01*
X226016552Y-74513911D02*
X225907694Y-74513911D01*
X225907694Y-74513911D02*
X225798837Y-74550197D01*
X225798837Y-74550197D02*
X225726266Y-74622768D01*
X225726266Y-74622768D02*
X225689980Y-74695340D01*
X225689980Y-74695340D02*
X225653694Y-74840483D01*
X225653694Y-74840483D02*
X225653694Y-74949340D01*
X225653694Y-74949340D02*
X225689980Y-75094483D01*
X225689980Y-75094483D02*
X225726266Y-75167054D01*
X225726266Y-75167054D02*
X225798837Y-75239626D01*
X225798837Y-75239626D02*
X225907694Y-75275911D01*
X225907694Y-75275911D02*
X225980266Y-75275911D01*
X225980266Y-75275911D02*
X226089123Y-75239626D01*
X226089123Y-75239626D02*
X226125409Y-75203340D01*
X226125409Y-75203340D02*
X226125409Y-74949340D01*
X226125409Y-74949340D02*
X225980266Y-74949340D01*
X226451980Y-75275911D02*
X226451980Y-74513911D01*
X226451980Y-74513911D02*
X226887409Y-75275911D01*
X226887409Y-75275911D02*
X226887409Y-74513911D01*
X227250266Y-75275911D02*
X227250266Y-74513911D01*
X227250266Y-74513911D02*
X227431695Y-74513911D01*
X227431695Y-74513911D02*
X227540552Y-74550197D01*
X227540552Y-74550197D02*
X227613123Y-74622768D01*
X227613123Y-74622768D02*
X227649409Y-74695340D01*
X227649409Y-74695340D02*
X227685695Y-74840483D01*
X227685695Y-74840483D02*
X227685695Y-74949340D01*
X227685695Y-74949340D02*
X227649409Y-75094483D01*
X227649409Y-75094483D02*
X227613123Y-75167054D01*
X227613123Y-75167054D02*
X227540552Y-75239626D01*
X227540552Y-75239626D02*
X227431695Y-75275911D01*
X227431695Y-75275911D02*
X227250266Y-75275911D01*
X184414980Y-98643911D02*
X184414980Y-99260768D01*
X184414980Y-99260768D02*
X184451266Y-99333340D01*
X184451266Y-99333340D02*
X184487552Y-99369626D01*
X184487552Y-99369626D02*
X184560123Y-99405911D01*
X184560123Y-99405911D02*
X184705266Y-99405911D01*
X184705266Y-99405911D02*
X184777837Y-99369626D01*
X184777837Y-99369626D02*
X184814123Y-99333340D01*
X184814123Y-99333340D02*
X184850409Y-99260768D01*
X184850409Y-99260768D02*
X184850409Y-98643911D01*
X185176980Y-99369626D02*
X185285838Y-99405911D01*
X185285838Y-99405911D02*
X185467266Y-99405911D01*
X185467266Y-99405911D02*
X185539838Y-99369626D01*
X185539838Y-99369626D02*
X185576123Y-99333340D01*
X185576123Y-99333340D02*
X185612409Y-99260768D01*
X185612409Y-99260768D02*
X185612409Y-99188197D01*
X185612409Y-99188197D02*
X185576123Y-99115626D01*
X185576123Y-99115626D02*
X185539838Y-99079340D01*
X185539838Y-99079340D02*
X185467266Y-99043054D01*
X185467266Y-99043054D02*
X185322123Y-99006768D01*
X185322123Y-99006768D02*
X185249552Y-98970483D01*
X185249552Y-98970483D02*
X185213266Y-98934197D01*
X185213266Y-98934197D02*
X185176980Y-98861626D01*
X185176980Y-98861626D02*
X185176980Y-98789054D01*
X185176980Y-98789054D02*
X185213266Y-98716483D01*
X185213266Y-98716483D02*
X185249552Y-98680197D01*
X185249552Y-98680197D02*
X185322123Y-98643911D01*
X185322123Y-98643911D02*
X185503552Y-98643911D01*
X185503552Y-98643911D02*
X185612409Y-98680197D01*
X185938980Y-99006768D02*
X186192980Y-99006768D01*
X186301837Y-99405911D02*
X185938980Y-99405911D01*
X185938980Y-99405911D02*
X185938980Y-98643911D01*
X185938980Y-98643911D02*
X186301837Y-98643911D01*
X187063838Y-99405911D02*
X186809838Y-99043054D01*
X186628409Y-99405911D02*
X186628409Y-98643911D01*
X186628409Y-98643911D02*
X186918695Y-98643911D01*
X186918695Y-98643911D02*
X186991266Y-98680197D01*
X186991266Y-98680197D02*
X187027552Y-98716483D01*
X187027552Y-98716483D02*
X187063838Y-98789054D01*
X187063838Y-98789054D02*
X187063838Y-98897911D01*
X187063838Y-98897911D02*
X187027552Y-98970483D01*
X187027552Y-98970483D02*
X186991266Y-99006768D01*
X186991266Y-99006768D02*
X186918695Y-99043054D01*
X186918695Y-99043054D02*
X186628409Y-99043054D01*
X187789552Y-99405911D02*
X187354123Y-99405911D01*
X187571838Y-99405911D02*
X187571838Y-98643911D01*
X187571838Y-98643911D02*
X187499266Y-98752768D01*
X187499266Y-98752768D02*
X187426695Y-98825340D01*
X187426695Y-98825340D02*
X187354123Y-98861626D01*
X167995694Y-129976626D02*
X168104552Y-130012911D01*
X168104552Y-130012911D02*
X168285980Y-130012911D01*
X168285980Y-130012911D02*
X168358552Y-129976626D01*
X168358552Y-129976626D02*
X168394837Y-129940340D01*
X168394837Y-129940340D02*
X168431123Y-129867768D01*
X168431123Y-129867768D02*
X168431123Y-129795197D01*
X168431123Y-129795197D02*
X168394837Y-129722626D01*
X168394837Y-129722626D02*
X168358552Y-129686340D01*
X168358552Y-129686340D02*
X168285980Y-129650054D01*
X168285980Y-129650054D02*
X168140837Y-129613768D01*
X168140837Y-129613768D02*
X168068266Y-129577483D01*
X168068266Y-129577483D02*
X168031980Y-129541197D01*
X168031980Y-129541197D02*
X167995694Y-129468626D01*
X167995694Y-129468626D02*
X167995694Y-129396054D01*
X167995694Y-129396054D02*
X168031980Y-129323483D01*
X168031980Y-129323483D02*
X168068266Y-129287197D01*
X168068266Y-129287197D02*
X168140837Y-129250911D01*
X168140837Y-129250911D02*
X168322266Y-129250911D01*
X168322266Y-129250911D02*
X168431123Y-129287197D01*
X169193123Y-129940340D02*
X169156837Y-129976626D01*
X169156837Y-129976626D02*
X169047980Y-130012911D01*
X169047980Y-130012911D02*
X168975408Y-130012911D01*
X168975408Y-130012911D02*
X168866551Y-129976626D01*
X168866551Y-129976626D02*
X168793980Y-129904054D01*
X168793980Y-129904054D02*
X168757694Y-129831483D01*
X168757694Y-129831483D02*
X168721408Y-129686340D01*
X168721408Y-129686340D02*
X168721408Y-129577483D01*
X168721408Y-129577483D02*
X168757694Y-129432340D01*
X168757694Y-129432340D02*
X168793980Y-129359768D01*
X168793980Y-129359768D02*
X168866551Y-129287197D01*
X168866551Y-129287197D02*
X168975408Y-129250911D01*
X168975408Y-129250911D02*
X169047980Y-129250911D01*
X169047980Y-129250911D02*
X169156837Y-129287197D01*
X169156837Y-129287197D02*
X169193123Y-129323483D01*
X169882551Y-130012911D02*
X169519694Y-130012911D01*
X169519694Y-130012911D02*
X169519694Y-129250911D01*
X212920432Y-132281042D02*
X212887171Y-132238708D01*
X212887171Y-132238708D02*
X212820647Y-132111708D01*
X212820647Y-132111708D02*
X212787385Y-132027042D01*
X212787385Y-132027042D02*
X212754123Y-131900042D01*
X212754123Y-131900042D02*
X212720861Y-131688375D01*
X212720861Y-131688375D02*
X212720861Y-131519042D01*
X212720861Y-131519042D02*
X212754123Y-131307375D01*
X212754123Y-131307375D02*
X212787385Y-131180375D01*
X212787385Y-131180375D02*
X212820647Y-131095708D01*
X212820647Y-131095708D02*
X212887171Y-130968708D01*
X212887171Y-130968708D02*
X212920432Y-130926375D01*
X213485885Y-131900042D02*
X213419361Y-131942375D01*
X213419361Y-131942375D02*
X213286314Y-131942375D01*
X213286314Y-131942375D02*
X213219790Y-131900042D01*
X213219790Y-131900042D02*
X213186528Y-131857708D01*
X213186528Y-131857708D02*
X213153266Y-131773042D01*
X213153266Y-131773042D02*
X213153266Y-131519042D01*
X213153266Y-131519042D02*
X213186528Y-131434375D01*
X213186528Y-131434375D02*
X213219790Y-131392042D01*
X213219790Y-131392042D02*
X213286314Y-131349708D01*
X213286314Y-131349708D02*
X213419361Y-131349708D01*
X213419361Y-131349708D02*
X213485885Y-131392042D01*
X213718718Y-132281042D02*
X213751980Y-132238708D01*
X213751980Y-132238708D02*
X213818504Y-132111708D01*
X213818504Y-132111708D02*
X213851766Y-132027042D01*
X213851766Y-132027042D02*
X213885028Y-131900042D01*
X213885028Y-131900042D02*
X213918290Y-131688375D01*
X213918290Y-131688375D02*
X213918290Y-131519042D01*
X213918290Y-131519042D02*
X213885028Y-131307375D01*
X213885028Y-131307375D02*
X213851766Y-131180375D01*
X213851766Y-131180375D02*
X213818504Y-131095708D01*
X213818504Y-131095708D02*
X213751980Y-130968708D01*
X213751980Y-130968708D02*
X213718718Y-130926375D01*
X214749837Y-131138042D02*
X214783099Y-131095708D01*
X214783099Y-131095708D02*
X214849623Y-131053375D01*
X214849623Y-131053375D02*
X215015932Y-131053375D01*
X215015932Y-131053375D02*
X215082456Y-131095708D01*
X215082456Y-131095708D02*
X215115718Y-131138042D01*
X215115718Y-131138042D02*
X215148980Y-131222708D01*
X215148980Y-131222708D02*
X215148980Y-131307375D01*
X215148980Y-131307375D02*
X215115718Y-131434375D01*
X215115718Y-131434375D02*
X214716575Y-131942375D01*
X214716575Y-131942375D02*
X215148980Y-131942375D01*
X215581385Y-131053375D02*
X215647908Y-131053375D01*
X215647908Y-131053375D02*
X215714432Y-131095708D01*
X215714432Y-131095708D02*
X215747694Y-131138042D01*
X215747694Y-131138042D02*
X215780956Y-131222708D01*
X215780956Y-131222708D02*
X215814218Y-131392042D01*
X215814218Y-131392042D02*
X215814218Y-131603708D01*
X215814218Y-131603708D02*
X215780956Y-131773042D01*
X215780956Y-131773042D02*
X215747694Y-131857708D01*
X215747694Y-131857708D02*
X215714432Y-131900042D01*
X215714432Y-131900042D02*
X215647908Y-131942375D01*
X215647908Y-131942375D02*
X215581385Y-131942375D01*
X215581385Y-131942375D02*
X215514861Y-131900042D01*
X215514861Y-131900042D02*
X215481599Y-131857708D01*
X215481599Y-131857708D02*
X215448337Y-131773042D01*
X215448337Y-131773042D02*
X215415075Y-131603708D01*
X215415075Y-131603708D02*
X215415075Y-131392042D01*
X215415075Y-131392042D02*
X215448337Y-131222708D01*
X215448337Y-131222708D02*
X215481599Y-131138042D01*
X215481599Y-131138042D02*
X215514861Y-131095708D01*
X215514861Y-131095708D02*
X215581385Y-131053375D01*
X216080313Y-131138042D02*
X216113575Y-131095708D01*
X216113575Y-131095708D02*
X216180099Y-131053375D01*
X216180099Y-131053375D02*
X216346408Y-131053375D01*
X216346408Y-131053375D02*
X216412932Y-131095708D01*
X216412932Y-131095708D02*
X216446194Y-131138042D01*
X216446194Y-131138042D02*
X216479456Y-131222708D01*
X216479456Y-131222708D02*
X216479456Y-131307375D01*
X216479456Y-131307375D02*
X216446194Y-131434375D01*
X216446194Y-131434375D02*
X216047051Y-131942375D01*
X216047051Y-131942375D02*
X216479456Y-131942375D01*
X217078170Y-131349708D02*
X217078170Y-131942375D01*
X216911861Y-131011042D02*
X216745551Y-131646042D01*
X216745551Y-131646042D02*
X217177956Y-131646042D01*
X217444051Y-131603708D02*
X217976242Y-131603708D01*
X218441909Y-131053375D02*
X218508432Y-131053375D01*
X218508432Y-131053375D02*
X218574956Y-131095708D01*
X218574956Y-131095708D02*
X218608218Y-131138042D01*
X218608218Y-131138042D02*
X218641480Y-131222708D01*
X218641480Y-131222708D02*
X218674742Y-131392042D01*
X218674742Y-131392042D02*
X218674742Y-131603708D01*
X218674742Y-131603708D02*
X218641480Y-131773042D01*
X218641480Y-131773042D02*
X218608218Y-131857708D01*
X218608218Y-131857708D02*
X218574956Y-131900042D01*
X218574956Y-131900042D02*
X218508432Y-131942375D01*
X218508432Y-131942375D02*
X218441909Y-131942375D01*
X218441909Y-131942375D02*
X218375385Y-131900042D01*
X218375385Y-131900042D02*
X218342123Y-131857708D01*
X218342123Y-131857708D02*
X218308861Y-131773042D01*
X218308861Y-131773042D02*
X218275599Y-131603708D01*
X218275599Y-131603708D02*
X218275599Y-131392042D01*
X218275599Y-131392042D02*
X218308861Y-131222708D01*
X218308861Y-131222708D02*
X218342123Y-131138042D01*
X218342123Y-131138042D02*
X218375385Y-131095708D01*
X218375385Y-131095708D02*
X218441909Y-131053375D01*
X218940837Y-131138042D02*
X218974099Y-131095708D01*
X218974099Y-131095708D02*
X219040623Y-131053375D01*
X219040623Y-131053375D02*
X219206932Y-131053375D01*
X219206932Y-131053375D02*
X219273456Y-131095708D01*
X219273456Y-131095708D02*
X219306718Y-131138042D01*
X219306718Y-131138042D02*
X219339980Y-131222708D01*
X219339980Y-131222708D02*
X219339980Y-131307375D01*
X219339980Y-131307375D02*
X219306718Y-131434375D01*
X219306718Y-131434375D02*
X218907575Y-131942375D01*
X218907575Y-131942375D02*
X219339980Y-131942375D01*
X219639337Y-131603708D02*
X220171528Y-131603708D01*
X220637195Y-131053375D02*
X220703718Y-131053375D01*
X220703718Y-131053375D02*
X220770242Y-131095708D01*
X220770242Y-131095708D02*
X220803504Y-131138042D01*
X220803504Y-131138042D02*
X220836766Y-131222708D01*
X220836766Y-131222708D02*
X220870028Y-131392042D01*
X220870028Y-131392042D02*
X220870028Y-131603708D01*
X220870028Y-131603708D02*
X220836766Y-131773042D01*
X220836766Y-131773042D02*
X220803504Y-131857708D01*
X220803504Y-131857708D02*
X220770242Y-131900042D01*
X220770242Y-131900042D02*
X220703718Y-131942375D01*
X220703718Y-131942375D02*
X220637195Y-131942375D01*
X220637195Y-131942375D02*
X220570671Y-131900042D01*
X220570671Y-131900042D02*
X220537409Y-131857708D01*
X220537409Y-131857708D02*
X220504147Y-131773042D01*
X220504147Y-131773042D02*
X220470885Y-131603708D01*
X220470885Y-131603708D02*
X220470885Y-131392042D01*
X220470885Y-131392042D02*
X220504147Y-131222708D01*
X220504147Y-131222708D02*
X220537409Y-131138042D01*
X220537409Y-131138042D02*
X220570671Y-131095708D01*
X220570671Y-131095708D02*
X220637195Y-131053375D01*
X221535266Y-131942375D02*
X221136123Y-131942375D01*
X221335695Y-131942375D02*
X221335695Y-131053375D01*
X221335695Y-131053375D02*
X221269171Y-131180375D01*
X221269171Y-131180375D02*
X221202647Y-131265042D01*
X221202647Y-131265042D02*
X221136123Y-131307375D01*
X213053480Y-133373665D02*
X212720861Y-133373665D01*
X212720861Y-133373665D02*
X212720861Y-132484665D01*
X213585670Y-133373665D02*
X213585670Y-132907998D01*
X213585670Y-132907998D02*
X213552408Y-132823332D01*
X213552408Y-132823332D02*
X213485884Y-132780998D01*
X213485884Y-132780998D02*
X213352837Y-132780998D01*
X213352837Y-132780998D02*
X213286313Y-132823332D01*
X213585670Y-133331332D02*
X213519146Y-133373665D01*
X213519146Y-133373665D02*
X213352837Y-133373665D01*
X213352837Y-133373665D02*
X213286313Y-133331332D01*
X213286313Y-133331332D02*
X213253051Y-133246665D01*
X213253051Y-133246665D02*
X213253051Y-133161998D01*
X213253051Y-133161998D02*
X213286313Y-133077332D01*
X213286313Y-133077332D02*
X213352837Y-133034998D01*
X213352837Y-133034998D02*
X213519146Y-133034998D01*
X213519146Y-133034998D02*
X213585670Y-132992665D01*
X213851765Y-132780998D02*
X213984813Y-133373665D01*
X213984813Y-133373665D02*
X214117860Y-132950332D01*
X214117860Y-132950332D02*
X214250908Y-133373665D01*
X214250908Y-133373665D02*
X214383956Y-132780998D01*
X214650051Y-133373665D02*
X214650051Y-132780998D01*
X214650051Y-132950332D02*
X214683313Y-132865665D01*
X214683313Y-132865665D02*
X214716575Y-132823332D01*
X214716575Y-132823332D02*
X214783099Y-132780998D01*
X214783099Y-132780998D02*
X214849622Y-132780998D01*
X215348551Y-133331332D02*
X215282027Y-133373665D01*
X215282027Y-133373665D02*
X215148980Y-133373665D01*
X215148980Y-133373665D02*
X215082456Y-133331332D01*
X215082456Y-133331332D02*
X215049194Y-133246665D01*
X215049194Y-133246665D02*
X215049194Y-132907998D01*
X215049194Y-132907998D02*
X215082456Y-132823332D01*
X215082456Y-132823332D02*
X215148980Y-132780998D01*
X215148980Y-132780998D02*
X215282027Y-132780998D01*
X215282027Y-132780998D02*
X215348551Y-132823332D01*
X215348551Y-132823332D02*
X215381813Y-132907998D01*
X215381813Y-132907998D02*
X215381813Y-132992665D01*
X215381813Y-132992665D02*
X215049194Y-133077332D01*
X215681170Y-132780998D02*
X215681170Y-133373665D01*
X215681170Y-132865665D02*
X215714432Y-132823332D01*
X215714432Y-132823332D02*
X215780956Y-132780998D01*
X215780956Y-132780998D02*
X215880741Y-132780998D01*
X215880741Y-132780998D02*
X215947265Y-132823332D01*
X215947265Y-132823332D02*
X215980527Y-132907998D01*
X215980527Y-132907998D02*
X215980527Y-133373665D01*
X216612503Y-133331332D02*
X216545979Y-133373665D01*
X216545979Y-133373665D02*
X216412932Y-133373665D01*
X216412932Y-133373665D02*
X216346408Y-133331332D01*
X216346408Y-133331332D02*
X216313146Y-133288998D01*
X216313146Y-133288998D02*
X216279884Y-133204332D01*
X216279884Y-133204332D02*
X216279884Y-132950332D01*
X216279884Y-132950332D02*
X216313146Y-132865665D01*
X216313146Y-132865665D02*
X216346408Y-132823332D01*
X216346408Y-132823332D02*
X216412932Y-132780998D01*
X216412932Y-132780998D02*
X216545979Y-132780998D01*
X216545979Y-132780998D02*
X216612503Y-132823332D01*
X217177955Y-133331332D02*
X217111431Y-133373665D01*
X217111431Y-133373665D02*
X216978384Y-133373665D01*
X216978384Y-133373665D02*
X216911860Y-133331332D01*
X216911860Y-133331332D02*
X216878598Y-133246665D01*
X216878598Y-133246665D02*
X216878598Y-132907998D01*
X216878598Y-132907998D02*
X216911860Y-132823332D01*
X216911860Y-132823332D02*
X216978384Y-132780998D01*
X216978384Y-132780998D02*
X217111431Y-132780998D01*
X217111431Y-132780998D02*
X217177955Y-132823332D01*
X217177955Y-132823332D02*
X217211217Y-132907998D01*
X217211217Y-132907998D02*
X217211217Y-132992665D01*
X217211217Y-132992665D02*
X216878598Y-133077332D01*
X218042764Y-133373665D02*
X218042764Y-132484665D01*
X218042764Y-132484665D02*
X218275597Y-133119665D01*
X218275597Y-133119665D02*
X218508431Y-132484665D01*
X218508431Y-132484665D02*
X218508431Y-133373665D01*
X219140407Y-133373665D02*
X219140407Y-132907998D01*
X219140407Y-132907998D02*
X219107145Y-132823332D01*
X219107145Y-132823332D02*
X219040621Y-132780998D01*
X219040621Y-132780998D02*
X218907574Y-132780998D01*
X218907574Y-132780998D02*
X218841050Y-132823332D01*
X219140407Y-133331332D02*
X219073883Y-133373665D01*
X219073883Y-133373665D02*
X218907574Y-133373665D01*
X218907574Y-133373665D02*
X218841050Y-133331332D01*
X218841050Y-133331332D02*
X218807788Y-133246665D01*
X218807788Y-133246665D02*
X218807788Y-133161998D01*
X218807788Y-133161998D02*
X218841050Y-133077332D01*
X218841050Y-133077332D02*
X218907574Y-133034998D01*
X218907574Y-133034998D02*
X219073883Y-133034998D01*
X219073883Y-133034998D02*
X219140407Y-132992665D01*
X219473026Y-132780998D02*
X219473026Y-133373665D01*
X219473026Y-132865665D02*
X219506288Y-132823332D01*
X219506288Y-132823332D02*
X219572812Y-132780998D01*
X219572812Y-132780998D02*
X219672597Y-132780998D01*
X219672597Y-132780998D02*
X219739121Y-132823332D01*
X219739121Y-132823332D02*
X219772383Y-132907998D01*
X219772383Y-132907998D02*
X219772383Y-133373665D01*
X220105002Y-132780998D02*
X220105002Y-133373665D01*
X220105002Y-132865665D02*
X220138264Y-132823332D01*
X220138264Y-132823332D02*
X220204788Y-132780998D01*
X220204788Y-132780998D02*
X220304573Y-132780998D01*
X220304573Y-132780998D02*
X220371097Y-132823332D01*
X220371097Y-132823332D02*
X220404359Y-132907998D01*
X220404359Y-132907998D02*
X220404359Y-133373665D01*
X220736978Y-133373665D02*
X220736978Y-132780998D01*
X220736978Y-132484665D02*
X220703716Y-132526998D01*
X220703716Y-132526998D02*
X220736978Y-132569332D01*
X220736978Y-132569332D02*
X220770240Y-132526998D01*
X220770240Y-132526998D02*
X220736978Y-132484665D01*
X220736978Y-132484665D02*
X220736978Y-132569332D01*
X221069597Y-132780998D02*
X221069597Y-133373665D01*
X221069597Y-132865665D02*
X221102859Y-132823332D01*
X221102859Y-132823332D02*
X221169383Y-132780998D01*
X221169383Y-132780998D02*
X221269168Y-132780998D01*
X221269168Y-132780998D02*
X221335692Y-132823332D01*
X221335692Y-132823332D02*
X221368954Y-132907998D01*
X221368954Y-132907998D02*
X221368954Y-133373665D01*
X222000930Y-132780998D02*
X222000930Y-133500665D01*
X222000930Y-133500665D02*
X221967668Y-133585332D01*
X221967668Y-133585332D02*
X221934406Y-133627665D01*
X221934406Y-133627665D02*
X221867883Y-133669998D01*
X221867883Y-133669998D02*
X221768097Y-133669998D01*
X221768097Y-133669998D02*
X221701573Y-133627665D01*
X222000930Y-133331332D02*
X221934406Y-133373665D01*
X221934406Y-133373665D02*
X221801359Y-133373665D01*
X221801359Y-133373665D02*
X221734835Y-133331332D01*
X221734835Y-133331332D02*
X221701573Y-133288998D01*
X221701573Y-133288998D02*
X221668311Y-133204332D01*
X221668311Y-133204332D02*
X221668311Y-132950332D01*
X221668311Y-132950332D02*
X221701573Y-132865665D01*
X221701573Y-132865665D02*
X221734835Y-132823332D01*
X221734835Y-132823332D02*
X221801359Y-132780998D01*
X221801359Y-132780998D02*
X221934406Y-132780998D01*
X221934406Y-132780998D02*
X222000930Y-132823332D01*
X212654337Y-134212288D02*
X212787385Y-134804955D01*
X212787385Y-134804955D02*
X212920432Y-134381622D01*
X212920432Y-134381622D02*
X213053480Y-134804955D01*
X213053480Y-134804955D02*
X213186528Y-134212288D01*
X213386099Y-134212288D02*
X213519147Y-134804955D01*
X213519147Y-134804955D02*
X213652194Y-134381622D01*
X213652194Y-134381622D02*
X213785242Y-134804955D01*
X213785242Y-134804955D02*
X213918290Y-134212288D01*
X214117861Y-134212288D02*
X214250909Y-134804955D01*
X214250909Y-134804955D02*
X214383956Y-134381622D01*
X214383956Y-134381622D02*
X214517004Y-134804955D01*
X214517004Y-134804955D02*
X214650052Y-134212288D01*
X214916147Y-134720288D02*
X214949409Y-134762622D01*
X214949409Y-134762622D02*
X214916147Y-134804955D01*
X214916147Y-134804955D02*
X214882885Y-134762622D01*
X214882885Y-134762622D02*
X214916147Y-134720288D01*
X214916147Y-134720288D02*
X214916147Y-134804955D01*
X215548123Y-134804955D02*
X215548123Y-134339288D01*
X215548123Y-134339288D02*
X215514861Y-134254622D01*
X215514861Y-134254622D02*
X215448337Y-134212288D01*
X215448337Y-134212288D02*
X215315290Y-134212288D01*
X215315290Y-134212288D02*
X215248766Y-134254622D01*
X215548123Y-134762622D02*
X215481599Y-134804955D01*
X215481599Y-134804955D02*
X215315290Y-134804955D01*
X215315290Y-134804955D02*
X215248766Y-134762622D01*
X215248766Y-134762622D02*
X215215504Y-134677955D01*
X215215504Y-134677955D02*
X215215504Y-134593288D01*
X215215504Y-134593288D02*
X215248766Y-134508622D01*
X215248766Y-134508622D02*
X215315290Y-134466288D01*
X215315290Y-134466288D02*
X215481599Y-134466288D01*
X215481599Y-134466288D02*
X215548123Y-134423955D01*
X215847480Y-134762622D02*
X215914004Y-134804955D01*
X215914004Y-134804955D02*
X216047052Y-134804955D01*
X216047052Y-134804955D02*
X216113575Y-134762622D01*
X216113575Y-134762622D02*
X216146837Y-134677955D01*
X216146837Y-134677955D02*
X216146837Y-134635622D01*
X216146837Y-134635622D02*
X216113575Y-134550955D01*
X216113575Y-134550955D02*
X216047052Y-134508622D01*
X216047052Y-134508622D02*
X215947266Y-134508622D01*
X215947266Y-134508622D02*
X215880742Y-134466288D01*
X215880742Y-134466288D02*
X215847480Y-134381622D01*
X215847480Y-134381622D02*
X215847480Y-134339288D01*
X215847480Y-134339288D02*
X215880742Y-134254622D01*
X215880742Y-134254622D02*
X215947266Y-134212288D01*
X215947266Y-134212288D02*
X216047052Y-134212288D01*
X216047052Y-134212288D02*
X216113575Y-134254622D01*
X216545980Y-134804955D02*
X216479456Y-134762622D01*
X216479456Y-134762622D02*
X216446194Y-134677955D01*
X216446194Y-134677955D02*
X216446194Y-133915955D01*
X217111432Y-134804955D02*
X217111432Y-134339288D01*
X217111432Y-134339288D02*
X217078170Y-134254622D01*
X217078170Y-134254622D02*
X217011646Y-134212288D01*
X217011646Y-134212288D02*
X216878599Y-134212288D01*
X216878599Y-134212288D02*
X216812075Y-134254622D01*
X217111432Y-134762622D02*
X217044908Y-134804955D01*
X217044908Y-134804955D02*
X216878599Y-134804955D01*
X216878599Y-134804955D02*
X216812075Y-134762622D01*
X216812075Y-134762622D02*
X216778813Y-134677955D01*
X216778813Y-134677955D02*
X216778813Y-134593288D01*
X216778813Y-134593288D02*
X216812075Y-134508622D01*
X216812075Y-134508622D02*
X216878599Y-134466288D01*
X216878599Y-134466288D02*
X217044908Y-134466288D01*
X217044908Y-134466288D02*
X217111432Y-134423955D01*
X217444051Y-134804955D02*
X217444051Y-133915955D01*
X217510575Y-134466288D02*
X217710146Y-134804955D01*
X217710146Y-134212288D02*
X217444051Y-134550955D01*
X218009503Y-134720288D02*
X218042765Y-134762622D01*
X218042765Y-134762622D02*
X218009503Y-134804955D01*
X218009503Y-134804955D02*
X217976241Y-134762622D01*
X217976241Y-134762622D02*
X218009503Y-134720288D01*
X218009503Y-134720288D02*
X218009503Y-134804955D01*
X218342122Y-134212288D02*
X218342122Y-134804955D01*
X218342122Y-134296955D02*
X218375384Y-134254622D01*
X218375384Y-134254622D02*
X218441908Y-134212288D01*
X218441908Y-134212288D02*
X218541693Y-134212288D01*
X218541693Y-134212288D02*
X218608217Y-134254622D01*
X218608217Y-134254622D02*
X218641479Y-134339288D01*
X218641479Y-134339288D02*
X218641479Y-134804955D01*
X219240193Y-134762622D02*
X219173669Y-134804955D01*
X219173669Y-134804955D02*
X219040622Y-134804955D01*
X219040622Y-134804955D02*
X218974098Y-134762622D01*
X218974098Y-134762622D02*
X218940836Y-134677955D01*
X218940836Y-134677955D02*
X218940836Y-134339288D01*
X218940836Y-134339288D02*
X218974098Y-134254622D01*
X218974098Y-134254622D02*
X219040622Y-134212288D01*
X219040622Y-134212288D02*
X219173669Y-134212288D01*
X219173669Y-134212288D02*
X219240193Y-134254622D01*
X219240193Y-134254622D02*
X219273455Y-134339288D01*
X219273455Y-134339288D02*
X219273455Y-134423955D01*
X219273455Y-134423955D02*
X218940836Y-134508622D01*
X219473026Y-134212288D02*
X219739122Y-134212288D01*
X219572812Y-133915955D02*
X219572812Y-134677955D01*
X219572812Y-134677955D02*
X219606074Y-134762622D01*
X219606074Y-134762622D02*
X219672598Y-134804955D01*
X219672598Y-134804955D02*
X219739122Y-134804955D01*
X184414980Y-103723911D02*
X184414980Y-104340768D01*
X184414980Y-104340768D02*
X184451266Y-104413340D01*
X184451266Y-104413340D02*
X184487552Y-104449626D01*
X184487552Y-104449626D02*
X184560123Y-104485911D01*
X184560123Y-104485911D02*
X184705266Y-104485911D01*
X184705266Y-104485911D02*
X184777837Y-104449626D01*
X184777837Y-104449626D02*
X184814123Y-104413340D01*
X184814123Y-104413340D02*
X184850409Y-104340768D01*
X184850409Y-104340768D02*
X184850409Y-103723911D01*
X185176980Y-104449626D02*
X185285838Y-104485911D01*
X185285838Y-104485911D02*
X185467266Y-104485911D01*
X185467266Y-104485911D02*
X185539838Y-104449626D01*
X185539838Y-104449626D02*
X185576123Y-104413340D01*
X185576123Y-104413340D02*
X185612409Y-104340768D01*
X185612409Y-104340768D02*
X185612409Y-104268197D01*
X185612409Y-104268197D02*
X185576123Y-104195626D01*
X185576123Y-104195626D02*
X185539838Y-104159340D01*
X185539838Y-104159340D02*
X185467266Y-104123054D01*
X185467266Y-104123054D02*
X185322123Y-104086768D01*
X185322123Y-104086768D02*
X185249552Y-104050483D01*
X185249552Y-104050483D02*
X185213266Y-104014197D01*
X185213266Y-104014197D02*
X185176980Y-103941626D01*
X185176980Y-103941626D02*
X185176980Y-103869054D01*
X185176980Y-103869054D02*
X185213266Y-103796483D01*
X185213266Y-103796483D02*
X185249552Y-103760197D01*
X185249552Y-103760197D02*
X185322123Y-103723911D01*
X185322123Y-103723911D02*
X185503552Y-103723911D01*
X185503552Y-103723911D02*
X185612409Y-103760197D01*
X185938980Y-104086768D02*
X186192980Y-104086768D01*
X186301837Y-104485911D02*
X185938980Y-104485911D01*
X185938980Y-104485911D02*
X185938980Y-103723911D01*
X185938980Y-103723911D02*
X186301837Y-103723911D01*
X187063838Y-104485911D02*
X186809838Y-104123054D01*
X186628409Y-104485911D02*
X186628409Y-103723911D01*
X186628409Y-103723911D02*
X186918695Y-103723911D01*
X186918695Y-103723911D02*
X186991266Y-103760197D01*
X186991266Y-103760197D02*
X187027552Y-103796483D01*
X187027552Y-103796483D02*
X187063838Y-103869054D01*
X187063838Y-103869054D02*
X187063838Y-103977911D01*
X187063838Y-103977911D02*
X187027552Y-104050483D01*
X187027552Y-104050483D02*
X186991266Y-104086768D01*
X186991266Y-104086768D02*
X186918695Y-104123054D01*
X186918695Y-104123054D02*
X186628409Y-104123054D01*
X187317838Y-103723911D02*
X187789552Y-103723911D01*
X187789552Y-103723911D02*
X187535552Y-104014197D01*
X187535552Y-104014197D02*
X187644409Y-104014197D01*
X187644409Y-104014197D02*
X187716981Y-104050483D01*
X187716981Y-104050483D02*
X187753266Y-104086768D01*
X187753266Y-104086768D02*
X187789552Y-104159340D01*
X187789552Y-104159340D02*
X187789552Y-104340768D01*
X187789552Y-104340768D02*
X187753266Y-104413340D01*
X187753266Y-104413340D02*
X187716981Y-104449626D01*
X187716981Y-104449626D02*
X187644409Y-104485911D01*
X187644409Y-104485911D02*
X187426695Y-104485911D01*
X187426695Y-104485911D02*
X187354123Y-104449626D01*
X187354123Y-104449626D02*
X187317838Y-104413340D01*
X184414980Y-96103911D02*
X184414980Y-96720768D01*
X184414980Y-96720768D02*
X184451266Y-96793340D01*
X184451266Y-96793340D02*
X184487552Y-96829626D01*
X184487552Y-96829626D02*
X184560123Y-96865911D01*
X184560123Y-96865911D02*
X184705266Y-96865911D01*
X184705266Y-96865911D02*
X184777837Y-96829626D01*
X184777837Y-96829626D02*
X184814123Y-96793340D01*
X184814123Y-96793340D02*
X184850409Y-96720768D01*
X184850409Y-96720768D02*
X184850409Y-96103911D01*
X185176980Y-96829626D02*
X185285838Y-96865911D01*
X185285838Y-96865911D02*
X185467266Y-96865911D01*
X185467266Y-96865911D02*
X185539838Y-96829626D01*
X185539838Y-96829626D02*
X185576123Y-96793340D01*
X185576123Y-96793340D02*
X185612409Y-96720768D01*
X185612409Y-96720768D02*
X185612409Y-96648197D01*
X185612409Y-96648197D02*
X185576123Y-96575626D01*
X185576123Y-96575626D02*
X185539838Y-96539340D01*
X185539838Y-96539340D02*
X185467266Y-96503054D01*
X185467266Y-96503054D02*
X185322123Y-96466768D01*
X185322123Y-96466768D02*
X185249552Y-96430483D01*
X185249552Y-96430483D02*
X185213266Y-96394197D01*
X185213266Y-96394197D02*
X185176980Y-96321626D01*
X185176980Y-96321626D02*
X185176980Y-96249054D01*
X185176980Y-96249054D02*
X185213266Y-96176483D01*
X185213266Y-96176483D02*
X185249552Y-96140197D01*
X185249552Y-96140197D02*
X185322123Y-96103911D01*
X185322123Y-96103911D02*
X185503552Y-96103911D01*
X185503552Y-96103911D02*
X185612409Y-96140197D01*
X185938980Y-96466768D02*
X186192980Y-96466768D01*
X186301837Y-96865911D02*
X185938980Y-96865911D01*
X185938980Y-96865911D02*
X185938980Y-96103911D01*
X185938980Y-96103911D02*
X186301837Y-96103911D01*
X187063838Y-96865911D02*
X186809838Y-96503054D01*
X186628409Y-96865911D02*
X186628409Y-96103911D01*
X186628409Y-96103911D02*
X186918695Y-96103911D01*
X186918695Y-96103911D02*
X186991266Y-96140197D01*
X186991266Y-96140197D02*
X187027552Y-96176483D01*
X187027552Y-96176483D02*
X187063838Y-96249054D01*
X187063838Y-96249054D02*
X187063838Y-96357911D01*
X187063838Y-96357911D02*
X187027552Y-96430483D01*
X187027552Y-96430483D02*
X186991266Y-96466768D01*
X186991266Y-96466768D02*
X186918695Y-96503054D01*
X186918695Y-96503054D02*
X186628409Y-96503054D01*
X187535552Y-96103911D02*
X187608123Y-96103911D01*
X187608123Y-96103911D02*
X187680695Y-96140197D01*
X187680695Y-96140197D02*
X187716981Y-96176483D01*
X187716981Y-96176483D02*
X187753266Y-96249054D01*
X187753266Y-96249054D02*
X187789552Y-96394197D01*
X187789552Y-96394197D02*
X187789552Y-96575626D01*
X187789552Y-96575626D02*
X187753266Y-96720768D01*
X187753266Y-96720768D02*
X187716981Y-96793340D01*
X187716981Y-96793340D02*
X187680695Y-96829626D01*
X187680695Y-96829626D02*
X187608123Y-96865911D01*
X187608123Y-96865911D02*
X187535552Y-96865911D01*
X187535552Y-96865911D02*
X187462981Y-96829626D01*
X187462981Y-96829626D02*
X187426695Y-96793340D01*
X187426695Y-96793340D02*
X187390409Y-96720768D01*
X187390409Y-96720768D02*
X187354123Y-96575626D01*
X187354123Y-96575626D02*
X187354123Y-96394197D01*
X187354123Y-96394197D02*
X187390409Y-96249054D01*
X187390409Y-96249054D02*
X187426695Y-96176483D01*
X187426695Y-96176483D02*
X187462981Y-96140197D01*
X187462981Y-96140197D02*
X187535552Y-96103911D01*
X161707285Y-118709911D02*
X161344428Y-118709911D01*
X161344428Y-118709911D02*
X161344428Y-117947911D01*
X161961285Y-118310768D02*
X162215285Y-118310768D01*
X162324142Y-118709911D02*
X161961285Y-118709911D01*
X161961285Y-118709911D02*
X161961285Y-117947911D01*
X161961285Y-117947911D02*
X162324142Y-117947911D01*
X162650714Y-118709911D02*
X162650714Y-117947911D01*
X162650714Y-117947911D02*
X162832143Y-117947911D01*
X162832143Y-117947911D02*
X162941000Y-117984197D01*
X162941000Y-117984197D02*
X163013571Y-118056768D01*
X163013571Y-118056768D02*
X163049857Y-118129340D01*
X163049857Y-118129340D02*
X163086143Y-118274483D01*
X163086143Y-118274483D02*
X163086143Y-118383340D01*
X163086143Y-118383340D02*
X163049857Y-118528483D01*
X163049857Y-118528483D02*
X163013571Y-118601054D01*
X163013571Y-118601054D02*
X162941000Y-118673626D01*
X162941000Y-118673626D02*
X162832143Y-118709911D01*
X162832143Y-118709911D02*
X162650714Y-118709911D01*
X163557857Y-117947911D02*
X163630428Y-117947911D01*
X163630428Y-117947911D02*
X163703000Y-117984197D01*
X163703000Y-117984197D02*
X163739286Y-118020483D01*
X163739286Y-118020483D02*
X163775571Y-118093054D01*
X163775571Y-118093054D02*
X163811857Y-118238197D01*
X163811857Y-118238197D02*
X163811857Y-118419626D01*
X163811857Y-118419626D02*
X163775571Y-118564768D01*
X163775571Y-118564768D02*
X163739286Y-118637340D01*
X163739286Y-118637340D02*
X163703000Y-118673626D01*
X163703000Y-118673626D02*
X163630428Y-118709911D01*
X163630428Y-118709911D02*
X163557857Y-118709911D01*
X163557857Y-118709911D02*
X163485286Y-118673626D01*
X163485286Y-118673626D02*
X163449000Y-118637340D01*
X163449000Y-118637340D02*
X163412714Y-118564768D01*
X163412714Y-118564768D02*
X163376428Y-118419626D01*
X163376428Y-118419626D02*
X163376428Y-118238197D01*
X163376428Y-118238197D02*
X163412714Y-118093054D01*
X163412714Y-118093054D02*
X163449000Y-118020483D01*
X163449000Y-118020483D02*
X163485286Y-117984197D01*
X163485286Y-117984197D02*
X163557857Y-117947911D01*
X225689980Y-82895911D02*
X225689980Y-82133911D01*
X225689980Y-82133911D02*
X225943980Y-82678197D01*
X225943980Y-82678197D02*
X226197980Y-82133911D01*
X226197980Y-82133911D02*
X226197980Y-82895911D01*
X226560837Y-82895911D02*
X226560837Y-82133911D01*
X226887408Y-82859626D02*
X226996266Y-82895911D01*
X226996266Y-82895911D02*
X227177694Y-82895911D01*
X227177694Y-82895911D02*
X227250266Y-82859626D01*
X227250266Y-82859626D02*
X227286551Y-82823340D01*
X227286551Y-82823340D02*
X227322837Y-82750768D01*
X227322837Y-82750768D02*
X227322837Y-82678197D01*
X227322837Y-82678197D02*
X227286551Y-82605626D01*
X227286551Y-82605626D02*
X227250266Y-82569340D01*
X227250266Y-82569340D02*
X227177694Y-82533054D01*
X227177694Y-82533054D02*
X227032551Y-82496768D01*
X227032551Y-82496768D02*
X226959980Y-82460483D01*
X226959980Y-82460483D02*
X226923694Y-82424197D01*
X226923694Y-82424197D02*
X226887408Y-82351626D01*
X226887408Y-82351626D02*
X226887408Y-82279054D01*
X226887408Y-82279054D02*
X226923694Y-82206483D01*
X226923694Y-82206483D02*
X226959980Y-82170197D01*
X226959980Y-82170197D02*
X227032551Y-82133911D01*
X227032551Y-82133911D02*
X227213980Y-82133911D01*
X227213980Y-82133911D02*
X227322837Y-82170197D01*
X227794551Y-82133911D02*
X227939694Y-82133911D01*
X227939694Y-82133911D02*
X228012265Y-82170197D01*
X228012265Y-82170197D02*
X228084837Y-82242768D01*
X228084837Y-82242768D02*
X228121122Y-82387911D01*
X228121122Y-82387911D02*
X228121122Y-82641911D01*
X228121122Y-82641911D02*
X228084837Y-82787054D01*
X228084837Y-82787054D02*
X228012265Y-82859626D01*
X228012265Y-82859626D02*
X227939694Y-82895911D01*
X227939694Y-82895911D02*
X227794551Y-82895911D01*
X227794551Y-82895911D02*
X227721980Y-82859626D01*
X227721980Y-82859626D02*
X227649408Y-82787054D01*
X227649408Y-82787054D02*
X227613122Y-82641911D01*
X227613122Y-82641911D02*
X227613122Y-82387911D01*
X227613122Y-82387911D02*
X227649408Y-82242768D01*
X227649408Y-82242768D02*
X227721980Y-82170197D01*
X227721980Y-82170197D02*
X227794551Y-82133911D01*
X167832409Y-124170911D02*
X168304123Y-124170911D01*
X168304123Y-124170911D02*
X168050123Y-124461197D01*
X168050123Y-124461197D02*
X168158980Y-124461197D01*
X168158980Y-124461197D02*
X168231552Y-124497483D01*
X168231552Y-124497483D02*
X168267837Y-124533768D01*
X168267837Y-124533768D02*
X168304123Y-124606340D01*
X168304123Y-124606340D02*
X168304123Y-124787768D01*
X168304123Y-124787768D02*
X168267837Y-124860340D01*
X168267837Y-124860340D02*
X168231552Y-124896626D01*
X168231552Y-124896626D02*
X168158980Y-124932911D01*
X168158980Y-124932911D02*
X167941266Y-124932911D01*
X167941266Y-124932911D02*
X167868694Y-124896626D01*
X167868694Y-124896626D02*
X167832409Y-124860340D01*
X168521837Y-124170911D02*
X168775837Y-124932911D01*
X168775837Y-124932911D02*
X169029837Y-124170911D01*
X169211266Y-124170911D02*
X169682980Y-124170911D01*
X169682980Y-124170911D02*
X169428980Y-124461197D01*
X169428980Y-124461197D02*
X169537837Y-124461197D01*
X169537837Y-124461197D02*
X169610409Y-124497483D01*
X169610409Y-124497483D02*
X169646694Y-124533768D01*
X169646694Y-124533768D02*
X169682980Y-124606340D01*
X169682980Y-124606340D02*
X169682980Y-124787768D01*
X169682980Y-124787768D02*
X169646694Y-124860340D01*
X169646694Y-124860340D02*
X169610409Y-124896626D01*
X169610409Y-124896626D02*
X169537837Y-124932911D01*
X169537837Y-124932911D02*
X169320123Y-124932911D01*
X169320123Y-124932911D02*
X169247551Y-124896626D01*
X169247551Y-124896626D02*
X169211266Y-124860340D01*
X161707285Y-125567911D02*
X161344428Y-125567911D01*
X161344428Y-125567911D02*
X161344428Y-124805911D01*
X161961285Y-125168768D02*
X162215285Y-125168768D01*
X162324142Y-125567911D02*
X161961285Y-125567911D01*
X161961285Y-125567911D02*
X161961285Y-124805911D01*
X161961285Y-124805911D02*
X162324142Y-124805911D01*
X162650714Y-125567911D02*
X162650714Y-124805911D01*
X162650714Y-124805911D02*
X162832143Y-124805911D01*
X162832143Y-124805911D02*
X162941000Y-124842197D01*
X162941000Y-124842197D02*
X163013571Y-124914768D01*
X163013571Y-124914768D02*
X163049857Y-124987340D01*
X163049857Y-124987340D02*
X163086143Y-125132483D01*
X163086143Y-125132483D02*
X163086143Y-125241340D01*
X163086143Y-125241340D02*
X163049857Y-125386483D01*
X163049857Y-125386483D02*
X163013571Y-125459054D01*
X163013571Y-125459054D02*
X162941000Y-125531626D01*
X162941000Y-125531626D02*
X162832143Y-125567911D01*
X162832143Y-125567911D02*
X162650714Y-125567911D01*
X163376428Y-124878483D02*
X163412714Y-124842197D01*
X163412714Y-124842197D02*
X163485286Y-124805911D01*
X163485286Y-124805911D02*
X163666714Y-124805911D01*
X163666714Y-124805911D02*
X163739286Y-124842197D01*
X163739286Y-124842197D02*
X163775571Y-124878483D01*
X163775571Y-124878483D02*
X163811857Y-124951054D01*
X163811857Y-124951054D02*
X163811857Y-125023626D01*
X163811857Y-125023626D02*
X163775571Y-125132483D01*
X163775571Y-125132483D02*
X163340143Y-125567911D01*
X163340143Y-125567911D02*
X163811857Y-125567911D01*
X184414980Y-106263911D02*
X184414980Y-106880768D01*
X184414980Y-106880768D02*
X184451266Y-106953340D01*
X184451266Y-106953340D02*
X184487552Y-106989626D01*
X184487552Y-106989626D02*
X184560123Y-107025911D01*
X184560123Y-107025911D02*
X184705266Y-107025911D01*
X184705266Y-107025911D02*
X184777837Y-106989626D01*
X184777837Y-106989626D02*
X184814123Y-106953340D01*
X184814123Y-106953340D02*
X184850409Y-106880768D01*
X184850409Y-106880768D02*
X184850409Y-106263911D01*
X185176980Y-106989626D02*
X185285838Y-107025911D01*
X185285838Y-107025911D02*
X185467266Y-107025911D01*
X185467266Y-107025911D02*
X185539838Y-106989626D01*
X185539838Y-106989626D02*
X185576123Y-106953340D01*
X185576123Y-106953340D02*
X185612409Y-106880768D01*
X185612409Y-106880768D02*
X185612409Y-106808197D01*
X185612409Y-106808197D02*
X185576123Y-106735626D01*
X185576123Y-106735626D02*
X185539838Y-106699340D01*
X185539838Y-106699340D02*
X185467266Y-106663054D01*
X185467266Y-106663054D02*
X185322123Y-106626768D01*
X185322123Y-106626768D02*
X185249552Y-106590483D01*
X185249552Y-106590483D02*
X185213266Y-106554197D01*
X185213266Y-106554197D02*
X185176980Y-106481626D01*
X185176980Y-106481626D02*
X185176980Y-106409054D01*
X185176980Y-106409054D02*
X185213266Y-106336483D01*
X185213266Y-106336483D02*
X185249552Y-106300197D01*
X185249552Y-106300197D02*
X185322123Y-106263911D01*
X185322123Y-106263911D02*
X185503552Y-106263911D01*
X185503552Y-106263911D02*
X185612409Y-106300197D01*
X185938980Y-106626768D02*
X186192980Y-106626768D01*
X186301837Y-107025911D02*
X185938980Y-107025911D01*
X185938980Y-107025911D02*
X185938980Y-106263911D01*
X185938980Y-106263911D02*
X186301837Y-106263911D01*
X187063838Y-107025911D02*
X186809838Y-106663054D01*
X186628409Y-107025911D02*
X186628409Y-106263911D01*
X186628409Y-106263911D02*
X186918695Y-106263911D01*
X186918695Y-106263911D02*
X186991266Y-106300197D01*
X186991266Y-106300197D02*
X187027552Y-106336483D01*
X187027552Y-106336483D02*
X187063838Y-106409054D01*
X187063838Y-106409054D02*
X187063838Y-106517911D01*
X187063838Y-106517911D02*
X187027552Y-106590483D01*
X187027552Y-106590483D02*
X186991266Y-106626768D01*
X186991266Y-106626768D02*
X186918695Y-106663054D01*
X186918695Y-106663054D02*
X186628409Y-106663054D01*
X187716981Y-106517911D02*
X187716981Y-107025911D01*
X187535552Y-106227626D02*
X187354123Y-106771911D01*
X187354123Y-106771911D02*
X187825838Y-106771911D01*
X159307071Y-114500768D02*
X159415928Y-114537054D01*
X159415928Y-114537054D02*
X159452214Y-114573340D01*
X159452214Y-114573340D02*
X159488500Y-114645911D01*
X159488500Y-114645911D02*
X159488500Y-114754768D01*
X159488500Y-114754768D02*
X159452214Y-114827340D01*
X159452214Y-114827340D02*
X159415928Y-114863626D01*
X159415928Y-114863626D02*
X159343357Y-114899911D01*
X159343357Y-114899911D02*
X159053071Y-114899911D01*
X159053071Y-114899911D02*
X159053071Y-114137911D01*
X159053071Y-114137911D02*
X159307071Y-114137911D01*
X159307071Y-114137911D02*
X159379643Y-114174197D01*
X159379643Y-114174197D02*
X159415928Y-114210483D01*
X159415928Y-114210483D02*
X159452214Y-114283054D01*
X159452214Y-114283054D02*
X159452214Y-114355626D01*
X159452214Y-114355626D02*
X159415928Y-114428197D01*
X159415928Y-114428197D02*
X159379643Y-114464483D01*
X159379643Y-114464483D02*
X159307071Y-114500768D01*
X159307071Y-114500768D02*
X159053071Y-114500768D01*
X159815071Y-114137911D02*
X159815071Y-114754768D01*
X159815071Y-114754768D02*
X159851357Y-114827340D01*
X159851357Y-114827340D02*
X159887643Y-114863626D01*
X159887643Y-114863626D02*
X159960214Y-114899911D01*
X159960214Y-114899911D02*
X160105357Y-114899911D01*
X160105357Y-114899911D02*
X160177928Y-114863626D01*
X160177928Y-114863626D02*
X160214214Y-114827340D01*
X160214214Y-114827340D02*
X160250500Y-114754768D01*
X160250500Y-114754768D02*
X160250500Y-114137911D01*
X160504500Y-114137911D02*
X160939929Y-114137911D01*
X160722214Y-114899911D02*
X160722214Y-114137911D01*
X161085071Y-114137911D02*
X161520500Y-114137911D01*
X161302785Y-114899911D02*
X161302785Y-114137911D01*
X161919642Y-114137911D02*
X162064785Y-114137911D01*
X162064785Y-114137911D02*
X162137356Y-114174197D01*
X162137356Y-114174197D02*
X162209928Y-114246768D01*
X162209928Y-114246768D02*
X162246213Y-114391911D01*
X162246213Y-114391911D02*
X162246213Y-114645911D01*
X162246213Y-114645911D02*
X162209928Y-114791054D01*
X162209928Y-114791054D02*
X162137356Y-114863626D01*
X162137356Y-114863626D02*
X162064785Y-114899911D01*
X162064785Y-114899911D02*
X161919642Y-114899911D01*
X161919642Y-114899911D02*
X161847071Y-114863626D01*
X161847071Y-114863626D02*
X161774499Y-114791054D01*
X161774499Y-114791054D02*
X161738213Y-114645911D01*
X161738213Y-114645911D02*
X161738213Y-114391911D01*
X161738213Y-114391911D02*
X161774499Y-114246768D01*
X161774499Y-114246768D02*
X161847071Y-114174197D01*
X161847071Y-114174197D02*
X161919642Y-114137911D01*
X162572785Y-114899911D02*
X162572785Y-114137911D01*
X162572785Y-114137911D02*
X163008214Y-114899911D01*
X163008214Y-114899911D02*
X163008214Y-114137911D01*
X163516214Y-114137911D02*
X163588785Y-114137911D01*
X163588785Y-114137911D02*
X163661357Y-114174197D01*
X163661357Y-114174197D02*
X163697643Y-114210483D01*
X163697643Y-114210483D02*
X163733928Y-114283054D01*
X163733928Y-114283054D02*
X163770214Y-114428197D01*
X163770214Y-114428197D02*
X163770214Y-114609626D01*
X163770214Y-114609626D02*
X163733928Y-114754768D01*
X163733928Y-114754768D02*
X163697643Y-114827340D01*
X163697643Y-114827340D02*
X163661357Y-114863626D01*
X163661357Y-114863626D02*
X163588785Y-114899911D01*
X163588785Y-114899911D02*
X163516214Y-114899911D01*
X163516214Y-114899911D02*
X163443643Y-114863626D01*
X163443643Y-114863626D02*
X163407357Y-114827340D01*
X163407357Y-114827340D02*
X163371071Y-114754768D01*
X163371071Y-114754768D02*
X163334785Y-114609626D01*
X163334785Y-114609626D02*
X163334785Y-114428197D01*
X163334785Y-114428197D02*
X163371071Y-114283054D01*
X163371071Y-114283054D02*
X163407357Y-114210483D01*
X163407357Y-114210483D02*
X163443643Y-114174197D01*
X163443643Y-114174197D02*
X163516214Y-114137911D01*
X161707285Y-122138911D02*
X161344428Y-122138911D01*
X161344428Y-122138911D02*
X161344428Y-121376911D01*
X161961285Y-121739768D02*
X162215285Y-121739768D01*
X162324142Y-122138911D02*
X161961285Y-122138911D01*
X161961285Y-122138911D02*
X161961285Y-121376911D01*
X161961285Y-121376911D02*
X162324142Y-121376911D01*
X162650714Y-122138911D02*
X162650714Y-121376911D01*
X162650714Y-121376911D02*
X162832143Y-121376911D01*
X162832143Y-121376911D02*
X162941000Y-121413197D01*
X162941000Y-121413197D02*
X163013571Y-121485768D01*
X163013571Y-121485768D02*
X163049857Y-121558340D01*
X163049857Y-121558340D02*
X163086143Y-121703483D01*
X163086143Y-121703483D02*
X163086143Y-121812340D01*
X163086143Y-121812340D02*
X163049857Y-121957483D01*
X163049857Y-121957483D02*
X163013571Y-122030054D01*
X163013571Y-122030054D02*
X162941000Y-122102626D01*
X162941000Y-122102626D02*
X162832143Y-122138911D01*
X162832143Y-122138911D02*
X162650714Y-122138911D01*
X163811857Y-122138911D02*
X163376428Y-122138911D01*
X163594143Y-122138911D02*
X163594143Y-121376911D01*
X163594143Y-121376911D02*
X163521571Y-121485768D01*
X163521571Y-121485768D02*
X163449000Y-121558340D01*
X163449000Y-121558340D02*
X163376428Y-121594626D01*
X206792284Y-70090501D02*
X206937427Y-70090501D01*
X206937427Y-70090501D02*
X207009998Y-70126787D01*
X207009998Y-70126787D02*
X207082570Y-70199358D01*
X207082570Y-70199358D02*
X207118855Y-70344501D01*
X207118855Y-70344501D02*
X207118855Y-70598501D01*
X207118855Y-70598501D02*
X207082570Y-70743644D01*
X207082570Y-70743644D02*
X207009998Y-70816216D01*
X207009998Y-70816216D02*
X206937427Y-70852501D01*
X206937427Y-70852501D02*
X206792284Y-70852501D01*
X206792284Y-70852501D02*
X206719713Y-70816216D01*
X206719713Y-70816216D02*
X206647141Y-70743644D01*
X206647141Y-70743644D02*
X206610855Y-70598501D01*
X206610855Y-70598501D02*
X206610855Y-70344501D01*
X206610855Y-70344501D02*
X206647141Y-70199358D01*
X206647141Y-70199358D02*
X206719713Y-70126787D01*
X206719713Y-70126787D02*
X206792284Y-70090501D01*
X207445427Y-70344501D02*
X207445427Y-71106501D01*
X207445427Y-70380787D02*
X207517999Y-70344501D01*
X207517999Y-70344501D02*
X207663141Y-70344501D01*
X207663141Y-70344501D02*
X207735713Y-70380787D01*
X207735713Y-70380787D02*
X207771999Y-70417073D01*
X207771999Y-70417073D02*
X207808284Y-70489644D01*
X207808284Y-70489644D02*
X207808284Y-70707358D01*
X207808284Y-70707358D02*
X207771999Y-70779930D01*
X207771999Y-70779930D02*
X207735713Y-70816216D01*
X207735713Y-70816216D02*
X207663141Y-70852501D01*
X207663141Y-70852501D02*
X207517999Y-70852501D01*
X207517999Y-70852501D02*
X207445427Y-70816216D01*
X208425142Y-70816216D02*
X208352570Y-70852501D01*
X208352570Y-70852501D02*
X208207428Y-70852501D01*
X208207428Y-70852501D02*
X208134856Y-70816216D01*
X208134856Y-70816216D02*
X208098570Y-70743644D01*
X208098570Y-70743644D02*
X208098570Y-70453358D01*
X208098570Y-70453358D02*
X208134856Y-70380787D01*
X208134856Y-70380787D02*
X208207428Y-70344501D01*
X208207428Y-70344501D02*
X208352570Y-70344501D01*
X208352570Y-70344501D02*
X208425142Y-70380787D01*
X208425142Y-70380787D02*
X208461428Y-70453358D01*
X208461428Y-70453358D02*
X208461428Y-70525930D01*
X208461428Y-70525930D02*
X208098570Y-70598501D01*
X208787999Y-70344501D02*
X208787999Y-70852501D01*
X208787999Y-70417073D02*
X208824285Y-70380787D01*
X208824285Y-70380787D02*
X208896856Y-70344501D01*
X208896856Y-70344501D02*
X209005713Y-70344501D01*
X209005713Y-70344501D02*
X209078285Y-70380787D01*
X209078285Y-70380787D02*
X209114571Y-70453358D01*
X209114571Y-70453358D02*
X209114571Y-70852501D01*
X209477428Y-70453358D02*
X210058000Y-70453358D01*
X210058000Y-70671073D02*
X209477428Y-70671073D01*
X210420857Y-70344501D02*
X210420857Y-71106501D01*
X210420857Y-70380787D02*
X210493429Y-70344501D01*
X210493429Y-70344501D02*
X210638571Y-70344501D01*
X210638571Y-70344501D02*
X210711143Y-70380787D01*
X210711143Y-70380787D02*
X210747429Y-70417073D01*
X210747429Y-70417073D02*
X210783714Y-70489644D01*
X210783714Y-70489644D02*
X210783714Y-70707358D01*
X210783714Y-70707358D02*
X210747429Y-70779930D01*
X210747429Y-70779930D02*
X210711143Y-70816216D01*
X210711143Y-70816216D02*
X210638571Y-70852501D01*
X210638571Y-70852501D02*
X210493429Y-70852501D01*
X210493429Y-70852501D02*
X210420857Y-70816216D01*
X211110286Y-70852501D02*
X211110286Y-70344501D01*
X211110286Y-70489644D02*
X211146572Y-70417073D01*
X211146572Y-70417073D02*
X211182858Y-70380787D01*
X211182858Y-70380787D02*
X211255429Y-70344501D01*
X211255429Y-70344501D02*
X211328000Y-70344501D01*
X211690857Y-70852501D02*
X211618286Y-70816216D01*
X211618286Y-70816216D02*
X211582000Y-70779930D01*
X211582000Y-70779930D02*
X211545714Y-70707358D01*
X211545714Y-70707358D02*
X211545714Y-70489644D01*
X211545714Y-70489644D02*
X211582000Y-70417073D01*
X211582000Y-70417073D02*
X211618286Y-70380787D01*
X211618286Y-70380787D02*
X211690857Y-70344501D01*
X211690857Y-70344501D02*
X211799714Y-70344501D01*
X211799714Y-70344501D02*
X211872286Y-70380787D01*
X211872286Y-70380787D02*
X211908572Y-70417073D01*
X211908572Y-70417073D02*
X211944857Y-70489644D01*
X211944857Y-70489644D02*
X211944857Y-70707358D01*
X211944857Y-70707358D02*
X211908572Y-70779930D01*
X211908572Y-70779930D02*
X211872286Y-70816216D01*
X211872286Y-70816216D02*
X211799714Y-70852501D01*
X211799714Y-70852501D02*
X211690857Y-70852501D01*
X212598001Y-70344501D02*
X212598001Y-70961358D01*
X212598001Y-70961358D02*
X212561715Y-71033930D01*
X212561715Y-71033930D02*
X212525429Y-71070216D01*
X212525429Y-71070216D02*
X212452858Y-71106501D01*
X212452858Y-71106501D02*
X212344001Y-71106501D01*
X212344001Y-71106501D02*
X212271429Y-71070216D01*
X212598001Y-70816216D02*
X212525429Y-70852501D01*
X212525429Y-70852501D02*
X212380286Y-70852501D01*
X212380286Y-70852501D02*
X212307715Y-70816216D01*
X212307715Y-70816216D02*
X212271429Y-70779930D01*
X212271429Y-70779930D02*
X212235143Y-70707358D01*
X212235143Y-70707358D02*
X212235143Y-70489644D01*
X212235143Y-70489644D02*
X212271429Y-70417073D01*
X212271429Y-70417073D02*
X212307715Y-70380787D01*
X212307715Y-70380787D02*
X212380286Y-70344501D01*
X212380286Y-70344501D02*
X212525429Y-70344501D01*
X212525429Y-70344501D02*
X212598001Y-70380787D01*
X213541429Y-70852501D02*
X213541429Y-70344501D01*
X213541429Y-70090501D02*
X213505143Y-70126787D01*
X213505143Y-70126787D02*
X213541429Y-70163073D01*
X213541429Y-70163073D02*
X213577715Y-70126787D01*
X213577715Y-70126787D02*
X213541429Y-70090501D01*
X213541429Y-70090501D02*
X213541429Y-70163073D01*
X214339715Y-70779930D02*
X214303429Y-70816216D01*
X214303429Y-70816216D02*
X214194572Y-70852501D01*
X214194572Y-70852501D02*
X214122000Y-70852501D01*
X214122000Y-70852501D02*
X214013143Y-70816216D01*
X214013143Y-70816216D02*
X213940572Y-70743644D01*
X213940572Y-70743644D02*
X213904286Y-70671073D01*
X213904286Y-70671073D02*
X213868000Y-70525930D01*
X213868000Y-70525930D02*
X213868000Y-70417073D01*
X213868000Y-70417073D02*
X213904286Y-70271930D01*
X213904286Y-70271930D02*
X213940572Y-70199358D01*
X213940572Y-70199358D02*
X214013143Y-70126787D01*
X214013143Y-70126787D02*
X214122000Y-70090501D01*
X214122000Y-70090501D02*
X214194572Y-70090501D01*
X214194572Y-70090501D02*
X214303429Y-70126787D01*
X214303429Y-70126787D02*
X214339715Y-70163073D01*
X214666286Y-70453358D02*
X214920286Y-70453358D01*
X215029143Y-70852501D02*
X214666286Y-70852501D01*
X214666286Y-70852501D02*
X214666286Y-70090501D01*
X214666286Y-70090501D02*
X215029143Y-70090501D01*
X205975856Y-72006750D02*
X205939570Y-72043036D01*
X205939570Y-72043036D02*
X205830713Y-72079321D01*
X205830713Y-72079321D02*
X205758141Y-72079321D01*
X205758141Y-72079321D02*
X205649284Y-72043036D01*
X205649284Y-72043036D02*
X205576713Y-71970464D01*
X205576713Y-71970464D02*
X205540427Y-71897893D01*
X205540427Y-71897893D02*
X205504141Y-71752750D01*
X205504141Y-71752750D02*
X205504141Y-71643893D01*
X205504141Y-71643893D02*
X205540427Y-71498750D01*
X205540427Y-71498750D02*
X205576713Y-71426178D01*
X205576713Y-71426178D02*
X205649284Y-71353607D01*
X205649284Y-71353607D02*
X205758141Y-71317321D01*
X205758141Y-71317321D02*
X205830713Y-71317321D01*
X205830713Y-71317321D02*
X205939570Y-71353607D01*
X205939570Y-71353607D02*
X205975856Y-71389893D01*
X206411284Y-72079321D02*
X206338713Y-72043036D01*
X206338713Y-72043036D02*
X206302427Y-71970464D01*
X206302427Y-71970464D02*
X206302427Y-71317321D01*
X206810427Y-72079321D02*
X206737856Y-72043036D01*
X206737856Y-72043036D02*
X206701570Y-72006750D01*
X206701570Y-72006750D02*
X206665284Y-71934178D01*
X206665284Y-71934178D02*
X206665284Y-71716464D01*
X206665284Y-71716464D02*
X206701570Y-71643893D01*
X206701570Y-71643893D02*
X206737856Y-71607607D01*
X206737856Y-71607607D02*
X206810427Y-71571321D01*
X206810427Y-71571321D02*
X206919284Y-71571321D01*
X206919284Y-71571321D02*
X206991856Y-71607607D01*
X206991856Y-71607607D02*
X207028142Y-71643893D01*
X207028142Y-71643893D02*
X207064427Y-71716464D01*
X207064427Y-71716464D02*
X207064427Y-71934178D01*
X207064427Y-71934178D02*
X207028142Y-72006750D01*
X207028142Y-72006750D02*
X206991856Y-72043036D01*
X206991856Y-72043036D02*
X206919284Y-72079321D01*
X206919284Y-72079321D02*
X206810427Y-72079321D01*
X207354713Y-72043036D02*
X207427285Y-72079321D01*
X207427285Y-72079321D02*
X207572428Y-72079321D01*
X207572428Y-72079321D02*
X207644999Y-72043036D01*
X207644999Y-72043036D02*
X207681285Y-71970464D01*
X207681285Y-71970464D02*
X207681285Y-71934178D01*
X207681285Y-71934178D02*
X207644999Y-71861607D01*
X207644999Y-71861607D02*
X207572428Y-71825321D01*
X207572428Y-71825321D02*
X207463571Y-71825321D01*
X207463571Y-71825321D02*
X207390999Y-71789036D01*
X207390999Y-71789036D02*
X207354713Y-71716464D01*
X207354713Y-71716464D02*
X207354713Y-71680178D01*
X207354713Y-71680178D02*
X207390999Y-71607607D01*
X207390999Y-71607607D02*
X207463571Y-71571321D01*
X207463571Y-71571321D02*
X207572428Y-71571321D01*
X207572428Y-71571321D02*
X207644999Y-71607607D01*
X208298142Y-72043036D02*
X208225570Y-72079321D01*
X208225570Y-72079321D02*
X208080428Y-72079321D01*
X208080428Y-72079321D02*
X208007856Y-72043036D01*
X208007856Y-72043036D02*
X207971570Y-71970464D01*
X207971570Y-71970464D02*
X207971570Y-71680178D01*
X207971570Y-71680178D02*
X208007856Y-71607607D01*
X208007856Y-71607607D02*
X208080428Y-71571321D01*
X208080428Y-71571321D02*
X208225570Y-71571321D01*
X208225570Y-71571321D02*
X208298142Y-71607607D01*
X208298142Y-71607607D02*
X208334428Y-71680178D01*
X208334428Y-71680178D02*
X208334428Y-71752750D01*
X208334428Y-71752750D02*
X207971570Y-71825321D01*
X208987571Y-72079321D02*
X208987571Y-71317321D01*
X208987571Y-72043036D02*
X208914999Y-72079321D01*
X208914999Y-72079321D02*
X208769856Y-72079321D01*
X208769856Y-72079321D02*
X208697285Y-72043036D01*
X208697285Y-72043036D02*
X208660999Y-72006750D01*
X208660999Y-72006750D02*
X208624713Y-71934178D01*
X208624713Y-71934178D02*
X208624713Y-71716464D01*
X208624713Y-71716464D02*
X208660999Y-71643893D01*
X208660999Y-71643893D02*
X208697285Y-71607607D01*
X208697285Y-71607607D02*
X208769856Y-71571321D01*
X208769856Y-71571321D02*
X208914999Y-71571321D01*
X208914999Y-71571321D02*
X208987571Y-71607607D01*
X209350428Y-71680178D02*
X209931000Y-71680178D01*
X209931000Y-71897893D02*
X209350428Y-71897893D01*
X210293857Y-71571321D02*
X210293857Y-72333321D01*
X210293857Y-71607607D02*
X210366429Y-71571321D01*
X210366429Y-71571321D02*
X210511571Y-71571321D01*
X210511571Y-71571321D02*
X210584143Y-71607607D01*
X210584143Y-71607607D02*
X210620429Y-71643893D01*
X210620429Y-71643893D02*
X210656714Y-71716464D01*
X210656714Y-71716464D02*
X210656714Y-71934178D01*
X210656714Y-71934178D02*
X210620429Y-72006750D01*
X210620429Y-72006750D02*
X210584143Y-72043036D01*
X210584143Y-72043036D02*
X210511571Y-72079321D01*
X210511571Y-72079321D02*
X210366429Y-72079321D01*
X210366429Y-72079321D02*
X210293857Y-72043036D01*
X210983286Y-72079321D02*
X210983286Y-71571321D01*
X210983286Y-71716464D02*
X211019572Y-71643893D01*
X211019572Y-71643893D02*
X211055858Y-71607607D01*
X211055858Y-71607607D02*
X211128429Y-71571321D01*
X211128429Y-71571321D02*
X211201000Y-71571321D01*
X211563857Y-72079321D02*
X211491286Y-72043036D01*
X211491286Y-72043036D02*
X211455000Y-72006750D01*
X211455000Y-72006750D02*
X211418714Y-71934178D01*
X211418714Y-71934178D02*
X211418714Y-71716464D01*
X211418714Y-71716464D02*
X211455000Y-71643893D01*
X211455000Y-71643893D02*
X211491286Y-71607607D01*
X211491286Y-71607607D02*
X211563857Y-71571321D01*
X211563857Y-71571321D02*
X211672714Y-71571321D01*
X211672714Y-71571321D02*
X211745286Y-71607607D01*
X211745286Y-71607607D02*
X211781572Y-71643893D01*
X211781572Y-71643893D02*
X211817857Y-71716464D01*
X211817857Y-71716464D02*
X211817857Y-71934178D01*
X211817857Y-71934178D02*
X211781572Y-72006750D01*
X211781572Y-72006750D02*
X211745286Y-72043036D01*
X211745286Y-72043036D02*
X211672714Y-72079321D01*
X211672714Y-72079321D02*
X211563857Y-72079321D01*
X212471001Y-71571321D02*
X212471001Y-72188178D01*
X212471001Y-72188178D02*
X212434715Y-72260750D01*
X212434715Y-72260750D02*
X212398429Y-72297036D01*
X212398429Y-72297036D02*
X212325858Y-72333321D01*
X212325858Y-72333321D02*
X212217001Y-72333321D01*
X212217001Y-72333321D02*
X212144429Y-72297036D01*
X212471001Y-72043036D02*
X212398429Y-72079321D01*
X212398429Y-72079321D02*
X212253286Y-72079321D01*
X212253286Y-72079321D02*
X212180715Y-72043036D01*
X212180715Y-72043036D02*
X212144429Y-72006750D01*
X212144429Y-72006750D02*
X212108143Y-71934178D01*
X212108143Y-71934178D02*
X212108143Y-71716464D01*
X212108143Y-71716464D02*
X212144429Y-71643893D01*
X212144429Y-71643893D02*
X212180715Y-71607607D01*
X212180715Y-71607607D02*
X212253286Y-71571321D01*
X212253286Y-71571321D02*
X212398429Y-71571321D01*
X212398429Y-71571321D02*
X212471001Y-71607607D01*
X213668429Y-71680178D02*
X213414429Y-71680178D01*
X213414429Y-72079321D02*
X213414429Y-71317321D01*
X213414429Y-71317321D02*
X213777286Y-71317321D01*
X214176429Y-72079321D02*
X214103858Y-72043036D01*
X214103858Y-72043036D02*
X214067572Y-71970464D01*
X214067572Y-71970464D02*
X214067572Y-71317321D01*
X214793287Y-72079321D02*
X214793287Y-71680178D01*
X214793287Y-71680178D02*
X214757001Y-71607607D01*
X214757001Y-71607607D02*
X214684429Y-71571321D01*
X214684429Y-71571321D02*
X214539287Y-71571321D01*
X214539287Y-71571321D02*
X214466715Y-71607607D01*
X214793287Y-72043036D02*
X214720715Y-72079321D01*
X214720715Y-72079321D02*
X214539287Y-72079321D01*
X214539287Y-72079321D02*
X214466715Y-72043036D01*
X214466715Y-72043036D02*
X214430429Y-71970464D01*
X214430429Y-71970464D02*
X214430429Y-71897893D01*
X214430429Y-71897893D02*
X214466715Y-71825321D01*
X214466715Y-71825321D02*
X214539287Y-71789036D01*
X214539287Y-71789036D02*
X214720715Y-71789036D01*
X214720715Y-71789036D02*
X214793287Y-71752750D01*
X215119858Y-72043036D02*
X215192430Y-72079321D01*
X215192430Y-72079321D02*
X215337573Y-72079321D01*
X215337573Y-72079321D02*
X215410144Y-72043036D01*
X215410144Y-72043036D02*
X215446430Y-71970464D01*
X215446430Y-71970464D02*
X215446430Y-71934178D01*
X215446430Y-71934178D02*
X215410144Y-71861607D01*
X215410144Y-71861607D02*
X215337573Y-71825321D01*
X215337573Y-71825321D02*
X215228716Y-71825321D01*
X215228716Y-71825321D02*
X215156144Y-71789036D01*
X215156144Y-71789036D02*
X215119858Y-71716464D01*
X215119858Y-71716464D02*
X215119858Y-71680178D01*
X215119858Y-71680178D02*
X215156144Y-71607607D01*
X215156144Y-71607607D02*
X215228716Y-71571321D01*
X215228716Y-71571321D02*
X215337573Y-71571321D01*
X215337573Y-71571321D02*
X215410144Y-71607607D01*
X215773001Y-72079321D02*
X215773001Y-71317321D01*
X216099573Y-72079321D02*
X216099573Y-71680178D01*
X216099573Y-71680178D02*
X216063287Y-71607607D01*
X216063287Y-71607607D02*
X215990715Y-71571321D01*
X215990715Y-71571321D02*
X215881858Y-71571321D01*
X215881858Y-71571321D02*
X215809287Y-71607607D01*
X215809287Y-71607607D02*
X215773001Y-71643893D01*
X214695409Y-85363340D02*
X214659123Y-85399626D01*
X214659123Y-85399626D02*
X214550266Y-85435911D01*
X214550266Y-85435911D02*
X214477694Y-85435911D01*
X214477694Y-85435911D02*
X214368837Y-85399626D01*
X214368837Y-85399626D02*
X214296266Y-85327054D01*
X214296266Y-85327054D02*
X214259980Y-85254483D01*
X214259980Y-85254483D02*
X214223694Y-85109340D01*
X214223694Y-85109340D02*
X214223694Y-85000483D01*
X214223694Y-85000483D02*
X214259980Y-84855340D01*
X214259980Y-84855340D02*
X214296266Y-84782768D01*
X214296266Y-84782768D02*
X214368837Y-84710197D01*
X214368837Y-84710197D02*
X214477694Y-84673911D01*
X214477694Y-84673911D02*
X214550266Y-84673911D01*
X214550266Y-84673911D02*
X214659123Y-84710197D01*
X214659123Y-84710197D02*
X214695409Y-84746483D01*
X215021980Y-85435911D02*
X215021980Y-84673911D01*
X215021980Y-84673911D02*
X215203409Y-84673911D01*
X215203409Y-84673911D02*
X215312266Y-84710197D01*
X215312266Y-84710197D02*
X215384837Y-84782768D01*
X215384837Y-84782768D02*
X215421123Y-84855340D01*
X215421123Y-84855340D02*
X215457409Y-85000483D01*
X215457409Y-85000483D02*
X215457409Y-85109340D01*
X215457409Y-85109340D02*
X215421123Y-85254483D01*
X215421123Y-85254483D02*
X215384837Y-85327054D01*
X215384837Y-85327054D02*
X215312266Y-85399626D01*
X215312266Y-85399626D02*
X215203409Y-85435911D01*
X215203409Y-85435911D02*
X215021980Y-85435911D01*
X215929123Y-84673911D02*
X216074266Y-84673911D01*
X216074266Y-84673911D02*
X216146837Y-84710197D01*
X216146837Y-84710197D02*
X216219409Y-84782768D01*
X216219409Y-84782768D02*
X216255694Y-84927911D01*
X216255694Y-84927911D02*
X216255694Y-85181911D01*
X216255694Y-85181911D02*
X216219409Y-85327054D01*
X216219409Y-85327054D02*
X216146837Y-85399626D01*
X216146837Y-85399626D02*
X216074266Y-85435911D01*
X216074266Y-85435911D02*
X215929123Y-85435911D01*
X215929123Y-85435911D02*
X215856552Y-85399626D01*
X215856552Y-85399626D02*
X215783980Y-85327054D01*
X215783980Y-85327054D02*
X215747694Y-85181911D01*
X215747694Y-85181911D02*
X215747694Y-84927911D01*
X215747694Y-84927911D02*
X215783980Y-84782768D01*
X215783980Y-84782768D02*
X215856552Y-84710197D01*
X215856552Y-84710197D02*
X215929123Y-84673911D01*
X216582266Y-85435911D02*
X216582266Y-84673911D01*
X216582266Y-84673911D02*
X217017695Y-85435911D01*
X217017695Y-85435911D02*
X217017695Y-84673911D01*
X217380552Y-85036768D02*
X217634552Y-85036768D01*
X217743409Y-85435911D02*
X217380552Y-85435911D01*
X217380552Y-85435911D02*
X217380552Y-84673911D01*
X217380552Y-84673911D02*
X217743409Y-84673911D01*
X184414980Y-108803911D02*
X184414980Y-109420768D01*
X184414980Y-109420768D02*
X184451266Y-109493340D01*
X184451266Y-109493340D02*
X184487552Y-109529626D01*
X184487552Y-109529626D02*
X184560123Y-109565911D01*
X184560123Y-109565911D02*
X184705266Y-109565911D01*
X184705266Y-109565911D02*
X184777837Y-109529626D01*
X184777837Y-109529626D02*
X184814123Y-109493340D01*
X184814123Y-109493340D02*
X184850409Y-109420768D01*
X184850409Y-109420768D02*
X184850409Y-108803911D01*
X185176980Y-109529626D02*
X185285838Y-109565911D01*
X185285838Y-109565911D02*
X185467266Y-109565911D01*
X185467266Y-109565911D02*
X185539838Y-109529626D01*
X185539838Y-109529626D02*
X185576123Y-109493340D01*
X185576123Y-109493340D02*
X185612409Y-109420768D01*
X185612409Y-109420768D02*
X185612409Y-109348197D01*
X185612409Y-109348197D02*
X185576123Y-109275626D01*
X185576123Y-109275626D02*
X185539838Y-109239340D01*
X185539838Y-109239340D02*
X185467266Y-109203054D01*
X185467266Y-109203054D02*
X185322123Y-109166768D01*
X185322123Y-109166768D02*
X185249552Y-109130483D01*
X185249552Y-109130483D02*
X185213266Y-109094197D01*
X185213266Y-109094197D02*
X185176980Y-109021626D01*
X185176980Y-109021626D02*
X185176980Y-108949054D01*
X185176980Y-108949054D02*
X185213266Y-108876483D01*
X185213266Y-108876483D02*
X185249552Y-108840197D01*
X185249552Y-108840197D02*
X185322123Y-108803911D01*
X185322123Y-108803911D02*
X185503552Y-108803911D01*
X185503552Y-108803911D02*
X185612409Y-108840197D01*
X185938980Y-109166768D02*
X186192980Y-109166768D01*
X186301837Y-109565911D02*
X185938980Y-109565911D01*
X185938980Y-109565911D02*
X185938980Y-108803911D01*
X185938980Y-108803911D02*
X186301837Y-108803911D01*
X187063838Y-109565911D02*
X186809838Y-109203054D01*
X186628409Y-109565911D02*
X186628409Y-108803911D01*
X186628409Y-108803911D02*
X186918695Y-108803911D01*
X186918695Y-108803911D02*
X186991266Y-108840197D01*
X186991266Y-108840197D02*
X187027552Y-108876483D01*
X187027552Y-108876483D02*
X187063838Y-108949054D01*
X187063838Y-108949054D02*
X187063838Y-109057911D01*
X187063838Y-109057911D02*
X187027552Y-109130483D01*
X187027552Y-109130483D02*
X186991266Y-109166768D01*
X186991266Y-109166768D02*
X186918695Y-109203054D01*
X186918695Y-109203054D02*
X186628409Y-109203054D01*
X187753266Y-108803911D02*
X187390409Y-108803911D01*
X187390409Y-108803911D02*
X187354123Y-109166768D01*
X187354123Y-109166768D02*
X187390409Y-109130483D01*
X187390409Y-109130483D02*
X187462981Y-109094197D01*
X187462981Y-109094197D02*
X187644409Y-109094197D01*
X187644409Y-109094197D02*
X187716981Y-109130483D01*
X187716981Y-109130483D02*
X187753266Y-109166768D01*
X187753266Y-109166768D02*
X187789552Y-109239340D01*
X187789552Y-109239340D02*
X187789552Y-109420768D01*
X187789552Y-109420768D02*
X187753266Y-109493340D01*
X187753266Y-109493340D02*
X187716981Y-109529626D01*
X187716981Y-109529626D02*
X187644409Y-109565911D01*
X187644409Y-109565911D02*
X187462981Y-109565911D01*
X187462981Y-109565911D02*
X187390409Y-109529626D01*
X187390409Y-109529626D02*
X187354123Y-109493340D01*
D11*
X212626009Y-130229283D02*
X212626009Y-129213283D01*
X212626009Y-128705283D02*
X212577628Y-128777854D01*
X212577628Y-128777854D02*
X212626009Y-128850426D01*
X212626009Y-128850426D02*
X212674390Y-128777854D01*
X212674390Y-128777854D02*
X212626009Y-128705283D01*
X212626009Y-128705283D02*
X212626009Y-128850426D01*
X213690391Y-130084140D02*
X213642010Y-130156712D01*
X213642010Y-130156712D02*
X213496867Y-130229283D01*
X213496867Y-130229283D02*
X213400105Y-130229283D01*
X213400105Y-130229283D02*
X213254962Y-130156712D01*
X213254962Y-130156712D02*
X213158200Y-130011569D01*
X213158200Y-130011569D02*
X213109819Y-129866426D01*
X213109819Y-129866426D02*
X213061438Y-129576140D01*
X213061438Y-129576140D02*
X213061438Y-129358426D01*
X213061438Y-129358426D02*
X213109819Y-129068140D01*
X213109819Y-129068140D02*
X213158200Y-128922997D01*
X213158200Y-128922997D02*
X213254962Y-128777854D01*
X213254962Y-128777854D02*
X213400105Y-128705283D01*
X213400105Y-128705283D02*
X213496867Y-128705283D01*
X213496867Y-128705283D02*
X213642010Y-128777854D01*
X213642010Y-128777854D02*
X213690391Y-128850426D01*
X214125819Y-129430997D02*
X214464486Y-129430997D01*
X214609629Y-130229283D02*
X214125819Y-130229283D01*
X214125819Y-130229283D02*
X214125819Y-128705283D01*
X214125819Y-128705283D02*
X214609629Y-128705283D01*
X215480486Y-129213283D02*
X215480486Y-130229283D01*
X215238581Y-128632712D02*
X214996676Y-129721283D01*
X214996676Y-129721283D02*
X215625629Y-129721283D01*
X216206200Y-128705283D02*
X216302962Y-128705283D01*
X216302962Y-128705283D02*
X216399724Y-128777854D01*
X216399724Y-128777854D02*
X216448105Y-128850426D01*
X216448105Y-128850426D02*
X216496486Y-128995569D01*
X216496486Y-128995569D02*
X216544867Y-129285854D01*
X216544867Y-129285854D02*
X216544867Y-129648712D01*
X216544867Y-129648712D02*
X216496486Y-129938997D01*
X216496486Y-129938997D02*
X216448105Y-130084140D01*
X216448105Y-130084140D02*
X216399724Y-130156712D01*
X216399724Y-130156712D02*
X216302962Y-130229283D01*
X216302962Y-130229283D02*
X216206200Y-130229283D01*
X216206200Y-130229283D02*
X216109438Y-130156712D01*
X216109438Y-130156712D02*
X216061057Y-130084140D01*
X216061057Y-130084140D02*
X216012676Y-129938997D01*
X216012676Y-129938997D02*
X215964295Y-129648712D01*
X215964295Y-129648712D02*
X215964295Y-129285854D01*
X215964295Y-129285854D02*
X216012676Y-128995569D01*
X216012676Y-128995569D02*
X216061057Y-128850426D01*
X216061057Y-128850426D02*
X216109438Y-128777854D01*
X216109438Y-128777854D02*
X216206200Y-128705283D01*
X216980295Y-128705283D02*
X216980295Y-129938997D01*
X216980295Y-129938997D02*
X217028676Y-130084140D01*
X217028676Y-130084140D02*
X217077057Y-130156712D01*
X217077057Y-130156712D02*
X217173819Y-130229283D01*
X217173819Y-130229283D02*
X217367343Y-130229283D01*
X217367343Y-130229283D02*
X217464105Y-130156712D01*
X217464105Y-130156712D02*
X217512486Y-130084140D01*
X217512486Y-130084140D02*
X217560867Y-129938997D01*
X217560867Y-129938997D02*
X217560867Y-128705283D01*
X218044676Y-130229283D02*
X218044676Y-128705283D01*
X218044676Y-128705283D02*
X218431724Y-128705283D01*
X218431724Y-128705283D02*
X218528486Y-128777854D01*
X218528486Y-128777854D02*
X218576867Y-128850426D01*
X218576867Y-128850426D02*
X218625248Y-128995569D01*
X218625248Y-128995569D02*
X218625248Y-129213283D01*
X218625248Y-129213283D02*
X218576867Y-129358426D01*
X218576867Y-129358426D02*
X218528486Y-129430997D01*
X218528486Y-129430997D02*
X218431724Y-129503569D01*
X218431724Y-129503569D02*
X218044676Y-129503569D01*
X219834771Y-130229283D02*
X219834771Y-128705283D01*
X219834771Y-128705283D02*
X220076676Y-128705283D01*
X220076676Y-128705283D02*
X220221819Y-128777854D01*
X220221819Y-128777854D02*
X220318581Y-128922997D01*
X220318581Y-128922997D02*
X220366962Y-129068140D01*
X220366962Y-129068140D02*
X220415343Y-129358426D01*
X220415343Y-129358426D02*
X220415343Y-129576140D01*
X220415343Y-129576140D02*
X220366962Y-129866426D01*
X220366962Y-129866426D02*
X220318581Y-130011569D01*
X220318581Y-130011569D02*
X220221819Y-130156712D01*
X220221819Y-130156712D02*
X220076676Y-130229283D01*
X220076676Y-130229283D02*
X219834771Y-130229283D01*
X221237819Y-130156712D02*
X221141057Y-130229283D01*
X221141057Y-130229283D02*
X220947533Y-130229283D01*
X220947533Y-130229283D02*
X220850771Y-130156712D01*
X220850771Y-130156712D02*
X220802390Y-130011569D01*
X220802390Y-130011569D02*
X220802390Y-129430997D01*
X220802390Y-129430997D02*
X220850771Y-129285854D01*
X220850771Y-129285854D02*
X220947533Y-129213283D01*
X220947533Y-129213283D02*
X221141057Y-129213283D01*
X221141057Y-129213283D02*
X221237819Y-129285854D01*
X221237819Y-129285854D02*
X221286200Y-129430997D01*
X221286200Y-129430997D02*
X221286200Y-129576140D01*
X221286200Y-129576140D02*
X220802390Y-129721283D01*
X221624866Y-129213283D02*
X221866771Y-130229283D01*
X221866771Y-130229283D02*
X222108676Y-129213283D01*
X222882771Y-130156712D02*
X222786009Y-130229283D01*
X222786009Y-130229283D02*
X222592485Y-130229283D01*
X222592485Y-130229283D02*
X222495723Y-130156712D01*
X222495723Y-130156712D02*
X222447342Y-130011569D01*
X222447342Y-130011569D02*
X222447342Y-129430997D01*
X222447342Y-129430997D02*
X222495723Y-129285854D01*
X222495723Y-129285854D02*
X222592485Y-129213283D01*
X222592485Y-129213283D02*
X222786009Y-129213283D01*
X222786009Y-129213283D02*
X222882771Y-129285854D01*
X222882771Y-129285854D02*
X222931152Y-129430997D01*
X222931152Y-129430997D02*
X222931152Y-129576140D01*
X222931152Y-129576140D02*
X222447342Y-129721283D01*
X223511723Y-130229283D02*
X223414961Y-130156712D01*
X223414961Y-130156712D02*
X223366580Y-130011569D01*
X223366580Y-130011569D02*
X223366580Y-128705283D01*
X224043913Y-130229283D02*
X223947151Y-130156712D01*
X223947151Y-130156712D02*
X223898770Y-130084140D01*
X223898770Y-130084140D02*
X223850389Y-129938997D01*
X223850389Y-129938997D02*
X223850389Y-129503569D01*
X223850389Y-129503569D02*
X223898770Y-129358426D01*
X223898770Y-129358426D02*
X223947151Y-129285854D01*
X223947151Y-129285854D02*
X224043913Y-129213283D01*
X224043913Y-129213283D02*
X224189056Y-129213283D01*
X224189056Y-129213283D02*
X224285818Y-129285854D01*
X224285818Y-129285854D02*
X224334199Y-129358426D01*
X224334199Y-129358426D02*
X224382580Y-129503569D01*
X224382580Y-129503569D02*
X224382580Y-129938997D01*
X224382580Y-129938997D02*
X224334199Y-130084140D01*
X224334199Y-130084140D02*
X224285818Y-130156712D01*
X224285818Y-130156712D02*
X224189056Y-130229283D01*
X224189056Y-130229283D02*
X224043913Y-130229283D01*
X224818008Y-129213283D02*
X224818008Y-130737283D01*
X224818008Y-129285854D02*
X224914770Y-129213283D01*
X224914770Y-129213283D02*
X225108294Y-129213283D01*
X225108294Y-129213283D02*
X225205056Y-129285854D01*
X225205056Y-129285854D02*
X225253437Y-129358426D01*
X225253437Y-129358426D02*
X225301818Y-129503569D01*
X225301818Y-129503569D02*
X225301818Y-129938997D01*
X225301818Y-129938997D02*
X225253437Y-130084140D01*
X225253437Y-130084140D02*
X225205056Y-130156712D01*
X225205056Y-130156712D02*
X225108294Y-130229283D01*
X225108294Y-130229283D02*
X224914770Y-130229283D01*
X224914770Y-130229283D02*
X224818008Y-130156712D01*
X225737246Y-130229283D02*
X225737246Y-129213283D01*
X225737246Y-129358426D02*
X225785627Y-129285854D01*
X225785627Y-129285854D02*
X225882389Y-129213283D01*
X225882389Y-129213283D02*
X226027532Y-129213283D01*
X226027532Y-129213283D02*
X226124294Y-129285854D01*
X226124294Y-129285854D02*
X226172675Y-129430997D01*
X226172675Y-129430997D02*
X226172675Y-130229283D01*
X226172675Y-129430997D02*
X226221056Y-129285854D01*
X226221056Y-129285854D02*
X226317818Y-129213283D01*
X226317818Y-129213283D02*
X226462961Y-129213283D01*
X226462961Y-129213283D02*
X226559722Y-129285854D01*
X226559722Y-129285854D02*
X226608103Y-129430997D01*
X226608103Y-129430997D02*
X226608103Y-130229283D01*
X227478961Y-130156712D02*
X227382199Y-130229283D01*
X227382199Y-130229283D02*
X227188675Y-130229283D01*
X227188675Y-130229283D02*
X227091913Y-130156712D01*
X227091913Y-130156712D02*
X227043532Y-130011569D01*
X227043532Y-130011569D02*
X227043532Y-129430997D01*
X227043532Y-129430997D02*
X227091913Y-129285854D01*
X227091913Y-129285854D02*
X227188675Y-129213283D01*
X227188675Y-129213283D02*
X227382199Y-129213283D01*
X227382199Y-129213283D02*
X227478961Y-129285854D01*
X227478961Y-129285854D02*
X227527342Y-129430997D01*
X227527342Y-129430997D02*
X227527342Y-129576140D01*
X227527342Y-129576140D02*
X227043532Y-129721283D01*
X227962770Y-129213283D02*
X227962770Y-130229283D01*
X227962770Y-129358426D02*
X228011151Y-129285854D01*
X228011151Y-129285854D02*
X228107913Y-129213283D01*
X228107913Y-129213283D02*
X228253056Y-129213283D01*
X228253056Y-129213283D02*
X228349818Y-129285854D01*
X228349818Y-129285854D02*
X228398199Y-129430997D01*
X228398199Y-129430997D02*
X228398199Y-130229283D01*
X228736865Y-129213283D02*
X229123913Y-129213283D01*
X228882008Y-128705283D02*
X228882008Y-130011569D01*
X228882008Y-130011569D02*
X228930389Y-130156712D01*
X228930389Y-130156712D02*
X229027151Y-130229283D01*
X229027151Y-130229283D02*
X229123913Y-130229283D01*
X230575341Y-129430997D02*
X230720484Y-129503569D01*
X230720484Y-129503569D02*
X230768865Y-129576140D01*
X230768865Y-129576140D02*
X230817246Y-129721283D01*
X230817246Y-129721283D02*
X230817246Y-129938997D01*
X230817246Y-129938997D02*
X230768865Y-130084140D01*
X230768865Y-130084140D02*
X230720484Y-130156712D01*
X230720484Y-130156712D02*
X230623722Y-130229283D01*
X230623722Y-130229283D02*
X230236674Y-130229283D01*
X230236674Y-130229283D02*
X230236674Y-128705283D01*
X230236674Y-128705283D02*
X230575341Y-128705283D01*
X230575341Y-128705283D02*
X230672103Y-128777854D01*
X230672103Y-128777854D02*
X230720484Y-128850426D01*
X230720484Y-128850426D02*
X230768865Y-128995569D01*
X230768865Y-128995569D02*
X230768865Y-129140712D01*
X230768865Y-129140712D02*
X230720484Y-129285854D01*
X230720484Y-129285854D02*
X230672103Y-129358426D01*
X230672103Y-129358426D02*
X230575341Y-129430997D01*
X230575341Y-129430997D02*
X230236674Y-129430997D01*
X231397817Y-130229283D02*
X231301055Y-130156712D01*
X231301055Y-130156712D02*
X231252674Y-130084140D01*
X231252674Y-130084140D02*
X231204293Y-129938997D01*
X231204293Y-129938997D02*
X231204293Y-129503569D01*
X231204293Y-129503569D02*
X231252674Y-129358426D01*
X231252674Y-129358426D02*
X231301055Y-129285854D01*
X231301055Y-129285854D02*
X231397817Y-129213283D01*
X231397817Y-129213283D02*
X231542960Y-129213283D01*
X231542960Y-129213283D02*
X231639722Y-129285854D01*
X231639722Y-129285854D02*
X231688103Y-129358426D01*
X231688103Y-129358426D02*
X231736484Y-129503569D01*
X231736484Y-129503569D02*
X231736484Y-129938997D01*
X231736484Y-129938997D02*
X231688103Y-130084140D01*
X231688103Y-130084140D02*
X231639722Y-130156712D01*
X231639722Y-130156712D02*
X231542960Y-130229283D01*
X231542960Y-130229283D02*
X231397817Y-130229283D01*
X232607341Y-130229283D02*
X232607341Y-129430997D01*
X232607341Y-129430997D02*
X232558960Y-129285854D01*
X232558960Y-129285854D02*
X232462198Y-129213283D01*
X232462198Y-129213283D02*
X232268674Y-129213283D01*
X232268674Y-129213283D02*
X232171912Y-129285854D01*
X232607341Y-130156712D02*
X232510579Y-130229283D01*
X232510579Y-130229283D02*
X232268674Y-130229283D01*
X232268674Y-130229283D02*
X232171912Y-130156712D01*
X232171912Y-130156712D02*
X232123531Y-130011569D01*
X232123531Y-130011569D02*
X232123531Y-129866426D01*
X232123531Y-129866426D02*
X232171912Y-129721283D01*
X232171912Y-129721283D02*
X232268674Y-129648712D01*
X232268674Y-129648712D02*
X232510579Y-129648712D01*
X232510579Y-129648712D02*
X232607341Y-129576140D01*
X233091150Y-130229283D02*
X233091150Y-129213283D01*
X233091150Y-129503569D02*
X233139531Y-129358426D01*
X233139531Y-129358426D02*
X233187912Y-129285854D01*
X233187912Y-129285854D02*
X233284674Y-129213283D01*
X233284674Y-129213283D02*
X233381436Y-129213283D01*
X234155531Y-130229283D02*
X234155531Y-128705283D01*
X234155531Y-130156712D02*
X234058769Y-130229283D01*
X234058769Y-130229283D02*
X233865245Y-130229283D01*
X233865245Y-130229283D02*
X233768483Y-130156712D01*
X233768483Y-130156712D02*
X233720102Y-130084140D01*
X233720102Y-130084140D02*
X233671721Y-129938997D01*
X233671721Y-129938997D02*
X233671721Y-129503569D01*
X233671721Y-129503569D02*
X233720102Y-129358426D01*
X233720102Y-129358426D02*
X233768483Y-129285854D01*
X233768483Y-129285854D02*
X233865245Y-129213283D01*
X233865245Y-129213283D02*
X234058769Y-129213283D01*
X234058769Y-129213283D02*
X234155531Y-129285854D01*
X235316673Y-129213283D02*
X235558578Y-130229283D01*
X235558578Y-130229283D02*
X235800483Y-129213283D01*
X236719721Y-130229283D02*
X236139149Y-130229283D01*
X236429435Y-130229283D02*
X236429435Y-128705283D01*
X236429435Y-128705283D02*
X236332673Y-128922997D01*
X236332673Y-128922997D02*
X236235911Y-129068140D01*
X236235911Y-129068140D02*
X236139149Y-129140712D01*
X237155149Y-130084140D02*
X237203530Y-130156712D01*
X237203530Y-130156712D02*
X237155149Y-130229283D01*
X237155149Y-130229283D02*
X237106768Y-130156712D01*
X237106768Y-130156712D02*
X237155149Y-130084140D01*
X237155149Y-130084140D02*
X237155149Y-130229283D01*
X238171150Y-130229283D02*
X237590578Y-130229283D01*
X237880864Y-130229283D02*
X237880864Y-128705283D01*
X237880864Y-128705283D02*
X237784102Y-128922997D01*
X237784102Y-128922997D02*
X237687340Y-129068140D01*
X237687340Y-129068140D02*
X237590578Y-129140712D01*
D10*
X214695409Y-80283340D02*
X214659123Y-80319626D01*
X214659123Y-80319626D02*
X214550266Y-80355911D01*
X214550266Y-80355911D02*
X214477694Y-80355911D01*
X214477694Y-80355911D02*
X214368837Y-80319626D01*
X214368837Y-80319626D02*
X214296266Y-80247054D01*
X214296266Y-80247054D02*
X214259980Y-80174483D01*
X214259980Y-80174483D02*
X214223694Y-80029340D01*
X214223694Y-80029340D02*
X214223694Y-79920483D01*
X214223694Y-79920483D02*
X214259980Y-79775340D01*
X214259980Y-79775340D02*
X214296266Y-79702768D01*
X214296266Y-79702768D02*
X214368837Y-79630197D01*
X214368837Y-79630197D02*
X214477694Y-79593911D01*
X214477694Y-79593911D02*
X214550266Y-79593911D01*
X214550266Y-79593911D02*
X214659123Y-79630197D01*
X214659123Y-79630197D02*
X214695409Y-79666483D01*
X215457409Y-80355911D02*
X215203409Y-79993054D01*
X215021980Y-80355911D02*
X215021980Y-79593911D01*
X215021980Y-79593911D02*
X215312266Y-79593911D01*
X215312266Y-79593911D02*
X215384837Y-79630197D01*
X215384837Y-79630197D02*
X215421123Y-79666483D01*
X215421123Y-79666483D02*
X215457409Y-79739054D01*
X215457409Y-79739054D02*
X215457409Y-79847911D01*
X215457409Y-79847911D02*
X215421123Y-79920483D01*
X215421123Y-79920483D02*
X215384837Y-79956768D01*
X215384837Y-79956768D02*
X215312266Y-79993054D01*
X215312266Y-79993054D02*
X215021980Y-79993054D01*
X215783980Y-79956768D02*
X216037980Y-79956768D01*
X216146837Y-80355911D02*
X215783980Y-80355911D01*
X215783980Y-80355911D02*
X215783980Y-79593911D01*
X215783980Y-79593911D02*
X216146837Y-79593911D01*
X216437123Y-80319626D02*
X216545981Y-80355911D01*
X216545981Y-80355911D02*
X216727409Y-80355911D01*
X216727409Y-80355911D02*
X216799981Y-80319626D01*
X216799981Y-80319626D02*
X216836266Y-80283340D01*
X216836266Y-80283340D02*
X216872552Y-80210768D01*
X216872552Y-80210768D02*
X216872552Y-80138197D01*
X216872552Y-80138197D02*
X216836266Y-80065626D01*
X216836266Y-80065626D02*
X216799981Y-80029340D01*
X216799981Y-80029340D02*
X216727409Y-79993054D01*
X216727409Y-79993054D02*
X216582266Y-79956768D01*
X216582266Y-79956768D02*
X216509695Y-79920483D01*
X216509695Y-79920483D02*
X216473409Y-79884197D01*
X216473409Y-79884197D02*
X216437123Y-79811626D01*
X216437123Y-79811626D02*
X216437123Y-79739054D01*
X216437123Y-79739054D02*
X216473409Y-79666483D01*
X216473409Y-79666483D02*
X216509695Y-79630197D01*
X216509695Y-79630197D02*
X216582266Y-79593911D01*
X216582266Y-79593911D02*
X216763695Y-79593911D01*
X216763695Y-79593911D02*
X216872552Y-79630197D01*
X217199123Y-79956768D02*
X217453123Y-79956768D01*
X217561980Y-80355911D02*
X217199123Y-80355911D01*
X217199123Y-80355911D02*
X217199123Y-79593911D01*
X217199123Y-79593911D02*
X217561980Y-79593911D01*
X217779695Y-79593911D02*
X218215124Y-79593911D01*
X217997409Y-80355911D02*
X217997409Y-79593911D01*
X218287695Y-80428483D02*
X218868266Y-80428483D01*
X219303694Y-79956768D02*
X219412551Y-79993054D01*
X219412551Y-79993054D02*
X219448837Y-80029340D01*
X219448837Y-80029340D02*
X219485123Y-80101911D01*
X219485123Y-80101911D02*
X219485123Y-80210768D01*
X219485123Y-80210768D02*
X219448837Y-80283340D01*
X219448837Y-80283340D02*
X219412551Y-80319626D01*
X219412551Y-80319626D02*
X219339980Y-80355911D01*
X219339980Y-80355911D02*
X219049694Y-80355911D01*
X219049694Y-80355911D02*
X219049694Y-79593911D01*
X219049694Y-79593911D02*
X219303694Y-79593911D01*
X219303694Y-79593911D02*
X219376266Y-79630197D01*
X219376266Y-79630197D02*
X219412551Y-79666483D01*
X219412551Y-79666483D02*
X219448837Y-79739054D01*
X219448837Y-79739054D02*
X219448837Y-79811626D01*
X219448837Y-79811626D02*
X219412551Y-79884197D01*
X219412551Y-79884197D02*
X219376266Y-79920483D01*
X219376266Y-79920483D02*
X219303694Y-79956768D01*
X219303694Y-79956768D02*
X219049694Y-79956768D01*
X214154752Y-79382366D02*
X219554066Y-79382366D01*
X184414980Y-101183911D02*
X184414980Y-101800768D01*
X184414980Y-101800768D02*
X184451266Y-101873340D01*
X184451266Y-101873340D02*
X184487552Y-101909626D01*
X184487552Y-101909626D02*
X184560123Y-101945911D01*
X184560123Y-101945911D02*
X184705266Y-101945911D01*
X184705266Y-101945911D02*
X184777837Y-101909626D01*
X184777837Y-101909626D02*
X184814123Y-101873340D01*
X184814123Y-101873340D02*
X184850409Y-101800768D01*
X184850409Y-101800768D02*
X184850409Y-101183911D01*
X185176980Y-101909626D02*
X185285838Y-101945911D01*
X185285838Y-101945911D02*
X185467266Y-101945911D01*
X185467266Y-101945911D02*
X185539838Y-101909626D01*
X185539838Y-101909626D02*
X185576123Y-101873340D01*
X185576123Y-101873340D02*
X185612409Y-101800768D01*
X185612409Y-101800768D02*
X185612409Y-101728197D01*
X185612409Y-101728197D02*
X185576123Y-101655626D01*
X185576123Y-101655626D02*
X185539838Y-101619340D01*
X185539838Y-101619340D02*
X185467266Y-101583054D01*
X185467266Y-101583054D02*
X185322123Y-101546768D01*
X185322123Y-101546768D02*
X185249552Y-101510483D01*
X185249552Y-101510483D02*
X185213266Y-101474197D01*
X185213266Y-101474197D02*
X185176980Y-101401626D01*
X185176980Y-101401626D02*
X185176980Y-101329054D01*
X185176980Y-101329054D02*
X185213266Y-101256483D01*
X185213266Y-101256483D02*
X185249552Y-101220197D01*
X185249552Y-101220197D02*
X185322123Y-101183911D01*
X185322123Y-101183911D02*
X185503552Y-101183911D01*
X185503552Y-101183911D02*
X185612409Y-101220197D01*
X185938980Y-101546768D02*
X186192980Y-101546768D01*
X186301837Y-101945911D02*
X185938980Y-101945911D01*
X185938980Y-101945911D02*
X185938980Y-101183911D01*
X185938980Y-101183911D02*
X186301837Y-101183911D01*
X187063838Y-101945911D02*
X186809838Y-101583054D01*
X186628409Y-101945911D02*
X186628409Y-101183911D01*
X186628409Y-101183911D02*
X186918695Y-101183911D01*
X186918695Y-101183911D02*
X186991266Y-101220197D01*
X186991266Y-101220197D02*
X187027552Y-101256483D01*
X187027552Y-101256483D02*
X187063838Y-101329054D01*
X187063838Y-101329054D02*
X187063838Y-101437911D01*
X187063838Y-101437911D02*
X187027552Y-101510483D01*
X187027552Y-101510483D02*
X186991266Y-101546768D01*
X186991266Y-101546768D02*
X186918695Y-101583054D01*
X186918695Y-101583054D02*
X186628409Y-101583054D01*
X187354123Y-101256483D02*
X187390409Y-101220197D01*
X187390409Y-101220197D02*
X187462981Y-101183911D01*
X187462981Y-101183911D02*
X187644409Y-101183911D01*
X187644409Y-101183911D02*
X187716981Y-101220197D01*
X187716981Y-101220197D02*
X187753266Y-101256483D01*
X187753266Y-101256483D02*
X187789552Y-101329054D01*
X187789552Y-101329054D02*
X187789552Y-101401626D01*
X187789552Y-101401626D02*
X187753266Y-101510483D01*
X187753266Y-101510483D02*
X187317838Y-101945911D01*
X187317838Y-101945911D02*
X187789552Y-101945911D01*
D12*
X155178167Y-106611200D02*
X155321024Y-106658819D01*
X155321024Y-106658819D02*
X155559119Y-106658819D01*
X155559119Y-106658819D02*
X155654357Y-106611200D01*
X155654357Y-106611200D02*
X155701976Y-106563580D01*
X155701976Y-106563580D02*
X155749595Y-106468342D01*
X155749595Y-106468342D02*
X155749595Y-106373104D01*
X155749595Y-106373104D02*
X155701976Y-106277866D01*
X155701976Y-106277866D02*
X155654357Y-106230247D01*
X155654357Y-106230247D02*
X155559119Y-106182628D01*
X155559119Y-106182628D02*
X155368643Y-106135009D01*
X155368643Y-106135009D02*
X155273405Y-106087390D01*
X155273405Y-106087390D02*
X155225786Y-106039771D01*
X155225786Y-106039771D02*
X155178167Y-105944533D01*
X155178167Y-105944533D02*
X155178167Y-105849295D01*
X155178167Y-105849295D02*
X155225786Y-105754057D01*
X155225786Y-105754057D02*
X155273405Y-105706438D01*
X155273405Y-105706438D02*
X155368643Y-105658819D01*
X155368643Y-105658819D02*
X155606738Y-105658819D01*
X155606738Y-105658819D02*
X155749595Y-105706438D01*
X156082929Y-105658819D02*
X156321024Y-106658819D01*
X156321024Y-106658819D02*
X156511500Y-105944533D01*
X156511500Y-105944533D02*
X156701976Y-106658819D01*
X156701976Y-106658819D02*
X156940072Y-105658819D01*
X157844833Y-106658819D02*
X157273405Y-106658819D01*
X157559119Y-106658819D02*
X157559119Y-105658819D01*
X157559119Y-105658819D02*
X157463881Y-105801676D01*
X157463881Y-105801676D02*
X157368643Y-105896914D01*
X157368643Y-105896914D02*
X157273405Y-105944533D01*
X184658095Y-83049819D02*
X184658095Y-83859342D01*
X184658095Y-83859342D02*
X184705714Y-83954580D01*
X184705714Y-83954580D02*
X184753333Y-84002200D01*
X184753333Y-84002200D02*
X184848571Y-84049819D01*
X184848571Y-84049819D02*
X185039047Y-84049819D01*
X185039047Y-84049819D02*
X185134285Y-84002200D01*
X185134285Y-84002200D02*
X185181904Y-83954580D01*
X185181904Y-83954580D02*
X185229523Y-83859342D01*
X185229523Y-83859342D02*
X185229523Y-83049819D01*
X186134285Y-83049819D02*
X185943809Y-83049819D01*
X185943809Y-83049819D02*
X185848571Y-83097438D01*
X185848571Y-83097438D02*
X185800952Y-83145057D01*
X185800952Y-83145057D02*
X185705714Y-83287914D01*
X185705714Y-83287914D02*
X185658095Y-83478390D01*
X185658095Y-83478390D02*
X185658095Y-83859342D01*
X185658095Y-83859342D02*
X185705714Y-83954580D01*
X185705714Y-83954580D02*
X185753333Y-84002200D01*
X185753333Y-84002200D02*
X185848571Y-84049819D01*
X185848571Y-84049819D02*
X186039047Y-84049819D01*
X186039047Y-84049819D02*
X186134285Y-84002200D01*
X186134285Y-84002200D02*
X186181904Y-83954580D01*
X186181904Y-83954580D02*
X186229523Y-83859342D01*
X186229523Y-83859342D02*
X186229523Y-83621247D01*
X186229523Y-83621247D02*
X186181904Y-83526009D01*
X186181904Y-83526009D02*
X186134285Y-83478390D01*
X186134285Y-83478390D02*
X186039047Y-83430771D01*
X186039047Y-83430771D02*
X185848571Y-83430771D01*
X185848571Y-83430771D02*
X185753333Y-83478390D01*
X185753333Y-83478390D02*
X185705714Y-83526009D01*
X185705714Y-83526009D02*
X185658095Y-83621247D01*
X207184666Y-81496819D02*
X207184666Y-82211104D01*
X207184666Y-82211104D02*
X207137047Y-82353961D01*
X207137047Y-82353961D02*
X207041809Y-82449200D01*
X207041809Y-82449200D02*
X206898952Y-82496819D01*
X206898952Y-82496819D02*
X206803714Y-82496819D01*
X208089428Y-81830152D02*
X208089428Y-82496819D01*
X207851333Y-81449200D02*
X207613238Y-82163485D01*
X207613238Y-82163485D02*
X208232285Y-82163485D01*
X203731905Y-87957819D02*
X203731905Y-86957819D01*
X203731905Y-86957819D02*
X203970000Y-86957819D01*
X203970000Y-86957819D02*
X204112857Y-87005438D01*
X204112857Y-87005438D02*
X204208095Y-87100676D01*
X204208095Y-87100676D02*
X204255714Y-87195914D01*
X204255714Y-87195914D02*
X204303333Y-87386390D01*
X204303333Y-87386390D02*
X204303333Y-87529247D01*
X204303333Y-87529247D02*
X204255714Y-87719723D01*
X204255714Y-87719723D02*
X204208095Y-87814961D01*
X204208095Y-87814961D02*
X204112857Y-87910200D01*
X204112857Y-87910200D02*
X203970000Y-87957819D01*
X203970000Y-87957819D02*
X203731905Y-87957819D01*
X204684286Y-87053057D02*
X204731905Y-87005438D01*
X204731905Y-87005438D02*
X204827143Y-86957819D01*
X204827143Y-86957819D02*
X205065238Y-86957819D01*
X205065238Y-86957819D02*
X205160476Y-87005438D01*
X205160476Y-87005438D02*
X205208095Y-87053057D01*
X205208095Y-87053057D02*
X205255714Y-87148295D01*
X205255714Y-87148295D02*
X205255714Y-87243533D01*
X205255714Y-87243533D02*
X205208095Y-87386390D01*
X205208095Y-87386390D02*
X204636667Y-87957819D01*
X204636667Y-87957819D02*
X205255714Y-87957819D01*
X171901142Y-117398319D02*
X171567809Y-116922128D01*
X171329714Y-117398319D02*
X171329714Y-116398319D01*
X171329714Y-116398319D02*
X171710666Y-116398319D01*
X171710666Y-116398319D02*
X171805904Y-116445938D01*
X171805904Y-116445938D02*
X171853523Y-116493557D01*
X171853523Y-116493557D02*
X171901142Y-116588795D01*
X171901142Y-116588795D02*
X171901142Y-116731652D01*
X171901142Y-116731652D02*
X171853523Y-116826890D01*
X171853523Y-116826890D02*
X171805904Y-116874509D01*
X171805904Y-116874509D02*
X171710666Y-116922128D01*
X171710666Y-116922128D02*
X171329714Y-116922128D01*
X172282095Y-116493557D02*
X172329714Y-116445938D01*
X172329714Y-116445938D02*
X172424952Y-116398319D01*
X172424952Y-116398319D02*
X172663047Y-116398319D01*
X172663047Y-116398319D02*
X172758285Y-116445938D01*
X172758285Y-116445938D02*
X172805904Y-116493557D01*
X172805904Y-116493557D02*
X172853523Y-116588795D01*
X172853523Y-116588795D02*
X172853523Y-116684033D01*
X172853523Y-116684033D02*
X172805904Y-116826890D01*
X172805904Y-116826890D02*
X172234476Y-117398319D01*
X172234476Y-117398319D02*
X172853523Y-117398319D01*
X173710666Y-116398319D02*
X173520190Y-116398319D01*
X173520190Y-116398319D02*
X173424952Y-116445938D01*
X173424952Y-116445938D02*
X173377333Y-116493557D01*
X173377333Y-116493557D02*
X173282095Y-116636414D01*
X173282095Y-116636414D02*
X173234476Y-116826890D01*
X173234476Y-116826890D02*
X173234476Y-117207842D01*
X173234476Y-117207842D02*
X173282095Y-117303080D01*
X173282095Y-117303080D02*
X173329714Y-117350700D01*
X173329714Y-117350700D02*
X173424952Y-117398319D01*
X173424952Y-117398319D02*
X173615428Y-117398319D01*
X173615428Y-117398319D02*
X173710666Y-117350700D01*
X173710666Y-117350700D02*
X173758285Y-117303080D01*
X173758285Y-117303080D02*
X173805904Y-117207842D01*
X173805904Y-117207842D02*
X173805904Y-116969747D01*
X173805904Y-116969747D02*
X173758285Y-116874509D01*
X173758285Y-116874509D02*
X173710666Y-116826890D01*
X173710666Y-116826890D02*
X173615428Y-116779271D01*
X173615428Y-116779271D02*
X173424952Y-116779271D01*
X173424952Y-116779271D02*
X173329714Y-116826890D01*
X173329714Y-116826890D02*
X173282095Y-116874509D01*
X173282095Y-116874509D02*
X173234476Y-116969747D01*
X223059666Y-89751819D02*
X223059666Y-90466104D01*
X223059666Y-90466104D02*
X223012047Y-90608961D01*
X223012047Y-90608961D02*
X222916809Y-90704200D01*
X222916809Y-90704200D02*
X222773952Y-90751819D01*
X222773952Y-90751819D02*
X222678714Y-90751819D01*
X223440619Y-89751819D02*
X224107285Y-89751819D01*
X224107285Y-89751819D02*
X223678714Y-90751819D01*
X230973333Y-105484819D02*
X230640000Y-105008628D01*
X230401905Y-105484819D02*
X230401905Y-104484819D01*
X230401905Y-104484819D02*
X230782857Y-104484819D01*
X230782857Y-104484819D02*
X230878095Y-104532438D01*
X230878095Y-104532438D02*
X230925714Y-104580057D01*
X230925714Y-104580057D02*
X230973333Y-104675295D01*
X230973333Y-104675295D02*
X230973333Y-104818152D01*
X230973333Y-104818152D02*
X230925714Y-104913390D01*
X230925714Y-104913390D02*
X230878095Y-104961009D01*
X230878095Y-104961009D02*
X230782857Y-105008628D01*
X230782857Y-105008628D02*
X230401905Y-105008628D01*
X231830476Y-104484819D02*
X231640000Y-104484819D01*
X231640000Y-104484819D02*
X231544762Y-104532438D01*
X231544762Y-104532438D02*
X231497143Y-104580057D01*
X231497143Y-104580057D02*
X231401905Y-104722914D01*
X231401905Y-104722914D02*
X231354286Y-104913390D01*
X231354286Y-104913390D02*
X231354286Y-105294342D01*
X231354286Y-105294342D02*
X231401905Y-105389580D01*
X231401905Y-105389580D02*
X231449524Y-105437200D01*
X231449524Y-105437200D02*
X231544762Y-105484819D01*
X231544762Y-105484819D02*
X231735238Y-105484819D01*
X231735238Y-105484819D02*
X231830476Y-105437200D01*
X231830476Y-105437200D02*
X231878095Y-105389580D01*
X231878095Y-105389580D02*
X231925714Y-105294342D01*
X231925714Y-105294342D02*
X231925714Y-105056247D01*
X231925714Y-105056247D02*
X231878095Y-104961009D01*
X231878095Y-104961009D02*
X231830476Y-104913390D01*
X231830476Y-104913390D02*
X231735238Y-104865771D01*
X231735238Y-104865771D02*
X231544762Y-104865771D01*
X231544762Y-104865771D02*
X231449524Y-104913390D01*
X231449524Y-104913390D02*
X231401905Y-104961009D01*
X231401905Y-104961009D02*
X231354286Y-105056247D01*
X167378142Y-101705580D02*
X167330523Y-101753200D01*
X167330523Y-101753200D02*
X167187666Y-101800819D01*
X167187666Y-101800819D02*
X167092428Y-101800819D01*
X167092428Y-101800819D02*
X166949571Y-101753200D01*
X166949571Y-101753200D02*
X166854333Y-101657961D01*
X166854333Y-101657961D02*
X166806714Y-101562723D01*
X166806714Y-101562723D02*
X166759095Y-101372247D01*
X166759095Y-101372247D02*
X166759095Y-101229390D01*
X166759095Y-101229390D02*
X166806714Y-101038914D01*
X166806714Y-101038914D02*
X166854333Y-100943676D01*
X166854333Y-100943676D02*
X166949571Y-100848438D01*
X166949571Y-100848438D02*
X167092428Y-100800819D01*
X167092428Y-100800819D02*
X167187666Y-100800819D01*
X167187666Y-100800819D02*
X167330523Y-100848438D01*
X167330523Y-100848438D02*
X167378142Y-100896057D01*
X167711476Y-100800819D02*
X168330523Y-100800819D01*
X168330523Y-100800819D02*
X167997190Y-101181771D01*
X167997190Y-101181771D02*
X168140047Y-101181771D01*
X168140047Y-101181771D02*
X168235285Y-101229390D01*
X168235285Y-101229390D02*
X168282904Y-101277009D01*
X168282904Y-101277009D02*
X168330523Y-101372247D01*
X168330523Y-101372247D02*
X168330523Y-101610342D01*
X168330523Y-101610342D02*
X168282904Y-101705580D01*
X168282904Y-101705580D02*
X168235285Y-101753200D01*
X168235285Y-101753200D02*
X168140047Y-101800819D01*
X168140047Y-101800819D02*
X167854333Y-101800819D01*
X167854333Y-101800819D02*
X167759095Y-101753200D01*
X167759095Y-101753200D02*
X167711476Y-101705580D01*
X168711476Y-100896057D02*
X168759095Y-100848438D01*
X168759095Y-100848438D02*
X168854333Y-100800819D01*
X168854333Y-100800819D02*
X169092428Y-100800819D01*
X169092428Y-100800819D02*
X169187666Y-100848438D01*
X169187666Y-100848438D02*
X169235285Y-100896057D01*
X169235285Y-100896057D02*
X169282904Y-100991295D01*
X169282904Y-100991295D02*
X169282904Y-101086533D01*
X169282904Y-101086533D02*
X169235285Y-101229390D01*
X169235285Y-101229390D02*
X168663857Y-101800819D01*
X168663857Y-101800819D02*
X169282904Y-101800819D01*
X182546666Y-93644819D02*
X182546666Y-94359104D01*
X182546666Y-94359104D02*
X182499047Y-94501961D01*
X182499047Y-94501961D02*
X182403809Y-94597200D01*
X182403809Y-94597200D02*
X182260952Y-94644819D01*
X182260952Y-94644819D02*
X182165714Y-94644819D01*
X183165714Y-94073390D02*
X183070476Y-94025771D01*
X183070476Y-94025771D02*
X183022857Y-93978152D01*
X183022857Y-93978152D02*
X182975238Y-93882914D01*
X182975238Y-93882914D02*
X182975238Y-93835295D01*
X182975238Y-93835295D02*
X183022857Y-93740057D01*
X183022857Y-93740057D02*
X183070476Y-93692438D01*
X183070476Y-93692438D02*
X183165714Y-93644819D01*
X183165714Y-93644819D02*
X183356190Y-93644819D01*
X183356190Y-93644819D02*
X183451428Y-93692438D01*
X183451428Y-93692438D02*
X183499047Y-93740057D01*
X183499047Y-93740057D02*
X183546666Y-93835295D01*
X183546666Y-93835295D02*
X183546666Y-93882914D01*
X183546666Y-93882914D02*
X183499047Y-93978152D01*
X183499047Y-93978152D02*
X183451428Y-94025771D01*
X183451428Y-94025771D02*
X183356190Y-94073390D01*
X183356190Y-94073390D02*
X183165714Y-94073390D01*
X183165714Y-94073390D02*
X183070476Y-94121009D01*
X183070476Y-94121009D02*
X183022857Y-94168628D01*
X183022857Y-94168628D02*
X182975238Y-94263866D01*
X182975238Y-94263866D02*
X182975238Y-94454342D01*
X182975238Y-94454342D02*
X183022857Y-94549580D01*
X183022857Y-94549580D02*
X183070476Y-94597200D01*
X183070476Y-94597200D02*
X183165714Y-94644819D01*
X183165714Y-94644819D02*
X183356190Y-94644819D01*
X183356190Y-94644819D02*
X183451428Y-94597200D01*
X183451428Y-94597200D02*
X183499047Y-94549580D01*
X183499047Y-94549580D02*
X183546666Y-94454342D01*
X183546666Y-94454342D02*
X183546666Y-94263866D01*
X183546666Y-94263866D02*
X183499047Y-94168628D01*
X183499047Y-94168628D02*
X183451428Y-94121009D01*
X183451428Y-94121009D02*
X183356190Y-94073390D01*
X177292095Y-93688819D02*
X177292095Y-94498342D01*
X177292095Y-94498342D02*
X177339714Y-94593580D01*
X177339714Y-94593580D02*
X177387333Y-94641200D01*
X177387333Y-94641200D02*
X177482571Y-94688819D01*
X177482571Y-94688819D02*
X177673047Y-94688819D01*
X177673047Y-94688819D02*
X177768285Y-94641200D01*
X177768285Y-94641200D02*
X177815904Y-94593580D01*
X177815904Y-94593580D02*
X177863523Y-94498342D01*
X177863523Y-94498342D02*
X177863523Y-93688819D01*
X178482571Y-94117390D02*
X178387333Y-94069771D01*
X178387333Y-94069771D02*
X178339714Y-94022152D01*
X178339714Y-94022152D02*
X178292095Y-93926914D01*
X178292095Y-93926914D02*
X178292095Y-93879295D01*
X178292095Y-93879295D02*
X178339714Y-93784057D01*
X178339714Y-93784057D02*
X178387333Y-93736438D01*
X178387333Y-93736438D02*
X178482571Y-93688819D01*
X178482571Y-93688819D02*
X178673047Y-93688819D01*
X178673047Y-93688819D02*
X178768285Y-93736438D01*
X178768285Y-93736438D02*
X178815904Y-93784057D01*
X178815904Y-93784057D02*
X178863523Y-93879295D01*
X178863523Y-93879295D02*
X178863523Y-93926914D01*
X178863523Y-93926914D02*
X178815904Y-94022152D01*
X178815904Y-94022152D02*
X178768285Y-94069771D01*
X178768285Y-94069771D02*
X178673047Y-94117390D01*
X178673047Y-94117390D02*
X178482571Y-94117390D01*
X178482571Y-94117390D02*
X178387333Y-94165009D01*
X178387333Y-94165009D02*
X178339714Y-94212628D01*
X178339714Y-94212628D02*
X178292095Y-94307866D01*
X178292095Y-94307866D02*
X178292095Y-94498342D01*
X178292095Y-94498342D02*
X178339714Y-94593580D01*
X178339714Y-94593580D02*
X178387333Y-94641200D01*
X178387333Y-94641200D02*
X178482571Y-94688819D01*
X178482571Y-94688819D02*
X178673047Y-94688819D01*
X178673047Y-94688819D02*
X178768285Y-94641200D01*
X178768285Y-94641200D02*
X178815904Y-94593580D01*
X178815904Y-94593580D02*
X178863523Y-94498342D01*
X178863523Y-94498342D02*
X178863523Y-94307866D01*
X178863523Y-94307866D02*
X178815904Y-94212628D01*
X178815904Y-94212628D02*
X178768285Y-94165009D01*
X178768285Y-94165009D02*
X178673047Y-94117390D01*
X207057666Y-76416819D02*
X207057666Y-77131104D01*
X207057666Y-77131104D02*
X207010047Y-77273961D01*
X207010047Y-77273961D02*
X206914809Y-77369200D01*
X206914809Y-77369200D02*
X206771952Y-77416819D01*
X206771952Y-77416819D02*
X206676714Y-77416819D01*
X208010047Y-76416819D02*
X207533857Y-76416819D01*
X207533857Y-76416819D02*
X207486238Y-76893009D01*
X207486238Y-76893009D02*
X207533857Y-76845390D01*
X207533857Y-76845390D02*
X207629095Y-76797771D01*
X207629095Y-76797771D02*
X207867190Y-76797771D01*
X207867190Y-76797771D02*
X207962428Y-76845390D01*
X207962428Y-76845390D02*
X208010047Y-76893009D01*
X208010047Y-76893009D02*
X208057666Y-76988247D01*
X208057666Y-76988247D02*
X208057666Y-77226342D01*
X208057666Y-77226342D02*
X208010047Y-77321580D01*
X208010047Y-77321580D02*
X207962428Y-77369200D01*
X207962428Y-77369200D02*
X207867190Y-77416819D01*
X207867190Y-77416819D02*
X207629095Y-77416819D01*
X207629095Y-77416819D02*
X207533857Y-77369200D01*
X207533857Y-77369200D02*
X207486238Y-77321580D01*
X154074905Y-118183819D02*
X154074905Y-117183819D01*
X154074905Y-117183819D02*
X154313000Y-117183819D01*
X154313000Y-117183819D02*
X154455857Y-117231438D01*
X154455857Y-117231438D02*
X154551095Y-117326676D01*
X154551095Y-117326676D02*
X154598714Y-117421914D01*
X154598714Y-117421914D02*
X154646333Y-117612390D01*
X154646333Y-117612390D02*
X154646333Y-117755247D01*
X154646333Y-117755247D02*
X154598714Y-117945723D01*
X154598714Y-117945723D02*
X154551095Y-118040961D01*
X154551095Y-118040961D02*
X154455857Y-118136200D01*
X154455857Y-118136200D02*
X154313000Y-118183819D01*
X154313000Y-118183819D02*
X154074905Y-118183819D01*
X154979667Y-117183819D02*
X155598714Y-117183819D01*
X155598714Y-117183819D02*
X155265381Y-117564771D01*
X155265381Y-117564771D02*
X155408238Y-117564771D01*
X155408238Y-117564771D02*
X155503476Y-117612390D01*
X155503476Y-117612390D02*
X155551095Y-117660009D01*
X155551095Y-117660009D02*
X155598714Y-117755247D01*
X155598714Y-117755247D02*
X155598714Y-117993342D01*
X155598714Y-117993342D02*
X155551095Y-118088580D01*
X155551095Y-118088580D02*
X155503476Y-118136200D01*
X155503476Y-118136200D02*
X155408238Y-118183819D01*
X155408238Y-118183819D02*
X155122524Y-118183819D01*
X155122524Y-118183819D02*
X155027286Y-118136200D01*
X155027286Y-118136200D02*
X154979667Y-118088580D01*
X230973333Y-109294819D02*
X230640000Y-108818628D01*
X230401905Y-109294819D02*
X230401905Y-108294819D01*
X230401905Y-108294819D02*
X230782857Y-108294819D01*
X230782857Y-108294819D02*
X230878095Y-108342438D01*
X230878095Y-108342438D02*
X230925714Y-108390057D01*
X230925714Y-108390057D02*
X230973333Y-108485295D01*
X230973333Y-108485295D02*
X230973333Y-108628152D01*
X230973333Y-108628152D02*
X230925714Y-108723390D01*
X230925714Y-108723390D02*
X230878095Y-108771009D01*
X230878095Y-108771009D02*
X230782857Y-108818628D01*
X230782857Y-108818628D02*
X230401905Y-108818628D01*
X231306667Y-108294819D02*
X231973333Y-108294819D01*
X231973333Y-108294819D02*
X231544762Y-109294819D01*
X174204333Y-81099819D02*
X173728143Y-81099819D01*
X173728143Y-81099819D02*
X173728143Y-80099819D01*
X175061476Y-81099819D02*
X174490048Y-81099819D01*
X174775762Y-81099819D02*
X174775762Y-80099819D01*
X174775762Y-80099819D02*
X174680524Y-80242676D01*
X174680524Y-80242676D02*
X174585286Y-80337914D01*
X174585286Y-80337914D02*
X174490048Y-80385533D01*
X247189666Y-75273819D02*
X247189666Y-75988104D01*
X247189666Y-75988104D02*
X247142047Y-76130961D01*
X247142047Y-76130961D02*
X247046809Y-76226200D01*
X247046809Y-76226200D02*
X246903952Y-76273819D01*
X246903952Y-76273819D02*
X246808714Y-76273819D01*
X247570619Y-75273819D02*
X248189666Y-75273819D01*
X248189666Y-75273819D02*
X247856333Y-75654771D01*
X247856333Y-75654771D02*
X247999190Y-75654771D01*
X247999190Y-75654771D02*
X248094428Y-75702390D01*
X248094428Y-75702390D02*
X248142047Y-75750009D01*
X248142047Y-75750009D02*
X248189666Y-75845247D01*
X248189666Y-75845247D02*
X248189666Y-76083342D01*
X248189666Y-76083342D02*
X248142047Y-76178580D01*
X248142047Y-76178580D02*
X248094428Y-76226200D01*
X248094428Y-76226200D02*
X247999190Y-76273819D01*
X247999190Y-76273819D02*
X247713476Y-76273819D01*
X247713476Y-76273819D02*
X247618238Y-76226200D01*
X247618238Y-76226200D02*
X247570619Y-76178580D01*
X183998095Y-70914819D02*
X183998095Y-71724342D01*
X183998095Y-71724342D02*
X184045714Y-71819580D01*
X184045714Y-71819580D02*
X184093333Y-71867200D01*
X184093333Y-71867200D02*
X184188571Y-71914819D01*
X184188571Y-71914819D02*
X184379047Y-71914819D01*
X184379047Y-71914819D02*
X184474285Y-71867200D01*
X184474285Y-71867200D02*
X184521904Y-71819580D01*
X184521904Y-71819580D02*
X184569523Y-71724342D01*
X184569523Y-71724342D02*
X184569523Y-70914819D01*
X185474285Y-71248152D02*
X185474285Y-71914819D01*
X185236190Y-70867200D02*
X184998095Y-71581485D01*
X184998095Y-71581485D02*
X185617142Y-71581485D01*
X188157142Y-128343819D02*
X187823809Y-127867628D01*
X187585714Y-128343819D02*
X187585714Y-127343819D01*
X187585714Y-127343819D02*
X187966666Y-127343819D01*
X187966666Y-127343819D02*
X188061904Y-127391438D01*
X188061904Y-127391438D02*
X188109523Y-127439057D01*
X188109523Y-127439057D02*
X188157142Y-127534295D01*
X188157142Y-127534295D02*
X188157142Y-127677152D01*
X188157142Y-127677152D02*
X188109523Y-127772390D01*
X188109523Y-127772390D02*
X188061904Y-127820009D01*
X188061904Y-127820009D02*
X187966666Y-127867628D01*
X187966666Y-127867628D02*
X187585714Y-127867628D01*
X188538095Y-127439057D02*
X188585714Y-127391438D01*
X188585714Y-127391438D02*
X188680952Y-127343819D01*
X188680952Y-127343819D02*
X188919047Y-127343819D01*
X188919047Y-127343819D02*
X189014285Y-127391438D01*
X189014285Y-127391438D02*
X189061904Y-127439057D01*
X189061904Y-127439057D02*
X189109523Y-127534295D01*
X189109523Y-127534295D02*
X189109523Y-127629533D01*
X189109523Y-127629533D02*
X189061904Y-127772390D01*
X189061904Y-127772390D02*
X188490476Y-128343819D01*
X188490476Y-128343819D02*
X189109523Y-128343819D01*
X189966666Y-127677152D02*
X189966666Y-128343819D01*
X189728571Y-127296200D02*
X189490476Y-128010485D01*
X189490476Y-128010485D02*
X190109523Y-128010485D01*
X200525142Y-82750819D02*
X200191809Y-82274628D01*
X199953714Y-82750819D02*
X199953714Y-81750819D01*
X199953714Y-81750819D02*
X200334666Y-81750819D01*
X200334666Y-81750819D02*
X200429904Y-81798438D01*
X200429904Y-81798438D02*
X200477523Y-81846057D01*
X200477523Y-81846057D02*
X200525142Y-81941295D01*
X200525142Y-81941295D02*
X200525142Y-82084152D01*
X200525142Y-82084152D02*
X200477523Y-82179390D01*
X200477523Y-82179390D02*
X200429904Y-82227009D01*
X200429904Y-82227009D02*
X200334666Y-82274628D01*
X200334666Y-82274628D02*
X199953714Y-82274628D01*
X201477523Y-82750819D02*
X200906095Y-82750819D01*
X201191809Y-82750819D02*
X201191809Y-81750819D01*
X201191809Y-81750819D02*
X201096571Y-81893676D01*
X201096571Y-81893676D02*
X201001333Y-81988914D01*
X201001333Y-81988914D02*
X200906095Y-82036533D01*
X201953714Y-82750819D02*
X202144190Y-82750819D01*
X202144190Y-82750819D02*
X202239428Y-82703200D01*
X202239428Y-82703200D02*
X202287047Y-82655580D01*
X202287047Y-82655580D02*
X202382285Y-82512723D01*
X202382285Y-82512723D02*
X202429904Y-82322247D01*
X202429904Y-82322247D02*
X202429904Y-81941295D01*
X202429904Y-81941295D02*
X202382285Y-81846057D01*
X202382285Y-81846057D02*
X202334666Y-81798438D01*
X202334666Y-81798438D02*
X202239428Y-81750819D01*
X202239428Y-81750819D02*
X202048952Y-81750819D01*
X202048952Y-81750819D02*
X201953714Y-81798438D01*
X201953714Y-81798438D02*
X201906095Y-81846057D01*
X201906095Y-81846057D02*
X201858476Y-81941295D01*
X201858476Y-81941295D02*
X201858476Y-82179390D01*
X201858476Y-82179390D02*
X201906095Y-82274628D01*
X201906095Y-82274628D02*
X201953714Y-82322247D01*
X201953714Y-82322247D02*
X202048952Y-82369866D01*
X202048952Y-82369866D02*
X202239428Y-82369866D01*
X202239428Y-82369866D02*
X202334666Y-82322247D01*
X202334666Y-82322247D02*
X202382285Y-82274628D01*
X202382285Y-82274628D02*
X202429904Y-82179390D01*
X194770476Y-88364819D02*
X195437142Y-89364819D01*
X195437142Y-88364819D02*
X194770476Y-89364819D01*
X196341904Y-89364819D02*
X195770476Y-89364819D01*
X196056190Y-89364819D02*
X196056190Y-88364819D01*
X196056190Y-88364819D02*
X195960952Y-88507676D01*
X195960952Y-88507676D02*
X195865714Y-88602914D01*
X195865714Y-88602914D02*
X195770476Y-88650533D01*
X188157142Y-130883819D02*
X187823809Y-130407628D01*
X187585714Y-130883819D02*
X187585714Y-129883819D01*
X187585714Y-129883819D02*
X187966666Y-129883819D01*
X187966666Y-129883819D02*
X188061904Y-129931438D01*
X188061904Y-129931438D02*
X188109523Y-129979057D01*
X188109523Y-129979057D02*
X188157142Y-130074295D01*
X188157142Y-130074295D02*
X188157142Y-130217152D01*
X188157142Y-130217152D02*
X188109523Y-130312390D01*
X188109523Y-130312390D02*
X188061904Y-130360009D01*
X188061904Y-130360009D02*
X187966666Y-130407628D01*
X187966666Y-130407628D02*
X187585714Y-130407628D01*
X188538095Y-129979057D02*
X188585714Y-129931438D01*
X188585714Y-129931438D02*
X188680952Y-129883819D01*
X188680952Y-129883819D02*
X188919047Y-129883819D01*
X188919047Y-129883819D02*
X189014285Y-129931438D01*
X189014285Y-129931438D02*
X189061904Y-129979057D01*
X189061904Y-129979057D02*
X189109523Y-130074295D01*
X189109523Y-130074295D02*
X189109523Y-130169533D01*
X189109523Y-130169533D02*
X189061904Y-130312390D01*
X189061904Y-130312390D02*
X188490476Y-130883819D01*
X188490476Y-130883819D02*
X189109523Y-130883819D01*
X190014285Y-129883819D02*
X189538095Y-129883819D01*
X189538095Y-129883819D02*
X189490476Y-130360009D01*
X189490476Y-130360009D02*
X189538095Y-130312390D01*
X189538095Y-130312390D02*
X189633333Y-130264771D01*
X189633333Y-130264771D02*
X189871428Y-130264771D01*
X189871428Y-130264771D02*
X189966666Y-130312390D01*
X189966666Y-130312390D02*
X190014285Y-130360009D01*
X190014285Y-130360009D02*
X190061904Y-130455247D01*
X190061904Y-130455247D02*
X190061904Y-130693342D01*
X190061904Y-130693342D02*
X190014285Y-130788580D01*
X190014285Y-130788580D02*
X189966666Y-130836200D01*
X189966666Y-130836200D02*
X189871428Y-130883819D01*
X189871428Y-130883819D02*
X189633333Y-130883819D01*
X189633333Y-130883819D02*
X189538095Y-130836200D01*
X189538095Y-130836200D02*
X189490476Y-130788580D01*
X200841285Y-116263009D02*
X200984142Y-116310628D01*
X200984142Y-116310628D02*
X201031761Y-116358247D01*
X201031761Y-116358247D02*
X201079380Y-116453485D01*
X201079380Y-116453485D02*
X201079380Y-116596342D01*
X201079380Y-116596342D02*
X201031761Y-116691580D01*
X201031761Y-116691580D02*
X200984142Y-116739200D01*
X200984142Y-116739200D02*
X200888904Y-116786819D01*
X200888904Y-116786819D02*
X200507952Y-116786819D01*
X200507952Y-116786819D02*
X200507952Y-115786819D01*
X200507952Y-115786819D02*
X200841285Y-115786819D01*
X200841285Y-115786819D02*
X200936523Y-115834438D01*
X200936523Y-115834438D02*
X200984142Y-115882057D01*
X200984142Y-115882057D02*
X201031761Y-115977295D01*
X201031761Y-115977295D02*
X201031761Y-116072533D01*
X201031761Y-116072533D02*
X200984142Y-116167771D01*
X200984142Y-116167771D02*
X200936523Y-116215390D01*
X200936523Y-116215390D02*
X200841285Y-116263009D01*
X200841285Y-116263009D02*
X200507952Y-116263009D01*
X201365095Y-115786819D02*
X201936523Y-115786819D01*
X201650809Y-116786819D02*
X201650809Y-115786819D01*
X202793666Y-116786819D02*
X202222238Y-116786819D01*
X202507952Y-116786819D02*
X202507952Y-115786819D01*
X202507952Y-115786819D02*
X202412714Y-115929676D01*
X202412714Y-115929676D02*
X202317476Y-116024914D01*
X202317476Y-116024914D02*
X202222238Y-116072533D01*
X231910095Y-114961200D02*
X232052952Y-115008819D01*
X232052952Y-115008819D02*
X232291047Y-115008819D01*
X232291047Y-115008819D02*
X232386285Y-114961200D01*
X232386285Y-114961200D02*
X232433904Y-114913580D01*
X232433904Y-114913580D02*
X232481523Y-114818342D01*
X232481523Y-114818342D02*
X232481523Y-114723104D01*
X232481523Y-114723104D02*
X232433904Y-114627866D01*
X232433904Y-114627866D02*
X232386285Y-114580247D01*
X232386285Y-114580247D02*
X232291047Y-114532628D01*
X232291047Y-114532628D02*
X232100571Y-114485009D01*
X232100571Y-114485009D02*
X232005333Y-114437390D01*
X232005333Y-114437390D02*
X231957714Y-114389771D01*
X231957714Y-114389771D02*
X231910095Y-114294533D01*
X231910095Y-114294533D02*
X231910095Y-114199295D01*
X231910095Y-114199295D02*
X231957714Y-114104057D01*
X231957714Y-114104057D02*
X232005333Y-114056438D01*
X232005333Y-114056438D02*
X232100571Y-114008819D01*
X232100571Y-114008819D02*
X232338666Y-114008819D01*
X232338666Y-114008819D02*
X232481523Y-114056438D01*
X232910095Y-115008819D02*
X232910095Y-114008819D01*
X232910095Y-114008819D02*
X233291047Y-114008819D01*
X233291047Y-114008819D02*
X233386285Y-114056438D01*
X233386285Y-114056438D02*
X233433904Y-114104057D01*
X233433904Y-114104057D02*
X233481523Y-114199295D01*
X233481523Y-114199295D02*
X233481523Y-114342152D01*
X233481523Y-114342152D02*
X233433904Y-114437390D01*
X233433904Y-114437390D02*
X233386285Y-114485009D01*
X233386285Y-114485009D02*
X233291047Y-114532628D01*
X233291047Y-114532628D02*
X232910095Y-114532628D01*
X234433904Y-115008819D02*
X233862476Y-115008819D01*
X234148190Y-115008819D02*
X234148190Y-114008819D01*
X234148190Y-114008819D02*
X234052952Y-114151676D01*
X234052952Y-114151676D02*
X233957714Y-114246914D01*
X233957714Y-114246914D02*
X233862476Y-114294533D01*
X221879048Y-118183866D02*
X222640953Y-118183866D01*
X222260000Y-118564819D02*
X222260000Y-117802914D01*
X153471714Y-79734580D02*
X153424095Y-79782200D01*
X153424095Y-79782200D02*
X153281238Y-79829819D01*
X153281238Y-79829819D02*
X153186000Y-79829819D01*
X153186000Y-79829819D02*
X153043143Y-79782200D01*
X153043143Y-79782200D02*
X152947905Y-79686961D01*
X152947905Y-79686961D02*
X152900286Y-79591723D01*
X152900286Y-79591723D02*
X152852667Y-79401247D01*
X152852667Y-79401247D02*
X152852667Y-79258390D01*
X152852667Y-79258390D02*
X152900286Y-79067914D01*
X152900286Y-79067914D02*
X152947905Y-78972676D01*
X152947905Y-78972676D02*
X153043143Y-78877438D01*
X153043143Y-78877438D02*
X153186000Y-78829819D01*
X153186000Y-78829819D02*
X153281238Y-78829819D01*
X153281238Y-78829819D02*
X153424095Y-78877438D01*
X153424095Y-78877438D02*
X153471714Y-78925057D01*
X154090762Y-78829819D02*
X154281238Y-78829819D01*
X154281238Y-78829819D02*
X154376476Y-78877438D01*
X154376476Y-78877438D02*
X154471714Y-78972676D01*
X154471714Y-78972676D02*
X154519333Y-79163152D01*
X154519333Y-79163152D02*
X154519333Y-79496485D01*
X154519333Y-79496485D02*
X154471714Y-79686961D01*
X154471714Y-79686961D02*
X154376476Y-79782200D01*
X154376476Y-79782200D02*
X154281238Y-79829819D01*
X154281238Y-79829819D02*
X154090762Y-79829819D01*
X154090762Y-79829819D02*
X153995524Y-79782200D01*
X153995524Y-79782200D02*
X153900286Y-79686961D01*
X153900286Y-79686961D02*
X153852667Y-79496485D01*
X153852667Y-79496485D02*
X153852667Y-79163152D01*
X153852667Y-79163152D02*
X153900286Y-78972676D01*
X153900286Y-78972676D02*
X153995524Y-78877438D01*
X153995524Y-78877438D02*
X154090762Y-78829819D01*
X154947905Y-79829819D02*
X154947905Y-78829819D01*
X154947905Y-78829819D02*
X155519333Y-79829819D01*
X155519333Y-79829819D02*
X155519333Y-78829819D01*
X155947905Y-78925057D02*
X155995524Y-78877438D01*
X155995524Y-78877438D02*
X156090762Y-78829819D01*
X156090762Y-78829819D02*
X156328857Y-78829819D01*
X156328857Y-78829819D02*
X156424095Y-78877438D01*
X156424095Y-78877438D02*
X156471714Y-78925057D01*
X156471714Y-78925057D02*
X156519333Y-79020295D01*
X156519333Y-79020295D02*
X156519333Y-79115533D01*
X156519333Y-79115533D02*
X156471714Y-79258390D01*
X156471714Y-79258390D02*
X155900286Y-79829819D01*
X155900286Y-79829819D02*
X156519333Y-79829819D01*
X154074905Y-121485819D02*
X154074905Y-120485819D01*
X154074905Y-120485819D02*
X154313000Y-120485819D01*
X154313000Y-120485819D02*
X154455857Y-120533438D01*
X154455857Y-120533438D02*
X154551095Y-120628676D01*
X154551095Y-120628676D02*
X154598714Y-120723914D01*
X154598714Y-120723914D02*
X154646333Y-120914390D01*
X154646333Y-120914390D02*
X154646333Y-121057247D01*
X154646333Y-121057247D02*
X154598714Y-121247723D01*
X154598714Y-121247723D02*
X154551095Y-121342961D01*
X154551095Y-121342961D02*
X154455857Y-121438200D01*
X154455857Y-121438200D02*
X154313000Y-121485819D01*
X154313000Y-121485819D02*
X154074905Y-121485819D01*
X155503476Y-120819152D02*
X155503476Y-121485819D01*
X155265381Y-120438200D02*
X155027286Y-121152485D01*
X155027286Y-121152485D02*
X155646333Y-121152485D01*
X194158095Y-70914819D02*
X194158095Y-71724342D01*
X194158095Y-71724342D02*
X194205714Y-71819580D01*
X194205714Y-71819580D02*
X194253333Y-71867200D01*
X194253333Y-71867200D02*
X194348571Y-71914819D01*
X194348571Y-71914819D02*
X194539047Y-71914819D01*
X194539047Y-71914819D02*
X194634285Y-71867200D01*
X194634285Y-71867200D02*
X194681904Y-71819580D01*
X194681904Y-71819580D02*
X194729523Y-71724342D01*
X194729523Y-71724342D02*
X194729523Y-70914819D01*
X195729523Y-71914819D02*
X195158095Y-71914819D01*
X195443809Y-71914819D02*
X195443809Y-70914819D01*
X195443809Y-70914819D02*
X195348571Y-71057676D01*
X195348571Y-71057676D02*
X195253333Y-71152914D01*
X195253333Y-71152914D02*
X195158095Y-71200533D01*
X227798333Y-99895819D02*
X227465000Y-99419628D01*
X227226905Y-99895819D02*
X227226905Y-98895819D01*
X227226905Y-98895819D02*
X227607857Y-98895819D01*
X227607857Y-98895819D02*
X227703095Y-98943438D01*
X227703095Y-98943438D02*
X227750714Y-98991057D01*
X227750714Y-98991057D02*
X227798333Y-99086295D01*
X227798333Y-99086295D02*
X227798333Y-99229152D01*
X227798333Y-99229152D02*
X227750714Y-99324390D01*
X227750714Y-99324390D02*
X227703095Y-99372009D01*
X227703095Y-99372009D02*
X227607857Y-99419628D01*
X227607857Y-99419628D02*
X227226905Y-99419628D01*
X228655476Y-99229152D02*
X228655476Y-99895819D01*
X228417381Y-98848200D02*
X228179286Y-99562485D01*
X228179286Y-99562485D02*
X228798333Y-99562485D01*
X179951142Y-82369819D02*
X179617809Y-81893628D01*
X179379714Y-82369819D02*
X179379714Y-81369819D01*
X179379714Y-81369819D02*
X179760666Y-81369819D01*
X179760666Y-81369819D02*
X179855904Y-81417438D01*
X179855904Y-81417438D02*
X179903523Y-81465057D01*
X179903523Y-81465057D02*
X179951142Y-81560295D01*
X179951142Y-81560295D02*
X179951142Y-81703152D01*
X179951142Y-81703152D02*
X179903523Y-81798390D01*
X179903523Y-81798390D02*
X179855904Y-81846009D01*
X179855904Y-81846009D02*
X179760666Y-81893628D01*
X179760666Y-81893628D02*
X179379714Y-81893628D01*
X180332095Y-81465057D02*
X180379714Y-81417438D01*
X180379714Y-81417438D02*
X180474952Y-81369819D01*
X180474952Y-81369819D02*
X180713047Y-81369819D01*
X180713047Y-81369819D02*
X180808285Y-81417438D01*
X180808285Y-81417438D02*
X180855904Y-81465057D01*
X180855904Y-81465057D02*
X180903523Y-81560295D01*
X180903523Y-81560295D02*
X180903523Y-81655533D01*
X180903523Y-81655533D02*
X180855904Y-81798390D01*
X180855904Y-81798390D02*
X180284476Y-82369819D01*
X180284476Y-82369819D02*
X180903523Y-82369819D01*
X181236857Y-81369819D02*
X181855904Y-81369819D01*
X181855904Y-81369819D02*
X181522571Y-81750771D01*
X181522571Y-81750771D02*
X181665428Y-81750771D01*
X181665428Y-81750771D02*
X181760666Y-81798390D01*
X181760666Y-81798390D02*
X181808285Y-81846009D01*
X181808285Y-81846009D02*
X181855904Y-81941247D01*
X181855904Y-81941247D02*
X181855904Y-82179342D01*
X181855904Y-82179342D02*
X181808285Y-82274580D01*
X181808285Y-82274580D02*
X181760666Y-82322200D01*
X181760666Y-82322200D02*
X181665428Y-82369819D01*
X181665428Y-82369819D02*
X181379714Y-82369819D01*
X181379714Y-82369819D02*
X181284476Y-82322200D01*
X181284476Y-82322200D02*
X181236857Y-82274580D01*
X200468095Y-95664819D02*
X200468095Y-96474342D01*
X200468095Y-96474342D02*
X200515714Y-96569580D01*
X200515714Y-96569580D02*
X200563333Y-96617200D01*
X200563333Y-96617200D02*
X200658571Y-96664819D01*
X200658571Y-96664819D02*
X200849047Y-96664819D01*
X200849047Y-96664819D02*
X200944285Y-96617200D01*
X200944285Y-96617200D02*
X200991904Y-96569580D01*
X200991904Y-96569580D02*
X201039523Y-96474342D01*
X201039523Y-96474342D02*
X201039523Y-95664819D01*
X201468095Y-95760057D02*
X201515714Y-95712438D01*
X201515714Y-95712438D02*
X201610952Y-95664819D01*
X201610952Y-95664819D02*
X201849047Y-95664819D01*
X201849047Y-95664819D02*
X201944285Y-95712438D01*
X201944285Y-95712438D02*
X201991904Y-95760057D01*
X201991904Y-95760057D02*
X202039523Y-95855295D01*
X202039523Y-95855295D02*
X202039523Y-95950533D01*
X202039523Y-95950533D02*
X201991904Y-96093390D01*
X201991904Y-96093390D02*
X201420476Y-96664819D01*
X201420476Y-96664819D02*
X202039523Y-96664819D01*
X179578095Y-113369819D02*
X179578095Y-114179342D01*
X179578095Y-114179342D02*
X179625714Y-114274580D01*
X179625714Y-114274580D02*
X179673333Y-114322200D01*
X179673333Y-114322200D02*
X179768571Y-114369819D01*
X179768571Y-114369819D02*
X179959047Y-114369819D01*
X179959047Y-114369819D02*
X180054285Y-114322200D01*
X180054285Y-114322200D02*
X180101904Y-114274580D01*
X180101904Y-114274580D02*
X180149523Y-114179342D01*
X180149523Y-114179342D02*
X180149523Y-113369819D01*
X180530476Y-113369819D02*
X181149523Y-113369819D01*
X181149523Y-113369819D02*
X180816190Y-113750771D01*
X180816190Y-113750771D02*
X180959047Y-113750771D01*
X180959047Y-113750771D02*
X181054285Y-113798390D01*
X181054285Y-113798390D02*
X181101904Y-113846009D01*
X181101904Y-113846009D02*
X181149523Y-113941247D01*
X181149523Y-113941247D02*
X181149523Y-114179342D01*
X181149523Y-114179342D02*
X181101904Y-114274580D01*
X181101904Y-114274580D02*
X181054285Y-114322200D01*
X181054285Y-114322200D02*
X180959047Y-114369819D01*
X180959047Y-114369819D02*
X180673333Y-114369819D01*
X180673333Y-114369819D02*
X180578095Y-114322200D01*
X180578095Y-114322200D02*
X180530476Y-114274580D01*
X222153095Y-101202319D02*
X222153095Y-102011842D01*
X222153095Y-102011842D02*
X222200714Y-102107080D01*
X222200714Y-102107080D02*
X222248333Y-102154700D01*
X222248333Y-102154700D02*
X222343571Y-102202319D01*
X222343571Y-102202319D02*
X222534047Y-102202319D01*
X222534047Y-102202319D02*
X222629285Y-102154700D01*
X222629285Y-102154700D02*
X222676904Y-102107080D01*
X222676904Y-102107080D02*
X222724523Y-102011842D01*
X222724523Y-102011842D02*
X222724523Y-101202319D01*
X223676904Y-101202319D02*
X223200714Y-101202319D01*
X223200714Y-101202319D02*
X223153095Y-101678509D01*
X223153095Y-101678509D02*
X223200714Y-101630890D01*
X223200714Y-101630890D02*
X223295952Y-101583271D01*
X223295952Y-101583271D02*
X223534047Y-101583271D01*
X223534047Y-101583271D02*
X223629285Y-101630890D01*
X223629285Y-101630890D02*
X223676904Y-101678509D01*
X223676904Y-101678509D02*
X223724523Y-101773747D01*
X223724523Y-101773747D02*
X223724523Y-102011842D01*
X223724523Y-102011842D02*
X223676904Y-102107080D01*
X223676904Y-102107080D02*
X223629285Y-102154700D01*
X223629285Y-102154700D02*
X223534047Y-102202319D01*
X223534047Y-102202319D02*
X223295952Y-102202319D01*
X223295952Y-102202319D02*
X223200714Y-102154700D01*
X223200714Y-102154700D02*
X223153095Y-102107080D01*
X208581666Y-86703819D02*
X208581666Y-87418104D01*
X208581666Y-87418104D02*
X208534047Y-87560961D01*
X208534047Y-87560961D02*
X208438809Y-87656200D01*
X208438809Y-87656200D02*
X208295952Y-87703819D01*
X208295952Y-87703819D02*
X208200714Y-87703819D01*
X209581666Y-87703819D02*
X209010238Y-87703819D01*
X209295952Y-87703819D02*
X209295952Y-86703819D01*
X209295952Y-86703819D02*
X209200714Y-86846676D01*
X209200714Y-86846676D02*
X209105476Y-86941914D01*
X209105476Y-86941914D02*
X209010238Y-86989533D01*
X218106666Y-87719819D02*
X218106666Y-88434104D01*
X218106666Y-88434104D02*
X218059047Y-88576961D01*
X218059047Y-88576961D02*
X217963809Y-88672200D01*
X217963809Y-88672200D02*
X217820952Y-88719819D01*
X217820952Y-88719819D02*
X217725714Y-88719819D01*
X219011428Y-87719819D02*
X218820952Y-87719819D01*
X218820952Y-87719819D02*
X218725714Y-87767438D01*
X218725714Y-87767438D02*
X218678095Y-87815057D01*
X218678095Y-87815057D02*
X218582857Y-87957914D01*
X218582857Y-87957914D02*
X218535238Y-88148390D01*
X218535238Y-88148390D02*
X218535238Y-88529342D01*
X218535238Y-88529342D02*
X218582857Y-88624580D01*
X218582857Y-88624580D02*
X218630476Y-88672200D01*
X218630476Y-88672200D02*
X218725714Y-88719819D01*
X218725714Y-88719819D02*
X218916190Y-88719819D01*
X218916190Y-88719819D02*
X219011428Y-88672200D01*
X219011428Y-88672200D02*
X219059047Y-88624580D01*
X219059047Y-88624580D02*
X219106666Y-88529342D01*
X219106666Y-88529342D02*
X219106666Y-88291247D01*
X219106666Y-88291247D02*
X219059047Y-88196009D01*
X219059047Y-88196009D02*
X219011428Y-88148390D01*
X219011428Y-88148390D02*
X218916190Y-88100771D01*
X218916190Y-88100771D02*
X218725714Y-88100771D01*
X218725714Y-88100771D02*
X218630476Y-88148390D01*
X218630476Y-88148390D02*
X218582857Y-88196009D01*
X218582857Y-88196009D02*
X218535238Y-88291247D01*
X154074905Y-124914819D02*
X154074905Y-123914819D01*
X154074905Y-123914819D02*
X154313000Y-123914819D01*
X154313000Y-123914819D02*
X154455857Y-123962438D01*
X154455857Y-123962438D02*
X154551095Y-124057676D01*
X154551095Y-124057676D02*
X154598714Y-124152914D01*
X154598714Y-124152914D02*
X154646333Y-124343390D01*
X154646333Y-124343390D02*
X154646333Y-124486247D01*
X154646333Y-124486247D02*
X154598714Y-124676723D01*
X154598714Y-124676723D02*
X154551095Y-124771961D01*
X154551095Y-124771961D02*
X154455857Y-124867200D01*
X154455857Y-124867200D02*
X154313000Y-124914819D01*
X154313000Y-124914819D02*
X154074905Y-124914819D01*
X155551095Y-123914819D02*
X155074905Y-123914819D01*
X155074905Y-123914819D02*
X155027286Y-124391009D01*
X155027286Y-124391009D02*
X155074905Y-124343390D01*
X155074905Y-124343390D02*
X155170143Y-124295771D01*
X155170143Y-124295771D02*
X155408238Y-124295771D01*
X155408238Y-124295771D02*
X155503476Y-124343390D01*
X155503476Y-124343390D02*
X155551095Y-124391009D01*
X155551095Y-124391009D02*
X155598714Y-124486247D01*
X155598714Y-124486247D02*
X155598714Y-124724342D01*
X155598714Y-124724342D02*
X155551095Y-124819580D01*
X155551095Y-124819580D02*
X155503476Y-124867200D01*
X155503476Y-124867200D02*
X155408238Y-124914819D01*
X155408238Y-124914819D02*
X155170143Y-124914819D01*
X155170143Y-124914819D02*
X155074905Y-124867200D01*
X155074905Y-124867200D02*
X155027286Y-124819580D01*
X165727142Y-90656580D02*
X165679523Y-90704200D01*
X165679523Y-90704200D02*
X165536666Y-90751819D01*
X165536666Y-90751819D02*
X165441428Y-90751819D01*
X165441428Y-90751819D02*
X165298571Y-90704200D01*
X165298571Y-90704200D02*
X165203333Y-90608961D01*
X165203333Y-90608961D02*
X165155714Y-90513723D01*
X165155714Y-90513723D02*
X165108095Y-90323247D01*
X165108095Y-90323247D02*
X165108095Y-90180390D01*
X165108095Y-90180390D02*
X165155714Y-89989914D01*
X165155714Y-89989914D02*
X165203333Y-89894676D01*
X165203333Y-89894676D02*
X165298571Y-89799438D01*
X165298571Y-89799438D02*
X165441428Y-89751819D01*
X165441428Y-89751819D02*
X165536666Y-89751819D01*
X165536666Y-89751819D02*
X165679523Y-89799438D01*
X165679523Y-89799438D02*
X165727142Y-89847057D01*
X166060476Y-89751819D02*
X166679523Y-89751819D01*
X166679523Y-89751819D02*
X166346190Y-90132771D01*
X166346190Y-90132771D02*
X166489047Y-90132771D01*
X166489047Y-90132771D02*
X166584285Y-90180390D01*
X166584285Y-90180390D02*
X166631904Y-90228009D01*
X166631904Y-90228009D02*
X166679523Y-90323247D01*
X166679523Y-90323247D02*
X166679523Y-90561342D01*
X166679523Y-90561342D02*
X166631904Y-90656580D01*
X166631904Y-90656580D02*
X166584285Y-90704200D01*
X166584285Y-90704200D02*
X166489047Y-90751819D01*
X166489047Y-90751819D02*
X166203333Y-90751819D01*
X166203333Y-90751819D02*
X166108095Y-90704200D01*
X166108095Y-90704200D02*
X166060476Y-90656580D01*
X167631904Y-90751819D02*
X167060476Y-90751819D01*
X167346190Y-90751819D02*
X167346190Y-89751819D01*
X167346190Y-89751819D02*
X167250952Y-89894676D01*
X167250952Y-89894676D02*
X167155714Y-89989914D01*
X167155714Y-89989914D02*
X167060476Y-90037533D01*
X166036666Y-121374819D02*
X166036666Y-122089104D01*
X166036666Y-122089104D02*
X165989047Y-122231961D01*
X165989047Y-122231961D02*
X165893809Y-122327200D01*
X165893809Y-122327200D02*
X165750952Y-122374819D01*
X165750952Y-122374819D02*
X165655714Y-122374819D01*
X166560476Y-122374819D02*
X166750952Y-122374819D01*
X166750952Y-122374819D02*
X166846190Y-122327200D01*
X166846190Y-122327200D02*
X166893809Y-122279580D01*
X166893809Y-122279580D02*
X166989047Y-122136723D01*
X166989047Y-122136723D02*
X167036666Y-121946247D01*
X167036666Y-121946247D02*
X167036666Y-121565295D01*
X167036666Y-121565295D02*
X166989047Y-121470057D01*
X166989047Y-121470057D02*
X166941428Y-121422438D01*
X166941428Y-121422438D02*
X166846190Y-121374819D01*
X166846190Y-121374819D02*
X166655714Y-121374819D01*
X166655714Y-121374819D02*
X166560476Y-121422438D01*
X166560476Y-121422438D02*
X166512857Y-121470057D01*
X166512857Y-121470057D02*
X166465238Y-121565295D01*
X166465238Y-121565295D02*
X166465238Y-121803390D01*
X166465238Y-121803390D02*
X166512857Y-121898628D01*
X166512857Y-121898628D02*
X166560476Y-121946247D01*
X166560476Y-121946247D02*
X166655714Y-121993866D01*
X166655714Y-121993866D02*
X166846190Y-121993866D01*
X166846190Y-121993866D02*
X166941428Y-121946247D01*
X166941428Y-121946247D02*
X166989047Y-121898628D01*
X166989047Y-121898628D02*
X167036666Y-121803390D01*
X204176333Y-78814819D02*
X203843000Y-78338628D01*
X203604905Y-78814819D02*
X203604905Y-77814819D01*
X203604905Y-77814819D02*
X203985857Y-77814819D01*
X203985857Y-77814819D02*
X204081095Y-77862438D01*
X204081095Y-77862438D02*
X204128714Y-77910057D01*
X204128714Y-77910057D02*
X204176333Y-78005295D01*
X204176333Y-78005295D02*
X204176333Y-78148152D01*
X204176333Y-78148152D02*
X204128714Y-78243390D01*
X204128714Y-78243390D02*
X204081095Y-78291009D01*
X204081095Y-78291009D02*
X203985857Y-78338628D01*
X203985857Y-78338628D02*
X203604905Y-78338628D01*
X204509667Y-77814819D02*
X205128714Y-77814819D01*
X205128714Y-77814819D02*
X204795381Y-78195771D01*
X204795381Y-78195771D02*
X204938238Y-78195771D01*
X204938238Y-78195771D02*
X205033476Y-78243390D01*
X205033476Y-78243390D02*
X205081095Y-78291009D01*
X205081095Y-78291009D02*
X205128714Y-78386247D01*
X205128714Y-78386247D02*
X205128714Y-78624342D01*
X205128714Y-78624342D02*
X205081095Y-78719580D01*
X205081095Y-78719580D02*
X205033476Y-78767200D01*
X205033476Y-78767200D02*
X204938238Y-78814819D01*
X204938238Y-78814819D02*
X204652524Y-78814819D01*
X204652524Y-78814819D02*
X204557286Y-78767200D01*
X204557286Y-78767200D02*
X204509667Y-78719580D01*
X160647142Y-102467580D02*
X160599523Y-102515200D01*
X160599523Y-102515200D02*
X160456666Y-102562819D01*
X160456666Y-102562819D02*
X160361428Y-102562819D01*
X160361428Y-102562819D02*
X160218571Y-102515200D01*
X160218571Y-102515200D02*
X160123333Y-102419961D01*
X160123333Y-102419961D02*
X160075714Y-102324723D01*
X160075714Y-102324723D02*
X160028095Y-102134247D01*
X160028095Y-102134247D02*
X160028095Y-101991390D01*
X160028095Y-101991390D02*
X160075714Y-101800914D01*
X160075714Y-101800914D02*
X160123333Y-101705676D01*
X160123333Y-101705676D02*
X160218571Y-101610438D01*
X160218571Y-101610438D02*
X160361428Y-101562819D01*
X160361428Y-101562819D02*
X160456666Y-101562819D01*
X160456666Y-101562819D02*
X160599523Y-101610438D01*
X160599523Y-101610438D02*
X160647142Y-101658057D01*
X160980476Y-101562819D02*
X161599523Y-101562819D01*
X161599523Y-101562819D02*
X161266190Y-101943771D01*
X161266190Y-101943771D02*
X161409047Y-101943771D01*
X161409047Y-101943771D02*
X161504285Y-101991390D01*
X161504285Y-101991390D02*
X161551904Y-102039009D01*
X161551904Y-102039009D02*
X161599523Y-102134247D01*
X161599523Y-102134247D02*
X161599523Y-102372342D01*
X161599523Y-102372342D02*
X161551904Y-102467580D01*
X161551904Y-102467580D02*
X161504285Y-102515200D01*
X161504285Y-102515200D02*
X161409047Y-102562819D01*
X161409047Y-102562819D02*
X161123333Y-102562819D01*
X161123333Y-102562819D02*
X161028095Y-102515200D01*
X161028095Y-102515200D02*
X160980476Y-102467580D01*
X162218571Y-101562819D02*
X162313809Y-101562819D01*
X162313809Y-101562819D02*
X162409047Y-101610438D01*
X162409047Y-101610438D02*
X162456666Y-101658057D01*
X162456666Y-101658057D02*
X162504285Y-101753295D01*
X162504285Y-101753295D02*
X162551904Y-101943771D01*
X162551904Y-101943771D02*
X162551904Y-102181866D01*
X162551904Y-102181866D02*
X162504285Y-102372342D01*
X162504285Y-102372342D02*
X162456666Y-102467580D01*
X162456666Y-102467580D02*
X162409047Y-102515200D01*
X162409047Y-102515200D02*
X162313809Y-102562819D01*
X162313809Y-102562819D02*
X162218571Y-102562819D01*
X162218571Y-102562819D02*
X162123333Y-102515200D01*
X162123333Y-102515200D02*
X162075714Y-102467580D01*
X162075714Y-102467580D02*
X162028095Y-102372342D01*
X162028095Y-102372342D02*
X161980476Y-102181866D01*
X161980476Y-102181866D02*
X161980476Y-101943771D01*
X161980476Y-101943771D02*
X162028095Y-101753295D01*
X162028095Y-101753295D02*
X162075714Y-101658057D01*
X162075714Y-101658057D02*
X162123333Y-101610438D01*
X162123333Y-101610438D02*
X162218571Y-101562819D01*
X239188666Y-126454819D02*
X239188666Y-127169104D01*
X239188666Y-127169104D02*
X239141047Y-127311961D01*
X239141047Y-127311961D02*
X239045809Y-127407200D01*
X239045809Y-127407200D02*
X238902952Y-127454819D01*
X238902952Y-127454819D02*
X238807714Y-127454819D01*
X239617238Y-126550057D02*
X239664857Y-126502438D01*
X239664857Y-126502438D02*
X239760095Y-126454819D01*
X239760095Y-126454819D02*
X239998190Y-126454819D01*
X239998190Y-126454819D02*
X240093428Y-126502438D01*
X240093428Y-126502438D02*
X240141047Y-126550057D01*
X240141047Y-126550057D02*
X240188666Y-126645295D01*
X240188666Y-126645295D02*
X240188666Y-126740533D01*
X240188666Y-126740533D02*
X240141047Y-126883390D01*
X240141047Y-126883390D02*
X239569619Y-127454819D01*
X239569619Y-127454819D02*
X240188666Y-127454819D01*
X189603142Y-82369819D02*
X189269809Y-81893628D01*
X189031714Y-82369819D02*
X189031714Y-81369819D01*
X189031714Y-81369819D02*
X189412666Y-81369819D01*
X189412666Y-81369819D02*
X189507904Y-81417438D01*
X189507904Y-81417438D02*
X189555523Y-81465057D01*
X189555523Y-81465057D02*
X189603142Y-81560295D01*
X189603142Y-81560295D02*
X189603142Y-81703152D01*
X189603142Y-81703152D02*
X189555523Y-81798390D01*
X189555523Y-81798390D02*
X189507904Y-81846009D01*
X189507904Y-81846009D02*
X189412666Y-81893628D01*
X189412666Y-81893628D02*
X189031714Y-81893628D01*
X189984095Y-81465057D02*
X190031714Y-81417438D01*
X190031714Y-81417438D02*
X190126952Y-81369819D01*
X190126952Y-81369819D02*
X190365047Y-81369819D01*
X190365047Y-81369819D02*
X190460285Y-81417438D01*
X190460285Y-81417438D02*
X190507904Y-81465057D01*
X190507904Y-81465057D02*
X190555523Y-81560295D01*
X190555523Y-81560295D02*
X190555523Y-81655533D01*
X190555523Y-81655533D02*
X190507904Y-81798390D01*
X190507904Y-81798390D02*
X189936476Y-82369819D01*
X189936476Y-82369819D02*
X190555523Y-82369819D01*
X190936476Y-81465057D02*
X190984095Y-81417438D01*
X190984095Y-81417438D02*
X191079333Y-81369819D01*
X191079333Y-81369819D02*
X191317428Y-81369819D01*
X191317428Y-81369819D02*
X191412666Y-81417438D01*
X191412666Y-81417438D02*
X191460285Y-81465057D01*
X191460285Y-81465057D02*
X191507904Y-81560295D01*
X191507904Y-81560295D02*
X191507904Y-81655533D01*
X191507904Y-81655533D02*
X191460285Y-81798390D01*
X191460285Y-81798390D02*
X190888857Y-82369819D01*
X190888857Y-82369819D02*
X191507904Y-82369819D01*
X230973333Y-101674819D02*
X230640000Y-101198628D01*
X230401905Y-101674819D02*
X230401905Y-100674819D01*
X230401905Y-100674819D02*
X230782857Y-100674819D01*
X230782857Y-100674819D02*
X230878095Y-100722438D01*
X230878095Y-100722438D02*
X230925714Y-100770057D01*
X230925714Y-100770057D02*
X230973333Y-100865295D01*
X230973333Y-100865295D02*
X230973333Y-101008152D01*
X230973333Y-101008152D02*
X230925714Y-101103390D01*
X230925714Y-101103390D02*
X230878095Y-101151009D01*
X230878095Y-101151009D02*
X230782857Y-101198628D01*
X230782857Y-101198628D02*
X230401905Y-101198628D01*
X231925714Y-101674819D02*
X231354286Y-101674819D01*
X231640000Y-101674819D02*
X231640000Y-100674819D01*
X231640000Y-100674819D02*
X231544762Y-100817676D01*
X231544762Y-100817676D02*
X231449524Y-100912914D01*
X231449524Y-100912914D02*
X231354286Y-100960533D01*
X155567142Y-93577580D02*
X155519523Y-93625200D01*
X155519523Y-93625200D02*
X155376666Y-93672819D01*
X155376666Y-93672819D02*
X155281428Y-93672819D01*
X155281428Y-93672819D02*
X155138571Y-93625200D01*
X155138571Y-93625200D02*
X155043333Y-93529961D01*
X155043333Y-93529961D02*
X154995714Y-93434723D01*
X154995714Y-93434723D02*
X154948095Y-93244247D01*
X154948095Y-93244247D02*
X154948095Y-93101390D01*
X154948095Y-93101390D02*
X154995714Y-92910914D01*
X154995714Y-92910914D02*
X155043333Y-92815676D01*
X155043333Y-92815676D02*
X155138571Y-92720438D01*
X155138571Y-92720438D02*
X155281428Y-92672819D01*
X155281428Y-92672819D02*
X155376666Y-92672819D01*
X155376666Y-92672819D02*
X155519523Y-92720438D01*
X155519523Y-92720438D02*
X155567142Y-92768057D01*
X155948095Y-92768057D02*
X155995714Y-92720438D01*
X155995714Y-92720438D02*
X156090952Y-92672819D01*
X156090952Y-92672819D02*
X156329047Y-92672819D01*
X156329047Y-92672819D02*
X156424285Y-92720438D01*
X156424285Y-92720438D02*
X156471904Y-92768057D01*
X156471904Y-92768057D02*
X156519523Y-92863295D01*
X156519523Y-92863295D02*
X156519523Y-92958533D01*
X156519523Y-92958533D02*
X156471904Y-93101390D01*
X156471904Y-93101390D02*
X155900476Y-93672819D01*
X155900476Y-93672819D02*
X156519523Y-93672819D01*
X156995714Y-93672819D02*
X157186190Y-93672819D01*
X157186190Y-93672819D02*
X157281428Y-93625200D01*
X157281428Y-93625200D02*
X157329047Y-93577580D01*
X157329047Y-93577580D02*
X157424285Y-93434723D01*
X157424285Y-93434723D02*
X157471904Y-93244247D01*
X157471904Y-93244247D02*
X157471904Y-92863295D01*
X157471904Y-92863295D02*
X157424285Y-92768057D01*
X157424285Y-92768057D02*
X157376666Y-92720438D01*
X157376666Y-92720438D02*
X157281428Y-92672819D01*
X157281428Y-92672819D02*
X157090952Y-92672819D01*
X157090952Y-92672819D02*
X156995714Y-92720438D01*
X156995714Y-92720438D02*
X156948095Y-92768057D01*
X156948095Y-92768057D02*
X156900476Y-92863295D01*
X156900476Y-92863295D02*
X156900476Y-93101390D01*
X156900476Y-93101390D02*
X156948095Y-93196628D01*
X156948095Y-93196628D02*
X156995714Y-93244247D01*
X156995714Y-93244247D02*
X157090952Y-93291866D01*
X157090952Y-93291866D02*
X157281428Y-93291866D01*
X157281428Y-93291866D02*
X157376666Y-93244247D01*
X157376666Y-93244247D02*
X157424285Y-93196628D01*
X157424285Y-93196628D02*
X157471904Y-93101390D01*
X177878095Y-132169819D02*
X177878095Y-132979342D01*
X177878095Y-132979342D02*
X177925714Y-133074580D01*
X177925714Y-133074580D02*
X177973333Y-133122200D01*
X177973333Y-133122200D02*
X178068571Y-133169819D01*
X178068571Y-133169819D02*
X178259047Y-133169819D01*
X178259047Y-133169819D02*
X178354285Y-133122200D01*
X178354285Y-133122200D02*
X178401904Y-133074580D01*
X178401904Y-133074580D02*
X178449523Y-132979342D01*
X178449523Y-132979342D02*
X178449523Y-132169819D01*
X178830476Y-132169819D02*
X179497142Y-132169819D01*
X179497142Y-132169819D02*
X179068571Y-133169819D01*
D13*
%TO.C,SW1*%
X155032000Y-107280000D02*
X155032000Y-107690000D01*
X155032000Y-109290000D02*
X155032000Y-111690000D01*
X155032000Y-113290000D02*
X155032000Y-113700000D01*
X155032000Y-113700000D02*
X161452000Y-113700000D01*
X161452000Y-107280000D02*
X155032000Y-107280000D01*
X161452000Y-107690000D02*
X161452000Y-107280000D01*
X161452000Y-111690000D02*
X161452000Y-109290000D01*
X161452000Y-113700000D02*
X161452000Y-113420000D01*
%TO.C,U6*%
X185420000Y-84435000D02*
X181970000Y-84435000D01*
X185420000Y-84435000D02*
X187370000Y-84435000D01*
X185420000Y-89555000D02*
X183470000Y-89555000D01*
X185420000Y-89555000D02*
X187370000Y-89555000D01*
%TO.C,J4*%
X213420000Y-81340000D02*
X212090000Y-81340000D01*
X213420000Y-80010000D02*
X213420000Y-81340000D01*
X213420000Y-78740000D02*
X213420000Y-78680000D01*
X213420000Y-78740000D02*
X210820000Y-78740000D01*
X213420000Y-78680000D02*
X208220000Y-78680000D01*
X210820000Y-81340000D02*
X208220000Y-81340000D01*
X210820000Y-78740000D02*
X210820000Y-81340000D01*
X208220000Y-81340000D02*
X208220000Y-78680000D01*
%TO.C,D2*%
X206755000Y-86675000D02*
X206755000Y-83505000D01*
X206755000Y-83505000D02*
X202870000Y-83505000D01*
X202870000Y-86675000D02*
X206755000Y-86675000D01*
%TO.C,R26*%
X171555000Y-119607064D02*
X171555000Y-119152936D01*
X173025000Y-119607064D02*
X173025000Y-119152936D01*
%TO.C,J7*%
X224850000Y-88960000D02*
X223520000Y-88960000D01*
X224850000Y-87630000D02*
X224850000Y-88960000D01*
X224850000Y-86360000D02*
X224850000Y-73600000D01*
X224850000Y-86360000D02*
X222190000Y-86360000D01*
X224850000Y-73600000D02*
X222190000Y-73600000D01*
X222190000Y-86360000D02*
X222190000Y-73600000D01*
%TO.C,R6*%
X230912936Y-105945000D02*
X231367064Y-105945000D01*
X230912936Y-107415000D02*
X231367064Y-107415000D01*
%TO.C,C32*%
X167825000Y-96740000D02*
X168450000Y-96740000D01*
X168137500Y-96427500D02*
X168137500Y-97052500D01*
X168690000Y-96729437D02*
X168690000Y-97365000D01*
X168690000Y-96729437D02*
X169754437Y-95665000D01*
X168690000Y-100120563D02*
X168690000Y-99485000D01*
X168690000Y-100120563D02*
X169754437Y-101185000D01*
X169754437Y-95665000D02*
X174210000Y-95665000D01*
X169754437Y-101185000D02*
X174210000Y-101185000D01*
X174210000Y-95665000D02*
X174210000Y-97365000D01*
X174210000Y-101185000D02*
X174210000Y-99485000D01*
%TO.C,J8*%
X181550000Y-95190000D02*
X182880000Y-95190000D01*
X181550000Y-96520000D02*
X181550000Y-95190000D01*
X181550000Y-97790000D02*
X181550000Y-113090000D01*
X181550000Y-97790000D02*
X184210000Y-97790000D01*
X181550000Y-113090000D02*
X184210000Y-113090000D01*
X184210000Y-97790000D02*
X184210000Y-113090000D01*
%TO.C,U8*%
X169359500Y-82749000D02*
X168119500Y-82749000D01*
X168119500Y-82749000D02*
X168119500Y-83989000D01*
X176979500Y-82989000D02*
X168359500Y-82989000D01*
X176979500Y-82989000D02*
X176979500Y-94710000D01*
X168359500Y-82989000D02*
X168359500Y-94710000D01*
X176979500Y-94710000D02*
X168359500Y-94710000D01*
%TO.C,J5*%
X213425000Y-76260000D02*
X212095000Y-76260000D01*
X213425000Y-74930000D02*
X213425000Y-76260000D01*
X213425000Y-73660000D02*
X213425000Y-73600000D01*
X213425000Y-73660000D02*
X210825000Y-73660000D01*
X213425000Y-73600000D02*
X208225000Y-73600000D01*
X210825000Y-76260000D02*
X208225000Y-76260000D01*
X210825000Y-73660000D02*
X210825000Y-76260000D01*
X208225000Y-76260000D02*
X208225000Y-73600000D01*
%TO.C,D3*%
X156401500Y-116017000D02*
X156401500Y-119187000D01*
X156401500Y-119187000D02*
X160286500Y-119187000D01*
X160286500Y-116017000D02*
X156401500Y-116017000D01*
%TO.C,R7*%
X230912936Y-109755000D02*
X231367064Y-109755000D01*
X230912936Y-111225000D02*
X231367064Y-111225000D01*
%TO.C,L1*%
X162610000Y-66852000D02*
X175210000Y-66852000D01*
X162610000Y-69852000D02*
X162610000Y-66852000D01*
X162610000Y-79452000D02*
X162610000Y-76452000D01*
X175210000Y-66852000D02*
X175210000Y-69852000D01*
X175210000Y-76452000D02*
X175210000Y-79452000D01*
X175210000Y-79452000D02*
X162610000Y-79452000D01*
%TO.C,J3*%
X236425000Y-93190000D02*
X249425000Y-93190000D01*
X236425000Y-93190000D02*
X236425000Y-76990000D01*
X249425000Y-93190000D02*
X249425000Y-76990000D01*
X236425000Y-76990000D02*
X249425000Y-76990000D01*
%TO.C,U4*%
X180660000Y-72550000D02*
X186670000Y-72550000D01*
X182910000Y-79370000D02*
X186670000Y-79370000D01*
X186670000Y-72550000D02*
X186670000Y-73810000D01*
X186670000Y-79370000D02*
X186670000Y-78110000D01*
%TO.C,R24*%
X185852064Y-128624000D02*
X185397936Y-128624000D01*
X185852064Y-127154000D02*
X185397936Y-127154000D01*
%TO.C,R19*%
X204570064Y-82904000D02*
X204115936Y-82904000D01*
X204570064Y-81434000D02*
X204115936Y-81434000D01*
%TO.C,X1*%
X192880000Y-89960000D02*
X193310000Y-89960000D01*
X192880000Y-93560000D02*
X192880000Y-89960000D01*
X193310000Y-93560000D02*
X192880000Y-93560000D01*
X193310000Y-93810000D02*
X193310000Y-93560000D01*
X195310000Y-89960000D02*
X195850000Y-89960000D01*
X195310000Y-93560000D02*
X195310000Y-93810000D01*
X195850000Y-93560000D02*
X195310000Y-93560000D01*
X197850000Y-89960000D02*
X198280000Y-89960000D01*
X198280000Y-89960000D02*
X198280000Y-93560000D01*
X198280000Y-93560000D02*
X197850000Y-93560000D01*
%TO.C,R25*%
X185852064Y-131164000D02*
X185397936Y-131164000D01*
X185852064Y-129694000D02*
X185397936Y-129694000D01*
%TO.C,BT1*%
X194240000Y-131210000D02*
X191640000Y-128610000D01*
X195690000Y-131210000D02*
X194240000Y-131210000D01*
X199690000Y-131210000D02*
X201790000Y-131210000D01*
X190840000Y-128610000D02*
X190840000Y-120310000D01*
X191640000Y-128610000D02*
X190840000Y-128610000D01*
X190840000Y-120310000D02*
X191640000Y-120310000D01*
X191640000Y-120310000D02*
X194240000Y-117710000D01*
X194240000Y-117710000D02*
X195690000Y-117710000D01*
X199690000Y-117710000D02*
X201790000Y-117710000D01*
X201740000Y-131210000D02*
G75*
G03*
X203290000Y-129760000I50001J1499999D01*
G01*
X203274159Y-129874615D02*
G75*
G03*
X202890000Y-128960001I-984160J124615D01*
G01*
X202890000Y-119960000D02*
G75*
G03*
X203274160Y-119045385I-600000J790000D01*
G01*
X203290000Y-119160000D02*
G75*
G03*
X201740000Y-117710000I-1500000J-50000D01*
G01*
%TO.C,SP1*%
X233670000Y-120650000D02*
G75*
G03*
X233670000Y-120650000I-7600000J0D01*
G01*
%TO.C,CON2*%
X148156000Y-80421500D02*
X162856000Y-80421500D01*
X148156000Y-89621500D02*
X148156000Y-80421500D01*
X156956000Y-89621500D02*
X148156000Y-89621500D01*
X162006000Y-80221500D02*
X163056000Y-80221500D01*
X162856000Y-80421500D02*
X162856000Y-83021500D01*
X162856000Y-86921500D02*
X162856000Y-89621500D01*
X162856000Y-89621500D02*
X160956000Y-89621500D01*
X163056000Y-81271500D02*
X163056000Y-80221500D01*
%TO.C,D4*%
X156401500Y-119446000D02*
X156401500Y-122616000D01*
X156401500Y-122616000D02*
X160286500Y-122616000D01*
X160286500Y-119446000D02*
X156401500Y-119446000D01*
%TO.C,U1*%
X190820000Y-72550000D02*
X196830000Y-72550000D01*
X193070000Y-79370000D02*
X196830000Y-79370000D01*
X196830000Y-72550000D02*
X196830000Y-73810000D01*
X196830000Y-79370000D02*
X196830000Y-78110000D01*
%TO.C,R4*%
X227357000Y-102081064D02*
X227357000Y-101626936D01*
X228827000Y-102081064D02*
X228827000Y-101626936D01*
%TO.C,R23*%
X182145000Y-82142064D02*
X182145000Y-81687936D01*
X183615000Y-82142064D02*
X183615000Y-81687936D01*
%TO.C,U2*%
X197620000Y-104640000D02*
X197620000Y-104165000D01*
X198095000Y-97420000D02*
X197620000Y-97420000D01*
X198095000Y-104640000D02*
X197620000Y-104640000D01*
X204365000Y-97420000D02*
X204840000Y-97420000D01*
X204365000Y-104640000D02*
X204840000Y-104640000D01*
X204840000Y-97420000D02*
X204840000Y-97895000D01*
X204840000Y-104640000D02*
X204840000Y-104165000D01*
%TO.C,U3*%
X176480000Y-114755000D02*
X176480000Y-115010000D01*
X176480000Y-115010000D02*
X174665000Y-115010000D01*
X176480000Y-125275000D02*
X176480000Y-125020000D01*
X180340000Y-114755000D02*
X176480000Y-114755000D01*
X180340000Y-114755000D02*
X184200000Y-114755000D01*
X180340000Y-125275000D02*
X176480000Y-125275000D01*
X180340000Y-125275000D02*
X184200000Y-125275000D01*
X184200000Y-114755000D02*
X184200000Y-115010000D01*
X184200000Y-125275000D02*
X184200000Y-125020000D01*
%TO.C,U5*%
X219305000Y-103987500D02*
X219305000Y-104437500D01*
X219305000Y-104437500D02*
X218015000Y-104437500D01*
X219305000Y-111207500D02*
X219305000Y-110757500D01*
X219755000Y-103987500D02*
X219305000Y-103987500D01*
X219755000Y-111207500D02*
X219305000Y-111207500D01*
X226075000Y-103987500D02*
X226525000Y-103987500D01*
X226075000Y-111207500D02*
X226525000Y-111207500D01*
X226525000Y-103987500D02*
X226525000Y-104437500D01*
X226525000Y-111207500D02*
X226525000Y-110757500D01*
%TO.C,J1*%
X208220000Y-83760000D02*
X209550000Y-83760000D01*
X208220000Y-85090000D02*
X208220000Y-83760000D01*
X208220000Y-86360000D02*
X208220000Y-86420000D01*
X208220000Y-86360000D02*
X210820000Y-86360000D01*
X208220000Y-86420000D02*
X213420000Y-86420000D01*
X210820000Y-83760000D02*
X213420000Y-83760000D01*
X210820000Y-86360000D02*
X210820000Y-83760000D01*
X213420000Y-83760000D02*
X213420000Y-86420000D01*
%TO.C,J6*%
X212030000Y-88205000D02*
X213360000Y-88205000D01*
X212030000Y-89535000D02*
X212030000Y-88205000D01*
X212030000Y-90805000D02*
X212030000Y-93405000D01*
X212030000Y-90805000D02*
X214630000Y-90805000D01*
X212030000Y-93405000D02*
X217230000Y-93405000D01*
X214630000Y-88205000D02*
X217230000Y-88205000D01*
X214630000Y-90805000D02*
X214630000Y-88205000D01*
X217230000Y-88205000D02*
X217230000Y-93405000D01*
%TO.C,D5*%
X156401500Y-122875000D02*
X156401500Y-126045000D01*
X156401500Y-126045000D02*
X160286500Y-126045000D01*
X160286500Y-122875000D02*
X156401500Y-122875000D01*
%TO.C,C31*%
X167105000Y-87368748D02*
X167105000Y-87891252D01*
X165635000Y-87368748D02*
X165635000Y-87891252D01*
%TO.C,J9*%
X165040000Y-123130000D02*
X166370000Y-123130000D01*
X165040000Y-124460000D02*
X165040000Y-123130000D01*
X165040000Y-125730000D02*
X165040000Y-133410000D01*
X165040000Y-125730000D02*
X167700000Y-125730000D01*
X165040000Y-133410000D02*
X167700000Y-133410000D01*
X167700000Y-125730000D02*
X167700000Y-133410000D01*
%TO.C,R3*%
X204115936Y-79275000D02*
X204570064Y-79275000D01*
X204115936Y-80745000D02*
X204570064Y-80745000D01*
%TO.C,C30*%
X161551252Y-101065000D02*
X161028748Y-101065000D01*
X161551252Y-99595000D02*
X161028748Y-99595000D01*
%TO.C,J2*%
X239440669Y-125419669D02*
X239440669Y-94449669D01*
X248040669Y-125419669D02*
X239440669Y-125419669D01*
X238546331Y-105869669D02*
X238546331Y-105369669D01*
X238979344Y-105619669D02*
X238546331Y-105869669D01*
X238546331Y-105369669D02*
X238979344Y-105619669D01*
X239440669Y-94449669D02*
X248040669Y-94449669D01*
%TO.C,R22*%
X188695000Y-81687936D02*
X188695000Y-82142064D01*
X187225000Y-81687936D02*
X187225000Y-82142064D01*
%TO.C,R1*%
X230912936Y-102135000D02*
X231367064Y-102135000D01*
X230912936Y-103605000D02*
X231367064Y-103605000D01*
%TO.C,C29*%
X165727500Y-97478500D02*
X164940000Y-97478500D01*
X165333750Y-97872250D02*
X165333750Y-97084750D01*
X164700000Y-97976563D02*
X164700000Y-96691000D01*
X164700000Y-97976563D02*
X163635563Y-99041000D01*
X164700000Y-93285437D02*
X164700000Y-94571000D01*
X164700000Y-93285437D02*
X163635563Y-92221000D01*
X163635563Y-99041000D02*
X157880000Y-99041000D01*
X163635563Y-92221000D02*
X157880000Y-92221000D01*
X157880000Y-99041000D02*
X157880000Y-96691000D01*
X157880000Y-92221000D02*
X157880000Y-94571000D01*
%TO.C,U7*%
X178640000Y-126599000D02*
X175190000Y-126599000D01*
X178640000Y-126599000D02*
X180590000Y-126599000D01*
X178640000Y-131719000D02*
X176690000Y-131719000D01*
X178640000Y-131719000D02*
X180590000Y-131719000D01*
%TD*%
M02*
