%TF.GenerationSoftware,KiCad,Pcbnew,7.0.9-7.0.9~ubuntu20.04.1*%
%TF.CreationDate,2024-02-01T14:13:27+00:00*%
%TF.ProjectId,ICE40UPDevBoard,49434534-3055-4504-9465-76426f617264,rev?*%
%TF.SameCoordinates,Original*%
%TF.FileFunction,Paste,Bot*%
%TF.FilePolarity,Positive*%
%FSLAX46Y46*%
G04 Gerber Fmt 4.6, Leading zero omitted, Abs format (unit mm)*
G04 Created by KiCad (PCBNEW 7.0.9-7.0.9~ubuntu20.04.1) date 2024-02-01 14:13:27*
%MOMM*%
%LPD*%
G01*
G04 APERTURE LIST*
G04 Aperture macros list*
%AMRoundRect*
0 Rectangle with rounded corners*
0 $1 Rounding radius*
0 $2 $3 $4 $5 $6 $7 $8 $9 X,Y pos of 4 corners*
0 Add a 4 corners polygon primitive as box body*
4,1,4,$2,$3,$4,$5,$6,$7,$8,$9,$2,$3,0*
0 Add four circle primitives for the rounded corners*
1,1,$1+$1,$2,$3*
1,1,$1+$1,$4,$5*
1,1,$1+$1,$6,$7*
1,1,$1+$1,$8,$9*
0 Add four rect primitives between the rounded corners*
20,1,$1+$1,$2,$3,$4,$5,0*
20,1,$1+$1,$4,$5,$6,$7,0*
20,1,$1+$1,$6,$7,$8,$9,0*
20,1,$1+$1,$8,$9,$2,$3,0*%
G04 Aperture macros list end*
%ADD10RoundRect,0.250000X-0.262500X-0.450000X0.262500X-0.450000X0.262500X0.450000X-0.262500X0.450000X0*%
%ADD11RoundRect,0.250000X-0.475000X0.250000X-0.475000X-0.250000X0.475000X-0.250000X0.475000X0.250000X0*%
%ADD12RoundRect,0.250000X0.475000X-0.250000X0.475000X0.250000X-0.475000X0.250000X-0.475000X-0.250000X0*%
%ADD13RoundRect,0.250000X0.425000X-0.450000X0.425000X0.450000X-0.425000X0.450000X-0.425000X-0.450000X0*%
%ADD14RoundRect,0.225000X0.375000X-0.225000X0.375000X0.225000X-0.375000X0.225000X-0.375000X-0.225000X0*%
%ADD15RoundRect,0.250000X0.262500X0.450000X-0.262500X0.450000X-0.262500X-0.450000X0.262500X-0.450000X0*%
%ADD16RoundRect,0.250000X0.450000X-0.262500X0.450000X0.262500X-0.450000X0.262500X-0.450000X-0.262500X0*%
%ADD17RoundRect,0.250000X-0.425000X0.450000X-0.425000X-0.450000X0.425000X-0.450000X0.425000X0.450000X0*%
%ADD18RoundRect,0.250000X0.275000X0.700000X-0.275000X0.700000X-0.275000X-0.700000X0.275000X-0.700000X0*%
%ADD19RoundRect,0.250000X0.250000X0.475000X-0.250000X0.475000X-0.250000X-0.475000X0.250000X-0.475000X0*%
%ADD20RoundRect,0.250000X-0.450000X0.262500X-0.450000X-0.262500X0.450000X-0.262500X0.450000X0.262500X0*%
%ADD21RoundRect,0.250000X1.025000X-0.787500X1.025000X0.787500X-1.025000X0.787500X-1.025000X-0.787500X0*%
%ADD22RoundRect,0.250000X-0.250000X-0.475000X0.250000X-0.475000X0.250000X0.475000X-0.250000X0.475000X0*%
G04 APERTURE END LIST*
D10*
%TO.C,R21*%
X203557500Y-74930000D03*
X205382500Y-74930000D03*
%TD*%
D11*
%TO.C,C24*%
X185420000Y-86045000D03*
X185420000Y-87945000D03*
%TD*%
D10*
%TO.C,R10*%
X241403500Y-118110000D03*
X243228500Y-118110000D03*
%TD*%
D12*
%TO.C,C16*%
X201549000Y-95184000D03*
X201549000Y-93284000D03*
%TD*%
D13*
%TO.C,C19*%
X193015000Y-77310000D03*
X193015000Y-74610000D03*
%TD*%
D14*
%TO.C,D1*%
X206121000Y-109219000D03*
X206121000Y-105919000D03*
%TD*%
D10*
%TO.C,R12*%
X233402500Y-87630000D03*
X235227500Y-87630000D03*
%TD*%
D12*
%TO.C,C26*%
X195707000Y-98740000D03*
X195707000Y-96840000D03*
%TD*%
D11*
%TO.C,C2*%
X195834000Y-74996000D03*
X195834000Y-76896000D03*
%TD*%
D15*
%TO.C,R28*%
X159599000Y-121031000D03*
X157774000Y-121031000D03*
%TD*%
D16*
%TO.C,R20*%
X190373000Y-89304500D03*
X190373000Y-87479500D03*
%TD*%
D11*
%TO.C,C18*%
X185674000Y-74996000D03*
X185674000Y-76896000D03*
%TD*%
D17*
%TO.C,C1*%
X187935000Y-74610000D03*
X187935000Y-77310000D03*
%TD*%
D11*
%TO.C,C21*%
X226060000Y-107381000D03*
X226060000Y-109281000D03*
%TD*%
D12*
%TO.C,C10*%
X197227000Y-106929000D03*
X197227000Y-105029000D03*
%TD*%
D15*
%TO.C,R16*%
X230782500Y-83185000D03*
X228957500Y-83185000D03*
%TD*%
D11*
%TO.C,C9*%
X195580000Y-90810000D03*
X195580000Y-92710000D03*
%TD*%
D18*
%TO.C,FB1*%
X223952000Y-107696000D03*
X220802000Y-107696000D03*
%TD*%
D15*
%TO.C,R14*%
X230782500Y-87630000D03*
X228957500Y-87630000D03*
%TD*%
D17*
%TO.C,C3*%
X198095000Y-74610000D03*
X198095000Y-77310000D03*
%TD*%
D11*
%TO.C,C27*%
X180340000Y-119065000D03*
X180340000Y-120965000D03*
%TD*%
D19*
%TO.C,C7*%
X204150000Y-106426000D03*
X202250000Y-106426000D03*
%TD*%
D15*
%TO.C,R17*%
X235227500Y-83185000D03*
X233402500Y-83185000D03*
%TD*%
D12*
%TO.C,C23*%
X203708000Y-95184000D03*
X203708000Y-93284000D03*
%TD*%
D11*
%TO.C,C28*%
X178640000Y-128209000D03*
X178640000Y-130109000D03*
%TD*%
D19*
%TO.C,C20*%
X225740000Y-105410000D03*
X223840000Y-105410000D03*
%TD*%
D12*
%TO.C,C5*%
X206883000Y-98740000D03*
X206883000Y-96840000D03*
%TD*%
%TO.C,C4*%
X209169000Y-98740000D03*
X209169000Y-96840000D03*
%TD*%
D20*
%TO.C,R5*%
X195072000Y-101576500D03*
X195072000Y-103401500D03*
%TD*%
D12*
%TO.C,C25*%
X197866000Y-98740000D03*
X197866000Y-96840000D03*
%TD*%
%TO.C,C6*%
X208407000Y-108392000D03*
X208407000Y-106492000D03*
%TD*%
D11*
%TO.C,C13*%
X199390000Y-101539000D03*
X199390000Y-103439000D03*
%TD*%
D21*
%TO.C,C17*%
X181991000Y-79123000D03*
X181991000Y-72898000D03*
%TD*%
D19*
%TO.C,C8*%
X204150000Y-108585000D03*
X202250000Y-108585000D03*
%TD*%
D12*
%TO.C,C11*%
X199390000Y-106929000D03*
X199390000Y-105029000D03*
%TD*%
D15*
%TO.C,R30*%
X159154500Y-110490000D03*
X157329500Y-110490000D03*
%TD*%
D20*
%TO.C,R2*%
X207264000Y-101576500D03*
X207264000Y-103401500D03*
%TD*%
D22*
%TO.C,C22*%
X221935000Y-109982000D03*
X223835000Y-109982000D03*
%TD*%
D15*
%TO.C,R13*%
X233957500Y-92075000D03*
X232132500Y-92075000D03*
%TD*%
D10*
%TO.C,R11*%
X236577500Y-91440000D03*
X238402500Y-91440000D03*
%TD*%
D15*
%TO.C,R27*%
X159599000Y-117602000D03*
X157774000Y-117602000D03*
%TD*%
D10*
%TO.C,R9*%
X241403500Y-101600000D03*
X243228500Y-101600000D03*
%TD*%
D11*
%TO.C,C15*%
X204597000Y-101539000D03*
X204597000Y-103439000D03*
%TD*%
D15*
%TO.C,R15*%
X233957500Y-78740000D03*
X232132500Y-78740000D03*
%TD*%
%TO.C,R8*%
X221892500Y-105410000D03*
X220067500Y-105410000D03*
%TD*%
%TO.C,R18*%
X238402500Y-78740000D03*
X236577500Y-78740000D03*
%TD*%
D10*
%TO.C,R32*%
X217537500Y-120650000D03*
X219362500Y-120650000D03*
%TD*%
D15*
%TO.C,R29*%
X159599000Y-124460000D03*
X157774000Y-124460000D03*
%TD*%
D11*
%TO.C,C14*%
X197231000Y-101539000D03*
X197231000Y-103439000D03*
%TD*%
%TO.C,C12*%
X202438000Y-101539000D03*
X202438000Y-103439000D03*
%TD*%
M02*
