%TF.GenerationSoftware,KiCad,Pcbnew,7.0.9-7.0.9~ubuntu20.04.1*%
%TF.CreationDate,2024-02-01T14:13:27+00:00*%
%TF.ProjectId,ICE40UPDevBoard,49434534-3055-4504-9465-76426f617264,rev?*%
%TF.SameCoordinates,Original*%
%TF.FileFunction,Copper,L4,Bot*%
%TF.FilePolarity,Positive*%
%FSLAX46Y46*%
G04 Gerber Fmt 4.6, Leading zero omitted, Abs format (unit mm)*
G04 Created by KiCad (PCBNEW 7.0.9-7.0.9~ubuntu20.04.1) date 2024-02-01 14:13:27*
%MOMM*%
%LPD*%
G01*
G04 APERTURE LIST*
G04 Aperture macros list*
%AMRoundRect*
0 Rectangle with rounded corners*
0 $1 Rounding radius*
0 $2 $3 $4 $5 $6 $7 $8 $9 X,Y pos of 4 corners*
0 Add a 4 corners polygon primitive as box body*
4,1,4,$2,$3,$4,$5,$6,$7,$8,$9,$2,$3,0*
0 Add four circle primitives for the rounded corners*
1,1,$1+$1,$2,$3*
1,1,$1+$1,$4,$5*
1,1,$1+$1,$6,$7*
1,1,$1+$1,$8,$9*
0 Add four rect primitives between the rounded corners*
20,1,$1+$1,$2,$3,$4,$5,0*
20,1,$1+$1,$4,$5,$6,$7,0*
20,1,$1+$1,$6,$7,$8,$9,0*
20,1,$1+$1,$8,$9,$2,$3,0*%
G04 Aperture macros list end*
%TA.AperFunction,ComponentPad*%
%ADD10R,1.700000X1.700000*%
%TD*%
%TA.AperFunction,ComponentPad*%
%ADD11O,1.700000X1.700000*%
%TD*%
%TA.AperFunction,ComponentPad*%
%ADD12R,2.300000X1.500000*%
%TD*%
%TA.AperFunction,ComponentPad*%
%ADD13O,2.300000X1.500000*%
%TD*%
%TA.AperFunction,ComponentPad*%
%ADD14R,1.600000X1.600000*%
%TD*%
%TA.AperFunction,ComponentPad*%
%ADD15C,1.600000*%
%TD*%
%TA.AperFunction,ComponentPad*%
%ADD16O,3.500000X2.000000*%
%TD*%
%TA.AperFunction,ComponentPad*%
%ADD17O,2.000000X4.000000*%
%TD*%
%TA.AperFunction,ComponentPad*%
%ADD18R,2.000000X2.000000*%
%TD*%
%TA.AperFunction,ComponentPad*%
%ADD19C,2.000000*%
%TD*%
%TA.AperFunction,ComponentPad*%
%ADD20R,3.500000X3.500000*%
%TD*%
%TA.AperFunction,ComponentPad*%
%ADD21RoundRect,0.750000X-0.750000X-1.000000X0.750000X-1.000000X0.750000X1.000000X-0.750000X1.000000X0*%
%TD*%
%TA.AperFunction,ComponentPad*%
%ADD22RoundRect,0.875000X-0.875000X-0.875000X0.875000X-0.875000X0.875000X0.875000X-0.875000X0.875000X0*%
%TD*%
%TA.AperFunction,ComponentPad*%
%ADD23C,4.000000*%
%TD*%
%TA.AperFunction,SMDPad,CuDef*%
%ADD24RoundRect,0.250000X-0.262500X-0.450000X0.262500X-0.450000X0.262500X0.450000X-0.262500X0.450000X0*%
%TD*%
%TA.AperFunction,SMDPad,CuDef*%
%ADD25RoundRect,0.250000X-0.475000X0.250000X-0.475000X-0.250000X0.475000X-0.250000X0.475000X0.250000X0*%
%TD*%
%TA.AperFunction,SMDPad,CuDef*%
%ADD26RoundRect,0.250000X0.475000X-0.250000X0.475000X0.250000X-0.475000X0.250000X-0.475000X-0.250000X0*%
%TD*%
%TA.AperFunction,SMDPad,CuDef*%
%ADD27RoundRect,0.250000X0.425000X-0.450000X0.425000X0.450000X-0.425000X0.450000X-0.425000X-0.450000X0*%
%TD*%
%TA.AperFunction,SMDPad,CuDef*%
%ADD28RoundRect,0.225000X0.375000X-0.225000X0.375000X0.225000X-0.375000X0.225000X-0.375000X-0.225000X0*%
%TD*%
%TA.AperFunction,SMDPad,CuDef*%
%ADD29RoundRect,0.250000X0.262500X0.450000X-0.262500X0.450000X-0.262500X-0.450000X0.262500X-0.450000X0*%
%TD*%
%TA.AperFunction,SMDPad,CuDef*%
%ADD30RoundRect,0.250000X0.450000X-0.262500X0.450000X0.262500X-0.450000X0.262500X-0.450000X-0.262500X0*%
%TD*%
%TA.AperFunction,SMDPad,CuDef*%
%ADD31RoundRect,0.250000X-0.425000X0.450000X-0.425000X-0.450000X0.425000X-0.450000X0.425000X0.450000X0*%
%TD*%
%TA.AperFunction,SMDPad,CuDef*%
%ADD32RoundRect,0.250000X0.275000X0.700000X-0.275000X0.700000X-0.275000X-0.700000X0.275000X-0.700000X0*%
%TD*%
%TA.AperFunction,SMDPad,CuDef*%
%ADD33RoundRect,0.250000X0.250000X0.475000X-0.250000X0.475000X-0.250000X-0.475000X0.250000X-0.475000X0*%
%TD*%
%TA.AperFunction,SMDPad,CuDef*%
%ADD34RoundRect,0.250000X-0.450000X0.262500X-0.450000X-0.262500X0.450000X-0.262500X0.450000X0.262500X0*%
%TD*%
%TA.AperFunction,SMDPad,CuDef*%
%ADD35RoundRect,0.250000X1.025000X-0.787500X1.025000X0.787500X-1.025000X0.787500X-1.025000X-0.787500X0*%
%TD*%
%TA.AperFunction,SMDPad,CuDef*%
%ADD36RoundRect,0.250000X-0.250000X-0.475000X0.250000X-0.475000X0.250000X0.475000X-0.250000X0.475000X0*%
%TD*%
%TA.AperFunction,ViaPad*%
%ADD37C,0.635000*%
%TD*%
%TA.AperFunction,ViaPad*%
%ADD38C,0.508000*%
%TD*%
%TA.AperFunction,ViaPad*%
%ADD39C,0.762000*%
%TD*%
%TA.AperFunction,Conductor*%
%ADD40C,0.317500*%
%TD*%
%TA.AperFunction,Conductor*%
%ADD41C,0.190500*%
%TD*%
%TA.AperFunction,Conductor*%
%ADD42C,1.651000*%
%TD*%
%TA.AperFunction,Conductor*%
%ADD43C,0.254000*%
%TD*%
G04 APERTURE END LIST*
D10*
%TO.P,J4,1,Pin_1*%
%TO.N,/~{CRESET_B}*%
X212090000Y-80010000D03*
D11*
%TO.P,J4,2,Pin_2*%
%TO.N,GND*%
X209550000Y-80010000D03*
%TD*%
D10*
%TO.P,J7,1,Pin_1*%
%TO.N,+3V3*%
X223520000Y-87630000D03*
D11*
%TO.P,J7,2,Pin_2*%
%TO.N,/FLASH_MOSI*%
X223520000Y-85090000D03*
%TO.P,J7,3,Pin_3*%
%TO.N,/FLASH_MISO*%
X223520000Y-82550000D03*
%TO.P,J7,4,Pin_4*%
%TO.N,/ICE_SCK*%
X223520000Y-80010000D03*
%TO.P,J7,5,Pin_5*%
%TO.N,/ICE_SS*%
X223520000Y-77470000D03*
%TO.P,J7,6,Pin_6*%
%TO.N,GND*%
X223520000Y-74930000D03*
%TD*%
D10*
%TO.P,J8,1,Pin_1*%
%TO.N,USER0*%
X182880000Y-96520000D03*
D11*
%TO.P,J8,2,Pin_2*%
%TO.N,USER1*%
X182880000Y-99060000D03*
%TO.P,J8,3,Pin_3*%
%TO.N,USER2*%
X182880000Y-101600000D03*
%TO.P,J8,4,Pin_4*%
%TO.N,USER3*%
X182880000Y-104140000D03*
%TO.P,J8,5,Pin_5*%
%TO.N,USER4*%
X182880000Y-106680000D03*
%TO.P,J8,6,Pin_6*%
%TO.N,USER5*%
X182880000Y-109220000D03*
%TO.P,J8,7,Pin_7*%
%TO.N,GND*%
X182880000Y-111760000D03*
%TD*%
D12*
%TO.P,U8,1,+Vin*%
%TO.N,/VCCEXTI*%
X170419500Y-86360000D03*
D13*
%TO.P,U8,2,GND*%
%TO.N,GND*%
X170419500Y-88900000D03*
%TO.P,U8,3,+Vout*%
%TO.N,+5V*%
X170419500Y-91440000D03*
%TD*%
D10*
%TO.P,J5,1,Pin_1*%
%TO.N,/ICE_SS*%
X212095000Y-74930000D03*
D11*
%TO.P,J5,2,Pin_2*%
%TO.N,Net-(J5-Pin_2)*%
X209555000Y-74930000D03*
%TD*%
D14*
%TO.P,J3,1*%
%TO.N,Net-(J3-Pad1)*%
X240825000Y-83790000D03*
D15*
%TO.P,J3,2*%
%TO.N,Net-(J3-Pad2)*%
X240825000Y-86390000D03*
%TO.P,J3,3*%
%TO.N,GND*%
X240825000Y-81690000D03*
%TO.P,J3,4*%
%TO.N,+5V*%
X240825000Y-88490000D03*
%TO.P,J3,5*%
%TO.N,Net-(J3-Pad5)*%
X238025000Y-81690000D03*
%TO.P,J3,6*%
%TO.N,Net-(J3-Pad6)*%
X238025000Y-88490000D03*
D16*
%TO.P,J3,7*%
%TO.N,N/C*%
X243675000Y-91940000D03*
D17*
X244475000Y-85090000D03*
D16*
X243675000Y-78240000D03*
%TD*%
D18*
%TO.P,SP1,1,1*%
%TO.N,Net-(R32-Pad2)*%
X222270000Y-120650000D03*
D19*
%TO.P,SP1,2,2*%
%TO.N,BUZZER*%
X229870000Y-120650000D03*
%TD*%
D20*
%TO.P,CON2,1*%
%TO.N,/VCCEXT*%
X161956000Y-85021500D03*
D21*
%TO.P,CON2,2*%
%TO.N,GND*%
X155956000Y-85021500D03*
D22*
%TO.P,CON2,3*%
X158956000Y-89721500D03*
%TD*%
D10*
%TO.P,J1,1,Pin_1*%
%TO.N,Net-(D2-K)*%
X209550000Y-85090000D03*
D11*
%TO.P,J1,2,Pin_2*%
%TO.N,/CDONE*%
X212090000Y-85090000D03*
%TD*%
D10*
%TO.P,J6,1,Pin_1*%
%TO.N,/FLASH_MOSI*%
X213360000Y-89535000D03*
D11*
%TO.P,J6,2,Pin_2*%
%TO.N,/ICE_MISO*%
X215900000Y-89535000D03*
%TO.P,J6,3,Pin_3*%
%TO.N,/ICE_MOSI*%
X213360000Y-92075000D03*
%TO.P,J6,4,Pin_4*%
%TO.N,/FLASH_MISO*%
X215900000Y-92075000D03*
%TD*%
D10*
%TO.P,J9,1,Pin_1*%
%TO.N,+3V3*%
X166370000Y-124460000D03*
D11*
%TO.P,J9,2,Pin_2*%
%TO.N,I2C_SDA*%
X166370000Y-127000000D03*
%TO.P,J9,3,Pin_3*%
%TO.N,I2C_SCL*%
X166370000Y-129540000D03*
%TO.P,J9,4,Pin_4*%
%TO.N,GND*%
X166370000Y-132080000D03*
%TD*%
D23*
%TO.P,J2,0*%
%TO.N,GND*%
X243160669Y-122434669D03*
X243160669Y-97434669D03*
D14*
%TO.P,J2,1*%
%TO.N,RED*%
X241110669Y-105619669D03*
D15*
%TO.P,J2,2*%
%TO.N,GREEN*%
X241110669Y-107909669D03*
%TO.P,J2,3*%
%TO.N,BLUE*%
X241110669Y-110199669D03*
%TO.P,J2,4*%
%TO.N,unconnected-(J2-Pad4)*%
X241110669Y-112489669D03*
%TO.P,J2,5*%
%TO.N,GND*%
X241110669Y-114779669D03*
%TO.P,J2,6*%
X243090669Y-104474669D03*
%TO.P,J2,7*%
X243090669Y-106764669D03*
%TO.P,J2,8*%
X243090669Y-109054669D03*
%TO.P,J2,9*%
%TO.N,unconnected-(J2-Pad9)*%
X243090669Y-111344669D03*
%TO.P,J2,10*%
%TO.N,GND*%
X243090669Y-113634669D03*
%TO.P,J2,11*%
%TO.N,unconnected-(J2-Pad11)*%
X245070669Y-105619669D03*
%TO.P,J2,12*%
%TO.N,unconnected-(J2-Pad12)*%
X245070669Y-107909669D03*
%TO.P,J2,13*%
%TO.N,Net-(J2-Pad13)*%
X245070669Y-110199669D03*
%TO.P,J2,14*%
%TO.N,Net-(J2-Pad14)*%
X245070669Y-112489669D03*
%TO.P,J2,15*%
%TO.N,unconnected-(J2-Pad15)*%
X245070669Y-114779669D03*
%TD*%
D24*
%TO.P,R21,1*%
%TO.N,+3V3*%
X203557500Y-74930000D03*
%TO.P,R21,2*%
%TO.N,Net-(J5-Pin_2)*%
X205382500Y-74930000D03*
%TD*%
D25*
%TO.P,C24,1*%
%TO.N,+3V3*%
X185420000Y-86045000D03*
%TO.P,C24,2*%
%TO.N,GND*%
X185420000Y-87945000D03*
%TD*%
D24*
%TO.P,R10,1*%
%TO.N,VSYNC*%
X241403500Y-118110000D03*
%TO.P,R10,2*%
%TO.N,Net-(J2-Pad14)*%
X243228500Y-118110000D03*
%TD*%
D26*
%TO.P,C16,1*%
%TO.N,+1V2*%
X201549000Y-95184000D03*
%TO.P,C16,2*%
%TO.N,GND*%
X201549000Y-93284000D03*
%TD*%
D27*
%TO.P,C19,1*%
%TO.N,+3V3*%
X193015000Y-77310000D03*
%TO.P,C19,2*%
%TO.N,GND*%
X193015000Y-74610000D03*
%TD*%
D28*
%TO.P,D1,1,K*%
%TO.N,/VPP_2V5*%
X206121000Y-109219000D03*
%TO.P,D1,2,A*%
%TO.N,+3V3*%
X206121000Y-105919000D03*
%TD*%
D24*
%TO.P,R12,1*%
%TO.N,PS2BDATA*%
X233402500Y-87630000D03*
%TO.P,R12,2*%
%TO.N,Net-(J3-Pad2)*%
X235227500Y-87630000D03*
%TD*%
D26*
%TO.P,C26,1*%
%TO.N,+3V3*%
X195707000Y-98740000D03*
%TO.P,C26,2*%
%TO.N,GND*%
X195707000Y-96840000D03*
%TD*%
D25*
%TO.P,C2,1*%
%TO.N,+1V2*%
X195834000Y-74996000D03*
%TO.P,C2,2*%
%TO.N,GND*%
X195834000Y-76896000D03*
%TD*%
D29*
%TO.P,R28,1*%
%TO.N,Net-(D4-A)*%
X159599000Y-121031000D03*
%TO.P,R28,2*%
%TO.N,+3V3*%
X157774000Y-121031000D03*
%TD*%
D30*
%TO.P,R20,1*%
%TO.N,+3V3*%
X190373000Y-89304500D03*
%TO.P,R20,2*%
%TO.N,/ICE_SCK*%
X190373000Y-87479500D03*
%TD*%
D25*
%TO.P,C18,1*%
%TO.N,+3V3*%
X185674000Y-74996000D03*
%TO.P,C18,2*%
%TO.N,GND*%
X185674000Y-76896000D03*
%TD*%
D31*
%TO.P,C1,1*%
%TO.N,+3V3*%
X187935000Y-74610000D03*
%TO.P,C1,2*%
%TO.N,GND*%
X187935000Y-77310000D03*
%TD*%
D25*
%TO.P,C21,1*%
%TO.N,Net-(U5D-VREF)*%
X226060000Y-107381000D03*
%TO.P,C21,2*%
%TO.N,+3.3VDAC*%
X226060000Y-109281000D03*
%TD*%
D26*
%TO.P,C10,1*%
%TO.N,/VCCPLL*%
X197227000Y-106929000D03*
%TO.P,C10,2*%
%TO.N,GND*%
X197227000Y-105029000D03*
%TD*%
D29*
%TO.P,R16,1*%
%TO.N,Net-(J3-Pad1)*%
X230782500Y-83185000D03*
%TO.P,R16,2*%
%TO.N,+5V*%
X228957500Y-83185000D03*
%TD*%
D25*
%TO.P,C9,1*%
%TO.N,+3V3*%
X195580000Y-90810000D03*
%TO.P,C9,2*%
%TO.N,GND*%
X195580000Y-92710000D03*
%TD*%
D32*
%TO.P,FB1,1*%
%TO.N,+3.3VDAC*%
X223952000Y-107696000D03*
%TO.P,FB1,2*%
%TO.N,+3V3*%
X220802000Y-107696000D03*
%TD*%
D29*
%TO.P,R14,1*%
%TO.N,Net-(J3-Pad2)*%
X230782500Y-87630000D03*
%TO.P,R14,2*%
%TO.N,+5V*%
X228957500Y-87630000D03*
%TD*%
D31*
%TO.P,C3,1*%
%TO.N,+1V2*%
X198095000Y-74610000D03*
%TO.P,C3,2*%
%TO.N,GND*%
X198095000Y-77310000D03*
%TD*%
D25*
%TO.P,C27,1*%
%TO.N,+3V3*%
X180340000Y-119065000D03*
%TO.P,C27,2*%
%TO.N,GND*%
X180340000Y-120965000D03*
%TD*%
D33*
%TO.P,C7,1*%
%TO.N,+3V3*%
X204150000Y-106426000D03*
%TO.P,C7,2*%
%TO.N,GND*%
X202250000Y-106426000D03*
%TD*%
D29*
%TO.P,R17,1*%
%TO.N,Net-(J3-Pad1)*%
X235227500Y-83185000D03*
%TO.P,R17,2*%
%TO.N,PS2ADATA*%
X233402500Y-83185000D03*
%TD*%
D26*
%TO.P,C23,1*%
%TO.N,+1V2*%
X203708000Y-95184000D03*
%TO.P,C23,2*%
%TO.N,GND*%
X203708000Y-93284000D03*
%TD*%
D25*
%TO.P,C28,1*%
%TO.N,+3V3*%
X178640000Y-128209000D03*
%TO.P,C28,2*%
%TO.N,GND*%
X178640000Y-130109000D03*
%TD*%
D33*
%TO.P,C20,1*%
%TO.N,Net-(U5D-COMP)*%
X225740000Y-105410000D03*
%TO.P,C20,2*%
%TO.N,+3.3VDAC*%
X223840000Y-105410000D03*
%TD*%
D26*
%TO.P,C5,1*%
%TO.N,+3V3*%
X206883000Y-98740000D03*
%TO.P,C5,2*%
%TO.N,GND*%
X206883000Y-96840000D03*
%TD*%
%TO.P,C4,1*%
%TO.N,+3V3*%
X209169000Y-98740000D03*
%TO.P,C4,2*%
%TO.N,GND*%
X209169000Y-96840000D03*
%TD*%
D34*
%TO.P,R5,1*%
%TO.N,+1V2*%
X195072000Y-101576500D03*
%TO.P,R5,2*%
%TO.N,/VCCPLL*%
X195072000Y-103401500D03*
%TD*%
D26*
%TO.P,C25,1*%
%TO.N,+3V3*%
X197866000Y-98740000D03*
%TO.P,C25,2*%
%TO.N,GND*%
X197866000Y-96840000D03*
%TD*%
%TO.P,C6,1*%
%TO.N,/VPP_2V5*%
X208407000Y-108392000D03*
%TO.P,C6,2*%
%TO.N,GND*%
X208407000Y-106492000D03*
%TD*%
D25*
%TO.P,C13,1*%
%TO.N,+1V2*%
X199390000Y-101539000D03*
%TO.P,C13,2*%
%TO.N,GND*%
X199390000Y-103439000D03*
%TD*%
D35*
%TO.P,C17,1*%
%TO.N,+5V*%
X181991000Y-79123000D03*
%TO.P,C17,2*%
%TO.N,GND*%
X181991000Y-72898000D03*
%TD*%
D33*
%TO.P,C8,1*%
%TO.N,+3V3*%
X204150000Y-108585000D03*
%TO.P,C8,2*%
%TO.N,GND*%
X202250000Y-108585000D03*
%TD*%
D26*
%TO.P,C11,1*%
%TO.N,/VCCPLL*%
X199390000Y-106929000D03*
%TO.P,C11,2*%
%TO.N,GND*%
X199390000Y-105029000D03*
%TD*%
D29*
%TO.P,R30,1*%
%TO.N,BUTTON0*%
X159154500Y-110490000D03*
%TO.P,R30,2*%
%TO.N,+3V3*%
X157329500Y-110490000D03*
%TD*%
D34*
%TO.P,R2,1*%
%TO.N,+1V2*%
X207264000Y-101576500D03*
%TO.P,R2,2*%
%TO.N,Net-(U2D-VCCPLL)*%
X207264000Y-103401500D03*
%TD*%
D36*
%TO.P,C22,1*%
%TO.N,+3.3VDAC*%
X221935000Y-109982000D03*
%TO.P,C22,2*%
%TO.N,GND*%
X223835000Y-109982000D03*
%TD*%
D29*
%TO.P,R13,1*%
%TO.N,Net-(J3-Pad6)*%
X233957500Y-92075000D03*
%TO.P,R13,2*%
%TO.N,+5V*%
X232132500Y-92075000D03*
%TD*%
D24*
%TO.P,R11,1*%
%TO.N,PS2BCLK*%
X236577500Y-91440000D03*
%TO.P,R11,2*%
%TO.N,Net-(J3-Pad6)*%
X238402500Y-91440000D03*
%TD*%
D29*
%TO.P,R27,1*%
%TO.N,Net-(D3-A)*%
X159599000Y-117602000D03*
%TO.P,R27,2*%
%TO.N,+3V3*%
X157774000Y-117602000D03*
%TD*%
D24*
%TO.P,R9,1*%
%TO.N,HSYNC*%
X241403500Y-101600000D03*
%TO.P,R9,2*%
%TO.N,Net-(J2-Pad13)*%
X243228500Y-101600000D03*
%TD*%
D25*
%TO.P,C15,1*%
%TO.N,+1V2*%
X204597000Y-101539000D03*
%TO.P,C15,2*%
%TO.N,GND*%
X204597000Y-103439000D03*
%TD*%
D29*
%TO.P,R15,1*%
%TO.N,Net-(J3-Pad5)*%
X233957500Y-78740000D03*
%TO.P,R15,2*%
%TO.N,+5V*%
X232132500Y-78740000D03*
%TD*%
%TO.P,R8,1*%
%TO.N,+3.3VDAC*%
X221892500Y-105410000D03*
%TO.P,R8,2*%
%TO.N,Net-(U5D-~{PSAVE})*%
X220067500Y-105410000D03*
%TD*%
%TO.P,R18,1*%
%TO.N,Net-(J3-Pad5)*%
X238402500Y-78740000D03*
%TO.P,R18,2*%
%TO.N,PS2ACLK*%
X236577500Y-78740000D03*
%TD*%
D24*
%TO.P,R32,1*%
%TO.N,GND*%
X217537500Y-120650000D03*
%TO.P,R32,2*%
%TO.N,Net-(R32-Pad2)*%
X219362500Y-120650000D03*
%TD*%
D29*
%TO.P,R29,1*%
%TO.N,Net-(D5-A)*%
X159599000Y-124460000D03*
%TO.P,R29,2*%
%TO.N,+3V3*%
X157774000Y-124460000D03*
%TD*%
D25*
%TO.P,C14,1*%
%TO.N,+1V2*%
X197231000Y-101539000D03*
%TO.P,C14,2*%
%TO.N,GND*%
X197231000Y-103439000D03*
%TD*%
%TO.P,C12,1*%
%TO.N,+1V2*%
X202438000Y-101539000D03*
%TO.P,C12,2*%
%TO.N,GND*%
X202438000Y-103439000D03*
%TD*%
D37*
%TO.N,GND*%
X157480000Y-97790000D03*
X170180000Y-103632000D03*
X162052000Y-103632000D03*
X224155000Y-102108000D03*
X228219000Y-110363000D03*
X228727000Y-106172000D03*
X168148000Y-103632000D03*
X196469000Y-78105000D03*
X200533000Y-92329000D03*
X201676000Y-107569000D03*
X186182000Y-77978000D03*
X218752500Y-111056500D03*
X183642000Y-73406000D03*
X200152000Y-102870000D03*
X157480000Y-100330000D03*
X203073000Y-99187000D03*
X233426000Y-110490000D03*
X233299000Y-106680000D03*
X154940000Y-95250000D03*
X185420000Y-88900000D03*
X217424000Y-106807000D03*
X157480000Y-102870000D03*
X217424000Y-105283000D03*
X228727000Y-107569000D03*
X193802000Y-73406000D03*
X158242000Y-112522000D03*
X201676000Y-102870000D03*
X196723000Y-96012000D03*
X200152000Y-99187000D03*
X154940000Y-92710000D03*
X174244000Y-103632000D03*
X221107000Y-113030000D03*
X203581000Y-102870000D03*
X202184000Y-82169000D03*
X204470000Y-92456000D03*
X191213000Y-124460000D03*
X183007000Y-72898000D03*
X222631000Y-102108000D03*
X154940000Y-97790000D03*
X216154000Y-120650000D03*
X159512000Y-103632000D03*
X195580000Y-93919000D03*
X201676000Y-99187000D03*
X166116000Y-103632000D03*
X208026000Y-96012000D03*
X222631000Y-113030000D03*
X164084000Y-103632000D03*
X203073000Y-100203000D03*
X178640000Y-131064000D03*
X185166000Y-77978000D03*
X195326000Y-78105000D03*
X233299000Y-102870000D03*
X154940000Y-100330000D03*
X199136000Y-100203000D03*
X180340000Y-124460000D03*
X172212000Y-103632000D03*
X154940000Y-90170000D03*
X193167000Y-72898000D03*
X154940000Y-102870000D03*
%TO.N,+3V3*%
X178640000Y-127254000D03*
X186537500Y-129159000D03*
X156083000Y-124460000D03*
X187833000Y-73152000D03*
X156210000Y-110490000D03*
X188722000Y-72898000D03*
X202438000Y-74930000D03*
X196723000Y-98171000D03*
X189865000Y-77978000D03*
X195580000Y-88755000D03*
X202184000Y-80010000D03*
X193167000Y-78994000D03*
X194310000Y-91760000D03*
X189611000Y-73914000D03*
X205359000Y-106807000D03*
X186817000Y-72898000D03*
X189611000Y-72009000D03*
X187833000Y-71247000D03*
X180340000Y-116840000D03*
X222377000Y-107696000D03*
X156083000Y-121031000D03*
X185420000Y-85090000D03*
X189611000Y-76708000D03*
X186817000Y-71247000D03*
X188849000Y-71247000D03*
X188976000Y-89662000D03*
X189611000Y-75565000D03*
X172339000Y-121412000D03*
X208026000Y-99060000D03*
X156146500Y-117602000D03*
X193802000Y-78486000D03*
X201803000Y-85090000D03*
X189865000Y-78867000D03*
%TO.N,+1V2*%
X193802000Y-100330000D03*
X199898000Y-75184000D03*
X199263000Y-72898000D03*
X202692000Y-94615000D03*
X208153000Y-100965000D03*
X197358000Y-72898000D03*
X198247000Y-72898000D03*
X199898000Y-77470000D03*
X199898000Y-76454000D03*
X199898000Y-73914000D03*
D38*
%TO.N,/VPP_2V5*%
X207200500Y-107124500D03*
D39*
%TO.N,+5V*%
X183642000Y-78486000D03*
X183007000Y-78994000D03*
X230251000Y-68199000D03*
X222377000Y-68199000D03*
X226314000Y-68199000D03*
D38*
%TO.N,Net-(U5D-COMP)*%
X224790000Y-105283000D03*
D37*
%TO.N,+3.3VDAC*%
X220165000Y-109982000D03*
X225806000Y-108458000D03*
D38*
%TO.N,Net-(U5D-VREF)*%
X227076000Y-104013000D03*
%TO.N,Net-(D3-A)*%
X161798000Y-117602000D03*
%TO.N,Net-(D4-A)*%
X161925000Y-121031000D03*
%TO.N,Net-(D5-A)*%
X161798000Y-124460000D03*
%TO.N,/CDONE*%
X191643000Y-101092000D03*
%TO.N,/~{CRESET_B}*%
X192278000Y-101727000D03*
%TO.N,/ICE_SS*%
X201930000Y-110998000D03*
%TO.N,/ICE_MISO*%
X204470000Y-112395000D03*
%TO.N,/ICE_MOSI*%
X204470000Y-111633000D03*
%TO.N,/FLASH_MISO*%
X191389000Y-84963000D03*
%TO.N,/ICE_SCK*%
X201930000Y-111760000D03*
X189357000Y-87503000D03*
%TO.N,Net-(U2D-VCCPLL)*%
X206121000Y-101981000D03*
%TO.N,Net-(U5D-~{PSAVE})*%
X225552000Y-102108000D03*
%TO.N,HSYNC*%
X190373000Y-102362000D03*
%TO.N,VSYNC*%
X191770000Y-102870000D03*
%TO.N,PS2BCLK*%
X235458000Y-91440000D03*
%TO.N,PS2BDATA*%
X232410000Y-87630000D03*
%TO.N,PS2ADATA*%
X232410000Y-83185000D03*
%TO.N,PS2ACLK*%
X235585000Y-78740000D03*
%TO.N,BUTTON0*%
X158242000Y-108522000D03*
%TO.N,BUZZER*%
X189611000Y-99695000D03*
%TD*%
D40*
%TO.N,GND*%
X208407000Y-106492000D02*
X208407000Y-106172000D01*
X180340000Y-120965000D02*
X180340000Y-124460000D01*
X243090669Y-113634669D02*
X242219331Y-113634669D01*
X185420000Y-87945000D02*
X185420000Y-88900000D01*
X217537500Y-120650000D02*
X216154000Y-120650000D01*
X208407000Y-106172000D02*
X205613000Y-103378000D01*
X242219331Y-113634669D02*
X241173000Y-114681000D01*
X243090669Y-106794331D02*
X243078000Y-106807000D01*
X243090669Y-104474669D02*
X243090669Y-106794331D01*
X223647000Y-110109000D02*
X223647000Y-109982000D01*
X222631000Y-113030000D02*
X222631000Y-111125000D01*
X205613000Y-103378000D02*
X204978000Y-103378000D01*
X195580000Y-93919000D02*
X195580000Y-92776000D01*
X178640000Y-130109000D02*
X178640000Y-131064000D01*
X222631000Y-111125000D02*
X223647000Y-110109000D01*
X193015000Y-74610000D02*
X193421000Y-74204000D01*
X243078000Y-106807000D02*
X243078000Y-109093000D01*
%TO.N,+3V3*%
X157840500Y-124460000D02*
X156083000Y-124460000D01*
X188976000Y-89662000D02*
X189333500Y-89304500D01*
X195580000Y-90810000D02*
X195580000Y-88755000D01*
X178640000Y-128209000D02*
X178640000Y-127254000D01*
X202438000Y-74930000D02*
X203557500Y-74930000D01*
X189333500Y-89304500D02*
X190373000Y-89304500D01*
X222377000Y-107696000D02*
X220853000Y-107696000D01*
X157329500Y-110490000D02*
X156210000Y-110490000D01*
X220853000Y-107696000D02*
X220726000Y-107569000D01*
X185420000Y-86045000D02*
X185420000Y-85090000D01*
X180340000Y-119065000D02*
X180340000Y-116840000D01*
X157774000Y-117602000D02*
X156146500Y-117602000D01*
X157710500Y-121031000D02*
X156083000Y-121031000D01*
%TO.N,+1V2*%
X207518000Y-101600000D02*
X207237500Y-101600000D01*
X193822500Y-100330000D02*
X195092500Y-101600000D01*
X193802000Y-100330000D02*
X193822500Y-100330000D01*
D41*
%TO.N,/VPP_2V5*%
X207200500Y-107124500D02*
X207200500Y-107185500D01*
X207200500Y-107124500D02*
X206121000Y-108204000D01*
X207200500Y-107185500D02*
X208407000Y-108392000D01*
X206121000Y-108204000D02*
X206121000Y-109219000D01*
D42*
%TO.N,+5V*%
X232156000Y-70104000D02*
X232156000Y-78716500D01*
X233553000Y-95250000D02*
X231902000Y-93599000D01*
X228854000Y-81915000D02*
X232029000Y-78740000D01*
X226314000Y-68199000D02*
X222377000Y-68199000D01*
X240825000Y-88490000D02*
X240825000Y-90772000D01*
X231902000Y-93599000D02*
X231902000Y-92202000D01*
X240284000Y-93726000D02*
X238760000Y-95250000D01*
X240825000Y-90772000D02*
X240284000Y-91313000D01*
X240284000Y-91313000D02*
X240284000Y-93726000D01*
X230886000Y-92075000D02*
X228854000Y-90043000D01*
X230251000Y-68199000D02*
X232156000Y-70104000D01*
X228854000Y-90043000D02*
X228854000Y-81915000D01*
X231902000Y-92202000D02*
X232029000Y-92075000D01*
X232156000Y-78716500D02*
X232132500Y-78740000D01*
X238760000Y-95250000D02*
X233553000Y-95250000D01*
X232132500Y-92075000D02*
X230886000Y-92075000D01*
X226314000Y-68199000D02*
X230124000Y-68199000D01*
D41*
%TO.N,Net-(U5D-COMP)*%
X224790000Y-105283000D02*
X225552000Y-105283000D01*
D43*
%TO.N,+3.3VDAC*%
X223647000Y-106934000D02*
X223647000Y-105918000D01*
X223865000Y-107597500D02*
X224083000Y-107379500D01*
X222123000Y-105410000D02*
X221488000Y-105410000D01*
X224092500Y-107379500D02*
X223647000Y-106934000D01*
X224155000Y-107569000D02*
X223901000Y-107569000D01*
X223865000Y-107597500D02*
X224087750Y-107374750D01*
X224087750Y-107374750D02*
X222123000Y-105410000D01*
X225806000Y-108458000D02*
X226060000Y-108712000D01*
X224083000Y-107379500D02*
X224092500Y-107379500D01*
X220165000Y-109982000D02*
X221935000Y-109982000D01*
X225806000Y-109220000D02*
X224155000Y-107569000D01*
X221607500Y-109855000D02*
X223865000Y-107597500D01*
X226060000Y-108712000D02*
X226060000Y-109281000D01*
D41*
%TO.N,Net-(U5D-VREF)*%
X226060000Y-107315000D02*
X227076000Y-106299000D01*
X226060000Y-107381000D02*
X226060000Y-107315000D01*
X227076000Y-106299000D02*
X227076000Y-104013000D01*
%TO.N,Net-(D3-A)*%
X159599000Y-117602000D02*
X161861500Y-117602000D01*
%TO.N,Net-(D4-A)*%
X159535500Y-121031000D02*
X161798000Y-121031000D01*
%TO.N,Net-(D5-A)*%
X159665500Y-124460000D02*
X161798000Y-124460000D01*
%TO.N,/CDONE*%
X191643000Y-101092000D02*
X191643000Y-96647000D01*
X210820000Y-79121000D02*
X210820000Y-83820000D01*
X186817000Y-91821000D02*
X186817000Y-86487000D01*
X210439000Y-78740000D02*
X210820000Y-79121000D01*
X210820000Y-83820000D02*
X212090000Y-85090000D01*
X208407000Y-78740000D02*
X210439000Y-78740000D01*
X191643000Y-96647000D02*
X186817000Y-91821000D01*
X192659000Y-80645000D02*
X206502000Y-80645000D01*
X186817000Y-86487000D02*
X192659000Y-80645000D01*
X206502000Y-80645000D02*
X208407000Y-78740000D01*
%TO.N,Net-(J2-Pad13)*%
X246634000Y-105005500D02*
X246634000Y-108458000D01*
X243228500Y-101600000D02*
X246634000Y-105005500D01*
X246634000Y-108458000D02*
X244983000Y-110109000D01*
%TO.N,Net-(J2-Pad14)*%
X243228500Y-118110000D02*
X243967000Y-118110000D01*
X246761000Y-114300000D02*
X245110000Y-112649000D01*
X243967000Y-118110000D02*
X246761000Y-115316000D01*
X246761000Y-115316000D02*
X246761000Y-114300000D01*
%TO.N,Net-(J3-Pad1)*%
X235227500Y-83185000D02*
X235862500Y-83820000D01*
X235862500Y-83820000D02*
X240919000Y-83820000D01*
X235227500Y-83185000D02*
X235227500Y-83542500D01*
X235227500Y-83542500D02*
X234188000Y-84582000D01*
X232156000Y-84582000D02*
X230759000Y-83185000D01*
X234188000Y-84582000D02*
X232156000Y-84582000D01*
%TO.N,Net-(J3-Pad2)*%
X235227500Y-88876500D02*
X234696000Y-89408000D01*
X232410000Y-89408000D02*
X231267000Y-88265000D01*
X234696000Y-89408000D02*
X232410000Y-89408000D01*
X235227500Y-87630000D02*
X236497500Y-86360000D01*
X235227500Y-87630000D02*
X235227500Y-88876500D01*
X236497500Y-86360000D02*
X240792000Y-86360000D01*
%TO.N,Net-(J3-Pad5)*%
X235585000Y-80264000D02*
X234061000Y-78740000D01*
X238402500Y-79224500D02*
X237363000Y-80264000D01*
X238402500Y-81383500D02*
X238125000Y-81661000D01*
X238402500Y-78740000D02*
X238402500Y-79224500D01*
X237363000Y-80264000D02*
X235585000Y-80264000D01*
X238402500Y-78740000D02*
X238402500Y-81383500D01*
%TO.N,Net-(J3-Pad6)*%
X238402500Y-92559500D02*
X237490000Y-93472000D01*
X238402500Y-91440000D02*
X238402500Y-92559500D01*
X235458000Y-93472000D02*
X234061000Y-92075000D01*
X238402500Y-88923500D02*
X237998000Y-88519000D01*
X238402500Y-91440000D02*
X238402500Y-88923500D01*
X237490000Y-93472000D02*
X235458000Y-93472000D01*
%TO.N,/~{CRESET_B}*%
X214122000Y-82042000D02*
X212090000Y-80010000D01*
X205486000Y-84074000D02*
X207899000Y-86487000D01*
X214122000Y-85471000D02*
X214122000Y-82042000D01*
X189992000Y-84074000D02*
X205486000Y-84074000D01*
X192278000Y-96012000D02*
X187325000Y-91059000D01*
X187325000Y-86741000D02*
X189992000Y-84074000D01*
X207899000Y-86487000D02*
X213106000Y-86487000D01*
X213106000Y-86487000D02*
X214122000Y-85471000D01*
X187325000Y-91059000D02*
X187325000Y-86741000D01*
X192278000Y-101727000D02*
X192278000Y-96012000D01*
%TO.N,/ICE_SS*%
X218313000Y-82677000D02*
X223520000Y-77470000D01*
X218313000Y-101727000D02*
X218313000Y-82677000D01*
X204216000Y-113030000D02*
X207010000Y-113030000D01*
X207010000Y-113030000D02*
X218313000Y-101727000D01*
X202184000Y-110998000D02*
X204216000Y-113030000D01*
X201930000Y-110998000D02*
X202184000Y-110998000D01*
%TO.N,Net-(J5-Pin_2)*%
X205382500Y-74930000D02*
X209550000Y-74930000D01*
%TO.N,/ICE_MISO*%
X217932000Y-101346000D02*
X217932000Y-91567000D01*
X206883000Y-112395000D02*
X217932000Y-101346000D01*
X217932000Y-91567000D02*
X215900000Y-89535000D01*
X204470000Y-112395000D02*
X206883000Y-112395000D01*
%TO.N,/ICE_MOSI*%
X204470000Y-111633000D02*
X206883000Y-111633000D01*
X206883000Y-111633000D02*
X217551000Y-100965000D01*
X217551000Y-100965000D02*
X217551000Y-96139000D01*
X217551000Y-96139000D02*
X213360000Y-91948000D01*
%TO.N,/FLASH_MISO*%
X205486000Y-90932000D02*
X199517000Y-84963000D01*
X214757000Y-90932000D02*
X205486000Y-90932000D01*
X199517000Y-84963000D02*
X191389000Y-84963000D01*
X215900000Y-92075000D02*
X214757000Y-90932000D01*
%TO.N,/ICE_SCK*%
X203581000Y-113411000D02*
X207391000Y-113411000D01*
X197104000Y-111760000D02*
X201930000Y-111760000D01*
X190373000Y-87479500D02*
X189380500Y-87479500D01*
X201930000Y-111760000D02*
X203581000Y-113411000D01*
X190373000Y-87479500D02*
X192913000Y-90019500D01*
X189380500Y-87479500D02*
X189357000Y-87503000D01*
X207391000Y-113411000D02*
X218694000Y-102108000D01*
X192913000Y-90019500D02*
X192913000Y-107569000D01*
X192913000Y-107569000D02*
X197104000Y-111760000D01*
X218694000Y-102108000D02*
X218694000Y-84836000D01*
X218694000Y-84836000D02*
X223520000Y-80010000D01*
%TO.N,Net-(U2D-VCCPLL)*%
X207391000Y-103251000D02*
X207391000Y-103378000D01*
X207137000Y-102997000D02*
X207137000Y-103378000D01*
X206121000Y-101981000D02*
X207391000Y-103251000D01*
%TO.N,Net-(U5D-~{PSAVE})*%
X219964000Y-105410000D02*
X221615000Y-103759000D01*
X221615000Y-103759000D02*
X223901000Y-103759000D01*
X223901000Y-103759000D02*
X225552000Y-102108000D01*
%TO.N,HSYNC*%
X247269000Y-117602000D02*
X245110000Y-119761000D01*
X242189000Y-100330000D02*
X245444000Y-100330000D01*
X241403500Y-101115500D02*
X242189000Y-100330000D01*
X197993000Y-117983000D02*
X190373000Y-110363000D01*
X241403500Y-101600000D02*
X241403500Y-101115500D01*
X247269000Y-102155000D02*
X247269000Y-117602000D01*
X245444000Y-100330000D02*
X247269000Y-102155000D01*
X190373000Y-110363000D02*
X190373000Y-102362000D01*
X245110000Y-119761000D02*
X240538000Y-119761000D01*
X238760000Y-117983000D02*
X197993000Y-117983000D01*
X240538000Y-119761000D02*
X238760000Y-117983000D01*
%TO.N,VSYNC*%
X191770000Y-102870000D02*
X191770000Y-109347000D01*
X199771000Y-117348000D02*
X240641500Y-117348000D01*
X240641500Y-117348000D02*
X241403500Y-118110000D01*
X191770000Y-109347000D02*
X199771000Y-117348000D01*
%TO.N,PS2BCLK*%
X236577500Y-91440000D02*
X235458000Y-91440000D01*
%TO.N,PS2BDATA*%
X233402500Y-87630000D02*
X232410000Y-87630000D01*
%TO.N,PS2ADATA*%
X232410000Y-83185000D02*
X233426000Y-83185000D01*
%TO.N,PS2ACLK*%
X235585000Y-78740000D02*
X236474000Y-78740000D01*
%TO.N,BUTTON0*%
X159154500Y-110490000D02*
X159154500Y-109434500D01*
X159154500Y-109434500D02*
X158242000Y-108522000D01*
%TO.N,Net-(R32-Pad2)*%
X219362500Y-120650000D02*
X222260000Y-120650000D01*
%TO.N,BUZZER*%
X197485000Y-118618000D02*
X228092000Y-118618000D01*
X189611000Y-110744000D02*
X197485000Y-118618000D01*
X228092000Y-118618000D02*
X229997000Y-120523000D01*
X189611000Y-99695000D02*
X189611000Y-110744000D01*
X229997000Y-120523000D02*
X229997000Y-120650000D01*
%TD*%
%TA.AperFunction,Conductor*%
%TO.N,+3V3*%
G36*
X210254121Y-98196502D02*
G01*
X210300614Y-98250158D01*
X210312000Y-98302500D01*
X210312000Y-99442000D01*
X210291998Y-99510121D01*
X210238342Y-99556614D01*
X210186000Y-99568000D01*
X205866000Y-99568000D01*
X205797879Y-99547998D01*
X205751386Y-99494342D01*
X205740000Y-99442000D01*
X205740000Y-98302500D01*
X205760002Y-98234379D01*
X205813658Y-98187886D01*
X205866000Y-98176500D01*
X210186000Y-98176500D01*
X210254121Y-98196502D01*
G37*
%TD.AperFunction*%
%TD*%
%TA.AperFunction,Conductor*%
%TO.N,GND*%
G36*
X194126039Y-72536685D02*
G01*
X194171794Y-72589489D01*
X194183000Y-72641000D01*
X194183000Y-75562500D01*
X194163315Y-75629539D01*
X194110511Y-75675294D01*
X194059000Y-75686500D01*
X190624000Y-75686500D01*
X190556961Y-75666815D01*
X190511206Y-75614011D01*
X190500000Y-75562500D01*
X190500000Y-72641000D01*
X190519685Y-72573961D01*
X190572489Y-72528206D01*
X190624000Y-72517000D01*
X194059000Y-72517000D01*
X194126039Y-72536685D01*
G37*
%TD.AperFunction*%
%TD*%
%TA.AperFunction,Conductor*%
%TO.N,GND*%
G36*
X188876099Y-76092685D02*
G01*
X188921854Y-76145489D01*
X188931798Y-76214647D01*
X188916448Y-76258999D01*
X188852254Y-76370187D01*
X188798601Y-76535314D01*
X188798600Y-76535317D01*
X188798600Y-76535319D01*
X188780450Y-76708000D01*
X188798600Y-76880681D01*
X188852255Y-77045815D01*
X188939071Y-77196185D01*
X189055254Y-77325219D01*
X189128965Y-77378773D01*
X189171631Y-77434103D01*
X189177610Y-77503716D01*
X189163467Y-77541091D01*
X189106254Y-77640186D01*
X189052601Y-77805314D01*
X189052600Y-77805317D01*
X189034450Y-77978000D01*
X189052600Y-78150682D01*
X189052601Y-78150685D01*
X189106255Y-78315816D01*
X189106256Y-78315818D01*
X189132053Y-78360500D01*
X189148526Y-78428401D01*
X189132053Y-78484500D01*
X189106256Y-78529181D01*
X189106255Y-78529183D01*
X189052601Y-78694314D01*
X189052600Y-78694317D01*
X189034450Y-78867000D01*
X189052600Y-79039682D01*
X189052601Y-79039685D01*
X189108263Y-79210995D01*
X189105866Y-79211773D01*
X189113646Y-79269821D01*
X189084015Y-79333096D01*
X189024878Y-79370306D01*
X188991083Y-79375000D01*
X184660500Y-79375000D01*
X184593461Y-79355315D01*
X184547706Y-79302511D01*
X184536500Y-79251000D01*
X184536500Y-76456510D01*
X184536500Y-76456500D01*
X184531356Y-76408655D01*
X184531000Y-76402023D01*
X184531000Y-76197000D01*
X184550685Y-76129961D01*
X184603489Y-76084206D01*
X184655000Y-76073000D01*
X188809060Y-76073000D01*
X188876099Y-76092685D01*
G37*
%TD.AperFunction*%
%TD*%
%TA.AperFunction,Conductor*%
%TO.N,GND*%
G36*
X210254121Y-95778002D02*
G01*
X210300614Y-95831658D01*
X210312000Y-95884000D01*
X210312000Y-97537000D01*
X210291998Y-97605121D01*
X210238342Y-97651614D01*
X210186000Y-97663000D01*
X205866000Y-97663000D01*
X205797879Y-97642998D01*
X205751386Y-97589342D01*
X205740000Y-97537000D01*
X205740000Y-95884000D01*
X205760002Y-95815879D01*
X205813658Y-95769386D01*
X205866000Y-95758000D01*
X210186000Y-95758000D01*
X210254121Y-95778002D01*
G37*
%TD.AperFunction*%
%TD*%
%TA.AperFunction,Conductor*%
%TO.N,+3V3*%
G36*
X196926830Y-97937002D02*
G01*
X196952346Y-97958690D01*
X196969391Y-97977622D01*
X196969391Y-97977621D01*
X196969397Y-97977627D01*
X196969399Y-97977629D01*
X196971088Y-97979270D01*
X196993947Y-98001486D01*
X197032504Y-98034259D01*
X197065203Y-98058495D01*
X197087447Y-98074982D01*
X197132890Y-98095735D01*
X197220393Y-98135697D01*
X197220395Y-98135697D01*
X197220396Y-98135698D01*
X197288517Y-98155700D01*
X197433186Y-98176500D01*
X197433190Y-98176500D01*
X198883000Y-98176500D01*
X198951121Y-98196502D01*
X198997614Y-98250158D01*
X199009000Y-98302500D01*
X199009000Y-99283507D01*
X198988998Y-99351628D01*
X198935342Y-99398121D01*
X198909200Y-99406753D01*
X198879350Y-99413098D01*
X198720720Y-99483725D01*
X198637848Y-99543936D01*
X198570980Y-99567794D01*
X198563787Y-99568000D01*
X194690000Y-99568000D01*
X194621879Y-99547998D01*
X194575386Y-99494342D01*
X194564000Y-99442000D01*
X194564000Y-98302500D01*
X194584002Y-98234379D01*
X194637658Y-98187886D01*
X194690000Y-98176500D01*
X196029928Y-98176500D01*
X196029930Y-98176500D01*
X196043621Y-98175586D01*
X196064074Y-98174222D01*
X196064073Y-98174222D01*
X196064074Y-98174221D01*
X196064086Y-98174221D01*
X196114241Y-98167496D01*
X196114246Y-98167495D01*
X196114247Y-98167495D01*
X196181274Y-98153913D01*
X196181275Y-98153912D01*
X196181278Y-98153912D01*
X196262408Y-98118710D01*
X196315354Y-98095737D01*
X196315356Y-98095736D01*
X196315358Y-98095735D01*
X196375802Y-98058495D01*
X196488052Y-97964911D01*
X196488054Y-97964909D01*
X196493652Y-97958692D01*
X196554097Y-97921451D01*
X196587290Y-97917000D01*
X196858709Y-97917000D01*
X196926830Y-97937002D01*
G37*
%TD.AperFunction*%
%TD*%
%TA.AperFunction,Conductor*%
%TO.N,GND*%
G36*
X200475121Y-102636002D02*
G01*
X200521614Y-102689658D01*
X200533000Y-102742000D01*
X200533000Y-105549464D01*
X200512998Y-105617585D01*
X200459342Y-105664078D01*
X200389070Y-105674181D01*
X200280000Y-105658500D01*
X200279996Y-105658500D01*
X196600500Y-105658500D01*
X196532379Y-105638498D01*
X196485886Y-105584842D01*
X196474500Y-105532500D01*
X196474500Y-103001500D01*
X196494502Y-102933379D01*
X196548158Y-102886886D01*
X196600500Y-102875500D01*
X199458928Y-102875500D01*
X199458930Y-102875500D01*
X199476990Y-102874295D01*
X199493074Y-102873222D01*
X199493073Y-102873222D01*
X199493074Y-102873221D01*
X199493086Y-102873221D01*
X199543241Y-102866496D01*
X199543246Y-102866495D01*
X199543247Y-102866495D01*
X199610274Y-102852913D01*
X199610275Y-102852912D01*
X199610278Y-102852912D01*
X199697061Y-102815257D01*
X199744354Y-102794737D01*
X199744356Y-102794736D01*
X199754137Y-102788710D01*
X199804802Y-102757495D01*
X199917052Y-102663911D01*
X199917054Y-102663909D01*
X199922652Y-102657692D01*
X199983097Y-102620451D01*
X200016290Y-102616000D01*
X200407000Y-102616000D01*
X200475121Y-102636002D01*
G37*
%TD.AperFunction*%
%TD*%
%TA.AperFunction,Conductor*%
%TO.N,GND*%
G36*
X204920121Y-92095002D02*
G01*
X204966614Y-92148658D01*
X204978000Y-92201000D01*
X204978000Y-93721500D01*
X204957998Y-93789621D01*
X204904342Y-93836114D01*
X204852000Y-93847500D01*
X203025748Y-93847500D01*
X202974499Y-93836607D01*
X202948654Y-93825100D01*
X202778816Y-93789000D01*
X202605184Y-93789000D01*
X202435345Y-93825100D01*
X202409501Y-93836607D01*
X202358252Y-93847500D01*
X200405000Y-93847500D01*
X200336879Y-93827498D01*
X200290386Y-93773842D01*
X200279000Y-93721500D01*
X200279000Y-92201000D01*
X200299002Y-92132879D01*
X200352658Y-92086386D01*
X200405000Y-92075000D01*
X204852000Y-92075000D01*
X204920121Y-92095002D01*
G37*
%TD.AperFunction*%
%TD*%
%TA.AperFunction,Conductor*%
%TO.N,+5V*%
G36*
X183966039Y-76352185D02*
G01*
X184011794Y-76404989D01*
X184023000Y-76456500D01*
X184023000Y-81156000D01*
X184003315Y-81223039D01*
X183950511Y-81268794D01*
X183899000Y-81280000D01*
X178940000Y-81280000D01*
X178872961Y-81260315D01*
X178827206Y-81207511D01*
X178816000Y-81156000D01*
X178816000Y-76456500D01*
X178835685Y-76389461D01*
X178888489Y-76343706D01*
X178940000Y-76332500D01*
X183899000Y-76332500D01*
X183966039Y-76352185D01*
G37*
%TD.AperFunction*%
%TD*%
%TA.AperFunction,Conductor*%
%TO.N,+3V3*%
G36*
X189173039Y-72536685D02*
G01*
X189218794Y-72589489D01*
X189230000Y-72641000D01*
X189230000Y-75502589D01*
X189210315Y-75569628D01*
X189157511Y-75615383D01*
X189088353Y-75625327D01*
X189054488Y-75615383D01*
X189020779Y-75599988D01*
X189020774Y-75599986D01*
X189020773Y-75599986D01*
X188998172Y-75593349D01*
X188953739Y-75580302D01*
X188953733Y-75580300D01*
X188866928Y-75567820D01*
X188809060Y-75559500D01*
X184660500Y-75559500D01*
X184593461Y-75539815D01*
X184547706Y-75487011D01*
X184536500Y-75435500D01*
X184536500Y-72641000D01*
X184556185Y-72573961D01*
X184608989Y-72528206D01*
X184660500Y-72517000D01*
X189106000Y-72517000D01*
X189173039Y-72536685D01*
G37*
%TD.AperFunction*%
%TD*%
%TA.AperFunction,Conductor*%
%TO.N,+1V2*%
G36*
X198493935Y-100731002D02*
G01*
X198519448Y-100752688D01*
X198548235Y-100784658D01*
X198580254Y-100820219D01*
X198720720Y-100922274D01*
X198720722Y-100922275D01*
X198720725Y-100922277D01*
X198879346Y-100992900D01*
X199049184Y-101029000D01*
X199222816Y-101029000D01*
X199392654Y-100992900D01*
X199551275Y-100922277D01*
X199691746Y-100820219D01*
X199752550Y-100752689D01*
X199812995Y-100715450D01*
X199846186Y-100711000D01*
X200280000Y-100711000D01*
X200348121Y-100731002D01*
X200394614Y-100784658D01*
X200406000Y-100837000D01*
X200406000Y-101923938D01*
X200385998Y-101992059D01*
X200332342Y-102038552D01*
X200262068Y-102048656D01*
X200253807Y-102047185D01*
X200238820Y-102044000D01*
X200238816Y-102044000D01*
X200065184Y-102044000D01*
X199895345Y-102080100D01*
X199736720Y-102150725D01*
X199596254Y-102252780D01*
X199573982Y-102277516D01*
X199535449Y-102320310D01*
X199475005Y-102357550D01*
X199441814Y-102362000D01*
X194309000Y-102362000D01*
X194240879Y-102341998D01*
X194194386Y-102288342D01*
X194183000Y-102236000D01*
X194183000Y-100837000D01*
X194203002Y-100768879D01*
X194256658Y-100722386D01*
X194309000Y-100711000D01*
X198425814Y-100711000D01*
X198493935Y-100731002D01*
G37*
%TD.AperFunction*%
%TD*%
%TA.AperFunction,Conductor*%
%TO.N,GND*%
G36*
X183966039Y-70758685D02*
G01*
X184011794Y-70811489D01*
X184023000Y-70863000D01*
X184023000Y-75695000D01*
X184003315Y-75762039D01*
X183950511Y-75807794D01*
X183899000Y-75819000D01*
X178940000Y-75819000D01*
X178872961Y-75799315D01*
X178827206Y-75746511D01*
X178816000Y-75695000D01*
X178816000Y-70863000D01*
X178835685Y-70795961D01*
X178888489Y-70750206D01*
X178940000Y-70739000D01*
X183899000Y-70739000D01*
X183966039Y-70758685D01*
G37*
%TD.AperFunction*%
%TD*%
%TA.AperFunction,Conductor*%
%TO.N,GND*%
G36*
X198951121Y-95778002D02*
G01*
X198997614Y-95831658D01*
X199009000Y-95884000D01*
X199009000Y-97537000D01*
X198988998Y-97605121D01*
X198935342Y-97651614D01*
X198883000Y-97663000D01*
X197433186Y-97663000D01*
X197365065Y-97642998D01*
X197339551Y-97621311D01*
X197278746Y-97553781D01*
X197255649Y-97537000D01*
X197138279Y-97451725D01*
X196979654Y-97381100D01*
X196809816Y-97345000D01*
X196636184Y-97345000D01*
X196466345Y-97381100D01*
X196307720Y-97451725D01*
X196167254Y-97553780D01*
X196135235Y-97589342D01*
X196106449Y-97621310D01*
X196046005Y-97658550D01*
X196012814Y-97663000D01*
X194690000Y-97663000D01*
X194621879Y-97642998D01*
X194575386Y-97589342D01*
X194564000Y-97537000D01*
X194564000Y-95884000D01*
X194584002Y-95815879D01*
X194637658Y-95769386D01*
X194690000Y-95758000D01*
X198883000Y-95758000D01*
X198951121Y-95778002D01*
G37*
%TD.AperFunction*%
%TD*%
%TA.AperFunction,Conductor*%
%TO.N,GND*%
G36*
X201879830Y-102636002D02*
G01*
X201905346Y-102657690D01*
X201922391Y-102676622D01*
X201922391Y-102676621D01*
X201946947Y-102700486D01*
X201985504Y-102733259D01*
X202018203Y-102757495D01*
X202040447Y-102773982D01*
X202085890Y-102794735D01*
X202173393Y-102834697D01*
X202173395Y-102834697D01*
X202173396Y-102834698D01*
X202241517Y-102854700D01*
X202386186Y-102875500D01*
X202386190Y-102875500D01*
X202887928Y-102875500D01*
X202887930Y-102875500D01*
X202906005Y-102874294D01*
X202922074Y-102873222D01*
X202922073Y-102873222D01*
X202922074Y-102873221D01*
X202922086Y-102873221D01*
X202972241Y-102866496D01*
X202972246Y-102866495D01*
X202972247Y-102866495D01*
X203039274Y-102852913D01*
X203039275Y-102852912D01*
X203039278Y-102852912D01*
X203126061Y-102815257D01*
X203173354Y-102794737D01*
X203173356Y-102794736D01*
X203173358Y-102794735D01*
X203233802Y-102757495D01*
X203346052Y-102663911D01*
X203346054Y-102663909D01*
X203351652Y-102657692D01*
X203412097Y-102620451D01*
X203445290Y-102616000D01*
X203716709Y-102616000D01*
X203784830Y-102636002D01*
X203810346Y-102657690D01*
X203827391Y-102676622D01*
X203827391Y-102676621D01*
X203851947Y-102700486D01*
X203890504Y-102733259D01*
X203923203Y-102757495D01*
X203945447Y-102773982D01*
X203990890Y-102794735D01*
X204078393Y-102834697D01*
X204078395Y-102834697D01*
X204078396Y-102834698D01*
X204146517Y-102854700D01*
X204291186Y-102875500D01*
X204291190Y-102875500D01*
X205281345Y-102875500D01*
X205281347Y-102875500D01*
X205306204Y-102874295D01*
X205306209Y-102874294D01*
X205306219Y-102874294D01*
X205323994Y-102872565D01*
X205342855Y-102870732D01*
X205392060Y-102863529D01*
X205445385Y-102844869D01*
X205516288Y-102841250D01*
X205577894Y-102876539D01*
X205610641Y-102939532D01*
X205613000Y-102963799D01*
X205613000Y-104141000D01*
X205592998Y-104209121D01*
X205539342Y-104255614D01*
X205487000Y-104267000D01*
X201548000Y-104267000D01*
X201479879Y-104246998D01*
X201433386Y-104193342D01*
X201422000Y-104141000D01*
X201422000Y-102742000D01*
X201442002Y-102673879D01*
X201495658Y-102627386D01*
X201548000Y-102616000D01*
X201811709Y-102616000D01*
X201879830Y-102636002D01*
G37*
%TD.AperFunction*%
%TD*%
%TA.AperFunction,Conductor*%
%TO.N,+1V2*%
G36*
X200603039Y-72536685D02*
G01*
X200648794Y-72589489D01*
X200660000Y-72641000D01*
X200660000Y-75695000D01*
X200640315Y-75762039D01*
X200587511Y-75807794D01*
X200536000Y-75819000D01*
X199383460Y-75819000D01*
X199316421Y-75799315D01*
X199302256Y-75788712D01*
X199301091Y-75787702D01*
X199301089Y-75787701D01*
X199168147Y-75726987D01*
X199101110Y-75707302D01*
X199101104Y-75707300D01*
X199014299Y-75694820D01*
X198956431Y-75686500D01*
X194820500Y-75686500D01*
X194753461Y-75666815D01*
X194707706Y-75614011D01*
X194696500Y-75562500D01*
X194696500Y-72641000D01*
X194716185Y-72573961D01*
X194768989Y-72528206D01*
X194820500Y-72517000D01*
X200536000Y-72517000D01*
X200603039Y-72536685D01*
G37*
%TD.AperFunction*%
%TD*%
%TA.AperFunction,Conductor*%
%TO.N,GND*%
G36*
X199023470Y-76219685D02*
G01*
X199069225Y-76272489D01*
X199079751Y-76336960D01*
X199067450Y-76454000D01*
X199085600Y-76626681D01*
X199139255Y-76791815D01*
X199194134Y-76886869D01*
X199201716Y-76900001D01*
X199218188Y-76967901D01*
X199201716Y-77023999D01*
X199139254Y-77132187D01*
X199085601Y-77297314D01*
X199085600Y-77297317D01*
X199085600Y-77297319D01*
X199067450Y-77470000D01*
X199085600Y-77642681D01*
X199139255Y-77807815D01*
X199226071Y-77958185D01*
X199342254Y-78087219D01*
X199347084Y-78091568D01*
X199345487Y-78093341D01*
X199381540Y-78140072D01*
X199390000Y-78185089D01*
X199390000Y-79378000D01*
X199370315Y-79445039D01*
X199317511Y-79490794D01*
X199266000Y-79502000D01*
X194820500Y-79502000D01*
X194753461Y-79482315D01*
X194707706Y-79429511D01*
X194696500Y-79378000D01*
X194696500Y-76324000D01*
X194716185Y-76256961D01*
X194768989Y-76211206D01*
X194820500Y-76200000D01*
X198956431Y-76200000D01*
X199023470Y-76219685D01*
G37*
%TD.AperFunction*%
%TD*%
%TA.AperFunction,Conductor*%
%TO.N,/VCCPLL*%
G36*
X195903121Y-102895502D02*
G01*
X195949614Y-102949158D01*
X195961000Y-103001500D01*
X195961000Y-106172000D01*
X200280000Y-106172000D01*
X200348121Y-106192002D01*
X200394614Y-106245658D01*
X200406000Y-106298000D01*
X200406000Y-107570000D01*
X200385998Y-107638121D01*
X200332342Y-107684614D01*
X200280000Y-107696000D01*
X194309000Y-107696000D01*
X194240879Y-107675998D01*
X194194386Y-107622342D01*
X194183000Y-107570000D01*
X194183000Y-103001500D01*
X194203002Y-102933379D01*
X194256658Y-102886886D01*
X194309000Y-102875500D01*
X195835000Y-102875500D01*
X195903121Y-102895502D01*
G37*
%TD.AperFunction*%
%TD*%
%TA.AperFunction,Conductor*%
%TO.N,+1V2*%
G36*
X202430935Y-100731002D02*
G01*
X202456448Y-100752688D01*
X202474121Y-100772315D01*
X202517254Y-100820219D01*
X202657720Y-100922274D01*
X202657722Y-100922275D01*
X202657725Y-100922277D01*
X202816346Y-100992900D01*
X202986184Y-101029000D01*
X203159816Y-101029000D01*
X203329654Y-100992900D01*
X203488275Y-100922277D01*
X203628746Y-100820219D01*
X203689550Y-100752689D01*
X203749995Y-100715450D01*
X203783186Y-100711000D01*
X208408000Y-100711000D01*
X208476121Y-100731002D01*
X208522614Y-100784658D01*
X208534000Y-100837000D01*
X208534000Y-102236000D01*
X208513998Y-102304121D01*
X208460342Y-102350614D01*
X208408000Y-102362000D01*
X207408023Y-102362000D01*
X207339902Y-102341998D01*
X207318928Y-102325096D01*
X206908517Y-101914686D01*
X206874492Y-101852373D01*
X206872404Y-101839695D01*
X206869088Y-101810261D01*
X206869087Y-101810259D01*
X206869087Y-101810254D01*
X206812336Y-101648070D01*
X206812334Y-101648067D01*
X206812334Y-101648066D01*
X206720920Y-101502582D01*
X206720919Y-101502580D01*
X206599419Y-101381080D01*
X206599417Y-101381079D01*
X206453933Y-101289665D01*
X206453930Y-101289664D01*
X206291746Y-101232913D01*
X206291744Y-101232912D01*
X206291746Y-101232912D01*
X206121000Y-101213675D01*
X205950255Y-101232912D01*
X205788069Y-101289664D01*
X205788066Y-101289665D01*
X205642582Y-101381079D01*
X205642580Y-101381080D01*
X205521080Y-101502580D01*
X205521079Y-101502582D01*
X205429665Y-101648066D01*
X205429664Y-101648069D01*
X205372912Y-101810255D01*
X205353675Y-101981000D01*
X205372912Y-102151744D01*
X205387833Y-102194385D01*
X205391452Y-102265289D01*
X205356163Y-102326895D01*
X205293170Y-102359641D01*
X205268904Y-102362000D01*
X204291186Y-102362000D01*
X204223065Y-102341998D01*
X204197551Y-102320311D01*
X204136746Y-102252781D01*
X204113649Y-102236000D01*
X203996279Y-102150725D01*
X203837654Y-102080100D01*
X203667816Y-102044000D01*
X203494184Y-102044000D01*
X203324345Y-102080100D01*
X203165720Y-102150725D01*
X203025254Y-102252780D01*
X202986795Y-102295492D01*
X202964449Y-102320310D01*
X202904005Y-102357550D01*
X202870814Y-102362000D01*
X202386186Y-102362000D01*
X202318065Y-102341998D01*
X202292551Y-102320311D01*
X202231746Y-102252781D01*
X202208649Y-102236000D01*
X202091279Y-102150725D01*
X201932654Y-102080100D01*
X201762816Y-102044000D01*
X201589184Y-102044000D01*
X201589180Y-102044000D01*
X201574193Y-102047185D01*
X201503402Y-102041781D01*
X201446771Y-101998963D01*
X201422279Y-101932324D01*
X201422000Y-101923938D01*
X201422000Y-100837000D01*
X201442002Y-100768879D01*
X201495658Y-100722386D01*
X201548000Y-100711000D01*
X202362814Y-100711000D01*
X202430935Y-100731002D01*
G37*
%TD.AperFunction*%
%TD*%
%TA.AperFunction,Conductor*%
%TO.N,+3V3*%
G36*
X194126039Y-76219685D02*
G01*
X194171794Y-76272489D01*
X194183000Y-76324000D01*
X194183000Y-79378000D01*
X194163315Y-79445039D01*
X194110511Y-79490794D01*
X194059000Y-79502000D01*
X190624000Y-79502000D01*
X190556961Y-79482315D01*
X190511206Y-79429511D01*
X190500000Y-79378000D01*
X190500000Y-76324000D01*
X190519685Y-76256961D01*
X190572489Y-76211206D01*
X190624000Y-76200000D01*
X194059000Y-76200000D01*
X194126039Y-76219685D01*
G37*
%TD.AperFunction*%
%TD*%
%TA.AperFunction,Conductor*%
%TO.N,GND*%
G36*
X202755621Y-105303002D02*
G01*
X202802114Y-105356658D01*
X202813500Y-105409000D01*
X202813500Y-109475009D01*
X202825595Y-109587503D01*
X202824147Y-109587658D01*
X202815985Y-109652352D01*
X202770427Y-109706804D01*
X202702662Y-109727981D01*
X202700483Y-109728000D01*
X201421000Y-109728000D01*
X201352879Y-109707998D01*
X201306386Y-109654342D01*
X201295000Y-109602000D01*
X201295000Y-105409000D01*
X201315002Y-105340879D01*
X201368658Y-105294386D01*
X201421000Y-105283000D01*
X202687500Y-105283000D01*
X202755621Y-105303002D01*
G37*
%TD.AperFunction*%
%TD*%
%TA.AperFunction,Conductor*%
%TO.N,+3V3*%
G36*
X206590297Y-105303002D02*
G01*
X206611271Y-105319905D01*
X206973095Y-105681729D01*
X207007121Y-105744041D01*
X207010000Y-105770824D01*
X207010000Y-106293923D01*
X206989998Y-106362044D01*
X206936342Y-106408537D01*
X206925617Y-106412852D01*
X206867565Y-106433165D01*
X206722082Y-106524579D01*
X206722080Y-106524580D01*
X206600580Y-106646080D01*
X206600579Y-106646082D01*
X206509165Y-106791566D01*
X206509164Y-106791569D01*
X206452413Y-106953751D01*
X206452412Y-106953757D01*
X206449094Y-106983202D01*
X206421589Y-107048654D01*
X206412983Y-107058185D01*
X206066071Y-107405096D01*
X206003761Y-107439120D01*
X205976978Y-107442000D01*
X204978000Y-107442000D01*
X204978000Y-109475000D01*
X204957998Y-109543121D01*
X204904342Y-109589614D01*
X204852000Y-109601000D01*
X203453000Y-109601000D01*
X203384879Y-109580998D01*
X203338386Y-109527342D01*
X203327000Y-109475000D01*
X203327000Y-105409000D01*
X203347002Y-105340879D01*
X203400658Y-105294386D01*
X203453000Y-105283000D01*
X206522176Y-105283000D01*
X206590297Y-105303002D01*
G37*
%TD.AperFunction*%
%TD*%
%TA.AperFunction,Conductor*%
%TO.N,+1V2*%
G36*
X204920121Y-94381002D02*
G01*
X204966614Y-94434658D01*
X204978000Y-94487000D01*
X204978000Y-95886000D01*
X204957998Y-95954121D01*
X204904342Y-96000614D01*
X204852000Y-96012000D01*
X200405000Y-96012000D01*
X200336879Y-95991998D01*
X200290386Y-95938342D01*
X200279000Y-95886000D01*
X200279000Y-94487000D01*
X200299002Y-94418879D01*
X200352658Y-94372386D01*
X200405000Y-94361000D01*
X204852000Y-94361000D01*
X204920121Y-94381002D01*
G37*
%TD.AperFunction*%
%TD*%
M02*
