%TF.GenerationSoftware,KiCad,Pcbnew,7.0.9-7.0.9~ubuntu20.04.1*%
%TF.CreationDate,2024-02-02T11:04:46+00:00*%
%TF.ProjectId,ICE40UPDevBoard,49434534-3055-4504-9465-76426f617264,rev?*%
%TF.SameCoordinates,Original*%
%TF.FileFunction,Soldermask,Top*%
%TF.FilePolarity,Negative*%
%FSLAX46Y46*%
G04 Gerber Fmt 4.6, Leading zero omitted, Abs format (unit mm)*
G04 Created by KiCad (PCBNEW 7.0.9-7.0.9~ubuntu20.04.1) date 2024-02-02 11:04:46*
%MOMM*%
%LPD*%
G01*
G04 APERTURE LIST*
G04 Aperture macros list*
%AMRoundRect*
0 Rectangle with rounded corners*
0 $1 Rounding radius*
0 $2 $3 $4 $5 $6 $7 $8 $9 X,Y pos of 4 corners*
0 Add a 4 corners polygon primitive as box body*
4,1,4,$2,$3,$4,$5,$6,$7,$8,$9,$2,$3,0*
0 Add four circle primitives for the rounded corners*
1,1,$1+$1,$2,$3*
1,1,$1+$1,$4,$5*
1,1,$1+$1,$6,$7*
1,1,$1+$1,$8,$9*
0 Add four rect primitives between the rounded corners*
20,1,$1+$1,$2,$3,$4,$5,0*
20,1,$1+$1,$4,$5,$6,$7,0*
20,1,$1+$1,$6,$7,$8,$9,0*
20,1,$1+$1,$8,$9,$2,$3,0*%
G04 Aperture macros list end*
%ADD10R,2.800000X1.000000*%
%ADD11RoundRect,0.150000X-0.675000X-0.150000X0.675000X-0.150000X0.675000X0.150000X-0.675000X0.150000X0*%
%ADD12C,4.300000*%
%ADD13R,1.700000X1.700000*%
%ADD14O,1.700000X1.700000*%
%ADD15RoundRect,0.250000X0.375000X1.075000X-0.375000X1.075000X-0.375000X-1.075000X0.375000X-1.075000X0*%
%ADD16RoundRect,0.250000X0.450000X-0.262500X0.450000X0.262500X-0.450000X0.262500X-0.450000X-0.262500X0*%
%ADD17RoundRect,0.250000X-0.262500X-0.450000X0.262500X-0.450000X0.262500X0.450000X-0.262500X0.450000X0*%
%ADD18RoundRect,0.250000X-1.250000X-0.550000X1.250000X-0.550000X1.250000X0.550000X-1.250000X0.550000X0*%
%ADD19R,2.300000X1.500000*%
%ADD20O,2.300000X1.500000*%
%ADD21RoundRect,0.250000X-0.375000X-1.075000X0.375000X-1.075000X0.375000X1.075000X-0.375000X1.075000X0*%
%ADD22R,2.900000X5.400000*%
%ADD23R,1.600000X1.600000*%
%ADD24C,1.600000*%
%ADD25O,3.500000X2.000000*%
%ADD26O,2.000000X4.000000*%
%ADD27R,2.000000X1.500000*%
%ADD28R,2.000000X3.800000*%
%ADD29RoundRect,0.250000X0.262500X0.450000X-0.262500X0.450000X-0.262500X-0.450000X0.262500X-0.450000X0*%
%ADD30R,1.600000X1.500000*%
%ADD31R,3.300000X3.500000*%
%ADD32C,10.200000*%
%ADD33R,2.000000X2.000000*%
%ADD34C,2.000000*%
%ADD35R,3.500000X3.500000*%
%ADD36RoundRect,0.750000X-0.750000X-1.000000X0.750000X-1.000000X0.750000X1.000000X-0.750000X1.000000X0*%
%ADD37RoundRect,0.875000X-0.875000X-0.875000X0.875000X-0.875000X0.875000X0.875000X-0.875000X0.875000X0*%
%ADD38RoundRect,0.062500X-0.375000X-0.062500X0.375000X-0.062500X0.375000X0.062500X-0.375000X0.062500X0*%
%ADD39RoundRect,0.062500X-0.062500X-0.375000X0.062500X-0.375000X0.062500X0.375000X-0.062500X0.375000X0*%
%ADD40R,5.600000X5.600000*%
%ADD41RoundRect,0.150000X-0.875000X-0.150000X0.875000X-0.150000X0.875000X0.150000X-0.875000X0.150000X0*%
%ADD42RoundRect,0.075000X-0.662500X-0.075000X0.662500X-0.075000X0.662500X0.075000X-0.662500X0.075000X0*%
%ADD43RoundRect,0.075000X-0.075000X-0.662500X0.075000X-0.662500X0.075000X0.662500X-0.075000X0.662500X0*%
%ADD44RoundRect,0.250000X-0.475000X0.250000X-0.475000X-0.250000X0.475000X-0.250000X0.475000X0.250000X0*%
%ADD45RoundRect,0.250000X0.250000X0.475000X-0.250000X0.475000X-0.250000X-0.475000X0.250000X-0.475000X0*%
%ADD46C,4.000000*%
%ADD47RoundRect,0.250000X-0.450000X0.262500X-0.450000X-0.262500X0.450000X-0.262500X0.450000X0.262500X0*%
%ADD48RoundRect,0.250000X1.500000X0.550000X-1.500000X0.550000X-1.500000X-0.550000X1.500000X-0.550000X0*%
%ADD49RoundRect,0.150000X-0.825000X-0.150000X0.825000X-0.150000X0.825000X0.150000X-0.825000X0.150000X0*%
G04 APERTURE END LIST*
D10*
%TO.C,SW1*%
X155342000Y-108490000D03*
X161142000Y-108490000D03*
X155342000Y-112490000D03*
X161142000Y-112490000D03*
%TD*%
D11*
%TO.C,U6*%
X182795000Y-85090000D03*
X182795000Y-86360000D03*
X182795000Y-87630000D03*
X182795000Y-88900000D03*
X188045000Y-88900000D03*
X188045000Y-87630000D03*
X188045000Y-86360000D03*
X188045000Y-85090000D03*
%TD*%
D12*
%TO.C,H3*%
X156210000Y-130810000D03*
%TD*%
D13*
%TO.C,J4*%
X212090000Y-80010000D03*
D14*
X209550000Y-80010000D03*
%TD*%
D15*
%TO.C,D2*%
X205870000Y-85090000D03*
X203070000Y-85090000D03*
%TD*%
D16*
%TO.C,R26*%
X172290000Y-120292500D03*
X172290000Y-118467500D03*
%TD*%
D13*
%TO.C,J7*%
X223520000Y-87630000D03*
D14*
X223520000Y-85090000D03*
X223520000Y-82550000D03*
X223520000Y-80010000D03*
X223520000Y-77470000D03*
X223520000Y-74930000D03*
%TD*%
D17*
%TO.C,R6*%
X230227500Y-106680000D03*
X232052500Y-106680000D03*
%TD*%
D18*
%TO.C,C32*%
X169250000Y-98425000D03*
X173650000Y-98425000D03*
%TD*%
D13*
%TO.C,J8*%
X182880000Y-96520000D03*
D14*
X182880000Y-99060000D03*
X182880000Y-101600000D03*
X182880000Y-104140000D03*
X182880000Y-106680000D03*
X182880000Y-109220000D03*
X182880000Y-111760000D03*
%TD*%
D19*
%TO.C,U8*%
X170419500Y-86360000D03*
D20*
X170419500Y-88900000D03*
X170419500Y-91440000D03*
%TD*%
D13*
%TO.C,J5*%
X212095000Y-74930000D03*
D14*
X209555000Y-74930000D03*
%TD*%
D21*
%TO.C,D3*%
X157286500Y-117602000D03*
X160086500Y-117602000D03*
%TD*%
D17*
%TO.C,R7*%
X230227500Y-110490000D03*
X232052500Y-110490000D03*
%TD*%
D12*
%TO.C,H2*%
X156210000Y-71120000D03*
%TD*%
D22*
%TO.C,L1*%
X163960000Y-73152000D03*
X173860000Y-73152000D03*
%TD*%
D23*
%TO.C,J3*%
X240825000Y-83790000D03*
D24*
X240825000Y-86390000D03*
X240825000Y-81690000D03*
X240825000Y-88490000D03*
X238025000Y-81690000D03*
X238025000Y-88490000D03*
D25*
X243675000Y-91940000D03*
D26*
X244475000Y-85090000D03*
D25*
X243675000Y-78240000D03*
%TD*%
D27*
%TO.C,U4*%
X181610000Y-73660000D03*
X181610000Y-75960000D03*
D28*
X187910000Y-75960000D03*
D27*
X181610000Y-78260000D03*
%TD*%
D29*
%TO.C,R24*%
X186537500Y-127889000D03*
X184712500Y-127889000D03*
%TD*%
%TO.C,R19*%
X205255500Y-82169000D03*
X203430500Y-82169000D03*
%TD*%
D30*
%TO.C,X1*%
X194310000Y-92860000D03*
X196850000Y-92860000D03*
X196850000Y-90660000D03*
X194310000Y-90660000D03*
%TD*%
D29*
%TO.C,R25*%
X186537500Y-130429000D03*
X184712500Y-130429000D03*
%TD*%
D31*
%TO.C,BT1*%
X197690000Y-132360000D03*
X197690000Y-116560000D03*
D32*
X197690000Y-124460000D03*
%TD*%
D33*
%TO.C,SP1*%
X222270000Y-120650000D03*
D34*
X229870000Y-120650000D03*
%TD*%
D35*
%TO.C,CON2*%
X161956000Y-85021500D03*
D36*
X155956000Y-85021500D03*
D37*
X158956000Y-89721500D03*
%TD*%
D21*
%TO.C,D4*%
X157286500Y-121031000D03*
X160086500Y-121031000D03*
%TD*%
D27*
%TO.C,U1*%
X191770000Y-73660000D03*
X191770000Y-75960000D03*
D28*
X198070000Y-75960000D03*
D27*
X191770000Y-78260000D03*
%TD*%
D16*
%TO.C,R4*%
X228092000Y-102766500D03*
X228092000Y-100941500D03*
%TD*%
D12*
%TO.C,H1*%
X243840000Y-71120000D03*
%TD*%
D16*
%TO.C,R23*%
X182880000Y-82827500D03*
X182880000Y-81002500D03*
%TD*%
D38*
%TO.C,U2*%
X197792500Y-98280000D03*
X197792500Y-98780000D03*
X197792500Y-99280000D03*
X197792500Y-99780000D03*
X197792500Y-100280000D03*
X197792500Y-100780000D03*
X197792500Y-101280000D03*
X197792500Y-101780000D03*
X197792500Y-102280000D03*
X197792500Y-102780000D03*
X197792500Y-103280000D03*
X197792500Y-103780000D03*
D39*
X198480000Y-104467500D03*
X198980000Y-104467500D03*
X199480000Y-104467500D03*
X199980000Y-104467500D03*
X200480000Y-104467500D03*
X200980000Y-104467500D03*
X201480000Y-104467500D03*
X201980000Y-104467500D03*
X202480000Y-104467500D03*
X202980000Y-104467500D03*
X203480000Y-104467500D03*
X203980000Y-104467500D03*
D38*
X204667500Y-103780000D03*
X204667500Y-103280000D03*
X204667500Y-102780000D03*
X204667500Y-102280000D03*
X204667500Y-101780000D03*
X204667500Y-101280000D03*
X204667500Y-100780000D03*
X204667500Y-100280000D03*
X204667500Y-99780000D03*
X204667500Y-99280000D03*
X204667500Y-98780000D03*
X204667500Y-98280000D03*
D39*
X203980000Y-97592500D03*
X203480000Y-97592500D03*
X202980000Y-97592500D03*
X202480000Y-97592500D03*
X201980000Y-97592500D03*
X201480000Y-97592500D03*
X200980000Y-97592500D03*
X200480000Y-97592500D03*
X199980000Y-97592500D03*
X199480000Y-97592500D03*
X198980000Y-97592500D03*
X198480000Y-97592500D03*
D40*
X201230000Y-101030000D03*
%TD*%
D12*
%TO.C,H4*%
X243840000Y-130810000D03*
%TD*%
D41*
%TO.C,U3*%
X175690000Y-115570000D03*
X175690000Y-116840000D03*
X175690000Y-118110000D03*
X175690000Y-119380000D03*
X175690000Y-120650000D03*
X175690000Y-121920000D03*
X175690000Y-123190000D03*
X175690000Y-124460000D03*
X184990000Y-124460000D03*
X184990000Y-123190000D03*
X184990000Y-121920000D03*
X184990000Y-120650000D03*
X184990000Y-119380000D03*
X184990000Y-118110000D03*
X184990000Y-116840000D03*
X184990000Y-115570000D03*
%TD*%
D42*
%TO.C,U5*%
X218752500Y-104847500D03*
X218752500Y-105347500D03*
X218752500Y-105847500D03*
X218752500Y-106347500D03*
X218752500Y-106847500D03*
X218752500Y-107347500D03*
X218752500Y-107847500D03*
X218752500Y-108347500D03*
X218752500Y-108847500D03*
X218752500Y-109347500D03*
X218752500Y-109847500D03*
X218752500Y-110347500D03*
D43*
X220165000Y-111760000D03*
X220665000Y-111760000D03*
X221165000Y-111760000D03*
X221665000Y-111760000D03*
X222165000Y-111760000D03*
X222665000Y-111760000D03*
X223165000Y-111760000D03*
X223665000Y-111760000D03*
X224165000Y-111760000D03*
X224665000Y-111760000D03*
X225165000Y-111760000D03*
X225665000Y-111760000D03*
D42*
X227077500Y-110347500D03*
X227077500Y-109847500D03*
X227077500Y-109347500D03*
X227077500Y-108847500D03*
X227077500Y-108347500D03*
X227077500Y-107847500D03*
X227077500Y-107347500D03*
X227077500Y-106847500D03*
X227077500Y-106347500D03*
X227077500Y-105847500D03*
X227077500Y-105347500D03*
X227077500Y-104847500D03*
D43*
X225665000Y-103435000D03*
X225165000Y-103435000D03*
X224665000Y-103435000D03*
X224165000Y-103435000D03*
X223665000Y-103435000D03*
X223165000Y-103435000D03*
X222665000Y-103435000D03*
X222165000Y-103435000D03*
X221665000Y-103435000D03*
X221165000Y-103435000D03*
X220665000Y-103435000D03*
X220165000Y-103435000D03*
%TD*%
D13*
%TO.C,J1*%
X209550000Y-85090000D03*
D14*
X212090000Y-85090000D03*
%TD*%
D13*
%TO.C,J6*%
X213360000Y-89535000D03*
D14*
X215900000Y-89535000D03*
X213360000Y-92075000D03*
X215900000Y-92075000D03*
%TD*%
D21*
%TO.C,D5*%
X157286500Y-124460000D03*
X160086500Y-124460000D03*
%TD*%
D44*
%TO.C,C31*%
X166370000Y-86680000D03*
X166370000Y-88580000D03*
%TD*%
D13*
%TO.C,J9*%
X166370000Y-124460000D03*
D14*
X166370000Y-127000000D03*
X166370000Y-129540000D03*
X166370000Y-132080000D03*
%TD*%
D17*
%TO.C,R3*%
X203430500Y-80010000D03*
X205255500Y-80010000D03*
%TD*%
D45*
%TO.C,C30*%
X162240000Y-100330000D03*
X160340000Y-100330000D03*
%TD*%
D46*
%TO.C,J2*%
X243160669Y-122434669D03*
X243160669Y-97434669D03*
D23*
X241110669Y-105619669D03*
D24*
X241110669Y-107909669D03*
X241110669Y-110199669D03*
X241110669Y-112489669D03*
X241110669Y-114779669D03*
X243090669Y-104474669D03*
X243090669Y-106764669D03*
X243090669Y-109054669D03*
X243090669Y-111344669D03*
X243090669Y-113634669D03*
X245070669Y-105619669D03*
X245070669Y-107909669D03*
X245070669Y-110199669D03*
X245070669Y-112489669D03*
X245070669Y-114779669D03*
%TD*%
D47*
%TO.C,R22*%
X187960000Y-81002500D03*
X187960000Y-82827500D03*
%TD*%
D17*
%TO.C,R1*%
X230227500Y-102870000D03*
X232052500Y-102870000D03*
%TD*%
D48*
%TO.C,C29*%
X163990000Y-95631000D03*
X158590000Y-95631000D03*
%TD*%
D49*
%TO.C,U7*%
X176165000Y-127254000D03*
X176165000Y-128524000D03*
X176165000Y-129794000D03*
X176165000Y-131064000D03*
X181115000Y-131064000D03*
X181115000Y-129794000D03*
X181115000Y-128524000D03*
X181115000Y-127254000D03*
%TD*%
M02*
