%TF.GenerationSoftware,KiCad,Pcbnew,7.0.9-7.0.9~ubuntu20.04.1*%
%TF.CreationDate,2024-02-01T14:13:27+00:00*%
%TF.ProjectId,ICE40UPDevBoard,49434534-3055-4504-9465-76426f617264,rev?*%
%TF.SameCoordinates,Original*%
%TF.FileFunction,Soldermask,Bot*%
%TF.FilePolarity,Negative*%
%FSLAX46Y46*%
G04 Gerber Fmt 4.6, Leading zero omitted, Abs format (unit mm)*
G04 Created by KiCad (PCBNEW 7.0.9-7.0.9~ubuntu20.04.1) date 2024-02-01 14:13:27*
%MOMM*%
%LPD*%
G01*
G04 APERTURE LIST*
G04 Aperture macros list*
%AMRoundRect*
0 Rectangle with rounded corners*
0 $1 Rounding radius*
0 $2 $3 $4 $5 $6 $7 $8 $9 X,Y pos of 4 corners*
0 Add a 4 corners polygon primitive as box body*
4,1,4,$2,$3,$4,$5,$6,$7,$8,$9,$2,$3,0*
0 Add four circle primitives for the rounded corners*
1,1,$1+$1,$2,$3*
1,1,$1+$1,$4,$5*
1,1,$1+$1,$6,$7*
1,1,$1+$1,$8,$9*
0 Add four rect primitives between the rounded corners*
20,1,$1+$1,$2,$3,$4,$5,0*
20,1,$1+$1,$4,$5,$6,$7,0*
20,1,$1+$1,$6,$7,$8,$9,0*
20,1,$1+$1,$8,$9,$2,$3,0*%
G04 Aperture macros list end*
%ADD10C,4.300000*%
%ADD11R,1.700000X1.700000*%
%ADD12O,1.700000X1.700000*%
%ADD13R,2.300000X1.500000*%
%ADD14O,2.300000X1.500000*%
%ADD15R,1.600000X1.600000*%
%ADD16C,1.600000*%
%ADD17O,3.500000X2.000000*%
%ADD18O,2.000000X4.000000*%
%ADD19R,2.000000X2.000000*%
%ADD20C,2.000000*%
%ADD21R,3.500000X3.500000*%
%ADD22RoundRect,0.750000X-0.750000X-1.000000X0.750000X-1.000000X0.750000X1.000000X-0.750000X1.000000X0*%
%ADD23RoundRect,0.875000X-0.875000X-0.875000X0.875000X-0.875000X0.875000X0.875000X-0.875000X0.875000X0*%
%ADD24C,4.000000*%
%ADD25RoundRect,0.250000X-0.262500X-0.450000X0.262500X-0.450000X0.262500X0.450000X-0.262500X0.450000X0*%
%ADD26RoundRect,0.250000X-0.475000X0.250000X-0.475000X-0.250000X0.475000X-0.250000X0.475000X0.250000X0*%
%ADD27RoundRect,0.250000X0.475000X-0.250000X0.475000X0.250000X-0.475000X0.250000X-0.475000X-0.250000X0*%
%ADD28RoundRect,0.250000X0.425000X-0.450000X0.425000X0.450000X-0.425000X0.450000X-0.425000X-0.450000X0*%
%ADD29RoundRect,0.225000X0.375000X-0.225000X0.375000X0.225000X-0.375000X0.225000X-0.375000X-0.225000X0*%
%ADD30RoundRect,0.250000X0.262500X0.450000X-0.262500X0.450000X-0.262500X-0.450000X0.262500X-0.450000X0*%
%ADD31RoundRect,0.250000X0.450000X-0.262500X0.450000X0.262500X-0.450000X0.262500X-0.450000X-0.262500X0*%
%ADD32RoundRect,0.250000X-0.425000X0.450000X-0.425000X-0.450000X0.425000X-0.450000X0.425000X0.450000X0*%
%ADD33RoundRect,0.250000X0.275000X0.700000X-0.275000X0.700000X-0.275000X-0.700000X0.275000X-0.700000X0*%
%ADD34RoundRect,0.250000X0.250000X0.475000X-0.250000X0.475000X-0.250000X-0.475000X0.250000X-0.475000X0*%
%ADD35RoundRect,0.250000X-0.450000X0.262500X-0.450000X-0.262500X0.450000X-0.262500X0.450000X0.262500X0*%
%ADD36RoundRect,0.250000X1.025000X-0.787500X1.025000X0.787500X-1.025000X0.787500X-1.025000X-0.787500X0*%
%ADD37RoundRect,0.250000X-0.250000X-0.475000X0.250000X-0.475000X0.250000X0.475000X-0.250000X0.475000X0*%
G04 APERTURE END LIST*
D10*
%TO.C,H3*%
X156210000Y-130810000D03*
%TD*%
D11*
%TO.C,J4*%
X212090000Y-80010000D03*
D12*
X209550000Y-80010000D03*
%TD*%
D11*
%TO.C,J7*%
X223520000Y-87630000D03*
D12*
X223520000Y-85090000D03*
X223520000Y-82550000D03*
X223520000Y-80010000D03*
X223520000Y-77470000D03*
X223520000Y-74930000D03*
%TD*%
D11*
%TO.C,J8*%
X182880000Y-96520000D03*
D12*
X182880000Y-99060000D03*
X182880000Y-101600000D03*
X182880000Y-104140000D03*
X182880000Y-106680000D03*
X182880000Y-109220000D03*
X182880000Y-111760000D03*
%TD*%
D13*
%TO.C,U8*%
X170419500Y-86360000D03*
D14*
X170419500Y-88900000D03*
X170419500Y-91440000D03*
%TD*%
D11*
%TO.C,J5*%
X212095000Y-74930000D03*
D12*
X209555000Y-74930000D03*
%TD*%
D10*
%TO.C,H2*%
X156210000Y-71120000D03*
%TD*%
D15*
%TO.C,J3*%
X240825000Y-83790000D03*
D16*
X240825000Y-86390000D03*
X240825000Y-81690000D03*
X240825000Y-88490000D03*
X238025000Y-81690000D03*
X238025000Y-88490000D03*
D17*
X243675000Y-91940000D03*
D18*
X244475000Y-85090000D03*
D17*
X243675000Y-78240000D03*
%TD*%
D19*
%TO.C,SP1*%
X222270000Y-120650000D03*
D20*
X229870000Y-120650000D03*
%TD*%
D21*
%TO.C,CON2*%
X161956000Y-85021500D03*
D22*
X155956000Y-85021500D03*
D23*
X158956000Y-89721500D03*
%TD*%
D10*
%TO.C,H1*%
X243840000Y-71120000D03*
%TD*%
%TO.C,H4*%
X243840000Y-130810000D03*
%TD*%
D11*
%TO.C,J1*%
X209550000Y-85090000D03*
D12*
X212090000Y-85090000D03*
%TD*%
D11*
%TO.C,J6*%
X213360000Y-89535000D03*
D12*
X215900000Y-89535000D03*
X213360000Y-92075000D03*
X215900000Y-92075000D03*
%TD*%
D11*
%TO.C,J9*%
X166370000Y-124460000D03*
D12*
X166370000Y-127000000D03*
X166370000Y-129540000D03*
X166370000Y-132080000D03*
%TD*%
D24*
%TO.C,J2*%
X243160669Y-122434669D03*
X243160669Y-97434669D03*
D15*
X241110669Y-105619669D03*
D16*
X241110669Y-107909669D03*
X241110669Y-110199669D03*
X241110669Y-112489669D03*
X241110669Y-114779669D03*
X243090669Y-104474669D03*
X243090669Y-106764669D03*
X243090669Y-109054669D03*
X243090669Y-111344669D03*
X243090669Y-113634669D03*
X245070669Y-105619669D03*
X245070669Y-107909669D03*
X245070669Y-110199669D03*
X245070669Y-112489669D03*
X245070669Y-114779669D03*
%TD*%
D25*
%TO.C,R21*%
X203557500Y-74930000D03*
X205382500Y-74930000D03*
%TD*%
D26*
%TO.C,C24*%
X185420000Y-86045000D03*
X185420000Y-87945000D03*
%TD*%
D25*
%TO.C,R10*%
X241403500Y-118110000D03*
X243228500Y-118110000D03*
%TD*%
D27*
%TO.C,C16*%
X201549000Y-95184000D03*
X201549000Y-93284000D03*
%TD*%
D28*
%TO.C,C19*%
X193015000Y-77310000D03*
X193015000Y-74610000D03*
%TD*%
D29*
%TO.C,D1*%
X206121000Y-109219000D03*
X206121000Y-105919000D03*
%TD*%
D25*
%TO.C,R12*%
X233402500Y-87630000D03*
X235227500Y-87630000D03*
%TD*%
D27*
%TO.C,C26*%
X195707000Y-98740000D03*
X195707000Y-96840000D03*
%TD*%
D26*
%TO.C,C2*%
X195834000Y-74996000D03*
X195834000Y-76896000D03*
%TD*%
D30*
%TO.C,R28*%
X159599000Y-121031000D03*
X157774000Y-121031000D03*
%TD*%
D31*
%TO.C,R20*%
X190373000Y-89304500D03*
X190373000Y-87479500D03*
%TD*%
D26*
%TO.C,C18*%
X185674000Y-74996000D03*
X185674000Y-76896000D03*
%TD*%
D32*
%TO.C,C1*%
X187935000Y-74610000D03*
X187935000Y-77310000D03*
%TD*%
D26*
%TO.C,C21*%
X226060000Y-107381000D03*
X226060000Y-109281000D03*
%TD*%
D27*
%TO.C,C10*%
X197227000Y-106929000D03*
X197227000Y-105029000D03*
%TD*%
D30*
%TO.C,R16*%
X230782500Y-83185000D03*
X228957500Y-83185000D03*
%TD*%
D26*
%TO.C,C9*%
X195580000Y-90810000D03*
X195580000Y-92710000D03*
%TD*%
D33*
%TO.C,FB1*%
X223952000Y-107696000D03*
X220802000Y-107696000D03*
%TD*%
D30*
%TO.C,R14*%
X230782500Y-87630000D03*
X228957500Y-87630000D03*
%TD*%
D32*
%TO.C,C3*%
X198095000Y-74610000D03*
X198095000Y-77310000D03*
%TD*%
D26*
%TO.C,C27*%
X180340000Y-119065000D03*
X180340000Y-120965000D03*
%TD*%
D34*
%TO.C,C7*%
X204150000Y-106426000D03*
X202250000Y-106426000D03*
%TD*%
D30*
%TO.C,R17*%
X235227500Y-83185000D03*
X233402500Y-83185000D03*
%TD*%
D27*
%TO.C,C23*%
X203708000Y-95184000D03*
X203708000Y-93284000D03*
%TD*%
D26*
%TO.C,C28*%
X178640000Y-128209000D03*
X178640000Y-130109000D03*
%TD*%
D34*
%TO.C,C20*%
X225740000Y-105410000D03*
X223840000Y-105410000D03*
%TD*%
D27*
%TO.C,C5*%
X206883000Y-98740000D03*
X206883000Y-96840000D03*
%TD*%
%TO.C,C4*%
X209169000Y-98740000D03*
X209169000Y-96840000D03*
%TD*%
D35*
%TO.C,R5*%
X195072000Y-101576500D03*
X195072000Y-103401500D03*
%TD*%
D27*
%TO.C,C25*%
X197866000Y-98740000D03*
X197866000Y-96840000D03*
%TD*%
%TO.C,C6*%
X208407000Y-108392000D03*
X208407000Y-106492000D03*
%TD*%
D26*
%TO.C,C13*%
X199390000Y-101539000D03*
X199390000Y-103439000D03*
%TD*%
D36*
%TO.C,C17*%
X181991000Y-79123000D03*
X181991000Y-72898000D03*
%TD*%
D34*
%TO.C,C8*%
X204150000Y-108585000D03*
X202250000Y-108585000D03*
%TD*%
D27*
%TO.C,C11*%
X199390000Y-106929000D03*
X199390000Y-105029000D03*
%TD*%
D30*
%TO.C,R30*%
X159154500Y-110490000D03*
X157329500Y-110490000D03*
%TD*%
D35*
%TO.C,R2*%
X207264000Y-101576500D03*
X207264000Y-103401500D03*
%TD*%
D37*
%TO.C,C22*%
X221935000Y-109982000D03*
X223835000Y-109982000D03*
%TD*%
D30*
%TO.C,R13*%
X233957500Y-92075000D03*
X232132500Y-92075000D03*
%TD*%
D25*
%TO.C,R11*%
X236577500Y-91440000D03*
X238402500Y-91440000D03*
%TD*%
D30*
%TO.C,R27*%
X159599000Y-117602000D03*
X157774000Y-117602000D03*
%TD*%
D25*
%TO.C,R9*%
X241403500Y-101600000D03*
X243228500Y-101600000D03*
%TD*%
D26*
%TO.C,C15*%
X204597000Y-101539000D03*
X204597000Y-103439000D03*
%TD*%
D30*
%TO.C,R15*%
X233957500Y-78740000D03*
X232132500Y-78740000D03*
%TD*%
%TO.C,R8*%
X221892500Y-105410000D03*
X220067500Y-105410000D03*
%TD*%
%TO.C,R18*%
X238402500Y-78740000D03*
X236577500Y-78740000D03*
%TD*%
D25*
%TO.C,R32*%
X217537500Y-120650000D03*
X219362500Y-120650000D03*
%TD*%
D30*
%TO.C,R29*%
X159599000Y-124460000D03*
X157774000Y-124460000D03*
%TD*%
D26*
%TO.C,C14*%
X197231000Y-101539000D03*
X197231000Y-103439000D03*
%TD*%
%TO.C,C12*%
X202438000Y-101539000D03*
X202438000Y-103439000D03*
%TD*%
M02*
