M48
; DRILL file {KiCad 7.0.9-7.0.9~ubuntu20.04.1} date Fri 02 Feb 2024 11:04:40 GMT
; FORMAT={-:-/ absolute / inch / decimal}
; #@! TF.CreationDate,2024-02-02T11:04:40+00:00
; #@! TF.GenerationSoftware,Kicad,Pcbnew,7.0.9-7.0.9~ubuntu20.04.1
; #@! TF.FileFunction,Plated,1,4,PTH
FMAT,2
INCH
; #@! TA.AperFunction,Plated,PTH,ViaDrill
T1C0.0120
; #@! TA.AperFunction,Plated,PTH,ComponentDrill
T2C0.0315
; #@! TA.AperFunction,Plated,PTH,ComponentDrill
T3C0.0394
; #@! TA.AperFunction,Plated,PTH,ComponentDrill
T4C0.1260
%
G90
G05
T1
X6.1Y-3.55
X6.1Y-3.65
X6.1Y-3.75
X6.1Y-3.85
X6.1Y-3.95
X6.1Y-4.05
X6.145Y-4.765
X6.145Y-4.9
X6.1475Y-4.63
X6.15Y-4.35
X6.2Y-3.85
X6.2Y-3.95
X6.2Y-4.05
X6.23Y-4.2725
X6.23Y-4.43
X6.28Y-4.08
X6.37Y-4.63
X6.37Y-4.9
X6.375Y-4.765
X6.38Y-4.08
X6.46Y-4.08
X6.54Y-4.08
X6.62Y-4.08
X6.7Y-4.08
X6.78Y-4.08
X6.785Y-4.78
X6.86Y-4.08
X7.0331Y-5.01
X7.0331Y-5.16
X7.1Y-4.6
X7.1Y-4.9
X7.205Y-2.87
X7.205Y-3.11
X7.23Y-2.89
X7.23Y-3.09
X7.29Y-3.07
X7.3Y-3.35
X7.3Y-3.5
X7.33Y-3.07
X7.344Y-5.085
X7.355Y-2.805
X7.355Y-2.87
X7.395Y-2.805
X7.395Y-2.88
X7.43Y-2.87
X7.435Y-2.805
X7.44Y-3.53
X7.455Y-3.445
X7.465Y-2.835
X7.465Y-2.91
X7.465Y-2.975
X7.465Y-3.02
X7.465Y-3.925
X7.475Y-3.07
X7.475Y-3.105
X7.495Y-4.03
X7.5281Y-4.9
X7.535Y-3.345
X7.545Y-3.98
X7.55Y-4.05
X7.57Y-4.005
X7.605Y-2.87
X7.605Y-3.11
X7.63Y-2.89
X7.63Y-3.09
X7.63Y-3.95
X7.65Y-3.6126
X7.69Y-3.075
X7.7Y-3.4943
X7.7Y-3.6976
X7.735Y-3.075
X7.745Y-3.78
X7.745Y-3.865
X7.77Y-2.87
X7.805Y-2.87
X7.84Y-3.945
X7.845Y-2.87
X7.87Y-2.91
X7.87Y-2.96
X7.87Y-3.01
X7.87Y-3.05
X7.88Y-3.905
X7.88Y-4.05
X7.895Y-3.635
X7.94Y-3.905
X7.94Y-4.05
X7.94Y-4.235
X7.945Y-3.35
X7.95Y-4.37
X7.95Y-4.4
X7.96Y-3.15
X7.96Y-3.235
X7.97Y-2.95
X7.98Y-3.725
X7.995Y-3.905
X7.995Y-3.945
X8.015Y-4.05
X8.05Y-3.64
X8.05Y-4.395
X8.05Y-4.425
X8.085Y-4.205
X8.115Y-4.015
X8.1575Y-4.2175
X8.19Y-3.78
X8.19Y-3.9
X8.195Y-3.975
X8.51Y-4.75
X8.56Y-4.145
X8.56Y-4.205
X8.6123Y-4.3723
X8.6679Y-4.33
X8.705Y-4.45
X8.755Y-2.685
X8.755Y-4.24
X8.765Y-4.02
X8.765Y-4.45
X8.825Y-4.02
X8.85Y-4.145
X8.88Y-4.02
X8.89Y-4.27
X8.91Y-2.685
X8.94Y-4.095
X8.985Y-4.345
X9.005Y-4.18
X9.005Y-4.235
X9.065Y-2.685
X9.15Y-3.275
X9.15Y-3.45
X9.185Y-4.05
X9.185Y-4.2
X9.19Y-4.35
X9.27Y-3.6
X9.275Y-3.1
T2
X9.3711Y-3.2161
X9.3711Y-3.4839
X9.4813Y-3.2161
X9.4813Y-3.2988
X9.4813Y-3.4012
X9.4813Y-3.4839
T3
X6.55Y-4.9
X6.55Y-5.0
X6.55Y-5.1
X6.55Y-5.2
X6.7094Y-3.4
X6.7094Y-3.5
X6.7094Y-3.6
X7.2Y-3.8
X7.2Y-3.9
X7.2Y-4.0
X7.2Y-4.1
X7.2Y-4.2
X7.2Y-4.3
X7.2Y-4.4
X8.25Y-3.15
X8.25Y-3.35
X8.2502Y-2.95
X8.35Y-3.15
X8.35Y-3.35
X8.3502Y-2.95
X8.4Y-3.525
X8.4Y-3.625
X8.5Y-3.525
X8.5Y-3.625
X8.7508Y-4.75
X8.8Y-2.95
X8.8Y-3.05
X8.8Y-3.15
X8.8Y-3.25
X8.8Y-3.35
X8.8Y-3.45
X9.05Y-4.75
X9.4925Y-4.1583
X9.4925Y-4.2484
X9.4925Y-4.3386
X9.4925Y-4.4287
X9.4925Y-4.5189
X9.5705Y-4.1132
X9.5705Y-4.2033
X9.5705Y-4.2935
X9.5705Y-4.3836
X9.5705Y-4.4738
X9.6485Y-4.1583
X9.6485Y-4.2484
X9.6485Y-4.3386
X9.6485Y-4.4287
X9.6485Y-4.5189
T4
X9.5733Y-3.836
X9.5733Y-4.8203
T3
G00X6.14Y-3.3079
M15
G01X6.14Y-3.3867
M16
G05
G00X6.2187Y-3.5323
M15
G01X6.2975Y-3.5323
M16
G05
G00X6.3762Y-3.3079
M15
G01X6.3762Y-3.3867
M16
G05
G00X9.564Y-3.0803
M15
G01X9.623Y-3.0803
M16
G05
G00X9.564Y-3.6197
M15
G01X9.623Y-3.6197
M16
G05
G00X9.625Y-3.3894
M15
G01X9.625Y-3.3106
M16
G05
T0
M30
