%TF.GenerationSoftware,KiCad,Pcbnew,7.0.9-7.0.9~ubuntu20.04.1*%
%TF.CreationDate,2024-02-02T11:04:46+00:00*%
%TF.ProjectId,ICE40UPDevBoard,49434534-3055-4504-9465-76426f617264,rev?*%
%TF.SameCoordinates,Original*%
%TF.FileFunction,Copper,L1,Top*%
%TF.FilePolarity,Positive*%
%FSLAX46Y46*%
G04 Gerber Fmt 4.6, Leading zero omitted, Abs format (unit mm)*
G04 Created by KiCad (PCBNEW 7.0.9-7.0.9~ubuntu20.04.1) date 2024-02-02 11:04:46*
%MOMM*%
%LPD*%
G01*
G04 APERTURE LIST*
G04 Aperture macros list*
%AMRoundRect*
0 Rectangle with rounded corners*
0 $1 Rounding radius*
0 $2 $3 $4 $5 $6 $7 $8 $9 X,Y pos of 4 corners*
0 Add a 4 corners polygon primitive as box body*
4,1,4,$2,$3,$4,$5,$6,$7,$8,$9,$2,$3,0*
0 Add four circle primitives for the rounded corners*
1,1,$1+$1,$2,$3*
1,1,$1+$1,$4,$5*
1,1,$1+$1,$6,$7*
1,1,$1+$1,$8,$9*
0 Add four rect primitives between the rounded corners*
20,1,$1+$1,$2,$3,$4,$5,0*
20,1,$1+$1,$4,$5,$6,$7,0*
20,1,$1+$1,$6,$7,$8,$9,0*
20,1,$1+$1,$8,$9,$2,$3,0*%
G04 Aperture macros list end*
%TA.AperFunction,SMDPad,CuDef*%
%ADD10R,2.800000X1.000000*%
%TD*%
%TA.AperFunction,SMDPad,CuDef*%
%ADD11RoundRect,0.150000X-0.675000X-0.150000X0.675000X-0.150000X0.675000X0.150000X-0.675000X0.150000X0*%
%TD*%
%TA.AperFunction,ComponentPad*%
%ADD12R,1.700000X1.700000*%
%TD*%
%TA.AperFunction,ComponentPad*%
%ADD13O,1.700000X1.700000*%
%TD*%
%TA.AperFunction,SMDPad,CuDef*%
%ADD14RoundRect,0.250000X0.375000X1.075000X-0.375000X1.075000X-0.375000X-1.075000X0.375000X-1.075000X0*%
%TD*%
%TA.AperFunction,SMDPad,CuDef*%
%ADD15RoundRect,0.250000X0.450000X-0.262500X0.450000X0.262500X-0.450000X0.262500X-0.450000X-0.262500X0*%
%TD*%
%TA.AperFunction,SMDPad,CuDef*%
%ADD16RoundRect,0.250000X-0.262500X-0.450000X0.262500X-0.450000X0.262500X0.450000X-0.262500X0.450000X0*%
%TD*%
%TA.AperFunction,SMDPad,CuDef*%
%ADD17RoundRect,0.250000X-1.250000X-0.550000X1.250000X-0.550000X1.250000X0.550000X-1.250000X0.550000X0*%
%TD*%
%TA.AperFunction,ComponentPad*%
%ADD18R,2.300000X1.500000*%
%TD*%
%TA.AperFunction,ComponentPad*%
%ADD19O,2.300000X1.500000*%
%TD*%
%TA.AperFunction,SMDPad,CuDef*%
%ADD20RoundRect,0.250000X-0.375000X-1.075000X0.375000X-1.075000X0.375000X1.075000X-0.375000X1.075000X0*%
%TD*%
%TA.AperFunction,SMDPad,CuDef*%
%ADD21R,2.900000X5.400000*%
%TD*%
%TA.AperFunction,ComponentPad*%
%ADD22R,1.600000X1.600000*%
%TD*%
%TA.AperFunction,ComponentPad*%
%ADD23C,1.600000*%
%TD*%
%TA.AperFunction,ComponentPad*%
%ADD24O,3.500000X2.000000*%
%TD*%
%TA.AperFunction,ComponentPad*%
%ADD25O,2.000000X4.000000*%
%TD*%
%TA.AperFunction,SMDPad,CuDef*%
%ADD26R,2.000000X1.500000*%
%TD*%
%TA.AperFunction,SMDPad,CuDef*%
%ADD27R,2.000000X3.800000*%
%TD*%
%TA.AperFunction,SMDPad,CuDef*%
%ADD28RoundRect,0.250000X0.262500X0.450000X-0.262500X0.450000X-0.262500X-0.450000X0.262500X-0.450000X0*%
%TD*%
%TA.AperFunction,SMDPad,CuDef*%
%ADD29R,1.600000X1.500000*%
%TD*%
%TA.AperFunction,SMDPad,CuDef*%
%ADD30R,3.300000X3.500000*%
%TD*%
%TA.AperFunction,SMDPad,CuDef*%
%ADD31C,10.200000*%
%TD*%
%TA.AperFunction,ComponentPad*%
%ADD32R,2.000000X2.000000*%
%TD*%
%TA.AperFunction,ComponentPad*%
%ADD33C,2.000000*%
%TD*%
%TA.AperFunction,ComponentPad*%
%ADD34R,3.500000X3.500000*%
%TD*%
%TA.AperFunction,ComponentPad*%
%ADD35RoundRect,0.750000X-0.750000X-1.000000X0.750000X-1.000000X0.750000X1.000000X-0.750000X1.000000X0*%
%TD*%
%TA.AperFunction,ComponentPad*%
%ADD36RoundRect,0.875000X-0.875000X-0.875000X0.875000X-0.875000X0.875000X0.875000X-0.875000X0.875000X0*%
%TD*%
%TA.AperFunction,SMDPad,CuDef*%
%ADD37RoundRect,0.062500X-0.375000X-0.062500X0.375000X-0.062500X0.375000X0.062500X-0.375000X0.062500X0*%
%TD*%
%TA.AperFunction,SMDPad,CuDef*%
%ADD38RoundRect,0.062500X-0.062500X-0.375000X0.062500X-0.375000X0.062500X0.375000X-0.062500X0.375000X0*%
%TD*%
%TA.AperFunction,SMDPad,CuDef*%
%ADD39R,5.600000X5.600000*%
%TD*%
%TA.AperFunction,SMDPad,CuDef*%
%ADD40RoundRect,0.150000X-0.875000X-0.150000X0.875000X-0.150000X0.875000X0.150000X-0.875000X0.150000X0*%
%TD*%
%TA.AperFunction,SMDPad,CuDef*%
%ADD41RoundRect,0.075000X-0.662500X-0.075000X0.662500X-0.075000X0.662500X0.075000X-0.662500X0.075000X0*%
%TD*%
%TA.AperFunction,SMDPad,CuDef*%
%ADD42RoundRect,0.075000X-0.075000X-0.662500X0.075000X-0.662500X0.075000X0.662500X-0.075000X0.662500X0*%
%TD*%
%TA.AperFunction,SMDPad,CuDef*%
%ADD43RoundRect,0.250000X-0.475000X0.250000X-0.475000X-0.250000X0.475000X-0.250000X0.475000X0.250000X0*%
%TD*%
%TA.AperFunction,SMDPad,CuDef*%
%ADD44RoundRect,0.250000X0.250000X0.475000X-0.250000X0.475000X-0.250000X-0.475000X0.250000X-0.475000X0*%
%TD*%
%TA.AperFunction,ComponentPad*%
%ADD45C,4.000000*%
%TD*%
%TA.AperFunction,SMDPad,CuDef*%
%ADD46RoundRect,0.250000X-0.450000X0.262500X-0.450000X-0.262500X0.450000X-0.262500X0.450000X0.262500X0*%
%TD*%
%TA.AperFunction,SMDPad,CuDef*%
%ADD47RoundRect,0.250000X1.500000X0.550000X-1.500000X0.550000X-1.500000X-0.550000X1.500000X-0.550000X0*%
%TD*%
%TA.AperFunction,SMDPad,CuDef*%
%ADD48RoundRect,0.150000X-0.825000X-0.150000X0.825000X-0.150000X0.825000X0.150000X-0.825000X0.150000X0*%
%TD*%
%TA.AperFunction,ViaPad*%
%ADD49C,0.635000*%
%TD*%
%TA.AperFunction,ViaPad*%
%ADD50C,0.508000*%
%TD*%
%TA.AperFunction,ViaPad*%
%ADD51C,0.762000*%
%TD*%
%TA.AperFunction,Conductor*%
%ADD52C,0.508000*%
%TD*%
%TA.AperFunction,Conductor*%
%ADD53C,0.317500*%
%TD*%
%TA.AperFunction,Conductor*%
%ADD54C,0.190500*%
%TD*%
%TA.AperFunction,Conductor*%
%ADD55C,1.651000*%
%TD*%
%TA.AperFunction,Conductor*%
%ADD56C,0.254000*%
%TD*%
G04 APERTURE END LIST*
D10*
%TO.P,SW1,1,1*%
%TO.N,BUTTON0*%
X155342000Y-108490000D03*
X161142000Y-108490000D03*
%TO.P,SW1,2,2*%
%TO.N,GND*%
X155342000Y-112490000D03*
X161142000Y-112490000D03*
%TD*%
D11*
%TO.P,U6,1,~{CS}*%
%TO.N,Net-(J5-Pin_2)*%
X182795000Y-85090000D03*
%TO.P,U6,2,DO(IO1)*%
%TO.N,/FLASH_MISO*%
X182795000Y-86360000D03*
%TO.P,U6,3,IO2*%
%TO.N,Net-(U6-IO2)*%
X182795000Y-87630000D03*
%TO.P,U6,4,GND*%
%TO.N,GND*%
X182795000Y-88900000D03*
%TO.P,U6,5,DI(IO0)*%
%TO.N,/FLASH_MOSI*%
X188045000Y-88900000D03*
%TO.P,U6,6,CLK*%
%TO.N,/ICE_SCK*%
X188045000Y-87630000D03*
%TO.P,U6,7,IO3*%
%TO.N,Net-(U6-IO3)*%
X188045000Y-86360000D03*
%TO.P,U6,8,VCC*%
%TO.N,+3V3*%
X188045000Y-85090000D03*
%TD*%
D12*
%TO.P,J4,1,Pin_1*%
%TO.N,/~{CRESET_B}*%
X212090000Y-80010000D03*
D13*
%TO.P,J4,2,Pin_2*%
%TO.N,GND*%
X209550000Y-80010000D03*
%TD*%
D14*
%TO.P,D2,1,K*%
%TO.N,Net-(D2-K)*%
X205870000Y-85090000D03*
%TO.P,D2,2,A*%
%TO.N,+3V3*%
X203070000Y-85090000D03*
%TD*%
D15*
%TO.P,R26,1*%
%TO.N,+3V3*%
X172290000Y-120292500D03*
%TO.P,R26,2*%
%TO.N,RTCSQWAVE*%
X172290000Y-118467500D03*
%TD*%
D12*
%TO.P,J7,1,Pin_1*%
%TO.N,+3V3*%
X223520000Y-87630000D03*
D13*
%TO.P,J7,2,Pin_2*%
%TO.N,/FLASH_MOSI*%
X223520000Y-85090000D03*
%TO.P,J7,3,Pin_3*%
%TO.N,/FLASH_MISO*%
X223520000Y-82550000D03*
%TO.P,J7,4,Pin_4*%
%TO.N,/ICE_SCK*%
X223520000Y-80010000D03*
%TO.P,J7,5,Pin_5*%
%TO.N,/ICE_SS*%
X223520000Y-77470000D03*
%TO.P,J7,6,Pin_6*%
%TO.N,GND*%
X223520000Y-74930000D03*
%TD*%
D16*
%TO.P,R6,1*%
%TO.N,GREEN*%
X230227500Y-106680000D03*
%TO.P,R6,2*%
%TO.N,GND*%
X232052500Y-106680000D03*
%TD*%
D17*
%TO.P,C32,1*%
%TO.N,+5V*%
X169250000Y-98425000D03*
%TO.P,C32,2*%
%TO.N,GND*%
X173650000Y-98425000D03*
%TD*%
D12*
%TO.P,J8,1,Pin_1*%
%TO.N,USER0*%
X182880000Y-96520000D03*
D13*
%TO.P,J8,2,Pin_2*%
%TO.N,USER1*%
X182880000Y-99060000D03*
%TO.P,J8,3,Pin_3*%
%TO.N,USER2*%
X182880000Y-101600000D03*
%TO.P,J8,4,Pin_4*%
%TO.N,USER3*%
X182880000Y-104140000D03*
%TO.P,J8,5,Pin_5*%
%TO.N,USER4*%
X182880000Y-106680000D03*
%TO.P,J8,6,Pin_6*%
%TO.N,USER5*%
X182880000Y-109220000D03*
%TO.P,J8,7,Pin_7*%
%TO.N,GND*%
X182880000Y-111760000D03*
%TD*%
D18*
%TO.P,U8,1,+Vin*%
%TO.N,/VCCEXTI*%
X170419500Y-86360000D03*
D19*
%TO.P,U8,2,GND*%
%TO.N,GND*%
X170419500Y-88900000D03*
%TO.P,U8,3,+Vout*%
%TO.N,+5V*%
X170419500Y-91440000D03*
%TD*%
D12*
%TO.P,J5,1,Pin_1*%
%TO.N,/ICE_SS*%
X212095000Y-74930000D03*
D13*
%TO.P,J5,2,Pin_2*%
%TO.N,Net-(J5-Pin_2)*%
X209555000Y-74930000D03*
%TD*%
D20*
%TO.P,D3,1,K*%
%TO.N,LED0*%
X157286500Y-117602000D03*
%TO.P,D3,2,A*%
%TO.N,Net-(D3-A)*%
X160086500Y-117602000D03*
%TD*%
D16*
%TO.P,R7,1*%
%TO.N,BLUE*%
X230227500Y-110490000D03*
%TO.P,R7,2*%
%TO.N,GND*%
X232052500Y-110490000D03*
%TD*%
D21*
%TO.P,L1,1,1*%
%TO.N,/VCCEXT*%
X163960000Y-73152000D03*
%TO.P,L1,2,2*%
%TO.N,/VCCEXTI*%
X173860000Y-73152000D03*
%TD*%
D22*
%TO.P,J3,1*%
%TO.N,Net-(J3-Pad1)*%
X240825000Y-83790000D03*
D23*
%TO.P,J3,2*%
%TO.N,Net-(J3-Pad2)*%
X240825000Y-86390000D03*
%TO.P,J3,3*%
%TO.N,GND*%
X240825000Y-81690000D03*
%TO.P,J3,4*%
%TO.N,+5V*%
X240825000Y-88490000D03*
%TO.P,J3,5*%
%TO.N,Net-(J3-Pad5)*%
X238025000Y-81690000D03*
%TO.P,J3,6*%
%TO.N,Net-(J3-Pad6)*%
X238025000Y-88490000D03*
D24*
%TO.P,J3,7*%
%TO.N,N/C*%
X243675000Y-91940000D03*
D25*
X244475000Y-85090000D03*
D24*
X243675000Y-78240000D03*
%TD*%
D26*
%TO.P,U4,1,GND*%
%TO.N,GND*%
X181610000Y-73660000D03*
%TO.P,U4,2,VO*%
%TO.N,+3V3*%
X181610000Y-75960000D03*
D27*
X187910000Y-75960000D03*
D26*
%TO.P,U4,3,VI*%
%TO.N,+5V*%
X181610000Y-78260000D03*
%TD*%
D28*
%TO.P,R24,1*%
%TO.N,+3V3*%
X186537500Y-127889000D03*
%TO.P,R24,2*%
%TO.N,I2C_SCL*%
X184712500Y-127889000D03*
%TD*%
%TO.P,R19,1*%
%TO.N,Net-(D2-K)*%
X205255500Y-82169000D03*
%TO.P,R19,2*%
%TO.N,GND*%
X203430500Y-82169000D03*
%TD*%
D29*
%TO.P,X1,1,OE*%
%TO.N,+3V3*%
X194310000Y-92860000D03*
%TO.P,X1,2,GND*%
%TO.N,GND*%
X196850000Y-92860000D03*
%TO.P,X1,3,OUT*%
%TO.N,GLOBAL_CLK*%
X196850000Y-90660000D03*
%TO.P,X1,4,Vcc*%
%TO.N,+3V3*%
X194310000Y-90660000D03*
%TD*%
D28*
%TO.P,R25,1*%
%TO.N,+3V3*%
X186537500Y-130429000D03*
%TO.P,R25,2*%
%TO.N,I2C_SDA*%
X184712500Y-130429000D03*
%TD*%
D30*
%TO.P,BT1,1,+*%
%TO.N,/Other/VBAT*%
X197690000Y-132360000D03*
X197690000Y-116560000D03*
D31*
%TO.P,BT1,2,-*%
%TO.N,GND*%
X197690000Y-124460000D03*
%TD*%
D32*
%TO.P,SP1,1,1*%
%TO.N,Net-(R32-Pad2)*%
X222270000Y-120650000D03*
D33*
%TO.P,SP1,2,2*%
%TO.N,BUZZER*%
X229870000Y-120650000D03*
%TD*%
D34*
%TO.P,CON2,1*%
%TO.N,/VCCEXT*%
X161956000Y-85021500D03*
D35*
%TO.P,CON2,2*%
%TO.N,GND*%
X155956000Y-85021500D03*
D36*
%TO.P,CON2,3*%
X158956000Y-89721500D03*
%TD*%
D20*
%TO.P,D4,1,K*%
%TO.N,LED1*%
X157286500Y-121031000D03*
%TO.P,D4,2,A*%
%TO.N,Net-(D4-A)*%
X160086500Y-121031000D03*
%TD*%
D26*
%TO.P,U1,1,GND*%
%TO.N,GND*%
X191770000Y-73660000D03*
%TO.P,U1,2,VO*%
%TO.N,+1V2*%
X191770000Y-75960000D03*
D27*
X198070000Y-75960000D03*
D26*
%TO.P,U1,3,VI*%
%TO.N,+3V3*%
X191770000Y-78260000D03*
%TD*%
D15*
%TO.P,R4,1*%
%TO.N,Net-(U5D-RSET)*%
X228092000Y-102766500D03*
%TO.P,R4,2*%
%TO.N,GND*%
X228092000Y-100941500D03*
%TD*%
%TO.P,R23,1*%
%TO.N,+3V3*%
X182880000Y-82827500D03*
%TO.P,R23,2*%
%TO.N,Net-(U6-IO2)*%
X182880000Y-81002500D03*
%TD*%
D37*
%TO.P,U2,1,VCCIO_2*%
%TO.N,+3V3*%
X197792500Y-98280000D03*
%TO.P,U2,2,IOB_6a*%
%TO.N,USER4*%
X197792500Y-98780000D03*
%TO.P,U2,3,IOB_9b*%
%TO.N,USER5*%
X197792500Y-99280000D03*
%TO.P,U2,4,IOB_8a*%
%TO.N,BUZZER*%
X197792500Y-99780000D03*
%TO.P,U2,5,VCC*%
%TO.N,+1V2*%
X197792500Y-100280000D03*
%TO.P,U2,6,IOB_13b*%
%TO.N,unconnected-(U2B-IOB_13b-Pad6)*%
X197792500Y-100780000D03*
%TO.P,U2,7,CDONE*%
%TO.N,/CDONE*%
X197792500Y-101280000D03*
%TO.P,U2,8,~{CRESET}*%
%TO.N,/~{CRESET_B}*%
X197792500Y-101780000D03*
%TO.P,U2,9,IOB_16a*%
%TO.N,HSYNC*%
X197792500Y-102280000D03*
%TO.P,U2,10,IOB_18a*%
%TO.N,VSYNC*%
X197792500Y-102780000D03*
%TO.P,U2,11,IOB_20a*%
%TO.N,DACCLK*%
X197792500Y-103280000D03*
%TO.P,U2,12,IOB_22a*%
%TO.N,BLUE3*%
X197792500Y-103780000D03*
D38*
%TO.P,U2,13,IOB_24a*%
%TO.N,BLUE2*%
X198480000Y-104467500D03*
%TO.P,U2,14,IOB_32a_SPI_SO*%
%TO.N,/ICE_MISO*%
X198980000Y-104467500D03*
%TO.P,U2,15,IOB_34a_SPI_SCK*%
%TO.N,/ICE_SCK*%
X199480000Y-104467500D03*
%TO.P,U2,16,IOB_35b_SPI_SS*%
%TO.N,/ICE_SS*%
X199980000Y-104467500D03*
%TO.P,U2,17,IOB_33b_SPI_SI*%
%TO.N,/ICE_MOSI*%
X200480000Y-104467500D03*
%TO.P,U2,18,IOB_31b*%
%TO.N,BLUE1*%
X200980000Y-104467500D03*
%TO.P,U2,19,IOB_29b*%
%TO.N,BLUE0*%
X201480000Y-104467500D03*
%TO.P,U2,20,IOB_25b_G3*%
%TO.N,~{VGABLANK}*%
X201980000Y-104467500D03*
%TO.P,U2,21,IOB_23b*%
%TO.N,GREEN3*%
X202480000Y-104467500D03*
%TO.P,U2,22,SPI_VCCIO1*%
%TO.N,+3V3*%
X202980000Y-104467500D03*
%TO.P,U2,23,IOT_37a*%
%TO.N,GREEN2*%
X203480000Y-104467500D03*
%TO.P,U2,24,VPP_2V5*%
%TO.N,/VPP_2V5*%
X203980000Y-104467500D03*
D37*
%TO.P,U2,25,IOT_36b*%
%TO.N,GREEN1*%
X204667500Y-103780000D03*
%TO.P,U2,26,IOT_39a*%
%TO.N,GREEN0*%
X204667500Y-103280000D03*
%TO.P,U2,27,IOT_38b*%
%TO.N,RED3*%
X204667500Y-102780000D03*
%TO.P,U2,28,IOT_41a*%
%TO.N,RED2*%
X204667500Y-102280000D03*
%TO.P,U2,29,VCCPLL*%
%TO.N,Net-(U2D-VCCPLL)*%
X204667500Y-101780000D03*
%TO.P,U2,30,VCC*%
%TO.N,+1V2*%
X204667500Y-101280000D03*
%TO.P,U2,31,IOT_42b*%
%TO.N,RED1*%
X204667500Y-100780000D03*
%TO.P,U2,32,IOT_43a*%
%TO.N,RED0*%
X204667500Y-100280000D03*
%TO.P,U2,33,VCCIO_0*%
%TO.N,+3V3*%
X204667500Y-99780000D03*
%TO.P,U2,34,IOT_44b*%
%TO.N,PS2BCLK*%
X204667500Y-99280000D03*
%TO.P,U2,35,IOT_46b_G0*%
%TO.N,PS2BDATA*%
X204667500Y-98780000D03*
%TO.P,U2,36,IOT_48b*%
%TO.N,PS2ADATA*%
X204667500Y-98280000D03*
D38*
%TO.P,U2,37,IOT_45a_G1*%
%TO.N,PS2ACLK*%
X203980000Y-97592500D03*
%TO.P,U2,38,IOT_50b*%
%TO.N,BUTTON0*%
X203480000Y-97592500D03*
%TO.P,U2,39,RGB0*%
%TO.N,LED0*%
X202980000Y-97592500D03*
%TO.P,U2,40,RGB1*%
%TO.N,LED1*%
X202480000Y-97592500D03*
%TO.P,U2,41,RGB2*%
%TO.N,LED2*%
X201980000Y-97592500D03*
%TO.P,U2,42,IOT_51a*%
%TO.N,I2C_SDA*%
X201480000Y-97592500D03*
%TO.P,U2,43,IOT_49a*%
%TO.N,I2C_SCL*%
X200980000Y-97592500D03*
%TO.P,U2,44,IOB_3b_G6*%
%TO.N,GLOBAL_CLK*%
X200480000Y-97592500D03*
%TO.P,U2,45,IOB_5b*%
%TO.N,USER0*%
X199980000Y-97592500D03*
%TO.P,U2,46,IOB_0a*%
%TO.N,USER1*%
X199480000Y-97592500D03*
%TO.P,U2,47,IOB_2a*%
%TO.N,USER2*%
X198980000Y-97592500D03*
%TO.P,U2,48,IOB_4a*%
%TO.N,USER3*%
X198480000Y-97592500D03*
D39*
%TO.P,U2,49,GND*%
%TO.N,GND*%
X201230000Y-101030000D03*
%TD*%
D40*
%TO.P,U3,1,32KHZ*%
%TO.N,unconnected-(U3-32KHZ-Pad1)*%
X175690000Y-115570000D03*
%TO.P,U3,2,VCC*%
%TO.N,+3V3*%
X175690000Y-116840000D03*
%TO.P,U3,3,~{INT}/SQW*%
%TO.N,RTCSQWAVE*%
X175690000Y-118110000D03*
%TO.P,U3,4,~{RST}*%
%TO.N,unconnected-(U3-~{RST}-Pad4)*%
X175690000Y-119380000D03*
%TO.P,U3,5,GND*%
%TO.N,GND*%
X175690000Y-120650000D03*
%TO.P,U3,6,GND*%
X175690000Y-121920000D03*
%TO.P,U3,7,GND*%
X175690000Y-123190000D03*
%TO.P,U3,8,GND*%
X175690000Y-124460000D03*
%TO.P,U3,9,GND*%
X184990000Y-124460000D03*
%TO.P,U3,10,GND*%
X184990000Y-123190000D03*
%TO.P,U3,11,GND*%
X184990000Y-121920000D03*
%TO.P,U3,12,GND*%
X184990000Y-120650000D03*
%TO.P,U3,13,GND*%
X184990000Y-119380000D03*
%TO.P,U3,14,VBAT*%
%TO.N,/Other/VBAT*%
X184990000Y-118110000D03*
%TO.P,U3,15,SDA*%
%TO.N,I2C_SDA*%
X184990000Y-116840000D03*
%TO.P,U3,16,SCL*%
%TO.N,I2C_SCL*%
X184990000Y-115570000D03*
%TD*%
D41*
%TO.P,U5,1,G0*%
%TO.N,GND*%
X218752500Y-104847500D03*
%TO.P,U5,2,G1*%
X218752500Y-105347500D03*
%TO.P,U5,3,G2*%
X218752500Y-105847500D03*
%TO.P,U5,4,G3*%
X218752500Y-106347500D03*
%TO.P,U5,5,G4*%
X218752500Y-106847500D03*
%TO.P,U5,6,G5*%
X218752500Y-107347500D03*
%TO.P,U5,7,G6*%
%TO.N,GREEN0*%
X218752500Y-107847500D03*
%TO.P,U5,8,G7*%
%TO.N,GREEN1*%
X218752500Y-108347500D03*
%TO.P,U5,9,G8*%
%TO.N,GREEN2*%
X218752500Y-108847500D03*
%TO.P,U5,10,G9*%
%TO.N,GREEN3*%
X218752500Y-109347500D03*
%TO.P,U5,11,~{BLANK}*%
%TO.N,~{VGABLANK}*%
X218752500Y-109847500D03*
%TO.P,U5,12,~{SYNC}*%
%TO.N,GND*%
X218752500Y-110347500D03*
D42*
%TO.P,U5,13,VAA*%
%TO.N,+3.3VDAC*%
X220165000Y-111760000D03*
%TO.P,U5,14,B0*%
%TO.N,GND*%
X220665000Y-111760000D03*
%TO.P,U5,15,B1*%
X221165000Y-111760000D03*
%TO.P,U5,16,B2*%
X221665000Y-111760000D03*
%TO.P,U5,17,B3*%
X222165000Y-111760000D03*
%TO.P,U5,18,B4*%
X222665000Y-111760000D03*
%TO.P,U5,19,B5*%
X223165000Y-111760000D03*
%TO.P,U5,20,B6*%
%TO.N,BLUE0*%
X223665000Y-111760000D03*
%TO.P,U5,21,B7*%
%TO.N,BLUE1*%
X224165000Y-111760000D03*
%TO.P,U5,22,B8*%
%TO.N,BLUE2*%
X224665000Y-111760000D03*
%TO.P,U5,23,B9*%
%TO.N,BLUE3*%
X225165000Y-111760000D03*
%TO.P,U5,24,CLOCK*%
%TO.N,DACCLK*%
X225665000Y-111760000D03*
D41*
%TO.P,U5,25,GND*%
%TO.N,GND*%
X227077500Y-110347500D03*
%TO.P,U5,26,GND*%
X227077500Y-109847500D03*
%TO.P,U5,27,~{IOB}*%
X227077500Y-109347500D03*
%TO.P,U5,28,IOB*%
%TO.N,BLUE*%
X227077500Y-108847500D03*
%TO.P,U5,29,VAA*%
%TO.N,+3.3VDAC*%
X227077500Y-108347500D03*
%TO.P,U5,30,VAA*%
X227077500Y-107847500D03*
%TO.P,U5,31,~{IOG}*%
%TO.N,GND*%
X227077500Y-107347500D03*
%TO.P,U5,32,IOG*%
%TO.N,GREEN*%
X227077500Y-106847500D03*
%TO.P,U5,33,~{IOR}*%
%TO.N,GND*%
X227077500Y-106347500D03*
%TO.P,U5,34,IOR*%
%TO.N,RED*%
X227077500Y-105847500D03*
%TO.P,U5,35,COMP*%
%TO.N,Net-(U5D-COMP)*%
X227077500Y-105347500D03*
%TO.P,U5,36,VREF*%
%TO.N,Net-(U5D-VREF)*%
X227077500Y-104847500D03*
D42*
%TO.P,U5,37,RSET*%
%TO.N,Net-(U5D-RSET)*%
X225665000Y-103435000D03*
%TO.P,U5,38,~{PSAVE}*%
%TO.N,Net-(U5D-~{PSAVE})*%
X225165000Y-103435000D03*
%TO.P,U5,39,R0*%
%TO.N,GND*%
X224665000Y-103435000D03*
%TO.P,U5,40,R1*%
X224165000Y-103435000D03*
%TO.P,U5,41,R2*%
X223665000Y-103435000D03*
%TO.P,U5,42,R3*%
X223165000Y-103435000D03*
%TO.P,U5,43,R4*%
X222665000Y-103435000D03*
%TO.P,U5,44,R5*%
X222165000Y-103435000D03*
%TO.P,U5,45,R6*%
%TO.N,RED0*%
X221665000Y-103435000D03*
%TO.P,U5,46,R7*%
%TO.N,RED1*%
X221165000Y-103435000D03*
%TO.P,U5,47,R8*%
%TO.N,RED2*%
X220665000Y-103435000D03*
%TO.P,U5,48,R9*%
%TO.N,RED3*%
X220165000Y-103435000D03*
%TD*%
D12*
%TO.P,J1,1,Pin_1*%
%TO.N,Net-(D2-K)*%
X209550000Y-85090000D03*
D13*
%TO.P,J1,2,Pin_2*%
%TO.N,/CDONE*%
X212090000Y-85090000D03*
%TD*%
D12*
%TO.P,J6,1,Pin_1*%
%TO.N,/FLASH_MOSI*%
X213360000Y-89535000D03*
D13*
%TO.P,J6,2,Pin_2*%
%TO.N,/ICE_MISO*%
X215900000Y-89535000D03*
%TO.P,J6,3,Pin_3*%
%TO.N,/ICE_MOSI*%
X213360000Y-92075000D03*
%TO.P,J6,4,Pin_4*%
%TO.N,/FLASH_MISO*%
X215900000Y-92075000D03*
%TD*%
D20*
%TO.P,D5,1,K*%
%TO.N,LED2*%
X157286500Y-124460000D03*
%TO.P,D5,2,A*%
%TO.N,Net-(D5-A)*%
X160086500Y-124460000D03*
%TD*%
D43*
%TO.P,C31,1*%
%TO.N,/VCCEXTI*%
X166370000Y-86680000D03*
%TO.P,C31,2*%
%TO.N,GND*%
X166370000Y-88580000D03*
%TD*%
D12*
%TO.P,J9,1,Pin_1*%
%TO.N,+3V3*%
X166370000Y-124460000D03*
D13*
%TO.P,J9,2,Pin_2*%
%TO.N,I2C_SDA*%
X166370000Y-127000000D03*
%TO.P,J9,3,Pin_3*%
%TO.N,I2C_SCL*%
X166370000Y-129540000D03*
%TO.P,J9,4,Pin_4*%
%TO.N,GND*%
X166370000Y-132080000D03*
%TD*%
D16*
%TO.P,R3,1*%
%TO.N,+3V3*%
X203430500Y-80010000D03*
%TO.P,R3,2*%
%TO.N,/~{CRESET_B}*%
X205255500Y-80010000D03*
%TD*%
D44*
%TO.P,C30,1*%
%TO.N,/VCCEXT*%
X162240000Y-100330000D03*
%TO.P,C30,2*%
%TO.N,GND*%
X160340000Y-100330000D03*
%TD*%
D45*
%TO.P,J2,0*%
%TO.N,GND*%
X243160669Y-122434669D03*
X243160669Y-97434669D03*
D22*
%TO.P,J2,1*%
%TO.N,RED*%
X241110669Y-105619669D03*
D23*
%TO.P,J2,2*%
%TO.N,GREEN*%
X241110669Y-107909669D03*
%TO.P,J2,3*%
%TO.N,BLUE*%
X241110669Y-110199669D03*
%TO.P,J2,4*%
%TO.N,unconnected-(J2-Pad4)*%
X241110669Y-112489669D03*
%TO.P,J2,5*%
%TO.N,GND*%
X241110669Y-114779669D03*
%TO.P,J2,6*%
X243090669Y-104474669D03*
%TO.P,J2,7*%
X243090669Y-106764669D03*
%TO.P,J2,8*%
X243090669Y-109054669D03*
%TO.P,J2,9*%
%TO.N,unconnected-(J2-Pad9)*%
X243090669Y-111344669D03*
%TO.P,J2,10*%
%TO.N,GND*%
X243090669Y-113634669D03*
%TO.P,J2,11*%
%TO.N,unconnected-(J2-Pad11)*%
X245070669Y-105619669D03*
%TO.P,J2,12*%
%TO.N,unconnected-(J2-Pad12)*%
X245070669Y-107909669D03*
%TO.P,J2,13*%
%TO.N,Net-(J2-Pad13)*%
X245070669Y-110199669D03*
%TO.P,J2,14*%
%TO.N,Net-(J2-Pad14)*%
X245070669Y-112489669D03*
%TO.P,J2,15*%
%TO.N,unconnected-(J2-Pad15)*%
X245070669Y-114779669D03*
%TD*%
D46*
%TO.P,R22,1*%
%TO.N,+3V3*%
X187960000Y-81002500D03*
%TO.P,R22,2*%
%TO.N,Net-(U6-IO3)*%
X187960000Y-82827500D03*
%TD*%
D16*
%TO.P,R1,1*%
%TO.N,RED*%
X230227500Y-102870000D03*
%TO.P,R1,2*%
%TO.N,GND*%
X232052500Y-102870000D03*
%TD*%
D47*
%TO.P,C29,1*%
%TO.N,/VCCEXT*%
X163990000Y-95631000D03*
%TO.P,C29,2*%
%TO.N,GND*%
X158590000Y-95631000D03*
%TD*%
D48*
%TO.P,U7,1,A0*%
%TO.N,GND*%
X176165000Y-127254000D03*
%TO.P,U7,2,A1*%
X176165000Y-128524000D03*
%TO.P,U7,3,A2*%
X176165000Y-129794000D03*
%TO.P,U7,4,GND*%
X176165000Y-131064000D03*
%TO.P,U7,5,SDA*%
%TO.N,I2C_SDA*%
X181115000Y-131064000D03*
%TO.P,U7,6,SCL*%
%TO.N,I2C_SCL*%
X181115000Y-129794000D03*
%TO.P,U7,7,WP*%
%TO.N,GND*%
X181115000Y-128524000D03*
%TO.P,U7,8,VCC*%
%TO.N,+3V3*%
X181115000Y-127254000D03*
%TD*%
D49*
%TO.N,GND*%
X157480000Y-97790000D03*
X170180000Y-103632000D03*
X162052000Y-103632000D03*
X224155000Y-102108000D03*
X228219000Y-110363000D03*
X228727000Y-106172000D03*
X168148000Y-103632000D03*
X196469000Y-78105000D03*
X200533000Y-92329000D03*
X201676000Y-107569000D03*
X186182000Y-77978000D03*
X218752500Y-111056500D03*
X183642000Y-73406000D03*
X200152000Y-102870000D03*
X157480000Y-100330000D03*
X203073000Y-99187000D03*
X233426000Y-110490000D03*
X233299000Y-106680000D03*
X154940000Y-95250000D03*
X185420000Y-88900000D03*
X217424000Y-106807000D03*
X157480000Y-102870000D03*
X217424000Y-105283000D03*
X228727000Y-107569000D03*
X193802000Y-73406000D03*
X158242000Y-112522000D03*
X201676000Y-102870000D03*
X196723000Y-96012000D03*
X200152000Y-99187000D03*
X154940000Y-92710000D03*
X174244000Y-103632000D03*
X221107000Y-113030000D03*
X203581000Y-102870000D03*
X202184000Y-82169000D03*
X204470000Y-92456000D03*
X191213000Y-124460000D03*
X183007000Y-72898000D03*
X222631000Y-102108000D03*
X154940000Y-97790000D03*
X216154000Y-120650000D03*
X159512000Y-103632000D03*
X195580000Y-93919000D03*
X201676000Y-99187000D03*
X166116000Y-103632000D03*
X208026000Y-96012000D03*
X222631000Y-113030000D03*
X164084000Y-103632000D03*
X203073000Y-100203000D03*
X178640000Y-131064000D03*
X185166000Y-77978000D03*
X195326000Y-78105000D03*
X233299000Y-102870000D03*
X154940000Y-100330000D03*
X199136000Y-100203000D03*
X180340000Y-124460000D03*
X172212000Y-103632000D03*
X154940000Y-90170000D03*
X193167000Y-72898000D03*
X154940000Y-102870000D03*
%TO.N,+3V3*%
X178640000Y-127254000D03*
X186537500Y-129159000D03*
X156083000Y-124460000D03*
X187833000Y-73152000D03*
X156210000Y-110490000D03*
X188722000Y-72898000D03*
X202438000Y-74930000D03*
X196723000Y-98171000D03*
X189865000Y-77978000D03*
X195580000Y-88755000D03*
X202184000Y-80010000D03*
X193167000Y-78994000D03*
X194310000Y-91760000D03*
X189611000Y-73914000D03*
X205359000Y-106807000D03*
X186817000Y-72898000D03*
X189611000Y-72009000D03*
X187833000Y-71247000D03*
X180340000Y-116840000D03*
X222377000Y-107696000D03*
X156083000Y-121031000D03*
X185420000Y-85090000D03*
X189611000Y-76708000D03*
X186817000Y-71247000D03*
X188849000Y-71247000D03*
X188976000Y-89662000D03*
X189611000Y-75565000D03*
X172339000Y-121412000D03*
X208026000Y-99060000D03*
X156146500Y-117602000D03*
X193802000Y-78486000D03*
X201803000Y-85090000D03*
X189865000Y-78867000D03*
%TO.N,+1V2*%
X193802000Y-100330000D03*
X199898000Y-75184000D03*
X199263000Y-72898000D03*
X202692000Y-94615000D03*
X208153000Y-100965000D03*
X197358000Y-72898000D03*
X198247000Y-72898000D03*
X199898000Y-77470000D03*
X199898000Y-76454000D03*
X199898000Y-73914000D03*
D50*
%TO.N,/VPP_2V5*%
X207200500Y-107124500D03*
D51*
%TO.N,+5V*%
X183642000Y-78486000D03*
X183007000Y-78994000D03*
X230251000Y-68199000D03*
X222377000Y-68199000D03*
X226314000Y-68199000D03*
D50*
%TO.N,Net-(U5D-COMP)*%
X224790000Y-105283000D03*
D49*
%TO.N,+3.3VDAC*%
X220165000Y-109982000D03*
X225806000Y-108458000D03*
D50*
%TO.N,Net-(U5D-VREF)*%
X227076000Y-104013000D03*
%TO.N,Net-(D3-A)*%
X161798000Y-117602000D03*
%TO.N,Net-(D4-A)*%
X161925000Y-121031000D03*
%TO.N,Net-(D5-A)*%
X161798000Y-124460000D03*
%TO.N,/CDONE*%
X191643000Y-101092000D03*
%TO.N,/~{CRESET_B}*%
X192278000Y-101727000D03*
%TO.N,/ICE_SS*%
X201930000Y-110998000D03*
%TO.N,/ICE_MISO*%
X204470000Y-112395000D03*
%TO.N,/ICE_MOSI*%
X204470000Y-111633000D03*
%TO.N,/FLASH_MISO*%
X191389000Y-84963000D03*
%TO.N,/ICE_SCK*%
X201930000Y-111760000D03*
X189357000Y-87503000D03*
%TO.N,Net-(U2D-VCCPLL)*%
X206121000Y-101981000D03*
%TO.N,Net-(U5D-~{PSAVE})*%
X225552000Y-102108000D03*
%TO.N,HSYNC*%
X190373000Y-102362000D03*
%TO.N,VSYNC*%
X191770000Y-102870000D03*
%TO.N,PS2BCLK*%
X235458000Y-91440000D03*
%TO.N,PS2BDATA*%
X232410000Y-87630000D03*
%TO.N,PS2ADATA*%
X232410000Y-83185000D03*
%TO.N,PS2ACLK*%
X235585000Y-78740000D03*
%TO.N,BUTTON0*%
X158242000Y-108522000D03*
%TO.N,BUZZER*%
X189611000Y-99695000D03*
%TD*%
D52*
%TO.N,/Other/VBAT*%
X182069000Y-117475000D02*
X182704000Y-118110000D01*
X202389000Y-116459000D02*
X197436000Y-116459000D01*
X182577000Y-114173000D02*
X182069000Y-114681000D01*
X182069000Y-114681000D02*
X182069000Y-117475000D01*
X195303000Y-114173000D02*
X182577000Y-114173000D01*
X182704000Y-118110000D02*
X184912000Y-118110000D01*
X202490000Y-132360000D02*
X204294000Y-130556000D01*
X197690000Y-116560000D02*
X195303000Y-114173000D01*
X197690000Y-132360000D02*
X202490000Y-132360000D01*
X204294000Y-118364000D02*
X202389000Y-116459000D01*
X204294000Y-130556000D02*
X204294000Y-118364000D01*
D53*
%TO.N,GND*%
X224155000Y-102108000D02*
X225321500Y-100941500D01*
X217464500Y-106847500D02*
X218752500Y-106847500D01*
X222165000Y-112564000D02*
X222631000Y-113030000D01*
X217424000Y-106299000D02*
X217424000Y-105918000D01*
X218752500Y-105847500D02*
X217494500Y-105847500D01*
X221665000Y-112980000D02*
X221615000Y-113030000D01*
X228092500Y-109347500D02*
X228219000Y-109474000D01*
X221615000Y-113030000D02*
X222631000Y-113030000D01*
X217494500Y-105847500D02*
X217424000Y-105918000D01*
X179656000Y-128524000D02*
X178640000Y-129540000D01*
X217964500Y-107347500D02*
X218752500Y-107347500D01*
X221107000Y-113030000D02*
X221165000Y-112972000D01*
X222631000Y-102108000D02*
X222665000Y-102142000D01*
X185420000Y-88900000D02*
X182880000Y-88900000D01*
X178640000Y-131064000D02*
X176227000Y-131064000D01*
X217424000Y-106807000D02*
X217964500Y-107347500D01*
X224155000Y-102108000D02*
X224165000Y-102118000D01*
X217424000Y-106807000D02*
X217424000Y-106299000D01*
X176165000Y-131064000D02*
X176165000Y-129732000D01*
X223647000Y-102108000D02*
X223266000Y-102108000D01*
X203430500Y-82169000D02*
X202184000Y-82169000D01*
X223665000Y-102126000D02*
X223647000Y-102108000D01*
X221665000Y-111760000D02*
X221665000Y-112980000D01*
X227077500Y-107347500D02*
X228505500Y-107347500D01*
X184990000Y-123239000D02*
X185039000Y-123190000D01*
X161210500Y-112522000D02*
X158242000Y-112522000D01*
X180340000Y-124460000D02*
X175641000Y-124460000D01*
X195791000Y-93919000D02*
X196850000Y-92860000D01*
X176165000Y-129794000D02*
X176165000Y-128586000D01*
X227957500Y-109847500D02*
X228219000Y-110109000D01*
X223165000Y-102209000D02*
X223266000Y-102108000D01*
X232052500Y-110490000D02*
X233426000Y-110490000D01*
X223165000Y-112496000D02*
X222631000Y-113030000D01*
X222165000Y-111760000D02*
X222165000Y-112564000D01*
X228505500Y-107347500D02*
X228727000Y-107569000D01*
X218752500Y-106347500D02*
X217472500Y-106347500D01*
X178640000Y-129540000D02*
X178640000Y-131064000D01*
X175690000Y-121920000D02*
X175690000Y-120855000D01*
X217859500Y-104847500D02*
X218752500Y-104847500D01*
X175690000Y-124460000D02*
X175690000Y-123239000D01*
X217488500Y-105347500D02*
X218752500Y-105347500D01*
X155273500Y-112522000D02*
X155241500Y-112554000D01*
X217424000Y-105283000D02*
X217859500Y-104847500D01*
X227077500Y-106347500D02*
X228551500Y-106347500D01*
X222665000Y-102142000D02*
X222665000Y-103435000D01*
X176165000Y-128524000D02*
X176165000Y-127316000D01*
X223266000Y-102108000D02*
X222631000Y-102108000D01*
X185039000Y-120777000D02*
X185039000Y-119507000D01*
X224155000Y-102108000D02*
X224665000Y-102618000D01*
X228551500Y-106347500D02*
X228727000Y-106172000D01*
X228203500Y-110347500D02*
X228219000Y-110363000D01*
X223165000Y-111760000D02*
X223165000Y-112496000D01*
X223665000Y-103435000D02*
X223665000Y-102126000D01*
X221165000Y-112972000D02*
X221165000Y-111760000D01*
X185039000Y-121920000D02*
X185039000Y-120777000D01*
X158242000Y-112522000D02*
X155273500Y-112522000D01*
X222165000Y-102574000D02*
X222165000Y-103435000D01*
X227077500Y-109847500D02*
X227957500Y-109847500D01*
X227077500Y-109347500D02*
X228092500Y-109347500D01*
X232052500Y-106680000D02*
X233299000Y-106680000D01*
X222665000Y-112996000D02*
X222631000Y-113030000D01*
X185039000Y-123190000D02*
X185039000Y-121920000D01*
X228219000Y-110109000D02*
X228219000Y-110363000D01*
X184990000Y-124460000D02*
X180340000Y-124460000D01*
X184990000Y-124460000D02*
X184990000Y-123239000D01*
X232052500Y-102870000D02*
X233299000Y-102870000D01*
X221107000Y-113030000D02*
X221615000Y-113030000D01*
X217424000Y-105283000D02*
X217488500Y-105347500D01*
X217472500Y-106347500D02*
X217424000Y-106299000D01*
X227077500Y-110347500D02*
X228203500Y-110347500D01*
X224165000Y-102118000D02*
X224165000Y-103435000D01*
X225321500Y-100941500D02*
X228092000Y-100941500D01*
X222665000Y-111760000D02*
X222665000Y-112996000D01*
X220665000Y-112588000D02*
X220665000Y-111760000D01*
X217424000Y-106807000D02*
X217464500Y-106847500D01*
X223165000Y-103435000D02*
X223165000Y-102209000D01*
X222631000Y-102108000D02*
X222165000Y-102574000D01*
X224155000Y-102108000D02*
X223647000Y-102108000D01*
X197690000Y-124460000D02*
X191213000Y-124460000D01*
X217424000Y-105918000D02*
X217424000Y-105283000D01*
X181115000Y-128524000D02*
X179656000Y-128524000D01*
X224665000Y-102618000D02*
X224665000Y-103435000D01*
X228219000Y-109474000D02*
X228219000Y-110363000D01*
X221107000Y-113030000D02*
X220665000Y-112588000D01*
X218752500Y-111056500D02*
X218752500Y-110347500D01*
X175690000Y-123190000D02*
X175690000Y-121998000D01*
X175690000Y-120855000D02*
X175768000Y-120777000D01*
X195580000Y-93919000D02*
X195791000Y-93919000D01*
%TO.N,+3V3*%
X186537500Y-127865500D02*
X186641000Y-127762000D01*
X205359000Y-106807000D02*
X204597000Y-106807000D01*
X186537500Y-130429000D02*
X186537500Y-127865500D01*
X188073000Y-75960000D02*
X188214000Y-75819000D01*
X208026000Y-99060000D02*
X206375000Y-99060000D01*
X205655000Y-99780000D02*
X204667500Y-99780000D01*
X185420000Y-85090000D02*
X187960000Y-85090000D01*
X185420000Y-83542500D02*
X185420000Y-85090000D01*
X178640000Y-127254000D02*
X181434000Y-127254000D01*
X203430500Y-80010000D02*
X202184000Y-80010000D01*
X175690000Y-116840000D02*
X180340000Y-116840000D01*
X196850000Y-98298000D02*
X197612000Y-98298000D01*
X202980000Y-105190000D02*
X202980000Y-104467500D01*
X195580000Y-88755000D02*
X194310000Y-90025000D01*
X206375000Y-99060000D02*
X205655000Y-99780000D01*
X204597000Y-106807000D02*
X202980000Y-105190000D01*
X194310000Y-90660000D02*
X194310000Y-93200000D01*
X182880000Y-82827500D02*
X185142500Y-85090000D01*
X194310000Y-90025000D02*
X194310000Y-90660000D01*
X172339000Y-120419500D02*
X172339000Y-121412000D01*
X187960000Y-81002500D02*
X185420000Y-83542500D01*
X196723000Y-98171000D02*
X196850000Y-98298000D01*
X203070000Y-85090000D02*
X201803000Y-85090000D01*
X185142500Y-85090000D02*
X185420000Y-85090000D01*
%TO.N,+1V2*%
X197048000Y-100280000D02*
X197792500Y-100280000D01*
X208026000Y-100965000D02*
X207711000Y-101280000D01*
X193802000Y-100330000D02*
X196998000Y-100330000D01*
X196998000Y-100330000D02*
X197048000Y-100280000D01*
X191657000Y-75960000D02*
X191643000Y-75946000D01*
X208153000Y-100965000D02*
X208026000Y-100965000D01*
X207711000Y-101280000D02*
X204667500Y-101280000D01*
D54*
%TO.N,/VPP_2V5*%
X207137000Y-107061000D02*
X207137000Y-106807000D01*
X207137000Y-106807000D02*
X204851000Y-104521000D01*
X207200500Y-107124500D02*
X207137000Y-107061000D01*
X204851000Y-104521000D02*
X203962000Y-104521000D01*
D55*
%TO.N,+5V*%
X230251000Y-68199000D02*
X222377000Y-68199000D01*
X177419000Y-70358000D02*
X177419000Y-78232000D01*
X169250000Y-97790000D02*
X169250000Y-92370000D01*
X177419000Y-88138000D02*
X177419000Y-78232000D01*
X179578000Y-68199000D02*
X177419000Y-70358000D01*
X177419000Y-78232000D02*
X181483000Y-78232000D01*
X222377000Y-68199000D02*
X179578000Y-68199000D01*
X170180000Y-91440000D02*
X174117000Y-91440000D01*
X169250000Y-92370000D02*
X170180000Y-91440000D01*
X181892000Y-78260000D02*
X181610000Y-78260000D01*
X174117000Y-91440000D02*
X177419000Y-88138000D01*
D54*
%TO.N,Net-(U5D-COMP)*%
X225870500Y-105347500D02*
X225806000Y-105283000D01*
X225806000Y-105283000D02*
X224790000Y-105283000D01*
X227077500Y-105347500D02*
X225870500Y-105347500D01*
D56*
%TO.N,+3.3VDAC*%
X225806000Y-108458000D02*
X225916500Y-108347500D01*
X220165000Y-109855000D02*
X220165000Y-111760000D01*
X226416500Y-107847500D02*
X227077500Y-107847500D01*
X225806000Y-108458000D02*
X226416500Y-107847500D01*
X225916500Y-108347500D02*
X227077500Y-108347500D01*
D54*
%TO.N,Net-(U5D-VREF)*%
X227076000Y-104013000D02*
X227076000Y-104902000D01*
%TO.N,Net-(D2-K)*%
X205255500Y-82169000D02*
X205740000Y-82653500D01*
X205740000Y-82653500D02*
X205740000Y-84709000D01*
X205740000Y-85090000D02*
X209550000Y-85090000D01*
%TO.N,Net-(D3-A)*%
X161861500Y-117602000D02*
X159956500Y-117602000D01*
%TO.N,LED0*%
X193675000Y-86487000D02*
X198658816Y-86487000D01*
X178562000Y-106426000D02*
X178562000Y-94107000D01*
X202946000Y-92964000D02*
X203962000Y-93980000D01*
X203962000Y-93980000D02*
X203962000Y-94615000D01*
X198658816Y-86487000D02*
X202946000Y-90774184D01*
X159258000Y-115697000D02*
X169291000Y-115697000D01*
X202946000Y-90774184D02*
X202946000Y-92964000D01*
X169291000Y-115697000D02*
X178562000Y-106426000D01*
X157286500Y-117602000D02*
X157353000Y-117602000D01*
X157353000Y-117602000D02*
X159258000Y-115697000D01*
X157670500Y-116713000D02*
X157670500Y-117729000D01*
X178562000Y-94107000D02*
X181102000Y-91567000D01*
X203962000Y-94615000D02*
X202980000Y-95597000D01*
X188595000Y-91567000D02*
X193675000Y-86487000D01*
X181102000Y-91567000D02*
X188595000Y-91567000D01*
X202980000Y-95597000D02*
X202980000Y-97592500D01*
%TO.N,Net-(D4-A)*%
X161798000Y-121031000D02*
X160528000Y-121031000D01*
%TO.N,LED1*%
X158432500Y-119405400D02*
X166217600Y-119405400D01*
X202480000Y-95292000D02*
X202480000Y-97592500D01*
X166217600Y-119405400D02*
X178943000Y-106680000D01*
X202057000Y-94284000D02*
X202057000Y-94869000D01*
X181356000Y-91948000D02*
X188753750Y-91948000D01*
X178943000Y-94361000D02*
X181356000Y-91948000D01*
X198374000Y-86868000D02*
X202361000Y-90855000D01*
X188753750Y-91948000D02*
X193833750Y-86868000D01*
X178943000Y-106680000D02*
X178943000Y-94361000D01*
X157286500Y-120551400D02*
X158432500Y-119405400D01*
X202361000Y-90855000D02*
X202361000Y-93980000D01*
X202361000Y-93980000D02*
X202057000Y-94284000D01*
X157286500Y-121031000D02*
X157286500Y-120551400D01*
X193833750Y-86868000D02*
X198374000Y-86868000D01*
X202057000Y-94869000D02*
X202480000Y-95292000D01*
%TO.N,Net-(D5-A)*%
X161798000Y-124460000D02*
X159893000Y-124460000D01*
%TO.N,LED2*%
X181610000Y-92329000D02*
X179324000Y-94615000D01*
X158369000Y-122682000D02*
X157286500Y-123764500D01*
X157286500Y-124460000D02*
X157286500Y-123891500D01*
X201980000Y-95554000D02*
X201676000Y-95250000D01*
X194056000Y-87249000D02*
X188976000Y-92329000D01*
X201980000Y-93549000D02*
X201980000Y-91109000D01*
X179324000Y-106934000D02*
X163576000Y-122682000D01*
X201676000Y-93853000D02*
X201980000Y-93549000D01*
X157286500Y-123764500D02*
X157286500Y-124460000D01*
X201980000Y-97592500D02*
X201980000Y-95554000D01*
X163576000Y-122682000D02*
X158369000Y-122682000D01*
X201676000Y-95250000D02*
X201676000Y-93853000D01*
X188976000Y-92329000D02*
X181610000Y-92329000D01*
X179324000Y-94615000D02*
X179324000Y-106934000D01*
X198120000Y-87249000D02*
X194056000Y-87249000D01*
X201980000Y-91109000D02*
X198120000Y-87249000D01*
%TO.N,/CDONE*%
X193040000Y-101092000D02*
X191643000Y-101092000D01*
X193228000Y-101280000D02*
X193040000Y-101092000D01*
X197792500Y-101280000D02*
X193228000Y-101280000D01*
%TO.N,RED*%
X230227500Y-103100500D02*
X231902000Y-104775000D01*
X231902000Y-104775000D02*
X233045000Y-104775000D01*
X233934000Y-105664000D02*
X241173000Y-105664000D01*
X230227500Y-102870000D02*
X230227500Y-103100500D01*
X228162500Y-105847500D02*
X230124000Y-103886000D01*
X227077500Y-105847500D02*
X228162500Y-105847500D01*
X230124000Y-103886000D02*
X230124000Y-102870000D01*
X233045000Y-104775000D02*
X233934000Y-105664000D01*
%TO.N,GREEN*%
X230083500Y-106847500D02*
X230124000Y-106807000D01*
X230251000Y-106680000D02*
X231521000Y-107950000D01*
X230227500Y-106680000D02*
X230251000Y-106680000D01*
X231521000Y-107950000D02*
X241046000Y-107950000D01*
X227077500Y-106847500D02*
X230083500Y-106847500D01*
%TO.N,BLUE*%
X227077500Y-108847500D02*
X228735500Y-108847500D01*
X231521000Y-111887000D02*
X239395000Y-111887000D01*
X230227500Y-110490000D02*
X230227500Y-110593500D01*
X239395000Y-111887000D02*
X241046000Y-110236000D01*
X230251000Y-110363000D02*
X230251000Y-110490000D01*
X230227500Y-110593500D02*
X231521000Y-111887000D01*
X228735500Y-108847500D02*
X230251000Y-110363000D01*
%TO.N,/~{CRESET_B}*%
X192331000Y-101780000D02*
X192278000Y-101727000D01*
X197792500Y-101780000D02*
X192331000Y-101780000D01*
X207264000Y-77978000D02*
X210185000Y-77978000D01*
X205255500Y-80010000D02*
X205255500Y-79986500D01*
X210185000Y-77978000D02*
X212090000Y-79883000D01*
X205255500Y-79986500D02*
X207264000Y-77978000D01*
%TO.N,/ICE_SS*%
X212090000Y-74930000D02*
X214630000Y-77470000D01*
X214630000Y-77470000D02*
X223520000Y-77470000D01*
X201549000Y-110998000D02*
X199898000Y-109347000D01*
X199898000Y-109347000D02*
X199898000Y-104549500D01*
X199898000Y-104549500D02*
X199980000Y-104467500D01*
X201930000Y-110998000D02*
X201549000Y-110998000D01*
%TO.N,Net-(J5-Pin_2)*%
X182795000Y-85090000D02*
X182753000Y-85090000D01*
X199009000Y-80137000D02*
X204216000Y-74930000D01*
X181737000Y-84074000D02*
X181737000Y-82296000D01*
X209296000Y-74930000D02*
X209423000Y-75057000D01*
X187071000Y-80137000D02*
X199009000Y-80137000D01*
X204216000Y-74930000D02*
X209296000Y-74930000D01*
X182753000Y-85090000D02*
X181737000Y-84074000D01*
X181737000Y-82296000D02*
X182118000Y-81915000D01*
X182118000Y-81915000D02*
X185293000Y-81915000D01*
X185293000Y-81915000D02*
X187071000Y-80137000D01*
%TO.N,/FLASH_MOSI*%
X188045000Y-88900000D02*
X189992000Y-88900000D01*
X199136000Y-85725000D02*
X203073000Y-89662000D01*
X213106000Y-89662000D02*
X213233000Y-89535000D01*
X193167000Y-85725000D02*
X199136000Y-85725000D01*
X213360000Y-89535000D02*
X217805000Y-85090000D01*
X189992000Y-88900000D02*
X193167000Y-85725000D01*
X203073000Y-89662000D02*
X213106000Y-89662000D01*
X217805000Y-85090000D02*
X223520000Y-85090000D01*
%TO.N,/ICE_MISO*%
X201676000Y-112395000D02*
X198980000Y-109699000D01*
X198980000Y-109699000D02*
X198980000Y-104467500D01*
X204470000Y-112395000D02*
X201676000Y-112395000D01*
%TO.N,/ICE_MOSI*%
X202184000Y-110363000D02*
X203454000Y-111633000D01*
X200480000Y-104467500D02*
X200480000Y-109294000D01*
X200480000Y-109294000D02*
X201549000Y-110363000D01*
X201549000Y-110363000D02*
X202184000Y-110363000D01*
X203454000Y-111633000D02*
X204470000Y-111633000D01*
%TO.N,/FLASH_MISO*%
X183642000Y-86360000D02*
X184227750Y-86945750D01*
X189406250Y-86945750D02*
X191389000Y-84963000D01*
X221869000Y-86360000D02*
X224663000Y-86360000D01*
X182795000Y-86360000D02*
X183642000Y-86360000D01*
X225298000Y-85725000D02*
X225298000Y-84201000D01*
X184227750Y-86945750D02*
X189406250Y-86945750D01*
X224663000Y-86360000D02*
X225298000Y-85725000D01*
X225298000Y-84201000D02*
X223647000Y-82550000D01*
X216154000Y-92075000D02*
X221869000Y-86360000D01*
X215900000Y-92075000D02*
X216154000Y-92075000D01*
%TO.N,/ICE_SCK*%
X188045000Y-87630000D02*
X187543125Y-87630000D01*
X199480000Y-109564000D02*
X199480000Y-104467500D01*
X201676000Y-111760000D02*
X199480000Y-109564000D01*
X188341000Y-87503000D02*
X188214000Y-87630000D01*
X189357000Y-87503000D02*
X188341000Y-87503000D01*
X201930000Y-111760000D02*
X201676000Y-111760000D01*
%TO.N,USER0*%
X182880000Y-96520000D02*
X184785000Y-94615000D01*
X184785000Y-94615000D02*
X198374000Y-94615000D01*
X199980000Y-96221000D02*
X199980000Y-97592500D01*
X198374000Y-94615000D02*
X199980000Y-96221000D01*
%TO.N,USER1*%
X199480000Y-96610000D02*
X198247000Y-95377000D01*
X199480000Y-97592500D02*
X199480000Y-96610000D01*
X186817000Y-95377000D02*
X183007000Y-99187000D01*
X183007000Y-99187000D02*
X182880000Y-99187000D01*
X198247000Y-95377000D02*
X186817000Y-95377000D01*
%TO.N,USER2*%
X198980000Y-97126000D02*
X198628000Y-96774000D01*
X187706000Y-96774000D02*
X198628000Y-96774000D01*
X182880000Y-101600000D02*
X187706000Y-96774000D01*
X198980000Y-97592500D02*
X198980000Y-97126000D01*
%TO.N,USER3*%
X182880000Y-104140000D02*
X189738000Y-97282000D01*
X198480000Y-97592500D02*
X198169500Y-97282000D01*
X189738000Y-97282000D02*
X198169500Y-97282000D01*
%TO.N,Net-(U2D-VCCPLL)*%
X205793000Y-101780000D02*
X204667500Y-101780000D01*
X205994000Y-101981000D02*
X205793000Y-101780000D01*
X206121000Y-101981000D02*
X205994000Y-101981000D01*
%TO.N,Net-(U5D-RSET)*%
X226925500Y-102766500D02*
X226187000Y-103505000D01*
X226187000Y-103505000D02*
X225679000Y-103505000D01*
X228092000Y-102766500D02*
X226925500Y-102766500D01*
%TO.N,Net-(U5D-~{PSAVE})*%
X225165000Y-103435000D02*
X225165000Y-102495000D01*
X225552000Y-102108000D02*
X225361500Y-102298500D01*
X225165000Y-102495000D02*
X225361500Y-102298500D01*
%TO.N,HSYNC*%
X197792500Y-102280000D02*
X190455000Y-102280000D01*
X190455000Y-102280000D02*
X190373000Y-102362000D01*
%TO.N,VSYNC*%
X191860000Y-102780000D02*
X197792500Y-102780000D01*
X191770000Y-102870000D02*
X191860000Y-102780000D01*
%TO.N,PS2BCLK*%
X205266000Y-99280000D02*
X207518000Y-97028000D01*
X207518000Y-97028000D02*
X208534000Y-97028000D01*
X204667500Y-99280000D02*
X205266000Y-99280000D01*
X232029000Y-94869000D02*
X235458000Y-91440000D01*
X210693000Y-94869000D02*
X232029000Y-94869000D01*
X208534000Y-97028000D02*
X210693000Y-94869000D01*
%TO.N,PS2BDATA*%
X225552000Y-94488000D02*
X232410000Y-87630000D01*
X205556500Y-97592500D02*
X208661000Y-94488000D01*
X208661000Y-94488000D02*
X225552000Y-94488000D01*
X204667500Y-98780000D02*
X205227184Y-98780000D01*
X205227184Y-98780000D02*
X205556500Y-98450684D01*
X205556500Y-98450684D02*
X205556500Y-97592500D01*
%TO.N,PS2ADATA*%
X232410000Y-86614000D02*
X224917000Y-94107000D01*
X224917000Y-94107000D02*
X207289400Y-94107000D01*
X207289400Y-94107000D02*
X204622400Y-96774000D01*
X204622400Y-96774000D02*
X204622400Y-98247200D01*
X232410000Y-83185000D02*
X232410000Y-86614000D01*
%TO.N,PS2ACLK*%
X231648000Y-86106000D02*
X231648000Y-82677000D01*
X231648000Y-82677000D02*
X235585000Y-78740000D01*
X203980000Y-97592500D02*
X203980000Y-96502000D01*
X224028000Y-93726000D02*
X231648000Y-86106000D01*
X206756000Y-93726000D02*
X224028000Y-93726000D01*
X203980000Y-96502000D02*
X206756000Y-93726000D01*
%TO.N,Net-(U6-IO3)*%
X187960000Y-82827500D02*
X188110500Y-82827500D01*
X189611000Y-85598000D02*
X188849000Y-86360000D01*
X189611000Y-84328000D02*
X189611000Y-85598000D01*
X188110500Y-82827500D02*
X189611000Y-84328000D01*
X188849000Y-86360000D02*
X188087000Y-86360000D01*
%TO.N,Net-(U6-IO2)*%
X181102000Y-86741000D02*
X181991000Y-87630000D01*
X182880000Y-81002500D02*
X181887500Y-81002500D01*
X181991000Y-87630000D02*
X182880000Y-87630000D01*
X181102000Y-81788000D02*
X181102000Y-86741000D01*
X181887500Y-81002500D02*
X181102000Y-81788000D01*
%TO.N,I2C_SCL*%
X200914000Y-95758000D02*
X200914000Y-92837000D01*
X169037000Y-129667000D02*
X166370000Y-129667000D01*
X200980000Y-97592500D02*
X200980000Y-95824000D01*
X201168000Y-91567000D02*
X197612000Y-88011000D01*
X200980000Y-95824000D02*
X200914000Y-95758000D01*
X187022000Y-117983000D02*
X186514000Y-117475000D01*
X184712500Y-127889000D02*
X184712500Y-127404500D01*
X197612000Y-88011000D02*
X194437000Y-88011000D01*
X183212000Y-115951000D02*
X183593000Y-115570000D01*
X183593000Y-115570000D02*
X184863000Y-115570000D01*
X186514000Y-117475000D02*
X183720000Y-117475000D01*
X179451000Y-130302000D02*
X179451000Y-131445000D01*
X184863000Y-115570000D02*
X184990000Y-115443000D01*
X171831000Y-132461000D02*
X169037000Y-129667000D01*
X182118000Y-93091000D02*
X180086000Y-95123000D01*
X194437000Y-88011000D02*
X189357000Y-93091000D01*
X201168000Y-92583000D02*
X201168000Y-91567000D01*
X179959000Y-129794000D02*
X179451000Y-130302000D01*
X167767000Y-128270000D02*
X166497000Y-129540000D01*
X180086000Y-95123000D02*
X180086000Y-107569000D01*
X184712500Y-127404500D02*
X187022000Y-125095000D01*
X181115000Y-129794000D02*
X179959000Y-129794000D01*
X189357000Y-93091000D02*
X182118000Y-93091000D01*
X178435000Y-132461000D02*
X171831000Y-132461000D01*
X179451000Y-131445000D02*
X178435000Y-132461000D01*
X184712500Y-127889000D02*
X182807500Y-129794000D01*
X180086000Y-107569000D02*
X167767000Y-119888000D01*
X183212000Y-116967000D02*
X183212000Y-115951000D01*
X183720000Y-117475000D02*
X183212000Y-116967000D01*
X187022000Y-125095000D02*
X187022000Y-117983000D01*
X200914000Y-92837000D02*
X201168000Y-92583000D01*
X182807500Y-129794000D02*
X181180000Y-129794000D01*
X167767000Y-119888000D02*
X167767000Y-128270000D01*
%TO.N,I2C_SDA*%
X184736000Y-131318000D02*
X184736000Y-130302000D01*
X179197000Y-132969000D02*
X181102000Y-131064000D01*
X186768000Y-116840000D02*
X187784000Y-117856000D01*
X201549000Y-91313000D02*
X197866000Y-87630000D01*
X187022000Y-131699000D02*
X185117000Y-131699000D01*
X181864000Y-92710000D02*
X179705000Y-94869000D01*
X179705000Y-107315000D02*
X164973000Y-122047000D01*
X201295000Y-93091000D02*
X201549000Y-92837000D01*
X201480000Y-97592500D02*
X201480000Y-95689000D01*
X184077500Y-131064000D02*
X181053000Y-131064000D01*
X181102000Y-131064000D02*
X181115000Y-131064000D01*
X194246500Y-87630000D02*
X189166500Y-92710000D01*
X169545000Y-130810000D02*
X171704000Y-132969000D01*
X164973000Y-128143000D02*
X164973000Y-130302000D01*
X184990000Y-116840000D02*
X186768000Y-116840000D01*
X164973000Y-130302000D02*
X165481000Y-130810000D01*
X184712500Y-130429000D02*
X184077500Y-131064000D01*
X171704000Y-132969000D02*
X179197000Y-132969000D01*
X201295000Y-95504000D02*
X201295000Y-93091000D01*
X166116000Y-127000000D02*
X164973000Y-128143000D01*
X166243000Y-127127000D02*
X167132000Y-127127000D01*
X189166500Y-92710000D02*
X181864000Y-92710000D01*
X165481000Y-130810000D02*
X169545000Y-130810000D01*
X187784000Y-117856000D02*
X187784000Y-130937000D01*
X201549000Y-92837000D02*
X201549000Y-91313000D01*
X166370000Y-127000000D02*
X166116000Y-127000000D01*
X164973000Y-125603000D02*
X166370000Y-127000000D01*
X164973000Y-122047000D02*
X164973000Y-125603000D01*
X187784000Y-130937000D02*
X187022000Y-131699000D01*
X201480000Y-95689000D02*
X201295000Y-95504000D01*
X185117000Y-131699000D02*
X184736000Y-131318000D01*
X179705000Y-94869000D02*
X179705000Y-107315000D01*
X181115000Y-131064000D02*
X181434000Y-131064000D01*
X197866000Y-87630000D02*
X194246500Y-87630000D01*
%TO.N,RTCSQWAVE*%
X173228000Y-118364000D02*
X171958000Y-118364000D01*
X173482000Y-118110000D02*
X173228000Y-118364000D01*
X175690000Y-118110000D02*
X173482000Y-118110000D01*
%TO.N,BUTTON0*%
X203327000Y-92806184D02*
X204470000Y-93949184D01*
X203327000Y-90551000D02*
X203327000Y-92806184D01*
X203480000Y-95986000D02*
X203480000Y-97592500D01*
X188341000Y-91186000D02*
X193421000Y-86106000D01*
X155384000Y-108522000D02*
X155321000Y-108585000D01*
X204470000Y-93949184D02*
X204470000Y-94996000D01*
X161210500Y-108522000D02*
X155384000Y-108522000D01*
X178181000Y-93853000D02*
X180848000Y-91186000D01*
X175863000Y-108490000D02*
X178181000Y-106172000D01*
X161290000Y-108458000D02*
X161163000Y-108331000D01*
X198882000Y-86106000D02*
X203327000Y-90551000D01*
X161142000Y-108490000D02*
X175863000Y-108490000D01*
X193421000Y-86106000D02*
X198882000Y-86106000D01*
X204470000Y-94996000D02*
X203480000Y-95986000D01*
X178181000Y-106172000D02*
X178181000Y-93853000D01*
X180848000Y-91186000D02*
X188341000Y-91186000D01*
%TO.N,RED1*%
X207322000Y-100780000D02*
X207860900Y-100241100D01*
X220472000Y-101473000D02*
X221229250Y-102230250D01*
X204667500Y-100780000D02*
X207322000Y-100780000D01*
X221229250Y-102230250D02*
X221229250Y-103251000D01*
X207860900Y-100241100D02*
X212255100Y-100241100D01*
X213487000Y-101473000D02*
X220472000Y-101473000D01*
X212255100Y-100241100D02*
X213487000Y-101473000D01*
%TO.N,RED0*%
X212471000Y-99822000D02*
X213741000Y-101092000D01*
X213741000Y-101092000D02*
X220726000Y-101092000D01*
X207187000Y-100280000D02*
X207645000Y-99822000D01*
X204667500Y-100280000D02*
X207187000Y-100280000D01*
X207645000Y-99822000D02*
X212471000Y-99822000D01*
X221615000Y-103385000D02*
X221665000Y-103435000D01*
X220726000Y-101092000D02*
X221615000Y-101981000D01*
X221615000Y-101981000D02*
X221615000Y-103385000D01*
%TO.N,RED3*%
X205396000Y-102780000D02*
X205994000Y-103378000D01*
X205994000Y-103378000D02*
X220218000Y-103378000D01*
X204667500Y-102780000D02*
X205396000Y-102780000D01*
%TO.N,RED2*%
X205867000Y-102616000D02*
X219075000Y-102616000D01*
X220665000Y-102682000D02*
X220665000Y-103435000D01*
X219456000Y-102235000D02*
X220218000Y-102235000D01*
X205302400Y-102280000D02*
X205421400Y-102399000D01*
X205421400Y-102399000D02*
X205650000Y-102399000D01*
X219075000Y-102616000D02*
X219456000Y-102235000D01*
X205650000Y-102399000D02*
X205867000Y-102616000D01*
X204667500Y-102280000D02*
X205302400Y-102280000D01*
X220218000Y-102235000D02*
X220665000Y-102682000D01*
%TO.N,GREEN0*%
X211328000Y-107823000D02*
X218694000Y-107823000D01*
X208915000Y-106934000D02*
X210439000Y-106934000D01*
X205261000Y-103280000D02*
X208915000Y-106934000D01*
X210439000Y-106934000D02*
X211328000Y-107823000D01*
X204667500Y-103280000D02*
X205261000Y-103280000D01*
%TO.N,GREEN1*%
X210185000Y-107315000D02*
X211201000Y-108331000D01*
X205023750Y-103780000D02*
X208558750Y-107315000D01*
X204667500Y-103780000D02*
X205023750Y-103780000D01*
X211201000Y-108331000D02*
X218694000Y-108331000D01*
X208558750Y-107315000D02*
X210185000Y-107315000D01*
%TO.N,GREEN2*%
X206121000Y-106426000D02*
X206121000Y-107061000D01*
X203480000Y-104467500D02*
X203454000Y-104493500D01*
X211074000Y-108839000D02*
X218821000Y-108839000D01*
X206121000Y-107061000D02*
X206756000Y-107696000D01*
X203480000Y-104903568D02*
X204367432Y-105791000D01*
X209931000Y-107696000D02*
X211074000Y-108839000D01*
X206756000Y-107696000D02*
X209931000Y-107696000D01*
X203480000Y-104467500D02*
X203480000Y-104903568D01*
X205486000Y-105791000D02*
X206121000Y-106426000D01*
X204367432Y-105791000D02*
X205486000Y-105791000D01*
%TO.N,GREEN3*%
X205613000Y-107823000D02*
X205867000Y-108077000D01*
X202480000Y-105325000D02*
X204978000Y-107823000D01*
X204978000Y-107823000D02*
X205613000Y-107823000D01*
X202480000Y-104467500D02*
X202480000Y-105325000D01*
X210947000Y-109347000D02*
X218313000Y-109347000D01*
X209677000Y-108077000D02*
X210947000Y-109347000D01*
X205867000Y-108077000D02*
X209677000Y-108077000D01*
%TO.N,BLUE1*%
X200980000Y-105984000D02*
X203962000Y-108966000D01*
X211582000Y-115824000D02*
X221615000Y-115824000D01*
X204724000Y-108966000D02*
X211582000Y-115824000D01*
X203962000Y-108966000D02*
X204724000Y-108966000D01*
X221615000Y-115824000D02*
X224155000Y-113284000D01*
X200980000Y-104467500D02*
X200980000Y-105984000D01*
X224155000Y-113284000D02*
X224155000Y-112141000D01*
%TO.N,BLUE2*%
X221869000Y-116205000D02*
X224663000Y-113411000D01*
X198480000Y-104467500D02*
X198480000Y-109834000D01*
X198480000Y-109834000D02*
X204851000Y-116205000D01*
X224663000Y-113411000D02*
X224663000Y-112014000D01*
X204851000Y-116205000D02*
X221869000Y-116205000D01*
%TO.N,BLUE0*%
X204978000Y-108585000D02*
X211820592Y-115427592D01*
X204343000Y-108585000D02*
X204978000Y-108585000D01*
X201480000Y-105722000D02*
X204343000Y-108585000D01*
X223665000Y-113139000D02*
X223665000Y-111760000D01*
X211820592Y-115427592D02*
X221376408Y-115427592D01*
X221376408Y-115427592D02*
X223665000Y-113139000D01*
X201480000Y-104467500D02*
X201480000Y-105722000D01*
%TO.N,~{VGABLANK}*%
X209423000Y-108458000D02*
X205613000Y-108458000D01*
X205613000Y-108458000D02*
X205359000Y-108204000D01*
X210820000Y-109855000D02*
X209423000Y-108458000D01*
X218567000Y-109855000D02*
X210820000Y-109855000D01*
X201980000Y-105460000D02*
X201980000Y-104467500D01*
X205359000Y-108204000D02*
X204724000Y-108204000D01*
X204724000Y-108204000D02*
X201980000Y-105460000D01*
%TO.N,BLUE3*%
X204597000Y-116586000D02*
X222123000Y-116586000D01*
X222123000Y-116586000D02*
X225171000Y-113538000D01*
X197792500Y-103780000D02*
X197792500Y-109781500D01*
X225171000Y-113538000D02*
X225171000Y-112014000D01*
X197792500Y-109781500D02*
X204597000Y-116586000D01*
%TO.N,BUZZER*%
X189611000Y-99695000D02*
X194564000Y-99695000D01*
X194564000Y-99695000D02*
X194649000Y-99780000D01*
X194649000Y-99780000D02*
X197792500Y-99780000D01*
%TO.N,GLOBAL_CLK*%
X200406000Y-95885000D02*
X200406000Y-93345000D01*
X197866000Y-90805000D02*
X197038000Y-90805000D01*
X200406000Y-93345000D02*
X197866000Y-90805000D01*
X200480000Y-95959000D02*
X200406000Y-95885000D01*
X200480000Y-97592500D02*
X200480000Y-95959000D01*
X197038000Y-90805000D02*
X196596000Y-90363000D01*
%TO.N,DACCLK*%
X225665000Y-113679000D02*
X222377000Y-116967000D01*
X204343000Y-116967000D02*
X196850000Y-109474000D01*
X196850000Y-103505000D02*
X197104000Y-103251000D01*
X196850000Y-109474000D02*
X196850000Y-103505000D01*
X222377000Y-116967000D02*
X204343000Y-116967000D01*
X225665000Y-111760000D02*
X225665000Y-113679000D01*
X197104000Y-103251000D02*
X197485000Y-103251000D01*
%TO.N,USER4*%
X189230000Y-98552000D02*
X191516000Y-98552000D01*
X182880000Y-106680000D02*
X188214000Y-101346000D01*
X191744000Y-98780000D02*
X197792500Y-98780000D01*
X188214000Y-99568000D02*
X189230000Y-98552000D01*
X188214000Y-101346000D02*
X188214000Y-99568000D01*
X191516000Y-98552000D02*
X191744000Y-98780000D01*
%TO.N,USER5*%
X197792500Y-99280000D02*
X191609000Y-99280000D01*
X191262000Y-98933000D02*
X189387816Y-98933000D01*
X189387816Y-98933000D02*
X188976000Y-99344816D01*
X188976000Y-99344816D02*
X188976000Y-103124000D01*
X191609000Y-99280000D02*
X191262000Y-98933000D01*
X188976000Y-103124000D02*
X182880000Y-109220000D01*
%TD*%
%TA.AperFunction,Conductor*%
%TO.N,GND*%
G36*
X194126039Y-72536685D02*
G01*
X194171794Y-72589489D01*
X194183000Y-72641000D01*
X194183000Y-74552000D01*
X194163315Y-74619039D01*
X194110511Y-74664794D01*
X194059000Y-74676000D01*
X190624000Y-74676000D01*
X190556961Y-74656315D01*
X190511206Y-74603511D01*
X190500000Y-74552000D01*
X190500000Y-72641000D01*
X190519685Y-72573961D01*
X190572489Y-72528206D01*
X190624000Y-72517000D01*
X194059000Y-72517000D01*
X194126039Y-72536685D01*
G37*
%TD.AperFunction*%
%TD*%
%TA.AperFunction,Conductor*%
%TO.N,/VCCEXT*%
G36*
X165043538Y-69869685D02*
G01*
X165089293Y-69922489D01*
X165100498Y-69973500D01*
X165165920Y-86198301D01*
X165159628Y-86237801D01*
X165147113Y-86275570D01*
X165147113Y-86275572D01*
X165136500Y-86379447D01*
X165136500Y-86980537D01*
X165136501Y-86980553D01*
X165147113Y-87084428D01*
X165163555Y-87134048D01*
X165169848Y-87172551D01*
X165171162Y-87498345D01*
X165151748Y-87565463D01*
X165140876Y-87580048D01*
X165068702Y-87663339D01*
X165068701Y-87663341D01*
X165007987Y-87796283D01*
X164988302Y-87863321D01*
X164988300Y-87863326D01*
X164983194Y-87898843D01*
X164967500Y-88008000D01*
X164967500Y-89792000D01*
X164967501Y-89792009D01*
X164979235Y-89901151D01*
X164979237Y-89901163D01*
X164990443Y-89952673D01*
X165025106Y-90056820D01*
X165025109Y-90056826D01*
X165104128Y-90179781D01*
X165104134Y-90179789D01*
X165152238Y-90235304D01*
X165181263Y-90298859D01*
X165182524Y-90316006D01*
X165226498Y-101221500D01*
X165207084Y-101288618D01*
X165154465Y-101334586D01*
X165102499Y-101346000D01*
X162047878Y-101346000D01*
X161980839Y-101326315D01*
X161935084Y-101273511D01*
X161923883Y-101223127D01*
X161798000Y-87376000D01*
X159636000Y-87376000D01*
X159568961Y-87356315D01*
X159523206Y-87303511D01*
X159512000Y-87252000D01*
X159512000Y-77594000D01*
X159531685Y-77526961D01*
X159584489Y-77481206D01*
X159636000Y-77470000D01*
X161290000Y-77470000D01*
X161290000Y-69974000D01*
X161309685Y-69906961D01*
X161362489Y-69861206D01*
X161414000Y-69850000D01*
X164976499Y-69850000D01*
X165043538Y-69869685D01*
G37*
%TD.AperFunction*%
%TD*%
%TA.AperFunction,Conductor*%
%TO.N,GND*%
G36*
X172155039Y-87903685D02*
G01*
X172200794Y-87956489D01*
X172212000Y-88008000D01*
X172212000Y-89792000D01*
X172192315Y-89859039D01*
X172139511Y-89904794D01*
X172088000Y-89916000D01*
X165605000Y-89916000D01*
X165537961Y-89896315D01*
X165492206Y-89843511D01*
X165481000Y-89792000D01*
X165481000Y-88008000D01*
X165500685Y-87940961D01*
X165553489Y-87895206D01*
X165605000Y-87884000D01*
X172088000Y-87884000D01*
X172155039Y-87903685D01*
G37*
%TD.AperFunction*%
%TD*%
%TA.AperFunction,Conductor*%
%TO.N,GND*%
G36*
X157931039Y-82823685D02*
G01*
X157976794Y-82876489D01*
X157988000Y-82928000D01*
X157988000Y-88519000D01*
X160658000Y-88519000D01*
X160725039Y-88538685D01*
X160770794Y-88591489D01*
X160782000Y-88643000D01*
X160782000Y-102362000D01*
X166370000Y-102362000D01*
X172720000Y-102362000D01*
X172720000Y-96644000D01*
X172739685Y-96576961D01*
X172792489Y-96531206D01*
X172844000Y-96520000D01*
X175136000Y-96520000D01*
X175203039Y-96539685D01*
X175248794Y-96592489D01*
X175260000Y-96644000D01*
X175260000Y-104778000D01*
X175240315Y-104845039D01*
X175187511Y-104890794D01*
X175136000Y-104902000D01*
X153794000Y-104902000D01*
X153726961Y-104882315D01*
X153681206Y-104829511D01*
X153670000Y-104778000D01*
X153670000Y-82928000D01*
X153689685Y-82860961D01*
X153742489Y-82815206D01*
X153794000Y-82804000D01*
X157864000Y-82804000D01*
X157931039Y-82823685D01*
G37*
%TD.AperFunction*%
%TD*%
%TA.AperFunction,Conductor*%
%TO.N,+1V2*%
G36*
X200603039Y-72536685D02*
G01*
X200648794Y-72589489D01*
X200660000Y-72641000D01*
X200660000Y-77580806D01*
X200640315Y-77647845D01*
X200623681Y-77668487D01*
X200223488Y-78068681D01*
X200162165Y-78102166D01*
X200135807Y-78105000D01*
X197411200Y-78105000D01*
X197344161Y-78085315D01*
X197298406Y-78032511D01*
X197287879Y-77993963D01*
X197281400Y-77932319D01*
X197227745Y-77767185D01*
X197140929Y-77616815D01*
X197024746Y-77487781D01*
X196901114Y-77397957D01*
X196858449Y-77342627D01*
X196850000Y-77297639D01*
X196850000Y-76835000D01*
X194106123Y-76835000D01*
X194088477Y-76833738D01*
X194059001Y-76829500D01*
X194059000Y-76829500D01*
X190624000Y-76829500D01*
X190556961Y-76809815D01*
X190511206Y-76757011D01*
X190500000Y-76705500D01*
X190500000Y-75313500D01*
X190519685Y-75246461D01*
X190572489Y-75200706D01*
X190624000Y-75189500D01*
X194058990Y-75189500D01*
X194059000Y-75189500D01*
X194168157Y-75177764D01*
X194219668Y-75166558D01*
X194254440Y-75154984D01*
X194323820Y-75131893D01*
X194323824Y-75131890D01*
X194323827Y-75131890D01*
X194409727Y-75076685D01*
X194476767Y-75057000D01*
X196850000Y-75057000D01*
X196850000Y-72641000D01*
X196869685Y-72573961D01*
X196922489Y-72528206D01*
X196974000Y-72517000D01*
X200536000Y-72517000D01*
X200603039Y-72536685D01*
G37*
%TD.AperFunction*%
%TD*%
%TA.AperFunction,Conductor*%
%TO.N,+3V3*%
G36*
X194126039Y-77362685D02*
G01*
X194171794Y-77415489D01*
X194183000Y-77467000D01*
X194183000Y-79378000D01*
X194163315Y-79445039D01*
X194110511Y-79490794D01*
X194059000Y-79502000D01*
X189230000Y-79502000D01*
X189230000Y-77343000D01*
X189992000Y-77343000D01*
X194059000Y-77343000D01*
X194126039Y-77362685D01*
G37*
%TD.AperFunction*%
%TD*%
%TA.AperFunction,Conductor*%
%TO.N,+5V*%
G36*
X180541409Y-77216354D02*
G01*
X180561362Y-77218500D01*
X182658638Y-77218500D01*
X182678590Y-77216354D01*
X182685222Y-77216000D01*
X183899000Y-77216000D01*
X183966039Y-77235685D01*
X184011794Y-77288489D01*
X184023000Y-77340000D01*
X184023000Y-79251000D01*
X184003315Y-79318039D01*
X183950511Y-79363794D01*
X183899000Y-79375000D01*
X180464000Y-79375000D01*
X180396961Y-79355315D01*
X180351206Y-79302511D01*
X180340000Y-79251000D01*
X180340000Y-77340000D01*
X180359685Y-77272961D01*
X180412489Y-77227206D01*
X180464000Y-77216000D01*
X180534778Y-77216000D01*
X180541409Y-77216354D01*
G37*
%TD.AperFunction*%
%TD*%
%TA.AperFunction,Conductor*%
%TO.N,GND*%
G36*
X183966039Y-72663685D02*
G01*
X184011794Y-72716489D01*
X184023000Y-72768000D01*
X184023000Y-74679000D01*
X184003315Y-74746039D01*
X183950511Y-74791794D01*
X183899000Y-74803000D01*
X182956104Y-74803000D01*
X182889065Y-74783315D01*
X182881793Y-74778267D01*
X182856204Y-74759111D01*
X182719203Y-74708011D01*
X182658654Y-74701500D01*
X182658638Y-74701500D01*
X180561362Y-74701500D01*
X180561345Y-74701500D01*
X180500797Y-74708011D01*
X180493242Y-74709796D01*
X180492497Y-74706643D01*
X180437585Y-74710545D01*
X180376277Y-74677031D01*
X180342821Y-74615692D01*
X180340000Y-74589391D01*
X180340000Y-72768000D01*
X180359685Y-72700961D01*
X180412489Y-72655206D01*
X180464000Y-72644000D01*
X183899000Y-72644000D01*
X183966039Y-72663685D01*
G37*
%TD.AperFunction*%
%TD*%
%TA.AperFunction,Conductor*%
%TO.N,GND*%
G36*
X167259000Y-97679779D02*
G01*
X167253487Y-97713943D01*
X167253530Y-97713953D01*
X167253351Y-97714787D01*
X167252707Y-97718781D01*
X167252112Y-97720573D01*
X167241500Y-97824447D01*
X167241500Y-99025537D01*
X167241501Y-99025553D01*
X167252112Y-99129423D01*
X167252113Y-99129426D01*
X167252705Y-99131212D01*
X167253345Y-99135182D01*
X167253530Y-99136043D01*
X167253486Y-99136052D01*
X167259000Y-99170218D01*
X167259000Y-102362000D01*
X166370000Y-102362000D01*
X166370000Y-89916000D01*
X167259000Y-89916000D01*
X167259000Y-97679779D01*
G37*
%TD.AperFunction*%
%TD*%
%TA.AperFunction,Conductor*%
%TO.N,/VCCEXTI*%
G36*
X175457039Y-69869685D02*
G01*
X175502794Y-69922489D01*
X175514000Y-69974000D01*
X175514000Y-80648000D01*
X175494315Y-80715039D01*
X175441511Y-80760794D01*
X175390000Y-80772000D01*
X172212000Y-80772000D01*
X172212000Y-87125000D01*
X172192315Y-87192039D01*
X172139511Y-87237794D01*
X172088000Y-87249000D01*
X165859000Y-87249000D01*
X165791961Y-87229315D01*
X165746206Y-87176511D01*
X165735000Y-87125000D01*
X165735000Y-84579000D01*
X165754685Y-84511961D01*
X165807489Y-84466206D01*
X165859000Y-84455000D01*
X167005000Y-84455000D01*
X167005000Y-69974000D01*
X167024685Y-69906961D01*
X167077489Y-69861206D01*
X167129000Y-69850000D01*
X175390000Y-69850000D01*
X175457039Y-69869685D01*
G37*
%TD.AperFunction*%
%TD*%
%TA.AperFunction,Conductor*%
%TO.N,+3V3*%
G36*
X189935039Y-70758685D02*
G01*
X189980794Y-70811489D01*
X189992000Y-70863000D01*
X189992000Y-72593877D01*
X189990738Y-72611523D01*
X189986500Y-72640999D01*
X189986500Y-74552008D01*
X189991644Y-74599844D01*
X189992000Y-74606477D01*
X189992000Y-75266377D01*
X189990738Y-75284023D01*
X189986500Y-75313499D01*
X189986500Y-76705508D01*
X189991644Y-76753344D01*
X189992000Y-76759977D01*
X189992000Y-77343000D01*
X189230000Y-77343000D01*
X189230000Y-79502000D01*
X186814000Y-79502000D01*
X186746961Y-79482315D01*
X186701206Y-79429511D01*
X186690000Y-79378000D01*
X186690000Y-78693089D01*
X186709685Y-78626050D01*
X186733787Y-78600535D01*
X186732916Y-78599568D01*
X186737740Y-78595222D01*
X186737746Y-78595219D01*
X186853929Y-78466185D01*
X186940745Y-78315815D01*
X186994400Y-78150681D01*
X187012550Y-77978000D01*
X186994400Y-77805319D01*
X186940745Y-77640185D01*
X186853929Y-77489815D01*
X186737746Y-77360781D01*
X186732917Y-77356433D01*
X186734506Y-77354667D01*
X186698440Y-77307876D01*
X186690000Y-77262910D01*
X186690000Y-76835000D01*
X184326029Y-76835000D01*
X184258990Y-76815315D01*
X184244825Y-76804712D01*
X184243660Y-76803702D01*
X184243658Y-76803701D01*
X184110716Y-76742987D01*
X184043679Y-76723302D01*
X184043673Y-76723300D01*
X183956868Y-76710820D01*
X183899000Y-76702500D01*
X182678376Y-76702500D01*
X182664687Y-76702865D01*
X182644319Y-76703952D01*
X182633771Y-76704800D01*
X182628798Y-76705000D01*
X180591203Y-76705000D01*
X180586229Y-76704800D01*
X180575682Y-76703952D01*
X180555316Y-76702865D01*
X180541626Y-76702500D01*
X180541625Y-76702500D01*
X180464000Y-76702500D01*
X180396961Y-76682815D01*
X180351206Y-76630011D01*
X180340000Y-76578500D01*
X180340000Y-75346643D01*
X180359685Y-75279604D01*
X180412489Y-75233849D01*
X180457028Y-75225400D01*
X180456844Y-75223357D01*
X180458164Y-75223238D01*
X180468867Y-75223154D01*
X180469541Y-75223026D01*
X180469542Y-75222751D01*
X180473975Y-75222753D01*
X180473978Y-75222752D01*
X180473982Y-75222753D01*
X180505226Y-75220532D01*
X180515864Y-75222851D01*
X180555698Y-75218567D01*
X180555699Y-75218568D01*
X180579595Y-75215998D01*
X180585569Y-75215356D01*
X180592203Y-75215000D01*
X182583818Y-75215000D01*
X182635330Y-75226205D01*
X182744391Y-75276014D01*
X182787163Y-75288573D01*
X182811425Y-75295698D01*
X182811430Y-75295699D01*
X182811434Y-75295700D01*
X182956104Y-75316500D01*
X182956107Y-75316500D01*
X183898990Y-75316500D01*
X183899000Y-75316500D01*
X184008157Y-75304764D01*
X184059668Y-75293558D01*
X184094440Y-75281984D01*
X184163820Y-75258893D01*
X184163824Y-75258890D01*
X184163827Y-75258890D01*
X184286782Y-75179871D01*
X184339586Y-75134116D01*
X184369324Y-75099797D01*
X184428103Y-75062023D01*
X184463037Y-75057000D01*
X186436000Y-75057000D01*
X186436000Y-70863000D01*
X186455685Y-70795961D01*
X186508489Y-70750206D01*
X186560000Y-70739000D01*
X189868000Y-70739000D01*
X189935039Y-70758685D01*
G37*
%TD.AperFunction*%
%TD*%
M02*
