%TF.GenerationSoftware,KiCad,Pcbnew,7.0.9-7.0.9~ubuntu20.04.1*%
%TF.CreationDate,2024-02-02T11:04:46+00:00*%
%TF.ProjectId,ICE40UPDevBoard,49434534-3055-4504-9465-76426f617264,rev?*%
%TF.SameCoordinates,Original*%
%TF.FileFunction,Copper,L2,Inr*%
%TF.FilePolarity,Positive*%
%FSLAX46Y46*%
G04 Gerber Fmt 4.6, Leading zero omitted, Abs format (unit mm)*
G04 Created by KiCad (PCBNEW 7.0.9-7.0.9~ubuntu20.04.1) date 2024-02-02 11:04:46*
%MOMM*%
%LPD*%
G01*
G04 APERTURE LIST*
G04 Aperture macros list*
%AMRoundRect*
0 Rectangle with rounded corners*
0 $1 Rounding radius*
0 $2 $3 $4 $5 $6 $7 $8 $9 X,Y pos of 4 corners*
0 Add a 4 corners polygon primitive as box body*
4,1,4,$2,$3,$4,$5,$6,$7,$8,$9,$2,$3,0*
0 Add four circle primitives for the rounded corners*
1,1,$1+$1,$2,$3*
1,1,$1+$1,$4,$5*
1,1,$1+$1,$6,$7*
1,1,$1+$1,$8,$9*
0 Add four rect primitives between the rounded corners*
20,1,$1+$1,$2,$3,$4,$5,0*
20,1,$1+$1,$4,$5,$6,$7,0*
20,1,$1+$1,$6,$7,$8,$9,0*
20,1,$1+$1,$8,$9,$2,$3,0*%
G04 Aperture macros list end*
%TA.AperFunction,ComponentPad*%
%ADD10R,1.700000X1.700000*%
%TD*%
%TA.AperFunction,ComponentPad*%
%ADD11O,1.700000X1.700000*%
%TD*%
%TA.AperFunction,ComponentPad*%
%ADD12R,2.300000X1.500000*%
%TD*%
%TA.AperFunction,ComponentPad*%
%ADD13O,2.300000X1.500000*%
%TD*%
%TA.AperFunction,ComponentPad*%
%ADD14R,1.600000X1.600000*%
%TD*%
%TA.AperFunction,ComponentPad*%
%ADD15C,1.600000*%
%TD*%
%TA.AperFunction,ComponentPad*%
%ADD16O,3.500000X2.000000*%
%TD*%
%TA.AperFunction,ComponentPad*%
%ADD17O,2.000000X4.000000*%
%TD*%
%TA.AperFunction,ComponentPad*%
%ADD18R,2.000000X2.000000*%
%TD*%
%TA.AperFunction,ComponentPad*%
%ADD19C,2.000000*%
%TD*%
%TA.AperFunction,ComponentPad*%
%ADD20R,3.500000X3.500000*%
%TD*%
%TA.AperFunction,ComponentPad*%
%ADD21RoundRect,0.750000X-0.750000X-1.000000X0.750000X-1.000000X0.750000X1.000000X-0.750000X1.000000X0*%
%TD*%
%TA.AperFunction,ComponentPad*%
%ADD22RoundRect,0.875000X-0.875000X-0.875000X0.875000X-0.875000X0.875000X0.875000X-0.875000X0.875000X0*%
%TD*%
%TA.AperFunction,ComponentPad*%
%ADD23C,4.000000*%
%TD*%
%TA.AperFunction,ViaPad*%
%ADD24C,0.635000*%
%TD*%
%TA.AperFunction,ViaPad*%
%ADD25C,0.508000*%
%TD*%
%TA.AperFunction,ViaPad*%
%ADD26C,0.762000*%
%TD*%
%TA.AperFunction,Conductor*%
%ADD27C,0.317500*%
%TD*%
G04 APERTURE END LIST*
D10*
%TO.N,/~{CRESET_B}*%
%TO.C,J4*%
X212090000Y-80010000D03*
D11*
%TO.N,GND*%
X209550000Y-80010000D03*
%TD*%
D10*
%TO.N,+3V3*%
%TO.C,J7*%
X223520000Y-87630000D03*
D11*
%TO.N,/FLASH_MOSI*%
X223520000Y-85090000D03*
%TO.N,/FLASH_MISO*%
X223520000Y-82550000D03*
%TO.N,/ICE_SCK*%
X223520000Y-80010000D03*
%TO.N,/ICE_SS*%
X223520000Y-77470000D03*
%TO.N,GND*%
X223520000Y-74930000D03*
%TD*%
D10*
%TO.N,USER0*%
%TO.C,J8*%
X182880000Y-96520000D03*
D11*
%TO.N,USER1*%
X182880000Y-99060000D03*
%TO.N,USER2*%
X182880000Y-101600000D03*
%TO.N,USER3*%
X182880000Y-104140000D03*
%TO.N,USER4*%
X182880000Y-106680000D03*
%TO.N,USER5*%
X182880000Y-109220000D03*
%TO.N,GND*%
X182880000Y-111760000D03*
%TD*%
D12*
%TO.N,/VCCEXTI*%
%TO.C,U8*%
X170419500Y-86360000D03*
D13*
%TO.N,GND*%
X170419500Y-88900000D03*
%TO.N,+5V*%
X170419500Y-91440000D03*
%TD*%
D10*
%TO.N,/ICE_SS*%
%TO.C,J5*%
X212095000Y-74930000D03*
D11*
%TO.N,Net-(J5-Pin_2)*%
X209555000Y-74930000D03*
%TD*%
D14*
%TO.N,Net-(J3-Pad1)*%
%TO.C,J3*%
X240825000Y-83790000D03*
D15*
%TO.N,Net-(J3-Pad2)*%
X240825000Y-86390000D03*
%TO.N,GND*%
X240825000Y-81690000D03*
%TO.N,+5V*%
X240825000Y-88490000D03*
%TO.N,Net-(J3-Pad5)*%
X238025000Y-81690000D03*
%TO.N,Net-(J3-Pad6)*%
X238025000Y-88490000D03*
D16*
%TO.N,N/C*%
X243675000Y-91940000D03*
D17*
X244475000Y-85090000D03*
D16*
X243675000Y-78240000D03*
%TD*%
D18*
%TO.N,Net-(R32-Pad2)*%
%TO.C,SP1*%
X222270000Y-120650000D03*
D19*
%TO.N,BUZZER*%
X229870000Y-120650000D03*
%TD*%
D20*
%TO.N,/VCCEXT*%
%TO.C,CON2*%
X161956000Y-85021500D03*
D21*
%TO.N,GND*%
X155956000Y-85021500D03*
D22*
X158956000Y-89721500D03*
%TD*%
D10*
%TO.N,Net-(D2-K)*%
%TO.C,J1*%
X209550000Y-85090000D03*
D11*
%TO.N,/CDONE*%
X212090000Y-85090000D03*
%TD*%
D10*
%TO.N,/FLASH_MOSI*%
%TO.C,J6*%
X213360000Y-89535000D03*
D11*
%TO.N,/ICE_MISO*%
X215900000Y-89535000D03*
%TO.N,/ICE_MOSI*%
X213360000Y-92075000D03*
%TO.N,/FLASH_MISO*%
X215900000Y-92075000D03*
%TD*%
D10*
%TO.N,+3V3*%
%TO.C,J9*%
X166370000Y-124460000D03*
D11*
%TO.N,I2C_SDA*%
X166370000Y-127000000D03*
%TO.N,I2C_SCL*%
X166370000Y-129540000D03*
%TO.N,GND*%
X166370000Y-132080000D03*
%TD*%
D23*
%TO.N,GND*%
%TO.C,J2*%
X243160669Y-122434669D03*
X243160669Y-97434669D03*
D14*
%TO.N,RED*%
X241110669Y-105619669D03*
D15*
%TO.N,GREEN*%
X241110669Y-107909669D03*
%TO.N,BLUE*%
X241110669Y-110199669D03*
%TO.N,unconnected-(J2-Pad4)*%
X241110669Y-112489669D03*
%TO.N,GND*%
X241110669Y-114779669D03*
X243090669Y-104474669D03*
X243090669Y-106764669D03*
X243090669Y-109054669D03*
%TO.N,unconnected-(J2-Pad9)*%
X243090669Y-111344669D03*
%TO.N,GND*%
X243090669Y-113634669D03*
%TO.N,unconnected-(J2-Pad11)*%
X245070669Y-105619669D03*
%TO.N,unconnected-(J2-Pad12)*%
X245070669Y-107909669D03*
%TO.N,Net-(J2-Pad13)*%
X245070669Y-110199669D03*
%TO.N,Net-(J2-Pad14)*%
X245070669Y-112489669D03*
%TO.N,unconnected-(J2-Pad15)*%
X245070669Y-114779669D03*
%TD*%
D24*
%TO.N,GND*%
X157480000Y-97790000D03*
X170180000Y-103632000D03*
X162052000Y-103632000D03*
X224155000Y-102108000D03*
X228219000Y-110363000D03*
X228727000Y-106172000D03*
X168148000Y-103632000D03*
X196469000Y-78105000D03*
X200533000Y-92329000D03*
X201676000Y-107569000D03*
X186182000Y-77978000D03*
X218752500Y-111056500D03*
X183642000Y-73406000D03*
X200152000Y-102870000D03*
X157480000Y-100330000D03*
X203073000Y-99187000D03*
X233426000Y-110490000D03*
X233299000Y-106680000D03*
X154940000Y-95250000D03*
X185420000Y-88900000D03*
X217424000Y-106807000D03*
X157480000Y-102870000D03*
X217424000Y-105283000D03*
X228727000Y-107569000D03*
X193802000Y-73406000D03*
X158242000Y-112522000D03*
X201676000Y-102870000D03*
X196723000Y-96012000D03*
X200152000Y-99187000D03*
X154940000Y-92710000D03*
X174244000Y-103632000D03*
X221107000Y-113030000D03*
X203581000Y-102870000D03*
X202184000Y-82169000D03*
X204470000Y-92456000D03*
X191213000Y-124460000D03*
X183007000Y-72898000D03*
X222631000Y-102108000D03*
X154940000Y-97790000D03*
X216154000Y-120650000D03*
X159512000Y-103632000D03*
X195580000Y-93919000D03*
X201676000Y-99187000D03*
X166116000Y-103632000D03*
X208026000Y-96012000D03*
X222631000Y-113030000D03*
X164084000Y-103632000D03*
X203073000Y-100203000D03*
X178640000Y-131064000D03*
X185166000Y-77978000D03*
X195326000Y-78105000D03*
X233299000Y-102870000D03*
X154940000Y-100330000D03*
X199136000Y-100203000D03*
X180340000Y-124460000D03*
X172212000Y-103632000D03*
X154940000Y-90170000D03*
X193167000Y-72898000D03*
X154940000Y-102870000D03*
%TO.N,+3V3*%
X178640000Y-127254000D03*
X186537500Y-129159000D03*
X156083000Y-124460000D03*
X187833000Y-73152000D03*
X156210000Y-110490000D03*
X188722000Y-72898000D03*
X202438000Y-74930000D03*
X196723000Y-98171000D03*
X189865000Y-77978000D03*
X195580000Y-88755000D03*
X202184000Y-80010000D03*
X193167000Y-78994000D03*
X194310000Y-91760000D03*
X189611000Y-73914000D03*
X205359000Y-106807000D03*
X186817000Y-72898000D03*
X189611000Y-72009000D03*
X187833000Y-71247000D03*
X180340000Y-116840000D03*
X222377000Y-107696000D03*
X156083000Y-121031000D03*
X185420000Y-85090000D03*
X189611000Y-76708000D03*
X186817000Y-71247000D03*
X188849000Y-71247000D03*
X188976000Y-89662000D03*
X189611000Y-75565000D03*
X172339000Y-121412000D03*
X208026000Y-99060000D03*
X156146500Y-117602000D03*
X193802000Y-78486000D03*
X201803000Y-85090000D03*
X189865000Y-78867000D03*
%TO.N,+1V2*%
X193802000Y-100330000D03*
X199898000Y-75184000D03*
X199263000Y-72898000D03*
X202692000Y-94615000D03*
X208153000Y-100965000D03*
X197358000Y-72898000D03*
X198247000Y-72898000D03*
X199898000Y-77470000D03*
X199898000Y-76454000D03*
X199898000Y-73914000D03*
D25*
%TO.N,/VPP_2V5*%
X207200500Y-107124500D03*
D26*
%TO.N,+5V*%
X183642000Y-78486000D03*
X183007000Y-78994000D03*
X230251000Y-68199000D03*
X222377000Y-68199000D03*
X226314000Y-68199000D03*
D25*
%TO.N,Net-(U5D-COMP)*%
X224790000Y-105283000D03*
D24*
%TO.N,+3.3VDAC*%
X220165000Y-109982000D03*
X225806000Y-108458000D03*
D25*
%TO.N,Net-(U5D-VREF)*%
X227076000Y-104013000D03*
%TO.N,Net-(D3-A)*%
X161798000Y-117602000D03*
%TO.N,Net-(D4-A)*%
X161925000Y-121031000D03*
%TO.N,Net-(D5-A)*%
X161798000Y-124460000D03*
%TO.N,/CDONE*%
X191643000Y-101092000D03*
%TO.N,/~{CRESET_B}*%
X192278000Y-101727000D03*
%TO.N,/ICE_SS*%
X201930000Y-110998000D03*
%TO.N,/ICE_MISO*%
X204470000Y-112395000D03*
%TO.N,/ICE_MOSI*%
X204470000Y-111633000D03*
%TO.N,/FLASH_MISO*%
X191389000Y-84963000D03*
%TO.N,/ICE_SCK*%
X201930000Y-111760000D03*
X189357000Y-87503000D03*
%TO.N,Net-(U2D-VCCPLL)*%
X206121000Y-101981000D03*
%TO.N,Net-(U5D-~{PSAVE})*%
X225552000Y-102108000D03*
%TO.N,HSYNC*%
X190373000Y-102362000D03*
%TO.N,VSYNC*%
X191770000Y-102870000D03*
%TO.N,PS2BCLK*%
X235458000Y-91440000D03*
%TO.N,PS2BDATA*%
X232410000Y-87630000D03*
%TO.N,PS2ADATA*%
X232410000Y-83185000D03*
%TO.N,PS2ACLK*%
X235585000Y-78740000D03*
%TO.N,BUTTON0*%
X158242000Y-108522000D03*
%TO.N,BUZZER*%
X189611000Y-99695000D03*
%TD*%
D27*
%TO.N,+1V2*%
X202692000Y-94615000D02*
X202755500Y-94615000D01*
%TD*%
%TA.AperFunction,Conductor*%
%TO.N,+3V3*%
G36*
X221767628Y-67330002D02*
G01*
X221814121Y-67383658D01*
X221824225Y-67453932D01*
X221794731Y-67518512D01*
X221782924Y-67529346D01*
X221783435Y-67529914D01*
X221778527Y-67534332D01*
X221653414Y-67673284D01*
X221653410Y-67673290D01*
X221559928Y-67835208D01*
X221559922Y-67835220D01*
X221502146Y-68013038D01*
X221502145Y-68013042D01*
X221502145Y-68013044D01*
X221482600Y-68199000D01*
X221502146Y-68384961D01*
X221559922Y-68562779D01*
X221559928Y-68562791D01*
X221653410Y-68724709D01*
X221653414Y-68724715D01*
X221778527Y-68863667D01*
X221929795Y-68973570D01*
X221929797Y-68973571D01*
X221929800Y-68973573D01*
X222100615Y-69049625D01*
X222241582Y-69079588D01*
X222283509Y-69088500D01*
X222283510Y-69088500D01*
X222470491Y-69088500D01*
X222512418Y-69079588D01*
X222653385Y-69049625D01*
X222824200Y-68973573D01*
X222975470Y-68863669D01*
X223100585Y-68724715D01*
X223100589Y-68724709D01*
X223147330Y-68643750D01*
X223194075Y-68562785D01*
X223251855Y-68384956D01*
X223271400Y-68199000D01*
X223251855Y-68013044D01*
X223194075Y-67835215D01*
X223193182Y-67833669D01*
X223100589Y-67673290D01*
X223100585Y-67673284D01*
X222975472Y-67534332D01*
X222970565Y-67529914D01*
X222972550Y-67527709D01*
X222937085Y-67481731D01*
X222930999Y-67410996D01*
X222964121Y-67348199D01*
X223025936Y-67313279D01*
X223054493Y-67310000D01*
X225636507Y-67310000D01*
X225704628Y-67330002D01*
X225751121Y-67383658D01*
X225761225Y-67453932D01*
X225731731Y-67518512D01*
X225719924Y-67529346D01*
X225720435Y-67529914D01*
X225715527Y-67534332D01*
X225590414Y-67673284D01*
X225590410Y-67673290D01*
X225496928Y-67835208D01*
X225496922Y-67835220D01*
X225439146Y-68013038D01*
X225439145Y-68013042D01*
X225439145Y-68013044D01*
X225419600Y-68199000D01*
X225439146Y-68384961D01*
X225496922Y-68562779D01*
X225496928Y-68562791D01*
X225590410Y-68724709D01*
X225590414Y-68724715D01*
X225715527Y-68863667D01*
X225866795Y-68973570D01*
X225866797Y-68973571D01*
X225866800Y-68973573D01*
X226037615Y-69049625D01*
X226178582Y-69079588D01*
X226220509Y-69088500D01*
X226220510Y-69088500D01*
X226407491Y-69088500D01*
X226449418Y-69079588D01*
X226590385Y-69049625D01*
X226761200Y-68973573D01*
X226912470Y-68863669D01*
X227037585Y-68724715D01*
X227037589Y-68724709D01*
X227084330Y-68643750D01*
X227131075Y-68562785D01*
X227188855Y-68384956D01*
X227208400Y-68199000D01*
X227188855Y-68013044D01*
X227131075Y-67835215D01*
X227130182Y-67833669D01*
X227037589Y-67673290D01*
X227037585Y-67673284D01*
X226912472Y-67534332D01*
X226907565Y-67529914D01*
X226909550Y-67527709D01*
X226874085Y-67481731D01*
X226867999Y-67410996D01*
X226901121Y-67348199D01*
X226962936Y-67313279D01*
X226991493Y-67310000D01*
X229573507Y-67310000D01*
X229641628Y-67330002D01*
X229688121Y-67383658D01*
X229698225Y-67453932D01*
X229668731Y-67518512D01*
X229656924Y-67529346D01*
X229657435Y-67529914D01*
X229652527Y-67534332D01*
X229527414Y-67673284D01*
X229527410Y-67673290D01*
X229433928Y-67835208D01*
X229433922Y-67835220D01*
X229376146Y-68013038D01*
X229376145Y-68013042D01*
X229376145Y-68013044D01*
X229356600Y-68199000D01*
X229376146Y-68384961D01*
X229433922Y-68562779D01*
X229433928Y-68562791D01*
X229527410Y-68724709D01*
X229527414Y-68724715D01*
X229652527Y-68863667D01*
X229803795Y-68973570D01*
X229803797Y-68973571D01*
X229803800Y-68973573D01*
X229974615Y-69049625D01*
X230115582Y-69079588D01*
X230157509Y-69088500D01*
X230157510Y-69088500D01*
X230344491Y-69088500D01*
X230386418Y-69079588D01*
X230527385Y-69049625D01*
X230698200Y-68973573D01*
X230849470Y-68863669D01*
X230974585Y-68724715D01*
X230974589Y-68724709D01*
X231021330Y-68643750D01*
X231068075Y-68562785D01*
X231125855Y-68384956D01*
X231145400Y-68199000D01*
X231125855Y-68013044D01*
X231068075Y-67835215D01*
X231067182Y-67833669D01*
X230974589Y-67673290D01*
X230974585Y-67673284D01*
X230849472Y-67534332D01*
X230844565Y-67529914D01*
X230846550Y-67527709D01*
X230811085Y-67481731D01*
X230804999Y-67410996D01*
X230838121Y-67348199D01*
X230899936Y-67313279D01*
X230928493Y-67310000D01*
X240737107Y-67310000D01*
X240805228Y-67330002D01*
X240851721Y-67383658D01*
X240861825Y-67453932D01*
X240832331Y-67518512D01*
X240817606Y-67532931D01*
X240750504Y-67588651D01*
X240676648Y-67649981D01*
X240369981Y-67956648D01*
X240092899Y-68290326D01*
X239847792Y-68648139D01*
X239636756Y-69027021D01*
X239636753Y-69027028D01*
X239461569Y-69423780D01*
X239461563Y-69423796D01*
X239323741Y-69835003D01*
X239323732Y-69835035D01*
X239224440Y-70257198D01*
X239164520Y-70686748D01*
X239144490Y-71120000D01*
X239164520Y-71553251D01*
X239224440Y-71982801D01*
X239323732Y-72404964D01*
X239323741Y-72404996D01*
X239461563Y-72816203D01*
X239461569Y-72816219D01*
X239636753Y-73212971D01*
X239636756Y-73212978D01*
X239847792Y-73591860D01*
X240013522Y-73833797D01*
X240092902Y-73949677D01*
X240297362Y-74195899D01*
X240369981Y-74283351D01*
X240676648Y-74590018D01*
X240676653Y-74590022D01*
X240676655Y-74590024D01*
X241010323Y-74867098D01*
X241010326Y-74867100D01*
X241368139Y-75112207D01*
X241747021Y-75323243D01*
X241747025Y-75323244D01*
X241747031Y-75323248D01*
X242143786Y-75498433D01*
X242555013Y-75636262D01*
X242977202Y-75735560D01*
X243406753Y-75795480D01*
X243656529Y-75807027D01*
X243731629Y-75810500D01*
X243731634Y-75810500D01*
X243948371Y-75810500D01*
X244020152Y-75807181D01*
X244273247Y-75795480D01*
X244702798Y-75735560D01*
X245124987Y-75636262D01*
X245536214Y-75498433D01*
X245932969Y-75323248D01*
X246236154Y-75154375D01*
X246311860Y-75112207D01*
X246311860Y-75112206D01*
X246311867Y-75112203D01*
X246669677Y-74867098D01*
X247003345Y-74590024D01*
X247310024Y-74283345D01*
X247427065Y-74142396D01*
X247485971Y-74102769D01*
X247556952Y-74101278D01*
X247617471Y-74138399D01*
X247648313Y-74202346D01*
X247650000Y-74222893D01*
X247650000Y-127707106D01*
X247629998Y-127775227D01*
X247576342Y-127821720D01*
X247506068Y-127831824D01*
X247441488Y-127802330D01*
X247427064Y-127787601D01*
X247310018Y-127646648D01*
X247003351Y-127339981D01*
X246669673Y-127062899D01*
X246311860Y-126817792D01*
X245932978Y-126606756D01*
X245932971Y-126606753D01*
X245536219Y-126431569D01*
X245536203Y-126431563D01*
X245124996Y-126293741D01*
X245124995Y-126293740D01*
X245124987Y-126293738D01*
X245124976Y-126293735D01*
X245124964Y-126293732D01*
X244702800Y-126194440D01*
X244702801Y-126194440D01*
X244273251Y-126134520D01*
X243948371Y-126119500D01*
X243948366Y-126119500D01*
X243731634Y-126119500D01*
X243731629Y-126119500D01*
X243406748Y-126134520D01*
X242977198Y-126194440D01*
X242555035Y-126293732D01*
X242555017Y-126293737D01*
X242555013Y-126293738D01*
X242555009Y-126293739D01*
X242555003Y-126293741D01*
X242143796Y-126431563D01*
X242143780Y-126431569D01*
X241747028Y-126606753D01*
X241747021Y-126606756D01*
X241368139Y-126817792D01*
X241010326Y-127062899D01*
X240676648Y-127339981D01*
X240369981Y-127646648D01*
X240092899Y-127980326D01*
X239847792Y-128338139D01*
X239636756Y-128717021D01*
X239636753Y-128717028D01*
X239461569Y-129113780D01*
X239461563Y-129113796D01*
X239323741Y-129525003D01*
X239323732Y-129525035D01*
X239224440Y-129947198D01*
X239164520Y-130376748D01*
X239144490Y-130810000D01*
X239164520Y-131243251D01*
X239224440Y-131672801D01*
X239323732Y-132094964D01*
X239323741Y-132094996D01*
X239461563Y-132506203D01*
X239461569Y-132506219D01*
X239636753Y-132902971D01*
X239636756Y-132902978D01*
X239847792Y-133281860D01*
X239929707Y-133401442D01*
X240092902Y-133639677D01*
X240302715Y-133892346D01*
X240369981Y-133973351D01*
X240676648Y-134280018D01*
X240676653Y-134280022D01*
X240676655Y-134280024D01*
X240817603Y-134397065D01*
X240857231Y-134455971D01*
X240858722Y-134526952D01*
X240821601Y-134587471D01*
X240757654Y-134618313D01*
X240737107Y-134620000D01*
X159312893Y-134620000D01*
X159244772Y-134599998D01*
X159198279Y-134546342D01*
X159188175Y-134476068D01*
X159217669Y-134411488D01*
X159232393Y-134397068D01*
X159373345Y-134280024D01*
X159680024Y-133973345D01*
X159957098Y-133639677D01*
X160202203Y-133281867D01*
X160232444Y-133227575D01*
X160413243Y-132902978D01*
X160413243Y-132902977D01*
X160413248Y-132902969D01*
X160588433Y-132506214D01*
X160726262Y-132094987D01*
X160729787Y-132080000D01*
X165006844Y-132080000D01*
X165021833Y-132260890D01*
X165025437Y-132304375D01*
X165080702Y-132522612D01*
X165080703Y-132522613D01*
X165171141Y-132728793D01*
X165294275Y-132917265D01*
X165294279Y-132917270D01*
X165446762Y-133082908D01*
X165501331Y-133125381D01*
X165624424Y-133221189D01*
X165822426Y-133328342D01*
X165822427Y-133328342D01*
X165822428Y-133328343D01*
X165934227Y-133366723D01*
X166035365Y-133401444D01*
X166257431Y-133438500D01*
X166257435Y-133438500D01*
X166482565Y-133438500D01*
X166482569Y-133438500D01*
X166704635Y-133401444D01*
X166917574Y-133328342D01*
X167115576Y-133221189D01*
X167293240Y-133082906D01*
X167445722Y-132917268D01*
X167568860Y-132728791D01*
X167659296Y-132522616D01*
X167714564Y-132304368D01*
X167733156Y-132080000D01*
X167714564Y-131855632D01*
X167696241Y-131783277D01*
X167659297Y-131637387D01*
X167659296Y-131637386D01*
X167659296Y-131637384D01*
X167568860Y-131431209D01*
X167549653Y-131401810D01*
X167445724Y-131242734D01*
X167445720Y-131242729D01*
X167293237Y-131077091D01*
X167276418Y-131064000D01*
X177809450Y-131064000D01*
X177826841Y-131229462D01*
X177827601Y-131236686D01*
X177881252Y-131401810D01*
X177881256Y-131401817D01*
X177968069Y-131552183D01*
X177968070Y-131552185D01*
X178084251Y-131681217D01*
X178224720Y-131783274D01*
X178224722Y-131783275D01*
X178224725Y-131783277D01*
X178383346Y-131853900D01*
X178553184Y-131890000D01*
X178726816Y-131890000D01*
X178896654Y-131853900D01*
X179055275Y-131783277D01*
X179195746Y-131681219D01*
X179203329Y-131672798D01*
X179311929Y-131552185D01*
X179311930Y-131552183D01*
X179398745Y-131401815D01*
X179452400Y-131236681D01*
X179470550Y-131064000D01*
X179452400Y-130891319D01*
X179425816Y-130809500D01*
X179398747Y-130726189D01*
X179398743Y-130726182D01*
X179311930Y-130575816D01*
X179311929Y-130575814D01*
X179195748Y-130446782D01*
X179055279Y-130344725D01*
X178896654Y-130274100D01*
X178726816Y-130238000D01*
X178553184Y-130238000D01*
X178383345Y-130274100D01*
X178224720Y-130344725D01*
X178084251Y-130446782D01*
X177968070Y-130575814D01*
X177968069Y-130575816D01*
X177881256Y-130726182D01*
X177881252Y-130726189D01*
X177827601Y-130891313D01*
X177827600Y-130891317D01*
X177827600Y-130891319D01*
X177809450Y-131064000D01*
X167276418Y-131064000D01*
X167211382Y-131013381D01*
X167115576Y-130938811D01*
X167082319Y-130920813D01*
X167031929Y-130870802D01*
X167016576Y-130801485D01*
X167041136Y-130734872D01*
X167082320Y-130699186D01*
X167115576Y-130681189D01*
X167293240Y-130542906D01*
X167445722Y-130377268D01*
X167446059Y-130376753D01*
X167536710Y-130238000D01*
X167568860Y-130188791D01*
X167659296Y-129982616D01*
X167714564Y-129764368D01*
X167733156Y-129540000D01*
X167714564Y-129315632D01*
X167659296Y-129097384D01*
X167568860Y-128891209D01*
X167562140Y-128880924D01*
X167445724Y-128702734D01*
X167445720Y-128702729D01*
X167293237Y-128537091D01*
X167211382Y-128473381D01*
X167115576Y-128398811D01*
X167082319Y-128380813D01*
X167031929Y-128330802D01*
X167016576Y-128261485D01*
X167041136Y-128194872D01*
X167082320Y-128159186D01*
X167115576Y-128141189D01*
X167293240Y-128002906D01*
X167445722Y-127837268D01*
X167568860Y-127648791D01*
X167659296Y-127442616D01*
X167714564Y-127224368D01*
X167733156Y-127000000D01*
X167714564Y-126775632D01*
X167659296Y-126557384D01*
X167568860Y-126351209D01*
X167562140Y-126340924D01*
X167445724Y-126162734D01*
X167445714Y-126162722D01*
X167302159Y-126006782D01*
X167270737Y-125943117D01*
X167278723Y-125872571D01*
X167323582Y-125817542D01*
X167350827Y-125803388D01*
X167465965Y-125760444D01*
X167582904Y-125672904D01*
X167670444Y-125555965D01*
X167670444Y-125555964D01*
X167721494Y-125419093D01*
X167727999Y-125358597D01*
X167728000Y-125358585D01*
X167728000Y-124714000D01*
X166801116Y-124714000D01*
X166829493Y-124669844D01*
X166870000Y-124531889D01*
X166870000Y-124460000D01*
X179509450Y-124460000D01*
X179527396Y-124630744D01*
X179527601Y-124632686D01*
X179581252Y-124797810D01*
X179581256Y-124797817D01*
X179668069Y-124948183D01*
X179668070Y-124948185D01*
X179784251Y-125077217D01*
X179924720Y-125179274D01*
X179924722Y-125179275D01*
X179924725Y-125179277D01*
X180083346Y-125249900D01*
X180253184Y-125286000D01*
X180426816Y-125286000D01*
X180596654Y-125249900D01*
X180755275Y-125179277D01*
X180895746Y-125077219D01*
X181011929Y-124948185D01*
X181098745Y-124797815D01*
X181100332Y-124792933D01*
X181152398Y-124632686D01*
X181152400Y-124632681D01*
X181170550Y-124460000D01*
X190382450Y-124460000D01*
X190400396Y-124630744D01*
X190400601Y-124632686D01*
X190454252Y-124797810D01*
X190454256Y-124797817D01*
X190541069Y-124948183D01*
X190541070Y-124948185D01*
X190657251Y-125077217D01*
X190797720Y-125179274D01*
X190797722Y-125179275D01*
X190797725Y-125179277D01*
X190956346Y-125249900D01*
X191126184Y-125286000D01*
X191299816Y-125286000D01*
X191469654Y-125249900D01*
X191628275Y-125179277D01*
X191768746Y-125077219D01*
X191884929Y-124948185D01*
X191971745Y-124797815D01*
X191973332Y-124792933D01*
X192025398Y-124632686D01*
X192025400Y-124632681D01*
X192043550Y-124460000D01*
X192025400Y-124287319D01*
X191982489Y-124155251D01*
X191971747Y-124122189D01*
X191971743Y-124122182D01*
X191884930Y-123971816D01*
X191884929Y-123971814D01*
X191768748Y-123842782D01*
X191628279Y-123740725D01*
X191563564Y-123711912D01*
X191469654Y-123670100D01*
X191299816Y-123634000D01*
X191126184Y-123634000D01*
X190956345Y-123670100D01*
X190797720Y-123740725D01*
X190657251Y-123842782D01*
X190541070Y-123971814D01*
X190541069Y-123971816D01*
X190454256Y-124122182D01*
X190454252Y-124122189D01*
X190400601Y-124287313D01*
X190400600Y-124287317D01*
X190400600Y-124287319D01*
X190382450Y-124460000D01*
X181170550Y-124460000D01*
X181152400Y-124287319D01*
X181109489Y-124155251D01*
X181098747Y-124122189D01*
X181098743Y-124122182D01*
X181011930Y-123971816D01*
X181011929Y-123971814D01*
X180895748Y-123842782D01*
X180755279Y-123740725D01*
X180690564Y-123711912D01*
X180596654Y-123670100D01*
X180426816Y-123634000D01*
X180253184Y-123634000D01*
X180083345Y-123670100D01*
X179924720Y-123740725D01*
X179784251Y-123842782D01*
X179668070Y-123971814D01*
X179668069Y-123971816D01*
X179581256Y-124122182D01*
X179581252Y-124122189D01*
X179527601Y-124287313D01*
X179527600Y-124287317D01*
X179527600Y-124287319D01*
X179509450Y-124460000D01*
X166870000Y-124460000D01*
X166870000Y-124388111D01*
X166829493Y-124250156D01*
X166801116Y-124206000D01*
X167728000Y-124206000D01*
X167728000Y-123561414D01*
X167727999Y-123561402D01*
X167721494Y-123500906D01*
X167670444Y-123364035D01*
X167670444Y-123364034D01*
X167582904Y-123247095D01*
X167465965Y-123159555D01*
X167329093Y-123108505D01*
X167268597Y-123102000D01*
X166624000Y-123102000D01*
X166624000Y-124026325D01*
X166512315Y-123975320D01*
X166405763Y-123960000D01*
X166334237Y-123960000D01*
X166227685Y-123975320D01*
X166116000Y-124026325D01*
X166116000Y-123102000D01*
X165471402Y-123102000D01*
X165410906Y-123108505D01*
X165274035Y-123159555D01*
X165274034Y-123159555D01*
X165157095Y-123247095D01*
X165069555Y-123364034D01*
X165069555Y-123364035D01*
X165018505Y-123500906D01*
X165012000Y-123561402D01*
X165012000Y-124206000D01*
X165938884Y-124206000D01*
X165910507Y-124250156D01*
X165870000Y-124388111D01*
X165870000Y-124531889D01*
X165910507Y-124669844D01*
X165938884Y-124714000D01*
X165012000Y-124714000D01*
X165012000Y-125358597D01*
X165018505Y-125419093D01*
X165069555Y-125555964D01*
X165069555Y-125555965D01*
X165157095Y-125672904D01*
X165274034Y-125760444D01*
X165389172Y-125803388D01*
X165446008Y-125845935D01*
X165470819Y-125912455D01*
X165455728Y-125981829D01*
X165437841Y-126006782D01*
X165294280Y-126162729D01*
X165294275Y-126162734D01*
X165171141Y-126351206D01*
X165080703Y-126557386D01*
X165080702Y-126557387D01*
X165025437Y-126775624D01*
X165025436Y-126775630D01*
X165025436Y-126775632D01*
X165021942Y-126817797D01*
X165006844Y-127000000D01*
X165025437Y-127224375D01*
X165080702Y-127442612D01*
X165080703Y-127442613D01*
X165171141Y-127648793D01*
X165294275Y-127837265D01*
X165294279Y-127837270D01*
X165446762Y-128002908D01*
X165501331Y-128045381D01*
X165624424Y-128141189D01*
X165657680Y-128159186D01*
X165708071Y-128209200D01*
X165723423Y-128278516D01*
X165698862Y-128345129D01*
X165657680Y-128380813D01*
X165624426Y-128398810D01*
X165624424Y-128398811D01*
X165446762Y-128537091D01*
X165294279Y-128702729D01*
X165294275Y-128702734D01*
X165171141Y-128891206D01*
X165080703Y-129097386D01*
X165080702Y-129097387D01*
X165025437Y-129315624D01*
X165006844Y-129540000D01*
X165025437Y-129764375D01*
X165080702Y-129982612D01*
X165080703Y-129982613D01*
X165171141Y-130188793D01*
X165294275Y-130377265D01*
X165294279Y-130377270D01*
X165446762Y-130542908D01*
X165489040Y-130575814D01*
X165624424Y-130681189D01*
X165657680Y-130699186D01*
X165708071Y-130749200D01*
X165723423Y-130818516D01*
X165698862Y-130885129D01*
X165657680Y-130920813D01*
X165624426Y-130938810D01*
X165624424Y-130938811D01*
X165446762Y-131077091D01*
X165294279Y-131242729D01*
X165294275Y-131242734D01*
X165171141Y-131431206D01*
X165080703Y-131637386D01*
X165080702Y-131637387D01*
X165025437Y-131855624D01*
X165025436Y-131855630D01*
X165025436Y-131855632D01*
X165006844Y-132080000D01*
X160729787Y-132080000D01*
X160825560Y-131672798D01*
X160885480Y-131243247D01*
X160905510Y-130810000D01*
X160885480Y-130376753D01*
X160825560Y-129947202D01*
X160726262Y-129525013D01*
X160588433Y-129113786D01*
X160413248Y-128717031D01*
X160413244Y-128717025D01*
X160413243Y-128717021D01*
X160202207Y-128338139D01*
X160067293Y-128141189D01*
X159957098Y-127980323D01*
X159680024Y-127646655D01*
X159680022Y-127646653D01*
X159680018Y-127646648D01*
X159373351Y-127339981D01*
X159039673Y-127062899D01*
X158681860Y-126817792D01*
X158302978Y-126606756D01*
X158302971Y-126606753D01*
X157906219Y-126431569D01*
X157906203Y-126431563D01*
X157494996Y-126293741D01*
X157494995Y-126293740D01*
X157494987Y-126293738D01*
X157494976Y-126293735D01*
X157494964Y-126293732D01*
X157072800Y-126194440D01*
X157072801Y-126194440D01*
X156643251Y-126134520D01*
X156318371Y-126119500D01*
X156318366Y-126119500D01*
X156101634Y-126119500D01*
X156101629Y-126119500D01*
X155776748Y-126134520D01*
X155347198Y-126194440D01*
X154925035Y-126293732D01*
X154925017Y-126293737D01*
X154925013Y-126293738D01*
X154925009Y-126293739D01*
X154925003Y-126293741D01*
X154513796Y-126431563D01*
X154513780Y-126431569D01*
X154117028Y-126606753D01*
X154117021Y-126606756D01*
X153738139Y-126817792D01*
X153380326Y-127062899D01*
X153046648Y-127339981D01*
X152739981Y-127646648D01*
X152622936Y-127787601D01*
X152564029Y-127827230D01*
X152493048Y-127828721D01*
X152432529Y-127791600D01*
X152401686Y-127727652D01*
X152400000Y-127707106D01*
X152400000Y-124460000D01*
X161030675Y-124460000D01*
X161049912Y-124630744D01*
X161106664Y-124792930D01*
X161106665Y-124792933D01*
X161198079Y-124938417D01*
X161198080Y-124938419D01*
X161319580Y-125059919D01*
X161319582Y-125059920D01*
X161465066Y-125151334D01*
X161465067Y-125151334D01*
X161465070Y-125151336D01*
X161627254Y-125208087D01*
X161627253Y-125208087D01*
X161644543Y-125210034D01*
X161798000Y-125227325D01*
X161968746Y-125208087D01*
X162130930Y-125151336D01*
X162276419Y-125059919D01*
X162397919Y-124938419D01*
X162489336Y-124792930D01*
X162546087Y-124630746D01*
X162565325Y-124460000D01*
X162546087Y-124289254D01*
X162489336Y-124127070D01*
X162489334Y-124127067D01*
X162489334Y-124127066D01*
X162397920Y-123981582D01*
X162397919Y-123981580D01*
X162276419Y-123860080D01*
X162276417Y-123860079D01*
X162130933Y-123768665D01*
X162130930Y-123768664D01*
X162051085Y-123740725D01*
X161968746Y-123711913D01*
X161968744Y-123711912D01*
X161968746Y-123711912D01*
X161798000Y-123692675D01*
X161627255Y-123711912D01*
X161465069Y-123768664D01*
X161465066Y-123768665D01*
X161319582Y-123860079D01*
X161319580Y-123860080D01*
X161198080Y-123981580D01*
X161198079Y-123981582D01*
X161106665Y-124127066D01*
X161106664Y-124127069D01*
X161049912Y-124289255D01*
X161030675Y-124460000D01*
X152400000Y-124460000D01*
X152400000Y-122434675D01*
X240647209Y-122434675D01*
X240667026Y-122749676D01*
X240667028Y-122749693D01*
X240726173Y-123059736D01*
X240726176Y-123059749D01*
X240823708Y-123359923D01*
X240823713Y-123359936D01*
X240825642Y-123364035D01*
X240958107Y-123645538D01*
X240958109Y-123645541D01*
X240958112Y-123645547D01*
X241127231Y-123912037D01*
X241328432Y-124155247D01*
X241328435Y-124155249D01*
X241328436Y-124155251D01*
X241558529Y-124371323D01*
X241813890Y-124556853D01*
X242090490Y-124708916D01*
X242383967Y-124825112D01*
X242689694Y-124903609D01*
X242689702Y-124903610D01*
X242689701Y-124903610D01*
X242853798Y-124924339D01*
X243002848Y-124943169D01*
X243002852Y-124943169D01*
X243318486Y-124943169D01*
X243318490Y-124943169D01*
X243631644Y-124903609D01*
X243937371Y-124825112D01*
X244230848Y-124708916D01*
X244507448Y-124556853D01*
X244762809Y-124371323D01*
X244992902Y-124155251D01*
X245194101Y-123912044D01*
X245194103Y-123912039D01*
X245194106Y-123912037D01*
X245363225Y-123645547D01*
X245363231Y-123645538D01*
X245497625Y-123359935D01*
X245595164Y-123059741D01*
X245654310Y-122749689D01*
X245674129Y-122434669D01*
X245656754Y-122158500D01*
X245654311Y-122119661D01*
X245654309Y-122119644D01*
X245631150Y-121998240D01*
X245595164Y-121809597D01*
X245559109Y-121698632D01*
X245497629Y-121509414D01*
X245497624Y-121509401D01*
X245481907Y-121476000D01*
X245363231Y-121223800D01*
X245363225Y-121223790D01*
X245194106Y-120957300D01*
X244992905Y-120714090D01*
X244975845Y-120698070D01*
X244762809Y-120498015D01*
X244762808Y-120498014D01*
X244507450Y-120312486D01*
X244270838Y-120182407D01*
X244230848Y-120160422D01*
X243937371Y-120044226D01*
X243631644Y-119965729D01*
X243631639Y-119965728D01*
X243631634Y-119965727D01*
X243631636Y-119965727D01*
X243318504Y-119926170D01*
X243318493Y-119926169D01*
X243318490Y-119926169D01*
X243002848Y-119926169D01*
X243002845Y-119926169D01*
X243002833Y-119926170D01*
X242689702Y-119965727D01*
X242383970Y-120044225D01*
X242090490Y-120160422D01*
X241813887Y-120312486D01*
X241558530Y-120498014D01*
X241558529Y-120498014D01*
X241328432Y-120714090D01*
X241127231Y-120957300D01*
X240958112Y-121223790D01*
X240958105Y-121223804D01*
X240823713Y-121509401D01*
X240823708Y-121509414D01*
X240726176Y-121809588D01*
X240726173Y-121809601D01*
X240667028Y-122119644D01*
X240667026Y-122119661D01*
X240647209Y-122434662D01*
X240647209Y-122434675D01*
X152400000Y-122434675D01*
X152400000Y-121031000D01*
X161157675Y-121031000D01*
X161176912Y-121201744D01*
X161233664Y-121363930D01*
X161233665Y-121363933D01*
X161325079Y-121509417D01*
X161325080Y-121509419D01*
X161446580Y-121630919D01*
X161446582Y-121630920D01*
X161592066Y-121722334D01*
X161592067Y-121722334D01*
X161592070Y-121722336D01*
X161754254Y-121779087D01*
X161754253Y-121779087D01*
X161771543Y-121781034D01*
X161925000Y-121798325D01*
X162095746Y-121779087D01*
X162257930Y-121722336D01*
X162295628Y-121698649D01*
X220761500Y-121698649D01*
X220768009Y-121759196D01*
X220768011Y-121759204D01*
X220819110Y-121896202D01*
X220819112Y-121896207D01*
X220906738Y-122013261D01*
X221023792Y-122100887D01*
X221023794Y-122100888D01*
X221023796Y-122100889D01*
X221074080Y-122119644D01*
X221160795Y-122151988D01*
X221160803Y-122151990D01*
X221221350Y-122158499D01*
X221221355Y-122158499D01*
X221221362Y-122158500D01*
X221221368Y-122158500D01*
X223318632Y-122158500D01*
X223318638Y-122158500D01*
X223318645Y-122158499D01*
X223318649Y-122158499D01*
X223379196Y-122151990D01*
X223379199Y-122151989D01*
X223379201Y-122151989D01*
X223516204Y-122100889D01*
X223633261Y-122013261D01*
X223720889Y-121896204D01*
X223771989Y-121759201D01*
X223775953Y-121722336D01*
X223778499Y-121698649D01*
X223778500Y-121698632D01*
X223778500Y-120650000D01*
X228356835Y-120650000D01*
X228375465Y-120886710D01*
X228430894Y-121117592D01*
X228474887Y-121223800D01*
X228521760Y-121336963D01*
X228627440Y-121509417D01*
X228645825Y-121539417D01*
X228645826Y-121539419D01*
X228800030Y-121719969D01*
X228904976Y-121809601D01*
X228980584Y-121874176D01*
X229183037Y-121998240D01*
X229402406Y-122089105D01*
X229633289Y-122144535D01*
X229870000Y-122163165D01*
X230106711Y-122144535D01*
X230337594Y-122089105D01*
X230556963Y-121998240D01*
X230759416Y-121874176D01*
X230939969Y-121719969D01*
X231094176Y-121539416D01*
X231218240Y-121336963D01*
X231309105Y-121117594D01*
X231364535Y-120886711D01*
X231383165Y-120650000D01*
X231364535Y-120413289D01*
X231309105Y-120182406D01*
X231218240Y-119963037D01*
X231094176Y-119760584D01*
X230958192Y-119601367D01*
X230939969Y-119580030D01*
X230759419Y-119425826D01*
X230759417Y-119425825D01*
X230759416Y-119425824D01*
X230556963Y-119301760D01*
X230520697Y-119286738D01*
X230337592Y-119210894D01*
X230179651Y-119172976D01*
X230106711Y-119155465D01*
X229870000Y-119136835D01*
X229633289Y-119155465D01*
X229402407Y-119210894D01*
X229183038Y-119301759D01*
X228980582Y-119425825D01*
X228980580Y-119425826D01*
X228800030Y-119580030D01*
X228645826Y-119760580D01*
X228645825Y-119760582D01*
X228521759Y-119963038D01*
X228430894Y-120182407D01*
X228375465Y-120413289D01*
X228356835Y-120650000D01*
X223778500Y-120650000D01*
X223778500Y-119601367D01*
X223778499Y-119601350D01*
X223771990Y-119540803D01*
X223771988Y-119540795D01*
X223720889Y-119403797D01*
X223720887Y-119403792D01*
X223633261Y-119286738D01*
X223516207Y-119199112D01*
X223516202Y-119199110D01*
X223379204Y-119148011D01*
X223379196Y-119148009D01*
X223318649Y-119141500D01*
X223318638Y-119141500D01*
X221221362Y-119141500D01*
X221221350Y-119141500D01*
X221160803Y-119148009D01*
X221160795Y-119148011D01*
X221023797Y-119199110D01*
X221023792Y-119199112D01*
X220906738Y-119286738D01*
X220819112Y-119403792D01*
X220819110Y-119403797D01*
X220768011Y-119540795D01*
X220768009Y-119540803D01*
X220761500Y-119601350D01*
X220761500Y-121698649D01*
X162295628Y-121698649D01*
X162403419Y-121630919D01*
X162524919Y-121509419D01*
X162616336Y-121363930D01*
X162673087Y-121201746D01*
X162692325Y-121031000D01*
X162673087Y-120860254D01*
X162616336Y-120698070D01*
X162616334Y-120698067D01*
X162616334Y-120698066D01*
X162586132Y-120650000D01*
X215323450Y-120650000D01*
X215328502Y-120698070D01*
X215341601Y-120822686D01*
X215395252Y-120987810D01*
X215395256Y-120987817D01*
X215482069Y-121138183D01*
X215482070Y-121138185D01*
X215598251Y-121267217D01*
X215738720Y-121369274D01*
X215738722Y-121369275D01*
X215738725Y-121369277D01*
X215897346Y-121439900D01*
X216067184Y-121476000D01*
X216240816Y-121476000D01*
X216410654Y-121439900D01*
X216569275Y-121369277D01*
X216709746Y-121267219D01*
X216825929Y-121138185D01*
X216912745Y-120987815D01*
X216966400Y-120822681D01*
X216984550Y-120650000D01*
X216966400Y-120477319D01*
X216962789Y-120466208D01*
X216912747Y-120312189D01*
X216912743Y-120312182D01*
X216825930Y-120161816D01*
X216825929Y-120161814D01*
X216709748Y-120032782D01*
X216569279Y-119930725D01*
X216559048Y-119926170D01*
X216410654Y-119860100D01*
X216240816Y-119824000D01*
X216067184Y-119824000D01*
X215897345Y-119860100D01*
X215738720Y-119930725D01*
X215598251Y-120032782D01*
X215482070Y-120161814D01*
X215482069Y-120161816D01*
X215395256Y-120312182D01*
X215395252Y-120312189D01*
X215341601Y-120477313D01*
X215341600Y-120477317D01*
X215341600Y-120477319D01*
X215323450Y-120650000D01*
X162586132Y-120650000D01*
X162524920Y-120552582D01*
X162524919Y-120552580D01*
X162403419Y-120431080D01*
X162403417Y-120431079D01*
X162257933Y-120339665D01*
X162257930Y-120339664D01*
X162179411Y-120312189D01*
X162095746Y-120282913D01*
X162095744Y-120282912D01*
X162095746Y-120282912D01*
X161925000Y-120263675D01*
X161754255Y-120282912D01*
X161592069Y-120339664D01*
X161592066Y-120339665D01*
X161446582Y-120431079D01*
X161446580Y-120431080D01*
X161325080Y-120552580D01*
X161325079Y-120552582D01*
X161233665Y-120698066D01*
X161233664Y-120698069D01*
X161176912Y-120860255D01*
X161157675Y-121031000D01*
X152400000Y-121031000D01*
X152400000Y-117602000D01*
X161030675Y-117602000D01*
X161049912Y-117772744D01*
X161106664Y-117934930D01*
X161106665Y-117934933D01*
X161198079Y-118080417D01*
X161198080Y-118080419D01*
X161319580Y-118201919D01*
X161319582Y-118201920D01*
X161465066Y-118293334D01*
X161465067Y-118293334D01*
X161465070Y-118293336D01*
X161627254Y-118350087D01*
X161627253Y-118350087D01*
X161644543Y-118352034D01*
X161798000Y-118369325D01*
X161968746Y-118350087D01*
X162130930Y-118293336D01*
X162276419Y-118201919D01*
X162397919Y-118080419D01*
X162489336Y-117934930D01*
X162546087Y-117772746D01*
X162565325Y-117602000D01*
X162546087Y-117431254D01*
X162489336Y-117269070D01*
X162489334Y-117269067D01*
X162489334Y-117269066D01*
X162397920Y-117123582D01*
X162397919Y-117123580D01*
X162276419Y-117002080D01*
X162276417Y-117002079D01*
X162130933Y-116910665D01*
X162130930Y-116910664D01*
X161968746Y-116853913D01*
X161968744Y-116853912D01*
X161968746Y-116853912D01*
X161798000Y-116834675D01*
X161627255Y-116853912D01*
X161465069Y-116910664D01*
X161465066Y-116910665D01*
X161319582Y-117002079D01*
X161319580Y-117002080D01*
X161198080Y-117123580D01*
X161198079Y-117123582D01*
X161106665Y-117269066D01*
X161106664Y-117269069D01*
X161049912Y-117431255D01*
X161030675Y-117602000D01*
X152400000Y-117602000D01*
X152400000Y-114779669D01*
X239797171Y-114779669D01*
X239817126Y-115007756D01*
X239876385Y-115228912D01*
X239973146Y-115436418D01*
X240104471Y-115623969D01*
X240266369Y-115785867D01*
X240453920Y-115917192D01*
X240661426Y-116013953D01*
X240882582Y-116073212D01*
X241110669Y-116093167D01*
X241338756Y-116073212D01*
X241559912Y-116013953D01*
X241767418Y-115917192D01*
X241954969Y-115785867D01*
X242116867Y-115623969D01*
X242248192Y-115436418D01*
X242344953Y-115228912D01*
X242404212Y-115007756D01*
X242409494Y-114947373D01*
X242435355Y-114881260D01*
X242492858Y-114839619D01*
X242563745Y-114835677D01*
X242588261Y-114844162D01*
X242641426Y-114868953D01*
X242862582Y-114928212D01*
X243090669Y-114948167D01*
X243318756Y-114928212D01*
X243539912Y-114868953D01*
X243593072Y-114844163D01*
X243663264Y-114833502D01*
X243728077Y-114862481D01*
X243766933Y-114921901D01*
X243771842Y-114947370D01*
X243777126Y-115007756D01*
X243836385Y-115228912D01*
X243933146Y-115436418D01*
X244064471Y-115623969D01*
X244226369Y-115785867D01*
X244413920Y-115917192D01*
X244621426Y-116013953D01*
X244842582Y-116073212D01*
X245070669Y-116093167D01*
X245298756Y-116073212D01*
X245519912Y-116013953D01*
X245727418Y-115917192D01*
X245914969Y-115785867D01*
X246076867Y-115623969D01*
X246208192Y-115436418D01*
X246304953Y-115228912D01*
X246364212Y-115007756D01*
X246384167Y-114779669D01*
X246364212Y-114551582D01*
X246304953Y-114330426D01*
X246208192Y-114122920D01*
X246076867Y-113935369D01*
X245914969Y-113773471D01*
X245864141Y-113737881D01*
X245819814Y-113682426D01*
X245812505Y-113611806D01*
X245844535Y-113548446D01*
X245864137Y-113531459D01*
X245914969Y-113495867D01*
X246076867Y-113333969D01*
X246208192Y-113146418D01*
X246304953Y-112938912D01*
X246364212Y-112717756D01*
X246384167Y-112489669D01*
X246364212Y-112261582D01*
X246304953Y-112040426D01*
X246208192Y-111832920D01*
X246076867Y-111645369D01*
X245914969Y-111483471D01*
X245864141Y-111447881D01*
X245819814Y-111392426D01*
X245812505Y-111321806D01*
X245844535Y-111258446D01*
X245864137Y-111241459D01*
X245914969Y-111205867D01*
X246076867Y-111043969D01*
X246208192Y-110856418D01*
X246304953Y-110648912D01*
X246364212Y-110427756D01*
X246384167Y-110199669D01*
X246364212Y-109971582D01*
X246304953Y-109750426D01*
X246208192Y-109542920D01*
X246076867Y-109355369D01*
X245914969Y-109193471D01*
X245864141Y-109157881D01*
X245819814Y-109102426D01*
X245812505Y-109031806D01*
X245844535Y-108968446D01*
X245864137Y-108951459D01*
X245914969Y-108915867D01*
X246076867Y-108753969D01*
X246208192Y-108566418D01*
X246304953Y-108358912D01*
X246364212Y-108137756D01*
X246384167Y-107909669D01*
X246364212Y-107681582D01*
X246304953Y-107460426D01*
X246208192Y-107252920D01*
X246076867Y-107065369D01*
X245914969Y-106903471D01*
X245864141Y-106867881D01*
X245819814Y-106812426D01*
X245812505Y-106741806D01*
X245844535Y-106678446D01*
X245864137Y-106661459D01*
X245914969Y-106625867D01*
X246076867Y-106463969D01*
X246208192Y-106276418D01*
X246304953Y-106068912D01*
X246364212Y-105847756D01*
X246384167Y-105619669D01*
X246364212Y-105391582D01*
X246304953Y-105170426D01*
X246208192Y-104962920D01*
X246076867Y-104775369D01*
X245914969Y-104613471D01*
X245883825Y-104591664D01*
X245727418Y-104482146D01*
X245519915Y-104385386D01*
X245519909Y-104385384D01*
X245372665Y-104345930D01*
X245298756Y-104326126D01*
X245070669Y-104306171D01*
X244842582Y-104326126D01*
X244621428Y-104385384D01*
X244621417Y-104385388D01*
X244568263Y-104410174D01*
X244498071Y-104420835D01*
X244433258Y-104391854D01*
X244394403Y-104332434D01*
X244389495Y-104306971D01*
X244384212Y-104246582D01*
X244324953Y-104025426D01*
X244228192Y-103817920D01*
X244096867Y-103630369D01*
X243934969Y-103468471D01*
X243747418Y-103337146D01*
X243673621Y-103302734D01*
X243539915Y-103240386D01*
X243539909Y-103240384D01*
X243400129Y-103202930D01*
X243318756Y-103181126D01*
X243090669Y-103161171D01*
X242862582Y-103181126D01*
X242641428Y-103240384D01*
X242641422Y-103240386D01*
X242433919Y-103337146D01*
X242246372Y-103468468D01*
X242246366Y-103468473D01*
X242084473Y-103630366D01*
X242084468Y-103630372D01*
X241953146Y-103817919D01*
X241856386Y-104025422D01*
X241856384Y-104025428D01*
X241804844Y-104217780D01*
X241767892Y-104278403D01*
X241704032Y-104309424D01*
X241683137Y-104311169D01*
X240262019Y-104311169D01*
X240201472Y-104317678D01*
X240201464Y-104317680D01*
X240064466Y-104368779D01*
X240064461Y-104368781D01*
X239947407Y-104456407D01*
X239859781Y-104573461D01*
X239859779Y-104573466D01*
X239808680Y-104710464D01*
X239808678Y-104710472D01*
X239802169Y-104771019D01*
X239802169Y-106468318D01*
X239808678Y-106528865D01*
X239808680Y-106528873D01*
X239859779Y-106665871D01*
X239859781Y-106665876D01*
X239947407Y-106782930D01*
X240064464Y-106870558D01*
X240068975Y-106873021D01*
X240119179Y-106923221D01*
X240134272Y-106992595D01*
X240109463Y-107059116D01*
X240105118Y-107064597D01*
X240104473Y-107065364D01*
X239973146Y-107252919D01*
X239876386Y-107460422D01*
X239876384Y-107460428D01*
X239817126Y-107681582D01*
X239797171Y-107909669D01*
X239817126Y-108137756D01*
X239830876Y-108189070D01*
X239876384Y-108358909D01*
X239876386Y-108358915D01*
X239973146Y-108566418D01*
X240018143Y-108630681D01*
X240104471Y-108753969D01*
X240266369Y-108915867D01*
X240266372Y-108915869D01*
X240317195Y-108951456D01*
X240361523Y-109006913D01*
X240368832Y-109077533D01*
X240336801Y-109140893D01*
X240317195Y-109157882D01*
X240266372Y-109193468D01*
X240266366Y-109193473D01*
X240104473Y-109355366D01*
X240104468Y-109355372D01*
X239973146Y-109542919D01*
X239876386Y-109750422D01*
X239876384Y-109750428D01*
X239817126Y-109971582D01*
X239797171Y-110199669D01*
X239817126Y-110427756D01*
X239828495Y-110470185D01*
X239876384Y-110648909D01*
X239876386Y-110648915D01*
X239900803Y-110701277D01*
X239973146Y-110856418D01*
X240104471Y-111043969D01*
X240266369Y-111205867D01*
X240266372Y-111205869D01*
X240317195Y-111241456D01*
X240361523Y-111296913D01*
X240368832Y-111367533D01*
X240336801Y-111430893D01*
X240317195Y-111447882D01*
X240266372Y-111483468D01*
X240266366Y-111483473D01*
X240104473Y-111645366D01*
X240104468Y-111645372D01*
X239973146Y-111832919D01*
X239876386Y-112040422D01*
X239876384Y-112040428D01*
X239817126Y-112261582D01*
X239797171Y-112489669D01*
X239817126Y-112717755D01*
X239876384Y-112938909D01*
X239876386Y-112938915D01*
X239945129Y-113086335D01*
X239973146Y-113146418D01*
X240104471Y-113333969D01*
X240266369Y-113495867D01*
X240266372Y-113495869D01*
X240317195Y-113531456D01*
X240361523Y-113586913D01*
X240368832Y-113657533D01*
X240336801Y-113720893D01*
X240317195Y-113737882D01*
X240266372Y-113773468D01*
X240266366Y-113773473D01*
X240104473Y-113935366D01*
X240104468Y-113935372D01*
X239973146Y-114122919D01*
X239876386Y-114330422D01*
X239876385Y-114330426D01*
X239817126Y-114551582D01*
X239797171Y-114779669D01*
X152400000Y-114779669D01*
X152400000Y-112522000D01*
X157411450Y-112522000D01*
X157429338Y-112692189D01*
X157429601Y-112694686D01*
X157483252Y-112859810D01*
X157483256Y-112859817D01*
X157570069Y-113010183D01*
X157570070Y-113010185D01*
X157686251Y-113139217D01*
X157826720Y-113241274D01*
X157826722Y-113241275D01*
X157826725Y-113241277D01*
X157985346Y-113311900D01*
X158155184Y-113348000D01*
X158328816Y-113348000D01*
X158498654Y-113311900D01*
X158657275Y-113241277D01*
X158797746Y-113139219D01*
X158913929Y-113010185D01*
X159000745Y-112859815D01*
X159054400Y-112694681D01*
X159072550Y-112522000D01*
X159054400Y-112349319D01*
X159041860Y-112310725D01*
X159000747Y-112184189D01*
X159000743Y-112184182D01*
X158913930Y-112033816D01*
X158913929Y-112033814D01*
X158797748Y-111904782D01*
X158657279Y-111802725D01*
X158596753Y-111775777D01*
X158561318Y-111760000D01*
X181516844Y-111760000D01*
X181533908Y-111965930D01*
X181535437Y-111984375D01*
X181590702Y-112202612D01*
X181590703Y-112202613D01*
X181590704Y-112202616D01*
X181675091Y-112395000D01*
X181681141Y-112408793D01*
X181804275Y-112597265D01*
X181804279Y-112597270D01*
X181956762Y-112762908D01*
X182011331Y-112805381D01*
X182134424Y-112901189D01*
X182332426Y-113008342D01*
X182332427Y-113008342D01*
X182332428Y-113008343D01*
X182444227Y-113046723D01*
X182545365Y-113081444D01*
X182767431Y-113118500D01*
X182767435Y-113118500D01*
X182992565Y-113118500D01*
X182992569Y-113118500D01*
X183214635Y-113081444D01*
X183427574Y-113008342D01*
X183625576Y-112901189D01*
X183803240Y-112762906D01*
X183955722Y-112597268D01*
X184078860Y-112408791D01*
X184169296Y-112202616D01*
X184224564Y-111984368D01*
X184243156Y-111760000D01*
X201162675Y-111760000D01*
X201181912Y-111930744D01*
X201238664Y-112092930D01*
X201238665Y-112092933D01*
X201330079Y-112238417D01*
X201330080Y-112238419D01*
X201451580Y-112359919D01*
X201451582Y-112359920D01*
X201597066Y-112451334D01*
X201597067Y-112451334D01*
X201597070Y-112451336D01*
X201759254Y-112508087D01*
X201759253Y-112508087D01*
X201776543Y-112510034D01*
X201930000Y-112527325D01*
X202100746Y-112508087D01*
X202262930Y-112451336D01*
X202352588Y-112395000D01*
X203702675Y-112395000D01*
X203721912Y-112565744D01*
X203778664Y-112727930D01*
X203778665Y-112727933D01*
X203870079Y-112873417D01*
X203870080Y-112873419D01*
X203991580Y-112994919D01*
X203991582Y-112994920D01*
X204137066Y-113086334D01*
X204137067Y-113086334D01*
X204137070Y-113086336D01*
X204299254Y-113143087D01*
X204299253Y-113143087D01*
X204316543Y-113145034D01*
X204470000Y-113162325D01*
X204640746Y-113143087D01*
X204802930Y-113086336D01*
X204892588Y-113030000D01*
X220276450Y-113030000D01*
X220290358Y-113162325D01*
X220294601Y-113202686D01*
X220348252Y-113367810D01*
X220348256Y-113367817D01*
X220435069Y-113518183D01*
X220435070Y-113518185D01*
X220551251Y-113647217D01*
X220691720Y-113749274D01*
X220691722Y-113749275D01*
X220691725Y-113749277D01*
X220850346Y-113819900D01*
X221020184Y-113856000D01*
X221193816Y-113856000D01*
X221363654Y-113819900D01*
X221522275Y-113749277D01*
X221662746Y-113647219D01*
X221674046Y-113634669D01*
X221775364Y-113522145D01*
X221835810Y-113484905D01*
X221906793Y-113486257D01*
X221962636Y-113522145D01*
X222075251Y-113647217D01*
X222215720Y-113749274D01*
X222215722Y-113749275D01*
X222215725Y-113749277D01*
X222374346Y-113819900D01*
X222544184Y-113856000D01*
X222717816Y-113856000D01*
X222887654Y-113819900D01*
X223046275Y-113749277D01*
X223186746Y-113647219D01*
X223204779Y-113627192D01*
X223302929Y-113518185D01*
X223302930Y-113518183D01*
X223315816Y-113495864D01*
X223389745Y-113367815D01*
X223396184Y-113348000D01*
X223443398Y-113202686D01*
X223443400Y-113202681D01*
X223461550Y-113030000D01*
X223443400Y-112857319D01*
X223439789Y-112846208D01*
X223389747Y-112692189D01*
X223389743Y-112692182D01*
X223302930Y-112541816D01*
X223302929Y-112541814D01*
X223186748Y-112412782D01*
X223046279Y-112310725D01*
X222887654Y-112240100D01*
X222717816Y-112204000D01*
X222544184Y-112204000D01*
X222374345Y-112240100D01*
X222215720Y-112310725D01*
X222075253Y-112412781D01*
X221962636Y-112537855D01*
X221902190Y-112575094D01*
X221831206Y-112573742D01*
X221775364Y-112537855D01*
X221662746Y-112412781D01*
X221522279Y-112310725D01*
X221363654Y-112240100D01*
X221193816Y-112204000D01*
X221020184Y-112204000D01*
X220850345Y-112240100D01*
X220691720Y-112310725D01*
X220551251Y-112412782D01*
X220435070Y-112541814D01*
X220435069Y-112541816D01*
X220348256Y-112692182D01*
X220348252Y-112692189D01*
X220294601Y-112857313D01*
X220294600Y-112857317D01*
X220294600Y-112857319D01*
X220276450Y-113030000D01*
X204892588Y-113030000D01*
X204948419Y-112994919D01*
X205069919Y-112873419D01*
X205161336Y-112727930D01*
X205218087Y-112565746D01*
X205237325Y-112395000D01*
X205218087Y-112224254D01*
X205161336Y-112062070D01*
X205161334Y-112062067D01*
X205159077Y-112055616D01*
X205155457Y-111984711D01*
X205159077Y-111972384D01*
X205161334Y-111965932D01*
X205161336Y-111965930D01*
X205218087Y-111803746D01*
X205237325Y-111633000D01*
X205218087Y-111462254D01*
X205161336Y-111300070D01*
X205161334Y-111300067D01*
X205161334Y-111300066D01*
X205069920Y-111154582D01*
X205069919Y-111154580D01*
X204971839Y-111056500D01*
X217921950Y-111056500D01*
X217937649Y-111205864D01*
X217940101Y-111229186D01*
X217993752Y-111394310D01*
X217993756Y-111394317D01*
X218080569Y-111544683D01*
X218080570Y-111544685D01*
X218196751Y-111673717D01*
X218337220Y-111775774D01*
X218337222Y-111775775D01*
X218337225Y-111775777D01*
X218495846Y-111846400D01*
X218665684Y-111882500D01*
X218839316Y-111882500D01*
X219009154Y-111846400D01*
X219167775Y-111775777D01*
X219308246Y-111673719D01*
X219424429Y-111544685D01*
X219511245Y-111394315D01*
X219522425Y-111359908D01*
X219555391Y-111258446D01*
X219564900Y-111229181D01*
X219583050Y-111056500D01*
X219564900Y-110883819D01*
X219554296Y-110851183D01*
X219549980Y-110837898D01*
X219547953Y-110766930D01*
X219584615Y-110706132D01*
X219648327Y-110674807D01*
X219718861Y-110682901D01*
X219743875Y-110697026D01*
X219749725Y-110701277D01*
X219908346Y-110771900D01*
X220078184Y-110808000D01*
X220251816Y-110808000D01*
X220421654Y-110771900D01*
X220580275Y-110701277D01*
X220720746Y-110599219D01*
X220792454Y-110519580D01*
X220836929Y-110470185D01*
X220836930Y-110470183D01*
X220854771Y-110439281D01*
X220898812Y-110363000D01*
X227388450Y-110363000D01*
X227406601Y-110535686D01*
X227460252Y-110700810D01*
X227460256Y-110700817D01*
X227547069Y-110851183D01*
X227547070Y-110851185D01*
X227663251Y-110980217D01*
X227803720Y-111082274D01*
X227803722Y-111082275D01*
X227803725Y-111082277D01*
X227962346Y-111152900D01*
X228132184Y-111189000D01*
X228305816Y-111189000D01*
X228475654Y-111152900D01*
X228634275Y-111082277D01*
X228774746Y-110980219D01*
X228776578Y-110978185D01*
X228890929Y-110851185D01*
X228890930Y-110851183D01*
X228904420Y-110827817D01*
X228977745Y-110700815D01*
X228986196Y-110674807D01*
X229020796Y-110568316D01*
X229031400Y-110535681D01*
X229036201Y-110490000D01*
X232595450Y-110490000D01*
X232612153Y-110648915D01*
X232613601Y-110662686D01*
X232667252Y-110827810D01*
X232667256Y-110827817D01*
X232754069Y-110978183D01*
X232754070Y-110978185D01*
X232870251Y-111107217D01*
X233010720Y-111209274D01*
X233010722Y-111209275D01*
X233010725Y-111209277D01*
X233169346Y-111279900D01*
X233339184Y-111316000D01*
X233512816Y-111316000D01*
X233682654Y-111279900D01*
X233841275Y-111209277D01*
X233981746Y-111107219D01*
X234097929Y-110978185D01*
X234184745Y-110827815D01*
X234184928Y-110827254D01*
X234226009Y-110700817D01*
X234238400Y-110662681D01*
X234256550Y-110490000D01*
X234238400Y-110317319D01*
X234223535Y-110271570D01*
X234184747Y-110152189D01*
X234184743Y-110152182D01*
X234097930Y-110001816D01*
X234097929Y-110001814D01*
X233981748Y-109872782D01*
X233841279Y-109770725D01*
X233785254Y-109745781D01*
X233682654Y-109700100D01*
X233512816Y-109664000D01*
X233339184Y-109664000D01*
X233169345Y-109700100D01*
X233010720Y-109770725D01*
X232870251Y-109872782D01*
X232754070Y-110001814D01*
X232754069Y-110001816D01*
X232667256Y-110152182D01*
X232667252Y-110152189D01*
X232613601Y-110317313D01*
X232613600Y-110317317D01*
X232613600Y-110317319D01*
X232595450Y-110490000D01*
X229036201Y-110490000D01*
X229049550Y-110363000D01*
X229031400Y-110190319D01*
X229019009Y-110152182D01*
X228977747Y-110025189D01*
X228977743Y-110025182D01*
X228890930Y-109874816D01*
X228890929Y-109874814D01*
X228774748Y-109745782D01*
X228634279Y-109643725D01*
X228475654Y-109573100D01*
X228305816Y-109537000D01*
X228132184Y-109537000D01*
X227962345Y-109573100D01*
X227803720Y-109643725D01*
X227663251Y-109745782D01*
X227547070Y-109874814D01*
X227547069Y-109874816D01*
X227460256Y-110025182D01*
X227460252Y-110025189D01*
X227406601Y-110190313D01*
X227406600Y-110190317D01*
X227406600Y-110190319D01*
X227398060Y-110271570D01*
X227388450Y-110363000D01*
X220898812Y-110363000D01*
X220923745Y-110319815D01*
X220977400Y-110154681D01*
X220995550Y-109982000D01*
X220977400Y-109809319D01*
X220964860Y-109770725D01*
X220923747Y-109644189D01*
X220923743Y-109644182D01*
X220836930Y-109493816D01*
X220836929Y-109493814D01*
X220720748Y-109364782D01*
X220580279Y-109262725D01*
X220469350Y-109213336D01*
X220421654Y-109192100D01*
X220251816Y-109156000D01*
X220078184Y-109156000D01*
X219908345Y-109192100D01*
X219749720Y-109262725D01*
X219609251Y-109364782D01*
X219493070Y-109493814D01*
X219493069Y-109493816D01*
X219406256Y-109644182D01*
X219406252Y-109644189D01*
X219352601Y-109809313D01*
X219352600Y-109809317D01*
X219352600Y-109809319D01*
X219334450Y-109982000D01*
X219352600Y-110154681D01*
X219352600Y-110154683D01*
X219352601Y-110154685D01*
X219367520Y-110200603D01*
X219369546Y-110271570D01*
X219332883Y-110332368D01*
X219269170Y-110363692D01*
X219198636Y-110355598D01*
X219173622Y-110341471D01*
X219167777Y-110337224D01*
X219156870Y-110332368D01*
X219009154Y-110266600D01*
X218839316Y-110230500D01*
X218665684Y-110230500D01*
X218495845Y-110266600D01*
X218337220Y-110337225D01*
X218196751Y-110439282D01*
X218080570Y-110568314D01*
X218080569Y-110568316D01*
X217993756Y-110718682D01*
X217993752Y-110718689D01*
X217940101Y-110883813D01*
X217940100Y-110883817D01*
X217940100Y-110883819D01*
X217921950Y-111056500D01*
X204971839Y-111056500D01*
X204948419Y-111033080D01*
X204948417Y-111033079D01*
X204802933Y-110941665D01*
X204802930Y-110941664D01*
X204640746Y-110884913D01*
X204640744Y-110884912D01*
X204640746Y-110884912D01*
X204470000Y-110865675D01*
X204299255Y-110884912D01*
X204137069Y-110941664D01*
X204137066Y-110941665D01*
X203991582Y-111033079D01*
X203991580Y-111033080D01*
X203870080Y-111154580D01*
X203870079Y-111154582D01*
X203778665Y-111300066D01*
X203778664Y-111300069D01*
X203721912Y-111462255D01*
X203702675Y-111633000D01*
X203721912Y-111803744D01*
X203780922Y-111972385D01*
X203784541Y-112043289D01*
X203780922Y-112055615D01*
X203721912Y-112224255D01*
X203702675Y-112395000D01*
X202352588Y-112395000D01*
X202408419Y-112359919D01*
X202529919Y-112238419D01*
X202621336Y-112092930D01*
X202678087Y-111930746D01*
X202697325Y-111760000D01*
X202678087Y-111589254D01*
X202621336Y-111427070D01*
X202621334Y-111427067D01*
X202619077Y-111420616D01*
X202615457Y-111349711D01*
X202619077Y-111337384D01*
X202621334Y-111330932D01*
X202621336Y-111330930D01*
X202678087Y-111168746D01*
X202697325Y-110998000D01*
X202678087Y-110827254D01*
X202621336Y-110665070D01*
X202621334Y-110665067D01*
X202621334Y-110665066D01*
X202529920Y-110519582D01*
X202529919Y-110519580D01*
X202408419Y-110398080D01*
X202408417Y-110398079D01*
X202262933Y-110306665D01*
X202262930Y-110306664D01*
X202100746Y-110249913D01*
X202100744Y-110249912D01*
X202100746Y-110249912D01*
X201930000Y-110230675D01*
X201759255Y-110249912D01*
X201597069Y-110306664D01*
X201597066Y-110306665D01*
X201451582Y-110398079D01*
X201451580Y-110398080D01*
X201330080Y-110519580D01*
X201330079Y-110519582D01*
X201238665Y-110665066D01*
X201238664Y-110665069D01*
X201181912Y-110827255D01*
X201162675Y-110998000D01*
X201181912Y-111168744D01*
X201240922Y-111337385D01*
X201244541Y-111408289D01*
X201240922Y-111420615D01*
X201181912Y-111589255D01*
X201162675Y-111760000D01*
X184243156Y-111760000D01*
X184224564Y-111535632D01*
X184202343Y-111447882D01*
X184169297Y-111317387D01*
X184169296Y-111317386D01*
X184169296Y-111317384D01*
X184078860Y-111111209D01*
X184043117Y-111056500D01*
X183955724Y-110922734D01*
X183955720Y-110922729D01*
X183803237Y-110757091D01*
X183685009Y-110665070D01*
X183625576Y-110618811D01*
X183592319Y-110600813D01*
X183541929Y-110550802D01*
X183526576Y-110481485D01*
X183551136Y-110414872D01*
X183592320Y-110379186D01*
X183625576Y-110361189D01*
X183803240Y-110222906D01*
X183955722Y-110057268D01*
X184078860Y-109868791D01*
X184169296Y-109662616D01*
X184224564Y-109444368D01*
X184243156Y-109220000D01*
X184224564Y-108995632D01*
X184188934Y-108854933D01*
X184169297Y-108777387D01*
X184169296Y-108777386D01*
X184169296Y-108777384D01*
X184078860Y-108571209D01*
X184004897Y-108458000D01*
X224975450Y-108458000D01*
X224993601Y-108630686D01*
X225047252Y-108795810D01*
X225047256Y-108795817D01*
X225134069Y-108946183D01*
X225134070Y-108946185D01*
X225250251Y-109075217D01*
X225390720Y-109177274D01*
X225390722Y-109177275D01*
X225390725Y-109177277D01*
X225549346Y-109247900D01*
X225719184Y-109284000D01*
X225892816Y-109284000D01*
X226062654Y-109247900D01*
X226221275Y-109177277D01*
X226361746Y-109075219D01*
X226380250Y-109054669D01*
X226477929Y-108946185D01*
X226477930Y-108946183D01*
X226530613Y-108854933D01*
X226564745Y-108795815D01*
X226618400Y-108630681D01*
X226636550Y-108458000D01*
X226618400Y-108285319D01*
X226614789Y-108274208D01*
X226564747Y-108120189D01*
X226564743Y-108120182D01*
X226477930Y-107969816D01*
X226477929Y-107969814D01*
X226361748Y-107840782D01*
X226221279Y-107738725D01*
X226189147Y-107724419D01*
X226062654Y-107668100D01*
X225892816Y-107632000D01*
X225719184Y-107632000D01*
X225549345Y-107668100D01*
X225390720Y-107738725D01*
X225250251Y-107840782D01*
X225134070Y-107969814D01*
X225134069Y-107969816D01*
X225047256Y-108120182D01*
X225047252Y-108120189D01*
X224993601Y-108285313D01*
X224993600Y-108285317D01*
X224993600Y-108285319D01*
X224993289Y-108288277D01*
X224975450Y-108458000D01*
X184004897Y-108458000D01*
X183955724Y-108382734D01*
X183955720Y-108382729D01*
X183803237Y-108217091D01*
X183721382Y-108153381D01*
X183625576Y-108078811D01*
X183592319Y-108060813D01*
X183541929Y-108010802D01*
X183526576Y-107941485D01*
X183551136Y-107874872D01*
X183592320Y-107839186D01*
X183625576Y-107821189D01*
X183803240Y-107682906D01*
X183908099Y-107569000D01*
X200845450Y-107569000D01*
X200863289Y-107738725D01*
X200863601Y-107741686D01*
X200917252Y-107906810D01*
X200917256Y-107906817D01*
X201004069Y-108057183D01*
X201004070Y-108057185D01*
X201120251Y-108186217D01*
X201260720Y-108288274D01*
X201260722Y-108288275D01*
X201260725Y-108288277D01*
X201419346Y-108358900D01*
X201589184Y-108395000D01*
X201762816Y-108395000D01*
X201932654Y-108358900D01*
X202091275Y-108288277D01*
X202231746Y-108186219D01*
X202275383Y-108137756D01*
X202347929Y-108057185D01*
X202347930Y-108057183D01*
X202434745Y-107906815D01*
X202438770Y-107894429D01*
X202477927Y-107773913D01*
X202488400Y-107741681D01*
X202506550Y-107569000D01*
X202488400Y-107396319D01*
X202455540Y-107295185D01*
X202434747Y-107231189D01*
X202434743Y-107231182D01*
X202373151Y-107124500D01*
X206433175Y-107124500D01*
X206452412Y-107295244D01*
X206509164Y-107457430D01*
X206509165Y-107457433D01*
X206600579Y-107602917D01*
X206600580Y-107602919D01*
X206722080Y-107724419D01*
X206722082Y-107724420D01*
X206867566Y-107815834D01*
X206867567Y-107815834D01*
X206867570Y-107815836D01*
X207029754Y-107872587D01*
X207029753Y-107872587D01*
X207047043Y-107874534D01*
X207200500Y-107891825D01*
X207371246Y-107872587D01*
X207533430Y-107815836D01*
X207678919Y-107724419D01*
X207800419Y-107602919D01*
X207891836Y-107457430D01*
X207948587Y-107295246D01*
X207967825Y-107124500D01*
X207948587Y-106953754D01*
X207897235Y-106807000D01*
X216593450Y-106807000D01*
X216605501Y-106921658D01*
X216611601Y-106979686D01*
X216665252Y-107144810D01*
X216665256Y-107144817D01*
X216752069Y-107295183D01*
X216752070Y-107295185D01*
X216868251Y-107424217D01*
X217008720Y-107526274D01*
X217008722Y-107526275D01*
X217008725Y-107526277D01*
X217167346Y-107596900D01*
X217337184Y-107633000D01*
X217510816Y-107633000D01*
X217680654Y-107596900D01*
X217743318Y-107569000D01*
X227896450Y-107569000D01*
X227914289Y-107738725D01*
X227914601Y-107741686D01*
X227968252Y-107906810D01*
X227968256Y-107906817D01*
X228055069Y-108057183D01*
X228055070Y-108057185D01*
X228171251Y-108186217D01*
X228311720Y-108288274D01*
X228311722Y-108288275D01*
X228311725Y-108288277D01*
X228470346Y-108358900D01*
X228640184Y-108395000D01*
X228813816Y-108395000D01*
X228983654Y-108358900D01*
X229142275Y-108288277D01*
X229282746Y-108186219D01*
X229326383Y-108137756D01*
X229398929Y-108057185D01*
X229398930Y-108057183D01*
X229485745Y-107906815D01*
X229489770Y-107894429D01*
X229528927Y-107773913D01*
X229539400Y-107741681D01*
X229557550Y-107569000D01*
X229539400Y-107396319D01*
X229506540Y-107295185D01*
X229485747Y-107231189D01*
X229485743Y-107231182D01*
X229398931Y-107080818D01*
X229398930Y-107080817D01*
X229398929Y-107080815D01*
X229285473Y-106954810D01*
X229254757Y-106890803D01*
X229263521Y-106820349D01*
X229285474Y-106786189D01*
X229381087Y-106680000D01*
X232468450Y-106680000D01*
X232486289Y-106849725D01*
X232486601Y-106852686D01*
X232540252Y-107017810D01*
X232540256Y-107017817D01*
X232627069Y-107168183D01*
X232627070Y-107168185D01*
X232743251Y-107297217D01*
X232883720Y-107399274D01*
X232883722Y-107399275D01*
X232883725Y-107399277D01*
X233042346Y-107469900D01*
X233212184Y-107506000D01*
X233385816Y-107506000D01*
X233555654Y-107469900D01*
X233714275Y-107399277D01*
X233854746Y-107297219D01*
X233856578Y-107295185D01*
X233970929Y-107168185D01*
X233970930Y-107168183D01*
X233984420Y-107144817D01*
X234057745Y-107017815D01*
X234065940Y-106992595D01*
X234105610Y-106870500D01*
X234111400Y-106852681D01*
X234129550Y-106680000D01*
X234111400Y-106507319D01*
X234098724Y-106468307D01*
X234057747Y-106342189D01*
X234057743Y-106342182D01*
X233970930Y-106191816D01*
X233970929Y-106191814D01*
X233854748Y-106062782D01*
X233714279Y-105960725D01*
X233706330Y-105957186D01*
X233555654Y-105890100D01*
X233385816Y-105854000D01*
X233212184Y-105854000D01*
X233042345Y-105890100D01*
X232883720Y-105960725D01*
X232743251Y-106062782D01*
X232627070Y-106191814D01*
X232627069Y-106191816D01*
X232540256Y-106342182D01*
X232540252Y-106342189D01*
X232486601Y-106507313D01*
X232486600Y-106507317D01*
X232486600Y-106507319D01*
X232468450Y-106680000D01*
X229381087Y-106680000D01*
X229398929Y-106660185D01*
X229485745Y-106509815D01*
X229498947Y-106469185D01*
X229512572Y-106427248D01*
X229539400Y-106344681D01*
X229557550Y-106172000D01*
X229539400Y-105999319D01*
X229526860Y-105960725D01*
X229485747Y-105834189D01*
X229485743Y-105834182D01*
X229398930Y-105683816D01*
X229398929Y-105683814D01*
X229282748Y-105554782D01*
X229142279Y-105452725D01*
X228983654Y-105382100D01*
X228813816Y-105346000D01*
X228640184Y-105346000D01*
X228470345Y-105382100D01*
X228311720Y-105452725D01*
X228171251Y-105554782D01*
X228055070Y-105683814D01*
X228055069Y-105683816D01*
X227968256Y-105834182D01*
X227968252Y-105834189D01*
X227914601Y-105999313D01*
X227914600Y-105999317D01*
X227914600Y-105999319D01*
X227896450Y-106172000D01*
X227914338Y-106342189D01*
X227914601Y-106344686D01*
X227968252Y-106509810D01*
X227968256Y-106509817D01*
X228055069Y-106660183D01*
X228055071Y-106660185D01*
X228168525Y-106786190D01*
X228199243Y-106850197D01*
X228190478Y-106920651D01*
X228168525Y-106954810D01*
X228055071Y-107080814D01*
X228055069Y-107080816D01*
X227968256Y-107231182D01*
X227968252Y-107231189D01*
X227914601Y-107396313D01*
X227914600Y-107396317D01*
X227914600Y-107396319D01*
X227896450Y-107569000D01*
X217743318Y-107569000D01*
X217839275Y-107526277D01*
X217979746Y-107424219D01*
X218095929Y-107295185D01*
X218182745Y-107144815D01*
X218203540Y-107080816D01*
X218224009Y-107017817D01*
X218236400Y-106979681D01*
X218254550Y-106807000D01*
X218236400Y-106634319D01*
X218202138Y-106528870D01*
X218182747Y-106469189D01*
X218182743Y-106469182D01*
X218179734Y-106463971D01*
X218095930Y-106318816D01*
X218095929Y-106318814D01*
X217979748Y-106189782D01*
X217920775Y-106146936D01*
X217877421Y-106090714D01*
X217871346Y-106019978D01*
X217904477Y-105957186D01*
X217920775Y-105943064D01*
X217931806Y-105935049D01*
X217979746Y-105900219D01*
X218039204Y-105834185D01*
X218095929Y-105771185D01*
X218095930Y-105771183D01*
X218101567Y-105761419D01*
X218182745Y-105620815D01*
X218183118Y-105619669D01*
X218236398Y-105455686D01*
X218236400Y-105455681D01*
X218254550Y-105283000D01*
X224022675Y-105283000D01*
X224041912Y-105453744D01*
X224098664Y-105615930D01*
X224098665Y-105615933D01*
X224190079Y-105761417D01*
X224190080Y-105761419D01*
X224311580Y-105882919D01*
X224311582Y-105882920D01*
X224457066Y-105974334D01*
X224457067Y-105974334D01*
X224457070Y-105974336D01*
X224619254Y-106031087D01*
X224619253Y-106031087D01*
X224636543Y-106033034D01*
X224790000Y-106050325D01*
X224960746Y-106031087D01*
X225122930Y-105974336D01*
X225268419Y-105882919D01*
X225389919Y-105761419D01*
X225481336Y-105615930D01*
X225538087Y-105453746D01*
X225557325Y-105283000D01*
X225538087Y-105112254D01*
X225481336Y-104950070D01*
X225481334Y-104950067D01*
X225481334Y-104950066D01*
X225389920Y-104804582D01*
X225389919Y-104804580D01*
X225268419Y-104683080D01*
X225268417Y-104683079D01*
X225122933Y-104591665D01*
X225122930Y-104591664D01*
X225070923Y-104573466D01*
X224960746Y-104534913D01*
X224960744Y-104534912D01*
X224960746Y-104534912D01*
X224790000Y-104515675D01*
X224619255Y-104534912D01*
X224457069Y-104591664D01*
X224457066Y-104591665D01*
X224311582Y-104683079D01*
X224311580Y-104683080D01*
X224190080Y-104804580D01*
X224190079Y-104804582D01*
X224098665Y-104950066D01*
X224098664Y-104950069D01*
X224041912Y-105112255D01*
X224022675Y-105283000D01*
X218254550Y-105283000D01*
X218236400Y-105110319D01*
X218232789Y-105099208D01*
X218182747Y-104945189D01*
X218182743Y-104945182D01*
X218095930Y-104794816D01*
X218095929Y-104794814D01*
X217979748Y-104665782D01*
X217839279Y-104563725D01*
X217774564Y-104534912D01*
X217680654Y-104493100D01*
X217510816Y-104457000D01*
X217337184Y-104457000D01*
X217167345Y-104493100D01*
X217008720Y-104563725D01*
X216868251Y-104665782D01*
X216752070Y-104794814D01*
X216752069Y-104794816D01*
X216665256Y-104945182D01*
X216665252Y-104945189D01*
X216611601Y-105110313D01*
X216611600Y-105110317D01*
X216611600Y-105110319D01*
X216593450Y-105283000D01*
X216611396Y-105453744D01*
X216611601Y-105455686D01*
X216665252Y-105620810D01*
X216665256Y-105620817D01*
X216752069Y-105771183D01*
X216752070Y-105771185D01*
X216868251Y-105900217D01*
X216927225Y-105943064D01*
X216970579Y-105999286D01*
X216976654Y-106070022D01*
X216943523Y-106132814D01*
X216927225Y-106146936D01*
X216868251Y-106189782D01*
X216752070Y-106318814D01*
X216752069Y-106318816D01*
X216665256Y-106469182D01*
X216665252Y-106469189D01*
X216611601Y-106634313D01*
X216611600Y-106634317D01*
X216611600Y-106634319D01*
X216593450Y-106807000D01*
X207897235Y-106807000D01*
X207891836Y-106791570D01*
X207891834Y-106791567D01*
X207891834Y-106791566D01*
X207800420Y-106646082D01*
X207800419Y-106646080D01*
X207678919Y-106524580D01*
X207678917Y-106524579D01*
X207533433Y-106433165D01*
X207533430Y-106433164D01*
X207371246Y-106376413D01*
X207371244Y-106376412D01*
X207371246Y-106376412D01*
X207200500Y-106357175D01*
X207029755Y-106376412D01*
X206867569Y-106433164D01*
X206867566Y-106433165D01*
X206722082Y-106524579D01*
X206722080Y-106524580D01*
X206600580Y-106646080D01*
X206600579Y-106646082D01*
X206509165Y-106791566D01*
X206509164Y-106791569D01*
X206452412Y-106953755D01*
X206433175Y-107124500D01*
X202373151Y-107124500D01*
X202347930Y-107080816D01*
X202347929Y-107080814D01*
X202231748Y-106951782D01*
X202091279Y-106849725D01*
X201955381Y-106789219D01*
X201932654Y-106779100D01*
X201762816Y-106743000D01*
X201589184Y-106743000D01*
X201419345Y-106779100D01*
X201260720Y-106849725D01*
X201120251Y-106951782D01*
X201004070Y-107080814D01*
X201004069Y-107080816D01*
X200917256Y-107231182D01*
X200917252Y-107231189D01*
X200863601Y-107396313D01*
X200863600Y-107396317D01*
X200863600Y-107396319D01*
X200845450Y-107569000D01*
X183908099Y-107569000D01*
X183955722Y-107517268D01*
X184078860Y-107328791D01*
X184169296Y-107122616D01*
X184224564Y-106904368D01*
X184243156Y-106680000D01*
X184224564Y-106455632D01*
X184195835Y-106342182D01*
X184169297Y-106237387D01*
X184169296Y-106237386D01*
X184169296Y-106237384D01*
X184078860Y-106031209D01*
X184041703Y-105974336D01*
X183955724Y-105842734D01*
X183955720Y-105842729D01*
X183803237Y-105677091D01*
X183646095Y-105554782D01*
X183625576Y-105538811D01*
X183592319Y-105520813D01*
X183541929Y-105470802D01*
X183526576Y-105401485D01*
X183551136Y-105334872D01*
X183592320Y-105299186D01*
X183625576Y-105281189D01*
X183803240Y-105142906D01*
X183955722Y-104977268D01*
X184078860Y-104788791D01*
X184169296Y-104582616D01*
X184224564Y-104364368D01*
X184243156Y-104140000D01*
X184232632Y-104013000D01*
X226308675Y-104013000D01*
X226327912Y-104183744D01*
X226384664Y-104345930D01*
X226384665Y-104345933D01*
X226476079Y-104491417D01*
X226476080Y-104491419D01*
X226597580Y-104612919D01*
X226597582Y-104612920D01*
X226743066Y-104704334D01*
X226743067Y-104704334D01*
X226743070Y-104704336D01*
X226905254Y-104761087D01*
X226905253Y-104761087D01*
X226922543Y-104763034D01*
X227076000Y-104780325D01*
X227246746Y-104761087D01*
X227408930Y-104704336D01*
X227554419Y-104612919D01*
X227675919Y-104491419D01*
X227767336Y-104345930D01*
X227824087Y-104183746D01*
X227843325Y-104013000D01*
X227824087Y-103842254D01*
X227767336Y-103680070D01*
X227767334Y-103680067D01*
X227767334Y-103680066D01*
X227675920Y-103534582D01*
X227675919Y-103534580D01*
X227554419Y-103413080D01*
X227554417Y-103413079D01*
X227408933Y-103321665D01*
X227408930Y-103321664D01*
X227246746Y-103264913D01*
X227246744Y-103264912D01*
X227246746Y-103264912D01*
X227076000Y-103245675D01*
X226905255Y-103264912D01*
X226743069Y-103321664D01*
X226743066Y-103321665D01*
X226597582Y-103413079D01*
X226597580Y-103413080D01*
X226476080Y-103534580D01*
X226476079Y-103534582D01*
X226384665Y-103680066D01*
X226384664Y-103680069D01*
X226327912Y-103842255D01*
X226308675Y-104013000D01*
X184232632Y-104013000D01*
X184224564Y-103915632D01*
X184169296Y-103697384D01*
X184078860Y-103491209D01*
X184027815Y-103413079D01*
X183955724Y-103302734D01*
X183955720Y-103302729D01*
X183803237Y-103137091D01*
X183695629Y-103053336D01*
X183625576Y-102998811D01*
X183592319Y-102980813D01*
X183541929Y-102930802D01*
X183526576Y-102861485D01*
X183551136Y-102794872D01*
X183592320Y-102759186D01*
X183625576Y-102741189D01*
X183803240Y-102602906D01*
X183955722Y-102437268D01*
X184004897Y-102362000D01*
X189605675Y-102362000D01*
X189624912Y-102532744D01*
X189681664Y-102694930D01*
X189681665Y-102694933D01*
X189773079Y-102840417D01*
X189773080Y-102840419D01*
X189894580Y-102961919D01*
X189894582Y-102961920D01*
X190040066Y-103053334D01*
X190040067Y-103053334D01*
X190040070Y-103053336D01*
X190202254Y-103110087D01*
X190202253Y-103110087D01*
X190219543Y-103112034D01*
X190373000Y-103129325D01*
X190543746Y-103110087D01*
X190705930Y-103053336D01*
X190834792Y-102972366D01*
X190903112Y-102953061D01*
X190971025Y-102973756D01*
X191016968Y-103027883D01*
X191020756Y-103037439D01*
X191021912Y-103040745D01*
X191021913Y-103040746D01*
X191046177Y-103110087D01*
X191078664Y-103202930D01*
X191078665Y-103202933D01*
X191170079Y-103348417D01*
X191170080Y-103348419D01*
X191291580Y-103469919D01*
X191291582Y-103469920D01*
X191437066Y-103561334D01*
X191437067Y-103561334D01*
X191437070Y-103561336D01*
X191599254Y-103618087D01*
X191599253Y-103618087D01*
X191616543Y-103620034D01*
X191770000Y-103637325D01*
X191940746Y-103618087D01*
X192102930Y-103561336D01*
X192248419Y-103469919D01*
X192369919Y-103348419D01*
X192461336Y-103202930D01*
X192518087Y-103040746D01*
X192537325Y-102870000D01*
X192518087Y-102699254D01*
X192482255Y-102596852D01*
X192478635Y-102525948D01*
X192513925Y-102464343D01*
X192559569Y-102436308D01*
X192610930Y-102418336D01*
X192756419Y-102326919D01*
X192757564Y-102325773D01*
X192758487Y-102325269D01*
X192761953Y-102322506D01*
X192762436Y-102323112D01*
X192819872Y-102291745D01*
X192890688Y-102296804D01*
X192899005Y-102300248D01*
X192957612Y-102327014D01*
X193024651Y-102346699D01*
X193024655Y-102346700D01*
X193169325Y-102367500D01*
X199273340Y-102367500D01*
X199341461Y-102387502D01*
X199387954Y-102441158D01*
X199398058Y-102511432D01*
X199393173Y-102532436D01*
X199339601Y-102697313D01*
X199339600Y-102697317D01*
X199339600Y-102697319D01*
X199321450Y-102870000D01*
X199339396Y-103040744D01*
X199339601Y-103042686D01*
X199393252Y-103207810D01*
X199393256Y-103207817D01*
X199480069Y-103358183D01*
X199480070Y-103358185D01*
X199596251Y-103487217D01*
X199736720Y-103589274D01*
X199736722Y-103589275D01*
X199736725Y-103589277D01*
X199895346Y-103659900D01*
X200065184Y-103696000D01*
X200238816Y-103696000D01*
X200408654Y-103659900D01*
X200567275Y-103589277D01*
X200707746Y-103487219D01*
X200724630Y-103468468D01*
X200820364Y-103362145D01*
X200880810Y-103324905D01*
X200951793Y-103326257D01*
X201007636Y-103362145D01*
X201120251Y-103487217D01*
X201260720Y-103589274D01*
X201260722Y-103589275D01*
X201260725Y-103589277D01*
X201419346Y-103659900D01*
X201589184Y-103696000D01*
X201762816Y-103696000D01*
X201932654Y-103659900D01*
X202091275Y-103589277D01*
X202231746Y-103487219D01*
X202347929Y-103358185D01*
X202434745Y-103207815D01*
X202436332Y-103202933D01*
X202484938Y-103053335D01*
X202488400Y-103042681D01*
X202503190Y-102901962D01*
X202516129Y-102870515D01*
X202504555Y-102847530D01*
X202503190Y-102838035D01*
X202488400Y-102697319D01*
X202457724Y-102602906D01*
X202434827Y-102532436D01*
X202432800Y-102461468D01*
X202469462Y-102400671D01*
X202533174Y-102369345D01*
X202554660Y-102367500D01*
X202702340Y-102367500D01*
X202770461Y-102387502D01*
X202816954Y-102441158D01*
X202827058Y-102511432D01*
X202822173Y-102532436D01*
X202768601Y-102697313D01*
X202768600Y-102697317D01*
X202768600Y-102697319D01*
X202753810Y-102838035D01*
X202740870Y-102869483D01*
X202752445Y-102892469D01*
X202753808Y-102901954D01*
X202768396Y-103040744D01*
X202768601Y-103042686D01*
X202822252Y-103207810D01*
X202822256Y-103207817D01*
X202909069Y-103358183D01*
X202909070Y-103358185D01*
X203025251Y-103487217D01*
X203165720Y-103589274D01*
X203165722Y-103589275D01*
X203165725Y-103589277D01*
X203324346Y-103659900D01*
X203494184Y-103696000D01*
X203667816Y-103696000D01*
X203837654Y-103659900D01*
X203996275Y-103589277D01*
X204136746Y-103487219D01*
X204252929Y-103358185D01*
X204339745Y-103207815D01*
X204341332Y-103202933D01*
X204389938Y-103053335D01*
X204393400Y-103042681D01*
X204411550Y-102870000D01*
X204393400Y-102697319D01*
X204362724Y-102602906D01*
X204339827Y-102532436D01*
X204337800Y-102461468D01*
X204374462Y-102400671D01*
X204438174Y-102369345D01*
X204459660Y-102367500D01*
X205275516Y-102367500D01*
X205287295Y-102367230D01*
X205293044Y-102366965D01*
X205304546Y-102366437D01*
X205328063Y-102364816D01*
X205356300Y-102358067D01*
X205427203Y-102361685D01*
X205484895Y-102403062D01*
X205492277Y-102413579D01*
X205521079Y-102459417D01*
X205521080Y-102459419D01*
X205642580Y-102580919D01*
X205642582Y-102580920D01*
X205788066Y-102672334D01*
X205788067Y-102672334D01*
X205788070Y-102672336D01*
X205950254Y-102729087D01*
X205950253Y-102729087D01*
X205967543Y-102731034D01*
X206121000Y-102748325D01*
X206291746Y-102729087D01*
X206453930Y-102672336D01*
X206599419Y-102580919D01*
X206720919Y-102459419D01*
X206751158Y-102411292D01*
X206804336Y-102364255D01*
X206874504Y-102353434D01*
X206875688Y-102353598D01*
X206972377Y-102367500D01*
X209171995Y-102367500D01*
X209172000Y-102367500D01*
X209281157Y-102355764D01*
X209332668Y-102344558D01*
X209436827Y-102309890D01*
X209559782Y-102230871D01*
X209559784Y-102230868D01*
X209559786Y-102230868D01*
X209605502Y-102191254D01*
X209612586Y-102185116D01*
X209679408Y-102108000D01*
X221800450Y-102108000D01*
X221818396Y-102278744D01*
X221818601Y-102280686D01*
X221872252Y-102445810D01*
X221872256Y-102445817D01*
X221959069Y-102596183D01*
X221959070Y-102596185D01*
X222075251Y-102725217D01*
X222215720Y-102827274D01*
X222215722Y-102827275D01*
X222215725Y-102827277D01*
X222374346Y-102897900D01*
X222544184Y-102934000D01*
X222717816Y-102934000D01*
X222887654Y-102897900D01*
X223046275Y-102827277D01*
X223186746Y-102725219D01*
X223210125Y-102699254D01*
X223299364Y-102600145D01*
X223359810Y-102562905D01*
X223430793Y-102564257D01*
X223486636Y-102600145D01*
X223599251Y-102725217D01*
X223739720Y-102827274D01*
X223739722Y-102827275D01*
X223739725Y-102827277D01*
X223898346Y-102897900D01*
X224068184Y-102934000D01*
X224241816Y-102934000D01*
X224411654Y-102897900D01*
X224570275Y-102827277D01*
X224710746Y-102725219D01*
X224734125Y-102699254D01*
X224802008Y-102623863D01*
X224862454Y-102586623D01*
X224933437Y-102587975D01*
X224984739Y-102619078D01*
X225073580Y-102707919D01*
X225073582Y-102707920D01*
X225219066Y-102799334D01*
X225219067Y-102799334D01*
X225219070Y-102799336D01*
X225381254Y-102856087D01*
X225381253Y-102856087D01*
X225398543Y-102858034D01*
X225552000Y-102875325D01*
X225599262Y-102870000D01*
X232468450Y-102870000D01*
X232486396Y-103040744D01*
X232486601Y-103042686D01*
X232540252Y-103207810D01*
X232540256Y-103207817D01*
X232627069Y-103358183D01*
X232627070Y-103358185D01*
X232743251Y-103487217D01*
X232883720Y-103589274D01*
X232883722Y-103589275D01*
X232883725Y-103589277D01*
X233042346Y-103659900D01*
X233212184Y-103696000D01*
X233385816Y-103696000D01*
X233555654Y-103659900D01*
X233714275Y-103589277D01*
X233854746Y-103487219D01*
X233970929Y-103358185D01*
X234057745Y-103207815D01*
X234059332Y-103202933D01*
X234107938Y-103053335D01*
X234111400Y-103042681D01*
X234129550Y-102870000D01*
X234111400Y-102697319D01*
X234085978Y-102619078D01*
X234057747Y-102532189D01*
X234057743Y-102532182D01*
X234026380Y-102477860D01*
X234024059Y-102473840D01*
X233970930Y-102381816D01*
X233970929Y-102381814D01*
X233854748Y-102252782D01*
X233714279Y-102150725D01*
X233643336Y-102119139D01*
X233555654Y-102080100D01*
X233385816Y-102044000D01*
X233212184Y-102044000D01*
X233042345Y-102080100D01*
X232883720Y-102150725D01*
X232743251Y-102252782D01*
X232627070Y-102381814D01*
X232627069Y-102381816D01*
X232540256Y-102532182D01*
X232540252Y-102532189D01*
X232486601Y-102697313D01*
X232486600Y-102697317D01*
X232486600Y-102697319D01*
X232468450Y-102870000D01*
X225599262Y-102870000D01*
X225722746Y-102856087D01*
X225884930Y-102799336D01*
X226030419Y-102707919D01*
X226151919Y-102586419D01*
X226243336Y-102440930D01*
X226300087Y-102278746D01*
X226319325Y-102108000D01*
X226300087Y-101937254D01*
X226243336Y-101775070D01*
X226243334Y-101775067D01*
X226243334Y-101775066D01*
X226151920Y-101629582D01*
X226151919Y-101629580D01*
X226030419Y-101508080D01*
X226030417Y-101508079D01*
X225884933Y-101416665D01*
X225884930Y-101416664D01*
X225805085Y-101388725D01*
X225722746Y-101359913D01*
X225722744Y-101359912D01*
X225722746Y-101359912D01*
X225552000Y-101340675D01*
X225381255Y-101359912D01*
X225219069Y-101416664D01*
X225219066Y-101416665D01*
X225073583Y-101508078D01*
X224984739Y-101596922D01*
X224922427Y-101630947D01*
X224851611Y-101625881D01*
X224802008Y-101592137D01*
X224710746Y-101490781D01*
X224570279Y-101388725D01*
X224505564Y-101359912D01*
X224411654Y-101318100D01*
X224241816Y-101282000D01*
X224068184Y-101282000D01*
X223898345Y-101318100D01*
X223739720Y-101388725D01*
X223599253Y-101490781D01*
X223486636Y-101615855D01*
X223426190Y-101653094D01*
X223355206Y-101651742D01*
X223299364Y-101615855D01*
X223186746Y-101490781D01*
X223046279Y-101388725D01*
X222981564Y-101359912D01*
X222887654Y-101318100D01*
X222717816Y-101282000D01*
X222544184Y-101282000D01*
X222374345Y-101318100D01*
X222215720Y-101388725D01*
X222075251Y-101490782D01*
X221959070Y-101619814D01*
X221959069Y-101619816D01*
X221872256Y-101770182D01*
X221872252Y-101770189D01*
X221818601Y-101935313D01*
X221818600Y-101935317D01*
X221818600Y-101935319D01*
X221800450Y-102108000D01*
X209679408Y-102108000D01*
X209708297Y-102074661D01*
X209769014Y-101941713D01*
X209788699Y-101874674D01*
X209788700Y-101874670D01*
X209809500Y-101730000D01*
X209809500Y-99692000D01*
X209797764Y-99582843D01*
X209786558Y-99531332D01*
X209751890Y-99427173D01*
X209672871Y-99304218D01*
X209672870Y-99304217D01*
X209672869Y-99304215D01*
X209672868Y-99304213D01*
X209627119Y-99251417D01*
X209610347Y-99236884D01*
X209516661Y-99155703D01*
X209515663Y-99155247D01*
X209383714Y-99094986D01*
X209316680Y-99075302D01*
X209316674Y-99075301D01*
X209316670Y-99075300D01*
X209172000Y-99054500D01*
X208718181Y-99054500D01*
X208684029Y-99056778D01*
X208684030Y-99056778D01*
X208638882Y-99062831D01*
X208634402Y-99063432D01*
X208614448Y-99067475D01*
X208567368Y-99077014D01*
X208567365Y-99077015D01*
X208433286Y-99135189D01*
X208373801Y-99171836D01*
X208373799Y-99171838D01*
X208261544Y-99265426D01*
X208261541Y-99265428D01*
X208245114Y-99283673D01*
X208225540Y-99301297D01*
X208193826Y-99324338D01*
X208171015Y-99337507D01*
X208135198Y-99353454D01*
X208110148Y-99361594D01*
X208071799Y-99369746D01*
X208045600Y-99372500D01*
X208006398Y-99372500D01*
X207980200Y-99369746D01*
X207941854Y-99361595D01*
X207916802Y-99353455D01*
X207880983Y-99337507D01*
X207858174Y-99324338D01*
X207834643Y-99307242D01*
X207826456Y-99301294D01*
X207806881Y-99283668D01*
X207779004Y-99252708D01*
X207777676Y-99251417D01*
X207754452Y-99228847D01*
X207740019Y-99216580D01*
X207716301Y-99196421D01*
X207705964Y-99188759D01*
X207661365Y-99155703D01*
X207661361Y-99155701D01*
X207528418Y-99094986D01*
X207461384Y-99075302D01*
X207461378Y-99075301D01*
X207461374Y-99075300D01*
X207316704Y-99054500D01*
X207316700Y-99054500D01*
X205871500Y-99054500D01*
X205803379Y-99034498D01*
X205756886Y-98980842D01*
X205745500Y-98928500D01*
X205745500Y-97434675D01*
X240647209Y-97434675D01*
X240667026Y-97749676D01*
X240667028Y-97749693D01*
X240726173Y-98059736D01*
X240726176Y-98059749D01*
X240823708Y-98359923D01*
X240823713Y-98359936D01*
X240893986Y-98509274D01*
X240958107Y-98645538D01*
X240958109Y-98645541D01*
X240958112Y-98645547D01*
X241127231Y-98912037D01*
X241328432Y-99155247D01*
X241328435Y-99155249D01*
X241328436Y-99155251D01*
X241465939Y-99284375D01*
X241558529Y-99371323D01*
X241800782Y-99547330D01*
X241813890Y-99556853D01*
X242090490Y-99708916D01*
X242383967Y-99825112D01*
X242689694Y-99903609D01*
X242689702Y-99903610D01*
X242689701Y-99903610D01*
X242853798Y-99924339D01*
X243002848Y-99943169D01*
X243002852Y-99943169D01*
X243318486Y-99943169D01*
X243318490Y-99943169D01*
X243631644Y-99903609D01*
X243937371Y-99825112D01*
X244230848Y-99708916D01*
X244507448Y-99556853D01*
X244762809Y-99371323D01*
X244992902Y-99155251D01*
X245194101Y-98912044D01*
X245194103Y-98912039D01*
X245194106Y-98912037D01*
X245363225Y-98645547D01*
X245363231Y-98645538D01*
X245497625Y-98359935D01*
X245595164Y-98059741D01*
X245654310Y-97749689D01*
X245671327Y-97479204D01*
X245674129Y-97434675D01*
X245674129Y-97434662D01*
X245654311Y-97119661D01*
X245654309Y-97119644D01*
X245644977Y-97070723D01*
X245595164Y-96809597D01*
X245497625Y-96509403D01*
X245363231Y-96223800D01*
X245363225Y-96223790D01*
X245194106Y-95957300D01*
X244992905Y-95714090D01*
X244950407Y-95674182D01*
X244762809Y-95498015D01*
X244762808Y-95498014D01*
X244507450Y-95312486D01*
X244337600Y-95219110D01*
X244230848Y-95160422D01*
X243937371Y-95044226D01*
X243631644Y-94965729D01*
X243631639Y-94965728D01*
X243631634Y-94965727D01*
X243631636Y-94965727D01*
X243318504Y-94926170D01*
X243318493Y-94926169D01*
X243318490Y-94926169D01*
X243002848Y-94926169D01*
X243002845Y-94926169D01*
X243002833Y-94926170D01*
X242689702Y-94965727D01*
X242383970Y-95044225D01*
X242090490Y-95160422D01*
X241813887Y-95312486D01*
X241558530Y-95498014D01*
X241558529Y-95498014D01*
X241328432Y-95714090D01*
X241127231Y-95957300D01*
X240958112Y-96223790D01*
X240958105Y-96223804D01*
X240823713Y-96509401D01*
X240823708Y-96509414D01*
X240726176Y-96809588D01*
X240726173Y-96809601D01*
X240667028Y-97119644D01*
X240667026Y-97119661D01*
X240647209Y-97434662D01*
X240647209Y-97434675D01*
X205745500Y-97434675D01*
X205745500Y-96012000D01*
X207195450Y-96012000D01*
X207198382Y-96039900D01*
X207213601Y-96184686D01*
X207267252Y-96349810D01*
X207267256Y-96349817D01*
X207354069Y-96500183D01*
X207354070Y-96500185D01*
X207470251Y-96629217D01*
X207610720Y-96731274D01*
X207610722Y-96731275D01*
X207610725Y-96731277D01*
X207769346Y-96801900D01*
X207939184Y-96838000D01*
X208112816Y-96838000D01*
X208282654Y-96801900D01*
X208441275Y-96731277D01*
X208581746Y-96629219D01*
X208697929Y-96500185D01*
X208784745Y-96349815D01*
X208838400Y-96184681D01*
X208856550Y-96012000D01*
X208838400Y-95839319D01*
X208805540Y-95738185D01*
X208784747Y-95674189D01*
X208784743Y-95674182D01*
X208697930Y-95523816D01*
X208697929Y-95523814D01*
X208581748Y-95394782D01*
X208441279Y-95292725D01*
X208282654Y-95222100D01*
X208112816Y-95186000D01*
X207939184Y-95186000D01*
X207769345Y-95222100D01*
X207610720Y-95292725D01*
X207470251Y-95394782D01*
X207354070Y-95523814D01*
X207354069Y-95523816D01*
X207267256Y-95674182D01*
X207267252Y-95674189D01*
X207213601Y-95839313D01*
X207213600Y-95839317D01*
X207213600Y-95839319D01*
X207195450Y-96012000D01*
X205745500Y-96012000D01*
X205745500Y-93163523D01*
X205745453Y-93158663D01*
X205745453Y-93158660D01*
X205745383Y-93153842D01*
X205721824Y-93009595D01*
X205700863Y-92942944D01*
X205637622Y-92811182D01*
X205637621Y-92811180D01*
X205539820Y-92702572D01*
X205534935Y-92698500D01*
X205532164Y-92696190D01*
X205486151Y-92657831D01*
X205486147Y-92657828D01*
X205486138Y-92657821D01*
X205359427Y-92579770D01*
X205311918Y-92527013D01*
X205300771Y-92462604D01*
X205300550Y-92462604D01*
X205300550Y-92461324D01*
X205300201Y-92459312D01*
X205300550Y-92456000D01*
X205300284Y-92453467D01*
X205300550Y-92452012D01*
X205300550Y-92449396D01*
X205301028Y-92449396D01*
X205313054Y-92383628D01*
X205361554Y-92331780D01*
X205372604Y-92326017D01*
X205392518Y-92313219D01*
X205495782Y-92246855D01*
X205495784Y-92246852D01*
X205495786Y-92246852D01*
X205541403Y-92207324D01*
X205548586Y-92201100D01*
X205644297Y-92090645D01*
X205651442Y-92075000D01*
X211996844Y-92075000D01*
X212011084Y-92246853D01*
X212015437Y-92299375D01*
X212070702Y-92517612D01*
X212070703Y-92517613D01*
X212070704Y-92517616D01*
X212151832Y-92702571D01*
X212161141Y-92723793D01*
X212284275Y-92912265D01*
X212284279Y-92912270D01*
X212409054Y-93047810D01*
X212432061Y-93072802D01*
X212436762Y-93077908D01*
X212491331Y-93120381D01*
X212614424Y-93216189D01*
X212812426Y-93323342D01*
X212812427Y-93323342D01*
X212812428Y-93323343D01*
X212823713Y-93327217D01*
X213025365Y-93396444D01*
X213247431Y-93433500D01*
X213247435Y-93433500D01*
X213472565Y-93433500D01*
X213472569Y-93433500D01*
X213694635Y-93396444D01*
X213907574Y-93323342D01*
X214105576Y-93216189D01*
X214283240Y-93077906D01*
X214435722Y-92912268D01*
X214524518Y-92776354D01*
X214578520Y-92730268D01*
X214648868Y-92720692D01*
X214713225Y-92750669D01*
X214735480Y-92776353D01*
X214768607Y-92827058D01*
X214824275Y-92912265D01*
X214824279Y-92912270D01*
X214949054Y-93047810D01*
X214972061Y-93072802D01*
X214976762Y-93077908D01*
X215031331Y-93120381D01*
X215154424Y-93216189D01*
X215352426Y-93323342D01*
X215352427Y-93323342D01*
X215352428Y-93323343D01*
X215363713Y-93327217D01*
X215565365Y-93396444D01*
X215787431Y-93433500D01*
X215787435Y-93433500D01*
X216012565Y-93433500D01*
X216012569Y-93433500D01*
X216234635Y-93396444D01*
X216447574Y-93323342D01*
X216645576Y-93216189D01*
X216823240Y-93077906D01*
X216975722Y-92912268D01*
X217098860Y-92723791D01*
X217189296Y-92517616D01*
X217244564Y-92299368D01*
X217263156Y-92075000D01*
X217244564Y-91850632D01*
X217244231Y-91849317D01*
X217189297Y-91632387D01*
X217189296Y-91632386D01*
X217189296Y-91632384D01*
X217104909Y-91440000D01*
X234690675Y-91440000D01*
X234709912Y-91610744D01*
X234766664Y-91772930D01*
X234766665Y-91772933D01*
X234858079Y-91918417D01*
X234858080Y-91918419D01*
X234979580Y-92039919D01*
X234979582Y-92039920D01*
X235125066Y-92131334D01*
X235125067Y-92131334D01*
X235125070Y-92131336D01*
X235287254Y-92188087D01*
X235287253Y-92188087D01*
X235304543Y-92190034D01*
X235458000Y-92207325D01*
X235628746Y-92188087D01*
X235790930Y-92131336D01*
X235936419Y-92039919D01*
X235975394Y-92000944D01*
X241412819Y-92000944D01*
X241442177Y-92242721D01*
X241442177Y-92242722D01*
X241509936Y-92476655D01*
X241509940Y-92476666D01*
X241614348Y-92696701D01*
X241752706Y-92897147D01*
X241752714Y-92897155D01*
X241897426Y-93047817D01*
X241921425Y-93072802D01*
X242116135Y-93219117D01*
X242331795Y-93332304D01*
X242562818Y-93409431D01*
X242803221Y-93448500D01*
X242803225Y-93448500D01*
X244485801Y-93448500D01*
X244566673Y-93441971D01*
X244667768Y-93433810D01*
X244904248Y-93375523D01*
X244904249Y-93375522D01*
X244904251Y-93375522D01*
X244959396Y-93352026D01*
X245128316Y-93280056D01*
X245334168Y-93149883D01*
X245334175Y-93149877D01*
X245334176Y-93149877D01*
X245516468Y-92988380D01*
X245516474Y-92988375D01*
X245670510Y-92799714D01*
X245792289Y-92588787D01*
X245878656Y-92361057D01*
X245927374Y-92122421D01*
X245937181Y-91879061D01*
X245907823Y-91637280D01*
X245846685Y-91426206D01*
X245840063Y-91403344D01*
X245840059Y-91403333D01*
X245735651Y-91183298D01*
X245718758Y-91158825D01*
X245597293Y-90982852D01*
X245428575Y-90807198D01*
X245233865Y-90660883D01*
X245018205Y-90547696D01*
X245018201Y-90547694D01*
X245018200Y-90547694D01*
X244787179Y-90470568D01*
X244546788Y-90431501D01*
X244546782Y-90431500D01*
X244546779Y-90431500D01*
X242864203Y-90431500D01*
X242864199Y-90431500D01*
X242682236Y-90446189D01*
X242445748Y-90504477D01*
X242221685Y-90599943D01*
X242015824Y-90730122D01*
X242015823Y-90730122D01*
X241833531Y-90891619D01*
X241833522Y-90891629D01*
X241679493Y-91080281D01*
X241557715Y-91291205D01*
X241557712Y-91291210D01*
X241471345Y-91518939D01*
X241422626Y-91757579D01*
X241412819Y-92000937D01*
X241412819Y-92000944D01*
X235975394Y-92000944D01*
X236057919Y-91918419D01*
X236149336Y-91772930D01*
X236206087Y-91610746D01*
X236225325Y-91440000D01*
X236206087Y-91269254D01*
X236149336Y-91107070D01*
X236149334Y-91107067D01*
X236149334Y-91107066D01*
X236057920Y-90961582D01*
X236057919Y-90961580D01*
X235936419Y-90840080D01*
X235936417Y-90840079D01*
X235790933Y-90748665D01*
X235790930Y-90748664D01*
X235776435Y-90743592D01*
X235628746Y-90691913D01*
X235628744Y-90691912D01*
X235628746Y-90691912D01*
X235458000Y-90672675D01*
X235287255Y-90691912D01*
X235125069Y-90748664D01*
X235125066Y-90748665D01*
X234979582Y-90840079D01*
X234979580Y-90840080D01*
X234858080Y-90961580D01*
X234858079Y-90961582D01*
X234766665Y-91107066D01*
X234766664Y-91107069D01*
X234709912Y-91269255D01*
X234690675Y-91440000D01*
X217104909Y-91440000D01*
X217098860Y-91426209D01*
X217083914Y-91403333D01*
X216975724Y-91237734D01*
X216975720Y-91237729D01*
X216823237Y-91072091D01*
X216741382Y-91008381D01*
X216645576Y-90933811D01*
X216612319Y-90915813D01*
X216561929Y-90865802D01*
X216546576Y-90796485D01*
X216571136Y-90729872D01*
X216612320Y-90694186D01*
X216645576Y-90676189D01*
X216823240Y-90537906D01*
X216975722Y-90372268D01*
X217098860Y-90183791D01*
X217189296Y-89977616D01*
X217244564Y-89759368D01*
X217263156Y-89535000D01*
X217244564Y-89310632D01*
X217203063Y-89146749D01*
X217189297Y-89092387D01*
X217189296Y-89092386D01*
X217189296Y-89092384D01*
X217098860Y-88886209D01*
X217070832Y-88843309D01*
X216975724Y-88697734D01*
X216975720Y-88697729D01*
X216823237Y-88532091D01*
X216741127Y-88468182D01*
X216645576Y-88393811D01*
X216447574Y-88286658D01*
X216447572Y-88286657D01*
X216447571Y-88286656D01*
X216234639Y-88213557D01*
X216234630Y-88213555D01*
X216176721Y-88203892D01*
X216012569Y-88176500D01*
X215787431Y-88176500D01*
X215639211Y-88201233D01*
X215565369Y-88213555D01*
X215565360Y-88213557D01*
X215352428Y-88286656D01*
X215352426Y-88286658D01*
X215183480Y-88378087D01*
X215154426Y-88393810D01*
X215154424Y-88393811D01*
X214976762Y-88532091D01*
X214915754Y-88598363D01*
X214854901Y-88634933D01*
X214783936Y-88632798D01*
X214725391Y-88592636D01*
X214704999Y-88557057D01*
X214671851Y-88468186D01*
X214660889Y-88438796D01*
X214660888Y-88438794D01*
X214660887Y-88438792D01*
X214573261Y-88321738D01*
X214456207Y-88234112D01*
X214456202Y-88234110D01*
X214319204Y-88183011D01*
X214319196Y-88183009D01*
X214258649Y-88176500D01*
X214258638Y-88176500D01*
X212461362Y-88176500D01*
X212461350Y-88176500D01*
X212400803Y-88183009D01*
X212400795Y-88183011D01*
X212263797Y-88234110D01*
X212263792Y-88234112D01*
X212146738Y-88321738D01*
X212059112Y-88438792D01*
X212059110Y-88438797D01*
X212008011Y-88575795D01*
X212008009Y-88575803D01*
X212001500Y-88636350D01*
X212001500Y-90433649D01*
X212008009Y-90494196D01*
X212008011Y-90494204D01*
X212059110Y-90631202D01*
X212059112Y-90631207D01*
X212146738Y-90748261D01*
X212263791Y-90835886D01*
X212263792Y-90835886D01*
X212263796Y-90835889D01*
X212378810Y-90878787D01*
X212435642Y-90921332D01*
X212460453Y-90987852D01*
X212445362Y-91057226D01*
X212427475Y-91082179D01*
X212284280Y-91237729D01*
X212284275Y-91237734D01*
X212161141Y-91426206D01*
X212070703Y-91632386D01*
X212070702Y-91632387D01*
X212015437Y-91850624D01*
X212015436Y-91850630D01*
X212015436Y-91850632D01*
X211996844Y-92075000D01*
X205651442Y-92075000D01*
X205705014Y-91957697D01*
X205724699Y-91890658D01*
X205724700Y-91890654D01*
X205745500Y-91745984D01*
X205745500Y-89786000D01*
X205733764Y-89676843D01*
X205722558Y-89625332D01*
X205687890Y-89521173D01*
X205608871Y-89398218D01*
X205608870Y-89398217D01*
X205608869Y-89398215D01*
X205608868Y-89398213D01*
X205563119Y-89345417D01*
X205550289Y-89334300D01*
X205452661Y-89249703D01*
X205426620Y-89237810D01*
X205319714Y-89188986D01*
X205252680Y-89169302D01*
X205252674Y-89169301D01*
X205252670Y-89169300D01*
X205108000Y-89148500D01*
X205107996Y-89148500D01*
X201299500Y-89148500D01*
X201231379Y-89128498D01*
X201184886Y-89074842D01*
X201173500Y-89022500D01*
X201173500Y-85988649D01*
X208191500Y-85988649D01*
X208198009Y-86049196D01*
X208198011Y-86049204D01*
X208249110Y-86186202D01*
X208249112Y-86186207D01*
X208336738Y-86303261D01*
X208453792Y-86390887D01*
X208453794Y-86390888D01*
X208453796Y-86390889D01*
X208508900Y-86411442D01*
X208590795Y-86441988D01*
X208590803Y-86441990D01*
X208651350Y-86448499D01*
X208651355Y-86448499D01*
X208651362Y-86448500D01*
X208651368Y-86448500D01*
X210448632Y-86448500D01*
X210448638Y-86448500D01*
X210448645Y-86448499D01*
X210448649Y-86448499D01*
X210509196Y-86441990D01*
X210509199Y-86441989D01*
X210509201Y-86441989D01*
X210517655Y-86438836D01*
X210528045Y-86434960D01*
X210646204Y-86390889D01*
X210716399Y-86338342D01*
X210763261Y-86303261D01*
X210850886Y-86186208D01*
X210850885Y-86186208D01*
X210850889Y-86186204D01*
X210894999Y-86067939D01*
X210937545Y-86011107D01*
X211004066Y-85986296D01*
X211073440Y-86001388D01*
X211105753Y-86026635D01*
X211166760Y-86092906D01*
X211166762Y-86092908D01*
X211221331Y-86135381D01*
X211344424Y-86231189D01*
X211542426Y-86338342D01*
X211542427Y-86338342D01*
X211542428Y-86338343D01*
X211654227Y-86376723D01*
X211755365Y-86411444D01*
X211977431Y-86448500D01*
X211977435Y-86448500D01*
X212202565Y-86448500D01*
X212202569Y-86448500D01*
X212424635Y-86411444D01*
X212637574Y-86338342D01*
X212835576Y-86231189D01*
X213013240Y-86092906D01*
X213165722Y-85927268D01*
X213288860Y-85738791D01*
X213379296Y-85532616D01*
X213434564Y-85314368D01*
X213453156Y-85090000D01*
X222156844Y-85090000D01*
X222174826Y-85307012D01*
X222175437Y-85314375D01*
X222230702Y-85532612D01*
X222230703Y-85532613D01*
X222230704Y-85532616D01*
X222318710Y-85733250D01*
X222321141Y-85738793D01*
X222444275Y-85927265D01*
X222444279Y-85927270D01*
X222587841Y-86083217D01*
X222619262Y-86146882D01*
X222611276Y-86217428D01*
X222566417Y-86272457D01*
X222539173Y-86286610D01*
X222424039Y-86329553D01*
X222424034Y-86329555D01*
X222307095Y-86417095D01*
X222219555Y-86534034D01*
X222219555Y-86534035D01*
X222168505Y-86670906D01*
X222162000Y-86731402D01*
X222162000Y-87376000D01*
X223088884Y-87376000D01*
X223060507Y-87420156D01*
X223020000Y-87558111D01*
X223020000Y-87701889D01*
X223060507Y-87839844D01*
X223088884Y-87884000D01*
X222162000Y-87884000D01*
X222162000Y-88528597D01*
X222168505Y-88589093D01*
X222219555Y-88725964D01*
X222219555Y-88725965D01*
X222307095Y-88842904D01*
X222424034Y-88930444D01*
X222560906Y-88981494D01*
X222621402Y-88987999D01*
X222621415Y-88988000D01*
X223266000Y-88988000D01*
X223266000Y-88063674D01*
X223377685Y-88114680D01*
X223484237Y-88130000D01*
X223555763Y-88130000D01*
X223662315Y-88114680D01*
X223774000Y-88063674D01*
X223774000Y-88988000D01*
X224418585Y-88988000D01*
X224418597Y-88987999D01*
X224479093Y-88981494D01*
X224615964Y-88930444D01*
X224615965Y-88930444D01*
X224732904Y-88842904D01*
X224820444Y-88725965D01*
X224820444Y-88725964D01*
X224871494Y-88589093D01*
X224877999Y-88528597D01*
X224878000Y-88528585D01*
X224878000Y-88490000D01*
X236711502Y-88490000D01*
X236731457Y-88718087D01*
X236764902Y-88842904D01*
X236790715Y-88939240D01*
X236790717Y-88939246D01*
X236887477Y-89146749D01*
X236911584Y-89181178D01*
X237018802Y-89334300D01*
X237180700Y-89496198D01*
X237368251Y-89627523D01*
X237575757Y-89724284D01*
X237796913Y-89783543D01*
X238025000Y-89803498D01*
X238253087Y-89783543D01*
X238474243Y-89724284D01*
X238681749Y-89627523D01*
X238869300Y-89496198D01*
X239031198Y-89334300D01*
X239162523Y-89146749D01*
X239259284Y-88939243D01*
X239303294Y-88774996D01*
X239340245Y-88714375D01*
X239404105Y-88683354D01*
X239474600Y-88691782D01*
X239529347Y-88736985D01*
X239546705Y-88774994D01*
X239580201Y-88900000D01*
X239590715Y-88939240D01*
X239590717Y-88939246D01*
X239687477Y-89146749D01*
X239711584Y-89181178D01*
X239818802Y-89334300D01*
X239980700Y-89496198D01*
X240168251Y-89627523D01*
X240375757Y-89724284D01*
X240596913Y-89783543D01*
X240825000Y-89803498D01*
X241053087Y-89783543D01*
X241274243Y-89724284D01*
X241481749Y-89627523D01*
X241669300Y-89496198D01*
X241831198Y-89334300D01*
X241962523Y-89146749D01*
X242059284Y-88939243D01*
X242118543Y-88718087D01*
X242138498Y-88490000D01*
X242118543Y-88261913D01*
X242059284Y-88040757D01*
X241962523Y-87833251D01*
X241831198Y-87645700D01*
X241714593Y-87529095D01*
X241680567Y-87466783D01*
X241685632Y-87395968D01*
X241714593Y-87350905D01*
X241770318Y-87295180D01*
X241831198Y-87234300D01*
X241962523Y-87046749D01*
X242059284Y-86839243D01*
X242118543Y-86618087D01*
X242138498Y-86390000D01*
X242118543Y-86161913D01*
X242115566Y-86150801D01*
X242966500Y-86150801D01*
X242981189Y-86332763D01*
X243039477Y-86569251D01*
X243110385Y-86735675D01*
X243134944Y-86793316D01*
X243265117Y-86999168D01*
X243265119Y-86999170D01*
X243265122Y-86999175D01*
X243265122Y-86999176D01*
X243426619Y-87181468D01*
X243426622Y-87181471D01*
X243426625Y-87181474D01*
X243517557Y-87255717D01*
X243615281Y-87335506D01*
X243615280Y-87335506D01*
X243615283Y-87335508D01*
X243615286Y-87335510D01*
X243826213Y-87457289D01*
X244053943Y-87543656D01*
X244292579Y-87592374D01*
X244535939Y-87602181D01*
X244777720Y-87572823D01*
X245011662Y-87505061D01*
X245231704Y-87400650D01*
X245432148Y-87262293D01*
X245607802Y-87093575D01*
X245754117Y-86898865D01*
X245867304Y-86683205D01*
X245944431Y-86452182D01*
X245983500Y-86211779D01*
X245983500Y-84029203D01*
X245980641Y-83993792D01*
X245975557Y-83930814D01*
X245968810Y-83847232D01*
X245910523Y-83610752D01*
X245910522Y-83610751D01*
X245910522Y-83610748D01*
X245819839Y-83397911D01*
X245815056Y-83386684D01*
X245684883Y-83180832D01*
X245684879Y-83180828D01*
X245684877Y-83180824D01*
X245684877Y-83180823D01*
X245523380Y-82998531D01*
X245523377Y-82998528D01*
X245523375Y-82998526D01*
X245334718Y-82844493D01*
X245334719Y-82844493D01*
X245307574Y-82828821D01*
X245123787Y-82722711D01*
X244896057Y-82636344D01*
X244657421Y-82587626D01*
X244535741Y-82582722D01*
X244414062Y-82577819D01*
X244414055Y-82577819D01*
X244172278Y-82607177D01*
X244172277Y-82607177D01*
X243938344Y-82674936D01*
X243938333Y-82674940D01*
X243718298Y-82779348D01*
X243517852Y-82917706D01*
X243517844Y-82917714D01*
X243342203Y-83086419D01*
X243342196Y-83086427D01*
X243195883Y-83281134D01*
X243082694Y-83496799D01*
X243005568Y-83727820D01*
X242966501Y-83968211D01*
X242966500Y-83968225D01*
X242966500Y-86150801D01*
X242115566Y-86150801D01*
X242059284Y-85940757D01*
X241962523Y-85733251D01*
X241831198Y-85545700D01*
X241669300Y-85383802D01*
X241589197Y-85327713D01*
X241544869Y-85272256D01*
X241537560Y-85201636D01*
X241569591Y-85138276D01*
X241630792Y-85102291D01*
X241661468Y-85098500D01*
X241673632Y-85098500D01*
X241673638Y-85098500D01*
X241673645Y-85098499D01*
X241673649Y-85098499D01*
X241734196Y-85091990D01*
X241734199Y-85091989D01*
X241734201Y-85091989D01*
X241871204Y-85040889D01*
X241988261Y-84953261D01*
X242075887Y-84836207D01*
X242075887Y-84836206D01*
X242075889Y-84836204D01*
X242126989Y-84699201D01*
X242132560Y-84647387D01*
X242133499Y-84638649D01*
X242133500Y-84638632D01*
X242133500Y-82941367D01*
X242133499Y-82941350D01*
X242126990Y-82880803D01*
X242126988Y-82880795D01*
X242085480Y-82769511D01*
X242075889Y-82743796D01*
X242075888Y-82743794D01*
X242075887Y-82743792D01*
X241988261Y-82626738D01*
X241940462Y-82590957D01*
X241897915Y-82534122D01*
X241892850Y-82463306D01*
X241912756Y-82417821D01*
X241962523Y-82346749D01*
X242059284Y-82139243D01*
X242118543Y-81918087D01*
X242138498Y-81690000D01*
X242118543Y-81461913D01*
X242059284Y-81240757D01*
X241962523Y-81033251D01*
X241831198Y-80845700D01*
X241669300Y-80683802D01*
X241481749Y-80552477D01*
X241274246Y-80455717D01*
X241274240Y-80455715D01*
X241180771Y-80430670D01*
X241053087Y-80396457D01*
X240825000Y-80376502D01*
X240596913Y-80396457D01*
X240375759Y-80455715D01*
X240375753Y-80455717D01*
X240168250Y-80552477D01*
X239980703Y-80683799D01*
X239980697Y-80683804D01*
X239818804Y-80845697D01*
X239818799Y-80845703D01*
X239687477Y-81033250D01*
X239590717Y-81240753D01*
X239590715Y-81240759D01*
X239571924Y-81310889D01*
X239556488Y-81368499D01*
X239546707Y-81405001D01*
X239509755Y-81465624D01*
X239445895Y-81496645D01*
X239375400Y-81488217D01*
X239320653Y-81443014D01*
X239303293Y-81405001D01*
X239296353Y-81379100D01*
X239259284Y-81240757D01*
X239162523Y-81033251D01*
X239031198Y-80845700D01*
X238869300Y-80683802D01*
X238681749Y-80552477D01*
X238474246Y-80455717D01*
X238474240Y-80455715D01*
X238380771Y-80430670D01*
X238253087Y-80396457D01*
X238025000Y-80376502D01*
X237796913Y-80396457D01*
X237575759Y-80455715D01*
X237575753Y-80455717D01*
X237368250Y-80552477D01*
X237180703Y-80683799D01*
X237180697Y-80683804D01*
X237018804Y-80845697D01*
X237018799Y-80845703D01*
X236887477Y-81033250D01*
X236790717Y-81240753D01*
X236790715Y-81240759D01*
X236771924Y-81310889D01*
X236731457Y-81461913D01*
X236711502Y-81690000D01*
X236731457Y-81918087D01*
X236752418Y-81996313D01*
X236790715Y-82139240D01*
X236790717Y-82139246D01*
X236877626Y-82325624D01*
X236887477Y-82346749D01*
X237018802Y-82534300D01*
X237180700Y-82696198D01*
X237368251Y-82827523D01*
X237575757Y-82924284D01*
X237796913Y-82983543D01*
X238025000Y-83003498D01*
X238253087Y-82983543D01*
X238474243Y-82924284D01*
X238681749Y-82827523D01*
X238869300Y-82696198D01*
X239031198Y-82534300D01*
X239162523Y-82346749D01*
X239259284Y-82139243D01*
X239303294Y-81974996D01*
X239340245Y-81914375D01*
X239404105Y-81883354D01*
X239474600Y-81891782D01*
X239529347Y-81936985D01*
X239546705Y-81974994D01*
X239580307Y-82100398D01*
X239590715Y-82139240D01*
X239590717Y-82139246D01*
X239687477Y-82346749D01*
X239737240Y-82417818D01*
X239759928Y-82485092D01*
X239742643Y-82553953D01*
X239709537Y-82590956D01*
X239661739Y-82626737D01*
X239574112Y-82743792D01*
X239574110Y-82743797D01*
X239523011Y-82880795D01*
X239523009Y-82880803D01*
X239516500Y-82941350D01*
X239516500Y-84638649D01*
X239523009Y-84699196D01*
X239523011Y-84699204D01*
X239574110Y-84836202D01*
X239574112Y-84836207D01*
X239661738Y-84953261D01*
X239778792Y-85040887D01*
X239778794Y-85040888D01*
X239778796Y-85040889D01*
X239837875Y-85062924D01*
X239915795Y-85091988D01*
X239915803Y-85091990D01*
X239976350Y-85098499D01*
X239976355Y-85098499D01*
X239976362Y-85098500D01*
X239988532Y-85098500D01*
X240056653Y-85118502D01*
X240103146Y-85172158D01*
X240113250Y-85242432D01*
X240083756Y-85307012D01*
X240060803Y-85327713D01*
X239980703Y-85383799D01*
X239980697Y-85383804D01*
X239818804Y-85545697D01*
X239818799Y-85545703D01*
X239687477Y-85733250D01*
X239590717Y-85940753D01*
X239590715Y-85940759D01*
X239549947Y-86092908D01*
X239531457Y-86161913D01*
X239511502Y-86390000D01*
X239531457Y-86618087D01*
X239561820Y-86731402D01*
X239590715Y-86839240D01*
X239590717Y-86839246D01*
X239687477Y-87046749D01*
X239808231Y-87219204D01*
X239818802Y-87234300D01*
X239879682Y-87295180D01*
X239935407Y-87350905D01*
X239969432Y-87413217D01*
X239964366Y-87484033D01*
X239935407Y-87529095D01*
X239818799Y-87645703D01*
X239687477Y-87833250D01*
X239590717Y-88040753D01*
X239590715Y-88040759D01*
X239574059Y-88102920D01*
X239547004Y-88203894D01*
X239546707Y-88205001D01*
X239509755Y-88265624D01*
X239445895Y-88296645D01*
X239375400Y-88288217D01*
X239320653Y-88243014D01*
X239303293Y-88205001D01*
X239302998Y-88203899D01*
X239259284Y-88040757D01*
X239162523Y-87833251D01*
X239031198Y-87645700D01*
X238869300Y-87483802D01*
X238865468Y-87481119D01*
X238681749Y-87352477D01*
X238474246Y-87255717D01*
X238474240Y-87255715D01*
X238337949Y-87219196D01*
X238253087Y-87196457D01*
X238025000Y-87176502D01*
X237796913Y-87196457D01*
X237575759Y-87255715D01*
X237575753Y-87255717D01*
X237368250Y-87352477D01*
X237180703Y-87483799D01*
X237180697Y-87483804D01*
X237018804Y-87645697D01*
X237018799Y-87645703D01*
X236887477Y-87833250D01*
X236790717Y-88040753D01*
X236790715Y-88040759D01*
X236738907Y-88234110D01*
X236731457Y-88261913D01*
X236711502Y-88490000D01*
X224878000Y-88490000D01*
X224878000Y-87884000D01*
X223951116Y-87884000D01*
X223979493Y-87839844D01*
X224020000Y-87701889D01*
X224020000Y-87630000D01*
X231642675Y-87630000D01*
X231661912Y-87800744D01*
X231718664Y-87962930D01*
X231718665Y-87962933D01*
X231810079Y-88108417D01*
X231810080Y-88108419D01*
X231931580Y-88229919D01*
X231931582Y-88229920D01*
X232077066Y-88321334D01*
X232077067Y-88321334D01*
X232077070Y-88321336D01*
X232239254Y-88378087D01*
X232239253Y-88378087D01*
X232256543Y-88380034D01*
X232410000Y-88397325D01*
X232580746Y-88378087D01*
X232742930Y-88321336D01*
X232888419Y-88229919D01*
X233009919Y-88108419D01*
X233101336Y-87962930D01*
X233158087Y-87800746D01*
X233177325Y-87630000D01*
X233158087Y-87459254D01*
X233101336Y-87297070D01*
X233101334Y-87297067D01*
X233101334Y-87297066D01*
X233009920Y-87151582D01*
X233009919Y-87151580D01*
X232888419Y-87030080D01*
X232888417Y-87030079D01*
X232742933Y-86938665D01*
X232742930Y-86938664D01*
X232641237Y-86903080D01*
X232580746Y-86881913D01*
X232580744Y-86881912D01*
X232580746Y-86881912D01*
X232410000Y-86862675D01*
X232239255Y-86881912D01*
X232077069Y-86938664D01*
X232077066Y-86938665D01*
X231931582Y-87030079D01*
X231931580Y-87030080D01*
X231810080Y-87151580D01*
X231810079Y-87151582D01*
X231718665Y-87297066D01*
X231718664Y-87297069D01*
X231661912Y-87459255D01*
X231642675Y-87630000D01*
X224020000Y-87630000D01*
X224020000Y-87558111D01*
X223979493Y-87420156D01*
X223951116Y-87376000D01*
X224878000Y-87376000D01*
X224878000Y-86731414D01*
X224877999Y-86731402D01*
X224871494Y-86670906D01*
X224820444Y-86534035D01*
X224820444Y-86534034D01*
X224732904Y-86417095D01*
X224615966Y-86329556D01*
X224500826Y-86286611D01*
X224443991Y-86244064D01*
X224419180Y-86177543D01*
X224434272Y-86108169D01*
X224452154Y-86083222D01*
X224595722Y-85927268D01*
X224718860Y-85738791D01*
X224809296Y-85532616D01*
X224864564Y-85314368D01*
X224883156Y-85090000D01*
X224864564Y-84865632D01*
X224809296Y-84647384D01*
X224718860Y-84441209D01*
X224608091Y-84271664D01*
X224595724Y-84252734D01*
X224595720Y-84252729D01*
X224443237Y-84087091D01*
X224323367Y-83993792D01*
X224265576Y-83948811D01*
X224232319Y-83930813D01*
X224181929Y-83880802D01*
X224166576Y-83811485D01*
X224191136Y-83744872D01*
X224232320Y-83709186D01*
X224265576Y-83691189D01*
X224443240Y-83552906D01*
X224595722Y-83387268D01*
X224718860Y-83198791D01*
X224724909Y-83185000D01*
X231642675Y-83185000D01*
X231661912Y-83355744D01*
X231718664Y-83517930D01*
X231718665Y-83517933D01*
X231810079Y-83663417D01*
X231810080Y-83663419D01*
X231931580Y-83784919D01*
X231931582Y-83784920D01*
X232077066Y-83876334D01*
X232077067Y-83876334D01*
X232077070Y-83876336D01*
X232239254Y-83933087D01*
X232239253Y-83933087D01*
X232256543Y-83935034D01*
X232410000Y-83952325D01*
X232580746Y-83933087D01*
X232742930Y-83876336D01*
X232888419Y-83784919D01*
X233009919Y-83663419D01*
X233101336Y-83517930D01*
X233158087Y-83355746D01*
X233177325Y-83185000D01*
X233158087Y-83014254D01*
X233101336Y-82852070D01*
X233101334Y-82852067D01*
X233101334Y-82852066D01*
X233009920Y-82706582D01*
X233009919Y-82706580D01*
X232888419Y-82585080D01*
X232888417Y-82585079D01*
X232742933Y-82493665D01*
X232742930Y-82493664D01*
X232656172Y-82463306D01*
X232580746Y-82436913D01*
X232580744Y-82436912D01*
X232580746Y-82436912D01*
X232410000Y-82417675D01*
X232239255Y-82436912D01*
X232077069Y-82493664D01*
X232077066Y-82493665D01*
X231931582Y-82585079D01*
X231931580Y-82585080D01*
X231810080Y-82706580D01*
X231810079Y-82706582D01*
X231718665Y-82852066D01*
X231718664Y-82852069D01*
X231661912Y-83014255D01*
X231642675Y-83185000D01*
X224724909Y-83185000D01*
X224809296Y-82992616D01*
X224864564Y-82774368D01*
X224883156Y-82550000D01*
X224864564Y-82325632D01*
X224809296Y-82107384D01*
X224718860Y-81901209D01*
X224673114Y-81831189D01*
X224595724Y-81712734D01*
X224595720Y-81712729D01*
X224479570Y-81586559D01*
X224443240Y-81547094D01*
X224443239Y-81547093D01*
X224443237Y-81547091D01*
X224361382Y-81483381D01*
X224265576Y-81408811D01*
X224232319Y-81390813D01*
X224181929Y-81340802D01*
X224166576Y-81271485D01*
X224191136Y-81204872D01*
X224232320Y-81169186D01*
X224265576Y-81151189D01*
X224443240Y-81012906D01*
X224595722Y-80847268D01*
X224718860Y-80658791D01*
X224809296Y-80452616D01*
X224864564Y-80234368D01*
X224883156Y-80010000D01*
X224864564Y-79785632D01*
X224809296Y-79567384D01*
X224718860Y-79361209D01*
X224704951Y-79339919D01*
X224595724Y-79172734D01*
X224595720Y-79172729D01*
X224443237Y-79007091D01*
X224361382Y-78943381D01*
X224265576Y-78868811D01*
X224232319Y-78850813D01*
X224181929Y-78800802D01*
X224168462Y-78740000D01*
X234817675Y-78740000D01*
X234836912Y-78910744D01*
X234893664Y-79072930D01*
X234893665Y-79072933D01*
X234985079Y-79218417D01*
X234985080Y-79218419D01*
X235106580Y-79339919D01*
X235106582Y-79339920D01*
X235252066Y-79431334D01*
X235252067Y-79431334D01*
X235252070Y-79431336D01*
X235414254Y-79488087D01*
X235414253Y-79488087D01*
X235431543Y-79490034D01*
X235585000Y-79507325D01*
X235755746Y-79488087D01*
X235917930Y-79431336D01*
X236063419Y-79339919D01*
X236184919Y-79218419D01*
X236276336Y-79072930D01*
X236333087Y-78910746D01*
X236352325Y-78740000D01*
X236333087Y-78569254D01*
X236276336Y-78407070D01*
X236276334Y-78407067D01*
X236276334Y-78407066D01*
X236209653Y-78300944D01*
X241412819Y-78300944D01*
X241442177Y-78542721D01*
X241442177Y-78542722D01*
X241509936Y-78776655D01*
X241509940Y-78776666D01*
X241614348Y-78996701D01*
X241752706Y-79197147D01*
X241752714Y-79197155D01*
X241886676Y-79336625D01*
X241921425Y-79372802D01*
X242116135Y-79519117D01*
X242331795Y-79632304D01*
X242562818Y-79709431D01*
X242803221Y-79748500D01*
X242803225Y-79748500D01*
X244485801Y-79748500D01*
X244566673Y-79741971D01*
X244667768Y-79733810D01*
X244904248Y-79675523D01*
X244904249Y-79675522D01*
X244904251Y-79675522D01*
X244959396Y-79652026D01*
X245128316Y-79580056D01*
X245334168Y-79449883D01*
X245334175Y-79449877D01*
X245334176Y-79449877D01*
X245516468Y-79288380D01*
X245516474Y-79288375D01*
X245670510Y-79099714D01*
X245792289Y-78888787D01*
X245878656Y-78661057D01*
X245927374Y-78422421D01*
X245937181Y-78179061D01*
X245907823Y-77937280D01*
X245858556Y-77767189D01*
X245840063Y-77703344D01*
X245840059Y-77703333D01*
X245735651Y-77483298D01*
X245725972Y-77469276D01*
X245597293Y-77282852D01*
X245428575Y-77107198D01*
X245233865Y-76960883D01*
X245018205Y-76847696D01*
X245018201Y-76847694D01*
X245018200Y-76847694D01*
X244787179Y-76770568D01*
X244546788Y-76731501D01*
X244546782Y-76731500D01*
X244546779Y-76731500D01*
X242864203Y-76731500D01*
X242864199Y-76731500D01*
X242682236Y-76746189D01*
X242445748Y-76804477D01*
X242221685Y-76899943D01*
X242015824Y-77030122D01*
X242015823Y-77030122D01*
X241833531Y-77191619D01*
X241833522Y-77191629D01*
X241679493Y-77380281D01*
X241557715Y-77591205D01*
X241557712Y-77591210D01*
X241471345Y-77818939D01*
X241471344Y-77818941D01*
X241471344Y-77818943D01*
X241448229Y-77932166D01*
X241422626Y-78057579D01*
X241412819Y-78300937D01*
X241412819Y-78300944D01*
X236209653Y-78300944D01*
X236184920Y-78261582D01*
X236184919Y-78261580D01*
X236063419Y-78140080D01*
X236063417Y-78140079D01*
X235917933Y-78048665D01*
X235917930Y-78048664D01*
X235755746Y-77991913D01*
X235755744Y-77991912D01*
X235755746Y-77991912D01*
X235585000Y-77972675D01*
X235414255Y-77991912D01*
X235252069Y-78048664D01*
X235252066Y-78048665D01*
X235106582Y-78140079D01*
X235106580Y-78140080D01*
X234985080Y-78261580D01*
X234985079Y-78261582D01*
X234893665Y-78407066D01*
X234893664Y-78407069D01*
X234836912Y-78569255D01*
X234817675Y-78740000D01*
X224168462Y-78740000D01*
X224166576Y-78731485D01*
X224191136Y-78664872D01*
X224232320Y-78629186D01*
X224265576Y-78611189D01*
X224443240Y-78472906D01*
X224595722Y-78307268D01*
X224718860Y-78118791D01*
X224809296Y-77912616D01*
X224864564Y-77694368D01*
X224883156Y-77470000D01*
X224864564Y-77245632D01*
X224829508Y-77107198D01*
X224809297Y-77027386D01*
X224753396Y-76899944D01*
X224718860Y-76821209D01*
X224660251Y-76731501D01*
X224595724Y-76632734D01*
X224595720Y-76632729D01*
X224443237Y-76467091D01*
X224361382Y-76403381D01*
X224265576Y-76328811D01*
X224232319Y-76310813D01*
X224181929Y-76260802D01*
X224166576Y-76191485D01*
X224191136Y-76124872D01*
X224232320Y-76089186D01*
X224265576Y-76071189D01*
X224443240Y-75932906D01*
X224595722Y-75767268D01*
X224718860Y-75578791D01*
X224809296Y-75372616D01*
X224864564Y-75154368D01*
X224883156Y-74930000D01*
X224864564Y-74705632D01*
X224809296Y-74487384D01*
X224718860Y-74281209D01*
X224718858Y-74281207D01*
X224718857Y-74281203D01*
X224718856Y-74281202D01*
X224595724Y-74092734D01*
X224595720Y-74092729D01*
X224443237Y-73927091D01*
X224323372Y-73833796D01*
X224265576Y-73788811D01*
X224067574Y-73681658D01*
X224067572Y-73681657D01*
X224067571Y-73681656D01*
X223854639Y-73608557D01*
X223854630Y-73608555D01*
X223810476Y-73601187D01*
X223632569Y-73571500D01*
X223407431Y-73571500D01*
X223259211Y-73596233D01*
X223185369Y-73608555D01*
X223185360Y-73608557D01*
X222972428Y-73681656D01*
X222972426Y-73681658D01*
X222774426Y-73788810D01*
X222774424Y-73788811D01*
X222596762Y-73927091D01*
X222444279Y-74092729D01*
X222444275Y-74092734D01*
X222321144Y-74281202D01*
X222321142Y-74281203D01*
X222230703Y-74487386D01*
X222230702Y-74487387D01*
X222175437Y-74705624D01*
X222175436Y-74705630D01*
X222175436Y-74705632D01*
X222156844Y-74930000D01*
X222171942Y-75112207D01*
X222175437Y-75154375D01*
X222230702Y-75372612D01*
X222230703Y-75372613D01*
X222230704Y-75372616D01*
X222316407Y-75568000D01*
X222321141Y-75578793D01*
X222444275Y-75767265D01*
X222444279Y-75767270D01*
X222596762Y-75932908D01*
X222626153Y-75955784D01*
X222774424Y-76071189D01*
X222807680Y-76089186D01*
X222858071Y-76139200D01*
X222873423Y-76208516D01*
X222848862Y-76275129D01*
X222807680Y-76310813D01*
X222774426Y-76328810D01*
X222774424Y-76328811D01*
X222596762Y-76467091D01*
X222444279Y-76632729D01*
X222444275Y-76632734D01*
X222321141Y-76821206D01*
X222230702Y-77027386D01*
X222175437Y-77245624D01*
X222175436Y-77245630D01*
X222175436Y-77245632D01*
X222156844Y-77470000D01*
X222170946Y-77640187D01*
X222175437Y-77694375D01*
X222230702Y-77912612D01*
X222230703Y-77912613D01*
X222230704Y-77912616D01*
X222251614Y-77960286D01*
X222321141Y-78118793D01*
X222444275Y-78307265D01*
X222444279Y-78307270D01*
X222596762Y-78472908D01*
X222644871Y-78510353D01*
X222774424Y-78611189D01*
X222807680Y-78629186D01*
X222858071Y-78679200D01*
X222873423Y-78748516D01*
X222848862Y-78815129D01*
X222807680Y-78850813D01*
X222774426Y-78868810D01*
X222774424Y-78868811D01*
X222596762Y-79007091D01*
X222444279Y-79172729D01*
X222444275Y-79172734D01*
X222321141Y-79361206D01*
X222230703Y-79567386D01*
X222230702Y-79567387D01*
X222175437Y-79785624D01*
X222156844Y-80010000D01*
X222175437Y-80234375D01*
X222230702Y-80452612D01*
X222230703Y-80452613D01*
X222230704Y-80452616D01*
X222274507Y-80552477D01*
X222321141Y-80658793D01*
X222444275Y-80847265D01*
X222444279Y-80847270D01*
X222596762Y-81012908D01*
X222622899Y-81033251D01*
X222774424Y-81151189D01*
X222807680Y-81169186D01*
X222858071Y-81219200D01*
X222873423Y-81288516D01*
X222848862Y-81355129D01*
X222807680Y-81390813D01*
X222774426Y-81408810D01*
X222774424Y-81408811D01*
X222596762Y-81547091D01*
X222444279Y-81712729D01*
X222444275Y-81712734D01*
X222321141Y-81901206D01*
X222230703Y-82107386D01*
X222230702Y-82107387D01*
X222175437Y-82325624D01*
X222175436Y-82325630D01*
X222175436Y-82325632D01*
X222156844Y-82550000D01*
X222175033Y-82769509D01*
X222175437Y-82774375D01*
X222230702Y-82992612D01*
X222230703Y-82992613D01*
X222230704Y-82992616D01*
X222271852Y-83086425D01*
X222321141Y-83198793D01*
X222444275Y-83387265D01*
X222444279Y-83387270D01*
X222596762Y-83552908D01*
X222651331Y-83595381D01*
X222774424Y-83691189D01*
X222807680Y-83709186D01*
X222858071Y-83759200D01*
X222873423Y-83828516D01*
X222848862Y-83895129D01*
X222807680Y-83930813D01*
X222774426Y-83948810D01*
X222774424Y-83948811D01*
X222596762Y-84087091D01*
X222444279Y-84252729D01*
X222444275Y-84252734D01*
X222321141Y-84441206D01*
X222230703Y-84647386D01*
X222230702Y-84647387D01*
X222175437Y-84865624D01*
X222175436Y-84865630D01*
X222175436Y-84865632D01*
X222156844Y-85090000D01*
X213453156Y-85090000D01*
X213434564Y-84865632D01*
X213379296Y-84647384D01*
X213288860Y-84441209D01*
X213178091Y-84271664D01*
X213165724Y-84252734D01*
X213165720Y-84252729D01*
X213013237Y-84087091D01*
X212893367Y-83993792D01*
X212835576Y-83948811D01*
X212637574Y-83841658D01*
X212637572Y-83841657D01*
X212637571Y-83841656D01*
X212424639Y-83768557D01*
X212424630Y-83768555D01*
X212368567Y-83759200D01*
X212202569Y-83731500D01*
X211977431Y-83731500D01*
X211829211Y-83756233D01*
X211755369Y-83768555D01*
X211755360Y-83768557D01*
X211542428Y-83841656D01*
X211542426Y-83841658D01*
X211344432Y-83948807D01*
X211344426Y-83948810D01*
X211344424Y-83948811D01*
X211166762Y-84087091D01*
X211105754Y-84153363D01*
X211044901Y-84189933D01*
X210973936Y-84187798D01*
X210915391Y-84147636D01*
X210894999Y-84112057D01*
X210850889Y-83993797D01*
X210850887Y-83993792D01*
X210763261Y-83876738D01*
X210646207Y-83789112D01*
X210646202Y-83789110D01*
X210509204Y-83738011D01*
X210509196Y-83738009D01*
X210448649Y-83731500D01*
X210448638Y-83731500D01*
X208651362Y-83731500D01*
X208651350Y-83731500D01*
X208590803Y-83738009D01*
X208590795Y-83738011D01*
X208453797Y-83789110D01*
X208453792Y-83789112D01*
X208336738Y-83876738D01*
X208249112Y-83993792D01*
X208249110Y-83993797D01*
X208198011Y-84130795D01*
X208198009Y-84130803D01*
X208191500Y-84191350D01*
X208191500Y-85988649D01*
X201173500Y-85988649D01*
X201173500Y-82527526D01*
X201193502Y-82459405D01*
X201247158Y-82412912D01*
X201317432Y-82402808D01*
X201382012Y-82432302D01*
X201419333Y-82488591D01*
X201425251Y-82506807D01*
X201425256Y-82506817D01*
X201512069Y-82657183D01*
X201512070Y-82657185D01*
X201628251Y-82786217D01*
X201768720Y-82888274D01*
X201768722Y-82888275D01*
X201768725Y-82888277D01*
X201927346Y-82958900D01*
X202097184Y-82995000D01*
X202270816Y-82995000D01*
X202440654Y-82958900D01*
X202599275Y-82888277D01*
X202739746Y-82786219D01*
X202750411Y-82774375D01*
X202855929Y-82657185D01*
X202855930Y-82657183D01*
X202867961Y-82636345D01*
X202942745Y-82506815D01*
X202948667Y-82488591D01*
X202996398Y-82341686D01*
X202996400Y-82341681D01*
X203014550Y-82169000D01*
X202996400Y-81996319D01*
X202989472Y-81974998D01*
X202942747Y-81831189D01*
X202942743Y-81831182D01*
X202855930Y-81680816D01*
X202855929Y-81680814D01*
X202739748Y-81551782D01*
X202599279Y-81449725D01*
X202507385Y-81408811D01*
X202440654Y-81379100D01*
X202270816Y-81343000D01*
X202097184Y-81343000D01*
X201927345Y-81379100D01*
X201768720Y-81449725D01*
X201628251Y-81551782D01*
X201512070Y-81680814D01*
X201512069Y-81680816D01*
X201425256Y-81831182D01*
X201425253Y-81831187D01*
X201419333Y-81849410D01*
X201379259Y-81908015D01*
X201313862Y-81935652D01*
X201243905Y-81923545D01*
X201191600Y-81875538D01*
X201173500Y-81810473D01*
X201173500Y-80010000D01*
X208186844Y-80010000D01*
X208205437Y-80234375D01*
X208260702Y-80452612D01*
X208260703Y-80452613D01*
X208260704Y-80452616D01*
X208304507Y-80552477D01*
X208351141Y-80658793D01*
X208474275Y-80847265D01*
X208474279Y-80847270D01*
X208626762Y-81012908D01*
X208652899Y-81033251D01*
X208804424Y-81151189D01*
X209002426Y-81258342D01*
X209002427Y-81258342D01*
X209002428Y-81258343D01*
X209090320Y-81288516D01*
X209215365Y-81331444D01*
X209437431Y-81368500D01*
X209437435Y-81368500D01*
X209662565Y-81368500D01*
X209662569Y-81368500D01*
X209884635Y-81331444D01*
X210097574Y-81258342D01*
X210295576Y-81151189D01*
X210473240Y-81012906D01*
X210534245Y-80946637D01*
X210595096Y-80910067D01*
X210666061Y-80912200D01*
X210724606Y-80952362D01*
X210745000Y-80987941D01*
X210789111Y-81106204D01*
X210789112Y-81106207D01*
X210876738Y-81223261D01*
X210993792Y-81310887D01*
X210993794Y-81310888D01*
X210993796Y-81310889D01*
X211048900Y-81331442D01*
X211130795Y-81361988D01*
X211130803Y-81361990D01*
X211191350Y-81368499D01*
X211191355Y-81368499D01*
X211191362Y-81368500D01*
X211191368Y-81368500D01*
X212988632Y-81368500D01*
X212988638Y-81368500D01*
X212988645Y-81368499D01*
X212988649Y-81368499D01*
X213049196Y-81361990D01*
X213049199Y-81361989D01*
X213049201Y-81361989D01*
X213186204Y-81310889D01*
X213238842Y-81271485D01*
X213303261Y-81223261D01*
X213390887Y-81106207D01*
X213390887Y-81106206D01*
X213390889Y-81106204D01*
X213441989Y-80969201D01*
X213443800Y-80952362D01*
X213448499Y-80908649D01*
X213448500Y-80908632D01*
X213448500Y-79111367D01*
X213448499Y-79111350D01*
X213441990Y-79050803D01*
X213441988Y-79050795D01*
X213390889Y-78913797D01*
X213390887Y-78913792D01*
X213303261Y-78796738D01*
X213186207Y-78709112D01*
X213186202Y-78709110D01*
X213049204Y-78658011D01*
X213049196Y-78658009D01*
X212988649Y-78651500D01*
X212988638Y-78651500D01*
X211191362Y-78651500D01*
X211191350Y-78651500D01*
X211130803Y-78658009D01*
X211130795Y-78658011D01*
X210993797Y-78709110D01*
X210993792Y-78709112D01*
X210876738Y-78796738D01*
X210789112Y-78913792D01*
X210789111Y-78913795D01*
X210745000Y-79032058D01*
X210702453Y-79088893D01*
X210635932Y-79113703D01*
X210566558Y-79098611D01*
X210534246Y-79073363D01*
X210473240Y-79007094D01*
X210473239Y-79007093D01*
X210473237Y-79007091D01*
X210391382Y-78943381D01*
X210295576Y-78868811D01*
X210097574Y-78761658D01*
X210097572Y-78761657D01*
X210097571Y-78761656D01*
X209884639Y-78688557D01*
X209884630Y-78688555D01*
X209828567Y-78679200D01*
X209662569Y-78651500D01*
X209437431Y-78651500D01*
X209290987Y-78675937D01*
X209215369Y-78688555D01*
X209215360Y-78688557D01*
X209002428Y-78761656D01*
X209002426Y-78761658D01*
X208804432Y-78868807D01*
X208804426Y-78868810D01*
X208804424Y-78868811D01*
X208626762Y-79007091D01*
X208474279Y-79172729D01*
X208474275Y-79172734D01*
X208351141Y-79361206D01*
X208260703Y-79567386D01*
X208260702Y-79567387D01*
X208205437Y-79785624D01*
X208186844Y-80010000D01*
X201173500Y-80010000D01*
X201173500Y-74930000D01*
X208191844Y-74930000D01*
X208206942Y-75112207D01*
X208210437Y-75154375D01*
X208265702Y-75372612D01*
X208265703Y-75372613D01*
X208265704Y-75372616D01*
X208351407Y-75568000D01*
X208356141Y-75578793D01*
X208479275Y-75767265D01*
X208479279Y-75767270D01*
X208631762Y-75932908D01*
X208661153Y-75955784D01*
X208809424Y-76071189D01*
X209007426Y-76178342D01*
X209007427Y-76178342D01*
X209007428Y-76178343D01*
X209095320Y-76208516D01*
X209220365Y-76251444D01*
X209442431Y-76288500D01*
X209442435Y-76288500D01*
X209667565Y-76288500D01*
X209667569Y-76288500D01*
X209889635Y-76251444D01*
X210102574Y-76178342D01*
X210300576Y-76071189D01*
X210478240Y-75932906D01*
X210539245Y-75866637D01*
X210600096Y-75830067D01*
X210671061Y-75832200D01*
X210729606Y-75872362D01*
X210750000Y-75907941D01*
X210794111Y-76026204D01*
X210794112Y-76026207D01*
X210881738Y-76143261D01*
X210998792Y-76230887D01*
X210998794Y-76230888D01*
X210998796Y-76230889D01*
X211053900Y-76251442D01*
X211135795Y-76281988D01*
X211135803Y-76281990D01*
X211196350Y-76288499D01*
X211196355Y-76288499D01*
X211196362Y-76288500D01*
X211196368Y-76288500D01*
X212993632Y-76288500D01*
X212993638Y-76288500D01*
X212993645Y-76288499D01*
X212993649Y-76288499D01*
X213054196Y-76281990D01*
X213054199Y-76281989D01*
X213054201Y-76281989D01*
X213191204Y-76230889D01*
X213243842Y-76191485D01*
X213308261Y-76143261D01*
X213395887Y-76026207D01*
X213395887Y-76026206D01*
X213395889Y-76026204D01*
X213446989Y-75889201D01*
X213448800Y-75872362D01*
X213453499Y-75828649D01*
X213453500Y-75828632D01*
X213453500Y-74031367D01*
X213453499Y-74031350D01*
X213446990Y-73970803D01*
X213446988Y-73970795D01*
X213395889Y-73833797D01*
X213395887Y-73833792D01*
X213308261Y-73716738D01*
X213191207Y-73629112D01*
X213191202Y-73629110D01*
X213054204Y-73578011D01*
X213054196Y-73578009D01*
X212993649Y-73571500D01*
X212993638Y-73571500D01*
X211196362Y-73571500D01*
X211196350Y-73571500D01*
X211135803Y-73578009D01*
X211135795Y-73578011D01*
X210998797Y-73629110D01*
X210998792Y-73629112D01*
X210881738Y-73716738D01*
X210794112Y-73833792D01*
X210794111Y-73833795D01*
X210750000Y-73952058D01*
X210707453Y-74008893D01*
X210640932Y-74033703D01*
X210571558Y-74018611D01*
X210539246Y-73993363D01*
X210478240Y-73927094D01*
X210478239Y-73927093D01*
X210478237Y-73927091D01*
X210358372Y-73833796D01*
X210300576Y-73788811D01*
X210102574Y-73681658D01*
X210102572Y-73681657D01*
X210102571Y-73681656D01*
X209889639Y-73608557D01*
X209889630Y-73608555D01*
X209845476Y-73601187D01*
X209667569Y-73571500D01*
X209442431Y-73571500D01*
X209294211Y-73596233D01*
X209220369Y-73608555D01*
X209220360Y-73608557D01*
X209007428Y-73681656D01*
X209007426Y-73681658D01*
X208809426Y-73788810D01*
X208809424Y-73788811D01*
X208631762Y-73927091D01*
X208479279Y-74092729D01*
X208479275Y-74092734D01*
X208356144Y-74281202D01*
X208356142Y-74281203D01*
X208265703Y-74487386D01*
X208265702Y-74487387D01*
X208210437Y-74705624D01*
X208210436Y-74705630D01*
X208210436Y-74705632D01*
X208191844Y-74930000D01*
X201173500Y-74930000D01*
X201173500Y-71752004D01*
X201173499Y-71751992D01*
X201161764Y-71642843D01*
X201150558Y-71591332D01*
X201115890Y-71487173D01*
X201036871Y-71364218D01*
X201036870Y-71364217D01*
X201036869Y-71364215D01*
X201036868Y-71364213D01*
X200991119Y-71311417D01*
X200974347Y-71296884D01*
X200880661Y-71215703D01*
X200747714Y-71154986D01*
X200680680Y-71135302D01*
X200680674Y-71135301D01*
X200680670Y-71135300D01*
X200536000Y-71114500D01*
X196720000Y-71114500D01*
X196719992Y-71114500D01*
X196626104Y-71124595D01*
X196610843Y-71126236D01*
X196610841Y-71126236D01*
X196610835Y-71126237D01*
X196559332Y-71137441D01*
X196455174Y-71172109D01*
X196332215Y-71251130D01*
X196332213Y-71251131D01*
X196279417Y-71296880D01*
X196183704Y-71407337D01*
X196183703Y-71407338D01*
X196122986Y-71540285D01*
X196103302Y-71607319D01*
X196103301Y-71607326D01*
X196103300Y-71607330D01*
X196082502Y-71751992D01*
X196082500Y-71752003D01*
X196082500Y-75568007D01*
X196094237Y-75677164D01*
X196105441Y-75728667D01*
X196140109Y-75832825D01*
X196219130Y-75955784D01*
X196219131Y-75955786D01*
X196264880Y-76008582D01*
X196264882Y-76008583D01*
X196264884Y-76008586D01*
X196375339Y-76104297D01*
X196508287Y-76165014D01*
X196575326Y-76184699D01*
X196575330Y-76184700D01*
X196720000Y-76205500D01*
X197226500Y-76205500D01*
X197294621Y-76225502D01*
X197341114Y-76279158D01*
X197352500Y-76331500D01*
X197352500Y-77523547D01*
X197332498Y-77591668D01*
X197278842Y-77638161D01*
X197208568Y-77648265D01*
X197143988Y-77618771D01*
X197132864Y-77607857D01*
X197024748Y-77487782D01*
X196884279Y-77385725D01*
X196828254Y-77360781D01*
X196725654Y-77315100D01*
X196555816Y-77279000D01*
X196382184Y-77279000D01*
X196212345Y-77315100D01*
X196053720Y-77385725D01*
X195971561Y-77445418D01*
X195904693Y-77469276D01*
X195835542Y-77453196D01*
X195823439Y-77445418D01*
X195741279Y-77385725D01*
X195685254Y-77360781D01*
X195582654Y-77315100D01*
X195412816Y-77279000D01*
X195239184Y-77279000D01*
X195069345Y-77315100D01*
X194910720Y-77385725D01*
X194770251Y-77487782D01*
X194654070Y-77616814D01*
X194654069Y-77616816D01*
X194567256Y-77767182D01*
X194567252Y-77767189D01*
X194513601Y-77932313D01*
X194513600Y-77932317D01*
X194513600Y-77932319D01*
X194495450Y-78105000D01*
X194507477Y-78219429D01*
X194513601Y-78277686D01*
X194567252Y-78442810D01*
X194567256Y-78442817D01*
X194654069Y-78593183D01*
X194654070Y-78593185D01*
X194770251Y-78722217D01*
X194910720Y-78824274D01*
X194910722Y-78824275D01*
X194910725Y-78824277D01*
X195069346Y-78894900D01*
X195239184Y-78931000D01*
X195412816Y-78931000D01*
X195582654Y-78894900D01*
X195741275Y-78824277D01*
X195823438Y-78764581D01*
X195890306Y-78740723D01*
X195959457Y-78756802D01*
X195971562Y-78764582D01*
X196053720Y-78824274D01*
X196053719Y-78824274D01*
X196053723Y-78824276D01*
X196053725Y-78824277D01*
X196212346Y-78894900D01*
X196382184Y-78931000D01*
X196555816Y-78931000D01*
X196725654Y-78894900D01*
X196884275Y-78824277D01*
X197024746Y-78722219D01*
X197132865Y-78602140D01*
X197193309Y-78564902D01*
X197264293Y-78566253D01*
X197323278Y-78605767D01*
X197351536Y-78670898D01*
X197352500Y-78686452D01*
X197352500Y-95201076D01*
X197332498Y-95269197D01*
X197278842Y-95315690D01*
X197208568Y-95325794D01*
X197152442Y-95303014D01*
X197138280Y-95292725D01*
X196979654Y-95222100D01*
X196809816Y-95186000D01*
X196636184Y-95186000D01*
X196466345Y-95222100D01*
X196307720Y-95292725D01*
X196167251Y-95394782D01*
X196051070Y-95523814D01*
X196051069Y-95523816D01*
X195964256Y-95674182D01*
X195964252Y-95674189D01*
X195910601Y-95839313D01*
X195910600Y-95839317D01*
X195910600Y-95839319D01*
X195892450Y-96012000D01*
X195895382Y-96039900D01*
X195910601Y-96184686D01*
X195964252Y-96349810D01*
X195964256Y-96349817D01*
X196051069Y-96500183D01*
X196051070Y-96500185D01*
X196167251Y-96629217D01*
X196307720Y-96731274D01*
X196307722Y-96731275D01*
X196307725Y-96731277D01*
X196466346Y-96801900D01*
X196636184Y-96838000D01*
X196809816Y-96838000D01*
X196979654Y-96801900D01*
X197138275Y-96731277D01*
X197139886Y-96730106D01*
X197152439Y-96720987D01*
X197219307Y-96697129D01*
X197288458Y-96713209D01*
X197337938Y-96764123D01*
X197352500Y-96822923D01*
X197352500Y-98928500D01*
X197332498Y-98996621D01*
X197278842Y-99043114D01*
X197226500Y-99054500D01*
X192655992Y-99054500D01*
X192562104Y-99064595D01*
X192546843Y-99066236D01*
X192546841Y-99066236D01*
X192546835Y-99066237D01*
X192495332Y-99077441D01*
X192391174Y-99112109D01*
X192268215Y-99191130D01*
X192268213Y-99191131D01*
X192215417Y-99236880D01*
X192119704Y-99347337D01*
X192119703Y-99347338D01*
X192058986Y-99480285D01*
X192039300Y-99547325D01*
X192039300Y-99547328D01*
X192027988Y-99626005D01*
X192018500Y-99692002D01*
X192018500Y-100237979D01*
X191998498Y-100306100D01*
X191944842Y-100352593D01*
X191874568Y-100362697D01*
X191850886Y-100356909D01*
X191813746Y-100343913D01*
X191813744Y-100343912D01*
X191813742Y-100343912D01*
X191643000Y-100324675D01*
X191472255Y-100343912D01*
X191310069Y-100400664D01*
X191310066Y-100400665D01*
X191164582Y-100492079D01*
X191164580Y-100492080D01*
X191043080Y-100613580D01*
X191043079Y-100613582D01*
X190951665Y-100759066D01*
X190951664Y-100759069D01*
X190894912Y-100921255D01*
X190875675Y-101092000D01*
X190894912Y-101262744D01*
X190951664Y-101424930D01*
X190951665Y-101424933D01*
X191043079Y-101570417D01*
X191043080Y-101570419D01*
X191164580Y-101691919D01*
X191164582Y-101691920D01*
X191310066Y-101783334D01*
X191310067Y-101783334D01*
X191310070Y-101783336D01*
X191457695Y-101834992D01*
X191515385Y-101876369D01*
X191535007Y-101912305D01*
X191565744Y-102000147D01*
X191569363Y-102071051D01*
X191534074Y-102132657D01*
X191488432Y-102160690D01*
X191437073Y-102178662D01*
X191308208Y-102259633D01*
X191239886Y-102278938D01*
X191171973Y-102258242D01*
X191126030Y-102204115D01*
X191122243Y-102194560D01*
X191121087Y-102191255D01*
X191121087Y-102191254D01*
X191064336Y-102029070D01*
X191064334Y-102029067D01*
X191064334Y-102029066D01*
X190972920Y-101883582D01*
X190972919Y-101883580D01*
X190851419Y-101762080D01*
X190851417Y-101762079D01*
X190705933Y-101670665D01*
X190705930Y-101670664D01*
X190651854Y-101651742D01*
X190543746Y-101613913D01*
X190543744Y-101613912D01*
X190543746Y-101613912D01*
X190373000Y-101594675D01*
X190202255Y-101613912D01*
X190040069Y-101670664D01*
X190040066Y-101670665D01*
X189894582Y-101762079D01*
X189894580Y-101762080D01*
X189773080Y-101883580D01*
X189773079Y-101883582D01*
X189681665Y-102029066D01*
X189681664Y-102029069D01*
X189624912Y-102191255D01*
X189605675Y-102362000D01*
X184004897Y-102362000D01*
X184078860Y-102248791D01*
X184169296Y-102042616D01*
X184224564Y-101824368D01*
X184243156Y-101600000D01*
X184224564Y-101375632D01*
X184200853Y-101282000D01*
X184169297Y-101157386D01*
X184121875Y-101049274D01*
X184078860Y-100951209D01*
X184059290Y-100921255D01*
X183955724Y-100762734D01*
X183955720Y-100762729D01*
X183818417Y-100613581D01*
X183803240Y-100597094D01*
X183803239Y-100597093D01*
X183803237Y-100597091D01*
X183681946Y-100502686D01*
X183625576Y-100458811D01*
X183592319Y-100440813D01*
X183541929Y-100390802D01*
X183526576Y-100321485D01*
X183551136Y-100254872D01*
X183592320Y-100219186D01*
X183625576Y-100201189D01*
X183803240Y-100062906D01*
X183955722Y-99897268D01*
X184078860Y-99708791D01*
X184084909Y-99695000D01*
X188843675Y-99695000D01*
X188862912Y-99865744D01*
X188919664Y-100027930D01*
X188919665Y-100027933D01*
X189011079Y-100173417D01*
X189011080Y-100173419D01*
X189132580Y-100294919D01*
X189132582Y-100294920D01*
X189278066Y-100386334D01*
X189278067Y-100386334D01*
X189278070Y-100386336D01*
X189440254Y-100443087D01*
X189440253Y-100443087D01*
X189457543Y-100445034D01*
X189611000Y-100462325D01*
X189781746Y-100443087D01*
X189943930Y-100386336D01*
X190089419Y-100294919D01*
X190210919Y-100173419D01*
X190302336Y-100027930D01*
X190359087Y-99865746D01*
X190378325Y-99695000D01*
X190359087Y-99524254D01*
X190302336Y-99362070D01*
X190302334Y-99362067D01*
X190302334Y-99362066D01*
X190210920Y-99216582D01*
X190210919Y-99216580D01*
X190089419Y-99095080D01*
X190089417Y-99095079D01*
X189943933Y-99003665D01*
X189943930Y-99003664D01*
X189923802Y-98996621D01*
X189781746Y-98946913D01*
X189781744Y-98946912D01*
X189781746Y-98946912D01*
X189611000Y-98927675D01*
X189440255Y-98946912D01*
X189278069Y-99003664D01*
X189278066Y-99003665D01*
X189132582Y-99095079D01*
X189132580Y-99095080D01*
X189011080Y-99216580D01*
X189011079Y-99216582D01*
X188919665Y-99362066D01*
X188919664Y-99362069D01*
X188862912Y-99524255D01*
X188843675Y-99695000D01*
X184084909Y-99695000D01*
X184169296Y-99502616D01*
X184224564Y-99284368D01*
X184243156Y-99060000D01*
X184224564Y-98835632D01*
X184176426Y-98645538D01*
X184169297Y-98617387D01*
X184169296Y-98617386D01*
X184169296Y-98617384D01*
X184078860Y-98411209D01*
X184045353Y-98359923D01*
X183955724Y-98222734D01*
X183955719Y-98222729D01*
X183812524Y-98067179D01*
X183781103Y-98003514D01*
X183789090Y-97932968D01*
X183833948Y-97877939D01*
X183861183Y-97863789D01*
X183976204Y-97820889D01*
X184071311Y-97749693D01*
X184093261Y-97733261D01*
X184180887Y-97616207D01*
X184180887Y-97616206D01*
X184180889Y-97616204D01*
X184231989Y-97479201D01*
X184234894Y-97452185D01*
X184238499Y-97418649D01*
X184238500Y-97418632D01*
X184238500Y-95621367D01*
X184238499Y-95621350D01*
X184231990Y-95560803D01*
X184231988Y-95560795D01*
X184180889Y-95423797D01*
X184180887Y-95423792D01*
X184093261Y-95306738D01*
X183976207Y-95219112D01*
X183976202Y-95219110D01*
X183839204Y-95168011D01*
X183839196Y-95168009D01*
X183778649Y-95161500D01*
X183778638Y-95161500D01*
X181981362Y-95161500D01*
X181981350Y-95161500D01*
X181920803Y-95168009D01*
X181920795Y-95168011D01*
X181783797Y-95219110D01*
X181783792Y-95219112D01*
X181666738Y-95306738D01*
X181579112Y-95423792D01*
X181579110Y-95423797D01*
X181528011Y-95560795D01*
X181528009Y-95560803D01*
X181521500Y-95621350D01*
X181521500Y-97418649D01*
X181528009Y-97479196D01*
X181528011Y-97479204D01*
X181579110Y-97616202D01*
X181579112Y-97616207D01*
X181666738Y-97733261D01*
X181783791Y-97820886D01*
X181783792Y-97820886D01*
X181783796Y-97820889D01*
X181898810Y-97863787D01*
X181955642Y-97906332D01*
X181980453Y-97972852D01*
X181965362Y-98042226D01*
X181947475Y-98067179D01*
X181804280Y-98222729D01*
X181804275Y-98222734D01*
X181681141Y-98411206D01*
X181590703Y-98617386D01*
X181590702Y-98617387D01*
X181535437Y-98835624D01*
X181535436Y-98835630D01*
X181535436Y-98835632D01*
X181516844Y-99060000D01*
X181535378Y-99283673D01*
X181535437Y-99284375D01*
X181590702Y-99502612D01*
X181590703Y-99502613D01*
X181590704Y-99502616D01*
X181625891Y-99582835D01*
X181681141Y-99708793D01*
X181804275Y-99897265D01*
X181804279Y-99897270D01*
X181956762Y-100062908D01*
X182011331Y-100105381D01*
X182134424Y-100201189D01*
X182167680Y-100219186D01*
X182218071Y-100269200D01*
X182233423Y-100338516D01*
X182208862Y-100405129D01*
X182167680Y-100440813D01*
X182134426Y-100458810D01*
X182134424Y-100458811D01*
X181956762Y-100597091D01*
X181804279Y-100762729D01*
X181804275Y-100762734D01*
X181681141Y-100951206D01*
X181590702Y-101157386D01*
X181535437Y-101375624D01*
X181535436Y-101375630D01*
X181535436Y-101375632D01*
X181516844Y-101600000D01*
X181531776Y-101780202D01*
X181535437Y-101824375D01*
X181590702Y-102042612D01*
X181590703Y-102042613D01*
X181590704Y-102042616D01*
X181673278Y-102230868D01*
X181681141Y-102248793D01*
X181804275Y-102437265D01*
X181804279Y-102437270D01*
X181956762Y-102602908D01*
X181983685Y-102623863D01*
X182134424Y-102741189D01*
X182167680Y-102759186D01*
X182218071Y-102809200D01*
X182233423Y-102878516D01*
X182208862Y-102945129D01*
X182167680Y-102980813D01*
X182134426Y-102998810D01*
X182134424Y-102998811D01*
X181956762Y-103137091D01*
X181804279Y-103302729D01*
X181804275Y-103302734D01*
X181681141Y-103491206D01*
X181590703Y-103697386D01*
X181590702Y-103697387D01*
X181535437Y-103915624D01*
X181535436Y-103915630D01*
X181535436Y-103915632D01*
X181516844Y-104140000D01*
X181534351Y-104351277D01*
X181535437Y-104364375D01*
X181590702Y-104582612D01*
X181590703Y-104582613D01*
X181590704Y-104582616D01*
X181681140Y-104788791D01*
X181681141Y-104788793D01*
X181804275Y-104977265D01*
X181804279Y-104977270D01*
X181956762Y-105142908D01*
X181992112Y-105170422D01*
X182134424Y-105281189D01*
X182167680Y-105299186D01*
X182218071Y-105349200D01*
X182233423Y-105418516D01*
X182208862Y-105485129D01*
X182167680Y-105520813D01*
X182134426Y-105538810D01*
X182134424Y-105538811D01*
X181956762Y-105677091D01*
X181804279Y-105842729D01*
X181804275Y-105842734D01*
X181681141Y-106031206D01*
X181590703Y-106237386D01*
X181590702Y-106237387D01*
X181535437Y-106455624D01*
X181535436Y-106455630D01*
X181535436Y-106455632D01*
X181516844Y-106680000D01*
X181532838Y-106873021D01*
X181535437Y-106904375D01*
X181590702Y-107122612D01*
X181590703Y-107122613D01*
X181590704Y-107122616D01*
X181681140Y-107328791D01*
X181681141Y-107328793D01*
X181804275Y-107517265D01*
X181804279Y-107517270D01*
X181956762Y-107682908D01*
X182010095Y-107724419D01*
X182134424Y-107821189D01*
X182167680Y-107839186D01*
X182218071Y-107889200D01*
X182233423Y-107958516D01*
X182208862Y-108025129D01*
X182167680Y-108060813D01*
X182134426Y-108078810D01*
X182134424Y-108078811D01*
X181956762Y-108217091D01*
X181804279Y-108382729D01*
X181804275Y-108382734D01*
X181681141Y-108571206D01*
X181590703Y-108777386D01*
X181590702Y-108777387D01*
X181535437Y-108995624D01*
X181535436Y-108995630D01*
X181535436Y-108995632D01*
X181516844Y-109220000D01*
X181528061Y-109355372D01*
X181535437Y-109444375D01*
X181590702Y-109662612D01*
X181590703Y-109662613D01*
X181590704Y-109662616D01*
X181681140Y-109868791D01*
X181681141Y-109868793D01*
X181804275Y-110057265D01*
X181804279Y-110057270D01*
X181956762Y-110222908D01*
X181966741Y-110230675D01*
X182134424Y-110361189D01*
X182167680Y-110379186D01*
X182218071Y-110429200D01*
X182233423Y-110498516D01*
X182208862Y-110565129D01*
X182167680Y-110600813D01*
X182134426Y-110618810D01*
X182134424Y-110618811D01*
X181956762Y-110757091D01*
X181804279Y-110922729D01*
X181804275Y-110922734D01*
X181681141Y-111111206D01*
X181590703Y-111317386D01*
X181590702Y-111317387D01*
X181535437Y-111535624D01*
X181535436Y-111535630D01*
X181535436Y-111535632D01*
X181516844Y-111760000D01*
X158561318Y-111760000D01*
X158498654Y-111732100D01*
X158328816Y-111696000D01*
X158155184Y-111696000D01*
X157985345Y-111732100D01*
X157826720Y-111802725D01*
X157686251Y-111904782D01*
X157570070Y-112033814D01*
X157570069Y-112033816D01*
X157483256Y-112184182D01*
X157483252Y-112184189D01*
X157429601Y-112349313D01*
X157429600Y-112349317D01*
X157429600Y-112349319D01*
X157411450Y-112522000D01*
X152400000Y-112522000D01*
X152400000Y-108522000D01*
X157474675Y-108522000D01*
X157493912Y-108692744D01*
X157550664Y-108854930D01*
X157550665Y-108854933D01*
X157642079Y-109000417D01*
X157642080Y-109000419D01*
X157763580Y-109121919D01*
X157763582Y-109121920D01*
X157909066Y-109213334D01*
X157909067Y-109213334D01*
X157909070Y-109213336D01*
X158071254Y-109270087D01*
X158071253Y-109270087D01*
X158088543Y-109272034D01*
X158242000Y-109289325D01*
X158412746Y-109270087D01*
X158574930Y-109213336D01*
X158720419Y-109121919D01*
X158841919Y-109000419D01*
X158933336Y-108854930D01*
X158990087Y-108692746D01*
X159009325Y-108522000D01*
X158990087Y-108351254D01*
X158933336Y-108189070D01*
X158933334Y-108189067D01*
X158933334Y-108189066D01*
X158841920Y-108043582D01*
X158841919Y-108043580D01*
X158720419Y-107922080D01*
X158720417Y-107922079D01*
X158574933Y-107830665D01*
X158574930Y-107830664D01*
X158532551Y-107815835D01*
X158412746Y-107773913D01*
X158412744Y-107773912D01*
X158412746Y-107773912D01*
X158242000Y-107754675D01*
X158071255Y-107773912D01*
X157909069Y-107830664D01*
X157909066Y-107830665D01*
X157763582Y-107922079D01*
X157763580Y-107922080D01*
X157642080Y-108043580D01*
X157642079Y-108043582D01*
X157550665Y-108189066D01*
X157550664Y-108189069D01*
X157493912Y-108351255D01*
X157474675Y-108522000D01*
X152400000Y-108522000D01*
X152400000Y-102870000D01*
X154109450Y-102870000D01*
X154127396Y-103040744D01*
X154127601Y-103042686D01*
X154181252Y-103207810D01*
X154181256Y-103207817D01*
X154268069Y-103358183D01*
X154268070Y-103358185D01*
X154384251Y-103487217D01*
X154524720Y-103589274D01*
X154524722Y-103589275D01*
X154524725Y-103589277D01*
X154683346Y-103659900D01*
X154853184Y-103696000D01*
X155026816Y-103696000D01*
X155196654Y-103659900D01*
X155355275Y-103589277D01*
X155495746Y-103487219D01*
X155611929Y-103358185D01*
X155698745Y-103207815D01*
X155700332Y-103202933D01*
X155748938Y-103053335D01*
X155752400Y-103042681D01*
X155770550Y-102870000D01*
X156649450Y-102870000D01*
X156667396Y-103040744D01*
X156667601Y-103042686D01*
X156721252Y-103207810D01*
X156721256Y-103207817D01*
X156808069Y-103358183D01*
X156808070Y-103358185D01*
X156924251Y-103487217D01*
X157064720Y-103589274D01*
X157064722Y-103589275D01*
X157064725Y-103589277D01*
X157223346Y-103659900D01*
X157393184Y-103696000D01*
X157566816Y-103696000D01*
X157736654Y-103659900D01*
X157799318Y-103632000D01*
X158681450Y-103632000D01*
X158688322Y-103697384D01*
X158699601Y-103804686D01*
X158753252Y-103969810D01*
X158753256Y-103969817D01*
X158840069Y-104120183D01*
X158840070Y-104120185D01*
X158956251Y-104249217D01*
X159096720Y-104351274D01*
X159096722Y-104351275D01*
X159096725Y-104351277D01*
X159255346Y-104421900D01*
X159425184Y-104458000D01*
X159598816Y-104458000D01*
X159768654Y-104421900D01*
X159927275Y-104351277D01*
X160067746Y-104249219D01*
X160070121Y-104246582D01*
X160183929Y-104120185D01*
X160183930Y-104120183D01*
X160270745Y-103969815D01*
X160324400Y-103804681D01*
X160342550Y-103632000D01*
X161221450Y-103632000D01*
X161228322Y-103697384D01*
X161239601Y-103804686D01*
X161293252Y-103969810D01*
X161293256Y-103969817D01*
X161380069Y-104120183D01*
X161380070Y-104120185D01*
X161496251Y-104249217D01*
X161636720Y-104351274D01*
X161636722Y-104351275D01*
X161636725Y-104351277D01*
X161795346Y-104421900D01*
X161965184Y-104458000D01*
X162138816Y-104458000D01*
X162308654Y-104421900D01*
X162467275Y-104351277D01*
X162607746Y-104249219D01*
X162610121Y-104246582D01*
X162723929Y-104120185D01*
X162723930Y-104120183D01*
X162810745Y-103969815D01*
X162864400Y-103804681D01*
X162882550Y-103632000D01*
X163253450Y-103632000D01*
X163260322Y-103697384D01*
X163271601Y-103804686D01*
X163325252Y-103969810D01*
X163325256Y-103969817D01*
X163412069Y-104120183D01*
X163412070Y-104120185D01*
X163528251Y-104249217D01*
X163668720Y-104351274D01*
X163668722Y-104351275D01*
X163668725Y-104351277D01*
X163827346Y-104421900D01*
X163997184Y-104458000D01*
X164170816Y-104458000D01*
X164340654Y-104421900D01*
X164499275Y-104351277D01*
X164639746Y-104249219D01*
X164642121Y-104246582D01*
X164755929Y-104120185D01*
X164755930Y-104120183D01*
X164842745Y-103969815D01*
X164896400Y-103804681D01*
X164914550Y-103632000D01*
X165285450Y-103632000D01*
X165292322Y-103697384D01*
X165303601Y-103804686D01*
X165357252Y-103969810D01*
X165357256Y-103969817D01*
X165444069Y-104120183D01*
X165444070Y-104120185D01*
X165560251Y-104249217D01*
X165700720Y-104351274D01*
X165700722Y-104351275D01*
X165700725Y-104351277D01*
X165859346Y-104421900D01*
X166029184Y-104458000D01*
X166202816Y-104458000D01*
X166372654Y-104421900D01*
X166531275Y-104351277D01*
X166671746Y-104249219D01*
X166674121Y-104246582D01*
X166787929Y-104120185D01*
X166787930Y-104120183D01*
X166874745Y-103969815D01*
X166928400Y-103804681D01*
X166946550Y-103632000D01*
X167317450Y-103632000D01*
X167324322Y-103697384D01*
X167335601Y-103804686D01*
X167389252Y-103969810D01*
X167389256Y-103969817D01*
X167476069Y-104120183D01*
X167476070Y-104120185D01*
X167592251Y-104249217D01*
X167732720Y-104351274D01*
X167732722Y-104351275D01*
X167732725Y-104351277D01*
X167891346Y-104421900D01*
X168061184Y-104458000D01*
X168234816Y-104458000D01*
X168404654Y-104421900D01*
X168563275Y-104351277D01*
X168703746Y-104249219D01*
X168706121Y-104246582D01*
X168819929Y-104120185D01*
X168819930Y-104120183D01*
X168906745Y-103969815D01*
X168960400Y-103804681D01*
X168978550Y-103632000D01*
X169349450Y-103632000D01*
X169356322Y-103697384D01*
X169367601Y-103804686D01*
X169421252Y-103969810D01*
X169421256Y-103969817D01*
X169508069Y-104120183D01*
X169508070Y-104120185D01*
X169624251Y-104249217D01*
X169764720Y-104351274D01*
X169764722Y-104351275D01*
X169764725Y-104351277D01*
X169923346Y-104421900D01*
X170093184Y-104458000D01*
X170266816Y-104458000D01*
X170436654Y-104421900D01*
X170595275Y-104351277D01*
X170735746Y-104249219D01*
X170738121Y-104246582D01*
X170851929Y-104120185D01*
X170851930Y-104120183D01*
X170938745Y-103969815D01*
X170992400Y-103804681D01*
X171010550Y-103632000D01*
X171381450Y-103632000D01*
X171388322Y-103697384D01*
X171399601Y-103804686D01*
X171453252Y-103969810D01*
X171453256Y-103969817D01*
X171540069Y-104120183D01*
X171540070Y-104120185D01*
X171656251Y-104249217D01*
X171796720Y-104351274D01*
X171796722Y-104351275D01*
X171796725Y-104351277D01*
X171955346Y-104421900D01*
X172125184Y-104458000D01*
X172298816Y-104458000D01*
X172468654Y-104421900D01*
X172627275Y-104351277D01*
X172767746Y-104249219D01*
X172770121Y-104246582D01*
X172883929Y-104120185D01*
X172883930Y-104120183D01*
X172970745Y-103969815D01*
X173024400Y-103804681D01*
X173042550Y-103632000D01*
X173413450Y-103632000D01*
X173420322Y-103697384D01*
X173431601Y-103804686D01*
X173485252Y-103969810D01*
X173485256Y-103969817D01*
X173572069Y-104120183D01*
X173572070Y-104120185D01*
X173688251Y-104249217D01*
X173828720Y-104351274D01*
X173828722Y-104351275D01*
X173828725Y-104351277D01*
X173987346Y-104421900D01*
X174157184Y-104458000D01*
X174330816Y-104458000D01*
X174500654Y-104421900D01*
X174659275Y-104351277D01*
X174799746Y-104249219D01*
X174802121Y-104246582D01*
X174915929Y-104120185D01*
X174915930Y-104120183D01*
X175002745Y-103969815D01*
X175056400Y-103804681D01*
X175074550Y-103632000D01*
X175056400Y-103459319D01*
X175052789Y-103448208D01*
X175002747Y-103294189D01*
X175002743Y-103294182D01*
X174915930Y-103143816D01*
X174915929Y-103143814D01*
X174799748Y-103014782D01*
X174659279Y-102912725D01*
X174500654Y-102842100D01*
X174330816Y-102806000D01*
X174157184Y-102806000D01*
X173987345Y-102842100D01*
X173828720Y-102912725D01*
X173688251Y-103014782D01*
X173572070Y-103143814D01*
X173572069Y-103143816D01*
X173485256Y-103294182D01*
X173485252Y-103294189D01*
X173431601Y-103459313D01*
X173431600Y-103459317D01*
X173431600Y-103459319D01*
X173413450Y-103632000D01*
X173042550Y-103632000D01*
X173024400Y-103459319D01*
X173020789Y-103448208D01*
X172970747Y-103294189D01*
X172970743Y-103294182D01*
X172883930Y-103143816D01*
X172883929Y-103143814D01*
X172767748Y-103014782D01*
X172627279Y-102912725D01*
X172468654Y-102842100D01*
X172298816Y-102806000D01*
X172125184Y-102806000D01*
X171955345Y-102842100D01*
X171796720Y-102912725D01*
X171656251Y-103014782D01*
X171540070Y-103143814D01*
X171540069Y-103143816D01*
X171453256Y-103294182D01*
X171453252Y-103294189D01*
X171399601Y-103459313D01*
X171399600Y-103459317D01*
X171399600Y-103459319D01*
X171381450Y-103632000D01*
X171010550Y-103632000D01*
X170992400Y-103459319D01*
X170988789Y-103448208D01*
X170938747Y-103294189D01*
X170938743Y-103294182D01*
X170851930Y-103143816D01*
X170851929Y-103143814D01*
X170735748Y-103014782D01*
X170595279Y-102912725D01*
X170436654Y-102842100D01*
X170266816Y-102806000D01*
X170093184Y-102806000D01*
X169923345Y-102842100D01*
X169764720Y-102912725D01*
X169624251Y-103014782D01*
X169508070Y-103143814D01*
X169508069Y-103143816D01*
X169421256Y-103294182D01*
X169421252Y-103294189D01*
X169367601Y-103459313D01*
X169367600Y-103459317D01*
X169367600Y-103459319D01*
X169349450Y-103632000D01*
X168978550Y-103632000D01*
X168960400Y-103459319D01*
X168956789Y-103448208D01*
X168906747Y-103294189D01*
X168906743Y-103294182D01*
X168819930Y-103143816D01*
X168819929Y-103143814D01*
X168703748Y-103014782D01*
X168563279Y-102912725D01*
X168404654Y-102842100D01*
X168234816Y-102806000D01*
X168061184Y-102806000D01*
X167891345Y-102842100D01*
X167732720Y-102912725D01*
X167592251Y-103014782D01*
X167476070Y-103143814D01*
X167476069Y-103143816D01*
X167389256Y-103294182D01*
X167389252Y-103294189D01*
X167335601Y-103459313D01*
X167335600Y-103459317D01*
X167335600Y-103459319D01*
X167317450Y-103632000D01*
X166946550Y-103632000D01*
X166928400Y-103459319D01*
X166924789Y-103448208D01*
X166874747Y-103294189D01*
X166874743Y-103294182D01*
X166787930Y-103143816D01*
X166787929Y-103143814D01*
X166671748Y-103014782D01*
X166531279Y-102912725D01*
X166372654Y-102842100D01*
X166202816Y-102806000D01*
X166029184Y-102806000D01*
X165859345Y-102842100D01*
X165700720Y-102912725D01*
X165560251Y-103014782D01*
X165444070Y-103143814D01*
X165444069Y-103143816D01*
X165357256Y-103294182D01*
X165357252Y-103294189D01*
X165303601Y-103459313D01*
X165303600Y-103459317D01*
X165303600Y-103459319D01*
X165285450Y-103632000D01*
X164914550Y-103632000D01*
X164896400Y-103459319D01*
X164892789Y-103448208D01*
X164842747Y-103294189D01*
X164842743Y-103294182D01*
X164755930Y-103143816D01*
X164755929Y-103143814D01*
X164639748Y-103014782D01*
X164499279Y-102912725D01*
X164340654Y-102842100D01*
X164170816Y-102806000D01*
X163997184Y-102806000D01*
X163827345Y-102842100D01*
X163668720Y-102912725D01*
X163528251Y-103014782D01*
X163412070Y-103143814D01*
X163412069Y-103143816D01*
X163325256Y-103294182D01*
X163325252Y-103294189D01*
X163271601Y-103459313D01*
X163271600Y-103459317D01*
X163271600Y-103459319D01*
X163253450Y-103632000D01*
X162882550Y-103632000D01*
X162864400Y-103459319D01*
X162860789Y-103448208D01*
X162810747Y-103294189D01*
X162810743Y-103294182D01*
X162723930Y-103143816D01*
X162723929Y-103143814D01*
X162607748Y-103014782D01*
X162467279Y-102912725D01*
X162308654Y-102842100D01*
X162138816Y-102806000D01*
X161965184Y-102806000D01*
X161795345Y-102842100D01*
X161636720Y-102912725D01*
X161496251Y-103014782D01*
X161380070Y-103143814D01*
X161380069Y-103143816D01*
X161293256Y-103294182D01*
X161293252Y-103294189D01*
X161239601Y-103459313D01*
X161239600Y-103459317D01*
X161239600Y-103459319D01*
X161221450Y-103632000D01*
X160342550Y-103632000D01*
X160324400Y-103459319D01*
X160320789Y-103448208D01*
X160270747Y-103294189D01*
X160270743Y-103294182D01*
X160183930Y-103143816D01*
X160183929Y-103143814D01*
X160067748Y-103014782D01*
X159927279Y-102912725D01*
X159768654Y-102842100D01*
X159598816Y-102806000D01*
X159425184Y-102806000D01*
X159255345Y-102842100D01*
X159096720Y-102912725D01*
X158956251Y-103014782D01*
X158840070Y-103143814D01*
X158840069Y-103143816D01*
X158753256Y-103294182D01*
X158753252Y-103294189D01*
X158699601Y-103459313D01*
X158699600Y-103459317D01*
X158699600Y-103459319D01*
X158681450Y-103632000D01*
X157799318Y-103632000D01*
X157895275Y-103589277D01*
X158035746Y-103487219D01*
X158151929Y-103358185D01*
X158238745Y-103207815D01*
X158240332Y-103202933D01*
X158288938Y-103053335D01*
X158292400Y-103042681D01*
X158310550Y-102870000D01*
X158292400Y-102697319D01*
X158266978Y-102619078D01*
X158238747Y-102532189D01*
X158238743Y-102532182D01*
X158207380Y-102477860D01*
X158205059Y-102473840D01*
X158151930Y-102381816D01*
X158151929Y-102381814D01*
X158035748Y-102252782D01*
X157895279Y-102150725D01*
X157824336Y-102119139D01*
X157736654Y-102080100D01*
X157566816Y-102044000D01*
X157393184Y-102044000D01*
X157223345Y-102080100D01*
X157064720Y-102150725D01*
X156924251Y-102252782D01*
X156808070Y-102381814D01*
X156808069Y-102381816D01*
X156721256Y-102532182D01*
X156721252Y-102532189D01*
X156667601Y-102697313D01*
X156667600Y-102697317D01*
X156667600Y-102697319D01*
X156649450Y-102870000D01*
X155770550Y-102870000D01*
X155752400Y-102697319D01*
X155726978Y-102619078D01*
X155698747Y-102532189D01*
X155698743Y-102532182D01*
X155667380Y-102477860D01*
X155665059Y-102473840D01*
X155611930Y-102381816D01*
X155611929Y-102381814D01*
X155495748Y-102252782D01*
X155355279Y-102150725D01*
X155284336Y-102119139D01*
X155196654Y-102080100D01*
X155026816Y-102044000D01*
X154853184Y-102044000D01*
X154683345Y-102080100D01*
X154524720Y-102150725D01*
X154384251Y-102252782D01*
X154268070Y-102381814D01*
X154268069Y-102381816D01*
X154181256Y-102532182D01*
X154181252Y-102532189D01*
X154127601Y-102697313D01*
X154127600Y-102697317D01*
X154127600Y-102697319D01*
X154109450Y-102870000D01*
X152400000Y-102870000D01*
X152400000Y-100330000D01*
X154109450Y-100330000D01*
X154123358Y-100462325D01*
X154127601Y-100502686D01*
X154181252Y-100667810D01*
X154181256Y-100667817D01*
X154268069Y-100818183D01*
X154268070Y-100818185D01*
X154384251Y-100947217D01*
X154524720Y-101049274D01*
X154524722Y-101049275D01*
X154524725Y-101049277D01*
X154683346Y-101119900D01*
X154853184Y-101156000D01*
X155026816Y-101156000D01*
X155196654Y-101119900D01*
X155355275Y-101049277D01*
X155495746Y-100947219D01*
X155611929Y-100818185D01*
X155698745Y-100667815D01*
X155721725Y-100597091D01*
X155752398Y-100502686D01*
X155752400Y-100502681D01*
X155770550Y-100330000D01*
X156649450Y-100330000D01*
X156663358Y-100462325D01*
X156667601Y-100502686D01*
X156721252Y-100667810D01*
X156721256Y-100667817D01*
X156808069Y-100818183D01*
X156808070Y-100818185D01*
X156924251Y-100947217D01*
X157064720Y-101049274D01*
X157064722Y-101049275D01*
X157064725Y-101049277D01*
X157223346Y-101119900D01*
X157393184Y-101156000D01*
X157566816Y-101156000D01*
X157736654Y-101119900D01*
X157895275Y-101049277D01*
X158035746Y-100947219D01*
X158151929Y-100818185D01*
X158238745Y-100667815D01*
X158261725Y-100597091D01*
X158292398Y-100502686D01*
X158292400Y-100502681D01*
X158310550Y-100330000D01*
X158292400Y-100157319D01*
X158288789Y-100146208D01*
X158238747Y-99992189D01*
X158238743Y-99992182D01*
X158151930Y-99841816D01*
X158151929Y-99841814D01*
X158035748Y-99712782D01*
X157895279Y-99610725D01*
X157752881Y-99547325D01*
X157736654Y-99540100D01*
X157566816Y-99504000D01*
X157393184Y-99504000D01*
X157223345Y-99540100D01*
X157064720Y-99610725D01*
X156924251Y-99712782D01*
X156808070Y-99841814D01*
X156808069Y-99841816D01*
X156721256Y-99992182D01*
X156721252Y-99992189D01*
X156667601Y-100157313D01*
X156667600Y-100157317D01*
X156667600Y-100157319D01*
X156649450Y-100330000D01*
X155770550Y-100330000D01*
X155752400Y-100157319D01*
X155748789Y-100146208D01*
X155698747Y-99992189D01*
X155698743Y-99992182D01*
X155611930Y-99841816D01*
X155611929Y-99841814D01*
X155495748Y-99712782D01*
X155355279Y-99610725D01*
X155212881Y-99547325D01*
X155196654Y-99540100D01*
X155026816Y-99504000D01*
X154853184Y-99504000D01*
X154683345Y-99540100D01*
X154524720Y-99610725D01*
X154384251Y-99712782D01*
X154268070Y-99841814D01*
X154268069Y-99841816D01*
X154181256Y-99992182D01*
X154181252Y-99992189D01*
X154127601Y-100157313D01*
X154127600Y-100157317D01*
X154127600Y-100157319D01*
X154109450Y-100330000D01*
X152400000Y-100330000D01*
X152400000Y-97790000D01*
X154109450Y-97790000D01*
X154121677Y-97906332D01*
X154127601Y-97962686D01*
X154181252Y-98127810D01*
X154181256Y-98127817D01*
X154268069Y-98278183D01*
X154268070Y-98278185D01*
X154384251Y-98407217D01*
X154524720Y-98509274D01*
X154524722Y-98509275D01*
X154524725Y-98509277D01*
X154683346Y-98579900D01*
X154853184Y-98616000D01*
X155026816Y-98616000D01*
X155196654Y-98579900D01*
X155355275Y-98509277D01*
X155495746Y-98407219D01*
X155611929Y-98278185D01*
X155698745Y-98127815D01*
X155720864Y-98059741D01*
X155726554Y-98042226D01*
X155752400Y-97962681D01*
X155770550Y-97790000D01*
X156649450Y-97790000D01*
X156661677Y-97906332D01*
X156667601Y-97962686D01*
X156721252Y-98127810D01*
X156721256Y-98127817D01*
X156808069Y-98278183D01*
X156808070Y-98278185D01*
X156924251Y-98407217D01*
X157064720Y-98509274D01*
X157064722Y-98509275D01*
X157064725Y-98509277D01*
X157223346Y-98579900D01*
X157393184Y-98616000D01*
X157566816Y-98616000D01*
X157736654Y-98579900D01*
X157895275Y-98509277D01*
X158035746Y-98407219D01*
X158151929Y-98278185D01*
X158238745Y-98127815D01*
X158260864Y-98059741D01*
X158266554Y-98042226D01*
X158292400Y-97962681D01*
X158310550Y-97790000D01*
X158292400Y-97617319D01*
X158288789Y-97606208D01*
X158238747Y-97452189D01*
X158238743Y-97452182D01*
X158228635Y-97434675D01*
X158151930Y-97301816D01*
X158151929Y-97301814D01*
X158035748Y-97172782D01*
X157895279Y-97070725D01*
X157736654Y-97000100D01*
X157566816Y-96964000D01*
X157393184Y-96964000D01*
X157223345Y-97000100D01*
X157064720Y-97070725D01*
X156924251Y-97172782D01*
X156808070Y-97301814D01*
X156808069Y-97301816D01*
X156721256Y-97452182D01*
X156721252Y-97452189D01*
X156667601Y-97617313D01*
X156667600Y-97617317D01*
X156667600Y-97617319D01*
X156649450Y-97790000D01*
X155770550Y-97790000D01*
X155752400Y-97617319D01*
X155748789Y-97606208D01*
X155698747Y-97452189D01*
X155698743Y-97452182D01*
X155688635Y-97434675D01*
X155611930Y-97301816D01*
X155611929Y-97301814D01*
X155495748Y-97172782D01*
X155355279Y-97070725D01*
X155196654Y-97000100D01*
X155026816Y-96964000D01*
X154853184Y-96964000D01*
X154683345Y-97000100D01*
X154524720Y-97070725D01*
X154384251Y-97172782D01*
X154268070Y-97301814D01*
X154268069Y-97301816D01*
X154181256Y-97452182D01*
X154181252Y-97452189D01*
X154127601Y-97617313D01*
X154127600Y-97617317D01*
X154127600Y-97617319D01*
X154109450Y-97790000D01*
X152400000Y-97790000D01*
X152400000Y-95250000D01*
X154109450Y-95250000D01*
X154117416Y-95325794D01*
X154127601Y-95422686D01*
X154181252Y-95587810D01*
X154181256Y-95587817D01*
X154268069Y-95738183D01*
X154268070Y-95738185D01*
X154384251Y-95867217D01*
X154524720Y-95969274D01*
X154524722Y-95969275D01*
X154524725Y-95969277D01*
X154683346Y-96039900D01*
X154853184Y-96076000D01*
X155026816Y-96076000D01*
X155196654Y-96039900D01*
X155355275Y-95969277D01*
X155495746Y-95867219D01*
X155611929Y-95738185D01*
X155698745Y-95587815D01*
X155707525Y-95560795D01*
X155752037Y-95423797D01*
X155752400Y-95422681D01*
X155770550Y-95250000D01*
X155752400Y-95077319D01*
X155748789Y-95066208D01*
X155698747Y-94912189D01*
X155698743Y-94912182D01*
X155611930Y-94761816D01*
X155611929Y-94761814D01*
X155495748Y-94632782D01*
X155355279Y-94530725D01*
X155196654Y-94460100D01*
X155026816Y-94424000D01*
X154853184Y-94424000D01*
X154683345Y-94460100D01*
X154524720Y-94530725D01*
X154384251Y-94632782D01*
X154268070Y-94761814D01*
X154268069Y-94761816D01*
X154181256Y-94912182D01*
X154181252Y-94912189D01*
X154127601Y-95077313D01*
X154127600Y-95077317D01*
X154127600Y-95077319D01*
X154109450Y-95250000D01*
X152400000Y-95250000D01*
X152400000Y-93919000D01*
X194749450Y-93919000D01*
X194767601Y-94091686D01*
X194821252Y-94256810D01*
X194821256Y-94256817D01*
X194908069Y-94407183D01*
X194908070Y-94407185D01*
X195024251Y-94536217D01*
X195164720Y-94638274D01*
X195164722Y-94638275D01*
X195164725Y-94638277D01*
X195323346Y-94708900D01*
X195493184Y-94745000D01*
X195666816Y-94745000D01*
X195836654Y-94708900D01*
X195995275Y-94638277D01*
X196135746Y-94536219D01*
X196251929Y-94407185D01*
X196338745Y-94256815D01*
X196392400Y-94091681D01*
X196410550Y-93919000D01*
X196392400Y-93746319D01*
X196388789Y-93735208D01*
X196338747Y-93581189D01*
X196338743Y-93581182D01*
X196251930Y-93430816D01*
X196251929Y-93430814D01*
X196135748Y-93301782D01*
X195995279Y-93199725D01*
X195991820Y-93198185D01*
X195836654Y-93129100D01*
X195666816Y-93093000D01*
X195493184Y-93093000D01*
X195323345Y-93129100D01*
X195164720Y-93199725D01*
X195024251Y-93301782D01*
X194908070Y-93430814D01*
X194908069Y-93430816D01*
X194821256Y-93581182D01*
X194821252Y-93581189D01*
X194767601Y-93746313D01*
X194749450Y-93919000D01*
X152400000Y-93919000D01*
X152400000Y-92710000D01*
X154109450Y-92710000D01*
X154116424Y-92776356D01*
X154127601Y-92882686D01*
X154181252Y-93047810D01*
X154181256Y-93047817D01*
X154268069Y-93198183D01*
X154268070Y-93198185D01*
X154384251Y-93327217D01*
X154524720Y-93429274D01*
X154524722Y-93429275D01*
X154524725Y-93429277D01*
X154683346Y-93499900D01*
X154853184Y-93536000D01*
X155026816Y-93536000D01*
X155196654Y-93499900D01*
X155355275Y-93429277D01*
X155495746Y-93327219D01*
X155611929Y-93198185D01*
X155698745Y-93047815D01*
X155711164Y-93009595D01*
X155742786Y-92912270D01*
X155752400Y-92882681D01*
X155770550Y-92710000D01*
X155752400Y-92537319D01*
X155732693Y-92476666D01*
X155698747Y-92372189D01*
X155698743Y-92372182D01*
X155686142Y-92350357D01*
X155623999Y-92242721D01*
X155611930Y-92221816D01*
X155611929Y-92221814D01*
X155495748Y-92092782D01*
X155355279Y-91990725D01*
X155331190Y-91980000D01*
X155196654Y-91920100D01*
X155026816Y-91884000D01*
X154853184Y-91884000D01*
X154683345Y-91920100D01*
X154524720Y-91990725D01*
X154384251Y-92092782D01*
X154268070Y-92221814D01*
X154268069Y-92221816D01*
X154181256Y-92372182D01*
X154181252Y-92372189D01*
X154127601Y-92537313D01*
X154127600Y-92537317D01*
X154127600Y-92537319D01*
X154109450Y-92710000D01*
X152400000Y-92710000D01*
X152400000Y-90170000D01*
X154109450Y-90170000D01*
X154121143Y-90281253D01*
X154127601Y-90342686D01*
X154181252Y-90507810D01*
X154181256Y-90507817D01*
X154268069Y-90658183D01*
X154268070Y-90658185D01*
X154384251Y-90787217D01*
X154524720Y-90889274D01*
X154524722Y-90889275D01*
X154524725Y-90889277D01*
X154683346Y-90959900D01*
X154853184Y-90996000D01*
X155026816Y-90996000D01*
X155196654Y-90959900D01*
X155355275Y-90889277D01*
X155495746Y-90787219D01*
X155547157Y-90730122D01*
X155611929Y-90658185D01*
X155611930Y-90658183D01*
X155627504Y-90631208D01*
X155698745Y-90507815D01*
X155703168Y-90494204D01*
X155742786Y-90372270D01*
X155752400Y-90342681D01*
X155770550Y-90170000D01*
X155752400Y-89997319D01*
X155705044Y-89851570D01*
X155698747Y-89832189D01*
X155698743Y-89832182D01*
X155682182Y-89803498D01*
X155637439Y-89726000D01*
X155611930Y-89681816D01*
X155611929Y-89681814D01*
X155495748Y-89552782D01*
X155355279Y-89450725D01*
X155233760Y-89396621D01*
X155196654Y-89380100D01*
X155026816Y-89344000D01*
X154853184Y-89344000D01*
X154683345Y-89380100D01*
X154524720Y-89450725D01*
X154384251Y-89552782D01*
X154268070Y-89681814D01*
X154268069Y-89681816D01*
X154181256Y-89832182D01*
X154181252Y-89832189D01*
X154127601Y-89997313D01*
X154127600Y-89997317D01*
X154127600Y-89997319D01*
X154109450Y-90170000D01*
X152400000Y-90170000D01*
X152400000Y-88752329D01*
X156697500Y-88752329D01*
X156697501Y-90690670D01*
X156700311Y-90743592D01*
X156742145Y-90959899D01*
X156745031Y-90974817D01*
X156828182Y-91195152D01*
X156828184Y-91195157D01*
X156947373Y-91398266D01*
X157099180Y-91578319D01*
X157279233Y-91730126D01*
X157482342Y-91849315D01*
X157482344Y-91849316D01*
X157482348Y-91849318D01*
X157702686Y-91932470D01*
X157933908Y-91977189D01*
X157986829Y-91980000D01*
X157986833Y-91979999D01*
X157986834Y-91980000D01*
X158794471Y-91979999D01*
X159925170Y-91979999D01*
X159978092Y-91977189D01*
X160209314Y-91932470D01*
X160429652Y-91849318D01*
X160632768Y-91730125D01*
X160812819Y-91578319D01*
X160881642Y-91496691D01*
X168757185Y-91496691D01*
X168775567Y-91632387D01*
X168787594Y-91721178D01*
X168823106Y-91830470D01*
X168856248Y-91932470D01*
X168857599Y-91936626D01*
X168964940Y-92136100D01*
X168964944Y-92136107D01*
X169106187Y-92313219D01*
X169276780Y-92462262D01*
X169443053Y-92561606D01*
X169471250Y-92578453D01*
X169683339Y-92658051D01*
X169683341Y-92658051D01*
X169683343Y-92658052D01*
X169906230Y-92698500D01*
X169906233Y-92698500D01*
X170876016Y-92698500D01*
X170876022Y-92698500D01*
X171034626Y-92684225D01*
X171045123Y-92683281D01*
X171045123Y-92683280D01*
X171221562Y-92634586D01*
X171263490Y-92623015D01*
X171263490Y-92623014D01*
X171263493Y-92623014D01*
X171467593Y-92524725D01*
X171650863Y-92391571D01*
X171807412Y-92227834D01*
X171932209Y-92038774D01*
X172021243Y-91830470D01*
X172071651Y-91609615D01*
X172081815Y-91383309D01*
X172051406Y-91158825D01*
X171981403Y-90943379D01*
X171954260Y-90892939D01*
X171874059Y-90743899D01*
X171874055Y-90743892D01*
X171732812Y-90566780D01*
X171562219Y-90417737D01*
X171367756Y-90301550D01*
X171367752Y-90301548D01*
X171367750Y-90301547D01*
X171349702Y-90294773D01*
X171330115Y-90287422D01*
X171273367Y-90244759D01*
X171248693Y-90178187D01*
X171263927Y-90108845D01*
X171314232Y-90058746D01*
X171319668Y-90055961D01*
X171467593Y-89984725D01*
X171650863Y-89851571D01*
X171807412Y-89687834D01*
X171932209Y-89498774D01*
X172021243Y-89290470D01*
X172071651Y-89069615D01*
X172079269Y-88900000D01*
X184589450Y-88900000D01*
X184598699Y-88988000D01*
X184607601Y-89072686D01*
X184661252Y-89237810D01*
X184661256Y-89237817D01*
X184748069Y-89388183D01*
X184748070Y-89388185D01*
X184864251Y-89517217D01*
X185004720Y-89619274D01*
X185004722Y-89619275D01*
X185004725Y-89619277D01*
X185163346Y-89689900D01*
X185333184Y-89726000D01*
X185506816Y-89726000D01*
X185676654Y-89689900D01*
X185835275Y-89619277D01*
X185975746Y-89517219D01*
X185992351Y-89498778D01*
X186091929Y-89388185D01*
X186091930Y-89388183D01*
X186116621Y-89345417D01*
X186178745Y-89237815D01*
X186194611Y-89188986D01*
X186225998Y-89092384D01*
X186232400Y-89072681D01*
X186250550Y-88900000D01*
X186232400Y-88727319D01*
X186222786Y-88697729D01*
X186178747Y-88562189D01*
X186178743Y-88562182D01*
X186091930Y-88411816D01*
X186091929Y-88411814D01*
X185975748Y-88282782D01*
X185835279Y-88180725D01*
X185676654Y-88110100D01*
X185506816Y-88074000D01*
X185333184Y-88074000D01*
X185163345Y-88110100D01*
X185004720Y-88180725D01*
X184864251Y-88282782D01*
X184748070Y-88411814D01*
X184748069Y-88411816D01*
X184661256Y-88562182D01*
X184661252Y-88562189D01*
X184607601Y-88727313D01*
X184607600Y-88727317D01*
X184607600Y-88727319D01*
X184589450Y-88900000D01*
X172079269Y-88900000D01*
X172081815Y-88843309D01*
X172051406Y-88618825D01*
X172044757Y-88598363D01*
X172015894Y-88509531D01*
X171981403Y-88403379D01*
X171937471Y-88321739D01*
X171874059Y-88203899D01*
X171874055Y-88203892D01*
X171747129Y-88044733D01*
X171732814Y-88026782D01*
X171680892Y-87981419D01*
X171562219Y-87877737D01*
X171520253Y-87852664D01*
X171472034Y-87800554D01*
X171459643Y-87730648D01*
X171487013Y-87665139D01*
X171545455Y-87624827D01*
X171584879Y-87618500D01*
X171618132Y-87618500D01*
X171618138Y-87618500D01*
X171618145Y-87618499D01*
X171618149Y-87618499D01*
X171678696Y-87611990D01*
X171678699Y-87611989D01*
X171678701Y-87611989D01*
X171815704Y-87560889D01*
X171865136Y-87523885D01*
X171893035Y-87503000D01*
X188589675Y-87503000D01*
X188608912Y-87673744D01*
X188665664Y-87835930D01*
X188665665Y-87835933D01*
X188757079Y-87981417D01*
X188757080Y-87981419D01*
X188878580Y-88102919D01*
X188878582Y-88102920D01*
X189024066Y-88194334D01*
X189024067Y-88194334D01*
X189024070Y-88194336D01*
X189186254Y-88251087D01*
X189186253Y-88251087D01*
X189203543Y-88253034D01*
X189357000Y-88270325D01*
X189527746Y-88251087D01*
X189689930Y-88194336D01*
X189835419Y-88102919D01*
X189956919Y-87981419D01*
X190048336Y-87835930D01*
X190105087Y-87673746D01*
X190124325Y-87503000D01*
X190105087Y-87332254D01*
X190048336Y-87170070D01*
X190048334Y-87170067D01*
X190048334Y-87170066D01*
X189956920Y-87024582D01*
X189956919Y-87024580D01*
X189835419Y-86903080D01*
X189835417Y-86903079D01*
X189689933Y-86811665D01*
X189689930Y-86811664D01*
X189527746Y-86754913D01*
X189527744Y-86754912D01*
X189527746Y-86754912D01*
X189357000Y-86735675D01*
X189186255Y-86754912D01*
X189024069Y-86811664D01*
X189024066Y-86811665D01*
X188878582Y-86903079D01*
X188878580Y-86903080D01*
X188757080Y-87024580D01*
X188757079Y-87024582D01*
X188665665Y-87170066D01*
X188665664Y-87170069D01*
X188608912Y-87332255D01*
X188589675Y-87503000D01*
X171893035Y-87503000D01*
X171932761Y-87473261D01*
X172020387Y-87356207D01*
X172020387Y-87356206D01*
X172020389Y-87356204D01*
X172071489Y-87219201D01*
X172072030Y-87214176D01*
X172077999Y-87158649D01*
X172078000Y-87158632D01*
X172078000Y-85561367D01*
X172077999Y-85561350D01*
X172071490Y-85500803D01*
X172071488Y-85500795D01*
X172042424Y-85422875D01*
X172020389Y-85363796D01*
X172020388Y-85363794D01*
X172020387Y-85363792D01*
X171932761Y-85246738D01*
X171815707Y-85159112D01*
X171815702Y-85159110D01*
X171678704Y-85108011D01*
X171678696Y-85108009D01*
X171618149Y-85101500D01*
X171618138Y-85101500D01*
X169220862Y-85101500D01*
X169220850Y-85101500D01*
X169160303Y-85108009D01*
X169160295Y-85108011D01*
X169023297Y-85159110D01*
X169023292Y-85159112D01*
X168906238Y-85246738D01*
X168818612Y-85363792D01*
X168818610Y-85363797D01*
X168767511Y-85500795D01*
X168767509Y-85500803D01*
X168761000Y-85561350D01*
X168761000Y-87158649D01*
X168767509Y-87219196D01*
X168767511Y-87219204D01*
X168818610Y-87356202D01*
X168818612Y-87356207D01*
X168906238Y-87473261D01*
X169023292Y-87560887D01*
X169023294Y-87560888D01*
X169023296Y-87560889D01*
X169055292Y-87572823D01*
X169160295Y-87611988D01*
X169160303Y-87611990D01*
X169220850Y-87618499D01*
X169220855Y-87618499D01*
X169220862Y-87618500D01*
X169220868Y-87618500D01*
X169254457Y-87618500D01*
X169322578Y-87638502D01*
X169369071Y-87692158D01*
X169379175Y-87762432D01*
X169349681Y-87827012D01*
X169328518Y-87846436D01*
X169188136Y-87948429D01*
X169188135Y-87948430D01*
X169031587Y-88112166D01*
X168906793Y-88301221D01*
X168906789Y-88301229D01*
X168817757Y-88509529D01*
X168817756Y-88509531D01*
X168767349Y-88730382D01*
X168767349Y-88730385D01*
X168757969Y-88939246D01*
X168757185Y-88956691D01*
X168775567Y-89092387D01*
X168787594Y-89181178D01*
X168823106Y-89290470D01*
X168854855Y-89388183D01*
X168857599Y-89396626D01*
X168964940Y-89596100D01*
X168964944Y-89596107D01*
X169106187Y-89773219D01*
X169276780Y-89922262D01*
X169471243Y-90038449D01*
X169471250Y-90038453D01*
X169508883Y-90052576D01*
X169565631Y-90095239D01*
X169590306Y-90161810D01*
X169575073Y-90231153D01*
X169524768Y-90281253D01*
X169519278Y-90284064D01*
X169371413Y-90355271D01*
X169371406Y-90355275D01*
X169188136Y-90488429D01*
X169188135Y-90488430D01*
X169031587Y-90652166D01*
X168906793Y-90841221D01*
X168906789Y-90841229D01*
X168817757Y-91049529D01*
X168817756Y-91049531D01*
X168767349Y-91270382D01*
X168767349Y-91270385D01*
X168760351Y-91426209D01*
X168757185Y-91496691D01*
X160881642Y-91496691D01*
X160964625Y-91398268D01*
X161083818Y-91195152D01*
X161166970Y-90974814D01*
X161211689Y-90743592D01*
X161214500Y-90690671D01*
X161214499Y-88752330D01*
X161211689Y-88699408D01*
X161166970Y-88468186D01*
X161083818Y-88247848D01*
X161083816Y-88247844D01*
X161083815Y-88247842D01*
X160964626Y-88044733D01*
X160812819Y-87864680D01*
X160632766Y-87712873D01*
X160429657Y-87593684D01*
X160429652Y-87593682D01*
X160297092Y-87543656D01*
X160244701Y-87523884D01*
X160188031Y-87481119D01*
X160163477Y-87414503D01*
X160178836Y-87345188D01*
X160229232Y-87295180D01*
X160289190Y-87280000D01*
X163754632Y-87280000D01*
X163754638Y-87280000D01*
X163754645Y-87279999D01*
X163754649Y-87279999D01*
X163815196Y-87273490D01*
X163815199Y-87273489D01*
X163815201Y-87273489D01*
X163825816Y-87269530D01*
X163862849Y-87255717D01*
X163952204Y-87222389D01*
X163956470Y-87219196D01*
X164069261Y-87134761D01*
X164156887Y-87017707D01*
X164156887Y-87017706D01*
X164156889Y-87017704D01*
X164207989Y-86880701D01*
X164212447Y-86839240D01*
X164214499Y-86820149D01*
X164214500Y-86820132D01*
X164214500Y-84963000D01*
X190621675Y-84963000D01*
X190640912Y-85133744D01*
X190697664Y-85295930D01*
X190697665Y-85295933D01*
X190789079Y-85441417D01*
X190789080Y-85441419D01*
X190910580Y-85562919D01*
X190910582Y-85562920D01*
X191056066Y-85654334D01*
X191056067Y-85654334D01*
X191056070Y-85654336D01*
X191218254Y-85711087D01*
X191218253Y-85711087D01*
X191235543Y-85713034D01*
X191389000Y-85730325D01*
X191559746Y-85711087D01*
X191721930Y-85654336D01*
X191867419Y-85562919D01*
X191988919Y-85441419D01*
X192080336Y-85295930D01*
X192137087Y-85133746D01*
X192156325Y-84963000D01*
X192137087Y-84792254D01*
X192080336Y-84630070D01*
X192080334Y-84630067D01*
X192080334Y-84630066D01*
X191988920Y-84484582D01*
X191988919Y-84484580D01*
X191867419Y-84363080D01*
X191867417Y-84363079D01*
X191721933Y-84271665D01*
X191721930Y-84271664D01*
X191559746Y-84214913D01*
X191559744Y-84214912D01*
X191559746Y-84214912D01*
X191389000Y-84195675D01*
X191218255Y-84214912D01*
X191056069Y-84271664D01*
X191056066Y-84271665D01*
X190910582Y-84363079D01*
X190910580Y-84363080D01*
X190789080Y-84484580D01*
X190789079Y-84484582D01*
X190697665Y-84630066D01*
X190697664Y-84630069D01*
X190640912Y-84792255D01*
X190621675Y-84963000D01*
X164214500Y-84963000D01*
X164214500Y-83222867D01*
X164214499Y-83222850D01*
X164207990Y-83162303D01*
X164207988Y-83162295D01*
X164156889Y-83025297D01*
X164156887Y-83025292D01*
X164069261Y-82908238D01*
X163952207Y-82820612D01*
X163952202Y-82820610D01*
X163815204Y-82769511D01*
X163815196Y-82769509D01*
X163754649Y-82763000D01*
X163754638Y-82763000D01*
X160157362Y-82763000D01*
X160157350Y-82763000D01*
X160096803Y-82769509D01*
X160096795Y-82769511D01*
X159959797Y-82820610D01*
X159959792Y-82820612D01*
X159842738Y-82908238D01*
X159755112Y-83025292D01*
X159755110Y-83025297D01*
X159704011Y-83162295D01*
X159704009Y-83162303D01*
X159697500Y-83222850D01*
X159697500Y-86820149D01*
X159704009Y-86880696D01*
X159704011Y-86880704D01*
X159755110Y-87017702D01*
X159755112Y-87017707D01*
X159842738Y-87134761D01*
X159955537Y-87219201D01*
X159959796Y-87222389D01*
X159959798Y-87222389D01*
X159967162Y-87226411D01*
X160017365Y-87276612D01*
X160032458Y-87345986D01*
X160007649Y-87412507D01*
X159950814Y-87455055D01*
X159906779Y-87463000D01*
X157987567Y-87463000D01*
X157986830Y-87463001D01*
X157933908Y-87465811D01*
X157933907Y-87465811D01*
X157840874Y-87483804D01*
X157702686Y-87510530D01*
X157702684Y-87510530D01*
X157702682Y-87510531D01*
X157482347Y-87593682D01*
X157482342Y-87593684D01*
X157279233Y-87712873D01*
X157099180Y-87864680D01*
X156947373Y-88044733D01*
X156828184Y-88247842D01*
X156828182Y-88247847D01*
X156745031Y-88468181D01*
X156745030Y-88468185D01*
X156745030Y-88468186D01*
X156700311Y-88699408D01*
X156697500Y-88752329D01*
X152400000Y-88752329D01*
X152400000Y-86086136D01*
X153947500Y-86086136D01*
X153957970Y-86219169D01*
X154006418Y-86411442D01*
X154013320Y-86438832D01*
X154013323Y-86438841D01*
X154107004Y-86645088D01*
X154107009Y-86645097D01*
X154236011Y-86831299D01*
X154236015Y-86831304D01*
X154396195Y-86991484D01*
X154396200Y-86991488D01*
X154582402Y-87120490D01*
X154582408Y-87120493D01*
X154582409Y-87120494D01*
X154788664Y-87214179D01*
X155008331Y-87269530D01*
X155125012Y-87278713D01*
X155141361Y-87280000D01*
X155141364Y-87280000D01*
X156770639Y-87280000D01*
X156786344Y-87278763D01*
X156903669Y-87269530D01*
X157123336Y-87214179D01*
X157329591Y-87120494D01*
X157368451Y-87093572D01*
X157515799Y-86991488D01*
X157515798Y-86991488D01*
X157515802Y-86991486D01*
X157675986Y-86831302D01*
X157745197Y-86731402D01*
X157804990Y-86645097D01*
X157804990Y-86645095D01*
X157804994Y-86645091D01*
X157898679Y-86438836D01*
X157954030Y-86219169D01*
X157964500Y-86086136D01*
X157964500Y-83956864D01*
X157954030Y-83823831D01*
X157898679Y-83604164D01*
X157804994Y-83397909D01*
X157804993Y-83397908D01*
X157804990Y-83397902D01*
X157675988Y-83211700D01*
X157675984Y-83211695D01*
X157515804Y-83051515D01*
X157515799Y-83051511D01*
X157329597Y-82922509D01*
X157329588Y-82922504D01*
X157123341Y-82828823D01*
X157123338Y-82828822D01*
X157123336Y-82828821D01*
X156903669Y-82773470D01*
X156802049Y-82765472D01*
X156770639Y-82763000D01*
X156770636Y-82763000D01*
X155141364Y-82763000D01*
X155141361Y-82763000D01*
X155107267Y-82765683D01*
X155008331Y-82773470D01*
X155008327Y-82773470D01*
X155008327Y-82773471D01*
X154788667Y-82828820D01*
X154788658Y-82828823D01*
X154582411Y-82922504D01*
X154582402Y-82922509D01*
X154396200Y-83051511D01*
X154396195Y-83051515D01*
X154236015Y-83211695D01*
X154236011Y-83211700D01*
X154107009Y-83397902D01*
X154107004Y-83397911D01*
X154013323Y-83604158D01*
X154013320Y-83604167D01*
X153971898Y-83768555D01*
X153957970Y-83823831D01*
X153947500Y-83956864D01*
X153947500Y-86086136D01*
X152400000Y-86086136D01*
X152400000Y-78994000D01*
X182112600Y-78994000D01*
X182131385Y-79172729D01*
X182132146Y-79179961D01*
X182189922Y-79357779D01*
X182189928Y-79357791D01*
X182283410Y-79519709D01*
X182283414Y-79519715D01*
X182408527Y-79658667D01*
X182559795Y-79768570D01*
X182559797Y-79768571D01*
X182559800Y-79768573D01*
X182730615Y-79844625D01*
X182874634Y-79875236D01*
X182913509Y-79883500D01*
X182913510Y-79883500D01*
X183100491Y-79883500D01*
X183132551Y-79876685D01*
X183283385Y-79844625D01*
X183454200Y-79768573D01*
X183605470Y-79658669D01*
X183730585Y-79519715D01*
X183796758Y-79405098D01*
X183848141Y-79356105D01*
X183879680Y-79344851D01*
X183918385Y-79336625D01*
X184089200Y-79260573D01*
X184240470Y-79150669D01*
X184273755Y-79113703D01*
X184365585Y-79011715D01*
X184365589Y-79011709D01*
X184433028Y-78894900D01*
X184459075Y-78849785D01*
X184470336Y-78815129D01*
X184497513Y-78731485D01*
X184501273Y-78719911D01*
X184541346Y-78661307D01*
X184606742Y-78633669D01*
X184676699Y-78645776D01*
X184695163Y-78656909D01*
X184715874Y-78671956D01*
X184750723Y-78697276D01*
X184750724Y-78697276D01*
X184750725Y-78697277D01*
X184909346Y-78767900D01*
X185079184Y-78804000D01*
X185252816Y-78804000D01*
X185422654Y-78767900D01*
X185581275Y-78697277D01*
X185599940Y-78683715D01*
X185666805Y-78659858D01*
X185735956Y-78675937D01*
X185748048Y-78683707D01*
X185766725Y-78697277D01*
X185925346Y-78767900D01*
X186095184Y-78804000D01*
X186268816Y-78804000D01*
X186438654Y-78767900D01*
X186597275Y-78697277D01*
X186737746Y-78595219D01*
X186739578Y-78593185D01*
X186853929Y-78466185D01*
X186853930Y-78466183D01*
X186867420Y-78442817D01*
X186940745Y-78315815D01*
X186943522Y-78307270D01*
X186967572Y-78233248D01*
X186994400Y-78150681D01*
X187012550Y-77978000D01*
X186994400Y-77805319D01*
X186966624Y-77719833D01*
X186940747Y-77640189D01*
X186940743Y-77640182D01*
X186928381Y-77618771D01*
X186853930Y-77489816D01*
X186853929Y-77489814D01*
X186737748Y-77360782D01*
X186597279Y-77258725D01*
X186438654Y-77188100D01*
X186268816Y-77152000D01*
X186095184Y-77152000D01*
X185925345Y-77188100D01*
X185766723Y-77258723D01*
X185766722Y-77258724D01*
X185748061Y-77272283D01*
X185681193Y-77296142D01*
X185612041Y-77280061D01*
X185599939Y-77272283D01*
X185581277Y-77258724D01*
X185581276Y-77258723D01*
X185422654Y-77188100D01*
X185252816Y-77152000D01*
X185079184Y-77152000D01*
X184909345Y-77188100D01*
X184750720Y-77258725D01*
X184610251Y-77360782D01*
X184494070Y-77489814D01*
X184494069Y-77489816D01*
X184407256Y-77640182D01*
X184407253Y-77640187D01*
X184381375Y-77719833D01*
X184341301Y-77778438D01*
X184275904Y-77806075D01*
X184205947Y-77793968D01*
X184187481Y-77782832D01*
X184089204Y-77711429D01*
X184071031Y-77703338D01*
X183918385Y-77635375D01*
X183735491Y-77596500D01*
X183735490Y-77596500D01*
X183548510Y-77596500D01*
X183548509Y-77596500D01*
X183365614Y-77635375D01*
X183194795Y-77711429D01*
X183043527Y-77821332D01*
X182918414Y-77960284D01*
X182918413Y-77960286D01*
X182852241Y-78074901D01*
X182800859Y-78123894D01*
X182769320Y-78135147D01*
X182730620Y-78143373D01*
X182730615Y-78143374D01*
X182730615Y-78143375D01*
X182650477Y-78179055D01*
X182559795Y-78219429D01*
X182408527Y-78329332D01*
X182283414Y-78468284D01*
X182283410Y-78468290D01*
X182189928Y-78630208D01*
X182189922Y-78630220D01*
X182132146Y-78808038D01*
X182132145Y-78808042D01*
X182132145Y-78808044D01*
X182112600Y-78994000D01*
X152400000Y-78994000D01*
X152400000Y-74222893D01*
X152420002Y-74154772D01*
X152473658Y-74108279D01*
X152543932Y-74098175D01*
X152608512Y-74127669D01*
X152622931Y-74142393D01*
X152738197Y-74281203D01*
X152739981Y-74283351D01*
X153046648Y-74590018D01*
X153046653Y-74590022D01*
X153046655Y-74590024D01*
X153380323Y-74867098D01*
X153380326Y-74867100D01*
X153738139Y-75112207D01*
X154117021Y-75323243D01*
X154117025Y-75323244D01*
X154117031Y-75323248D01*
X154513786Y-75498433D01*
X154925013Y-75636262D01*
X155347202Y-75735560D01*
X155776753Y-75795480D01*
X156026529Y-75807027D01*
X156101629Y-75810500D01*
X156101634Y-75810500D01*
X156318371Y-75810500D01*
X156390152Y-75807181D01*
X156643247Y-75795480D01*
X157072798Y-75735560D01*
X157494987Y-75636262D01*
X157906214Y-75498433D01*
X158302969Y-75323248D01*
X158606154Y-75154375D01*
X158681860Y-75112207D01*
X158681860Y-75112206D01*
X158681867Y-75112203D01*
X159039677Y-74867098D01*
X159373345Y-74590024D01*
X159680024Y-74283345D01*
X159957098Y-73949677D01*
X160202203Y-73591867D01*
X160413248Y-73212969D01*
X160552321Y-72898000D01*
X182176450Y-72898000D01*
X182194338Y-73068189D01*
X182194601Y-73070686D01*
X182248252Y-73235810D01*
X182248256Y-73235817D01*
X182335069Y-73386183D01*
X182335070Y-73386185D01*
X182451251Y-73515217D01*
X182591720Y-73617274D01*
X182591722Y-73617275D01*
X182591725Y-73617277D01*
X182750346Y-73687900D01*
X182810174Y-73700616D01*
X182872647Y-73734343D01*
X182893097Y-73760863D01*
X182970069Y-73894183D01*
X182970070Y-73894185D01*
X183086251Y-74023217D01*
X183226720Y-74125274D01*
X183226722Y-74125275D01*
X183226725Y-74125277D01*
X183385346Y-74195900D01*
X183555184Y-74232000D01*
X183728816Y-74232000D01*
X183898654Y-74195900D01*
X184057275Y-74125277D01*
X184197746Y-74023219D01*
X184224630Y-73993362D01*
X184313929Y-73894185D01*
X184313930Y-73894183D01*
X184348794Y-73833797D01*
X184400745Y-73743815D01*
X184409543Y-73716739D01*
X184444693Y-73608555D01*
X184454400Y-73578681D01*
X184472550Y-73406000D01*
X184454400Y-73233319D01*
X184401558Y-73070686D01*
X184400747Y-73068189D01*
X184400743Y-73068182D01*
X184313930Y-72917816D01*
X184313929Y-72917814D01*
X184296088Y-72898000D01*
X192336450Y-72898000D01*
X192354338Y-73068189D01*
X192354601Y-73070686D01*
X192408252Y-73235810D01*
X192408256Y-73235817D01*
X192495069Y-73386183D01*
X192495070Y-73386185D01*
X192611251Y-73515217D01*
X192751720Y-73617274D01*
X192751722Y-73617275D01*
X192751725Y-73617277D01*
X192910346Y-73687900D01*
X192970174Y-73700616D01*
X193032647Y-73734343D01*
X193053097Y-73760863D01*
X193130069Y-73894183D01*
X193130070Y-73894185D01*
X193246251Y-74023217D01*
X193386720Y-74125274D01*
X193386722Y-74125275D01*
X193386725Y-74125277D01*
X193545346Y-74195900D01*
X193715184Y-74232000D01*
X193888816Y-74232000D01*
X194058654Y-74195900D01*
X194217275Y-74125277D01*
X194357746Y-74023219D01*
X194384630Y-73993362D01*
X194473929Y-73894185D01*
X194473930Y-73894183D01*
X194508794Y-73833797D01*
X194560745Y-73743815D01*
X194569543Y-73716739D01*
X194604693Y-73608555D01*
X194614400Y-73578681D01*
X194632550Y-73406000D01*
X194614400Y-73233319D01*
X194561558Y-73070686D01*
X194560747Y-73068189D01*
X194560743Y-73068182D01*
X194473930Y-72917816D01*
X194473929Y-72917814D01*
X194357748Y-72788782D01*
X194217279Y-72686725D01*
X194217275Y-72686723D01*
X194058654Y-72616100D01*
X194058652Y-72616099D01*
X194058651Y-72616099D01*
X194034298Y-72610922D01*
X193998822Y-72603382D01*
X193936351Y-72569655D01*
X193915902Y-72543136D01*
X193838930Y-72409816D01*
X193838929Y-72409814D01*
X193722748Y-72280782D01*
X193582279Y-72178725D01*
X193423654Y-72108100D01*
X193253816Y-72072000D01*
X193080184Y-72072000D01*
X192910345Y-72108100D01*
X192751720Y-72178725D01*
X192611251Y-72280782D01*
X192495070Y-72409814D01*
X192495069Y-72409816D01*
X192408256Y-72560182D01*
X192408252Y-72560189D01*
X192354601Y-72725313D01*
X192354600Y-72725317D01*
X192354600Y-72725319D01*
X192336450Y-72898000D01*
X184296088Y-72898000D01*
X184197748Y-72788782D01*
X184057279Y-72686725D01*
X184057275Y-72686723D01*
X183898654Y-72616100D01*
X183898652Y-72616099D01*
X183898651Y-72616099D01*
X183874298Y-72610922D01*
X183838822Y-72603382D01*
X183776351Y-72569655D01*
X183755902Y-72543136D01*
X183678930Y-72409816D01*
X183678929Y-72409814D01*
X183562748Y-72280782D01*
X183422279Y-72178725D01*
X183263654Y-72108100D01*
X183093816Y-72072000D01*
X182920184Y-72072000D01*
X182750345Y-72108100D01*
X182591720Y-72178725D01*
X182451251Y-72280782D01*
X182335070Y-72409814D01*
X182335069Y-72409816D01*
X182248256Y-72560182D01*
X182248252Y-72560189D01*
X182194601Y-72725313D01*
X182194600Y-72725317D01*
X182194600Y-72725319D01*
X182176450Y-72898000D01*
X160552321Y-72898000D01*
X160588433Y-72816214D01*
X160726262Y-72404987D01*
X160825560Y-71982798D01*
X160885480Y-71553247D01*
X160905510Y-71120000D01*
X160885480Y-70686753D01*
X160825560Y-70257202D01*
X160726262Y-69835013D01*
X160588433Y-69423786D01*
X160413248Y-69027031D01*
X160413244Y-69027025D01*
X160413243Y-69027021D01*
X160202207Y-68648139D01*
X160143742Y-68562791D01*
X159957098Y-68290323D01*
X159680024Y-67956655D01*
X159680022Y-67956653D01*
X159680018Y-67956648D01*
X159373351Y-67649981D01*
X159324799Y-67609664D01*
X159232396Y-67532934D01*
X159192769Y-67474029D01*
X159191278Y-67403048D01*
X159228399Y-67342529D01*
X159292346Y-67311687D01*
X159312893Y-67310000D01*
X221699507Y-67310000D01*
X221767628Y-67330002D01*
G37*
%TD.AperFunction*%
%TD*%
%TA.AperFunction,Conductor*%
%TO.N,+1V2*%
G36*
X200603039Y-71647685D02*
G01*
X200648794Y-71700489D01*
X200660000Y-71752000D01*
X200660000Y-89662000D01*
X205108000Y-89662000D01*
X205175039Y-89681685D01*
X205220794Y-89734489D01*
X205232000Y-89786000D01*
X205232000Y-91745984D01*
X205212315Y-91813023D01*
X205159511Y-91858778D01*
X205090353Y-91868722D01*
X205031540Y-91841863D01*
X205031004Y-91842601D01*
X205027362Y-91839955D01*
X205026797Y-91839697D01*
X205025825Y-91838838D01*
X204885279Y-91736725D01*
X204885274Y-91736722D01*
X204726658Y-91666101D01*
X204726653Y-91666099D01*
X204592915Y-91637673D01*
X204556816Y-91630000D01*
X204383184Y-91630000D01*
X204353412Y-91636327D01*
X204213346Y-91666099D01*
X204213341Y-91666101D01*
X204054725Y-91736722D01*
X204054720Y-91736725D01*
X203914254Y-91838780D01*
X203798070Y-91967816D01*
X203711254Y-92118186D01*
X203657601Y-92283314D01*
X203657600Y-92283317D01*
X203639450Y-92456000D01*
X203657600Y-92628682D01*
X203657601Y-92628685D01*
X203669989Y-92666813D01*
X203711255Y-92793815D01*
X203798071Y-92944185D01*
X203891796Y-93048277D01*
X203914254Y-93073219D01*
X204054720Y-93175274D01*
X204054725Y-93175277D01*
X204213341Y-93245898D01*
X204213346Y-93245900D01*
X204383184Y-93282000D01*
X204383185Y-93282000D01*
X204556814Y-93282000D01*
X204556816Y-93282000D01*
X204726654Y-93245900D01*
X204885275Y-93175277D01*
X205025746Y-93073219D01*
X205025745Y-93073219D01*
X205031004Y-93069399D01*
X205031865Y-93070585D01*
X205088012Y-93043637D01*
X205157348Y-93052257D01*
X205211016Y-93096996D01*
X205231977Y-93163647D01*
X205232000Y-93166015D01*
X205232000Y-99568000D01*
X207316704Y-99568000D01*
X207383743Y-99587685D01*
X207408854Y-99609028D01*
X207470248Y-99677214D01*
X207470255Y-99677220D01*
X207610720Y-99779274D01*
X207610725Y-99779277D01*
X207769341Y-99849898D01*
X207769346Y-99849900D01*
X207939184Y-99886000D01*
X207939185Y-99886000D01*
X208112814Y-99886000D01*
X208112816Y-99886000D01*
X208282654Y-99849900D01*
X208441275Y-99779277D01*
X208581746Y-99677219D01*
X208583578Y-99675185D01*
X208643146Y-99609028D01*
X208702632Y-99572379D01*
X208735296Y-99568000D01*
X209172000Y-99568000D01*
X209239039Y-99587685D01*
X209284794Y-99640489D01*
X209296000Y-99692000D01*
X209296000Y-101730000D01*
X209276315Y-101797039D01*
X209223511Y-101842794D01*
X209172000Y-101854000D01*
X206972377Y-101854000D01*
X206905338Y-101834315D01*
X206859583Y-101781511D01*
X206855336Y-101770955D01*
X206832319Y-101705178D01*
X206812336Y-101648070D01*
X206720919Y-101502581D01*
X206599419Y-101381081D01*
X206453930Y-101289664D01*
X206453931Y-101289664D01*
X206453929Y-101289663D01*
X206291748Y-101232913D01*
X206291738Y-101232911D01*
X206121004Y-101213675D01*
X206120996Y-101213675D01*
X205950261Y-101232911D01*
X205950251Y-101232913D01*
X205788070Y-101289663D01*
X205788067Y-101289665D01*
X205642580Y-101381081D01*
X205521081Y-101502580D01*
X205429665Y-101648067D01*
X205429663Y-101648071D01*
X205386664Y-101770955D01*
X205345942Y-101827731D01*
X205280990Y-101853478D01*
X205269623Y-101854000D01*
X193169325Y-101854000D01*
X193102286Y-101834315D01*
X193056531Y-101781511D01*
X193046175Y-101733911D01*
X193046105Y-101733919D01*
X193046027Y-101733227D01*
X193045325Y-101730000D01*
X193045325Y-101726996D01*
X193026088Y-101556261D01*
X193026086Y-101556251D01*
X192969336Y-101394070D01*
X192969334Y-101394067D01*
X192903733Y-101289664D01*
X192877919Y-101248581D01*
X192756419Y-101127081D01*
X192610930Y-101035664D01*
X192610929Y-101035663D01*
X192604662Y-101032646D01*
X192605728Y-101030430D01*
X192558244Y-100996350D01*
X192532518Y-100931389D01*
X192532000Y-100920062D01*
X192532000Y-100203000D01*
X198305450Y-100203000D01*
X198323600Y-100375681D01*
X198377255Y-100540815D01*
X198464071Y-100691185D01*
X198525195Y-100759070D01*
X198580254Y-100820219D01*
X198720720Y-100922274D01*
X198720725Y-100922277D01*
X198879341Y-100992898D01*
X198879346Y-100992900D01*
X199049184Y-101029000D01*
X199049185Y-101029000D01*
X199222814Y-101029000D01*
X199222816Y-101029000D01*
X199392654Y-100992900D01*
X199551275Y-100922277D01*
X199691746Y-100820219D01*
X199807929Y-100691185D01*
X199894745Y-100540815D01*
X199948400Y-100375681D01*
X199966550Y-100203000D01*
X199960975Y-100149960D01*
X199973544Y-100081232D01*
X200021276Y-100030208D01*
X200084296Y-100013000D01*
X200238814Y-100013000D01*
X200238816Y-100013000D01*
X200408654Y-99976900D01*
X200567275Y-99906277D01*
X200707746Y-99804219D01*
X200821851Y-99677491D01*
X200881336Y-99640844D01*
X200951193Y-99642174D01*
X201006147Y-99677491D01*
X201097796Y-99779277D01*
X201120254Y-99804219D01*
X201260720Y-99906274D01*
X201260725Y-99906277D01*
X201419341Y-99976898D01*
X201419346Y-99976900D01*
X201589184Y-100013000D01*
X201589185Y-100013000D01*
X201762814Y-100013000D01*
X201762816Y-100013000D01*
X201932654Y-99976900D01*
X202086386Y-99908453D01*
X202155632Y-99899168D01*
X202218909Y-99928796D01*
X202256123Y-99987931D01*
X202260140Y-100034695D01*
X202242450Y-100203000D01*
X202260600Y-100375681D01*
X202314255Y-100540815D01*
X202401071Y-100691185D01*
X202462195Y-100759070D01*
X202517254Y-100820219D01*
X202657720Y-100922274D01*
X202657725Y-100922277D01*
X202816341Y-100992898D01*
X202816346Y-100992900D01*
X202986184Y-101029000D01*
X202986185Y-101029000D01*
X203159814Y-101029000D01*
X203159816Y-101029000D01*
X203329654Y-100992900D01*
X203488275Y-100922277D01*
X203628746Y-100820219D01*
X203744929Y-100691185D01*
X203831745Y-100540815D01*
X203885400Y-100375681D01*
X203903550Y-100203000D01*
X203885400Y-100030319D01*
X203831745Y-99865185D01*
X203769283Y-99756998D01*
X203752811Y-99689100D01*
X203769284Y-99633000D01*
X203771500Y-99629162D01*
X203831745Y-99524815D01*
X203885400Y-99359681D01*
X203903550Y-99187000D01*
X203885400Y-99014319D01*
X203831745Y-98849185D01*
X203744929Y-98698815D01*
X203628746Y-98569781D01*
X203628742Y-98569778D01*
X203488279Y-98467725D01*
X203488274Y-98467722D01*
X203329658Y-98397101D01*
X203329653Y-98397099D01*
X203195915Y-98368673D01*
X203159816Y-98361000D01*
X202986184Y-98361000D01*
X202956412Y-98367327D01*
X202816346Y-98397099D01*
X202816341Y-98397101D01*
X202657725Y-98467722D01*
X202657720Y-98467725D01*
X202517257Y-98569778D01*
X202517254Y-98569780D01*
X202517254Y-98569781D01*
X202466648Y-98625983D01*
X202407163Y-98662631D01*
X202337306Y-98661300D01*
X202282351Y-98625983D01*
X202231746Y-98569781D01*
X202231742Y-98569778D01*
X202091279Y-98467725D01*
X202091274Y-98467722D01*
X201932658Y-98397101D01*
X201932653Y-98397099D01*
X201798915Y-98368673D01*
X201762816Y-98361000D01*
X201589184Y-98361000D01*
X201559412Y-98367327D01*
X201419346Y-98397099D01*
X201419341Y-98397101D01*
X201260725Y-98467722D01*
X201260720Y-98467725D01*
X201120254Y-98569780D01*
X201006150Y-98696506D01*
X200946663Y-98733155D01*
X200876806Y-98731824D01*
X200821850Y-98696506D01*
X200707745Y-98569780D01*
X200567279Y-98467725D01*
X200567274Y-98467722D01*
X200408658Y-98397101D01*
X200408653Y-98397099D01*
X200274915Y-98368673D01*
X200238816Y-98361000D01*
X200065184Y-98361000D01*
X200035412Y-98367327D01*
X199895346Y-98397099D01*
X199895341Y-98397101D01*
X199736725Y-98467722D01*
X199736720Y-98467725D01*
X199596254Y-98569780D01*
X199480070Y-98698816D01*
X199393254Y-98849186D01*
X199339601Y-99014314D01*
X199339600Y-99014317D01*
X199321450Y-99187000D01*
X199326251Y-99232681D01*
X199327025Y-99240038D01*
X199314456Y-99308768D01*
X199266724Y-99359792D01*
X199203704Y-99377000D01*
X199049184Y-99377000D01*
X199019412Y-99383327D01*
X198879346Y-99413099D01*
X198879341Y-99413101D01*
X198720725Y-99483722D01*
X198720720Y-99483725D01*
X198580254Y-99585780D01*
X198464070Y-99714816D01*
X198377254Y-99865186D01*
X198323601Y-100030314D01*
X198323600Y-100030317D01*
X198323600Y-100030319D01*
X198305450Y-100203000D01*
X192532000Y-100203000D01*
X192532000Y-99692000D01*
X192551685Y-99624961D01*
X192604489Y-99579206D01*
X192656000Y-99568000D01*
X197866000Y-99568000D01*
X197866000Y-92329000D01*
X199702450Y-92329000D01*
X199720600Y-92501682D01*
X199720601Y-92501685D01*
X199761864Y-92628681D01*
X199774255Y-92666815D01*
X199861071Y-92817185D01*
X199975421Y-92944183D01*
X199977254Y-92946219D01*
X200117720Y-93048274D01*
X200117725Y-93048277D01*
X200276341Y-93118898D01*
X200276346Y-93118900D01*
X200446184Y-93155000D01*
X200446185Y-93155000D01*
X200619814Y-93155000D01*
X200619816Y-93155000D01*
X200789654Y-93118900D01*
X200948275Y-93048277D01*
X201088746Y-92946219D01*
X201204929Y-92817185D01*
X201291745Y-92666815D01*
X201345400Y-92501681D01*
X201363550Y-92329000D01*
X201345400Y-92156319D01*
X201291745Y-91991185D01*
X201204929Y-91840815D01*
X201088746Y-91711781D01*
X201088745Y-91711780D01*
X200948279Y-91609725D01*
X200948274Y-91609722D01*
X200789658Y-91539101D01*
X200789653Y-91539099D01*
X200655915Y-91510673D01*
X200619816Y-91503000D01*
X200446184Y-91503000D01*
X200416412Y-91509327D01*
X200276346Y-91539099D01*
X200276341Y-91539101D01*
X200117725Y-91609722D01*
X200117720Y-91609725D01*
X199977254Y-91711780D01*
X199861070Y-91840816D01*
X199774254Y-91991186D01*
X199720601Y-92156314D01*
X199720600Y-92156317D01*
X199702450Y-92329000D01*
X197866000Y-92329000D01*
X197866000Y-75692000D01*
X196720000Y-75692000D01*
X196652961Y-75672315D01*
X196607206Y-75619511D01*
X196596000Y-75568000D01*
X196596000Y-71752000D01*
X196615685Y-71684961D01*
X196668489Y-71639206D01*
X196720000Y-71628000D01*
X200536000Y-71628000D01*
X200603039Y-71647685D01*
G37*
%TD.AperFunction*%
%TD*%
M02*
