%TF.GenerationSoftware,KiCad,Pcbnew,7.0.9-7.0.9~ubuntu20.04.1*%
%TF.CreationDate,2024-02-01T14:13:27+00:00*%
%TF.ProjectId,ICE40UPDevBoard,49434534-3055-4504-9465-76426f617264,rev?*%
%TF.SameCoordinates,Original*%
%TF.FileFunction,Legend,Bot*%
%TF.FilePolarity,Positive*%
%FSLAX46Y46*%
G04 Gerber Fmt 4.6, Leading zero omitted, Abs format (unit mm)*
G04 Created by KiCad (PCBNEW 7.0.9-7.0.9~ubuntu20.04.1) date 2024-02-01 14:13:27*
%MOMM*%
%LPD*%
G01*
G04 APERTURE LIST*
%ADD10C,0.150000*%
%ADD11C,0.120000*%
G04 APERTURE END LIST*
D10*
X205112857Y-77034819D02*
X205446190Y-76558628D01*
X205684285Y-77034819D02*
X205684285Y-76034819D01*
X205684285Y-76034819D02*
X205303333Y-76034819D01*
X205303333Y-76034819D02*
X205208095Y-76082438D01*
X205208095Y-76082438D02*
X205160476Y-76130057D01*
X205160476Y-76130057D02*
X205112857Y-76225295D01*
X205112857Y-76225295D02*
X205112857Y-76368152D01*
X205112857Y-76368152D02*
X205160476Y-76463390D01*
X205160476Y-76463390D02*
X205208095Y-76511009D01*
X205208095Y-76511009D02*
X205303333Y-76558628D01*
X205303333Y-76558628D02*
X205684285Y-76558628D01*
X204731904Y-76130057D02*
X204684285Y-76082438D01*
X204684285Y-76082438D02*
X204589047Y-76034819D01*
X204589047Y-76034819D02*
X204350952Y-76034819D01*
X204350952Y-76034819D02*
X204255714Y-76082438D01*
X204255714Y-76082438D02*
X204208095Y-76130057D01*
X204208095Y-76130057D02*
X204160476Y-76225295D01*
X204160476Y-76225295D02*
X204160476Y-76320533D01*
X204160476Y-76320533D02*
X204208095Y-76463390D01*
X204208095Y-76463390D02*
X204779523Y-77034819D01*
X204779523Y-77034819D02*
X204160476Y-77034819D01*
X203208095Y-77034819D02*
X203779523Y-77034819D01*
X203493809Y-77034819D02*
X203493809Y-76034819D01*
X203493809Y-76034819D02*
X203589047Y-76177676D01*
X203589047Y-76177676D02*
X203684285Y-76272914D01*
X203684285Y-76272914D02*
X203779523Y-76320533D01*
X186189857Y-85068580D02*
X186237476Y-85116200D01*
X186237476Y-85116200D02*
X186380333Y-85163819D01*
X186380333Y-85163819D02*
X186475571Y-85163819D01*
X186475571Y-85163819D02*
X186618428Y-85116200D01*
X186618428Y-85116200D02*
X186713666Y-85020961D01*
X186713666Y-85020961D02*
X186761285Y-84925723D01*
X186761285Y-84925723D02*
X186808904Y-84735247D01*
X186808904Y-84735247D02*
X186808904Y-84592390D01*
X186808904Y-84592390D02*
X186761285Y-84401914D01*
X186761285Y-84401914D02*
X186713666Y-84306676D01*
X186713666Y-84306676D02*
X186618428Y-84211438D01*
X186618428Y-84211438D02*
X186475571Y-84163819D01*
X186475571Y-84163819D02*
X186380333Y-84163819D01*
X186380333Y-84163819D02*
X186237476Y-84211438D01*
X186237476Y-84211438D02*
X186189857Y-84259057D01*
X185808904Y-84259057D02*
X185761285Y-84211438D01*
X185761285Y-84211438D02*
X185666047Y-84163819D01*
X185666047Y-84163819D02*
X185427952Y-84163819D01*
X185427952Y-84163819D02*
X185332714Y-84211438D01*
X185332714Y-84211438D02*
X185285095Y-84259057D01*
X185285095Y-84259057D02*
X185237476Y-84354295D01*
X185237476Y-84354295D02*
X185237476Y-84449533D01*
X185237476Y-84449533D02*
X185285095Y-84592390D01*
X185285095Y-84592390D02*
X185856523Y-85163819D01*
X185856523Y-85163819D02*
X185237476Y-85163819D01*
X184380333Y-84497152D02*
X184380333Y-85163819D01*
X184618428Y-84116200D02*
X184856523Y-84830485D01*
X184856523Y-84830485D02*
X184237476Y-84830485D01*
X239783857Y-118691819D02*
X240117190Y-118215628D01*
X240355285Y-118691819D02*
X240355285Y-117691819D01*
X240355285Y-117691819D02*
X239974333Y-117691819D01*
X239974333Y-117691819D02*
X239879095Y-117739438D01*
X239879095Y-117739438D02*
X239831476Y-117787057D01*
X239831476Y-117787057D02*
X239783857Y-117882295D01*
X239783857Y-117882295D02*
X239783857Y-118025152D01*
X239783857Y-118025152D02*
X239831476Y-118120390D01*
X239831476Y-118120390D02*
X239879095Y-118168009D01*
X239879095Y-118168009D02*
X239974333Y-118215628D01*
X239974333Y-118215628D02*
X240355285Y-118215628D01*
X238831476Y-118691819D02*
X239402904Y-118691819D01*
X239117190Y-118691819D02*
X239117190Y-117691819D01*
X239117190Y-117691819D02*
X239212428Y-117834676D01*
X239212428Y-117834676D02*
X239307666Y-117929914D01*
X239307666Y-117929914D02*
X239402904Y-117977533D01*
X238212428Y-117691819D02*
X238117190Y-117691819D01*
X238117190Y-117691819D02*
X238021952Y-117739438D01*
X238021952Y-117739438D02*
X237974333Y-117787057D01*
X237974333Y-117787057D02*
X237926714Y-117882295D01*
X237926714Y-117882295D02*
X237879095Y-118072771D01*
X237879095Y-118072771D02*
X237879095Y-118310866D01*
X237879095Y-118310866D02*
X237926714Y-118501342D01*
X237926714Y-118501342D02*
X237974333Y-118596580D01*
X237974333Y-118596580D02*
X238021952Y-118644200D01*
X238021952Y-118644200D02*
X238117190Y-118691819D01*
X238117190Y-118691819D02*
X238212428Y-118691819D01*
X238212428Y-118691819D02*
X238307666Y-118644200D01*
X238307666Y-118644200D02*
X238355285Y-118596580D01*
X238355285Y-118596580D02*
X238402904Y-118501342D01*
X238402904Y-118501342D02*
X238450523Y-118310866D01*
X238450523Y-118310866D02*
X238450523Y-118072771D01*
X238450523Y-118072771D02*
X238402904Y-117882295D01*
X238402904Y-117882295D02*
X238355285Y-117787057D01*
X238355285Y-117787057D02*
X238307666Y-117739438D01*
X238307666Y-117739438D02*
X238212428Y-117691819D01*
X202064857Y-92180580D02*
X202112476Y-92228200D01*
X202112476Y-92228200D02*
X202255333Y-92275819D01*
X202255333Y-92275819D02*
X202350571Y-92275819D01*
X202350571Y-92275819D02*
X202493428Y-92228200D01*
X202493428Y-92228200D02*
X202588666Y-92132961D01*
X202588666Y-92132961D02*
X202636285Y-92037723D01*
X202636285Y-92037723D02*
X202683904Y-91847247D01*
X202683904Y-91847247D02*
X202683904Y-91704390D01*
X202683904Y-91704390D02*
X202636285Y-91513914D01*
X202636285Y-91513914D02*
X202588666Y-91418676D01*
X202588666Y-91418676D02*
X202493428Y-91323438D01*
X202493428Y-91323438D02*
X202350571Y-91275819D01*
X202350571Y-91275819D02*
X202255333Y-91275819D01*
X202255333Y-91275819D02*
X202112476Y-91323438D01*
X202112476Y-91323438D02*
X202064857Y-91371057D01*
X201112476Y-92275819D02*
X201683904Y-92275819D01*
X201398190Y-92275819D02*
X201398190Y-91275819D01*
X201398190Y-91275819D02*
X201493428Y-91418676D01*
X201493428Y-91418676D02*
X201588666Y-91513914D01*
X201588666Y-91513914D02*
X201683904Y-91561533D01*
X200255333Y-91275819D02*
X200445809Y-91275819D01*
X200445809Y-91275819D02*
X200541047Y-91323438D01*
X200541047Y-91323438D02*
X200588666Y-91371057D01*
X200588666Y-91371057D02*
X200683904Y-91513914D01*
X200683904Y-91513914D02*
X200731523Y-91704390D01*
X200731523Y-91704390D02*
X200731523Y-92085342D01*
X200731523Y-92085342D02*
X200683904Y-92180580D01*
X200683904Y-92180580D02*
X200636285Y-92228200D01*
X200636285Y-92228200D02*
X200541047Y-92275819D01*
X200541047Y-92275819D02*
X200350571Y-92275819D01*
X200350571Y-92275819D02*
X200255333Y-92228200D01*
X200255333Y-92228200D02*
X200207714Y-92180580D01*
X200207714Y-92180580D02*
X200160095Y-92085342D01*
X200160095Y-92085342D02*
X200160095Y-91847247D01*
X200160095Y-91847247D02*
X200207714Y-91752009D01*
X200207714Y-91752009D02*
X200255333Y-91704390D01*
X200255333Y-91704390D02*
X200350571Y-91656771D01*
X200350571Y-91656771D02*
X200541047Y-91656771D01*
X200541047Y-91656771D02*
X200636285Y-91704390D01*
X200636285Y-91704390D02*
X200683904Y-91752009D01*
X200683904Y-91752009D02*
X200731523Y-91847247D01*
X193682857Y-72876580D02*
X193730476Y-72924200D01*
X193730476Y-72924200D02*
X193873333Y-72971819D01*
X193873333Y-72971819D02*
X193968571Y-72971819D01*
X193968571Y-72971819D02*
X194111428Y-72924200D01*
X194111428Y-72924200D02*
X194206666Y-72828961D01*
X194206666Y-72828961D02*
X194254285Y-72733723D01*
X194254285Y-72733723D02*
X194301904Y-72543247D01*
X194301904Y-72543247D02*
X194301904Y-72400390D01*
X194301904Y-72400390D02*
X194254285Y-72209914D01*
X194254285Y-72209914D02*
X194206666Y-72114676D01*
X194206666Y-72114676D02*
X194111428Y-72019438D01*
X194111428Y-72019438D02*
X193968571Y-71971819D01*
X193968571Y-71971819D02*
X193873333Y-71971819D01*
X193873333Y-71971819D02*
X193730476Y-72019438D01*
X193730476Y-72019438D02*
X193682857Y-72067057D01*
X192730476Y-72971819D02*
X193301904Y-72971819D01*
X193016190Y-72971819D02*
X193016190Y-71971819D01*
X193016190Y-71971819D02*
X193111428Y-72114676D01*
X193111428Y-72114676D02*
X193206666Y-72209914D01*
X193206666Y-72209914D02*
X193301904Y-72257533D01*
X192254285Y-72971819D02*
X192063809Y-72971819D01*
X192063809Y-72971819D02*
X191968571Y-72924200D01*
X191968571Y-72924200D02*
X191920952Y-72876580D01*
X191920952Y-72876580D02*
X191825714Y-72733723D01*
X191825714Y-72733723D02*
X191778095Y-72543247D01*
X191778095Y-72543247D02*
X191778095Y-72162295D01*
X191778095Y-72162295D02*
X191825714Y-72067057D01*
X191825714Y-72067057D02*
X191873333Y-72019438D01*
X191873333Y-72019438D02*
X191968571Y-71971819D01*
X191968571Y-71971819D02*
X192159047Y-71971819D01*
X192159047Y-71971819D02*
X192254285Y-72019438D01*
X192254285Y-72019438D02*
X192301904Y-72067057D01*
X192301904Y-72067057D02*
X192349523Y-72162295D01*
X192349523Y-72162295D02*
X192349523Y-72400390D01*
X192349523Y-72400390D02*
X192301904Y-72495628D01*
X192301904Y-72495628D02*
X192254285Y-72543247D01*
X192254285Y-72543247D02*
X192159047Y-72590866D01*
X192159047Y-72590866D02*
X191968571Y-72590866D01*
X191968571Y-72590866D02*
X191873333Y-72543247D01*
X191873333Y-72543247D02*
X191825714Y-72495628D01*
X191825714Y-72495628D02*
X191778095Y-72400390D01*
X206732094Y-111071819D02*
X206732094Y-110071819D01*
X206732094Y-110071819D02*
X206493999Y-110071819D01*
X206493999Y-110071819D02*
X206351142Y-110119438D01*
X206351142Y-110119438D02*
X206255904Y-110214676D01*
X206255904Y-110214676D02*
X206208285Y-110309914D01*
X206208285Y-110309914D02*
X206160666Y-110500390D01*
X206160666Y-110500390D02*
X206160666Y-110643247D01*
X206160666Y-110643247D02*
X206208285Y-110833723D01*
X206208285Y-110833723D02*
X206255904Y-110928961D01*
X206255904Y-110928961D02*
X206351142Y-111024200D01*
X206351142Y-111024200D02*
X206493999Y-111071819D01*
X206493999Y-111071819D02*
X206732094Y-111071819D01*
X205208285Y-111071819D02*
X205779713Y-111071819D01*
X205493999Y-111071819D02*
X205493999Y-110071819D01*
X205493999Y-110071819D02*
X205589237Y-110214676D01*
X205589237Y-110214676D02*
X205684475Y-110309914D01*
X205684475Y-110309914D02*
X205779713Y-110357533D01*
X234957857Y-86433819D02*
X235291190Y-85957628D01*
X235529285Y-86433819D02*
X235529285Y-85433819D01*
X235529285Y-85433819D02*
X235148333Y-85433819D01*
X235148333Y-85433819D02*
X235053095Y-85481438D01*
X235053095Y-85481438D02*
X235005476Y-85529057D01*
X235005476Y-85529057D02*
X234957857Y-85624295D01*
X234957857Y-85624295D02*
X234957857Y-85767152D01*
X234957857Y-85767152D02*
X235005476Y-85862390D01*
X235005476Y-85862390D02*
X235053095Y-85910009D01*
X235053095Y-85910009D02*
X235148333Y-85957628D01*
X235148333Y-85957628D02*
X235529285Y-85957628D01*
X234005476Y-86433819D02*
X234576904Y-86433819D01*
X234291190Y-86433819D02*
X234291190Y-85433819D01*
X234291190Y-85433819D02*
X234386428Y-85576676D01*
X234386428Y-85576676D02*
X234481666Y-85671914D01*
X234481666Y-85671914D02*
X234576904Y-85719533D01*
X233624523Y-85529057D02*
X233576904Y-85481438D01*
X233576904Y-85481438D02*
X233481666Y-85433819D01*
X233481666Y-85433819D02*
X233243571Y-85433819D01*
X233243571Y-85433819D02*
X233148333Y-85481438D01*
X233148333Y-85481438D02*
X233100714Y-85529057D01*
X233100714Y-85529057D02*
X233053095Y-85624295D01*
X233053095Y-85624295D02*
X233053095Y-85719533D01*
X233053095Y-85719533D02*
X233100714Y-85862390D01*
X233100714Y-85862390D02*
X233672142Y-86433819D01*
X233672142Y-86433819D02*
X233053095Y-86433819D01*
X193809857Y-98022580D02*
X193857476Y-98070200D01*
X193857476Y-98070200D02*
X194000333Y-98117819D01*
X194000333Y-98117819D02*
X194095571Y-98117819D01*
X194095571Y-98117819D02*
X194238428Y-98070200D01*
X194238428Y-98070200D02*
X194333666Y-97974961D01*
X194333666Y-97974961D02*
X194381285Y-97879723D01*
X194381285Y-97879723D02*
X194428904Y-97689247D01*
X194428904Y-97689247D02*
X194428904Y-97546390D01*
X194428904Y-97546390D02*
X194381285Y-97355914D01*
X194381285Y-97355914D02*
X194333666Y-97260676D01*
X194333666Y-97260676D02*
X194238428Y-97165438D01*
X194238428Y-97165438D02*
X194095571Y-97117819D01*
X194095571Y-97117819D02*
X194000333Y-97117819D01*
X194000333Y-97117819D02*
X193857476Y-97165438D01*
X193857476Y-97165438D02*
X193809857Y-97213057D01*
X193428904Y-97213057D02*
X193381285Y-97165438D01*
X193381285Y-97165438D02*
X193286047Y-97117819D01*
X193286047Y-97117819D02*
X193047952Y-97117819D01*
X193047952Y-97117819D02*
X192952714Y-97165438D01*
X192952714Y-97165438D02*
X192905095Y-97213057D01*
X192905095Y-97213057D02*
X192857476Y-97308295D01*
X192857476Y-97308295D02*
X192857476Y-97403533D01*
X192857476Y-97403533D02*
X192905095Y-97546390D01*
X192905095Y-97546390D02*
X193476523Y-98117819D01*
X193476523Y-98117819D02*
X192857476Y-98117819D01*
X192000333Y-97117819D02*
X192190809Y-97117819D01*
X192190809Y-97117819D02*
X192286047Y-97165438D01*
X192286047Y-97165438D02*
X192333666Y-97213057D01*
X192333666Y-97213057D02*
X192428904Y-97355914D01*
X192428904Y-97355914D02*
X192476523Y-97546390D01*
X192476523Y-97546390D02*
X192476523Y-97927342D01*
X192476523Y-97927342D02*
X192428904Y-98022580D01*
X192428904Y-98022580D02*
X192381285Y-98070200D01*
X192381285Y-98070200D02*
X192286047Y-98117819D01*
X192286047Y-98117819D02*
X192095571Y-98117819D01*
X192095571Y-98117819D02*
X192000333Y-98070200D01*
X192000333Y-98070200D02*
X191952714Y-98022580D01*
X191952714Y-98022580D02*
X191905095Y-97927342D01*
X191905095Y-97927342D02*
X191905095Y-97689247D01*
X191905095Y-97689247D02*
X191952714Y-97594009D01*
X191952714Y-97594009D02*
X192000333Y-97546390D01*
X192000333Y-97546390D02*
X192095571Y-97498771D01*
X192095571Y-97498771D02*
X192286047Y-97498771D01*
X192286047Y-97498771D02*
X192381285Y-97546390D01*
X192381285Y-97546390D02*
X192428904Y-97594009D01*
X192428904Y-97594009D02*
X192476523Y-97689247D01*
X196000666Y-73638580D02*
X196048285Y-73686200D01*
X196048285Y-73686200D02*
X196191142Y-73733819D01*
X196191142Y-73733819D02*
X196286380Y-73733819D01*
X196286380Y-73733819D02*
X196429237Y-73686200D01*
X196429237Y-73686200D02*
X196524475Y-73590961D01*
X196524475Y-73590961D02*
X196572094Y-73495723D01*
X196572094Y-73495723D02*
X196619713Y-73305247D01*
X196619713Y-73305247D02*
X196619713Y-73162390D01*
X196619713Y-73162390D02*
X196572094Y-72971914D01*
X196572094Y-72971914D02*
X196524475Y-72876676D01*
X196524475Y-72876676D02*
X196429237Y-72781438D01*
X196429237Y-72781438D02*
X196286380Y-72733819D01*
X196286380Y-72733819D02*
X196191142Y-72733819D01*
X196191142Y-72733819D02*
X196048285Y-72781438D01*
X196048285Y-72781438D02*
X196000666Y-72829057D01*
X195619713Y-72829057D02*
X195572094Y-72781438D01*
X195572094Y-72781438D02*
X195476856Y-72733819D01*
X195476856Y-72733819D02*
X195238761Y-72733819D01*
X195238761Y-72733819D02*
X195143523Y-72781438D01*
X195143523Y-72781438D02*
X195095904Y-72829057D01*
X195095904Y-72829057D02*
X195048285Y-72924295D01*
X195048285Y-72924295D02*
X195048285Y-73019533D01*
X195048285Y-73019533D02*
X195095904Y-73162390D01*
X195095904Y-73162390D02*
X195667332Y-73733819D01*
X195667332Y-73733819D02*
X195048285Y-73733819D01*
X162567857Y-121485819D02*
X162901190Y-121009628D01*
X163139285Y-121485819D02*
X163139285Y-120485819D01*
X163139285Y-120485819D02*
X162758333Y-120485819D01*
X162758333Y-120485819D02*
X162663095Y-120533438D01*
X162663095Y-120533438D02*
X162615476Y-120581057D01*
X162615476Y-120581057D02*
X162567857Y-120676295D01*
X162567857Y-120676295D02*
X162567857Y-120819152D01*
X162567857Y-120819152D02*
X162615476Y-120914390D01*
X162615476Y-120914390D02*
X162663095Y-120962009D01*
X162663095Y-120962009D02*
X162758333Y-121009628D01*
X162758333Y-121009628D02*
X163139285Y-121009628D01*
X162186904Y-120581057D02*
X162139285Y-120533438D01*
X162139285Y-120533438D02*
X162044047Y-120485819D01*
X162044047Y-120485819D02*
X161805952Y-120485819D01*
X161805952Y-120485819D02*
X161710714Y-120533438D01*
X161710714Y-120533438D02*
X161663095Y-120581057D01*
X161663095Y-120581057D02*
X161615476Y-120676295D01*
X161615476Y-120676295D02*
X161615476Y-120771533D01*
X161615476Y-120771533D02*
X161663095Y-120914390D01*
X161663095Y-120914390D02*
X162234523Y-121485819D01*
X162234523Y-121485819D02*
X161615476Y-121485819D01*
X161044047Y-120914390D02*
X161139285Y-120866771D01*
X161139285Y-120866771D02*
X161186904Y-120819152D01*
X161186904Y-120819152D02*
X161234523Y-120723914D01*
X161234523Y-120723914D02*
X161234523Y-120676295D01*
X161234523Y-120676295D02*
X161186904Y-120581057D01*
X161186904Y-120581057D02*
X161139285Y-120533438D01*
X161139285Y-120533438D02*
X161044047Y-120485819D01*
X161044047Y-120485819D02*
X160853571Y-120485819D01*
X160853571Y-120485819D02*
X160758333Y-120533438D01*
X160758333Y-120533438D02*
X160710714Y-120581057D01*
X160710714Y-120581057D02*
X160663095Y-120676295D01*
X160663095Y-120676295D02*
X160663095Y-120723914D01*
X160663095Y-120723914D02*
X160710714Y-120819152D01*
X160710714Y-120819152D02*
X160758333Y-120866771D01*
X160758333Y-120866771D02*
X160853571Y-120914390D01*
X160853571Y-120914390D02*
X161044047Y-120914390D01*
X161044047Y-120914390D02*
X161139285Y-120962009D01*
X161139285Y-120962009D02*
X161186904Y-121009628D01*
X161186904Y-121009628D02*
X161234523Y-121104866D01*
X161234523Y-121104866D02*
X161234523Y-121295342D01*
X161234523Y-121295342D02*
X161186904Y-121390580D01*
X161186904Y-121390580D02*
X161139285Y-121438200D01*
X161139285Y-121438200D02*
X161044047Y-121485819D01*
X161044047Y-121485819D02*
X160853571Y-121485819D01*
X160853571Y-121485819D02*
X160758333Y-121438200D01*
X160758333Y-121438200D02*
X160710714Y-121390580D01*
X160710714Y-121390580D02*
X160663095Y-121295342D01*
X160663095Y-121295342D02*
X160663095Y-121104866D01*
X160663095Y-121104866D02*
X160710714Y-121009628D01*
X160710714Y-121009628D02*
X160758333Y-120962009D01*
X160758333Y-120962009D02*
X160853571Y-120914390D01*
X191015857Y-86560819D02*
X191349190Y-86084628D01*
X191587285Y-86560819D02*
X191587285Y-85560819D01*
X191587285Y-85560819D02*
X191206333Y-85560819D01*
X191206333Y-85560819D02*
X191111095Y-85608438D01*
X191111095Y-85608438D02*
X191063476Y-85656057D01*
X191063476Y-85656057D02*
X191015857Y-85751295D01*
X191015857Y-85751295D02*
X191015857Y-85894152D01*
X191015857Y-85894152D02*
X191063476Y-85989390D01*
X191063476Y-85989390D02*
X191111095Y-86037009D01*
X191111095Y-86037009D02*
X191206333Y-86084628D01*
X191206333Y-86084628D02*
X191587285Y-86084628D01*
X190634904Y-85656057D02*
X190587285Y-85608438D01*
X190587285Y-85608438D02*
X190492047Y-85560819D01*
X190492047Y-85560819D02*
X190253952Y-85560819D01*
X190253952Y-85560819D02*
X190158714Y-85608438D01*
X190158714Y-85608438D02*
X190111095Y-85656057D01*
X190111095Y-85656057D02*
X190063476Y-85751295D01*
X190063476Y-85751295D02*
X190063476Y-85846533D01*
X190063476Y-85846533D02*
X190111095Y-85989390D01*
X190111095Y-85989390D02*
X190682523Y-86560819D01*
X190682523Y-86560819D02*
X190063476Y-86560819D01*
X189444428Y-85560819D02*
X189349190Y-85560819D01*
X189349190Y-85560819D02*
X189253952Y-85608438D01*
X189253952Y-85608438D02*
X189206333Y-85656057D01*
X189206333Y-85656057D02*
X189158714Y-85751295D01*
X189158714Y-85751295D02*
X189111095Y-85941771D01*
X189111095Y-85941771D02*
X189111095Y-86179866D01*
X189111095Y-86179866D02*
X189158714Y-86370342D01*
X189158714Y-86370342D02*
X189206333Y-86465580D01*
X189206333Y-86465580D02*
X189253952Y-86513200D01*
X189253952Y-86513200D02*
X189349190Y-86560819D01*
X189349190Y-86560819D02*
X189444428Y-86560819D01*
X189444428Y-86560819D02*
X189539666Y-86513200D01*
X189539666Y-86513200D02*
X189587285Y-86465580D01*
X189587285Y-86465580D02*
X189634904Y-86370342D01*
X189634904Y-86370342D02*
X189682523Y-86179866D01*
X189682523Y-86179866D02*
X189682523Y-85941771D01*
X189682523Y-85941771D02*
X189634904Y-85751295D01*
X189634904Y-85751295D02*
X189587285Y-85656057D01*
X189587285Y-85656057D02*
X189539666Y-85608438D01*
X189539666Y-85608438D02*
X189444428Y-85560819D01*
X186316857Y-73511580D02*
X186364476Y-73559200D01*
X186364476Y-73559200D02*
X186507333Y-73606819D01*
X186507333Y-73606819D02*
X186602571Y-73606819D01*
X186602571Y-73606819D02*
X186745428Y-73559200D01*
X186745428Y-73559200D02*
X186840666Y-73463961D01*
X186840666Y-73463961D02*
X186888285Y-73368723D01*
X186888285Y-73368723D02*
X186935904Y-73178247D01*
X186935904Y-73178247D02*
X186935904Y-73035390D01*
X186935904Y-73035390D02*
X186888285Y-72844914D01*
X186888285Y-72844914D02*
X186840666Y-72749676D01*
X186840666Y-72749676D02*
X186745428Y-72654438D01*
X186745428Y-72654438D02*
X186602571Y-72606819D01*
X186602571Y-72606819D02*
X186507333Y-72606819D01*
X186507333Y-72606819D02*
X186364476Y-72654438D01*
X186364476Y-72654438D02*
X186316857Y-72702057D01*
X185364476Y-73606819D02*
X185935904Y-73606819D01*
X185650190Y-73606819D02*
X185650190Y-72606819D01*
X185650190Y-72606819D02*
X185745428Y-72749676D01*
X185745428Y-72749676D02*
X185840666Y-72844914D01*
X185840666Y-72844914D02*
X185935904Y-72892533D01*
X184793047Y-73035390D02*
X184888285Y-72987771D01*
X184888285Y-72987771D02*
X184935904Y-72940152D01*
X184935904Y-72940152D02*
X184983523Y-72844914D01*
X184983523Y-72844914D02*
X184983523Y-72797295D01*
X184983523Y-72797295D02*
X184935904Y-72702057D01*
X184935904Y-72702057D02*
X184888285Y-72654438D01*
X184888285Y-72654438D02*
X184793047Y-72606819D01*
X184793047Y-72606819D02*
X184602571Y-72606819D01*
X184602571Y-72606819D02*
X184507333Y-72654438D01*
X184507333Y-72654438D02*
X184459714Y-72702057D01*
X184459714Y-72702057D02*
X184412095Y-72797295D01*
X184412095Y-72797295D02*
X184412095Y-72844914D01*
X184412095Y-72844914D02*
X184459714Y-72940152D01*
X184459714Y-72940152D02*
X184507333Y-72987771D01*
X184507333Y-72987771D02*
X184602571Y-73035390D01*
X184602571Y-73035390D02*
X184793047Y-73035390D01*
X184793047Y-73035390D02*
X184888285Y-73083009D01*
X184888285Y-73083009D02*
X184935904Y-73130628D01*
X184935904Y-73130628D02*
X184983523Y-73225866D01*
X184983523Y-73225866D02*
X184983523Y-73416342D01*
X184983523Y-73416342D02*
X184935904Y-73511580D01*
X184935904Y-73511580D02*
X184888285Y-73559200D01*
X184888285Y-73559200D02*
X184793047Y-73606819D01*
X184793047Y-73606819D02*
X184602571Y-73606819D01*
X184602571Y-73606819D02*
X184507333Y-73559200D01*
X184507333Y-73559200D02*
X184459714Y-73511580D01*
X184459714Y-73511580D02*
X184412095Y-73416342D01*
X184412095Y-73416342D02*
X184412095Y-73225866D01*
X184412095Y-73225866D02*
X184459714Y-73130628D01*
X184459714Y-73130628D02*
X184507333Y-73083009D01*
X184507333Y-73083009D02*
X184602571Y-73035390D01*
X188507666Y-73003580D02*
X188555285Y-73051200D01*
X188555285Y-73051200D02*
X188698142Y-73098819D01*
X188698142Y-73098819D02*
X188793380Y-73098819D01*
X188793380Y-73098819D02*
X188936237Y-73051200D01*
X188936237Y-73051200D02*
X189031475Y-72955961D01*
X189031475Y-72955961D02*
X189079094Y-72860723D01*
X189079094Y-72860723D02*
X189126713Y-72670247D01*
X189126713Y-72670247D02*
X189126713Y-72527390D01*
X189126713Y-72527390D02*
X189079094Y-72336914D01*
X189079094Y-72336914D02*
X189031475Y-72241676D01*
X189031475Y-72241676D02*
X188936237Y-72146438D01*
X188936237Y-72146438D02*
X188793380Y-72098819D01*
X188793380Y-72098819D02*
X188698142Y-72098819D01*
X188698142Y-72098819D02*
X188555285Y-72146438D01*
X188555285Y-72146438D02*
X188507666Y-72194057D01*
X187555285Y-73098819D02*
X188126713Y-73098819D01*
X187840999Y-73098819D02*
X187840999Y-72098819D01*
X187840999Y-72098819D02*
X187936237Y-72241676D01*
X187936237Y-72241676D02*
X188031475Y-72336914D01*
X188031475Y-72336914D02*
X188126713Y-72384533D01*
X226829857Y-111230580D02*
X226877476Y-111278200D01*
X226877476Y-111278200D02*
X227020333Y-111325819D01*
X227020333Y-111325819D02*
X227115571Y-111325819D01*
X227115571Y-111325819D02*
X227258428Y-111278200D01*
X227258428Y-111278200D02*
X227353666Y-111182961D01*
X227353666Y-111182961D02*
X227401285Y-111087723D01*
X227401285Y-111087723D02*
X227448904Y-110897247D01*
X227448904Y-110897247D02*
X227448904Y-110754390D01*
X227448904Y-110754390D02*
X227401285Y-110563914D01*
X227401285Y-110563914D02*
X227353666Y-110468676D01*
X227353666Y-110468676D02*
X227258428Y-110373438D01*
X227258428Y-110373438D02*
X227115571Y-110325819D01*
X227115571Y-110325819D02*
X227020333Y-110325819D01*
X227020333Y-110325819D02*
X226877476Y-110373438D01*
X226877476Y-110373438D02*
X226829857Y-110421057D01*
X226448904Y-110421057D02*
X226401285Y-110373438D01*
X226401285Y-110373438D02*
X226306047Y-110325819D01*
X226306047Y-110325819D02*
X226067952Y-110325819D01*
X226067952Y-110325819D02*
X225972714Y-110373438D01*
X225972714Y-110373438D02*
X225925095Y-110421057D01*
X225925095Y-110421057D02*
X225877476Y-110516295D01*
X225877476Y-110516295D02*
X225877476Y-110611533D01*
X225877476Y-110611533D02*
X225925095Y-110754390D01*
X225925095Y-110754390D02*
X226496523Y-111325819D01*
X226496523Y-111325819D02*
X225877476Y-111325819D01*
X224925095Y-111325819D02*
X225496523Y-111325819D01*
X225210809Y-111325819D02*
X225210809Y-110325819D01*
X225210809Y-110325819D02*
X225306047Y-110468676D01*
X225306047Y-110468676D02*
X225401285Y-110563914D01*
X225401285Y-110563914D02*
X225496523Y-110611533D01*
X195587857Y-107420580D02*
X195635476Y-107468200D01*
X195635476Y-107468200D02*
X195778333Y-107515819D01*
X195778333Y-107515819D02*
X195873571Y-107515819D01*
X195873571Y-107515819D02*
X196016428Y-107468200D01*
X196016428Y-107468200D02*
X196111666Y-107372961D01*
X196111666Y-107372961D02*
X196159285Y-107277723D01*
X196159285Y-107277723D02*
X196206904Y-107087247D01*
X196206904Y-107087247D02*
X196206904Y-106944390D01*
X196206904Y-106944390D02*
X196159285Y-106753914D01*
X196159285Y-106753914D02*
X196111666Y-106658676D01*
X196111666Y-106658676D02*
X196016428Y-106563438D01*
X196016428Y-106563438D02*
X195873571Y-106515819D01*
X195873571Y-106515819D02*
X195778333Y-106515819D01*
X195778333Y-106515819D02*
X195635476Y-106563438D01*
X195635476Y-106563438D02*
X195587857Y-106611057D01*
X194635476Y-107515819D02*
X195206904Y-107515819D01*
X194921190Y-107515819D02*
X194921190Y-106515819D01*
X194921190Y-106515819D02*
X195016428Y-106658676D01*
X195016428Y-106658676D02*
X195111666Y-106753914D01*
X195111666Y-106753914D02*
X195206904Y-106801533D01*
X194016428Y-106515819D02*
X193921190Y-106515819D01*
X193921190Y-106515819D02*
X193825952Y-106563438D01*
X193825952Y-106563438D02*
X193778333Y-106611057D01*
X193778333Y-106611057D02*
X193730714Y-106706295D01*
X193730714Y-106706295D02*
X193683095Y-106896771D01*
X193683095Y-106896771D02*
X193683095Y-107134866D01*
X193683095Y-107134866D02*
X193730714Y-107325342D01*
X193730714Y-107325342D02*
X193778333Y-107420580D01*
X193778333Y-107420580D02*
X193825952Y-107468200D01*
X193825952Y-107468200D02*
X193921190Y-107515819D01*
X193921190Y-107515819D02*
X194016428Y-107515819D01*
X194016428Y-107515819D02*
X194111666Y-107468200D01*
X194111666Y-107468200D02*
X194159285Y-107420580D01*
X194159285Y-107420580D02*
X194206904Y-107325342D01*
X194206904Y-107325342D02*
X194254523Y-107134866D01*
X194254523Y-107134866D02*
X194254523Y-106896771D01*
X194254523Y-106896771D02*
X194206904Y-106706295D01*
X194206904Y-106706295D02*
X194159285Y-106611057D01*
X194159285Y-106611057D02*
X194111666Y-106563438D01*
X194111666Y-106563438D02*
X194016428Y-106515819D01*
X230512857Y-81989819D02*
X230846190Y-81513628D01*
X231084285Y-81989819D02*
X231084285Y-80989819D01*
X231084285Y-80989819D02*
X230703333Y-80989819D01*
X230703333Y-80989819D02*
X230608095Y-81037438D01*
X230608095Y-81037438D02*
X230560476Y-81085057D01*
X230560476Y-81085057D02*
X230512857Y-81180295D01*
X230512857Y-81180295D02*
X230512857Y-81323152D01*
X230512857Y-81323152D02*
X230560476Y-81418390D01*
X230560476Y-81418390D02*
X230608095Y-81466009D01*
X230608095Y-81466009D02*
X230703333Y-81513628D01*
X230703333Y-81513628D02*
X231084285Y-81513628D01*
X229560476Y-81989819D02*
X230131904Y-81989819D01*
X229846190Y-81989819D02*
X229846190Y-80989819D01*
X229846190Y-80989819D02*
X229941428Y-81132676D01*
X229941428Y-81132676D02*
X230036666Y-81227914D01*
X230036666Y-81227914D02*
X230131904Y-81275533D01*
X228703333Y-80989819D02*
X228893809Y-80989819D01*
X228893809Y-80989819D02*
X228989047Y-81037438D01*
X228989047Y-81037438D02*
X229036666Y-81085057D01*
X229036666Y-81085057D02*
X229131904Y-81227914D01*
X229131904Y-81227914D02*
X229179523Y-81418390D01*
X229179523Y-81418390D02*
X229179523Y-81799342D01*
X229179523Y-81799342D02*
X229131904Y-81894580D01*
X229131904Y-81894580D02*
X229084285Y-81942200D01*
X229084285Y-81942200D02*
X228989047Y-81989819D01*
X228989047Y-81989819D02*
X228798571Y-81989819D01*
X228798571Y-81989819D02*
X228703333Y-81942200D01*
X228703333Y-81942200D02*
X228655714Y-81894580D01*
X228655714Y-81894580D02*
X228608095Y-81799342D01*
X228608095Y-81799342D02*
X228608095Y-81561247D01*
X228608095Y-81561247D02*
X228655714Y-81466009D01*
X228655714Y-81466009D02*
X228703333Y-81418390D01*
X228703333Y-81418390D02*
X228798571Y-81370771D01*
X228798571Y-81370771D02*
X228989047Y-81370771D01*
X228989047Y-81370771D02*
X229084285Y-81418390D01*
X229084285Y-81418390D02*
X229131904Y-81466009D01*
X229131904Y-81466009D02*
X229179523Y-81561247D01*
X195746666Y-89513580D02*
X195794285Y-89561200D01*
X195794285Y-89561200D02*
X195937142Y-89608819D01*
X195937142Y-89608819D02*
X196032380Y-89608819D01*
X196032380Y-89608819D02*
X196175237Y-89561200D01*
X196175237Y-89561200D02*
X196270475Y-89465961D01*
X196270475Y-89465961D02*
X196318094Y-89370723D01*
X196318094Y-89370723D02*
X196365713Y-89180247D01*
X196365713Y-89180247D02*
X196365713Y-89037390D01*
X196365713Y-89037390D02*
X196318094Y-88846914D01*
X196318094Y-88846914D02*
X196270475Y-88751676D01*
X196270475Y-88751676D02*
X196175237Y-88656438D01*
X196175237Y-88656438D02*
X196032380Y-88608819D01*
X196032380Y-88608819D02*
X195937142Y-88608819D01*
X195937142Y-88608819D02*
X195794285Y-88656438D01*
X195794285Y-88656438D02*
X195746666Y-88704057D01*
X195270475Y-89608819D02*
X195079999Y-89608819D01*
X195079999Y-89608819D02*
X194984761Y-89561200D01*
X194984761Y-89561200D02*
X194937142Y-89513580D01*
X194937142Y-89513580D02*
X194841904Y-89370723D01*
X194841904Y-89370723D02*
X194794285Y-89180247D01*
X194794285Y-89180247D02*
X194794285Y-88799295D01*
X194794285Y-88799295D02*
X194841904Y-88704057D01*
X194841904Y-88704057D02*
X194889523Y-88656438D01*
X194889523Y-88656438D02*
X194984761Y-88608819D01*
X194984761Y-88608819D02*
X195175237Y-88608819D01*
X195175237Y-88608819D02*
X195270475Y-88656438D01*
X195270475Y-88656438D02*
X195318094Y-88704057D01*
X195318094Y-88704057D02*
X195365713Y-88799295D01*
X195365713Y-88799295D02*
X195365713Y-89037390D01*
X195365713Y-89037390D02*
X195318094Y-89132628D01*
X195318094Y-89132628D02*
X195270475Y-89180247D01*
X195270475Y-89180247D02*
X195175237Y-89227866D01*
X195175237Y-89227866D02*
X194984761Y-89227866D01*
X194984761Y-89227866D02*
X194889523Y-89180247D01*
X194889523Y-89180247D02*
X194841904Y-89132628D01*
X194841904Y-89132628D02*
X194794285Y-89037390D01*
X219781333Y-107754009D02*
X220114666Y-107754009D01*
X220114666Y-108277819D02*
X220114666Y-107277819D01*
X220114666Y-107277819D02*
X219638476Y-107277819D01*
X218924190Y-107754009D02*
X218781333Y-107801628D01*
X218781333Y-107801628D02*
X218733714Y-107849247D01*
X218733714Y-107849247D02*
X218686095Y-107944485D01*
X218686095Y-107944485D02*
X218686095Y-108087342D01*
X218686095Y-108087342D02*
X218733714Y-108182580D01*
X218733714Y-108182580D02*
X218781333Y-108230200D01*
X218781333Y-108230200D02*
X218876571Y-108277819D01*
X218876571Y-108277819D02*
X219257523Y-108277819D01*
X219257523Y-108277819D02*
X219257523Y-107277819D01*
X219257523Y-107277819D02*
X218924190Y-107277819D01*
X218924190Y-107277819D02*
X218828952Y-107325438D01*
X218828952Y-107325438D02*
X218781333Y-107373057D01*
X218781333Y-107373057D02*
X218733714Y-107468295D01*
X218733714Y-107468295D02*
X218733714Y-107563533D01*
X218733714Y-107563533D02*
X218781333Y-107658771D01*
X218781333Y-107658771D02*
X218828952Y-107706390D01*
X218828952Y-107706390D02*
X218924190Y-107754009D01*
X218924190Y-107754009D02*
X219257523Y-107754009D01*
X217733714Y-108277819D02*
X218305142Y-108277819D01*
X218019428Y-108277819D02*
X218019428Y-107277819D01*
X218019428Y-107277819D02*
X218114666Y-107420676D01*
X218114666Y-107420676D02*
X218209904Y-107515914D01*
X218209904Y-107515914D02*
X218305142Y-107563533D01*
X230512857Y-86434819D02*
X230846190Y-85958628D01*
X231084285Y-86434819D02*
X231084285Y-85434819D01*
X231084285Y-85434819D02*
X230703333Y-85434819D01*
X230703333Y-85434819D02*
X230608095Y-85482438D01*
X230608095Y-85482438D02*
X230560476Y-85530057D01*
X230560476Y-85530057D02*
X230512857Y-85625295D01*
X230512857Y-85625295D02*
X230512857Y-85768152D01*
X230512857Y-85768152D02*
X230560476Y-85863390D01*
X230560476Y-85863390D02*
X230608095Y-85911009D01*
X230608095Y-85911009D02*
X230703333Y-85958628D01*
X230703333Y-85958628D02*
X231084285Y-85958628D01*
X229560476Y-86434819D02*
X230131904Y-86434819D01*
X229846190Y-86434819D02*
X229846190Y-85434819D01*
X229846190Y-85434819D02*
X229941428Y-85577676D01*
X229941428Y-85577676D02*
X230036666Y-85672914D01*
X230036666Y-85672914D02*
X230131904Y-85720533D01*
X228703333Y-85768152D02*
X228703333Y-86434819D01*
X228941428Y-85387200D02*
X229179523Y-86101485D01*
X229179523Y-86101485D02*
X228560476Y-86101485D01*
X198159666Y-73130580D02*
X198207285Y-73178200D01*
X198207285Y-73178200D02*
X198350142Y-73225819D01*
X198350142Y-73225819D02*
X198445380Y-73225819D01*
X198445380Y-73225819D02*
X198588237Y-73178200D01*
X198588237Y-73178200D02*
X198683475Y-73082961D01*
X198683475Y-73082961D02*
X198731094Y-72987723D01*
X198731094Y-72987723D02*
X198778713Y-72797247D01*
X198778713Y-72797247D02*
X198778713Y-72654390D01*
X198778713Y-72654390D02*
X198731094Y-72463914D01*
X198731094Y-72463914D02*
X198683475Y-72368676D01*
X198683475Y-72368676D02*
X198588237Y-72273438D01*
X198588237Y-72273438D02*
X198445380Y-72225819D01*
X198445380Y-72225819D02*
X198350142Y-72225819D01*
X198350142Y-72225819D02*
X198207285Y-72273438D01*
X198207285Y-72273438D02*
X198159666Y-72321057D01*
X197826332Y-72225819D02*
X197207285Y-72225819D01*
X197207285Y-72225819D02*
X197540618Y-72606771D01*
X197540618Y-72606771D02*
X197397761Y-72606771D01*
X197397761Y-72606771D02*
X197302523Y-72654390D01*
X197302523Y-72654390D02*
X197254904Y-72702009D01*
X197254904Y-72702009D02*
X197207285Y-72797247D01*
X197207285Y-72797247D02*
X197207285Y-73035342D01*
X197207285Y-73035342D02*
X197254904Y-73130580D01*
X197254904Y-73130580D02*
X197302523Y-73178200D01*
X197302523Y-73178200D02*
X197397761Y-73225819D01*
X197397761Y-73225819D02*
X197683475Y-73225819D01*
X197683475Y-73225819D02*
X197778713Y-73178200D01*
X197778713Y-73178200D02*
X197826332Y-73130580D01*
X178442857Y-120374580D02*
X178490476Y-120422200D01*
X178490476Y-120422200D02*
X178633333Y-120469819D01*
X178633333Y-120469819D02*
X178728571Y-120469819D01*
X178728571Y-120469819D02*
X178871428Y-120422200D01*
X178871428Y-120422200D02*
X178966666Y-120326961D01*
X178966666Y-120326961D02*
X179014285Y-120231723D01*
X179014285Y-120231723D02*
X179061904Y-120041247D01*
X179061904Y-120041247D02*
X179061904Y-119898390D01*
X179061904Y-119898390D02*
X179014285Y-119707914D01*
X179014285Y-119707914D02*
X178966666Y-119612676D01*
X178966666Y-119612676D02*
X178871428Y-119517438D01*
X178871428Y-119517438D02*
X178728571Y-119469819D01*
X178728571Y-119469819D02*
X178633333Y-119469819D01*
X178633333Y-119469819D02*
X178490476Y-119517438D01*
X178490476Y-119517438D02*
X178442857Y-119565057D01*
X178061904Y-119565057D02*
X178014285Y-119517438D01*
X178014285Y-119517438D02*
X177919047Y-119469819D01*
X177919047Y-119469819D02*
X177680952Y-119469819D01*
X177680952Y-119469819D02*
X177585714Y-119517438D01*
X177585714Y-119517438D02*
X177538095Y-119565057D01*
X177538095Y-119565057D02*
X177490476Y-119660295D01*
X177490476Y-119660295D02*
X177490476Y-119755533D01*
X177490476Y-119755533D02*
X177538095Y-119898390D01*
X177538095Y-119898390D02*
X178109523Y-120469819D01*
X178109523Y-120469819D02*
X177490476Y-120469819D01*
X177157142Y-119469819D02*
X176490476Y-119469819D01*
X176490476Y-119469819D02*
X176919047Y-120469819D01*
X202858666Y-105261580D02*
X202906285Y-105309200D01*
X202906285Y-105309200D02*
X203049142Y-105356819D01*
X203049142Y-105356819D02*
X203144380Y-105356819D01*
X203144380Y-105356819D02*
X203287237Y-105309200D01*
X203287237Y-105309200D02*
X203382475Y-105213961D01*
X203382475Y-105213961D02*
X203430094Y-105118723D01*
X203430094Y-105118723D02*
X203477713Y-104928247D01*
X203477713Y-104928247D02*
X203477713Y-104785390D01*
X203477713Y-104785390D02*
X203430094Y-104594914D01*
X203430094Y-104594914D02*
X203382475Y-104499676D01*
X203382475Y-104499676D02*
X203287237Y-104404438D01*
X203287237Y-104404438D02*
X203144380Y-104356819D01*
X203144380Y-104356819D02*
X203049142Y-104356819D01*
X203049142Y-104356819D02*
X202906285Y-104404438D01*
X202906285Y-104404438D02*
X202858666Y-104452057D01*
X202525332Y-104356819D02*
X201858666Y-104356819D01*
X201858666Y-104356819D02*
X202287237Y-105356819D01*
X234957857Y-81989819D02*
X235291190Y-81513628D01*
X235529285Y-81989819D02*
X235529285Y-80989819D01*
X235529285Y-80989819D02*
X235148333Y-80989819D01*
X235148333Y-80989819D02*
X235053095Y-81037438D01*
X235053095Y-81037438D02*
X235005476Y-81085057D01*
X235005476Y-81085057D02*
X234957857Y-81180295D01*
X234957857Y-81180295D02*
X234957857Y-81323152D01*
X234957857Y-81323152D02*
X235005476Y-81418390D01*
X235005476Y-81418390D02*
X235053095Y-81466009D01*
X235053095Y-81466009D02*
X235148333Y-81513628D01*
X235148333Y-81513628D02*
X235529285Y-81513628D01*
X234005476Y-81989819D02*
X234576904Y-81989819D01*
X234291190Y-81989819D02*
X234291190Y-80989819D01*
X234291190Y-80989819D02*
X234386428Y-81132676D01*
X234386428Y-81132676D02*
X234481666Y-81227914D01*
X234481666Y-81227914D02*
X234576904Y-81275533D01*
X233672142Y-80989819D02*
X233005476Y-80989819D01*
X233005476Y-80989819D02*
X233434047Y-81989819D01*
X205493857Y-92180580D02*
X205541476Y-92228200D01*
X205541476Y-92228200D02*
X205684333Y-92275819D01*
X205684333Y-92275819D02*
X205779571Y-92275819D01*
X205779571Y-92275819D02*
X205922428Y-92228200D01*
X205922428Y-92228200D02*
X206017666Y-92132961D01*
X206017666Y-92132961D02*
X206065285Y-92037723D01*
X206065285Y-92037723D02*
X206112904Y-91847247D01*
X206112904Y-91847247D02*
X206112904Y-91704390D01*
X206112904Y-91704390D02*
X206065285Y-91513914D01*
X206065285Y-91513914D02*
X206017666Y-91418676D01*
X206017666Y-91418676D02*
X205922428Y-91323438D01*
X205922428Y-91323438D02*
X205779571Y-91275819D01*
X205779571Y-91275819D02*
X205684333Y-91275819D01*
X205684333Y-91275819D02*
X205541476Y-91323438D01*
X205541476Y-91323438D02*
X205493857Y-91371057D01*
X205112904Y-91371057D02*
X205065285Y-91323438D01*
X205065285Y-91323438D02*
X204970047Y-91275819D01*
X204970047Y-91275819D02*
X204731952Y-91275819D01*
X204731952Y-91275819D02*
X204636714Y-91323438D01*
X204636714Y-91323438D02*
X204589095Y-91371057D01*
X204589095Y-91371057D02*
X204541476Y-91466295D01*
X204541476Y-91466295D02*
X204541476Y-91561533D01*
X204541476Y-91561533D02*
X204589095Y-91704390D01*
X204589095Y-91704390D02*
X205160523Y-92275819D01*
X205160523Y-92275819D02*
X204541476Y-92275819D01*
X204208142Y-91275819D02*
X203589095Y-91275819D01*
X203589095Y-91275819D02*
X203922428Y-91656771D01*
X203922428Y-91656771D02*
X203779571Y-91656771D01*
X203779571Y-91656771D02*
X203684333Y-91704390D01*
X203684333Y-91704390D02*
X203636714Y-91752009D01*
X203636714Y-91752009D02*
X203589095Y-91847247D01*
X203589095Y-91847247D02*
X203589095Y-92085342D01*
X203589095Y-92085342D02*
X203636714Y-92180580D01*
X203636714Y-92180580D02*
X203684333Y-92228200D01*
X203684333Y-92228200D02*
X203779571Y-92275819D01*
X203779571Y-92275819D02*
X204065285Y-92275819D01*
X204065285Y-92275819D02*
X204160523Y-92228200D01*
X204160523Y-92228200D02*
X204208142Y-92180580D01*
X176791857Y-129518580D02*
X176839476Y-129566200D01*
X176839476Y-129566200D02*
X176982333Y-129613819D01*
X176982333Y-129613819D02*
X177077571Y-129613819D01*
X177077571Y-129613819D02*
X177220428Y-129566200D01*
X177220428Y-129566200D02*
X177315666Y-129470961D01*
X177315666Y-129470961D02*
X177363285Y-129375723D01*
X177363285Y-129375723D02*
X177410904Y-129185247D01*
X177410904Y-129185247D02*
X177410904Y-129042390D01*
X177410904Y-129042390D02*
X177363285Y-128851914D01*
X177363285Y-128851914D02*
X177315666Y-128756676D01*
X177315666Y-128756676D02*
X177220428Y-128661438D01*
X177220428Y-128661438D02*
X177077571Y-128613819D01*
X177077571Y-128613819D02*
X176982333Y-128613819D01*
X176982333Y-128613819D02*
X176839476Y-128661438D01*
X176839476Y-128661438D02*
X176791857Y-128709057D01*
X176410904Y-128709057D02*
X176363285Y-128661438D01*
X176363285Y-128661438D02*
X176268047Y-128613819D01*
X176268047Y-128613819D02*
X176029952Y-128613819D01*
X176029952Y-128613819D02*
X175934714Y-128661438D01*
X175934714Y-128661438D02*
X175887095Y-128709057D01*
X175887095Y-128709057D02*
X175839476Y-128804295D01*
X175839476Y-128804295D02*
X175839476Y-128899533D01*
X175839476Y-128899533D02*
X175887095Y-129042390D01*
X175887095Y-129042390D02*
X176458523Y-129613819D01*
X176458523Y-129613819D02*
X175839476Y-129613819D01*
X175268047Y-129042390D02*
X175363285Y-128994771D01*
X175363285Y-128994771D02*
X175410904Y-128947152D01*
X175410904Y-128947152D02*
X175458523Y-128851914D01*
X175458523Y-128851914D02*
X175458523Y-128804295D01*
X175458523Y-128804295D02*
X175410904Y-128709057D01*
X175410904Y-128709057D02*
X175363285Y-128661438D01*
X175363285Y-128661438D02*
X175268047Y-128613819D01*
X175268047Y-128613819D02*
X175077571Y-128613819D01*
X175077571Y-128613819D02*
X174982333Y-128661438D01*
X174982333Y-128661438D02*
X174934714Y-128709057D01*
X174934714Y-128709057D02*
X174887095Y-128804295D01*
X174887095Y-128804295D02*
X174887095Y-128851914D01*
X174887095Y-128851914D02*
X174934714Y-128947152D01*
X174934714Y-128947152D02*
X174982333Y-128994771D01*
X174982333Y-128994771D02*
X175077571Y-129042390D01*
X175077571Y-129042390D02*
X175268047Y-129042390D01*
X175268047Y-129042390D02*
X175363285Y-129090009D01*
X175363285Y-129090009D02*
X175410904Y-129137628D01*
X175410904Y-129137628D02*
X175458523Y-129232866D01*
X175458523Y-129232866D02*
X175458523Y-129423342D01*
X175458523Y-129423342D02*
X175410904Y-129518580D01*
X175410904Y-129518580D02*
X175363285Y-129566200D01*
X175363285Y-129566200D02*
X175268047Y-129613819D01*
X175268047Y-129613819D02*
X175077571Y-129613819D01*
X175077571Y-129613819D02*
X174982333Y-129566200D01*
X174982333Y-129566200D02*
X174934714Y-129518580D01*
X174934714Y-129518580D02*
X174887095Y-129423342D01*
X174887095Y-129423342D02*
X174887095Y-129232866D01*
X174887095Y-129232866D02*
X174934714Y-129137628D01*
X174934714Y-129137628D02*
X174982333Y-129090009D01*
X174982333Y-129090009D02*
X175077571Y-129042390D01*
X225432857Y-104089580D02*
X225480476Y-104137200D01*
X225480476Y-104137200D02*
X225623333Y-104184819D01*
X225623333Y-104184819D02*
X225718571Y-104184819D01*
X225718571Y-104184819D02*
X225861428Y-104137200D01*
X225861428Y-104137200D02*
X225956666Y-104041961D01*
X225956666Y-104041961D02*
X226004285Y-103946723D01*
X226004285Y-103946723D02*
X226051904Y-103756247D01*
X226051904Y-103756247D02*
X226051904Y-103613390D01*
X226051904Y-103613390D02*
X226004285Y-103422914D01*
X226004285Y-103422914D02*
X225956666Y-103327676D01*
X225956666Y-103327676D02*
X225861428Y-103232438D01*
X225861428Y-103232438D02*
X225718571Y-103184819D01*
X225718571Y-103184819D02*
X225623333Y-103184819D01*
X225623333Y-103184819D02*
X225480476Y-103232438D01*
X225480476Y-103232438D02*
X225432857Y-103280057D01*
X225051904Y-103280057D02*
X225004285Y-103232438D01*
X225004285Y-103232438D02*
X224909047Y-103184819D01*
X224909047Y-103184819D02*
X224670952Y-103184819D01*
X224670952Y-103184819D02*
X224575714Y-103232438D01*
X224575714Y-103232438D02*
X224528095Y-103280057D01*
X224528095Y-103280057D02*
X224480476Y-103375295D01*
X224480476Y-103375295D02*
X224480476Y-103470533D01*
X224480476Y-103470533D02*
X224528095Y-103613390D01*
X224528095Y-103613390D02*
X225099523Y-104184819D01*
X225099523Y-104184819D02*
X224480476Y-104184819D01*
X223861428Y-103184819D02*
X223766190Y-103184819D01*
X223766190Y-103184819D02*
X223670952Y-103232438D01*
X223670952Y-103232438D02*
X223623333Y-103280057D01*
X223623333Y-103280057D02*
X223575714Y-103375295D01*
X223575714Y-103375295D02*
X223528095Y-103565771D01*
X223528095Y-103565771D02*
X223528095Y-103803866D01*
X223528095Y-103803866D02*
X223575714Y-103994342D01*
X223575714Y-103994342D02*
X223623333Y-104089580D01*
X223623333Y-104089580D02*
X223670952Y-104137200D01*
X223670952Y-104137200D02*
X223766190Y-104184819D01*
X223766190Y-104184819D02*
X223861428Y-104184819D01*
X223861428Y-104184819D02*
X223956666Y-104137200D01*
X223956666Y-104137200D02*
X224004285Y-104089580D01*
X224004285Y-104089580D02*
X224051904Y-103994342D01*
X224051904Y-103994342D02*
X224099523Y-103803866D01*
X224099523Y-103803866D02*
X224099523Y-103565771D01*
X224099523Y-103565771D02*
X224051904Y-103375295D01*
X224051904Y-103375295D02*
X224004285Y-103280057D01*
X224004285Y-103280057D02*
X223956666Y-103232438D01*
X223956666Y-103232438D02*
X223861428Y-103184819D01*
X207049666Y-95797580D02*
X207097285Y-95845200D01*
X207097285Y-95845200D02*
X207240142Y-95892819D01*
X207240142Y-95892819D02*
X207335380Y-95892819D01*
X207335380Y-95892819D02*
X207478237Y-95845200D01*
X207478237Y-95845200D02*
X207573475Y-95749961D01*
X207573475Y-95749961D02*
X207621094Y-95654723D01*
X207621094Y-95654723D02*
X207668713Y-95464247D01*
X207668713Y-95464247D02*
X207668713Y-95321390D01*
X207668713Y-95321390D02*
X207621094Y-95130914D01*
X207621094Y-95130914D02*
X207573475Y-95035676D01*
X207573475Y-95035676D02*
X207478237Y-94940438D01*
X207478237Y-94940438D02*
X207335380Y-94892819D01*
X207335380Y-94892819D02*
X207240142Y-94892819D01*
X207240142Y-94892819D02*
X207097285Y-94940438D01*
X207097285Y-94940438D02*
X207049666Y-94988057D01*
X206144904Y-94892819D02*
X206621094Y-94892819D01*
X206621094Y-94892819D02*
X206668713Y-95369009D01*
X206668713Y-95369009D02*
X206621094Y-95321390D01*
X206621094Y-95321390D02*
X206525856Y-95273771D01*
X206525856Y-95273771D02*
X206287761Y-95273771D01*
X206287761Y-95273771D02*
X206192523Y-95321390D01*
X206192523Y-95321390D02*
X206144904Y-95369009D01*
X206144904Y-95369009D02*
X206097285Y-95464247D01*
X206097285Y-95464247D02*
X206097285Y-95702342D01*
X206097285Y-95702342D02*
X206144904Y-95797580D01*
X206144904Y-95797580D02*
X206192523Y-95845200D01*
X206192523Y-95845200D02*
X206287761Y-95892819D01*
X206287761Y-95892819D02*
X206525856Y-95892819D01*
X206525856Y-95892819D02*
X206621094Y-95845200D01*
X206621094Y-95845200D02*
X206668713Y-95797580D01*
X209500666Y-95797580D02*
X209548285Y-95845200D01*
X209548285Y-95845200D02*
X209691142Y-95892819D01*
X209691142Y-95892819D02*
X209786380Y-95892819D01*
X209786380Y-95892819D02*
X209929237Y-95845200D01*
X209929237Y-95845200D02*
X210024475Y-95749961D01*
X210024475Y-95749961D02*
X210072094Y-95654723D01*
X210072094Y-95654723D02*
X210119713Y-95464247D01*
X210119713Y-95464247D02*
X210119713Y-95321390D01*
X210119713Y-95321390D02*
X210072094Y-95130914D01*
X210072094Y-95130914D02*
X210024475Y-95035676D01*
X210024475Y-95035676D02*
X209929237Y-94940438D01*
X209929237Y-94940438D02*
X209786380Y-94892819D01*
X209786380Y-94892819D02*
X209691142Y-94892819D01*
X209691142Y-94892819D02*
X209548285Y-94940438D01*
X209548285Y-94940438D02*
X209500666Y-94988057D01*
X208643523Y-95226152D02*
X208643523Y-95892819D01*
X208881618Y-94845200D02*
X209119713Y-95559485D01*
X209119713Y-95559485D02*
X208500666Y-95559485D01*
X193206666Y-103832819D02*
X193539999Y-103356628D01*
X193778094Y-103832819D02*
X193778094Y-102832819D01*
X193778094Y-102832819D02*
X193397142Y-102832819D01*
X193397142Y-102832819D02*
X193301904Y-102880438D01*
X193301904Y-102880438D02*
X193254285Y-102928057D01*
X193254285Y-102928057D02*
X193206666Y-103023295D01*
X193206666Y-103023295D02*
X193206666Y-103166152D01*
X193206666Y-103166152D02*
X193254285Y-103261390D01*
X193254285Y-103261390D02*
X193301904Y-103309009D01*
X193301904Y-103309009D02*
X193397142Y-103356628D01*
X193397142Y-103356628D02*
X193778094Y-103356628D01*
X192301904Y-102832819D02*
X192778094Y-102832819D01*
X192778094Y-102832819D02*
X192825713Y-103309009D01*
X192825713Y-103309009D02*
X192778094Y-103261390D01*
X192778094Y-103261390D02*
X192682856Y-103213771D01*
X192682856Y-103213771D02*
X192444761Y-103213771D01*
X192444761Y-103213771D02*
X192349523Y-103261390D01*
X192349523Y-103261390D02*
X192301904Y-103309009D01*
X192301904Y-103309009D02*
X192254285Y-103404247D01*
X192254285Y-103404247D02*
X192254285Y-103642342D01*
X192254285Y-103642342D02*
X192301904Y-103737580D01*
X192301904Y-103737580D02*
X192349523Y-103785200D01*
X192349523Y-103785200D02*
X192444761Y-103832819D01*
X192444761Y-103832819D02*
X192682856Y-103832819D01*
X192682856Y-103832819D02*
X192778094Y-103785200D01*
X192778094Y-103785200D02*
X192825713Y-103737580D01*
X201048857Y-97514580D02*
X201096476Y-97562200D01*
X201096476Y-97562200D02*
X201239333Y-97609819D01*
X201239333Y-97609819D02*
X201334571Y-97609819D01*
X201334571Y-97609819D02*
X201477428Y-97562200D01*
X201477428Y-97562200D02*
X201572666Y-97466961D01*
X201572666Y-97466961D02*
X201620285Y-97371723D01*
X201620285Y-97371723D02*
X201667904Y-97181247D01*
X201667904Y-97181247D02*
X201667904Y-97038390D01*
X201667904Y-97038390D02*
X201620285Y-96847914D01*
X201620285Y-96847914D02*
X201572666Y-96752676D01*
X201572666Y-96752676D02*
X201477428Y-96657438D01*
X201477428Y-96657438D02*
X201334571Y-96609819D01*
X201334571Y-96609819D02*
X201239333Y-96609819D01*
X201239333Y-96609819D02*
X201096476Y-96657438D01*
X201096476Y-96657438D02*
X201048857Y-96705057D01*
X200667904Y-96705057D02*
X200620285Y-96657438D01*
X200620285Y-96657438D02*
X200525047Y-96609819D01*
X200525047Y-96609819D02*
X200286952Y-96609819D01*
X200286952Y-96609819D02*
X200191714Y-96657438D01*
X200191714Y-96657438D02*
X200144095Y-96705057D01*
X200144095Y-96705057D02*
X200096476Y-96800295D01*
X200096476Y-96800295D02*
X200096476Y-96895533D01*
X200096476Y-96895533D02*
X200144095Y-97038390D01*
X200144095Y-97038390D02*
X200715523Y-97609819D01*
X200715523Y-97609819D02*
X200096476Y-97609819D01*
X199191714Y-96609819D02*
X199667904Y-96609819D01*
X199667904Y-96609819D02*
X199715523Y-97086009D01*
X199715523Y-97086009D02*
X199667904Y-97038390D01*
X199667904Y-97038390D02*
X199572666Y-96990771D01*
X199572666Y-96990771D02*
X199334571Y-96990771D01*
X199334571Y-96990771D02*
X199239333Y-97038390D01*
X199239333Y-97038390D02*
X199191714Y-97086009D01*
X199191714Y-97086009D02*
X199144095Y-97181247D01*
X199144095Y-97181247D02*
X199144095Y-97419342D01*
X199144095Y-97419342D02*
X199191714Y-97514580D01*
X199191714Y-97514580D02*
X199239333Y-97562200D01*
X199239333Y-97562200D02*
X199334571Y-97609819D01*
X199334571Y-97609819D02*
X199572666Y-97609819D01*
X199572666Y-97609819D02*
X199667904Y-97562200D01*
X199667904Y-97562200D02*
X199715523Y-97514580D01*
X210859666Y-107801580D02*
X210907285Y-107849200D01*
X210907285Y-107849200D02*
X211050142Y-107896819D01*
X211050142Y-107896819D02*
X211145380Y-107896819D01*
X211145380Y-107896819D02*
X211288237Y-107849200D01*
X211288237Y-107849200D02*
X211383475Y-107753961D01*
X211383475Y-107753961D02*
X211431094Y-107658723D01*
X211431094Y-107658723D02*
X211478713Y-107468247D01*
X211478713Y-107468247D02*
X211478713Y-107325390D01*
X211478713Y-107325390D02*
X211431094Y-107134914D01*
X211431094Y-107134914D02*
X211383475Y-107039676D01*
X211383475Y-107039676D02*
X211288237Y-106944438D01*
X211288237Y-106944438D02*
X211145380Y-106896819D01*
X211145380Y-106896819D02*
X211050142Y-106896819D01*
X211050142Y-106896819D02*
X210907285Y-106944438D01*
X210907285Y-106944438D02*
X210859666Y-106992057D01*
X210002523Y-106896819D02*
X210192999Y-106896819D01*
X210192999Y-106896819D02*
X210288237Y-106944438D01*
X210288237Y-106944438D02*
X210335856Y-106992057D01*
X210335856Y-106992057D02*
X210431094Y-107134914D01*
X210431094Y-107134914D02*
X210478713Y-107325390D01*
X210478713Y-107325390D02*
X210478713Y-107706342D01*
X210478713Y-107706342D02*
X210431094Y-107801580D01*
X210431094Y-107801580D02*
X210383475Y-107849200D01*
X210383475Y-107849200D02*
X210288237Y-107896819D01*
X210288237Y-107896819D02*
X210097761Y-107896819D01*
X210097761Y-107896819D02*
X210002523Y-107849200D01*
X210002523Y-107849200D02*
X209954904Y-107801580D01*
X209954904Y-107801580D02*
X209907285Y-107706342D01*
X209907285Y-107706342D02*
X209907285Y-107468247D01*
X209907285Y-107468247D02*
X209954904Y-107373009D01*
X209954904Y-107373009D02*
X210002523Y-107325390D01*
X210002523Y-107325390D02*
X210097761Y-107277771D01*
X210097761Y-107277771D02*
X210288237Y-107277771D01*
X210288237Y-107277771D02*
X210383475Y-107325390D01*
X210383475Y-107325390D02*
X210431094Y-107373009D01*
X210431094Y-107373009D02*
X210478713Y-107468247D01*
X199397857Y-100435580D02*
X199445476Y-100483200D01*
X199445476Y-100483200D02*
X199588333Y-100530819D01*
X199588333Y-100530819D02*
X199683571Y-100530819D01*
X199683571Y-100530819D02*
X199826428Y-100483200D01*
X199826428Y-100483200D02*
X199921666Y-100387961D01*
X199921666Y-100387961D02*
X199969285Y-100292723D01*
X199969285Y-100292723D02*
X200016904Y-100102247D01*
X200016904Y-100102247D02*
X200016904Y-99959390D01*
X200016904Y-99959390D02*
X199969285Y-99768914D01*
X199969285Y-99768914D02*
X199921666Y-99673676D01*
X199921666Y-99673676D02*
X199826428Y-99578438D01*
X199826428Y-99578438D02*
X199683571Y-99530819D01*
X199683571Y-99530819D02*
X199588333Y-99530819D01*
X199588333Y-99530819D02*
X199445476Y-99578438D01*
X199445476Y-99578438D02*
X199397857Y-99626057D01*
X198445476Y-100530819D02*
X199016904Y-100530819D01*
X198731190Y-100530819D02*
X198731190Y-99530819D01*
X198731190Y-99530819D02*
X198826428Y-99673676D01*
X198826428Y-99673676D02*
X198921666Y-99768914D01*
X198921666Y-99768914D02*
X199016904Y-99816533D01*
X198112142Y-99530819D02*
X197493095Y-99530819D01*
X197493095Y-99530819D02*
X197826428Y-99911771D01*
X197826428Y-99911771D02*
X197683571Y-99911771D01*
X197683571Y-99911771D02*
X197588333Y-99959390D01*
X197588333Y-99959390D02*
X197540714Y-100007009D01*
X197540714Y-100007009D02*
X197493095Y-100102247D01*
X197493095Y-100102247D02*
X197493095Y-100340342D01*
X197493095Y-100340342D02*
X197540714Y-100435580D01*
X197540714Y-100435580D02*
X197588333Y-100483200D01*
X197588333Y-100483200D02*
X197683571Y-100530819D01*
X197683571Y-100530819D02*
X197969285Y-100530819D01*
X197969285Y-100530819D02*
X198064523Y-100483200D01*
X198064523Y-100483200D02*
X198112142Y-100435580D01*
X182760857Y-70971580D02*
X182808476Y-71019200D01*
X182808476Y-71019200D02*
X182951333Y-71066819D01*
X182951333Y-71066819D02*
X183046571Y-71066819D01*
X183046571Y-71066819D02*
X183189428Y-71019200D01*
X183189428Y-71019200D02*
X183284666Y-70923961D01*
X183284666Y-70923961D02*
X183332285Y-70828723D01*
X183332285Y-70828723D02*
X183379904Y-70638247D01*
X183379904Y-70638247D02*
X183379904Y-70495390D01*
X183379904Y-70495390D02*
X183332285Y-70304914D01*
X183332285Y-70304914D02*
X183284666Y-70209676D01*
X183284666Y-70209676D02*
X183189428Y-70114438D01*
X183189428Y-70114438D02*
X183046571Y-70066819D01*
X183046571Y-70066819D02*
X182951333Y-70066819D01*
X182951333Y-70066819D02*
X182808476Y-70114438D01*
X182808476Y-70114438D02*
X182760857Y-70162057D01*
X181808476Y-71066819D02*
X182379904Y-71066819D01*
X182094190Y-71066819D02*
X182094190Y-70066819D01*
X182094190Y-70066819D02*
X182189428Y-70209676D01*
X182189428Y-70209676D02*
X182284666Y-70304914D01*
X182284666Y-70304914D02*
X182379904Y-70352533D01*
X181475142Y-70066819D02*
X180808476Y-70066819D01*
X180808476Y-70066819D02*
X181237047Y-71066819D01*
X203366666Y-110849580D02*
X203414285Y-110897200D01*
X203414285Y-110897200D02*
X203557142Y-110944819D01*
X203557142Y-110944819D02*
X203652380Y-110944819D01*
X203652380Y-110944819D02*
X203795237Y-110897200D01*
X203795237Y-110897200D02*
X203890475Y-110801961D01*
X203890475Y-110801961D02*
X203938094Y-110706723D01*
X203938094Y-110706723D02*
X203985713Y-110516247D01*
X203985713Y-110516247D02*
X203985713Y-110373390D01*
X203985713Y-110373390D02*
X203938094Y-110182914D01*
X203938094Y-110182914D02*
X203890475Y-110087676D01*
X203890475Y-110087676D02*
X203795237Y-109992438D01*
X203795237Y-109992438D02*
X203652380Y-109944819D01*
X203652380Y-109944819D02*
X203557142Y-109944819D01*
X203557142Y-109944819D02*
X203414285Y-109992438D01*
X203414285Y-109992438D02*
X203366666Y-110040057D01*
X202795237Y-110373390D02*
X202890475Y-110325771D01*
X202890475Y-110325771D02*
X202938094Y-110278152D01*
X202938094Y-110278152D02*
X202985713Y-110182914D01*
X202985713Y-110182914D02*
X202985713Y-110135295D01*
X202985713Y-110135295D02*
X202938094Y-110040057D01*
X202938094Y-110040057D02*
X202890475Y-109992438D01*
X202890475Y-109992438D02*
X202795237Y-109944819D01*
X202795237Y-109944819D02*
X202604761Y-109944819D01*
X202604761Y-109944819D02*
X202509523Y-109992438D01*
X202509523Y-109992438D02*
X202461904Y-110040057D01*
X202461904Y-110040057D02*
X202414285Y-110135295D01*
X202414285Y-110135295D02*
X202414285Y-110182914D01*
X202414285Y-110182914D02*
X202461904Y-110278152D01*
X202461904Y-110278152D02*
X202509523Y-110325771D01*
X202509523Y-110325771D02*
X202604761Y-110373390D01*
X202604761Y-110373390D02*
X202795237Y-110373390D01*
X202795237Y-110373390D02*
X202890475Y-110421009D01*
X202890475Y-110421009D02*
X202938094Y-110468628D01*
X202938094Y-110468628D02*
X202985713Y-110563866D01*
X202985713Y-110563866D02*
X202985713Y-110754342D01*
X202985713Y-110754342D02*
X202938094Y-110849580D01*
X202938094Y-110849580D02*
X202890475Y-110897200D01*
X202890475Y-110897200D02*
X202795237Y-110944819D01*
X202795237Y-110944819D02*
X202604761Y-110944819D01*
X202604761Y-110944819D02*
X202509523Y-110897200D01*
X202509523Y-110897200D02*
X202461904Y-110849580D01*
X202461904Y-110849580D02*
X202414285Y-110754342D01*
X202414285Y-110754342D02*
X202414285Y-110563866D01*
X202414285Y-110563866D02*
X202461904Y-110468628D01*
X202461904Y-110468628D02*
X202509523Y-110421009D01*
X202509523Y-110421009D02*
X202604761Y-110373390D01*
X200032857Y-108944580D02*
X200080476Y-108992200D01*
X200080476Y-108992200D02*
X200223333Y-109039819D01*
X200223333Y-109039819D02*
X200318571Y-109039819D01*
X200318571Y-109039819D02*
X200461428Y-108992200D01*
X200461428Y-108992200D02*
X200556666Y-108896961D01*
X200556666Y-108896961D02*
X200604285Y-108801723D01*
X200604285Y-108801723D02*
X200651904Y-108611247D01*
X200651904Y-108611247D02*
X200651904Y-108468390D01*
X200651904Y-108468390D02*
X200604285Y-108277914D01*
X200604285Y-108277914D02*
X200556666Y-108182676D01*
X200556666Y-108182676D02*
X200461428Y-108087438D01*
X200461428Y-108087438D02*
X200318571Y-108039819D01*
X200318571Y-108039819D02*
X200223333Y-108039819D01*
X200223333Y-108039819D02*
X200080476Y-108087438D01*
X200080476Y-108087438D02*
X200032857Y-108135057D01*
X199080476Y-109039819D02*
X199651904Y-109039819D01*
X199366190Y-109039819D02*
X199366190Y-108039819D01*
X199366190Y-108039819D02*
X199461428Y-108182676D01*
X199461428Y-108182676D02*
X199556666Y-108277914D01*
X199556666Y-108277914D02*
X199651904Y-108325533D01*
X198128095Y-109039819D02*
X198699523Y-109039819D01*
X198413809Y-109039819D02*
X198413809Y-108039819D01*
X198413809Y-108039819D02*
X198509047Y-108182676D01*
X198509047Y-108182676D02*
X198604285Y-108277914D01*
X198604285Y-108277914D02*
X198699523Y-108325533D01*
X158884857Y-109294819D02*
X159218190Y-108818628D01*
X159456285Y-109294819D02*
X159456285Y-108294819D01*
X159456285Y-108294819D02*
X159075333Y-108294819D01*
X159075333Y-108294819D02*
X158980095Y-108342438D01*
X158980095Y-108342438D02*
X158932476Y-108390057D01*
X158932476Y-108390057D02*
X158884857Y-108485295D01*
X158884857Y-108485295D02*
X158884857Y-108628152D01*
X158884857Y-108628152D02*
X158932476Y-108723390D01*
X158932476Y-108723390D02*
X158980095Y-108771009D01*
X158980095Y-108771009D02*
X159075333Y-108818628D01*
X159075333Y-108818628D02*
X159456285Y-108818628D01*
X158551523Y-108294819D02*
X157932476Y-108294819D01*
X157932476Y-108294819D02*
X158265809Y-108675771D01*
X158265809Y-108675771D02*
X158122952Y-108675771D01*
X158122952Y-108675771D02*
X158027714Y-108723390D01*
X158027714Y-108723390D02*
X157980095Y-108771009D01*
X157980095Y-108771009D02*
X157932476Y-108866247D01*
X157932476Y-108866247D02*
X157932476Y-109104342D01*
X157932476Y-109104342D02*
X157980095Y-109199580D01*
X157980095Y-109199580D02*
X158027714Y-109247200D01*
X158027714Y-109247200D02*
X158122952Y-109294819D01*
X158122952Y-109294819D02*
X158408666Y-109294819D01*
X158408666Y-109294819D02*
X158503904Y-109247200D01*
X158503904Y-109247200D02*
X158551523Y-109199580D01*
X157313428Y-108294819D02*
X157218190Y-108294819D01*
X157218190Y-108294819D02*
X157122952Y-108342438D01*
X157122952Y-108342438D02*
X157075333Y-108390057D01*
X157075333Y-108390057D02*
X157027714Y-108485295D01*
X157027714Y-108485295D02*
X156980095Y-108675771D01*
X156980095Y-108675771D02*
X156980095Y-108913866D01*
X156980095Y-108913866D02*
X157027714Y-109104342D01*
X157027714Y-109104342D02*
X157075333Y-109199580D01*
X157075333Y-109199580D02*
X157122952Y-109247200D01*
X157122952Y-109247200D02*
X157218190Y-109294819D01*
X157218190Y-109294819D02*
X157313428Y-109294819D01*
X157313428Y-109294819D02*
X157408666Y-109247200D01*
X157408666Y-109247200D02*
X157456285Y-109199580D01*
X157456285Y-109199580D02*
X157503904Y-109104342D01*
X157503904Y-109104342D02*
X157551523Y-108913866D01*
X157551523Y-108913866D02*
X157551523Y-108675771D01*
X157551523Y-108675771D02*
X157503904Y-108485295D01*
X157503904Y-108485295D02*
X157456285Y-108390057D01*
X157456285Y-108390057D02*
X157408666Y-108342438D01*
X157408666Y-108342438D02*
X157313428Y-108294819D01*
X209462666Y-103070819D02*
X209795999Y-102594628D01*
X210034094Y-103070819D02*
X210034094Y-102070819D01*
X210034094Y-102070819D02*
X209653142Y-102070819D01*
X209653142Y-102070819D02*
X209557904Y-102118438D01*
X209557904Y-102118438D02*
X209510285Y-102166057D01*
X209510285Y-102166057D02*
X209462666Y-102261295D01*
X209462666Y-102261295D02*
X209462666Y-102404152D01*
X209462666Y-102404152D02*
X209510285Y-102499390D01*
X209510285Y-102499390D02*
X209557904Y-102547009D01*
X209557904Y-102547009D02*
X209653142Y-102594628D01*
X209653142Y-102594628D02*
X210034094Y-102594628D01*
X209081713Y-102166057D02*
X209034094Y-102118438D01*
X209034094Y-102118438D02*
X208938856Y-102070819D01*
X208938856Y-102070819D02*
X208700761Y-102070819D01*
X208700761Y-102070819D02*
X208605523Y-102118438D01*
X208605523Y-102118438D02*
X208557904Y-102166057D01*
X208557904Y-102166057D02*
X208510285Y-102261295D01*
X208510285Y-102261295D02*
X208510285Y-102356533D01*
X208510285Y-102356533D02*
X208557904Y-102499390D01*
X208557904Y-102499390D02*
X209129332Y-103070819D01*
X209129332Y-103070819D02*
X208510285Y-103070819D01*
X223527857Y-112021580D02*
X223575476Y-112069200D01*
X223575476Y-112069200D02*
X223718333Y-112116819D01*
X223718333Y-112116819D02*
X223813571Y-112116819D01*
X223813571Y-112116819D02*
X223956428Y-112069200D01*
X223956428Y-112069200D02*
X224051666Y-111973961D01*
X224051666Y-111973961D02*
X224099285Y-111878723D01*
X224099285Y-111878723D02*
X224146904Y-111688247D01*
X224146904Y-111688247D02*
X224146904Y-111545390D01*
X224146904Y-111545390D02*
X224099285Y-111354914D01*
X224099285Y-111354914D02*
X224051666Y-111259676D01*
X224051666Y-111259676D02*
X223956428Y-111164438D01*
X223956428Y-111164438D02*
X223813571Y-111116819D01*
X223813571Y-111116819D02*
X223718333Y-111116819D01*
X223718333Y-111116819D02*
X223575476Y-111164438D01*
X223575476Y-111164438D02*
X223527857Y-111212057D01*
X223146904Y-111212057D02*
X223099285Y-111164438D01*
X223099285Y-111164438D02*
X223004047Y-111116819D01*
X223004047Y-111116819D02*
X222765952Y-111116819D01*
X222765952Y-111116819D02*
X222670714Y-111164438D01*
X222670714Y-111164438D02*
X222623095Y-111212057D01*
X222623095Y-111212057D02*
X222575476Y-111307295D01*
X222575476Y-111307295D02*
X222575476Y-111402533D01*
X222575476Y-111402533D02*
X222623095Y-111545390D01*
X222623095Y-111545390D02*
X223194523Y-112116819D01*
X223194523Y-112116819D02*
X222575476Y-112116819D01*
X222194523Y-111212057D02*
X222146904Y-111164438D01*
X222146904Y-111164438D02*
X222051666Y-111116819D01*
X222051666Y-111116819D02*
X221813571Y-111116819D01*
X221813571Y-111116819D02*
X221718333Y-111164438D01*
X221718333Y-111164438D02*
X221670714Y-111212057D01*
X221670714Y-111212057D02*
X221623095Y-111307295D01*
X221623095Y-111307295D02*
X221623095Y-111402533D01*
X221623095Y-111402533D02*
X221670714Y-111545390D01*
X221670714Y-111545390D02*
X222242142Y-112116819D01*
X222242142Y-112116819D02*
X221623095Y-112116819D01*
X233560857Y-90878819D02*
X233894190Y-90402628D01*
X234132285Y-90878819D02*
X234132285Y-89878819D01*
X234132285Y-89878819D02*
X233751333Y-89878819D01*
X233751333Y-89878819D02*
X233656095Y-89926438D01*
X233656095Y-89926438D02*
X233608476Y-89974057D01*
X233608476Y-89974057D02*
X233560857Y-90069295D01*
X233560857Y-90069295D02*
X233560857Y-90212152D01*
X233560857Y-90212152D02*
X233608476Y-90307390D01*
X233608476Y-90307390D02*
X233656095Y-90355009D01*
X233656095Y-90355009D02*
X233751333Y-90402628D01*
X233751333Y-90402628D02*
X234132285Y-90402628D01*
X232608476Y-90878819D02*
X233179904Y-90878819D01*
X232894190Y-90878819D02*
X232894190Y-89878819D01*
X232894190Y-89878819D02*
X232989428Y-90021676D01*
X232989428Y-90021676D02*
X233084666Y-90116914D01*
X233084666Y-90116914D02*
X233179904Y-90164533D01*
X232275142Y-89878819D02*
X231656095Y-89878819D01*
X231656095Y-89878819D02*
X231989428Y-90259771D01*
X231989428Y-90259771D02*
X231846571Y-90259771D01*
X231846571Y-90259771D02*
X231751333Y-90307390D01*
X231751333Y-90307390D02*
X231703714Y-90355009D01*
X231703714Y-90355009D02*
X231656095Y-90450247D01*
X231656095Y-90450247D02*
X231656095Y-90688342D01*
X231656095Y-90688342D02*
X231703714Y-90783580D01*
X231703714Y-90783580D02*
X231751333Y-90831200D01*
X231751333Y-90831200D02*
X231846571Y-90878819D01*
X231846571Y-90878819D02*
X232132285Y-90878819D01*
X232132285Y-90878819D02*
X232227523Y-90831200D01*
X232227523Y-90831200D02*
X232275142Y-90783580D01*
X238259857Y-90243819D02*
X238593190Y-89767628D01*
X238831285Y-90243819D02*
X238831285Y-89243819D01*
X238831285Y-89243819D02*
X238450333Y-89243819D01*
X238450333Y-89243819D02*
X238355095Y-89291438D01*
X238355095Y-89291438D02*
X238307476Y-89339057D01*
X238307476Y-89339057D02*
X238259857Y-89434295D01*
X238259857Y-89434295D02*
X238259857Y-89577152D01*
X238259857Y-89577152D02*
X238307476Y-89672390D01*
X238307476Y-89672390D02*
X238355095Y-89720009D01*
X238355095Y-89720009D02*
X238450333Y-89767628D01*
X238450333Y-89767628D02*
X238831285Y-89767628D01*
X237307476Y-90243819D02*
X237878904Y-90243819D01*
X237593190Y-90243819D02*
X237593190Y-89243819D01*
X237593190Y-89243819D02*
X237688428Y-89386676D01*
X237688428Y-89386676D02*
X237783666Y-89481914D01*
X237783666Y-89481914D02*
X237878904Y-89529533D01*
X236355095Y-90243819D02*
X236926523Y-90243819D01*
X236640809Y-90243819D02*
X236640809Y-89243819D01*
X236640809Y-89243819D02*
X236736047Y-89386676D01*
X236736047Y-89386676D02*
X236831285Y-89481914D01*
X236831285Y-89481914D02*
X236926523Y-89529533D01*
X162440857Y-118056819D02*
X162774190Y-117580628D01*
X163012285Y-118056819D02*
X163012285Y-117056819D01*
X163012285Y-117056819D02*
X162631333Y-117056819D01*
X162631333Y-117056819D02*
X162536095Y-117104438D01*
X162536095Y-117104438D02*
X162488476Y-117152057D01*
X162488476Y-117152057D02*
X162440857Y-117247295D01*
X162440857Y-117247295D02*
X162440857Y-117390152D01*
X162440857Y-117390152D02*
X162488476Y-117485390D01*
X162488476Y-117485390D02*
X162536095Y-117533009D01*
X162536095Y-117533009D02*
X162631333Y-117580628D01*
X162631333Y-117580628D02*
X163012285Y-117580628D01*
X162059904Y-117152057D02*
X162012285Y-117104438D01*
X162012285Y-117104438D02*
X161917047Y-117056819D01*
X161917047Y-117056819D02*
X161678952Y-117056819D01*
X161678952Y-117056819D02*
X161583714Y-117104438D01*
X161583714Y-117104438D02*
X161536095Y-117152057D01*
X161536095Y-117152057D02*
X161488476Y-117247295D01*
X161488476Y-117247295D02*
X161488476Y-117342533D01*
X161488476Y-117342533D02*
X161536095Y-117485390D01*
X161536095Y-117485390D02*
X162107523Y-118056819D01*
X162107523Y-118056819D02*
X161488476Y-118056819D01*
X161155142Y-117056819D02*
X160488476Y-117056819D01*
X160488476Y-117056819D02*
X160917047Y-118056819D01*
X239815666Y-102054819D02*
X240148999Y-101578628D01*
X240387094Y-102054819D02*
X240387094Y-101054819D01*
X240387094Y-101054819D02*
X240006142Y-101054819D01*
X240006142Y-101054819D02*
X239910904Y-101102438D01*
X239910904Y-101102438D02*
X239863285Y-101150057D01*
X239863285Y-101150057D02*
X239815666Y-101245295D01*
X239815666Y-101245295D02*
X239815666Y-101388152D01*
X239815666Y-101388152D02*
X239863285Y-101483390D01*
X239863285Y-101483390D02*
X239910904Y-101531009D01*
X239910904Y-101531009D02*
X240006142Y-101578628D01*
X240006142Y-101578628D02*
X240387094Y-101578628D01*
X239339475Y-102054819D02*
X239148999Y-102054819D01*
X239148999Y-102054819D02*
X239053761Y-102007200D01*
X239053761Y-102007200D02*
X239006142Y-101959580D01*
X239006142Y-101959580D02*
X238910904Y-101816723D01*
X238910904Y-101816723D02*
X238863285Y-101626247D01*
X238863285Y-101626247D02*
X238863285Y-101245295D01*
X238863285Y-101245295D02*
X238910904Y-101150057D01*
X238910904Y-101150057D02*
X238958523Y-101102438D01*
X238958523Y-101102438D02*
X239053761Y-101054819D01*
X239053761Y-101054819D02*
X239244237Y-101054819D01*
X239244237Y-101054819D02*
X239339475Y-101102438D01*
X239339475Y-101102438D02*
X239387094Y-101150057D01*
X239387094Y-101150057D02*
X239434713Y-101245295D01*
X239434713Y-101245295D02*
X239434713Y-101483390D01*
X239434713Y-101483390D02*
X239387094Y-101578628D01*
X239387094Y-101578628D02*
X239339475Y-101626247D01*
X239339475Y-101626247D02*
X239244237Y-101673866D01*
X239244237Y-101673866D02*
X239053761Y-101673866D01*
X239053761Y-101673866D02*
X238958523Y-101626247D01*
X238958523Y-101626247D02*
X238910904Y-101578628D01*
X238910904Y-101578628D02*
X238863285Y-101483390D01*
X205493857Y-100435580D02*
X205541476Y-100483200D01*
X205541476Y-100483200D02*
X205684333Y-100530819D01*
X205684333Y-100530819D02*
X205779571Y-100530819D01*
X205779571Y-100530819D02*
X205922428Y-100483200D01*
X205922428Y-100483200D02*
X206017666Y-100387961D01*
X206017666Y-100387961D02*
X206065285Y-100292723D01*
X206065285Y-100292723D02*
X206112904Y-100102247D01*
X206112904Y-100102247D02*
X206112904Y-99959390D01*
X206112904Y-99959390D02*
X206065285Y-99768914D01*
X206065285Y-99768914D02*
X206017666Y-99673676D01*
X206017666Y-99673676D02*
X205922428Y-99578438D01*
X205922428Y-99578438D02*
X205779571Y-99530819D01*
X205779571Y-99530819D02*
X205684333Y-99530819D01*
X205684333Y-99530819D02*
X205541476Y-99578438D01*
X205541476Y-99578438D02*
X205493857Y-99626057D01*
X204541476Y-100530819D02*
X205112904Y-100530819D01*
X204827190Y-100530819D02*
X204827190Y-99530819D01*
X204827190Y-99530819D02*
X204922428Y-99673676D01*
X204922428Y-99673676D02*
X205017666Y-99768914D01*
X205017666Y-99768914D02*
X205112904Y-99816533D01*
X203636714Y-99530819D02*
X204112904Y-99530819D01*
X204112904Y-99530819D02*
X204160523Y-100007009D01*
X204160523Y-100007009D02*
X204112904Y-99959390D01*
X204112904Y-99959390D02*
X204017666Y-99911771D01*
X204017666Y-99911771D02*
X203779571Y-99911771D01*
X203779571Y-99911771D02*
X203684333Y-99959390D01*
X203684333Y-99959390D02*
X203636714Y-100007009D01*
X203636714Y-100007009D02*
X203589095Y-100102247D01*
X203589095Y-100102247D02*
X203589095Y-100340342D01*
X203589095Y-100340342D02*
X203636714Y-100435580D01*
X203636714Y-100435580D02*
X203684333Y-100483200D01*
X203684333Y-100483200D02*
X203779571Y-100530819D01*
X203779571Y-100530819D02*
X204017666Y-100530819D01*
X204017666Y-100530819D02*
X204112904Y-100483200D01*
X204112904Y-100483200D02*
X204160523Y-100435580D01*
X233687857Y-77544819D02*
X234021190Y-77068628D01*
X234259285Y-77544819D02*
X234259285Y-76544819D01*
X234259285Y-76544819D02*
X233878333Y-76544819D01*
X233878333Y-76544819D02*
X233783095Y-76592438D01*
X233783095Y-76592438D02*
X233735476Y-76640057D01*
X233735476Y-76640057D02*
X233687857Y-76735295D01*
X233687857Y-76735295D02*
X233687857Y-76878152D01*
X233687857Y-76878152D02*
X233735476Y-76973390D01*
X233735476Y-76973390D02*
X233783095Y-77021009D01*
X233783095Y-77021009D02*
X233878333Y-77068628D01*
X233878333Y-77068628D02*
X234259285Y-77068628D01*
X232735476Y-77544819D02*
X233306904Y-77544819D01*
X233021190Y-77544819D02*
X233021190Y-76544819D01*
X233021190Y-76544819D02*
X233116428Y-76687676D01*
X233116428Y-76687676D02*
X233211666Y-76782914D01*
X233211666Y-76782914D02*
X233306904Y-76830533D01*
X231830714Y-76544819D02*
X232306904Y-76544819D01*
X232306904Y-76544819D02*
X232354523Y-77021009D01*
X232354523Y-77021009D02*
X232306904Y-76973390D01*
X232306904Y-76973390D02*
X232211666Y-76925771D01*
X232211666Y-76925771D02*
X231973571Y-76925771D01*
X231973571Y-76925771D02*
X231878333Y-76973390D01*
X231878333Y-76973390D02*
X231830714Y-77021009D01*
X231830714Y-77021009D02*
X231783095Y-77116247D01*
X231783095Y-77116247D02*
X231783095Y-77354342D01*
X231783095Y-77354342D02*
X231830714Y-77449580D01*
X231830714Y-77449580D02*
X231878333Y-77497200D01*
X231878333Y-77497200D02*
X231973571Y-77544819D01*
X231973571Y-77544819D02*
X232211666Y-77544819D01*
X232211666Y-77544819D02*
X232306904Y-77497200D01*
X232306904Y-77497200D02*
X232354523Y-77449580D01*
X221146666Y-104214819D02*
X221479999Y-103738628D01*
X221718094Y-104214819D02*
X221718094Y-103214819D01*
X221718094Y-103214819D02*
X221337142Y-103214819D01*
X221337142Y-103214819D02*
X221241904Y-103262438D01*
X221241904Y-103262438D02*
X221194285Y-103310057D01*
X221194285Y-103310057D02*
X221146666Y-103405295D01*
X221146666Y-103405295D02*
X221146666Y-103548152D01*
X221146666Y-103548152D02*
X221194285Y-103643390D01*
X221194285Y-103643390D02*
X221241904Y-103691009D01*
X221241904Y-103691009D02*
X221337142Y-103738628D01*
X221337142Y-103738628D02*
X221718094Y-103738628D01*
X220575237Y-103643390D02*
X220670475Y-103595771D01*
X220670475Y-103595771D02*
X220718094Y-103548152D01*
X220718094Y-103548152D02*
X220765713Y-103452914D01*
X220765713Y-103452914D02*
X220765713Y-103405295D01*
X220765713Y-103405295D02*
X220718094Y-103310057D01*
X220718094Y-103310057D02*
X220670475Y-103262438D01*
X220670475Y-103262438D02*
X220575237Y-103214819D01*
X220575237Y-103214819D02*
X220384761Y-103214819D01*
X220384761Y-103214819D02*
X220289523Y-103262438D01*
X220289523Y-103262438D02*
X220241904Y-103310057D01*
X220241904Y-103310057D02*
X220194285Y-103405295D01*
X220194285Y-103405295D02*
X220194285Y-103452914D01*
X220194285Y-103452914D02*
X220241904Y-103548152D01*
X220241904Y-103548152D02*
X220289523Y-103595771D01*
X220289523Y-103595771D02*
X220384761Y-103643390D01*
X220384761Y-103643390D02*
X220575237Y-103643390D01*
X220575237Y-103643390D02*
X220670475Y-103691009D01*
X220670475Y-103691009D02*
X220718094Y-103738628D01*
X220718094Y-103738628D02*
X220765713Y-103833866D01*
X220765713Y-103833866D02*
X220765713Y-104024342D01*
X220765713Y-104024342D02*
X220718094Y-104119580D01*
X220718094Y-104119580D02*
X220670475Y-104167200D01*
X220670475Y-104167200D02*
X220575237Y-104214819D01*
X220575237Y-104214819D02*
X220384761Y-104214819D01*
X220384761Y-104214819D02*
X220289523Y-104167200D01*
X220289523Y-104167200D02*
X220241904Y-104119580D01*
X220241904Y-104119580D02*
X220194285Y-104024342D01*
X220194285Y-104024342D02*
X220194285Y-103833866D01*
X220194285Y-103833866D02*
X220241904Y-103738628D01*
X220241904Y-103738628D02*
X220289523Y-103691009D01*
X220289523Y-103691009D02*
X220384761Y-103643390D01*
X238132857Y-77544819D02*
X238466190Y-77068628D01*
X238704285Y-77544819D02*
X238704285Y-76544819D01*
X238704285Y-76544819D02*
X238323333Y-76544819D01*
X238323333Y-76544819D02*
X238228095Y-76592438D01*
X238228095Y-76592438D02*
X238180476Y-76640057D01*
X238180476Y-76640057D02*
X238132857Y-76735295D01*
X238132857Y-76735295D02*
X238132857Y-76878152D01*
X238132857Y-76878152D02*
X238180476Y-76973390D01*
X238180476Y-76973390D02*
X238228095Y-77021009D01*
X238228095Y-77021009D02*
X238323333Y-77068628D01*
X238323333Y-77068628D02*
X238704285Y-77068628D01*
X237180476Y-77544819D02*
X237751904Y-77544819D01*
X237466190Y-77544819D02*
X237466190Y-76544819D01*
X237466190Y-76544819D02*
X237561428Y-76687676D01*
X237561428Y-76687676D02*
X237656666Y-76782914D01*
X237656666Y-76782914D02*
X237751904Y-76830533D01*
X236609047Y-76973390D02*
X236704285Y-76925771D01*
X236704285Y-76925771D02*
X236751904Y-76878152D01*
X236751904Y-76878152D02*
X236799523Y-76782914D01*
X236799523Y-76782914D02*
X236799523Y-76735295D01*
X236799523Y-76735295D02*
X236751904Y-76640057D01*
X236751904Y-76640057D02*
X236704285Y-76592438D01*
X236704285Y-76592438D02*
X236609047Y-76544819D01*
X236609047Y-76544819D02*
X236418571Y-76544819D01*
X236418571Y-76544819D02*
X236323333Y-76592438D01*
X236323333Y-76592438D02*
X236275714Y-76640057D01*
X236275714Y-76640057D02*
X236228095Y-76735295D01*
X236228095Y-76735295D02*
X236228095Y-76782914D01*
X236228095Y-76782914D02*
X236275714Y-76878152D01*
X236275714Y-76878152D02*
X236323333Y-76925771D01*
X236323333Y-76925771D02*
X236418571Y-76973390D01*
X236418571Y-76973390D02*
X236609047Y-76973390D01*
X236609047Y-76973390D02*
X236704285Y-77021009D01*
X236704285Y-77021009D02*
X236751904Y-77068628D01*
X236751904Y-77068628D02*
X236799523Y-77163866D01*
X236799523Y-77163866D02*
X236799523Y-77354342D01*
X236799523Y-77354342D02*
X236751904Y-77449580D01*
X236751904Y-77449580D02*
X236704285Y-77497200D01*
X236704285Y-77497200D02*
X236609047Y-77544819D01*
X236609047Y-77544819D02*
X236418571Y-77544819D01*
X236418571Y-77544819D02*
X236323333Y-77497200D01*
X236323333Y-77497200D02*
X236275714Y-77449580D01*
X236275714Y-77449580D02*
X236228095Y-77354342D01*
X236228095Y-77354342D02*
X236228095Y-77163866D01*
X236228095Y-77163866D02*
X236275714Y-77068628D01*
X236275714Y-77068628D02*
X236323333Y-77021009D01*
X236323333Y-77021009D02*
X236418571Y-76973390D01*
X219092857Y-122754819D02*
X219426190Y-122278628D01*
X219664285Y-122754819D02*
X219664285Y-121754819D01*
X219664285Y-121754819D02*
X219283333Y-121754819D01*
X219283333Y-121754819D02*
X219188095Y-121802438D01*
X219188095Y-121802438D02*
X219140476Y-121850057D01*
X219140476Y-121850057D02*
X219092857Y-121945295D01*
X219092857Y-121945295D02*
X219092857Y-122088152D01*
X219092857Y-122088152D02*
X219140476Y-122183390D01*
X219140476Y-122183390D02*
X219188095Y-122231009D01*
X219188095Y-122231009D02*
X219283333Y-122278628D01*
X219283333Y-122278628D02*
X219664285Y-122278628D01*
X218759523Y-121754819D02*
X218140476Y-121754819D01*
X218140476Y-121754819D02*
X218473809Y-122135771D01*
X218473809Y-122135771D02*
X218330952Y-122135771D01*
X218330952Y-122135771D02*
X218235714Y-122183390D01*
X218235714Y-122183390D02*
X218188095Y-122231009D01*
X218188095Y-122231009D02*
X218140476Y-122326247D01*
X218140476Y-122326247D02*
X218140476Y-122564342D01*
X218140476Y-122564342D02*
X218188095Y-122659580D01*
X218188095Y-122659580D02*
X218235714Y-122707200D01*
X218235714Y-122707200D02*
X218330952Y-122754819D01*
X218330952Y-122754819D02*
X218616666Y-122754819D01*
X218616666Y-122754819D02*
X218711904Y-122707200D01*
X218711904Y-122707200D02*
X218759523Y-122659580D01*
X217759523Y-121850057D02*
X217711904Y-121802438D01*
X217711904Y-121802438D02*
X217616666Y-121754819D01*
X217616666Y-121754819D02*
X217378571Y-121754819D01*
X217378571Y-121754819D02*
X217283333Y-121802438D01*
X217283333Y-121802438D02*
X217235714Y-121850057D01*
X217235714Y-121850057D02*
X217188095Y-121945295D01*
X217188095Y-121945295D02*
X217188095Y-122040533D01*
X217188095Y-122040533D02*
X217235714Y-122183390D01*
X217235714Y-122183390D02*
X217807142Y-122754819D01*
X217807142Y-122754819D02*
X217188095Y-122754819D01*
X162437857Y-124914819D02*
X162771190Y-124438628D01*
X163009285Y-124914819D02*
X163009285Y-123914819D01*
X163009285Y-123914819D02*
X162628333Y-123914819D01*
X162628333Y-123914819D02*
X162533095Y-123962438D01*
X162533095Y-123962438D02*
X162485476Y-124010057D01*
X162485476Y-124010057D02*
X162437857Y-124105295D01*
X162437857Y-124105295D02*
X162437857Y-124248152D01*
X162437857Y-124248152D02*
X162485476Y-124343390D01*
X162485476Y-124343390D02*
X162533095Y-124391009D01*
X162533095Y-124391009D02*
X162628333Y-124438628D01*
X162628333Y-124438628D02*
X163009285Y-124438628D01*
X162056904Y-124010057D02*
X162009285Y-123962438D01*
X162009285Y-123962438D02*
X161914047Y-123914819D01*
X161914047Y-123914819D02*
X161675952Y-123914819D01*
X161675952Y-123914819D02*
X161580714Y-123962438D01*
X161580714Y-123962438D02*
X161533095Y-124010057D01*
X161533095Y-124010057D02*
X161485476Y-124105295D01*
X161485476Y-124105295D02*
X161485476Y-124200533D01*
X161485476Y-124200533D02*
X161533095Y-124343390D01*
X161533095Y-124343390D02*
X162104523Y-124914819D01*
X162104523Y-124914819D02*
X161485476Y-124914819D01*
X161009285Y-124914819D02*
X160818809Y-124914819D01*
X160818809Y-124914819D02*
X160723571Y-124867200D01*
X160723571Y-124867200D02*
X160675952Y-124819580D01*
X160675952Y-124819580D02*
X160580714Y-124676723D01*
X160580714Y-124676723D02*
X160533095Y-124486247D01*
X160533095Y-124486247D02*
X160533095Y-124105295D01*
X160533095Y-124105295D02*
X160580714Y-124010057D01*
X160580714Y-124010057D02*
X160628333Y-123962438D01*
X160628333Y-123962438D02*
X160723571Y-123914819D01*
X160723571Y-123914819D02*
X160914047Y-123914819D01*
X160914047Y-123914819D02*
X161009285Y-123962438D01*
X161009285Y-123962438D02*
X161056904Y-124010057D01*
X161056904Y-124010057D02*
X161104523Y-124105295D01*
X161104523Y-124105295D02*
X161104523Y-124343390D01*
X161104523Y-124343390D02*
X161056904Y-124438628D01*
X161056904Y-124438628D02*
X161009285Y-124486247D01*
X161009285Y-124486247D02*
X160914047Y-124533866D01*
X160914047Y-124533866D02*
X160723571Y-124533866D01*
X160723571Y-124533866D02*
X160628333Y-124486247D01*
X160628333Y-124486247D02*
X160580714Y-124438628D01*
X160580714Y-124438628D02*
X160533095Y-124343390D01*
X196349857Y-100435580D02*
X196397476Y-100483200D01*
X196397476Y-100483200D02*
X196540333Y-100530819D01*
X196540333Y-100530819D02*
X196635571Y-100530819D01*
X196635571Y-100530819D02*
X196778428Y-100483200D01*
X196778428Y-100483200D02*
X196873666Y-100387961D01*
X196873666Y-100387961D02*
X196921285Y-100292723D01*
X196921285Y-100292723D02*
X196968904Y-100102247D01*
X196968904Y-100102247D02*
X196968904Y-99959390D01*
X196968904Y-99959390D02*
X196921285Y-99768914D01*
X196921285Y-99768914D02*
X196873666Y-99673676D01*
X196873666Y-99673676D02*
X196778428Y-99578438D01*
X196778428Y-99578438D02*
X196635571Y-99530819D01*
X196635571Y-99530819D02*
X196540333Y-99530819D01*
X196540333Y-99530819D02*
X196397476Y-99578438D01*
X196397476Y-99578438D02*
X196349857Y-99626057D01*
X195397476Y-100530819D02*
X195968904Y-100530819D01*
X195683190Y-100530819D02*
X195683190Y-99530819D01*
X195683190Y-99530819D02*
X195778428Y-99673676D01*
X195778428Y-99673676D02*
X195873666Y-99768914D01*
X195873666Y-99768914D02*
X195968904Y-99816533D01*
X194540333Y-99864152D02*
X194540333Y-100530819D01*
X194778428Y-99483200D02*
X195016523Y-100197485D01*
X195016523Y-100197485D02*
X194397476Y-100197485D01*
X202699857Y-100308580D02*
X202747476Y-100356200D01*
X202747476Y-100356200D02*
X202890333Y-100403819D01*
X202890333Y-100403819D02*
X202985571Y-100403819D01*
X202985571Y-100403819D02*
X203128428Y-100356200D01*
X203128428Y-100356200D02*
X203223666Y-100260961D01*
X203223666Y-100260961D02*
X203271285Y-100165723D01*
X203271285Y-100165723D02*
X203318904Y-99975247D01*
X203318904Y-99975247D02*
X203318904Y-99832390D01*
X203318904Y-99832390D02*
X203271285Y-99641914D01*
X203271285Y-99641914D02*
X203223666Y-99546676D01*
X203223666Y-99546676D02*
X203128428Y-99451438D01*
X203128428Y-99451438D02*
X202985571Y-99403819D01*
X202985571Y-99403819D02*
X202890333Y-99403819D01*
X202890333Y-99403819D02*
X202747476Y-99451438D01*
X202747476Y-99451438D02*
X202699857Y-99499057D01*
X201747476Y-100403819D02*
X202318904Y-100403819D01*
X202033190Y-100403819D02*
X202033190Y-99403819D01*
X202033190Y-99403819D02*
X202128428Y-99546676D01*
X202128428Y-99546676D02*
X202223666Y-99641914D01*
X202223666Y-99641914D02*
X202318904Y-99689533D01*
X201366523Y-99499057D02*
X201318904Y-99451438D01*
X201318904Y-99451438D02*
X201223666Y-99403819D01*
X201223666Y-99403819D02*
X200985571Y-99403819D01*
X200985571Y-99403819D02*
X200890333Y-99451438D01*
X200890333Y-99451438D02*
X200842714Y-99499057D01*
X200842714Y-99499057D02*
X200795095Y-99594295D01*
X200795095Y-99594295D02*
X200795095Y-99689533D01*
X200795095Y-99689533D02*
X200842714Y-99832390D01*
X200842714Y-99832390D02*
X201414142Y-100403819D01*
X201414142Y-100403819D02*
X200795095Y-100403819D01*
D11*
%TO.C,R21*%
X204242936Y-74195000D02*
X204697064Y-74195000D01*
X204242936Y-75665000D02*
X204697064Y-75665000D01*
%TO.C,C24*%
X186155000Y-86733748D02*
X186155000Y-87256252D01*
X184685000Y-86733748D02*
X184685000Y-87256252D01*
%TO.C,R10*%
X242088936Y-117375000D02*
X242543064Y-117375000D01*
X242088936Y-118845000D02*
X242543064Y-118845000D01*
%TO.C,C16*%
X200814000Y-94495252D02*
X200814000Y-93972748D01*
X202284000Y-94495252D02*
X202284000Y-93972748D01*
%TO.C,C19*%
X192080000Y-78270000D02*
X192080000Y-74360000D01*
X193950000Y-78270000D02*
X192080000Y-78270000D01*
X193950000Y-74360000D02*
X193950000Y-78270000D01*
%TO.C,D1*%
X205121000Y-109929000D02*
X205121000Y-105919000D01*
X207121000Y-109929000D02*
X205121000Y-109929000D01*
X207121000Y-109929000D02*
X207121000Y-105919000D01*
%TO.C,R12*%
X234087936Y-86895000D02*
X234542064Y-86895000D01*
X234087936Y-88365000D02*
X234542064Y-88365000D01*
%TO.C,C26*%
X194972000Y-98051252D02*
X194972000Y-97528748D01*
X196442000Y-98051252D02*
X196442000Y-97528748D01*
%TO.C,C2*%
X196569000Y-75684748D02*
X196569000Y-76207252D01*
X195099000Y-75684748D02*
X195099000Y-76207252D01*
%TO.C,R28*%
X158913564Y-121766000D02*
X158459436Y-121766000D01*
X158913564Y-120296000D02*
X158459436Y-120296000D01*
%TO.C,R20*%
X189638000Y-88619064D02*
X189638000Y-88164936D01*
X191108000Y-88619064D02*
X191108000Y-88164936D01*
%TO.C,C18*%
X186409000Y-75684748D02*
X186409000Y-76207252D01*
X184939000Y-75684748D02*
X184939000Y-76207252D01*
%TO.C,C1*%
X188870000Y-73650000D02*
X188870000Y-77560000D01*
X187000000Y-73650000D02*
X188870000Y-73650000D01*
X187000000Y-77560000D02*
X187000000Y-73650000D01*
%TO.C,C21*%
X226795000Y-108069748D02*
X226795000Y-108592252D01*
X225325000Y-108069748D02*
X225325000Y-108592252D01*
%TO.C,C10*%
X196492000Y-106240252D02*
X196492000Y-105717748D01*
X197962000Y-106240252D02*
X197962000Y-105717748D01*
%TO.C,R16*%
X230097064Y-83920000D02*
X229642936Y-83920000D01*
X230097064Y-82450000D02*
X229642936Y-82450000D01*
%TO.C,C9*%
X196315000Y-91498748D02*
X196315000Y-92021252D01*
X194845000Y-91498748D02*
X194845000Y-92021252D01*
%TO.C,FB1*%
X223212242Y-108606000D02*
X221541758Y-108606000D01*
X223212242Y-106786000D02*
X221541758Y-106786000D01*
%TO.C,R14*%
X230097064Y-88365000D02*
X229642936Y-88365000D01*
X230097064Y-86895000D02*
X229642936Y-86895000D01*
%TO.C,C3*%
X199030000Y-73650000D02*
X199030000Y-77560000D01*
X197160000Y-73650000D02*
X199030000Y-73650000D01*
X197160000Y-77560000D02*
X197160000Y-73650000D01*
%TO.C,C27*%
X181075000Y-119753748D02*
X181075000Y-120276252D01*
X179605000Y-119753748D02*
X179605000Y-120276252D01*
%TO.C,C7*%
X203461252Y-107161000D02*
X202938748Y-107161000D01*
X203461252Y-105691000D02*
X202938748Y-105691000D01*
%TO.C,R17*%
X234542064Y-83920000D02*
X234087936Y-83920000D01*
X234542064Y-82450000D02*
X234087936Y-82450000D01*
%TO.C,C23*%
X202973000Y-94495252D02*
X202973000Y-93972748D01*
X204443000Y-94495252D02*
X204443000Y-93972748D01*
%TO.C,C28*%
X179375000Y-128897748D02*
X179375000Y-129420252D01*
X177905000Y-128897748D02*
X177905000Y-129420252D01*
%TO.C,C20*%
X225051252Y-106145000D02*
X224528748Y-106145000D01*
X225051252Y-104675000D02*
X224528748Y-104675000D01*
%TO.C,C5*%
X206148000Y-98051252D02*
X206148000Y-97528748D01*
X207618000Y-98051252D02*
X207618000Y-97528748D01*
%TO.C,C4*%
X208434000Y-98051252D02*
X208434000Y-97528748D01*
X209904000Y-98051252D02*
X209904000Y-97528748D01*
%TO.C,R5*%
X195807000Y-102261936D02*
X195807000Y-102716064D01*
X194337000Y-102261936D02*
X194337000Y-102716064D01*
%TO.C,C25*%
X197131000Y-98051252D02*
X197131000Y-97528748D01*
X198601000Y-98051252D02*
X198601000Y-97528748D01*
%TO.C,C6*%
X207672000Y-107703252D02*
X207672000Y-107180748D01*
X209142000Y-107703252D02*
X209142000Y-107180748D01*
%TO.C,C13*%
X200125000Y-102227748D02*
X200125000Y-102750252D01*
X198655000Y-102227748D02*
X198655000Y-102750252D01*
%TO.C,C17*%
X179731000Y-80420500D02*
X179731000Y-72360500D01*
X184251000Y-80420500D02*
X179731000Y-80420500D01*
X184251000Y-72360500D02*
X184251000Y-80420500D01*
%TO.C,C8*%
X203461252Y-109320000D02*
X202938748Y-109320000D01*
X203461252Y-107850000D02*
X202938748Y-107850000D01*
%TO.C,C11*%
X198655000Y-106240252D02*
X198655000Y-105717748D01*
X200125000Y-106240252D02*
X200125000Y-105717748D01*
%TO.C,R30*%
X158469064Y-111225000D02*
X158014936Y-111225000D01*
X158469064Y-109755000D02*
X158014936Y-109755000D01*
%TO.C,R2*%
X207999000Y-102261936D02*
X207999000Y-102716064D01*
X206529000Y-102261936D02*
X206529000Y-102716064D01*
%TO.C,C22*%
X222623748Y-109247000D02*
X223146252Y-109247000D01*
X222623748Y-110717000D02*
X223146252Y-110717000D01*
%TO.C,R13*%
X233272064Y-92810000D02*
X232817936Y-92810000D01*
X233272064Y-91340000D02*
X232817936Y-91340000D01*
%TO.C,R11*%
X237262936Y-90705000D02*
X237717064Y-90705000D01*
X237262936Y-92175000D02*
X237717064Y-92175000D01*
%TO.C,R27*%
X158913564Y-118337000D02*
X158459436Y-118337000D01*
X158913564Y-116867000D02*
X158459436Y-116867000D01*
%TO.C,R9*%
X242088936Y-100865000D02*
X242543064Y-100865000D01*
X242088936Y-102335000D02*
X242543064Y-102335000D01*
%TO.C,C15*%
X205332000Y-102227748D02*
X205332000Y-102750252D01*
X203862000Y-102227748D02*
X203862000Y-102750252D01*
%TO.C,R15*%
X233272064Y-79475000D02*
X232817936Y-79475000D01*
X233272064Y-78005000D02*
X232817936Y-78005000D01*
%TO.C,R8*%
X221207064Y-106145000D02*
X220752936Y-106145000D01*
X221207064Y-104675000D02*
X220752936Y-104675000D01*
%TO.C,R18*%
X237717064Y-79475000D02*
X237262936Y-79475000D01*
X237717064Y-78005000D02*
X237262936Y-78005000D01*
%TO.C,R32*%
X218222936Y-119915000D02*
X218677064Y-119915000D01*
X218222936Y-121385000D02*
X218677064Y-121385000D01*
%TO.C,R29*%
X158913564Y-125195000D02*
X158459436Y-125195000D01*
X158913564Y-123725000D02*
X158459436Y-123725000D01*
%TO.C,C14*%
X197966000Y-102227748D02*
X197966000Y-102750252D01*
X196496000Y-102227748D02*
X196496000Y-102750252D01*
%TO.C,C12*%
X203173000Y-102227748D02*
X203173000Y-102750252D01*
X201703000Y-102227748D02*
X201703000Y-102750252D01*
%TD*%
M02*
