%TF.GenerationSoftware,KiCad,Pcbnew,7.0.9-7.0.9~ubuntu20.04.1*%
%TF.CreationDate,2024-02-01T14:13:27+00:00*%
%TF.ProjectId,ICE40UPDevBoard,49434534-3055-4504-9465-76426f617264,rev?*%
%TF.SameCoordinates,Original*%
%TF.FileFunction,Copper,L3,Inr*%
%TF.FilePolarity,Positive*%
%FSLAX46Y46*%
G04 Gerber Fmt 4.6, Leading zero omitted, Abs format (unit mm)*
G04 Created by KiCad (PCBNEW 7.0.9-7.0.9~ubuntu20.04.1) date 2024-02-01 14:13:27*
%MOMM*%
%LPD*%
G01*
G04 APERTURE LIST*
G04 Aperture macros list*
%AMRoundRect*
0 Rectangle with rounded corners*
0 $1 Rounding radius*
0 $2 $3 $4 $5 $6 $7 $8 $9 X,Y pos of 4 corners*
0 Add a 4 corners polygon primitive as box body*
4,1,4,$2,$3,$4,$5,$6,$7,$8,$9,$2,$3,0*
0 Add four circle primitives for the rounded corners*
1,1,$1+$1,$2,$3*
1,1,$1+$1,$4,$5*
1,1,$1+$1,$6,$7*
1,1,$1+$1,$8,$9*
0 Add four rect primitives between the rounded corners*
20,1,$1+$1,$2,$3,$4,$5,0*
20,1,$1+$1,$4,$5,$6,$7,0*
20,1,$1+$1,$6,$7,$8,$9,0*
20,1,$1+$1,$8,$9,$2,$3,0*%
G04 Aperture macros list end*
%TA.AperFunction,ComponentPad*%
%ADD10R,1.700000X1.700000*%
%TD*%
%TA.AperFunction,ComponentPad*%
%ADD11O,1.700000X1.700000*%
%TD*%
%TA.AperFunction,ComponentPad*%
%ADD12R,2.300000X1.500000*%
%TD*%
%TA.AperFunction,ComponentPad*%
%ADD13O,2.300000X1.500000*%
%TD*%
%TA.AperFunction,ComponentPad*%
%ADD14R,1.600000X1.600000*%
%TD*%
%TA.AperFunction,ComponentPad*%
%ADD15C,1.600000*%
%TD*%
%TA.AperFunction,ComponentPad*%
%ADD16O,3.500000X2.000000*%
%TD*%
%TA.AperFunction,ComponentPad*%
%ADD17O,2.000000X4.000000*%
%TD*%
%TA.AperFunction,ComponentPad*%
%ADD18R,2.000000X2.000000*%
%TD*%
%TA.AperFunction,ComponentPad*%
%ADD19C,2.000000*%
%TD*%
%TA.AperFunction,ComponentPad*%
%ADD20R,3.500000X3.500000*%
%TD*%
%TA.AperFunction,ComponentPad*%
%ADD21RoundRect,0.750000X-0.750000X-1.000000X0.750000X-1.000000X0.750000X1.000000X-0.750000X1.000000X0*%
%TD*%
%TA.AperFunction,ComponentPad*%
%ADD22RoundRect,0.875000X-0.875000X-0.875000X0.875000X-0.875000X0.875000X0.875000X-0.875000X0.875000X0*%
%TD*%
%TA.AperFunction,ComponentPad*%
%ADD23C,4.000000*%
%TD*%
%TA.AperFunction,ViaPad*%
%ADD24C,0.635000*%
%TD*%
%TA.AperFunction,ViaPad*%
%ADD25C,0.508000*%
%TD*%
%TA.AperFunction,ViaPad*%
%ADD26C,0.762000*%
%TD*%
G04 APERTURE END LIST*
D10*
%TO.N,/~{CRESET_B}*%
%TO.C,J4*%
X212090000Y-80010000D03*
D11*
%TO.N,GND*%
X209550000Y-80010000D03*
%TD*%
D10*
%TO.N,+3V3*%
%TO.C,J7*%
X223520000Y-87630000D03*
D11*
%TO.N,/FLASH_MOSI*%
X223520000Y-85090000D03*
%TO.N,/FLASH_MISO*%
X223520000Y-82550000D03*
%TO.N,/ICE_SCK*%
X223520000Y-80010000D03*
%TO.N,/ICE_SS*%
X223520000Y-77470000D03*
%TO.N,GND*%
X223520000Y-74930000D03*
%TD*%
D10*
%TO.N,USER0*%
%TO.C,J8*%
X182880000Y-96520000D03*
D11*
%TO.N,USER1*%
X182880000Y-99060000D03*
%TO.N,USER2*%
X182880000Y-101600000D03*
%TO.N,USER3*%
X182880000Y-104140000D03*
%TO.N,USER4*%
X182880000Y-106680000D03*
%TO.N,USER5*%
X182880000Y-109220000D03*
%TO.N,GND*%
X182880000Y-111760000D03*
%TD*%
D12*
%TO.N,/VCCEXTI*%
%TO.C,U8*%
X170419500Y-86360000D03*
D13*
%TO.N,GND*%
X170419500Y-88900000D03*
%TO.N,+5V*%
X170419500Y-91440000D03*
%TD*%
D10*
%TO.N,/ICE_SS*%
%TO.C,J5*%
X212095000Y-74930000D03*
D11*
%TO.N,Net-(J5-Pin_2)*%
X209555000Y-74930000D03*
%TD*%
D14*
%TO.N,Net-(J3-Pad1)*%
%TO.C,J3*%
X240825000Y-83790000D03*
D15*
%TO.N,Net-(J3-Pad2)*%
X240825000Y-86390000D03*
%TO.N,GND*%
X240825000Y-81690000D03*
%TO.N,+5V*%
X240825000Y-88490000D03*
%TO.N,Net-(J3-Pad5)*%
X238025000Y-81690000D03*
%TO.N,Net-(J3-Pad6)*%
X238025000Y-88490000D03*
D16*
%TO.N,N/C*%
X243675000Y-91940000D03*
D17*
X244475000Y-85090000D03*
D16*
X243675000Y-78240000D03*
%TD*%
D18*
%TO.N,Net-(R32-Pad2)*%
%TO.C,SP1*%
X222270000Y-120650000D03*
D19*
%TO.N,BUZZER*%
X229870000Y-120650000D03*
%TD*%
D20*
%TO.N,/VCCEXT*%
%TO.C,CON2*%
X161956000Y-85021500D03*
D21*
%TO.N,GND*%
X155956000Y-85021500D03*
D22*
X158956000Y-89721500D03*
%TD*%
D10*
%TO.N,Net-(D2-K)*%
%TO.C,J1*%
X209550000Y-85090000D03*
D11*
%TO.N,/CDONE*%
X212090000Y-85090000D03*
%TD*%
D10*
%TO.N,/FLASH_MOSI*%
%TO.C,J6*%
X213360000Y-89535000D03*
D11*
%TO.N,/ICE_MISO*%
X215900000Y-89535000D03*
%TO.N,/ICE_MOSI*%
X213360000Y-92075000D03*
%TO.N,/FLASH_MISO*%
X215900000Y-92075000D03*
%TD*%
D10*
%TO.N,+3V3*%
%TO.C,J9*%
X166370000Y-124460000D03*
D11*
%TO.N,I2C_SDA*%
X166370000Y-127000000D03*
%TO.N,I2C_SCL*%
X166370000Y-129540000D03*
%TO.N,GND*%
X166370000Y-132080000D03*
%TD*%
D23*
%TO.N,GND*%
%TO.C,J2*%
X243160669Y-122434669D03*
X243160669Y-97434669D03*
D14*
%TO.N,RED*%
X241110669Y-105619669D03*
D15*
%TO.N,GREEN*%
X241110669Y-107909669D03*
%TO.N,BLUE*%
X241110669Y-110199669D03*
%TO.N,unconnected-(J2-Pad4)*%
X241110669Y-112489669D03*
%TO.N,GND*%
X241110669Y-114779669D03*
X243090669Y-104474669D03*
X243090669Y-106764669D03*
X243090669Y-109054669D03*
%TO.N,unconnected-(J2-Pad9)*%
X243090669Y-111344669D03*
%TO.N,GND*%
X243090669Y-113634669D03*
%TO.N,unconnected-(J2-Pad11)*%
X245070669Y-105619669D03*
%TO.N,unconnected-(J2-Pad12)*%
X245070669Y-107909669D03*
%TO.N,Net-(J2-Pad13)*%
X245070669Y-110199669D03*
%TO.N,Net-(J2-Pad14)*%
X245070669Y-112489669D03*
%TO.N,unconnected-(J2-Pad15)*%
X245070669Y-114779669D03*
%TD*%
D24*
%TO.N,GND*%
X157480000Y-97790000D03*
X170180000Y-103632000D03*
X162052000Y-103632000D03*
X224155000Y-102108000D03*
X228219000Y-110363000D03*
X228727000Y-106172000D03*
X168148000Y-103632000D03*
X196469000Y-78105000D03*
X200533000Y-92329000D03*
X201676000Y-107569000D03*
X186182000Y-77978000D03*
X218752500Y-111056500D03*
X183642000Y-73406000D03*
X200152000Y-102870000D03*
X157480000Y-100330000D03*
X203073000Y-99187000D03*
X233426000Y-110490000D03*
X233299000Y-106680000D03*
X154940000Y-95250000D03*
X185420000Y-88900000D03*
X217424000Y-106807000D03*
X157480000Y-102870000D03*
X217424000Y-105283000D03*
X228727000Y-107569000D03*
X193802000Y-73406000D03*
X158242000Y-112522000D03*
X201676000Y-102870000D03*
X196723000Y-96012000D03*
X200152000Y-99187000D03*
X154940000Y-92710000D03*
X174244000Y-103632000D03*
X221107000Y-113030000D03*
X203581000Y-102870000D03*
X202184000Y-82169000D03*
X204470000Y-92456000D03*
X191213000Y-124460000D03*
X183007000Y-72898000D03*
X222631000Y-102108000D03*
X154940000Y-97790000D03*
X216154000Y-120650000D03*
X159512000Y-103632000D03*
X195580000Y-93919000D03*
X201676000Y-99187000D03*
X166116000Y-103632000D03*
X208026000Y-96012000D03*
X222631000Y-113030000D03*
X164084000Y-103632000D03*
X203073000Y-100203000D03*
X178640000Y-131064000D03*
X185166000Y-77978000D03*
X195326000Y-78105000D03*
X233299000Y-102870000D03*
X154940000Y-100330000D03*
X199136000Y-100203000D03*
X180340000Y-124460000D03*
X172212000Y-103632000D03*
X154940000Y-90170000D03*
X193167000Y-72898000D03*
X154940000Y-102870000D03*
%TO.N,+3V3*%
X178640000Y-127254000D03*
X186537500Y-129159000D03*
X156083000Y-124460000D03*
X187833000Y-73152000D03*
X156210000Y-110490000D03*
X188722000Y-72898000D03*
X202438000Y-74930000D03*
X196723000Y-98171000D03*
X189865000Y-77978000D03*
X195580000Y-88755000D03*
X202184000Y-80010000D03*
X193167000Y-78994000D03*
X194310000Y-91760000D03*
X189611000Y-73914000D03*
X205359000Y-106807000D03*
X186817000Y-72898000D03*
X189611000Y-72009000D03*
X187833000Y-71247000D03*
X180340000Y-116840000D03*
X222377000Y-107696000D03*
X156083000Y-121031000D03*
X185420000Y-85090000D03*
X189611000Y-76708000D03*
X186817000Y-71247000D03*
X188849000Y-71247000D03*
X188976000Y-89662000D03*
X189611000Y-75565000D03*
X172339000Y-121412000D03*
X208026000Y-99060000D03*
X156146500Y-117602000D03*
X193802000Y-78486000D03*
X201803000Y-85090000D03*
X189865000Y-78867000D03*
%TO.N,+1V2*%
X193802000Y-100330000D03*
X199898000Y-75184000D03*
X199263000Y-72898000D03*
X202692000Y-94615000D03*
X208153000Y-100965000D03*
X197358000Y-72898000D03*
X198247000Y-72898000D03*
X199898000Y-77470000D03*
X199898000Y-76454000D03*
X199898000Y-73914000D03*
D25*
%TO.N,/VPP_2V5*%
X207200500Y-107124500D03*
D26*
%TO.N,+5V*%
X183642000Y-78486000D03*
X183007000Y-78994000D03*
X230251000Y-68199000D03*
X222377000Y-68199000D03*
X226314000Y-68199000D03*
D25*
%TO.N,Net-(U5D-COMP)*%
X224790000Y-105283000D03*
D24*
%TO.N,+3.3VDAC*%
X220165000Y-109982000D03*
X225806000Y-108458000D03*
D25*
%TO.N,Net-(U5D-VREF)*%
X227076000Y-104013000D03*
%TO.N,Net-(D3-A)*%
X161798000Y-117602000D03*
%TO.N,Net-(D4-A)*%
X161925000Y-121031000D03*
%TO.N,Net-(D5-A)*%
X161798000Y-124460000D03*
%TO.N,/CDONE*%
X191643000Y-101092000D03*
%TO.N,/~{CRESET_B}*%
X192278000Y-101727000D03*
%TO.N,/ICE_SS*%
X201930000Y-110998000D03*
%TO.N,/ICE_MISO*%
X204470000Y-112395000D03*
%TO.N,/ICE_MOSI*%
X204470000Y-111633000D03*
%TO.N,/FLASH_MISO*%
X191389000Y-84963000D03*
%TO.N,/ICE_SCK*%
X201930000Y-111760000D03*
X189357000Y-87503000D03*
%TO.N,Net-(U2D-VCCPLL)*%
X206121000Y-101981000D03*
%TO.N,Net-(U5D-~{PSAVE})*%
X225552000Y-102108000D03*
%TO.N,HSYNC*%
X190373000Y-102362000D03*
%TO.N,VSYNC*%
X191770000Y-102870000D03*
%TO.N,PS2BCLK*%
X235458000Y-91440000D03*
%TO.N,PS2BDATA*%
X232410000Y-87630000D03*
%TO.N,PS2ADATA*%
X232410000Y-83185000D03*
%TO.N,PS2ACLK*%
X235585000Y-78740000D03*
%TO.N,BUTTON0*%
X158242000Y-108522000D03*
%TO.N,BUZZER*%
X189611000Y-99695000D03*
%TD*%
%TA.AperFunction,Conductor*%
%TO.N,GND*%
G36*
X221767628Y-67330002D02*
G01*
X221814121Y-67383658D01*
X221824225Y-67453932D01*
X221794731Y-67518512D01*
X221782924Y-67529346D01*
X221783435Y-67529914D01*
X221778527Y-67534332D01*
X221653414Y-67673284D01*
X221653410Y-67673290D01*
X221559928Y-67835208D01*
X221559922Y-67835220D01*
X221502146Y-68013038D01*
X221502145Y-68013042D01*
X221502145Y-68013044D01*
X221482600Y-68199000D01*
X221502146Y-68384961D01*
X221559922Y-68562779D01*
X221559928Y-68562791D01*
X221653410Y-68724709D01*
X221653414Y-68724715D01*
X221778527Y-68863667D01*
X221929795Y-68973570D01*
X221929797Y-68973571D01*
X221929800Y-68973573D01*
X222100615Y-69049625D01*
X222241582Y-69079588D01*
X222283509Y-69088500D01*
X222283510Y-69088500D01*
X222470491Y-69088500D01*
X222512418Y-69079588D01*
X222653385Y-69049625D01*
X222824200Y-68973573D01*
X222975470Y-68863669D01*
X223100585Y-68724715D01*
X223100589Y-68724709D01*
X223147330Y-68643750D01*
X223194075Y-68562785D01*
X223251855Y-68384956D01*
X223271400Y-68199000D01*
X223251855Y-68013044D01*
X223194075Y-67835215D01*
X223193182Y-67833669D01*
X223100589Y-67673290D01*
X223100585Y-67673284D01*
X222975472Y-67534332D01*
X222970565Y-67529914D01*
X222972550Y-67527709D01*
X222937085Y-67481731D01*
X222930999Y-67410996D01*
X222964121Y-67348199D01*
X223025936Y-67313279D01*
X223054493Y-67310000D01*
X225636507Y-67310000D01*
X225704628Y-67330002D01*
X225751121Y-67383658D01*
X225761225Y-67453932D01*
X225731731Y-67518512D01*
X225719924Y-67529346D01*
X225720435Y-67529914D01*
X225715527Y-67534332D01*
X225590414Y-67673284D01*
X225590410Y-67673290D01*
X225496928Y-67835208D01*
X225496922Y-67835220D01*
X225439146Y-68013038D01*
X225439145Y-68013042D01*
X225439145Y-68013044D01*
X225419600Y-68199000D01*
X225439146Y-68384961D01*
X225496922Y-68562779D01*
X225496928Y-68562791D01*
X225590410Y-68724709D01*
X225590414Y-68724715D01*
X225715527Y-68863667D01*
X225866795Y-68973570D01*
X225866797Y-68973571D01*
X225866800Y-68973573D01*
X226037615Y-69049625D01*
X226178582Y-69079588D01*
X226220509Y-69088500D01*
X226220510Y-69088500D01*
X226407491Y-69088500D01*
X226449418Y-69079588D01*
X226590385Y-69049625D01*
X226761200Y-68973573D01*
X226912470Y-68863669D01*
X227037585Y-68724715D01*
X227037589Y-68724709D01*
X227084330Y-68643750D01*
X227131075Y-68562785D01*
X227188855Y-68384956D01*
X227208400Y-68199000D01*
X227188855Y-68013044D01*
X227131075Y-67835215D01*
X227130182Y-67833669D01*
X227037589Y-67673290D01*
X227037585Y-67673284D01*
X226912472Y-67534332D01*
X226907565Y-67529914D01*
X226909550Y-67527709D01*
X226874085Y-67481731D01*
X226867999Y-67410996D01*
X226901121Y-67348199D01*
X226962936Y-67313279D01*
X226991493Y-67310000D01*
X229573507Y-67310000D01*
X229641628Y-67330002D01*
X229688121Y-67383658D01*
X229698225Y-67453932D01*
X229668731Y-67518512D01*
X229656924Y-67529346D01*
X229657435Y-67529914D01*
X229652527Y-67534332D01*
X229527414Y-67673284D01*
X229527410Y-67673290D01*
X229433928Y-67835208D01*
X229433922Y-67835220D01*
X229376146Y-68013038D01*
X229376145Y-68013042D01*
X229376145Y-68013044D01*
X229356600Y-68199000D01*
X229376146Y-68384961D01*
X229433922Y-68562779D01*
X229433928Y-68562791D01*
X229527410Y-68724709D01*
X229527414Y-68724715D01*
X229652527Y-68863667D01*
X229803795Y-68973570D01*
X229803797Y-68973571D01*
X229803800Y-68973573D01*
X229974615Y-69049625D01*
X230115582Y-69079588D01*
X230157509Y-69088500D01*
X230157510Y-69088500D01*
X230344491Y-69088500D01*
X230386418Y-69079588D01*
X230527385Y-69049625D01*
X230698200Y-68973573D01*
X230849470Y-68863669D01*
X230974585Y-68724715D01*
X230974589Y-68724709D01*
X231021330Y-68643750D01*
X231068075Y-68562785D01*
X231125855Y-68384956D01*
X231145400Y-68199000D01*
X231125855Y-68013044D01*
X231068075Y-67835215D01*
X231067182Y-67833669D01*
X230974589Y-67673290D01*
X230974585Y-67673284D01*
X230849472Y-67534332D01*
X230844565Y-67529914D01*
X230846550Y-67527709D01*
X230811085Y-67481731D01*
X230804999Y-67410996D01*
X230838121Y-67348199D01*
X230899936Y-67313279D01*
X230928493Y-67310000D01*
X240737107Y-67310000D01*
X240805228Y-67330002D01*
X240851721Y-67383658D01*
X240861825Y-67453932D01*
X240832331Y-67518512D01*
X240817606Y-67532931D01*
X240750504Y-67588651D01*
X240676648Y-67649981D01*
X240369981Y-67956648D01*
X240092899Y-68290326D01*
X239847792Y-68648139D01*
X239636756Y-69027021D01*
X239636753Y-69027028D01*
X239461569Y-69423780D01*
X239461563Y-69423796D01*
X239323741Y-69835003D01*
X239323732Y-69835035D01*
X239224440Y-70257198D01*
X239164520Y-70686748D01*
X239144490Y-71120000D01*
X239164520Y-71553251D01*
X239224440Y-71982801D01*
X239323732Y-72404964D01*
X239323741Y-72404996D01*
X239461563Y-72816203D01*
X239461569Y-72816219D01*
X239490695Y-72882183D01*
X239628696Y-73194725D01*
X239636753Y-73212971D01*
X239636756Y-73212978D01*
X239847792Y-73591860D01*
X240087574Y-73941900D01*
X240092902Y-73949677D01*
X240302715Y-74202346D01*
X240369981Y-74283351D01*
X240676648Y-74590018D01*
X240676653Y-74590022D01*
X240676655Y-74590024D01*
X241010323Y-74867098D01*
X241220851Y-75011313D01*
X241368139Y-75112207D01*
X241747021Y-75323243D01*
X241747025Y-75323244D01*
X241747031Y-75323248D01*
X242143786Y-75498433D01*
X242555013Y-75636262D01*
X242977202Y-75735560D01*
X243406753Y-75795480D01*
X243656529Y-75807027D01*
X243731629Y-75810500D01*
X243731634Y-75810500D01*
X243948371Y-75810500D01*
X244020152Y-75807181D01*
X244273247Y-75795480D01*
X244702798Y-75735560D01*
X245124987Y-75636262D01*
X245536214Y-75498433D01*
X245932969Y-75323248D01*
X246236154Y-75154375D01*
X246311860Y-75112207D01*
X246311860Y-75112206D01*
X246311867Y-75112203D01*
X246669677Y-74867098D01*
X247003345Y-74590024D01*
X247310024Y-74283345D01*
X247427065Y-74142396D01*
X247485971Y-74102769D01*
X247556952Y-74101278D01*
X247617471Y-74138399D01*
X247648313Y-74202346D01*
X247650000Y-74222893D01*
X247650000Y-127707106D01*
X247629998Y-127775227D01*
X247576342Y-127821720D01*
X247506068Y-127831824D01*
X247441488Y-127802330D01*
X247427064Y-127787601D01*
X247310018Y-127646648D01*
X247003351Y-127339981D01*
X246864123Y-127224368D01*
X246669677Y-127062902D01*
X246577851Y-127000000D01*
X246311860Y-126817792D01*
X245932978Y-126606756D01*
X245932971Y-126606753D01*
X245536219Y-126431569D01*
X245536203Y-126431563D01*
X245124996Y-126293741D01*
X245124995Y-126293740D01*
X245124987Y-126293738D01*
X245124976Y-126293735D01*
X245124964Y-126293732D01*
X244702800Y-126194440D01*
X244702801Y-126194440D01*
X244273251Y-126134520D01*
X243948371Y-126119500D01*
X243948366Y-126119500D01*
X243731634Y-126119500D01*
X243731629Y-126119500D01*
X243406748Y-126134520D01*
X242977198Y-126194440D01*
X242555035Y-126293732D01*
X242555017Y-126293737D01*
X242555013Y-126293738D01*
X242555009Y-126293739D01*
X242555003Y-126293741D01*
X242143796Y-126431563D01*
X242143780Y-126431569D01*
X241747028Y-126606753D01*
X241747021Y-126606756D01*
X241368139Y-126817792D01*
X241010326Y-127062899D01*
X240676648Y-127339981D01*
X240369981Y-127646648D01*
X240092899Y-127980326D01*
X239847792Y-128338139D01*
X239636756Y-128717021D01*
X239636753Y-128717028D01*
X239461569Y-129113780D01*
X239461563Y-129113796D01*
X239323741Y-129525003D01*
X239323732Y-129525035D01*
X239224440Y-129947198D01*
X239164520Y-130376748D01*
X239144490Y-130810000D01*
X239164520Y-131243251D01*
X239224440Y-131672801D01*
X239323732Y-132094964D01*
X239323741Y-132094996D01*
X239461563Y-132506203D01*
X239461569Y-132506219D01*
X239636753Y-132902971D01*
X239636756Y-132902978D01*
X239847792Y-133281860D01*
X239879318Y-133327883D01*
X240092902Y-133639677D01*
X240302715Y-133892346D01*
X240369981Y-133973351D01*
X240676648Y-134280018D01*
X240676653Y-134280022D01*
X240676655Y-134280024D01*
X240817603Y-134397065D01*
X240857231Y-134455971D01*
X240858722Y-134526952D01*
X240821601Y-134587471D01*
X240757654Y-134618313D01*
X240737107Y-134620000D01*
X159312893Y-134620000D01*
X159244772Y-134599998D01*
X159198279Y-134546342D01*
X159188175Y-134476068D01*
X159217669Y-134411488D01*
X159232393Y-134397068D01*
X159373345Y-134280024D01*
X159680024Y-133973345D01*
X159957098Y-133639677D01*
X160202203Y-133281867D01*
X160232444Y-133227575D01*
X160413243Y-132902978D01*
X160413243Y-132902977D01*
X160413248Y-132902969D01*
X160588433Y-132506214D01*
X160726262Y-132094987D01*
X160825560Y-131672798D01*
X160885480Y-131243247D01*
X160905510Y-130810000D01*
X160885480Y-130376753D01*
X160825560Y-129947202D01*
X160729787Y-129540000D01*
X165006844Y-129540000D01*
X165025437Y-129764375D01*
X165080702Y-129982612D01*
X165080703Y-129982613D01*
X165171141Y-130188793D01*
X165294275Y-130377265D01*
X165294279Y-130377270D01*
X165446762Y-130542908D01*
X165501331Y-130585381D01*
X165624424Y-130681189D01*
X165658205Y-130699470D01*
X165708596Y-130749482D01*
X165723949Y-130818799D01*
X165699389Y-130885412D01*
X165658209Y-130921096D01*
X165624704Y-130939228D01*
X165624698Y-130939232D01*
X165447097Y-131077465D01*
X165294674Y-131243041D01*
X165171580Y-131431451D01*
X165081179Y-131637543D01*
X165081176Y-131637550D01*
X165033455Y-131825999D01*
X165033456Y-131826000D01*
X165938884Y-131826000D01*
X165910507Y-131870156D01*
X165870000Y-132008111D01*
X165870000Y-132151889D01*
X165910507Y-132289844D01*
X165938884Y-132334000D01*
X165033455Y-132334000D01*
X165081176Y-132522449D01*
X165081179Y-132522456D01*
X165171580Y-132728548D01*
X165294674Y-132916958D01*
X165447097Y-133082534D01*
X165624698Y-133220767D01*
X165624699Y-133220768D01*
X165822628Y-133327882D01*
X165822630Y-133327883D01*
X166035483Y-133400955D01*
X166035492Y-133400957D01*
X166116000Y-133414391D01*
X166116000Y-132513674D01*
X166227685Y-132564680D01*
X166334237Y-132580000D01*
X166405763Y-132580000D01*
X166512315Y-132564680D01*
X166624000Y-132513674D01*
X166624000Y-133414390D01*
X166704507Y-133400957D01*
X166704516Y-133400955D01*
X166917369Y-133327883D01*
X166917371Y-133327882D01*
X167115300Y-133220768D01*
X167115301Y-133220767D01*
X167292902Y-133082534D01*
X167445325Y-132916958D01*
X167568419Y-132728548D01*
X167658820Y-132522456D01*
X167658823Y-132522449D01*
X167706544Y-132334000D01*
X166801116Y-132334000D01*
X166829493Y-132289844D01*
X166870000Y-132151889D01*
X166870000Y-132008111D01*
X166829493Y-131870156D01*
X166801116Y-131826000D01*
X167706544Y-131826000D01*
X167706544Y-131825999D01*
X167658823Y-131637550D01*
X167658820Y-131637543D01*
X167568419Y-131431451D01*
X167445325Y-131243041D01*
X167292902Y-131077465D01*
X167115301Y-130939232D01*
X167115300Y-130939231D01*
X167081791Y-130921097D01*
X167031401Y-130871083D01*
X167016050Y-130801766D01*
X167040612Y-130735153D01*
X167081790Y-130699472D01*
X167115576Y-130681189D01*
X167293240Y-130542906D01*
X167445722Y-130377268D01*
X167446059Y-130376753D01*
X167452441Y-130366983D01*
X167568860Y-130188791D01*
X167659296Y-129982616D01*
X167714564Y-129764368D01*
X167733156Y-129540000D01*
X167714564Y-129315632D01*
X167674899Y-129159000D01*
X185706950Y-129159000D01*
X185723413Y-129315632D01*
X185725101Y-129331686D01*
X185778752Y-129496810D01*
X185778756Y-129496817D01*
X185865569Y-129647183D01*
X185865570Y-129647185D01*
X185981751Y-129776217D01*
X186122220Y-129878274D01*
X186122222Y-129878275D01*
X186122225Y-129878277D01*
X186280846Y-129948900D01*
X186450684Y-129985000D01*
X186624316Y-129985000D01*
X186794154Y-129948900D01*
X186952775Y-129878277D01*
X187093246Y-129776219D01*
X187103911Y-129764375D01*
X187209429Y-129647185D01*
X187209430Y-129647183D01*
X187271312Y-129540000D01*
X187296245Y-129496815D01*
X187349900Y-129331681D01*
X187368050Y-129159000D01*
X187349900Y-128986319D01*
X187318996Y-128891206D01*
X187296247Y-128821189D01*
X187296243Y-128821182D01*
X187209430Y-128670816D01*
X187209429Y-128670814D01*
X187093248Y-128541782D01*
X186952779Y-128439725D01*
X186860885Y-128398811D01*
X186794154Y-128369100D01*
X186624316Y-128333000D01*
X186450684Y-128333000D01*
X186280845Y-128369100D01*
X186122220Y-128439725D01*
X185981751Y-128541782D01*
X185865570Y-128670814D01*
X185865569Y-128670816D01*
X185778756Y-128821182D01*
X185778752Y-128821189D01*
X185725101Y-128986313D01*
X185725100Y-128986317D01*
X185725100Y-128986319D01*
X185706950Y-129159000D01*
X167674899Y-129159000D01*
X167659296Y-129097384D01*
X167568860Y-128891209D01*
X167523109Y-128821182D01*
X167445724Y-128702734D01*
X167445720Y-128702729D01*
X167329570Y-128576559D01*
X167293240Y-128537094D01*
X167293239Y-128537093D01*
X167293237Y-128537091D01*
X167211382Y-128473381D01*
X167115576Y-128398811D01*
X167082319Y-128380813D01*
X167031929Y-128330802D01*
X167016576Y-128261485D01*
X167041136Y-128194872D01*
X167082320Y-128159186D01*
X167115576Y-128141189D01*
X167293240Y-128002906D01*
X167445722Y-127837268D01*
X167568860Y-127648791D01*
X167659296Y-127442616D01*
X167707060Y-127254000D01*
X177809450Y-127254000D01*
X177827601Y-127426686D01*
X177881252Y-127591810D01*
X177881256Y-127591817D01*
X177968069Y-127742183D01*
X177968070Y-127742185D01*
X178084251Y-127871217D01*
X178224720Y-127973274D01*
X178224722Y-127973275D01*
X178224725Y-127973277D01*
X178383346Y-128043900D01*
X178553184Y-128080000D01*
X178726816Y-128080000D01*
X178896654Y-128043900D01*
X179055275Y-127973277D01*
X179195746Y-127871219D01*
X179226319Y-127837265D01*
X179311929Y-127742185D01*
X179311930Y-127742183D01*
X179398745Y-127591815D01*
X179452400Y-127426681D01*
X179470550Y-127254000D01*
X179452400Y-127081319D01*
X179425978Y-127000000D01*
X179398747Y-126916189D01*
X179398743Y-126916182D01*
X179311930Y-126765816D01*
X179311929Y-126765814D01*
X179195748Y-126636782D01*
X179055279Y-126534725D01*
X178896654Y-126464100D01*
X178726816Y-126428000D01*
X178553184Y-126428000D01*
X178383345Y-126464100D01*
X178224720Y-126534725D01*
X178084251Y-126636782D01*
X177968070Y-126765814D01*
X177968069Y-126765816D01*
X177881256Y-126916182D01*
X177881252Y-126916189D01*
X177827601Y-127081313D01*
X177809450Y-127254000D01*
X167707060Y-127254000D01*
X167714564Y-127224368D01*
X167733156Y-127000000D01*
X167714564Y-126775632D01*
X167712078Y-126765814D01*
X167659297Y-126557387D01*
X167659296Y-126557386D01*
X167659296Y-126557384D01*
X167568860Y-126351209D01*
X167562140Y-126340924D01*
X167445724Y-126162734D01*
X167445719Y-126162729D01*
X167302524Y-126007179D01*
X167271103Y-125943514D01*
X167279090Y-125872968D01*
X167323948Y-125817939D01*
X167351183Y-125803789D01*
X167466204Y-125760889D01*
X167583261Y-125673261D01*
X167670889Y-125556204D01*
X167721989Y-125419201D01*
X167728500Y-125358638D01*
X167728500Y-123561362D01*
X167728499Y-123561350D01*
X167721990Y-123500803D01*
X167721988Y-123500795D01*
X167692924Y-123422875D01*
X167670889Y-123363796D01*
X167670888Y-123363794D01*
X167670887Y-123363792D01*
X167583261Y-123246738D01*
X167466207Y-123159112D01*
X167466202Y-123159110D01*
X167329204Y-123108011D01*
X167329196Y-123108009D01*
X167268649Y-123101500D01*
X167268638Y-123101500D01*
X165471362Y-123101500D01*
X165471350Y-123101500D01*
X165410803Y-123108009D01*
X165410795Y-123108011D01*
X165273797Y-123159110D01*
X165273792Y-123159112D01*
X165156738Y-123246738D01*
X165069112Y-123363792D01*
X165069110Y-123363797D01*
X165018011Y-123500795D01*
X165018009Y-123500803D01*
X165011500Y-123561350D01*
X165011500Y-125358649D01*
X165018009Y-125419196D01*
X165018011Y-125419204D01*
X165069110Y-125556202D01*
X165069112Y-125556207D01*
X165156738Y-125673261D01*
X165273791Y-125760886D01*
X165273792Y-125760886D01*
X165273796Y-125760889D01*
X165388810Y-125803787D01*
X165445642Y-125846332D01*
X165470453Y-125912852D01*
X165455362Y-125982226D01*
X165437475Y-126007179D01*
X165294280Y-126162729D01*
X165294275Y-126162734D01*
X165171141Y-126351206D01*
X165080703Y-126557386D01*
X165080702Y-126557387D01*
X165025437Y-126775624D01*
X165025436Y-126775630D01*
X165025436Y-126775632D01*
X165006844Y-127000000D01*
X165013582Y-127081319D01*
X165025437Y-127224375D01*
X165080702Y-127442612D01*
X165080703Y-127442613D01*
X165171141Y-127648793D01*
X165294275Y-127837265D01*
X165294279Y-127837270D01*
X165446762Y-128002908D01*
X165499427Y-128043899D01*
X165624424Y-128141189D01*
X165657680Y-128159186D01*
X165708071Y-128209200D01*
X165723423Y-128278516D01*
X165698862Y-128345129D01*
X165657680Y-128380813D01*
X165624426Y-128398810D01*
X165624424Y-128398811D01*
X165446762Y-128537091D01*
X165294279Y-128702729D01*
X165294275Y-128702734D01*
X165171141Y-128891206D01*
X165080703Y-129097386D01*
X165080702Y-129097387D01*
X165025437Y-129315624D01*
X165025436Y-129315630D01*
X165025436Y-129315632D01*
X165010422Y-129496817D01*
X165006844Y-129540000D01*
X160729787Y-129540000D01*
X160726262Y-129525013D01*
X160588433Y-129113786D01*
X160413248Y-128717031D01*
X160413244Y-128717025D01*
X160413243Y-128717021D01*
X160202207Y-128338139D01*
X160067293Y-128141189D01*
X159957098Y-127980323D01*
X159680024Y-127646655D01*
X159680022Y-127646653D01*
X159680018Y-127646648D01*
X159373351Y-127339981D01*
X159234123Y-127224368D01*
X159039677Y-127062902D01*
X158947851Y-127000000D01*
X158681860Y-126817792D01*
X158302978Y-126606756D01*
X158302971Y-126606753D01*
X157906219Y-126431569D01*
X157906203Y-126431563D01*
X157494996Y-126293741D01*
X157494995Y-126293740D01*
X157494987Y-126293738D01*
X157494976Y-126293735D01*
X157494964Y-126293732D01*
X157072800Y-126194440D01*
X157072801Y-126194440D01*
X156643251Y-126134520D01*
X156318371Y-126119500D01*
X156318366Y-126119500D01*
X156101634Y-126119500D01*
X156101629Y-126119500D01*
X155776748Y-126134520D01*
X155347198Y-126194440D01*
X154925035Y-126293732D01*
X154925017Y-126293737D01*
X154925013Y-126293738D01*
X154925009Y-126293739D01*
X154925003Y-126293741D01*
X154513796Y-126431563D01*
X154513780Y-126431569D01*
X154117028Y-126606753D01*
X154117021Y-126606756D01*
X153738139Y-126817792D01*
X153380326Y-127062899D01*
X153046648Y-127339981D01*
X152739981Y-127646648D01*
X152622936Y-127787601D01*
X152564029Y-127827230D01*
X152493048Y-127828721D01*
X152432529Y-127791600D01*
X152401686Y-127727652D01*
X152400000Y-127707106D01*
X152400000Y-124460000D01*
X155252450Y-124460000D01*
X155270396Y-124630744D01*
X155270601Y-124632686D01*
X155324252Y-124797810D01*
X155324256Y-124797817D01*
X155411069Y-124948183D01*
X155411070Y-124948185D01*
X155527251Y-125077217D01*
X155667720Y-125179274D01*
X155667722Y-125179275D01*
X155667725Y-125179277D01*
X155826346Y-125249900D01*
X155996184Y-125286000D01*
X156169816Y-125286000D01*
X156339654Y-125249900D01*
X156498275Y-125179277D01*
X156638746Y-125077219D01*
X156754929Y-124948185D01*
X156841745Y-124797815D01*
X156843332Y-124792933D01*
X156895398Y-124632686D01*
X156895400Y-124632681D01*
X156913550Y-124460000D01*
X161030675Y-124460000D01*
X161049912Y-124630744D01*
X161106664Y-124792930D01*
X161106665Y-124792933D01*
X161198079Y-124938417D01*
X161198080Y-124938419D01*
X161319580Y-125059919D01*
X161319582Y-125059920D01*
X161465066Y-125151334D01*
X161465067Y-125151334D01*
X161465070Y-125151336D01*
X161627254Y-125208087D01*
X161627253Y-125208087D01*
X161644543Y-125210034D01*
X161798000Y-125227325D01*
X161968746Y-125208087D01*
X162130930Y-125151336D01*
X162276419Y-125059919D01*
X162397919Y-124938419D01*
X162489336Y-124792930D01*
X162546087Y-124630746D01*
X162565325Y-124460000D01*
X162546087Y-124289254D01*
X162489336Y-124127070D01*
X162489334Y-124127067D01*
X162489334Y-124127066D01*
X162397920Y-123981582D01*
X162397919Y-123981580D01*
X162276419Y-123860080D01*
X162276417Y-123860079D01*
X162130933Y-123768665D01*
X162130930Y-123768664D01*
X162051085Y-123740725D01*
X161968746Y-123711913D01*
X161968744Y-123711912D01*
X161968746Y-123711912D01*
X161798000Y-123692675D01*
X161627255Y-123711912D01*
X161465069Y-123768664D01*
X161465066Y-123768665D01*
X161319582Y-123860079D01*
X161319580Y-123860080D01*
X161198080Y-123981580D01*
X161198079Y-123981582D01*
X161106665Y-124127066D01*
X161106664Y-124127069D01*
X161049912Y-124289255D01*
X161030675Y-124460000D01*
X156913550Y-124460000D01*
X156895400Y-124287319D01*
X156891789Y-124276208D01*
X156841747Y-124122189D01*
X156841743Y-124122182D01*
X156754930Y-123971816D01*
X156754929Y-123971814D01*
X156638748Y-123842782D01*
X156498279Y-123740725D01*
X156433564Y-123711912D01*
X156339654Y-123670100D01*
X156169816Y-123634000D01*
X155996184Y-123634000D01*
X155826345Y-123670100D01*
X155667720Y-123740725D01*
X155527251Y-123842782D01*
X155411070Y-123971814D01*
X155411069Y-123971816D01*
X155324256Y-124122182D01*
X155324252Y-124122189D01*
X155270601Y-124287313D01*
X155270600Y-124287317D01*
X155270600Y-124287319D01*
X155252450Y-124460000D01*
X152400000Y-124460000D01*
X152400000Y-122434675D01*
X240647710Y-122434675D01*
X240667523Y-122749613D01*
X240667525Y-122749630D01*
X240726658Y-123059611D01*
X240726661Y-123059624D01*
X240824178Y-123359748D01*
X240824182Y-123359757D01*
X240958544Y-123645291D01*
X240958551Y-123645305D01*
X241127635Y-123911740D01*
X241127638Y-123911744D01*
X241216712Y-124019415D01*
X241860663Y-123375463D01*
X241862239Y-123378034D01*
X242025799Y-123569539D01*
X242217304Y-123733099D01*
X242219872Y-123734673D01*
X241573190Y-124381355D01*
X241573190Y-124381357D01*
X241814155Y-124556428D01*
X242090703Y-124708461D01*
X242384129Y-124824637D01*
X242384135Y-124824639D01*
X242689772Y-124903113D01*
X242689799Y-124903118D01*
X243002864Y-124942667D01*
X243002883Y-124942669D01*
X243318455Y-124942669D01*
X243318473Y-124942667D01*
X243631538Y-124903118D01*
X243631565Y-124903113D01*
X243937202Y-124824639D01*
X243937208Y-124824637D01*
X244230634Y-124708461D01*
X244507186Y-124556425D01*
X244748146Y-124381357D01*
X244748146Y-124381355D01*
X244101464Y-123734673D01*
X244104034Y-123733099D01*
X244295539Y-123569539D01*
X244459099Y-123378034D01*
X244460673Y-123375464D01*
X245104624Y-124019415D01*
X245104625Y-124019414D01*
X245193695Y-123911749D01*
X245193698Y-123911745D01*
X245362786Y-123645305D01*
X245362793Y-123645291D01*
X245497155Y-123359757D01*
X245497159Y-123359748D01*
X245594676Y-123059624D01*
X245594679Y-123059611D01*
X245653812Y-122749630D01*
X245653814Y-122749613D01*
X245673628Y-122434675D01*
X245673628Y-122434662D01*
X245653814Y-122119724D01*
X245653812Y-122119707D01*
X245594679Y-121809726D01*
X245594676Y-121809713D01*
X245497159Y-121509589D01*
X245497155Y-121509580D01*
X245362793Y-121224046D01*
X245362786Y-121224032D01*
X245193702Y-120957597D01*
X245193699Y-120957593D01*
X245104624Y-120849921D01*
X244460672Y-121493872D01*
X244459099Y-121491304D01*
X244295539Y-121299799D01*
X244104034Y-121136239D01*
X244101463Y-121134663D01*
X244748146Y-120487981D01*
X244748146Y-120487979D01*
X244507182Y-120312909D01*
X244230634Y-120160876D01*
X243937208Y-120044700D01*
X243937202Y-120044698D01*
X243631565Y-119966224D01*
X243631538Y-119966219D01*
X243318473Y-119926670D01*
X243318455Y-119926669D01*
X243002883Y-119926669D01*
X243002864Y-119926670D01*
X242689799Y-119966219D01*
X242689772Y-119966224D01*
X242384135Y-120044698D01*
X242384129Y-120044700D01*
X242090703Y-120160876D01*
X241814154Y-120312910D01*
X241573190Y-120487979D01*
X241573190Y-120487981D01*
X242219873Y-121134664D01*
X242217304Y-121136239D01*
X242025799Y-121299799D01*
X241862239Y-121491304D01*
X241860664Y-121493873D01*
X241216712Y-120849921D01*
X241216711Y-120849921D01*
X241127640Y-120957590D01*
X241127638Y-120957593D01*
X240958551Y-121224032D01*
X240958544Y-121224046D01*
X240824182Y-121509580D01*
X240824178Y-121509589D01*
X240726661Y-121809713D01*
X240726658Y-121809726D01*
X240667525Y-122119707D01*
X240667523Y-122119724D01*
X240647710Y-122434662D01*
X240647710Y-122434675D01*
X152400000Y-122434675D01*
X152400000Y-121031000D01*
X155252450Y-121031000D01*
X155270396Y-121201744D01*
X155270601Y-121203686D01*
X155324252Y-121368810D01*
X155324256Y-121368817D01*
X155411069Y-121519183D01*
X155411070Y-121519185D01*
X155527251Y-121648217D01*
X155667720Y-121750274D01*
X155667722Y-121750275D01*
X155667725Y-121750277D01*
X155826346Y-121820900D01*
X155996184Y-121857000D01*
X156169816Y-121857000D01*
X156339654Y-121820900D01*
X156498275Y-121750277D01*
X156638746Y-121648219D01*
X156754929Y-121519185D01*
X156841745Y-121368815D01*
X156843332Y-121363933D01*
X156868572Y-121286248D01*
X156895400Y-121203681D01*
X156913550Y-121031000D01*
X161157675Y-121031000D01*
X161176912Y-121201744D01*
X161233664Y-121363930D01*
X161233665Y-121363933D01*
X161325079Y-121509417D01*
X161325080Y-121509419D01*
X161446580Y-121630919D01*
X161446582Y-121630920D01*
X161592066Y-121722334D01*
X161592067Y-121722334D01*
X161592070Y-121722336D01*
X161754254Y-121779087D01*
X161754253Y-121779087D01*
X161771543Y-121781034D01*
X161925000Y-121798325D01*
X162095746Y-121779087D01*
X162257930Y-121722336D01*
X162403419Y-121630919D01*
X162524919Y-121509419D01*
X162586132Y-121412000D01*
X171508450Y-121412000D01*
X171521842Y-121539417D01*
X171526601Y-121584686D01*
X171580252Y-121749810D01*
X171580256Y-121749817D01*
X171667069Y-121900183D01*
X171667070Y-121900185D01*
X171783251Y-122029217D01*
X171923720Y-122131274D01*
X171923722Y-122131275D01*
X171923725Y-122131277D01*
X172082346Y-122201900D01*
X172252184Y-122238000D01*
X172425816Y-122238000D01*
X172595654Y-122201900D01*
X172754275Y-122131277D01*
X172894746Y-122029219D01*
X173010929Y-121900185D01*
X173097745Y-121749815D01*
X173106674Y-121722336D01*
X173114370Y-121698649D01*
X220761500Y-121698649D01*
X220768009Y-121759196D01*
X220768011Y-121759204D01*
X220819110Y-121896202D01*
X220819112Y-121896207D01*
X220906738Y-122013261D01*
X221023792Y-122100887D01*
X221023794Y-122100888D01*
X221023796Y-122100889D01*
X221074294Y-122119724D01*
X221160795Y-122151988D01*
X221160803Y-122151990D01*
X221221350Y-122158499D01*
X221221355Y-122158499D01*
X221221362Y-122158500D01*
X221221368Y-122158500D01*
X223318632Y-122158500D01*
X223318638Y-122158500D01*
X223318645Y-122158499D01*
X223318649Y-122158499D01*
X223379196Y-122151990D01*
X223379199Y-122151989D01*
X223379201Y-122151989D01*
X223516204Y-122100889D01*
X223550175Y-122075459D01*
X223633261Y-122013261D01*
X223720887Y-121896207D01*
X223720887Y-121896206D01*
X223720889Y-121896204D01*
X223771989Y-121759201D01*
X223772949Y-121750277D01*
X223778499Y-121698649D01*
X223778500Y-121698632D01*
X223778500Y-120650000D01*
X228356835Y-120650000D01*
X228373230Y-120858319D01*
X228375465Y-120886710D01*
X228430894Y-121117592D01*
X228474989Y-121224046D01*
X228521760Y-121336963D01*
X228633426Y-121519185D01*
X228645825Y-121539417D01*
X228645826Y-121539419D01*
X228800030Y-121719969D01*
X228980580Y-121874173D01*
X228980584Y-121874176D01*
X229183037Y-121998240D01*
X229402406Y-122089105D01*
X229633289Y-122144535D01*
X229870000Y-122163165D01*
X230106711Y-122144535D01*
X230337594Y-122089105D01*
X230556963Y-121998240D01*
X230759416Y-121874176D01*
X230939969Y-121719969D01*
X231094176Y-121539416D01*
X231218240Y-121336963D01*
X231309105Y-121117594D01*
X231364535Y-120886711D01*
X231383165Y-120650000D01*
X231364535Y-120413289D01*
X231309105Y-120182406D01*
X231218240Y-119963037D01*
X231094176Y-119760584D01*
X230958192Y-119601367D01*
X230939969Y-119580030D01*
X230759419Y-119425826D01*
X230759417Y-119425825D01*
X230759416Y-119425824D01*
X230556963Y-119301760D01*
X230520697Y-119286738D01*
X230337592Y-119210894D01*
X230179651Y-119172976D01*
X230106711Y-119155465D01*
X229870000Y-119136835D01*
X229633289Y-119155465D01*
X229402407Y-119210894D01*
X229183038Y-119301759D01*
X228980582Y-119425825D01*
X228980580Y-119425826D01*
X228800030Y-119580030D01*
X228645826Y-119760580D01*
X228645825Y-119760582D01*
X228521759Y-119963038D01*
X228430894Y-120182407D01*
X228375465Y-120413289D01*
X228356835Y-120650000D01*
X223778500Y-120650000D01*
X223778500Y-119601367D01*
X223778499Y-119601350D01*
X223771990Y-119540803D01*
X223771988Y-119540795D01*
X223720889Y-119403797D01*
X223720887Y-119403792D01*
X223633261Y-119286738D01*
X223516207Y-119199112D01*
X223516202Y-119199110D01*
X223379204Y-119148011D01*
X223379196Y-119148009D01*
X223318649Y-119141500D01*
X223318638Y-119141500D01*
X221221362Y-119141500D01*
X221221350Y-119141500D01*
X221160803Y-119148009D01*
X221160795Y-119148011D01*
X221023797Y-119199110D01*
X221023792Y-119199112D01*
X220906738Y-119286738D01*
X220819112Y-119403792D01*
X220819110Y-119403797D01*
X220768011Y-119540795D01*
X220768009Y-119540803D01*
X220761500Y-119601350D01*
X220761500Y-121698649D01*
X173114370Y-121698649D01*
X173151398Y-121584686D01*
X173151400Y-121584681D01*
X173169550Y-121412000D01*
X173151400Y-121239319D01*
X173139191Y-121201744D01*
X173097747Y-121074189D01*
X173097743Y-121074182D01*
X173010930Y-120923816D01*
X173010929Y-120923814D01*
X172894748Y-120794782D01*
X172754279Y-120692725D01*
X172595654Y-120622100D01*
X172425816Y-120586000D01*
X172252184Y-120586000D01*
X172082345Y-120622100D01*
X171923720Y-120692725D01*
X171783251Y-120794782D01*
X171667070Y-120923814D01*
X171667069Y-120923816D01*
X171580256Y-121074182D01*
X171580252Y-121074189D01*
X171526601Y-121239313D01*
X171526600Y-121239317D01*
X171526600Y-121239319D01*
X171508450Y-121412000D01*
X162586132Y-121412000D01*
X162616336Y-121363930D01*
X162673087Y-121201746D01*
X162692325Y-121031000D01*
X162673087Y-120860254D01*
X162616336Y-120698070D01*
X162616334Y-120698067D01*
X162616334Y-120698066D01*
X162524920Y-120552582D01*
X162524919Y-120552580D01*
X162403419Y-120431080D01*
X162403417Y-120431079D01*
X162257933Y-120339665D01*
X162257930Y-120339664D01*
X162095746Y-120282913D01*
X162095744Y-120282912D01*
X162095746Y-120282912D01*
X161925000Y-120263675D01*
X161754255Y-120282912D01*
X161592069Y-120339664D01*
X161592066Y-120339665D01*
X161446582Y-120431079D01*
X161446580Y-120431080D01*
X161325080Y-120552580D01*
X161325079Y-120552582D01*
X161233665Y-120698066D01*
X161233664Y-120698069D01*
X161176912Y-120860255D01*
X161157675Y-121031000D01*
X156913550Y-121031000D01*
X156895400Y-120858319D01*
X156874756Y-120794782D01*
X156841747Y-120693189D01*
X156841743Y-120693182D01*
X156754930Y-120542816D01*
X156754929Y-120542814D01*
X156638748Y-120413782D01*
X156498279Y-120311725D01*
X156433564Y-120282912D01*
X156339654Y-120241100D01*
X156169816Y-120205000D01*
X155996184Y-120205000D01*
X155826345Y-120241100D01*
X155667720Y-120311725D01*
X155527251Y-120413782D01*
X155411070Y-120542814D01*
X155411069Y-120542816D01*
X155324256Y-120693182D01*
X155324252Y-120693189D01*
X155270601Y-120858313D01*
X155270600Y-120858317D01*
X155270600Y-120858319D01*
X155252450Y-121031000D01*
X152400000Y-121031000D01*
X152400000Y-117602000D01*
X155315950Y-117602000D01*
X155333896Y-117772744D01*
X155334101Y-117774686D01*
X155387752Y-117939810D01*
X155387756Y-117939817D01*
X155474569Y-118090183D01*
X155474570Y-118090185D01*
X155590751Y-118219217D01*
X155731220Y-118321274D01*
X155731222Y-118321275D01*
X155731225Y-118321277D01*
X155889846Y-118391900D01*
X156059684Y-118428000D01*
X156233316Y-118428000D01*
X156403154Y-118391900D01*
X156561775Y-118321277D01*
X156702246Y-118219219D01*
X156818429Y-118090185D01*
X156905245Y-117939815D01*
X156906832Y-117934933D01*
X156958898Y-117774686D01*
X156958900Y-117774681D01*
X156977050Y-117602000D01*
X161030675Y-117602000D01*
X161049912Y-117772744D01*
X161106664Y-117934930D01*
X161106665Y-117934933D01*
X161198079Y-118080417D01*
X161198080Y-118080419D01*
X161319580Y-118201919D01*
X161319582Y-118201920D01*
X161465066Y-118293334D01*
X161465067Y-118293334D01*
X161465070Y-118293336D01*
X161627254Y-118350087D01*
X161627253Y-118350087D01*
X161644543Y-118352034D01*
X161798000Y-118369325D01*
X161968746Y-118350087D01*
X162130930Y-118293336D01*
X162276419Y-118201919D01*
X162397919Y-118080419D01*
X162489336Y-117934930D01*
X162546087Y-117772746D01*
X162565325Y-117602000D01*
X162546087Y-117431254D01*
X162489336Y-117269070D01*
X162489334Y-117269067D01*
X162489334Y-117269066D01*
X162397920Y-117123582D01*
X162397919Y-117123580D01*
X162276419Y-117002080D01*
X162276417Y-117002079D01*
X162130933Y-116910665D01*
X162130930Y-116910664D01*
X162051085Y-116882725D01*
X161968746Y-116853913D01*
X161968744Y-116853912D01*
X161968746Y-116853912D01*
X161845264Y-116840000D01*
X179509450Y-116840000D01*
X179516877Y-116910665D01*
X179527601Y-117012686D01*
X179581252Y-117177810D01*
X179581256Y-117177817D01*
X179668069Y-117328183D01*
X179668070Y-117328185D01*
X179784251Y-117457217D01*
X179924720Y-117559274D01*
X179924722Y-117559275D01*
X179924725Y-117559277D01*
X180083346Y-117629900D01*
X180253184Y-117666000D01*
X180426816Y-117666000D01*
X180596654Y-117629900D01*
X180755275Y-117559277D01*
X180895746Y-117457219D01*
X181011929Y-117328185D01*
X181098745Y-117177815D01*
X181119540Y-117113816D01*
X181152398Y-117012686D01*
X181152400Y-117012681D01*
X181170550Y-116840000D01*
X181152400Y-116667319D01*
X181148789Y-116656208D01*
X181098747Y-116502189D01*
X181098743Y-116502182D01*
X181011930Y-116351816D01*
X181011929Y-116351814D01*
X180895748Y-116222782D01*
X180755279Y-116120725D01*
X180693383Y-116093167D01*
X180596654Y-116050100D01*
X180426816Y-116014000D01*
X180253184Y-116014000D01*
X180083345Y-116050100D01*
X179924720Y-116120725D01*
X179784251Y-116222782D01*
X179668070Y-116351814D01*
X179668069Y-116351816D01*
X179581256Y-116502182D01*
X179581252Y-116502189D01*
X179527601Y-116667313D01*
X179527600Y-116667317D01*
X179527600Y-116667319D01*
X179509450Y-116840000D01*
X161845264Y-116840000D01*
X161798000Y-116834675D01*
X161627255Y-116853912D01*
X161465069Y-116910664D01*
X161465066Y-116910665D01*
X161319582Y-117002079D01*
X161319580Y-117002080D01*
X161198080Y-117123580D01*
X161198079Y-117123582D01*
X161106665Y-117269066D01*
X161106664Y-117269069D01*
X161049912Y-117431255D01*
X161030675Y-117602000D01*
X156977050Y-117602000D01*
X156958900Y-117429319D01*
X156926040Y-117328185D01*
X156905247Y-117264189D01*
X156905243Y-117264182D01*
X156818430Y-117113816D01*
X156818429Y-117113814D01*
X156702248Y-116984782D01*
X156561779Y-116882725D01*
X156497064Y-116853912D01*
X156403154Y-116812100D01*
X156233316Y-116776000D01*
X156059684Y-116776000D01*
X155889845Y-116812100D01*
X155731220Y-116882725D01*
X155590751Y-116984782D01*
X155474570Y-117113814D01*
X155474569Y-117113816D01*
X155387756Y-117264182D01*
X155387752Y-117264189D01*
X155334101Y-117429313D01*
X155334100Y-117429317D01*
X155334100Y-117429319D01*
X155315950Y-117602000D01*
X152400000Y-117602000D01*
X152400000Y-110490000D01*
X155379450Y-110490000D01*
X155396153Y-110648915D01*
X155397601Y-110662686D01*
X155451252Y-110827810D01*
X155451256Y-110827817D01*
X155538069Y-110978183D01*
X155538070Y-110978185D01*
X155654251Y-111107217D01*
X155794720Y-111209274D01*
X155794722Y-111209275D01*
X155794725Y-111209277D01*
X155953346Y-111279900D01*
X156123184Y-111316000D01*
X156296816Y-111316000D01*
X156466654Y-111279900D01*
X156625275Y-111209277D01*
X156765746Y-111107219D01*
X156881929Y-110978185D01*
X156968745Y-110827815D01*
X156968928Y-110827254D01*
X157009860Y-110701274D01*
X157022400Y-110662681D01*
X157040550Y-110490000D01*
X157022400Y-110317319D01*
X157000499Y-110249913D01*
X156968747Y-110152189D01*
X156968743Y-110152182D01*
X156881930Y-110001816D01*
X156881929Y-110001814D01*
X156765748Y-109872782D01*
X156625279Y-109770725D01*
X156466654Y-109700100D01*
X156296816Y-109664000D01*
X156123184Y-109664000D01*
X155953345Y-109700100D01*
X155794720Y-109770725D01*
X155654251Y-109872782D01*
X155538070Y-110001814D01*
X155538069Y-110001816D01*
X155451256Y-110152182D01*
X155451252Y-110152189D01*
X155397601Y-110317313D01*
X155397600Y-110317317D01*
X155397600Y-110317319D01*
X155379450Y-110490000D01*
X152400000Y-110490000D01*
X152400000Y-108522000D01*
X157474675Y-108522000D01*
X157493912Y-108692744D01*
X157550664Y-108854930D01*
X157550665Y-108854933D01*
X157642079Y-109000417D01*
X157642080Y-109000419D01*
X157763580Y-109121919D01*
X157763582Y-109121920D01*
X157909066Y-109213334D01*
X157909067Y-109213334D01*
X157909070Y-109213336D01*
X158071254Y-109270087D01*
X158071253Y-109270087D01*
X158088543Y-109272034D01*
X158242000Y-109289325D01*
X158412746Y-109270087D01*
X158555886Y-109220000D01*
X181516844Y-109220000D01*
X181530555Y-109385467D01*
X181535437Y-109444375D01*
X181590702Y-109662612D01*
X181590703Y-109662613D01*
X181590704Y-109662616D01*
X181681140Y-109868791D01*
X181681141Y-109868793D01*
X181804275Y-110057265D01*
X181804279Y-110057270D01*
X181956762Y-110222908D01*
X181966741Y-110230675D01*
X182134424Y-110361189D01*
X182168205Y-110379470D01*
X182218596Y-110429482D01*
X182233949Y-110498799D01*
X182209389Y-110565412D01*
X182168209Y-110601096D01*
X182134704Y-110619228D01*
X182134698Y-110619232D01*
X181957097Y-110757465D01*
X181804674Y-110923041D01*
X181681580Y-111111451D01*
X181591179Y-111317543D01*
X181591176Y-111317550D01*
X181543455Y-111505999D01*
X181543456Y-111506000D01*
X182448884Y-111506000D01*
X182420507Y-111550156D01*
X182380000Y-111688111D01*
X182380000Y-111831889D01*
X182420507Y-111969844D01*
X182448884Y-112014000D01*
X181543455Y-112014000D01*
X181591176Y-112202449D01*
X181591179Y-112202456D01*
X181681580Y-112408548D01*
X181804674Y-112596958D01*
X181957097Y-112762534D01*
X182134698Y-112900767D01*
X182134699Y-112900768D01*
X182332628Y-113007882D01*
X182332630Y-113007883D01*
X182545483Y-113080955D01*
X182545492Y-113080957D01*
X182626000Y-113094391D01*
X182626000Y-112193674D01*
X182737685Y-112244680D01*
X182844237Y-112260000D01*
X182915763Y-112260000D01*
X183022315Y-112244680D01*
X183134000Y-112193674D01*
X183134000Y-113094390D01*
X183214507Y-113080957D01*
X183214516Y-113080955D01*
X183427369Y-113007883D01*
X183427371Y-113007882D01*
X183625300Y-112900768D01*
X183625301Y-112900767D01*
X183802902Y-112762534D01*
X183955325Y-112596958D01*
X184078419Y-112408548D01*
X184168820Y-112202456D01*
X184168823Y-112202449D01*
X184216544Y-112014000D01*
X183311116Y-112014000D01*
X183339493Y-111969844D01*
X183380000Y-111831889D01*
X183380000Y-111760000D01*
X201162675Y-111760000D01*
X201181912Y-111930744D01*
X201238664Y-112092930D01*
X201238665Y-112092933D01*
X201330079Y-112238417D01*
X201330080Y-112238419D01*
X201451580Y-112359919D01*
X201451582Y-112359920D01*
X201597066Y-112451334D01*
X201597067Y-112451334D01*
X201597070Y-112451336D01*
X201759254Y-112508087D01*
X201759253Y-112508087D01*
X201776543Y-112510034D01*
X201930000Y-112527325D01*
X202100746Y-112508087D01*
X202262930Y-112451336D01*
X202352588Y-112395000D01*
X203702675Y-112395000D01*
X203721912Y-112565744D01*
X203778664Y-112727930D01*
X203778665Y-112727933D01*
X203870079Y-112873417D01*
X203870080Y-112873419D01*
X203991580Y-112994919D01*
X203991582Y-112994920D01*
X204137066Y-113086334D01*
X204137067Y-113086334D01*
X204137070Y-113086336D01*
X204299254Y-113143087D01*
X204299253Y-113143087D01*
X204316543Y-113145034D01*
X204470000Y-113162325D01*
X204640746Y-113143087D01*
X204802930Y-113086336D01*
X204948419Y-112994919D01*
X205069919Y-112873419D01*
X205161336Y-112727930D01*
X205218087Y-112565746D01*
X205226659Y-112489669D01*
X239797171Y-112489669D01*
X239817126Y-112717755D01*
X239876384Y-112938909D01*
X239876386Y-112938915D01*
X239973146Y-113146418D01*
X240017468Y-113209717D01*
X240104471Y-113333969D01*
X240266369Y-113495867D01*
X240266372Y-113495869D01*
X240332685Y-113542302D01*
X240377013Y-113597759D01*
X240385934Y-113656497D01*
X240382778Y-113692568D01*
X240983081Y-114292871D01*
X240968354Y-114294989D01*
X240837569Y-114354717D01*
X240728908Y-114448871D01*
X240651176Y-114569825D01*
X240626308Y-114654517D01*
X240023569Y-114051778D01*
X239973582Y-114123169D01*
X239876857Y-114330595D01*
X239876855Y-114330600D01*
X239817620Y-114551666D01*
X239797673Y-114779669D01*
X239817620Y-115007671D01*
X239876855Y-115228737D01*
X239876857Y-115228742D01*
X239973582Y-115436170D01*
X240023568Y-115507557D01*
X240626307Y-114904818D01*
X240651176Y-114989513D01*
X240728908Y-115110467D01*
X240837569Y-115204621D01*
X240968354Y-115264349D01*
X240983081Y-115266466D01*
X240382779Y-115866767D01*
X240382779Y-115866769D01*
X240454167Y-115916755D01*
X240661595Y-116013480D01*
X240661600Y-116013482D01*
X240882668Y-116072717D01*
X240882664Y-116072717D01*
X241110669Y-116092664D01*
X241338671Y-116072717D01*
X241559737Y-116013482D01*
X241559742Y-116013480D01*
X241767166Y-115916757D01*
X241838557Y-115866768D01*
X241838557Y-115866766D01*
X241238257Y-115266466D01*
X241252984Y-115264349D01*
X241383769Y-115204621D01*
X241492430Y-115110467D01*
X241570162Y-114989513D01*
X241595029Y-114904820D01*
X242197766Y-115507557D01*
X242197768Y-115507557D01*
X242247757Y-115436166D01*
X242344480Y-115228742D01*
X242344482Y-115228737D01*
X242403717Y-115007671D01*
X242409058Y-114946623D01*
X242434921Y-114880505D01*
X242492425Y-114838865D01*
X242563312Y-114834924D01*
X242587829Y-114843409D01*
X242641595Y-114868480D01*
X242641600Y-114868482D01*
X242862668Y-114927717D01*
X242862664Y-114927717D01*
X243090669Y-114947664D01*
X243318671Y-114927717D01*
X243539737Y-114868482D01*
X243539742Y-114868480D01*
X243593024Y-114843634D01*
X243663215Y-114832972D01*
X243728029Y-114861950D01*
X243766886Y-114921369D01*
X243771796Y-114946845D01*
X243777125Y-115007750D01*
X243777126Y-115007756D01*
X243836385Y-115228912D01*
X243933146Y-115436418D01*
X244064471Y-115623969D01*
X244226369Y-115785867D01*
X244413920Y-115917192D01*
X244621426Y-116013953D01*
X244842582Y-116073212D01*
X245070669Y-116093167D01*
X245298756Y-116073212D01*
X245519912Y-116013953D01*
X245727418Y-115917192D01*
X245914969Y-115785867D01*
X246076867Y-115623969D01*
X246208192Y-115436418D01*
X246304953Y-115228912D01*
X246364212Y-115007756D01*
X246384167Y-114779669D01*
X246364212Y-114551582D01*
X246304953Y-114330426D01*
X246208192Y-114122920D01*
X246076867Y-113935369D01*
X245914969Y-113773471D01*
X245864141Y-113737881D01*
X245819814Y-113682426D01*
X245812505Y-113611806D01*
X245844535Y-113548446D01*
X245864137Y-113531459D01*
X245914969Y-113495867D01*
X246076867Y-113333969D01*
X246208192Y-113146418D01*
X246304953Y-112938912D01*
X246364212Y-112717756D01*
X246384167Y-112489669D01*
X246364212Y-112261582D01*
X246304953Y-112040426D01*
X246208192Y-111832920D01*
X246076867Y-111645369D01*
X245914969Y-111483471D01*
X245864141Y-111447881D01*
X245819814Y-111392426D01*
X245812505Y-111321806D01*
X245844535Y-111258446D01*
X245864137Y-111241459D01*
X245914969Y-111205867D01*
X246076867Y-111043969D01*
X246208192Y-110856418D01*
X246304953Y-110648912D01*
X246364212Y-110427756D01*
X246384167Y-110199669D01*
X246364212Y-109971582D01*
X246304953Y-109750426D01*
X246208192Y-109542920D01*
X246076867Y-109355369D01*
X245914969Y-109193471D01*
X245864141Y-109157881D01*
X245819814Y-109102426D01*
X245812505Y-109031806D01*
X245844535Y-108968446D01*
X245864137Y-108951459D01*
X245914969Y-108915867D01*
X246076867Y-108753969D01*
X246208192Y-108566418D01*
X246304953Y-108358912D01*
X246364212Y-108137756D01*
X246384167Y-107909669D01*
X246364212Y-107681582D01*
X246304953Y-107460426D01*
X246208192Y-107252920D01*
X246076867Y-107065369D01*
X245914969Y-106903471D01*
X245864141Y-106867881D01*
X245819814Y-106812426D01*
X245812505Y-106741806D01*
X245844535Y-106678446D01*
X245864137Y-106661459D01*
X245914969Y-106625867D01*
X246076867Y-106463969D01*
X246208192Y-106276418D01*
X246304953Y-106068912D01*
X246364212Y-105847756D01*
X246384167Y-105619669D01*
X246364212Y-105391582D01*
X246304953Y-105170426D01*
X246208192Y-104962920D01*
X246076867Y-104775369D01*
X245914969Y-104613471D01*
X245883825Y-104591664D01*
X245727418Y-104482146D01*
X245519915Y-104385386D01*
X245519909Y-104385384D01*
X245323137Y-104332659D01*
X245298756Y-104326126D01*
X245070669Y-104306171D01*
X244842582Y-104326126D01*
X244621428Y-104385384D01*
X244621417Y-104385388D01*
X244567781Y-104410399D01*
X244497589Y-104421060D01*
X244432777Y-104392079D01*
X244393921Y-104332659D01*
X244389011Y-104307184D01*
X244383717Y-104246666D01*
X244324482Y-104025600D01*
X244324480Y-104025595D01*
X244227755Y-103818167D01*
X244177769Y-103746779D01*
X244177766Y-103746779D01*
X243575029Y-104349516D01*
X243550162Y-104264825D01*
X243472430Y-104143871D01*
X243363769Y-104049717D01*
X243232984Y-103989989D01*
X243218256Y-103987871D01*
X243818557Y-103387568D01*
X243818557Y-103387567D01*
X243747170Y-103337582D01*
X243539742Y-103240857D01*
X243539737Y-103240855D01*
X243318669Y-103181620D01*
X243318673Y-103181620D01*
X243090669Y-103161673D01*
X242862666Y-103181620D01*
X242641600Y-103240855D01*
X242641595Y-103240857D01*
X242434169Y-103337582D01*
X242362778Y-103387569D01*
X242963080Y-103987871D01*
X242948354Y-103989989D01*
X242817569Y-104049717D01*
X242708908Y-104143871D01*
X242631176Y-104264825D01*
X242606308Y-104349517D01*
X242003569Y-103746778D01*
X241953582Y-103818169D01*
X241856857Y-104025595D01*
X241856855Y-104025599D01*
X241805362Y-104217780D01*
X241768411Y-104278403D01*
X241704550Y-104309424D01*
X241683655Y-104311169D01*
X240262019Y-104311169D01*
X240201472Y-104317678D01*
X240201464Y-104317680D01*
X240064466Y-104368779D01*
X240064461Y-104368781D01*
X239947407Y-104456407D01*
X239859781Y-104573461D01*
X239859779Y-104573466D01*
X239808680Y-104710464D01*
X239808678Y-104710472D01*
X239802169Y-104771019D01*
X239802169Y-106468318D01*
X239808678Y-106528865D01*
X239808680Y-106528873D01*
X239859779Y-106665871D01*
X239859781Y-106665876D01*
X239947407Y-106782930D01*
X240064464Y-106870558D01*
X240068975Y-106873021D01*
X240119179Y-106923221D01*
X240134272Y-106992595D01*
X240109463Y-107059116D01*
X240105118Y-107064597D01*
X240104473Y-107065364D01*
X239973146Y-107252919D01*
X239876386Y-107460422D01*
X239876384Y-107460428D01*
X239817126Y-107681582D01*
X239797171Y-107909669D01*
X239817126Y-108137756D01*
X239830876Y-108189070D01*
X239876384Y-108358909D01*
X239876386Y-108358915D01*
X239973146Y-108566418D01*
X240018143Y-108630681D01*
X240104471Y-108753969D01*
X240266369Y-108915867D01*
X240266372Y-108915869D01*
X240317195Y-108951456D01*
X240361523Y-109006913D01*
X240368832Y-109077533D01*
X240336801Y-109140893D01*
X240317195Y-109157882D01*
X240266372Y-109193468D01*
X240266366Y-109193473D01*
X240104473Y-109355366D01*
X240104468Y-109355372D01*
X239973146Y-109542919D01*
X239876386Y-109750422D01*
X239876384Y-109750428D01*
X239817126Y-109971582D01*
X239797171Y-110199669D01*
X239817126Y-110427756D01*
X239828495Y-110470185D01*
X239876384Y-110648909D01*
X239876386Y-110648915D01*
X239900803Y-110701277D01*
X239973146Y-110856418D01*
X240104471Y-111043969D01*
X240266369Y-111205867D01*
X240266372Y-111205869D01*
X240317195Y-111241456D01*
X240361523Y-111296913D01*
X240368832Y-111367533D01*
X240336801Y-111430893D01*
X240317195Y-111447882D01*
X240266372Y-111483468D01*
X240266366Y-111483473D01*
X240104473Y-111645366D01*
X240104468Y-111645372D01*
X239973146Y-111832919D01*
X239876386Y-112040422D01*
X239876384Y-112040428D01*
X239817126Y-112261582D01*
X239797171Y-112489669D01*
X205226659Y-112489669D01*
X205237325Y-112395000D01*
X205218087Y-112224254D01*
X205161336Y-112062070D01*
X205161334Y-112062067D01*
X205159077Y-112055616D01*
X205155457Y-111984711D01*
X205159077Y-111972384D01*
X205161334Y-111965932D01*
X205161336Y-111965930D01*
X205218087Y-111803746D01*
X205237325Y-111633000D01*
X205218087Y-111462254D01*
X205161336Y-111300070D01*
X205161334Y-111300067D01*
X205161334Y-111300066D01*
X205069920Y-111154582D01*
X205069919Y-111154580D01*
X204948419Y-111033080D01*
X204948417Y-111033079D01*
X204802933Y-110941665D01*
X204802930Y-110941664D01*
X204640746Y-110884913D01*
X204640744Y-110884912D01*
X204640746Y-110884912D01*
X204470000Y-110865675D01*
X204299255Y-110884912D01*
X204137069Y-110941664D01*
X204137066Y-110941665D01*
X203991582Y-111033079D01*
X203991580Y-111033080D01*
X203870080Y-111154580D01*
X203870079Y-111154582D01*
X203778665Y-111300066D01*
X203778664Y-111300069D01*
X203721912Y-111462255D01*
X203702675Y-111633000D01*
X203721912Y-111803744D01*
X203780922Y-111972385D01*
X203784541Y-112043289D01*
X203780922Y-112055615D01*
X203721912Y-112224255D01*
X203702675Y-112395000D01*
X202352588Y-112395000D01*
X202408419Y-112359919D01*
X202529919Y-112238419D01*
X202621336Y-112092930D01*
X202678087Y-111930746D01*
X202697325Y-111760000D01*
X202678087Y-111589254D01*
X202621336Y-111427070D01*
X202621334Y-111427067D01*
X202619077Y-111420616D01*
X202615457Y-111349711D01*
X202619077Y-111337384D01*
X202621334Y-111330932D01*
X202621336Y-111330930D01*
X202678087Y-111168746D01*
X202697325Y-110998000D01*
X202678087Y-110827254D01*
X202621336Y-110665070D01*
X202621334Y-110665067D01*
X202621334Y-110665066D01*
X202529920Y-110519582D01*
X202529919Y-110519580D01*
X202408419Y-110398080D01*
X202408417Y-110398079D01*
X202262933Y-110306665D01*
X202262930Y-110306664D01*
X202100746Y-110249913D01*
X202100744Y-110249912D01*
X202100746Y-110249912D01*
X201930000Y-110230675D01*
X201759255Y-110249912D01*
X201597069Y-110306664D01*
X201597066Y-110306665D01*
X201451582Y-110398079D01*
X201451580Y-110398080D01*
X201330080Y-110519580D01*
X201330079Y-110519582D01*
X201238665Y-110665066D01*
X201238664Y-110665069D01*
X201181912Y-110827255D01*
X201162675Y-110998000D01*
X201181912Y-111168744D01*
X201240922Y-111337385D01*
X201244541Y-111408289D01*
X201240922Y-111420615D01*
X201181912Y-111589255D01*
X201162675Y-111760000D01*
X183380000Y-111760000D01*
X183380000Y-111688111D01*
X183339493Y-111550156D01*
X183311116Y-111506000D01*
X184216544Y-111506000D01*
X184216544Y-111505999D01*
X184168823Y-111317550D01*
X184168820Y-111317543D01*
X184078419Y-111111451D01*
X183955325Y-110923041D01*
X183802902Y-110757465D01*
X183625301Y-110619232D01*
X183625300Y-110619231D01*
X183591791Y-110601097D01*
X183541401Y-110551083D01*
X183526050Y-110481766D01*
X183550612Y-110415153D01*
X183591790Y-110379472D01*
X183625576Y-110361189D01*
X183803240Y-110222906D01*
X183955722Y-110057268D01*
X184004897Y-109982000D01*
X219334450Y-109982000D01*
X219352338Y-110152189D01*
X219352601Y-110154686D01*
X219406252Y-110319810D01*
X219406256Y-110319817D01*
X219493069Y-110470183D01*
X219493070Y-110470185D01*
X219609251Y-110599217D01*
X219749720Y-110701274D01*
X219749722Y-110701275D01*
X219749725Y-110701277D01*
X219908346Y-110771900D01*
X220078184Y-110808000D01*
X220251816Y-110808000D01*
X220421654Y-110771900D01*
X220580275Y-110701277D01*
X220720746Y-110599219D01*
X220792454Y-110519580D01*
X220836929Y-110470185D01*
X220836930Y-110470183D01*
X220861426Y-110427755D01*
X220923745Y-110319815D01*
X220977400Y-110154681D01*
X220995550Y-109982000D01*
X220977400Y-109809319D01*
X220964860Y-109770725D01*
X220923747Y-109644189D01*
X220923743Y-109644182D01*
X220836930Y-109493816D01*
X220836929Y-109493814D01*
X220720748Y-109364782D01*
X220580279Y-109262725D01*
X220469350Y-109213336D01*
X220421654Y-109192100D01*
X220251816Y-109156000D01*
X220078184Y-109156000D01*
X219908345Y-109192100D01*
X219749720Y-109262725D01*
X219609251Y-109364782D01*
X219493070Y-109493814D01*
X219493069Y-109493816D01*
X219406256Y-109644182D01*
X219406252Y-109644189D01*
X219352601Y-109809313D01*
X219352600Y-109809317D01*
X219352600Y-109809319D01*
X219334450Y-109982000D01*
X184004897Y-109982000D01*
X184078860Y-109868791D01*
X184169296Y-109662616D01*
X184224564Y-109444368D01*
X184243156Y-109220000D01*
X184224564Y-108995632D01*
X184188934Y-108854933D01*
X184169297Y-108777387D01*
X184169296Y-108777386D01*
X184169296Y-108777384D01*
X184078860Y-108571209D01*
X184023125Y-108485900D01*
X183955724Y-108382734D01*
X183955720Y-108382729D01*
X183803237Y-108217091D01*
X183721382Y-108153381D01*
X183625576Y-108078811D01*
X183592319Y-108060813D01*
X183541929Y-108010802D01*
X183526576Y-107941485D01*
X183551136Y-107874872D01*
X183592320Y-107839186D01*
X183625576Y-107821189D01*
X183803240Y-107682906D01*
X183955722Y-107517268D01*
X184078860Y-107328791D01*
X184169296Y-107122616D01*
X184224564Y-106904368D01*
X184232632Y-106807000D01*
X204528450Y-106807000D01*
X204546289Y-106976725D01*
X204546601Y-106979686D01*
X204600252Y-107144810D01*
X204600256Y-107144817D01*
X204687069Y-107295183D01*
X204687070Y-107295185D01*
X204803251Y-107424217D01*
X204943720Y-107526274D01*
X204943722Y-107526275D01*
X204943725Y-107526277D01*
X205102346Y-107596900D01*
X205272184Y-107633000D01*
X205445816Y-107633000D01*
X205615654Y-107596900D01*
X205774275Y-107526277D01*
X205914746Y-107424219D01*
X205974204Y-107358185D01*
X206030929Y-107295185D01*
X206030930Y-107295183D01*
X206048547Y-107264669D01*
X206117745Y-107144815D01*
X206124346Y-107124500D01*
X206433175Y-107124500D01*
X206452412Y-107295244D01*
X206509164Y-107457430D01*
X206509165Y-107457433D01*
X206600579Y-107602917D01*
X206600580Y-107602919D01*
X206722080Y-107724419D01*
X206722082Y-107724420D01*
X206867566Y-107815834D01*
X206867567Y-107815834D01*
X206867570Y-107815836D01*
X207029754Y-107872587D01*
X207029753Y-107872587D01*
X207047043Y-107874534D01*
X207200500Y-107891825D01*
X207371246Y-107872587D01*
X207533430Y-107815836D01*
X207678919Y-107724419D01*
X207707338Y-107696000D01*
X221546450Y-107696000D01*
X221560604Y-107830665D01*
X221564601Y-107868686D01*
X221618252Y-108033810D01*
X221618256Y-108033817D01*
X221705069Y-108184183D01*
X221705070Y-108184185D01*
X221821251Y-108313217D01*
X221961720Y-108415274D01*
X221961722Y-108415275D01*
X221961725Y-108415277D01*
X222120346Y-108485900D01*
X222290184Y-108522000D01*
X222463816Y-108522000D01*
X222633654Y-108485900D01*
X222696318Y-108458000D01*
X224975450Y-108458000D01*
X224978382Y-108485900D01*
X224993601Y-108630686D01*
X225047252Y-108795810D01*
X225047256Y-108795817D01*
X225134069Y-108946183D01*
X225134070Y-108946185D01*
X225250251Y-109075217D01*
X225390720Y-109177274D01*
X225390722Y-109177275D01*
X225390725Y-109177277D01*
X225549346Y-109247900D01*
X225719184Y-109284000D01*
X225892816Y-109284000D01*
X226062654Y-109247900D01*
X226221275Y-109177277D01*
X226361746Y-109075219D01*
X226380250Y-109054669D01*
X226477929Y-108946185D01*
X226477930Y-108946183D01*
X226530613Y-108854933D01*
X226564745Y-108795815D01*
X226618400Y-108630681D01*
X226636550Y-108458000D01*
X226618400Y-108285319D01*
X226614789Y-108274208D01*
X226564747Y-108120189D01*
X226564743Y-108120182D01*
X226477930Y-107969816D01*
X226477929Y-107969814D01*
X226361748Y-107840782D01*
X226221279Y-107738725D01*
X226189147Y-107724419D01*
X226062654Y-107668100D01*
X225892816Y-107632000D01*
X225719184Y-107632000D01*
X225549345Y-107668100D01*
X225390720Y-107738725D01*
X225250251Y-107840782D01*
X225134070Y-107969814D01*
X225134069Y-107969816D01*
X225047256Y-108120182D01*
X225047252Y-108120189D01*
X224993601Y-108285313D01*
X224993600Y-108285317D01*
X224993600Y-108285319D01*
X224975450Y-108458000D01*
X222696318Y-108458000D01*
X222792275Y-108415277D01*
X222932746Y-108313219D01*
X223048929Y-108184185D01*
X223135745Y-108033815D01*
X223138568Y-108025129D01*
X223189398Y-107868686D01*
X223189400Y-107868681D01*
X223207550Y-107696000D01*
X223189400Y-107523319D01*
X223168964Y-107460422D01*
X223135747Y-107358189D01*
X223135743Y-107358182D01*
X223118775Y-107328793D01*
X223081754Y-107264669D01*
X223048930Y-107207816D01*
X223048929Y-107207814D01*
X222932748Y-107078782D01*
X222792279Y-106976725D01*
X222633654Y-106906100D01*
X222463816Y-106870000D01*
X222290184Y-106870000D01*
X222120345Y-106906100D01*
X221961720Y-106976725D01*
X221821251Y-107078782D01*
X221705070Y-107207814D01*
X221705069Y-107207816D01*
X221618256Y-107358182D01*
X221618252Y-107358189D01*
X221564601Y-107523313D01*
X221564600Y-107523317D01*
X221564600Y-107523319D01*
X221546450Y-107696000D01*
X207707338Y-107696000D01*
X207800419Y-107602919D01*
X207891836Y-107457430D01*
X207948587Y-107295246D01*
X207967825Y-107124500D01*
X207948587Y-106953754D01*
X207891836Y-106791570D01*
X207891834Y-106791567D01*
X207891834Y-106791566D01*
X207800420Y-106646082D01*
X207800419Y-106646080D01*
X207678919Y-106524580D01*
X207678917Y-106524579D01*
X207533433Y-106433165D01*
X207533430Y-106433164D01*
X207371246Y-106376413D01*
X207371244Y-106376412D01*
X207371246Y-106376412D01*
X207200500Y-106357175D01*
X207029755Y-106376412D01*
X206867569Y-106433164D01*
X206867566Y-106433165D01*
X206722082Y-106524579D01*
X206722080Y-106524580D01*
X206600580Y-106646080D01*
X206600579Y-106646082D01*
X206509165Y-106791566D01*
X206509164Y-106791569D01*
X206452412Y-106953755D01*
X206433175Y-107124500D01*
X206124346Y-107124500D01*
X206171400Y-106979681D01*
X206189550Y-106807000D01*
X206171400Y-106634319D01*
X206137138Y-106528870D01*
X206117747Y-106469189D01*
X206117743Y-106469182D01*
X206114734Y-106463971D01*
X206030930Y-106318816D01*
X206030929Y-106318814D01*
X205914748Y-106189782D01*
X205774279Y-106087725D01*
X205732031Y-106068915D01*
X205615654Y-106017100D01*
X205445816Y-105981000D01*
X205272184Y-105981000D01*
X205102345Y-106017100D01*
X204943720Y-106087725D01*
X204803251Y-106189782D01*
X204687070Y-106318814D01*
X204687069Y-106318816D01*
X204600256Y-106469182D01*
X204600252Y-106469189D01*
X204546601Y-106634313D01*
X204546600Y-106634317D01*
X204546600Y-106634319D01*
X204528450Y-106807000D01*
X184232632Y-106807000D01*
X184243156Y-106680000D01*
X184224564Y-106455632D01*
X184195210Y-106339717D01*
X184169297Y-106237387D01*
X184169296Y-106237386D01*
X184169296Y-106237384D01*
X184078860Y-106031209D01*
X184041703Y-105974336D01*
X183955724Y-105842734D01*
X183955720Y-105842729D01*
X183803237Y-105677091D01*
X183721382Y-105613381D01*
X183625576Y-105538811D01*
X183592319Y-105520813D01*
X183541929Y-105470802D01*
X183526576Y-105401485D01*
X183551136Y-105334872D01*
X183592320Y-105299186D01*
X183622230Y-105283000D01*
X224022675Y-105283000D01*
X224041912Y-105453744D01*
X224098664Y-105615930D01*
X224098665Y-105615933D01*
X224190079Y-105761417D01*
X224190080Y-105761419D01*
X224311580Y-105882919D01*
X224311582Y-105882920D01*
X224457066Y-105974334D01*
X224457067Y-105974334D01*
X224457070Y-105974336D01*
X224619254Y-106031087D01*
X224619253Y-106031087D01*
X224636543Y-106033034D01*
X224790000Y-106050325D01*
X224960746Y-106031087D01*
X225122930Y-105974336D01*
X225268419Y-105882919D01*
X225389919Y-105761419D01*
X225481336Y-105615930D01*
X225538087Y-105453746D01*
X225557325Y-105283000D01*
X225538087Y-105112254D01*
X225481336Y-104950070D01*
X225481334Y-104950067D01*
X225481334Y-104950066D01*
X225389920Y-104804582D01*
X225389919Y-104804580D01*
X225268419Y-104683080D01*
X225268417Y-104683079D01*
X225122933Y-104591665D01*
X225122930Y-104591664D01*
X225070923Y-104573466D01*
X224960746Y-104534913D01*
X224960744Y-104534912D01*
X224960746Y-104534912D01*
X224790000Y-104515675D01*
X224619255Y-104534912D01*
X224457069Y-104591664D01*
X224457066Y-104591665D01*
X224311582Y-104683079D01*
X224311580Y-104683080D01*
X224190080Y-104804580D01*
X224190079Y-104804582D01*
X224098665Y-104950066D01*
X224098664Y-104950069D01*
X224041912Y-105112255D01*
X224022675Y-105283000D01*
X183622230Y-105283000D01*
X183625576Y-105281189D01*
X183803240Y-105142906D01*
X183955722Y-104977268D01*
X184078860Y-104788791D01*
X184169296Y-104582616D01*
X184224564Y-104364368D01*
X184243156Y-104140000D01*
X184232632Y-104013000D01*
X226308675Y-104013000D01*
X226327912Y-104183744D01*
X226384664Y-104345930D01*
X226384665Y-104345933D01*
X226476079Y-104491417D01*
X226476080Y-104491419D01*
X226597580Y-104612919D01*
X226597582Y-104612920D01*
X226743066Y-104704334D01*
X226743067Y-104704334D01*
X226743070Y-104704336D01*
X226905254Y-104761087D01*
X226905253Y-104761087D01*
X226922543Y-104763034D01*
X227076000Y-104780325D01*
X227246746Y-104761087D01*
X227408930Y-104704336D01*
X227554419Y-104612919D01*
X227675919Y-104491419D01*
X227767336Y-104345930D01*
X227824087Y-104183746D01*
X227843325Y-104013000D01*
X227824087Y-103842254D01*
X227767336Y-103680070D01*
X227767334Y-103680067D01*
X227767334Y-103680066D01*
X227675920Y-103534582D01*
X227675919Y-103534580D01*
X227554419Y-103413080D01*
X227554417Y-103413079D01*
X227408933Y-103321665D01*
X227408930Y-103321664D01*
X227246746Y-103264913D01*
X227246744Y-103264912D01*
X227246746Y-103264912D01*
X227076000Y-103245675D01*
X226905255Y-103264912D01*
X226743069Y-103321664D01*
X226743066Y-103321665D01*
X226597582Y-103413079D01*
X226597580Y-103413080D01*
X226476080Y-103534580D01*
X226476079Y-103534582D01*
X226384665Y-103680066D01*
X226384664Y-103680069D01*
X226327912Y-103842255D01*
X226308675Y-104013000D01*
X184232632Y-104013000D01*
X184224564Y-103915632D01*
X184199883Y-103818169D01*
X184169297Y-103697387D01*
X184169296Y-103697386D01*
X184169296Y-103697384D01*
X184078860Y-103491209D01*
X184011148Y-103387568D01*
X183955724Y-103302734D01*
X183955720Y-103302729D01*
X183803237Y-103137091D01*
X183695629Y-103053336D01*
X183625576Y-102998811D01*
X183592319Y-102980813D01*
X183541929Y-102930802D01*
X183526576Y-102861485D01*
X183551136Y-102794872D01*
X183592320Y-102759186D01*
X183625576Y-102741189D01*
X183803240Y-102602906D01*
X183955722Y-102437268D01*
X184004897Y-102362000D01*
X189605675Y-102362000D01*
X189624912Y-102532744D01*
X189681664Y-102694930D01*
X189681665Y-102694933D01*
X189773079Y-102840417D01*
X189773080Y-102840419D01*
X189894580Y-102961919D01*
X189894582Y-102961920D01*
X190040066Y-103053334D01*
X190040067Y-103053334D01*
X190040070Y-103053336D01*
X190202254Y-103110087D01*
X190202253Y-103110087D01*
X190219543Y-103112034D01*
X190373000Y-103129325D01*
X190543746Y-103110087D01*
X190705930Y-103053336D01*
X190834792Y-102972366D01*
X190903112Y-102953061D01*
X190971025Y-102973756D01*
X191016968Y-103027883D01*
X191020756Y-103037439D01*
X191021912Y-103040745D01*
X191021913Y-103040746D01*
X191071207Y-103181620D01*
X191078664Y-103202930D01*
X191078665Y-103202933D01*
X191170079Y-103348417D01*
X191170080Y-103348419D01*
X191291580Y-103469919D01*
X191291582Y-103469920D01*
X191437066Y-103561334D01*
X191437067Y-103561334D01*
X191437070Y-103561336D01*
X191599254Y-103618087D01*
X191599253Y-103618087D01*
X191616543Y-103620034D01*
X191770000Y-103637325D01*
X191940746Y-103618087D01*
X192102930Y-103561336D01*
X192248419Y-103469919D01*
X192369919Y-103348419D01*
X192461336Y-103202930D01*
X192518087Y-103040746D01*
X192537325Y-102870000D01*
X192518087Y-102699254D01*
X192482255Y-102596852D01*
X192478635Y-102525948D01*
X192513925Y-102464343D01*
X192559569Y-102436308D01*
X192610930Y-102418336D01*
X192756419Y-102326919D01*
X192877919Y-102205419D01*
X192969336Y-102059930D01*
X192996955Y-101981000D01*
X205353675Y-101981000D01*
X205372912Y-102151744D01*
X205429664Y-102313930D01*
X205429665Y-102313933D01*
X205521079Y-102459417D01*
X205521080Y-102459419D01*
X205642580Y-102580919D01*
X205642582Y-102580920D01*
X205788066Y-102672334D01*
X205788067Y-102672334D01*
X205788070Y-102672336D01*
X205950254Y-102729087D01*
X205950253Y-102729087D01*
X205967543Y-102731034D01*
X206121000Y-102748325D01*
X206291746Y-102729087D01*
X206453930Y-102672336D01*
X206599419Y-102580919D01*
X206720919Y-102459419D01*
X206812336Y-102313930D01*
X206869087Y-102151746D01*
X206874016Y-102108000D01*
X224784675Y-102108000D01*
X224803912Y-102278744D01*
X224860664Y-102440930D01*
X224860665Y-102440933D01*
X224952079Y-102586417D01*
X224952080Y-102586419D01*
X225073580Y-102707919D01*
X225073582Y-102707920D01*
X225219066Y-102799334D01*
X225219067Y-102799334D01*
X225219070Y-102799336D01*
X225381254Y-102856087D01*
X225381253Y-102856087D01*
X225398543Y-102858034D01*
X225552000Y-102875325D01*
X225722746Y-102856087D01*
X225884930Y-102799336D01*
X226030419Y-102707919D01*
X226151919Y-102586419D01*
X226243336Y-102440930D01*
X226300087Y-102278746D01*
X226319325Y-102108000D01*
X226300087Y-101937254D01*
X226243336Y-101775070D01*
X226243334Y-101775067D01*
X226243334Y-101775066D01*
X226151920Y-101629582D01*
X226151919Y-101629580D01*
X226030419Y-101508080D01*
X226030417Y-101508079D01*
X225884933Y-101416665D01*
X225884930Y-101416664D01*
X225820360Y-101394070D01*
X225722746Y-101359913D01*
X225722744Y-101359912D01*
X225722746Y-101359912D01*
X225552000Y-101340675D01*
X225381255Y-101359912D01*
X225219069Y-101416664D01*
X225219066Y-101416665D01*
X225073582Y-101508079D01*
X225073580Y-101508080D01*
X224952080Y-101629580D01*
X224952079Y-101629582D01*
X224860665Y-101775066D01*
X224860664Y-101775069D01*
X224803912Y-101937255D01*
X224784675Y-102108000D01*
X206874016Y-102108000D01*
X206888325Y-101981000D01*
X206869087Y-101810254D01*
X206812336Y-101648070D01*
X206812334Y-101648067D01*
X206812334Y-101648066D01*
X206720920Y-101502582D01*
X206720919Y-101502580D01*
X206599419Y-101381080D01*
X206599417Y-101381079D01*
X206453933Y-101289665D01*
X206453930Y-101289664D01*
X206377003Y-101262746D01*
X206291746Y-101232913D01*
X206291744Y-101232912D01*
X206291746Y-101232912D01*
X206121000Y-101213675D01*
X205950255Y-101232912D01*
X205788069Y-101289664D01*
X205788066Y-101289665D01*
X205642582Y-101381079D01*
X205642580Y-101381080D01*
X205521080Y-101502580D01*
X205521079Y-101502582D01*
X205429665Y-101648066D01*
X205429664Y-101648069D01*
X205372912Y-101810255D01*
X205353675Y-101981000D01*
X192996955Y-101981000D01*
X193026087Y-101897746D01*
X193045325Y-101727000D01*
X193026087Y-101556254D01*
X192969336Y-101394070D01*
X192969334Y-101394067D01*
X192969334Y-101394066D01*
X192877920Y-101248582D01*
X192877919Y-101248580D01*
X192756419Y-101127080D01*
X192756417Y-101127079D01*
X192610933Y-101035665D01*
X192463304Y-100984007D01*
X192405613Y-100942628D01*
X192385993Y-100906697D01*
X192334336Y-100759070D01*
X192334334Y-100759067D01*
X192334334Y-100759066D01*
X192242920Y-100613582D01*
X192242919Y-100613580D01*
X192121419Y-100492080D01*
X192121417Y-100492079D01*
X191975933Y-100400665D01*
X191975930Y-100400664D01*
X191934977Y-100386334D01*
X191813746Y-100343913D01*
X191813744Y-100343912D01*
X191813746Y-100343912D01*
X191690264Y-100330000D01*
X192971450Y-100330000D01*
X192986881Y-100476816D01*
X192989601Y-100502686D01*
X193043252Y-100667810D01*
X193043256Y-100667817D01*
X193130069Y-100818183D01*
X193130070Y-100818185D01*
X193246251Y-100947217D01*
X193386720Y-101049274D01*
X193386722Y-101049275D01*
X193386725Y-101049277D01*
X193545346Y-101119900D01*
X193715184Y-101156000D01*
X193888816Y-101156000D01*
X194058654Y-101119900D01*
X194217275Y-101049277D01*
X194333273Y-100965000D01*
X207322450Y-100965000D01*
X207338731Y-101119900D01*
X207340601Y-101137686D01*
X207394252Y-101302810D01*
X207394256Y-101302817D01*
X207481069Y-101453183D01*
X207481070Y-101453185D01*
X207597251Y-101582217D01*
X207737720Y-101684274D01*
X207737722Y-101684275D01*
X207737725Y-101684277D01*
X207896346Y-101754900D01*
X208066184Y-101791000D01*
X208239816Y-101791000D01*
X208409654Y-101754900D01*
X208568275Y-101684277D01*
X208708746Y-101582219D01*
X208780454Y-101502580D01*
X208824929Y-101453185D01*
X208824930Y-101453183D01*
X208841242Y-101424930D01*
X208911745Y-101302815D01*
X208965400Y-101137681D01*
X208983550Y-100965000D01*
X208965400Y-100792319D01*
X208954597Y-100759070D01*
X208911747Y-100627189D01*
X208911743Y-100627182D01*
X208824930Y-100476816D01*
X208824929Y-100476814D01*
X208708748Y-100347782D01*
X208568279Y-100245725D01*
X208468250Y-100201189D01*
X208409654Y-100175100D01*
X208239816Y-100139000D01*
X208066184Y-100139000D01*
X207896345Y-100175100D01*
X207737720Y-100245725D01*
X207597251Y-100347782D01*
X207481070Y-100476814D01*
X207481069Y-100476816D01*
X207394256Y-100627182D01*
X207394252Y-100627189D01*
X207340601Y-100792313D01*
X207340600Y-100792317D01*
X207340600Y-100792319D01*
X207322450Y-100965000D01*
X194333273Y-100965000D01*
X194357746Y-100947219D01*
X194473929Y-100818185D01*
X194560745Y-100667815D01*
X194573947Y-100627185D01*
X194614398Y-100502686D01*
X194614400Y-100502681D01*
X194632550Y-100330000D01*
X194614400Y-100157319D01*
X194608448Y-100139000D01*
X194560747Y-99992189D01*
X194560743Y-99992182D01*
X194473930Y-99841816D01*
X194473929Y-99841814D01*
X194357748Y-99712782D01*
X194217279Y-99610725D01*
X194058654Y-99540100D01*
X193888816Y-99504000D01*
X193715184Y-99504000D01*
X193545345Y-99540100D01*
X193386720Y-99610725D01*
X193246251Y-99712782D01*
X193130070Y-99841814D01*
X193130069Y-99841816D01*
X193043256Y-99992182D01*
X193043252Y-99992189D01*
X192989601Y-100157313D01*
X192989600Y-100157317D01*
X192989600Y-100157319D01*
X192971450Y-100330000D01*
X191690264Y-100330000D01*
X191643000Y-100324675D01*
X191472255Y-100343912D01*
X191310069Y-100400664D01*
X191310066Y-100400665D01*
X191164582Y-100492079D01*
X191164580Y-100492080D01*
X191043080Y-100613580D01*
X191043079Y-100613582D01*
X190951665Y-100759066D01*
X190951664Y-100759069D01*
X190894912Y-100921255D01*
X190875675Y-101092000D01*
X190894912Y-101262744D01*
X190951664Y-101424930D01*
X190951665Y-101424933D01*
X191043079Y-101570417D01*
X191043080Y-101570419D01*
X191164580Y-101691919D01*
X191164582Y-101691920D01*
X191310066Y-101783334D01*
X191310067Y-101783334D01*
X191310070Y-101783336D01*
X191457695Y-101834992D01*
X191515385Y-101876369D01*
X191535007Y-101912305D01*
X191565744Y-102000147D01*
X191569363Y-102071051D01*
X191534074Y-102132657D01*
X191488432Y-102160690D01*
X191437073Y-102178662D01*
X191308208Y-102259633D01*
X191239886Y-102278938D01*
X191171973Y-102258242D01*
X191126030Y-102204115D01*
X191122243Y-102194560D01*
X191121087Y-102191255D01*
X191121087Y-102191254D01*
X191064336Y-102029070D01*
X191064334Y-102029067D01*
X191064334Y-102029066D01*
X190972920Y-101883582D01*
X190972919Y-101883580D01*
X190851419Y-101762080D01*
X190851417Y-101762079D01*
X190705933Y-101670665D01*
X190705930Y-101670664D01*
X190641360Y-101648070D01*
X190543746Y-101613913D01*
X190543744Y-101613912D01*
X190543746Y-101613912D01*
X190373000Y-101594675D01*
X190202255Y-101613912D01*
X190040069Y-101670664D01*
X190040066Y-101670665D01*
X189894582Y-101762079D01*
X189894580Y-101762080D01*
X189773080Y-101883580D01*
X189773079Y-101883582D01*
X189681665Y-102029066D01*
X189681664Y-102029069D01*
X189624912Y-102191255D01*
X189605675Y-102362000D01*
X184004897Y-102362000D01*
X184078860Y-102248791D01*
X184169296Y-102042616D01*
X184224564Y-101824368D01*
X184243156Y-101600000D01*
X184224564Y-101375632D01*
X184169296Y-101157384D01*
X184078860Y-100951209D01*
X184059290Y-100921255D01*
X183955724Y-100762734D01*
X183955720Y-100762729D01*
X183818417Y-100613581D01*
X183803240Y-100597094D01*
X183803239Y-100597093D01*
X183803237Y-100597091D01*
X183681946Y-100502686D01*
X183625576Y-100458811D01*
X183592319Y-100440813D01*
X183541929Y-100390802D01*
X183526576Y-100321485D01*
X183551136Y-100254872D01*
X183592320Y-100219186D01*
X183625576Y-100201189D01*
X183803240Y-100062906D01*
X183955722Y-99897268D01*
X184078860Y-99708791D01*
X184084909Y-99695000D01*
X188843675Y-99695000D01*
X188862912Y-99865744D01*
X188919664Y-100027930D01*
X188919665Y-100027933D01*
X189011079Y-100173417D01*
X189011080Y-100173419D01*
X189132580Y-100294919D01*
X189132582Y-100294920D01*
X189278066Y-100386334D01*
X189278067Y-100386334D01*
X189278070Y-100386336D01*
X189440254Y-100443087D01*
X189440253Y-100443087D01*
X189457543Y-100445034D01*
X189611000Y-100462325D01*
X189781746Y-100443087D01*
X189943930Y-100386336D01*
X190089419Y-100294919D01*
X190210919Y-100173419D01*
X190302336Y-100027930D01*
X190359087Y-99865746D01*
X190378325Y-99695000D01*
X190359087Y-99524254D01*
X190302336Y-99362070D01*
X190302334Y-99362067D01*
X190302334Y-99362066D01*
X190210920Y-99216582D01*
X190210919Y-99216580D01*
X190089419Y-99095080D01*
X190089417Y-99095079D01*
X190033589Y-99060000D01*
X207195450Y-99060000D01*
X207213601Y-99232686D01*
X207267252Y-99397810D01*
X207267256Y-99397817D01*
X207354069Y-99548183D01*
X207354070Y-99548185D01*
X207470251Y-99677217D01*
X207610720Y-99779274D01*
X207610722Y-99779275D01*
X207610725Y-99779277D01*
X207769346Y-99849900D01*
X207939184Y-99886000D01*
X208112816Y-99886000D01*
X208282654Y-99849900D01*
X208441275Y-99779277D01*
X208581746Y-99677219D01*
X208641620Y-99610723D01*
X208697929Y-99548185D01*
X208697930Y-99548183D01*
X208711745Y-99524255D01*
X208784745Y-99397815D01*
X208790093Y-99381357D01*
X208838398Y-99232686D01*
X208838400Y-99232681D01*
X208856550Y-99060000D01*
X208838400Y-98887319D01*
X208821606Y-98835632D01*
X208784747Y-98722189D01*
X208784743Y-98722182D01*
X208697930Y-98571816D01*
X208697929Y-98571814D01*
X208581748Y-98442782D01*
X208441279Y-98340725D01*
X208282654Y-98270100D01*
X208112816Y-98234000D01*
X207939184Y-98234000D01*
X207769345Y-98270100D01*
X207610720Y-98340725D01*
X207470251Y-98442782D01*
X207354070Y-98571814D01*
X207354069Y-98571816D01*
X207267256Y-98722182D01*
X207267252Y-98722189D01*
X207213601Y-98887313D01*
X207213600Y-98887317D01*
X207213600Y-98887319D01*
X207195450Y-99060000D01*
X190033589Y-99060000D01*
X189943933Y-99003665D01*
X189943930Y-99003664D01*
X189781746Y-98946913D01*
X189781744Y-98946912D01*
X189781746Y-98946912D01*
X189611000Y-98927675D01*
X189440255Y-98946912D01*
X189278069Y-99003664D01*
X189278066Y-99003665D01*
X189132582Y-99095079D01*
X189132580Y-99095080D01*
X189011080Y-99216580D01*
X189011079Y-99216582D01*
X188919665Y-99362066D01*
X188919664Y-99362069D01*
X188862912Y-99524255D01*
X188843675Y-99695000D01*
X184084909Y-99695000D01*
X184169296Y-99502616D01*
X184224564Y-99284368D01*
X184243156Y-99060000D01*
X184224564Y-98835632D01*
X184195835Y-98722182D01*
X184169297Y-98617387D01*
X184169296Y-98617386D01*
X184169296Y-98617384D01*
X184078860Y-98411209D01*
X184032809Y-98340723D01*
X183955724Y-98222734D01*
X183955719Y-98222729D01*
X183908099Y-98171000D01*
X195892450Y-98171000D01*
X195910289Y-98340725D01*
X195910601Y-98343686D01*
X195964252Y-98508810D01*
X195964256Y-98508817D01*
X196051069Y-98659183D01*
X196051070Y-98659185D01*
X196167251Y-98788217D01*
X196307720Y-98890274D01*
X196307722Y-98890275D01*
X196307725Y-98890277D01*
X196466346Y-98960900D01*
X196636184Y-98997000D01*
X196809816Y-98997000D01*
X196979654Y-98960900D01*
X197138275Y-98890277D01*
X197278746Y-98788219D01*
X197338204Y-98722185D01*
X197394929Y-98659185D01*
X197394930Y-98659183D01*
X197481745Y-98508815D01*
X197535400Y-98343681D01*
X197553550Y-98171000D01*
X197535400Y-97998319D01*
X197527125Y-97972852D01*
X197481747Y-97833189D01*
X197481743Y-97833182D01*
X197394930Y-97682816D01*
X197394929Y-97682814D01*
X197278748Y-97553782D01*
X197138279Y-97451725D01*
X197099984Y-97434675D01*
X240647710Y-97434675D01*
X240667523Y-97749613D01*
X240667525Y-97749630D01*
X240726658Y-98059611D01*
X240726661Y-98059624D01*
X240824178Y-98359748D01*
X240824182Y-98359757D01*
X240958544Y-98645291D01*
X240958551Y-98645305D01*
X241127635Y-98911740D01*
X241127638Y-98911744D01*
X241216712Y-99019415D01*
X241860663Y-98375463D01*
X241862239Y-98378034D01*
X242025799Y-98569539D01*
X242217304Y-98733099D01*
X242219872Y-98734673D01*
X241573190Y-99381355D01*
X241573190Y-99381357D01*
X241814155Y-99556428D01*
X242090703Y-99708461D01*
X242384129Y-99824637D01*
X242384135Y-99824639D01*
X242689772Y-99903113D01*
X242689799Y-99903118D01*
X243002864Y-99942667D01*
X243002883Y-99942669D01*
X243318455Y-99942669D01*
X243318473Y-99942667D01*
X243631538Y-99903118D01*
X243631565Y-99903113D01*
X243937202Y-99824639D01*
X243937208Y-99824637D01*
X244230634Y-99708461D01*
X244507186Y-99556425D01*
X244748146Y-99381357D01*
X244748146Y-99381355D01*
X244101464Y-98734673D01*
X244104034Y-98733099D01*
X244295539Y-98569539D01*
X244459099Y-98378034D01*
X244460673Y-98375464D01*
X245104624Y-99019415D01*
X245104625Y-99019414D01*
X245193695Y-98911749D01*
X245193698Y-98911745D01*
X245362786Y-98645305D01*
X245362793Y-98645291D01*
X245497155Y-98359757D01*
X245497159Y-98359748D01*
X245594676Y-98059624D01*
X245594679Y-98059611D01*
X245653812Y-97749630D01*
X245653814Y-97749613D01*
X245673628Y-97434675D01*
X245673628Y-97434662D01*
X245653814Y-97119724D01*
X245653812Y-97119707D01*
X245594679Y-96809726D01*
X245594676Y-96809713D01*
X245497159Y-96509589D01*
X245497155Y-96509580D01*
X245362793Y-96224046D01*
X245362786Y-96224032D01*
X245193702Y-95957597D01*
X245193699Y-95957593D01*
X245104624Y-95849921D01*
X244460672Y-96493872D01*
X244459099Y-96491304D01*
X244295539Y-96299799D01*
X244104034Y-96136239D01*
X244101463Y-96134663D01*
X244748146Y-95487981D01*
X244748146Y-95487979D01*
X244507182Y-95312909D01*
X244230634Y-95160876D01*
X243937208Y-95044700D01*
X243937202Y-95044698D01*
X243631565Y-94966224D01*
X243631538Y-94966219D01*
X243318473Y-94926670D01*
X243318455Y-94926669D01*
X243002883Y-94926669D01*
X243002864Y-94926670D01*
X242689799Y-94966219D01*
X242689772Y-94966224D01*
X242384135Y-95044698D01*
X242384129Y-95044700D01*
X242090703Y-95160876D01*
X241814154Y-95312910D01*
X241573190Y-95487979D01*
X241573190Y-95487981D01*
X242219873Y-96134664D01*
X242217304Y-96136239D01*
X242025799Y-96299799D01*
X241862239Y-96491304D01*
X241860664Y-96493873D01*
X241216712Y-95849921D01*
X241216711Y-95849921D01*
X241127640Y-95957590D01*
X241127638Y-95957593D01*
X240958551Y-96224032D01*
X240958544Y-96224046D01*
X240824182Y-96509580D01*
X240824178Y-96509589D01*
X240726661Y-96809713D01*
X240726658Y-96809726D01*
X240667525Y-97119707D01*
X240667523Y-97119724D01*
X240647710Y-97434662D01*
X240647710Y-97434675D01*
X197099984Y-97434675D01*
X196979654Y-97381100D01*
X196809816Y-97345000D01*
X196636184Y-97345000D01*
X196466345Y-97381100D01*
X196307720Y-97451725D01*
X196167251Y-97553782D01*
X196051070Y-97682814D01*
X196051069Y-97682816D01*
X195964256Y-97833182D01*
X195964252Y-97833189D01*
X195910601Y-97998313D01*
X195910600Y-97998317D01*
X195910600Y-97998319D01*
X195892450Y-98171000D01*
X183908099Y-98171000D01*
X183812524Y-98067179D01*
X183781103Y-98003514D01*
X183789090Y-97932968D01*
X183833948Y-97877939D01*
X183861183Y-97863789D01*
X183976204Y-97820889D01*
X184093261Y-97733261D01*
X184180889Y-97616204D01*
X184231989Y-97479201D01*
X184236777Y-97434670D01*
X184238499Y-97418649D01*
X184238500Y-97418632D01*
X184238500Y-95621367D01*
X184238499Y-95621350D01*
X184231990Y-95560803D01*
X184231988Y-95560795D01*
X184180889Y-95423797D01*
X184180887Y-95423792D01*
X184093261Y-95306738D01*
X183976207Y-95219112D01*
X183976202Y-95219110D01*
X183839204Y-95168011D01*
X183839196Y-95168009D01*
X183778649Y-95161500D01*
X183778638Y-95161500D01*
X181981362Y-95161500D01*
X181981350Y-95161500D01*
X181920803Y-95168009D01*
X181920795Y-95168011D01*
X181783797Y-95219110D01*
X181783792Y-95219112D01*
X181666738Y-95306738D01*
X181579112Y-95423792D01*
X181579110Y-95423797D01*
X181528011Y-95560795D01*
X181528009Y-95560803D01*
X181521500Y-95621350D01*
X181521500Y-97418649D01*
X181528009Y-97479196D01*
X181528011Y-97479204D01*
X181579110Y-97616202D01*
X181579112Y-97616207D01*
X181666738Y-97733261D01*
X181783791Y-97820886D01*
X181783792Y-97820886D01*
X181783796Y-97820889D01*
X181898810Y-97863787D01*
X181955642Y-97906332D01*
X181980453Y-97972852D01*
X181965362Y-98042226D01*
X181947475Y-98067179D01*
X181804280Y-98222729D01*
X181804275Y-98222734D01*
X181681141Y-98411206D01*
X181590703Y-98617386D01*
X181590702Y-98617387D01*
X181535437Y-98835624D01*
X181535436Y-98835630D01*
X181535436Y-98835632D01*
X181516844Y-99060000D01*
X181531153Y-99232686D01*
X181535437Y-99284375D01*
X181590702Y-99502612D01*
X181590703Y-99502613D01*
X181590704Y-99502616D01*
X181675091Y-99695000D01*
X181681141Y-99708793D01*
X181804275Y-99897265D01*
X181804279Y-99897270D01*
X181956762Y-100062908D01*
X182011331Y-100105381D01*
X182134424Y-100201189D01*
X182167680Y-100219186D01*
X182218071Y-100269200D01*
X182233423Y-100338516D01*
X182208862Y-100405129D01*
X182167680Y-100440813D01*
X182134426Y-100458810D01*
X182134424Y-100458811D01*
X181956762Y-100597091D01*
X181804279Y-100762729D01*
X181804275Y-100762734D01*
X181681141Y-100951206D01*
X181590703Y-101157386D01*
X181590702Y-101157387D01*
X181535437Y-101375624D01*
X181535436Y-101375630D01*
X181535436Y-101375632D01*
X181516844Y-101600000D01*
X181534266Y-101810254D01*
X181535437Y-101824375D01*
X181590702Y-102042612D01*
X181590703Y-102042613D01*
X181590704Y-102042616D01*
X181681140Y-102248791D01*
X181681141Y-102248793D01*
X181804275Y-102437265D01*
X181804279Y-102437270D01*
X181956762Y-102602908D01*
X182011331Y-102645381D01*
X182134424Y-102741189D01*
X182167680Y-102759186D01*
X182218071Y-102809200D01*
X182233423Y-102878516D01*
X182208862Y-102945129D01*
X182167680Y-102980813D01*
X182134426Y-102998810D01*
X182134424Y-102998811D01*
X181956762Y-103137091D01*
X181804279Y-103302729D01*
X181804275Y-103302734D01*
X181681141Y-103491206D01*
X181590703Y-103697386D01*
X181590702Y-103697387D01*
X181535437Y-103915624D01*
X181535436Y-103915630D01*
X181535436Y-103915632D01*
X181516844Y-104140000D01*
X181533908Y-104345933D01*
X181535437Y-104364375D01*
X181590702Y-104582612D01*
X181590703Y-104582613D01*
X181590704Y-104582616D01*
X181681140Y-104788791D01*
X181681141Y-104788793D01*
X181804275Y-104977265D01*
X181804279Y-104977270D01*
X181956762Y-105142908D01*
X181992112Y-105170422D01*
X182134424Y-105281189D01*
X182167680Y-105299186D01*
X182218071Y-105349200D01*
X182233423Y-105418516D01*
X182208862Y-105485129D01*
X182167680Y-105520813D01*
X182134426Y-105538810D01*
X182134424Y-105538811D01*
X181956762Y-105677091D01*
X181804279Y-105842729D01*
X181804275Y-105842734D01*
X181681141Y-106031206D01*
X181590703Y-106237386D01*
X181590702Y-106237387D01*
X181535437Y-106455624D01*
X181535436Y-106455630D01*
X181535436Y-106455632D01*
X181516844Y-106680000D01*
X181532838Y-106873021D01*
X181535437Y-106904375D01*
X181590702Y-107122612D01*
X181590703Y-107122613D01*
X181590704Y-107122616D01*
X181628076Y-107207816D01*
X181681141Y-107328793D01*
X181804275Y-107517265D01*
X181804279Y-107517270D01*
X181956762Y-107682908D01*
X181973583Y-107696000D01*
X182134424Y-107821189D01*
X182167680Y-107839186D01*
X182218071Y-107889200D01*
X182233423Y-107958516D01*
X182208862Y-108025129D01*
X182167680Y-108060813D01*
X182134426Y-108078810D01*
X182134424Y-108078811D01*
X181956762Y-108217091D01*
X181804279Y-108382729D01*
X181804275Y-108382734D01*
X181681141Y-108571206D01*
X181590703Y-108777386D01*
X181590702Y-108777387D01*
X181535437Y-108995624D01*
X181535436Y-108995630D01*
X181535436Y-108995632D01*
X181516844Y-109220000D01*
X158555886Y-109220000D01*
X158574930Y-109213336D01*
X158720419Y-109121919D01*
X158841919Y-109000419D01*
X158933336Y-108854930D01*
X158990087Y-108692746D01*
X159009325Y-108522000D01*
X158990087Y-108351254D01*
X158933336Y-108189070D01*
X158933334Y-108189067D01*
X158933334Y-108189066D01*
X158841920Y-108043582D01*
X158841919Y-108043580D01*
X158720419Y-107922080D01*
X158720417Y-107922079D01*
X158574933Y-107830665D01*
X158574930Y-107830664D01*
X158532551Y-107815835D01*
X158412746Y-107773913D01*
X158412744Y-107773912D01*
X158412746Y-107773912D01*
X158242000Y-107754675D01*
X158071255Y-107773912D01*
X157909069Y-107830664D01*
X157909066Y-107830665D01*
X157763582Y-107922079D01*
X157763580Y-107922080D01*
X157642080Y-108043580D01*
X157642079Y-108043582D01*
X157550665Y-108189066D01*
X157550664Y-108189069D01*
X157493912Y-108351255D01*
X157474675Y-108522000D01*
X152400000Y-108522000D01*
X152400000Y-94615000D01*
X201861450Y-94615000D01*
X201879601Y-94787686D01*
X201933252Y-94952810D01*
X201933256Y-94952817D01*
X202020069Y-95103183D01*
X202020070Y-95103185D01*
X202136251Y-95232217D01*
X202276720Y-95334274D01*
X202276722Y-95334275D01*
X202276725Y-95334277D01*
X202435346Y-95404900D01*
X202605184Y-95441000D01*
X202778816Y-95441000D01*
X202948654Y-95404900D01*
X203107275Y-95334277D01*
X203247746Y-95232219D01*
X203259550Y-95219110D01*
X203363929Y-95103185D01*
X203363930Y-95103183D01*
X203443003Y-94966224D01*
X203450745Y-94952815D01*
X203459241Y-94926669D01*
X203504398Y-94787686D01*
X203504400Y-94787681D01*
X203522550Y-94615000D01*
X203504400Y-94442319D01*
X203500789Y-94431208D01*
X203450747Y-94277189D01*
X203450743Y-94277182D01*
X203363930Y-94126816D01*
X203363929Y-94126814D01*
X203247748Y-93997782D01*
X203107279Y-93895725D01*
X202948654Y-93825100D01*
X202778816Y-93789000D01*
X202605184Y-93789000D01*
X202435345Y-93825100D01*
X202276720Y-93895725D01*
X202136251Y-93997782D01*
X202020070Y-94126814D01*
X202020069Y-94126816D01*
X201933256Y-94277182D01*
X201933252Y-94277189D01*
X201879601Y-94442313D01*
X201861450Y-94615000D01*
X152400000Y-94615000D01*
X152400000Y-89467500D01*
X156698000Y-89467500D01*
X157524884Y-89467500D01*
X157496507Y-89511656D01*
X157456000Y-89649611D01*
X157456000Y-89793389D01*
X157496507Y-89931344D01*
X157524884Y-89975500D01*
X156698001Y-89975500D01*
X156698001Y-90690627D01*
X156700810Y-90743534D01*
X156700810Y-90743536D01*
X156745514Y-90974681D01*
X156828635Y-91194936D01*
X156947785Y-91397978D01*
X157099535Y-91577964D01*
X157279521Y-91729714D01*
X157482564Y-91848864D01*
X157482563Y-91848864D01*
X157702818Y-91931985D01*
X157933963Y-91976689D01*
X157986870Y-91979500D01*
X158702000Y-91979499D01*
X158702000Y-90221500D01*
X159210000Y-90221500D01*
X159210000Y-91979499D01*
X159925127Y-91979499D01*
X159978034Y-91976689D01*
X159978036Y-91976689D01*
X160209181Y-91931985D01*
X160429436Y-91848864D01*
X160632478Y-91729714D01*
X160812464Y-91577964D01*
X160880987Y-91496691D01*
X168757185Y-91496691D01*
X168775567Y-91632387D01*
X168787594Y-91721178D01*
X168823106Y-91830470D01*
X168856318Y-91932686D01*
X168857599Y-91936626D01*
X168964940Y-92136100D01*
X168964944Y-92136107D01*
X169106187Y-92313219D01*
X169276780Y-92462262D01*
X169443053Y-92561606D01*
X169471250Y-92578453D01*
X169683339Y-92658051D01*
X169683341Y-92658051D01*
X169683343Y-92658052D01*
X169906230Y-92698500D01*
X169906233Y-92698500D01*
X170876016Y-92698500D01*
X170876022Y-92698500D01*
X171034626Y-92684225D01*
X171045123Y-92683281D01*
X171045123Y-92683280D01*
X171221562Y-92634586D01*
X171263490Y-92623015D01*
X171263490Y-92623014D01*
X171263493Y-92623014D01*
X171467593Y-92524725D01*
X171650863Y-92391571D01*
X171807412Y-92227834D01*
X171932209Y-92038774D01*
X172021243Y-91830470D01*
X172037327Y-91760000D01*
X193479450Y-91760000D01*
X193491964Y-91879062D01*
X193497601Y-91932686D01*
X193551252Y-92097810D01*
X193551256Y-92097817D01*
X193638069Y-92248183D01*
X193638070Y-92248185D01*
X193754251Y-92377217D01*
X193894720Y-92479274D01*
X193894722Y-92479275D01*
X193894725Y-92479277D01*
X194053346Y-92549900D01*
X194223184Y-92586000D01*
X194396816Y-92586000D01*
X194566654Y-92549900D01*
X194725275Y-92479277D01*
X194865746Y-92377219D01*
X194880299Y-92361057D01*
X194981929Y-92248185D01*
X194981930Y-92248183D01*
X194985083Y-92242722D01*
X195068745Y-92097815D01*
X195076158Y-92075000D01*
X211996844Y-92075000D01*
X212009508Y-92227834D01*
X212015437Y-92299375D01*
X212070702Y-92517612D01*
X212070703Y-92517613D01*
X212070704Y-92517616D01*
X212159781Y-92720692D01*
X212161141Y-92723793D01*
X212284275Y-92912265D01*
X212284279Y-92912270D01*
X212412539Y-93051596D01*
X212432061Y-93072802D01*
X212436762Y-93077908D01*
X212491331Y-93120381D01*
X212614424Y-93216189D01*
X212812426Y-93323342D01*
X212812427Y-93323342D01*
X212812428Y-93323343D01*
X212838531Y-93332304D01*
X213025365Y-93396444D01*
X213247431Y-93433500D01*
X213247435Y-93433500D01*
X213472565Y-93433500D01*
X213472569Y-93433500D01*
X213694635Y-93396444D01*
X213907574Y-93323342D01*
X214105576Y-93216189D01*
X214283240Y-93077906D01*
X214435722Y-92912268D01*
X214524518Y-92776354D01*
X214578520Y-92730268D01*
X214648868Y-92720692D01*
X214713225Y-92750669D01*
X214735480Y-92776353D01*
X214750743Y-92799714D01*
X214824275Y-92912265D01*
X214824279Y-92912270D01*
X214952539Y-93051596D01*
X214972061Y-93072802D01*
X214976762Y-93077908D01*
X215031331Y-93120381D01*
X215154424Y-93216189D01*
X215352426Y-93323342D01*
X215352427Y-93323342D01*
X215352428Y-93323343D01*
X215378531Y-93332304D01*
X215565365Y-93396444D01*
X215787431Y-93433500D01*
X215787435Y-93433500D01*
X216012565Y-93433500D01*
X216012569Y-93433500D01*
X216234635Y-93396444D01*
X216447574Y-93323342D01*
X216645576Y-93216189D01*
X216823240Y-93077906D01*
X216975722Y-92912268D01*
X217098860Y-92723791D01*
X217189296Y-92517616D01*
X217244564Y-92299368D01*
X217263156Y-92075000D01*
X217244564Y-91850632D01*
X217190536Y-91637280D01*
X217189297Y-91632387D01*
X217189296Y-91632386D01*
X217189296Y-91632384D01*
X217104909Y-91440000D01*
X234690675Y-91440000D01*
X234709912Y-91610744D01*
X234766664Y-91772930D01*
X234766665Y-91772933D01*
X234858079Y-91918417D01*
X234858080Y-91918419D01*
X234979580Y-92039919D01*
X234979582Y-92039920D01*
X235125066Y-92131334D01*
X235125067Y-92131334D01*
X235125070Y-92131336D01*
X235287254Y-92188087D01*
X235287253Y-92188087D01*
X235304543Y-92190034D01*
X235458000Y-92207325D01*
X235628746Y-92188087D01*
X235790930Y-92131336D01*
X235936419Y-92039919D01*
X235975394Y-92000944D01*
X241412819Y-92000944D01*
X241442177Y-92242721D01*
X241442177Y-92242722D01*
X241509936Y-92476655D01*
X241509940Y-92476666D01*
X241614348Y-92696701D01*
X241614349Y-92696703D01*
X241614350Y-92696704D01*
X241752707Y-92897148D01*
X241921425Y-93072802D01*
X242116135Y-93219117D01*
X242331795Y-93332304D01*
X242562818Y-93409431D01*
X242803221Y-93448500D01*
X242803225Y-93448500D01*
X244485801Y-93448500D01*
X244566673Y-93441971D01*
X244667768Y-93433810D01*
X244904248Y-93375523D01*
X244904249Y-93375522D01*
X244904251Y-93375522D01*
X244959396Y-93352026D01*
X245128316Y-93280056D01*
X245334168Y-93149883D01*
X245334175Y-93149877D01*
X245334176Y-93149877D01*
X245516468Y-92988380D01*
X245516474Y-92988375D01*
X245670510Y-92799714D01*
X245792289Y-92588787D01*
X245878656Y-92361057D01*
X245927374Y-92122421D01*
X245937181Y-91879061D01*
X245907823Y-91637280D01*
X245845519Y-91422182D01*
X245840063Y-91403344D01*
X245840059Y-91403333D01*
X245735651Y-91183298D01*
X245718758Y-91158825D01*
X245597293Y-90982852D01*
X245428575Y-90807198D01*
X245233865Y-90660883D01*
X245018205Y-90547696D01*
X245018201Y-90547694D01*
X245018200Y-90547694D01*
X244787179Y-90470568D01*
X244546788Y-90431501D01*
X244546782Y-90431500D01*
X244546779Y-90431500D01*
X242864203Y-90431500D01*
X242864199Y-90431500D01*
X242682236Y-90446189D01*
X242445748Y-90504477D01*
X242221685Y-90599943D01*
X242015824Y-90730122D01*
X242015823Y-90730122D01*
X241833531Y-90891619D01*
X241833522Y-90891629D01*
X241679493Y-91080281D01*
X241557715Y-91291205D01*
X241557712Y-91291210D01*
X241471345Y-91518939D01*
X241422626Y-91757579D01*
X241412819Y-92000937D01*
X241412819Y-92000944D01*
X235975394Y-92000944D01*
X236057919Y-91918419D01*
X236149336Y-91772930D01*
X236206087Y-91610746D01*
X236225325Y-91440000D01*
X236206087Y-91269254D01*
X236149336Y-91107070D01*
X236149334Y-91107067D01*
X236149334Y-91107066D01*
X236057920Y-90961582D01*
X236057919Y-90961580D01*
X235936419Y-90840080D01*
X235936417Y-90840079D01*
X235790933Y-90748665D01*
X235790930Y-90748664D01*
X235737226Y-90729872D01*
X235628746Y-90691913D01*
X235628744Y-90691912D01*
X235628746Y-90691912D01*
X235458000Y-90672675D01*
X235287255Y-90691912D01*
X235125069Y-90748664D01*
X235125066Y-90748665D01*
X234979582Y-90840079D01*
X234979580Y-90840080D01*
X234858080Y-90961580D01*
X234858079Y-90961582D01*
X234766665Y-91107066D01*
X234766664Y-91107069D01*
X234709912Y-91269255D01*
X234690675Y-91440000D01*
X217104909Y-91440000D01*
X217098860Y-91426209D01*
X217083914Y-91403333D01*
X216975724Y-91237734D01*
X216975720Y-91237729D01*
X216823237Y-91072091D01*
X216698085Y-90974681D01*
X216645576Y-90933811D01*
X216612319Y-90915813D01*
X216561929Y-90865802D01*
X216546576Y-90796485D01*
X216571136Y-90729872D01*
X216612320Y-90694186D01*
X216645576Y-90676189D01*
X216823240Y-90537906D01*
X216975722Y-90372268D01*
X217098860Y-90183791D01*
X217189296Y-89977616D01*
X217244564Y-89759368D01*
X217263156Y-89535000D01*
X217244564Y-89310632D01*
X217221993Y-89221500D01*
X217189297Y-89092387D01*
X217189296Y-89092386D01*
X217189296Y-89092384D01*
X217098860Y-88886209D01*
X217060903Y-88828111D01*
X216975724Y-88697734D01*
X216975720Y-88697729D01*
X216823237Y-88532091D01*
X216703367Y-88438792D01*
X216645576Y-88393811D01*
X216447574Y-88286658D01*
X216447572Y-88286657D01*
X216447571Y-88286656D01*
X216234639Y-88213557D01*
X216234630Y-88213555D01*
X216178405Y-88204173D01*
X216012569Y-88176500D01*
X215787431Y-88176500D01*
X215639211Y-88201233D01*
X215565369Y-88213555D01*
X215565360Y-88213557D01*
X215352428Y-88286656D01*
X215352426Y-88286658D01*
X215183480Y-88378087D01*
X215154426Y-88393810D01*
X215154424Y-88393811D01*
X214976762Y-88532091D01*
X214915754Y-88598363D01*
X214854901Y-88634933D01*
X214783936Y-88632798D01*
X214725391Y-88592636D01*
X214704999Y-88557057D01*
X214660889Y-88438797D01*
X214660887Y-88438792D01*
X214573261Y-88321738D01*
X214456207Y-88234112D01*
X214456202Y-88234110D01*
X214319204Y-88183011D01*
X214319196Y-88183009D01*
X214258649Y-88176500D01*
X214258638Y-88176500D01*
X212461362Y-88176500D01*
X212461350Y-88176500D01*
X212400803Y-88183009D01*
X212400795Y-88183011D01*
X212263797Y-88234110D01*
X212263792Y-88234112D01*
X212146738Y-88321738D01*
X212059112Y-88438792D01*
X212059110Y-88438797D01*
X212008011Y-88575795D01*
X212008009Y-88575803D01*
X212001500Y-88636350D01*
X212001500Y-90433649D01*
X212008009Y-90494196D01*
X212008011Y-90494204D01*
X212059110Y-90631202D01*
X212059112Y-90631207D01*
X212146738Y-90748261D01*
X212263791Y-90835886D01*
X212263792Y-90835886D01*
X212263796Y-90835889D01*
X212378810Y-90878787D01*
X212435642Y-90921332D01*
X212460453Y-90987852D01*
X212445362Y-91057226D01*
X212427475Y-91082179D01*
X212284280Y-91237729D01*
X212284275Y-91237734D01*
X212161141Y-91426206D01*
X212070703Y-91632386D01*
X212070702Y-91632387D01*
X212015437Y-91850624D01*
X212015436Y-91850630D01*
X212015436Y-91850632D01*
X211996844Y-92075000D01*
X195076158Y-92075000D01*
X195087557Y-92039919D01*
X195121118Y-91936626D01*
X195122400Y-91932681D01*
X195140550Y-91760000D01*
X195122400Y-91587319D01*
X195118789Y-91576208D01*
X195068747Y-91422189D01*
X195068743Y-91422182D01*
X194981930Y-91271816D01*
X194981929Y-91271814D01*
X194865748Y-91142782D01*
X194725279Y-91040725D01*
X194566654Y-90970100D01*
X194396816Y-90934000D01*
X194223184Y-90934000D01*
X194053345Y-90970100D01*
X193894720Y-91040725D01*
X193754251Y-91142782D01*
X193638070Y-91271814D01*
X193638069Y-91271816D01*
X193551256Y-91422182D01*
X193551252Y-91422189D01*
X193497601Y-91587313D01*
X193497600Y-91587317D01*
X193497600Y-91587319D01*
X193479450Y-91760000D01*
X172037327Y-91760000D01*
X172071651Y-91609615D01*
X172081815Y-91383309D01*
X172051406Y-91158825D01*
X171981403Y-90943379D01*
X171954260Y-90892939D01*
X171874059Y-90743899D01*
X171874055Y-90743892D01*
X171732812Y-90566780D01*
X171562219Y-90417737D01*
X171367756Y-90301550D01*
X171367746Y-90301545D01*
X171329468Y-90287179D01*
X171272719Y-90244516D01*
X171248045Y-90177945D01*
X171263279Y-90108602D01*
X171313584Y-90058503D01*
X171319073Y-90055692D01*
X171467330Y-89984296D01*
X171467338Y-89984291D01*
X171650533Y-89851192D01*
X171650534Y-89851191D01*
X171807018Y-89687522D01*
X171823865Y-89662000D01*
X188145450Y-89662000D01*
X188160322Y-89803498D01*
X188163601Y-89834686D01*
X188217252Y-89999810D01*
X188217256Y-89999817D01*
X188304069Y-90150183D01*
X188304070Y-90150185D01*
X188420251Y-90279217D01*
X188560720Y-90381274D01*
X188560722Y-90381275D01*
X188560725Y-90381277D01*
X188719346Y-90451900D01*
X188889184Y-90488000D01*
X189062816Y-90488000D01*
X189232654Y-90451900D01*
X189391275Y-90381277D01*
X189531746Y-90279219D01*
X189647929Y-90150185D01*
X189734745Y-89999815D01*
X189739788Y-89984296D01*
X189783035Y-89851192D01*
X189788400Y-89834681D01*
X189806550Y-89662000D01*
X189788400Y-89489319D01*
X189759379Y-89400000D01*
X189734747Y-89324189D01*
X189734743Y-89324182D01*
X189726915Y-89310624D01*
X189675460Y-89221500D01*
X189647930Y-89173816D01*
X189647929Y-89173814D01*
X189531748Y-89044782D01*
X189391279Y-88942725D01*
X189383465Y-88939246D01*
X189232654Y-88872100D01*
X189062816Y-88836000D01*
X188889184Y-88836000D01*
X188719345Y-88872100D01*
X188560720Y-88942725D01*
X188420251Y-89044782D01*
X188304070Y-89173814D01*
X188304069Y-89173816D01*
X188217256Y-89324182D01*
X188217252Y-89324189D01*
X188163601Y-89489313D01*
X188163600Y-89489317D01*
X188163600Y-89489319D01*
X188145450Y-89662000D01*
X171823865Y-89662000D01*
X171931765Y-89498539D01*
X171931766Y-89498536D01*
X172020765Y-89290310D01*
X172051877Y-89154000D01*
X170850616Y-89154000D01*
X170878993Y-89109844D01*
X170919500Y-88971889D01*
X170919500Y-88828111D01*
X170898033Y-88755000D01*
X194749450Y-88755000D01*
X194757134Y-88828111D01*
X194767601Y-88927686D01*
X194821252Y-89092810D01*
X194821256Y-89092817D01*
X194908069Y-89243183D01*
X194908070Y-89243185D01*
X195024251Y-89372217D01*
X195164720Y-89474274D01*
X195164722Y-89474275D01*
X195164725Y-89474277D01*
X195323346Y-89544900D01*
X195493184Y-89581000D01*
X195666816Y-89581000D01*
X195836654Y-89544900D01*
X195995275Y-89474277D01*
X196135746Y-89372219D01*
X196169889Y-89334300D01*
X196251929Y-89243185D01*
X196251930Y-89243183D01*
X196255604Y-89236820D01*
X196338745Y-89092815D01*
X196338885Y-89092386D01*
X196387512Y-88942725D01*
X196392400Y-88927681D01*
X196410550Y-88755000D01*
X196392400Y-88582319D01*
X196355359Y-88468318D01*
X196338747Y-88417189D01*
X196338743Y-88417182D01*
X196251930Y-88266816D01*
X196251929Y-88266814D01*
X196135748Y-88137782D01*
X195995279Y-88035725D01*
X195836654Y-87965100D01*
X195666816Y-87929000D01*
X195493184Y-87929000D01*
X195323345Y-87965100D01*
X195164720Y-88035725D01*
X195024251Y-88137782D01*
X194908070Y-88266814D01*
X194908069Y-88266816D01*
X194821256Y-88417182D01*
X194821252Y-88417189D01*
X194767601Y-88582313D01*
X194767600Y-88582317D01*
X194767600Y-88582319D01*
X194749450Y-88755000D01*
X170898033Y-88755000D01*
X170878993Y-88690156D01*
X170850616Y-88646000D01*
X172054582Y-88646000D01*
X172050915Y-88618933D01*
X171980941Y-88403576D01*
X171873640Y-88204173D01*
X171732449Y-88027127D01*
X171561925Y-87878145D01*
X171519279Y-87852665D01*
X171471060Y-87800555D01*
X171458668Y-87730648D01*
X171486037Y-87665139D01*
X171544479Y-87624827D01*
X171583904Y-87618500D01*
X171618132Y-87618500D01*
X171618138Y-87618500D01*
X171618145Y-87618499D01*
X171618149Y-87618499D01*
X171678696Y-87611990D01*
X171678699Y-87611989D01*
X171678701Y-87611989D01*
X171815704Y-87560889D01*
X171865136Y-87523885D01*
X171893035Y-87503000D01*
X188589675Y-87503000D01*
X188608912Y-87673744D01*
X188665664Y-87835930D01*
X188665665Y-87835933D01*
X188757079Y-87981417D01*
X188757080Y-87981419D01*
X188878580Y-88102919D01*
X188878582Y-88102920D01*
X189024066Y-88194334D01*
X189024067Y-88194334D01*
X189024070Y-88194336D01*
X189186254Y-88251087D01*
X189186253Y-88251087D01*
X189203543Y-88253034D01*
X189357000Y-88270325D01*
X189527746Y-88251087D01*
X189689930Y-88194336D01*
X189835419Y-88102919D01*
X189956919Y-87981419D01*
X190048336Y-87835930D01*
X190105087Y-87673746D01*
X190124325Y-87503000D01*
X190105087Y-87332254D01*
X190048336Y-87170070D01*
X190048334Y-87170067D01*
X190048334Y-87170066D01*
X189956920Y-87024582D01*
X189956919Y-87024580D01*
X189835419Y-86903080D01*
X189835417Y-86903079D01*
X189689933Y-86811665D01*
X189689930Y-86811664D01*
X189527746Y-86754913D01*
X189527744Y-86754912D01*
X189527746Y-86754912D01*
X189357000Y-86735675D01*
X189186255Y-86754912D01*
X189024069Y-86811664D01*
X189024066Y-86811665D01*
X188878582Y-86903079D01*
X188878580Y-86903080D01*
X188757080Y-87024580D01*
X188757079Y-87024582D01*
X188665665Y-87170066D01*
X188665664Y-87170069D01*
X188608912Y-87332255D01*
X188589675Y-87503000D01*
X171893035Y-87503000D01*
X171932761Y-87473261D01*
X172020387Y-87356207D01*
X172020387Y-87356206D01*
X172020389Y-87356204D01*
X172071489Y-87219201D01*
X172072081Y-87213702D01*
X172077999Y-87158649D01*
X172078000Y-87158632D01*
X172078000Y-85988649D01*
X208191500Y-85988649D01*
X208198009Y-86049196D01*
X208198011Y-86049204D01*
X208249110Y-86186202D01*
X208249112Y-86186207D01*
X208336738Y-86303261D01*
X208453792Y-86390887D01*
X208453794Y-86390888D01*
X208453796Y-86390889D01*
X208508900Y-86411442D01*
X208590795Y-86441988D01*
X208590803Y-86441990D01*
X208651350Y-86448499D01*
X208651355Y-86448499D01*
X208651362Y-86448500D01*
X208651368Y-86448500D01*
X210448632Y-86448500D01*
X210448638Y-86448500D01*
X210448645Y-86448499D01*
X210448649Y-86448499D01*
X210509196Y-86441990D01*
X210509199Y-86441989D01*
X210509201Y-86441989D01*
X210518084Y-86438676D01*
X210528045Y-86434960D01*
X210646204Y-86390889D01*
X210716399Y-86338342D01*
X210763261Y-86303261D01*
X210850886Y-86186208D01*
X210850885Y-86186208D01*
X210850889Y-86186204D01*
X210894999Y-86067939D01*
X210937545Y-86011107D01*
X211004066Y-85986296D01*
X211073440Y-86001388D01*
X211105753Y-86026635D01*
X211126529Y-86049204D01*
X211166762Y-86092908D01*
X211221331Y-86135381D01*
X211344424Y-86231189D01*
X211542426Y-86338342D01*
X211542427Y-86338342D01*
X211542428Y-86338343D01*
X211654227Y-86376723D01*
X211755365Y-86411444D01*
X211977431Y-86448500D01*
X211977435Y-86448500D01*
X212202565Y-86448500D01*
X212202569Y-86448500D01*
X212424635Y-86411444D01*
X212637574Y-86338342D01*
X212835576Y-86231189D01*
X213013240Y-86092906D01*
X213165722Y-85927268D01*
X213288860Y-85738791D01*
X213379296Y-85532616D01*
X213434564Y-85314368D01*
X213453156Y-85090000D01*
X222156844Y-85090000D01*
X222174826Y-85307012D01*
X222175437Y-85314375D01*
X222230702Y-85532612D01*
X222230703Y-85532613D01*
X222230704Y-85532616D01*
X222318710Y-85733250D01*
X222321141Y-85738793D01*
X222444275Y-85927265D01*
X222444278Y-85927268D01*
X222498618Y-85986296D01*
X222587475Y-86082820D01*
X222618896Y-86146485D01*
X222610909Y-86217031D01*
X222566051Y-86272060D01*
X222538807Y-86286213D01*
X222423797Y-86329110D01*
X222423792Y-86329112D01*
X222306738Y-86416738D01*
X222219112Y-86533792D01*
X222219110Y-86533797D01*
X222168011Y-86670795D01*
X222168009Y-86670803D01*
X222161500Y-86731350D01*
X222161500Y-88528649D01*
X222168009Y-88589196D01*
X222168011Y-88589204D01*
X222219110Y-88726202D01*
X222219112Y-88726207D01*
X222306738Y-88843261D01*
X222423792Y-88930887D01*
X222423794Y-88930888D01*
X222423796Y-88930889D01*
X222482875Y-88952924D01*
X222560795Y-88981988D01*
X222560803Y-88981990D01*
X222621350Y-88988499D01*
X222621355Y-88988499D01*
X222621362Y-88988500D01*
X222621368Y-88988500D01*
X224418632Y-88988500D01*
X224418638Y-88988500D01*
X224418645Y-88988499D01*
X224418649Y-88988499D01*
X224479196Y-88981990D01*
X224479199Y-88981989D01*
X224479201Y-88981989D01*
X224616204Y-88930889D01*
X224620490Y-88927681D01*
X224733261Y-88843261D01*
X224820887Y-88726207D01*
X224820887Y-88726206D01*
X224820889Y-88726204D01*
X224871989Y-88589201D01*
X224873430Y-88575803D01*
X224878499Y-88528649D01*
X224878500Y-88528632D01*
X224878500Y-88490000D01*
X236711502Y-88490000D01*
X236731457Y-88718087D01*
X236760938Y-88828111D01*
X236790715Y-88939240D01*
X236790717Y-88939246D01*
X236887477Y-89146749D01*
X236950545Y-89236820D01*
X237018802Y-89334300D01*
X237180700Y-89496198D01*
X237368251Y-89627523D01*
X237575757Y-89724284D01*
X237796913Y-89783543D01*
X238025000Y-89803498D01*
X238253087Y-89783543D01*
X238474243Y-89724284D01*
X238681749Y-89627523D01*
X238869300Y-89496198D01*
X239031198Y-89334300D01*
X239162523Y-89146749D01*
X239259284Y-88939243D01*
X239303294Y-88774996D01*
X239340245Y-88714375D01*
X239404105Y-88683354D01*
X239474600Y-88691782D01*
X239529347Y-88736985D01*
X239546705Y-88774994D01*
X239580307Y-88900398D01*
X239590715Y-88939240D01*
X239590717Y-88939246D01*
X239687477Y-89146749D01*
X239750545Y-89236820D01*
X239818802Y-89334300D01*
X239980700Y-89496198D01*
X240168251Y-89627523D01*
X240375757Y-89724284D01*
X240596913Y-89783543D01*
X240825000Y-89803498D01*
X241053087Y-89783543D01*
X241274243Y-89724284D01*
X241481749Y-89627523D01*
X241669300Y-89496198D01*
X241831198Y-89334300D01*
X241962523Y-89146749D01*
X242059284Y-88939243D01*
X242118543Y-88718087D01*
X242138498Y-88490000D01*
X242118543Y-88261913D01*
X242059284Y-88040757D01*
X241962523Y-87833251D01*
X241831198Y-87645700D01*
X241714593Y-87529095D01*
X241680567Y-87466783D01*
X241685632Y-87395968D01*
X241714593Y-87350905D01*
X241770318Y-87295180D01*
X241831198Y-87234300D01*
X241962523Y-87046749D01*
X242059284Y-86839243D01*
X242118543Y-86618087D01*
X242138498Y-86390000D01*
X242118543Y-86161913D01*
X242115566Y-86150801D01*
X242966500Y-86150801D01*
X242981189Y-86332763D01*
X243039477Y-86569251D01*
X243110385Y-86735675D01*
X243134944Y-86793316D01*
X243265117Y-86999168D01*
X243265119Y-86999170D01*
X243265122Y-86999175D01*
X243265122Y-86999176D01*
X243426619Y-87181468D01*
X243426622Y-87181471D01*
X243426625Y-87181474D01*
X243517557Y-87255717D01*
X243615281Y-87335506D01*
X243615280Y-87335506D01*
X243615283Y-87335508D01*
X243615286Y-87335510D01*
X243826213Y-87457289D01*
X244053943Y-87543656D01*
X244292579Y-87592374D01*
X244535939Y-87602181D01*
X244777720Y-87572823D01*
X245011662Y-87505061D01*
X245231704Y-87400650D01*
X245432148Y-87262293D01*
X245607802Y-87093575D01*
X245754117Y-86898865D01*
X245867304Y-86683205D01*
X245944431Y-86452182D01*
X245983500Y-86211779D01*
X245983500Y-84029203D01*
X245980641Y-83993792D01*
X245975557Y-83930814D01*
X245968810Y-83847232D01*
X245910523Y-83610752D01*
X245910522Y-83610751D01*
X245910522Y-83610748D01*
X245819945Y-83398159D01*
X245815056Y-83386684D01*
X245684883Y-83180832D01*
X245684879Y-83180828D01*
X245684877Y-83180824D01*
X245684877Y-83180823D01*
X245523380Y-82998531D01*
X245523377Y-82998528D01*
X245523375Y-82998526D01*
X245334718Y-82844493D01*
X245334719Y-82844493D01*
X245305324Y-82827522D01*
X245123787Y-82722711D01*
X244896057Y-82636344D01*
X244657421Y-82587626D01*
X244535741Y-82582722D01*
X244414062Y-82577819D01*
X244414055Y-82577819D01*
X244172278Y-82607177D01*
X244172277Y-82607177D01*
X243938344Y-82674936D01*
X243938333Y-82674940D01*
X243718298Y-82779348D01*
X243517852Y-82917706D01*
X243517844Y-82917714D01*
X243342203Y-83086419D01*
X243342196Y-83086427D01*
X243195883Y-83281134D01*
X243082694Y-83496799D01*
X243005568Y-83727820D01*
X242966501Y-83968211D01*
X242966500Y-83968225D01*
X242966500Y-86150801D01*
X242115566Y-86150801D01*
X242059284Y-85940757D01*
X241962523Y-85733251D01*
X241831198Y-85545700D01*
X241669300Y-85383802D01*
X241589197Y-85327713D01*
X241544869Y-85272256D01*
X241537560Y-85201636D01*
X241569591Y-85138276D01*
X241630792Y-85102291D01*
X241661468Y-85098500D01*
X241673632Y-85098500D01*
X241673638Y-85098500D01*
X241673645Y-85098499D01*
X241673649Y-85098499D01*
X241734196Y-85091990D01*
X241734199Y-85091989D01*
X241734201Y-85091989D01*
X241871204Y-85040889D01*
X241988261Y-84953261D01*
X242015171Y-84917313D01*
X242075887Y-84836207D01*
X242075887Y-84836206D01*
X242075889Y-84836204D01*
X242126989Y-84699201D01*
X242132560Y-84647387D01*
X242133499Y-84638649D01*
X242133500Y-84638632D01*
X242133500Y-82941367D01*
X242133499Y-82941350D01*
X242126990Y-82880803D01*
X242126988Y-82880795D01*
X242085480Y-82769511D01*
X242075889Y-82743796D01*
X242075888Y-82743794D01*
X242075887Y-82743792D01*
X241988261Y-82626738D01*
X241940062Y-82590657D01*
X241897515Y-82533821D01*
X241892451Y-82463005D01*
X241912359Y-82417517D01*
X241962087Y-82346498D01*
X241962088Y-82346497D01*
X242058811Y-82139073D01*
X242058813Y-82139068D01*
X242118048Y-81918002D01*
X242137995Y-81690000D01*
X242118048Y-81461997D01*
X242058813Y-81240931D01*
X242058811Y-81240926D01*
X241962086Y-81033498D01*
X241912100Y-80962110D01*
X241912097Y-80962110D01*
X241223726Y-81650480D01*
X241210165Y-81564852D01*
X241152641Y-81451955D01*
X241063045Y-81362359D01*
X240950148Y-81304835D01*
X240864517Y-81291272D01*
X241552888Y-80602899D01*
X241552888Y-80602898D01*
X241481501Y-80552913D01*
X241274073Y-80456188D01*
X241274068Y-80456186D01*
X241053000Y-80396951D01*
X241053004Y-80396951D01*
X240825000Y-80377004D01*
X240596997Y-80396951D01*
X240375931Y-80456186D01*
X240375926Y-80456188D01*
X240168500Y-80552913D01*
X240097109Y-80602900D01*
X240785481Y-81291272D01*
X240699852Y-81304835D01*
X240586955Y-81362359D01*
X240497359Y-81451955D01*
X240439835Y-81564852D01*
X240426272Y-81650482D01*
X239737900Y-80962109D01*
X239687913Y-81033500D01*
X239591188Y-81240926D01*
X239591187Y-81240928D01*
X239546965Y-81405967D01*
X239510013Y-81466589D01*
X239446152Y-81497611D01*
X239375658Y-81489182D01*
X239320911Y-81443979D01*
X239303553Y-81405970D01*
X239259284Y-81240757D01*
X239162523Y-81033251D01*
X239031198Y-80845700D01*
X238869300Y-80683802D01*
X238788488Y-80627217D01*
X238681749Y-80552477D01*
X238474246Y-80455717D01*
X238474240Y-80455715D01*
X238380771Y-80430670D01*
X238253087Y-80396457D01*
X238025000Y-80376502D01*
X237796913Y-80396457D01*
X237575759Y-80455715D01*
X237575753Y-80455717D01*
X237368250Y-80552477D01*
X237180703Y-80683799D01*
X237180697Y-80683804D01*
X237018804Y-80845697D01*
X237018799Y-80845703D01*
X236887477Y-81033250D01*
X236790717Y-81240753D01*
X236790715Y-81240759D01*
X236756487Y-81368499D01*
X236731457Y-81461913D01*
X236711502Y-81690000D01*
X236731457Y-81918087D01*
X236758133Y-82017641D01*
X236790715Y-82139240D01*
X236790717Y-82139246D01*
X236887477Y-82346749D01*
X237018466Y-82533821D01*
X237018802Y-82534300D01*
X237180700Y-82696198D01*
X237368251Y-82827523D01*
X237575757Y-82924284D01*
X237796913Y-82983543D01*
X238025000Y-83003498D01*
X238253087Y-82983543D01*
X238474243Y-82924284D01*
X238681749Y-82827523D01*
X238869300Y-82696198D01*
X239031198Y-82534300D01*
X239162523Y-82346749D01*
X239259284Y-82139243D01*
X239303553Y-81974029D01*
X239340502Y-81913410D01*
X239404363Y-81882389D01*
X239474857Y-81890817D01*
X239529605Y-81936020D01*
X239546965Y-81974033D01*
X239591186Y-82139068D01*
X239591188Y-82139073D01*
X239687913Y-82346501D01*
X239737641Y-82417520D01*
X239760329Y-82484794D01*
X239743044Y-82553654D01*
X239709937Y-82590658D01*
X239661738Y-82626738D01*
X239574112Y-82743792D01*
X239574110Y-82743797D01*
X239523011Y-82880795D01*
X239523009Y-82880803D01*
X239516500Y-82941350D01*
X239516500Y-84638649D01*
X239523009Y-84699196D01*
X239523011Y-84699204D01*
X239574110Y-84836202D01*
X239574112Y-84836207D01*
X239661738Y-84953261D01*
X239778792Y-85040887D01*
X239778794Y-85040888D01*
X239778796Y-85040889D01*
X239837875Y-85062924D01*
X239915795Y-85091988D01*
X239915803Y-85091990D01*
X239976350Y-85098499D01*
X239976355Y-85098499D01*
X239976362Y-85098500D01*
X239988532Y-85098500D01*
X240056653Y-85118502D01*
X240103146Y-85172158D01*
X240113250Y-85242432D01*
X240083756Y-85307012D01*
X240060803Y-85327713D01*
X239980703Y-85383799D01*
X239980697Y-85383804D01*
X239818804Y-85545697D01*
X239818799Y-85545703D01*
X239687477Y-85733250D01*
X239590717Y-85940753D01*
X239590715Y-85940759D01*
X239549947Y-86092908D01*
X239531457Y-86161913D01*
X239511502Y-86390000D01*
X239531457Y-86618087D01*
X239561806Y-86731350D01*
X239590715Y-86839240D01*
X239590717Y-86839246D01*
X239687477Y-87046749D01*
X239808231Y-87219204D01*
X239818802Y-87234300D01*
X239879682Y-87295180D01*
X239935407Y-87350905D01*
X239969432Y-87413217D01*
X239964366Y-87484033D01*
X239935407Y-87529095D01*
X239818799Y-87645703D01*
X239687477Y-87833250D01*
X239590717Y-88040753D01*
X239590715Y-88040759D01*
X239566090Y-88132660D01*
X239546929Y-88204173D01*
X239546707Y-88205001D01*
X239509755Y-88265624D01*
X239445895Y-88296645D01*
X239375400Y-88288217D01*
X239320653Y-88243014D01*
X239303293Y-88205001D01*
X239259284Y-88040757D01*
X239162523Y-87833251D01*
X239031198Y-87645700D01*
X238869300Y-87483802D01*
X238865468Y-87481119D01*
X238681749Y-87352477D01*
X238474246Y-87255717D01*
X238474240Y-87255715D01*
X238337949Y-87219196D01*
X238253087Y-87196457D01*
X238025000Y-87176502D01*
X237796913Y-87196457D01*
X237575759Y-87255715D01*
X237575753Y-87255717D01*
X237368250Y-87352477D01*
X237180703Y-87483799D01*
X237180697Y-87483804D01*
X237018804Y-87645697D01*
X237018799Y-87645703D01*
X236887477Y-87833250D01*
X236790717Y-88040753D01*
X236790715Y-88040759D01*
X236738907Y-88234110D01*
X236731457Y-88261913D01*
X236711502Y-88490000D01*
X224878500Y-88490000D01*
X224878500Y-87630000D01*
X231642675Y-87630000D01*
X231661912Y-87800744D01*
X231718664Y-87962930D01*
X231718665Y-87962933D01*
X231810079Y-88108417D01*
X231810080Y-88108419D01*
X231931580Y-88229919D01*
X231931582Y-88229920D01*
X232077066Y-88321334D01*
X232077067Y-88321334D01*
X232077070Y-88321336D01*
X232239254Y-88378087D01*
X232239253Y-88378087D01*
X232256543Y-88380034D01*
X232410000Y-88397325D01*
X232580746Y-88378087D01*
X232742930Y-88321336D01*
X232888419Y-88229919D01*
X233009919Y-88108419D01*
X233101336Y-87962930D01*
X233158087Y-87800746D01*
X233177325Y-87630000D01*
X233158087Y-87459254D01*
X233101336Y-87297070D01*
X233101334Y-87297067D01*
X233101334Y-87297066D01*
X233009920Y-87151582D01*
X233009919Y-87151580D01*
X232888419Y-87030080D01*
X232888417Y-87030079D01*
X232742933Y-86938665D01*
X232742930Y-86938664D01*
X232641237Y-86903080D01*
X232580746Y-86881913D01*
X232580744Y-86881912D01*
X232580746Y-86881912D01*
X232410000Y-86862675D01*
X232239255Y-86881912D01*
X232077069Y-86938664D01*
X232077066Y-86938665D01*
X231931582Y-87030079D01*
X231931580Y-87030080D01*
X231810080Y-87151580D01*
X231810079Y-87151582D01*
X231718665Y-87297066D01*
X231718664Y-87297069D01*
X231661912Y-87459255D01*
X231642675Y-87630000D01*
X224878500Y-87630000D01*
X224878500Y-86731367D01*
X224878499Y-86731350D01*
X224871990Y-86670803D01*
X224871988Y-86670795D01*
X224820889Y-86533797D01*
X224820887Y-86533792D01*
X224733261Y-86416738D01*
X224616207Y-86329112D01*
X224616203Y-86329110D01*
X224501192Y-86286213D01*
X224444356Y-86243667D01*
X224419546Y-86177146D01*
X224434638Y-86107772D01*
X224452525Y-86082820D01*
X224595714Y-85927277D01*
X224595724Y-85927265D01*
X224701500Y-85765362D01*
X224718860Y-85738791D01*
X224809296Y-85532616D01*
X224864564Y-85314368D01*
X224883156Y-85090000D01*
X224864564Y-84865632D01*
X224809296Y-84647384D01*
X224718860Y-84441209D01*
X224667815Y-84363079D01*
X224595724Y-84252734D01*
X224595720Y-84252729D01*
X224443237Y-84087091D01*
X224323367Y-83993792D01*
X224265576Y-83948811D01*
X224232319Y-83930813D01*
X224181929Y-83880802D01*
X224166576Y-83811485D01*
X224191136Y-83744872D01*
X224232320Y-83709186D01*
X224265576Y-83691189D01*
X224443240Y-83552906D01*
X224595722Y-83387268D01*
X224718860Y-83198791D01*
X224724909Y-83185000D01*
X231642675Y-83185000D01*
X231661912Y-83355744D01*
X231718664Y-83517930D01*
X231718665Y-83517933D01*
X231810079Y-83663417D01*
X231810080Y-83663419D01*
X231931580Y-83784919D01*
X231931582Y-83784920D01*
X232077066Y-83876334D01*
X232077067Y-83876334D01*
X232077070Y-83876336D01*
X232239254Y-83933087D01*
X232239253Y-83933087D01*
X232256543Y-83935034D01*
X232410000Y-83952325D01*
X232580746Y-83933087D01*
X232742930Y-83876336D01*
X232888419Y-83784919D01*
X233009919Y-83663419D01*
X233101336Y-83517930D01*
X233158087Y-83355746D01*
X233177325Y-83185000D01*
X233158087Y-83014254D01*
X233101336Y-82852070D01*
X233101334Y-82852067D01*
X233101334Y-82852066D01*
X233009920Y-82706582D01*
X233009919Y-82706580D01*
X232888419Y-82585080D01*
X232888417Y-82585079D01*
X232742933Y-82493665D01*
X232742930Y-82493664D01*
X232717581Y-82484794D01*
X232580746Y-82436913D01*
X232580744Y-82436912D01*
X232580746Y-82436912D01*
X232410000Y-82417675D01*
X232239255Y-82436912D01*
X232077069Y-82493664D01*
X232077066Y-82493665D01*
X231931582Y-82585079D01*
X231931580Y-82585080D01*
X231810080Y-82706580D01*
X231810079Y-82706582D01*
X231718665Y-82852066D01*
X231718664Y-82852069D01*
X231661912Y-83014255D01*
X231642675Y-83185000D01*
X224724909Y-83185000D01*
X224809296Y-82992616D01*
X224864564Y-82774368D01*
X224883156Y-82550000D01*
X224864564Y-82325632D01*
X224817364Y-82139243D01*
X224809297Y-82107387D01*
X224809296Y-82107386D01*
X224809296Y-82107384D01*
X224718860Y-81901209D01*
X224662634Y-81815148D01*
X224595724Y-81712734D01*
X224595720Y-81712729D01*
X224479570Y-81586559D01*
X224443240Y-81547094D01*
X224443239Y-81547093D01*
X224443237Y-81547091D01*
X224339808Y-81466589D01*
X224265576Y-81408811D01*
X224232319Y-81390813D01*
X224181929Y-81340802D01*
X224166576Y-81271485D01*
X224191136Y-81204872D01*
X224232320Y-81169186D01*
X224265576Y-81151189D01*
X224443240Y-81012906D01*
X224595722Y-80847268D01*
X224718860Y-80658791D01*
X224809296Y-80452616D01*
X224864564Y-80234368D01*
X224883156Y-80010000D01*
X224864564Y-79785632D01*
X224846241Y-79713277D01*
X224809297Y-79567387D01*
X224809296Y-79567386D01*
X224809296Y-79567384D01*
X224718860Y-79361209D01*
X224704951Y-79339919D01*
X224595724Y-79172734D01*
X224595720Y-79172729D01*
X224447488Y-79011709D01*
X224443240Y-79007094D01*
X224443239Y-79007093D01*
X224443237Y-79007091D01*
X224323372Y-78913796D01*
X224265576Y-78868811D01*
X224232319Y-78850813D01*
X224181929Y-78800802D01*
X224168462Y-78740000D01*
X234817675Y-78740000D01*
X234836912Y-78910744D01*
X234893664Y-79072930D01*
X234893665Y-79072933D01*
X234985079Y-79218417D01*
X234985080Y-79218419D01*
X235106580Y-79339919D01*
X235106582Y-79339920D01*
X235252066Y-79431334D01*
X235252067Y-79431334D01*
X235252070Y-79431336D01*
X235414254Y-79488087D01*
X235414253Y-79488087D01*
X235431543Y-79490034D01*
X235585000Y-79507325D01*
X235755746Y-79488087D01*
X235917930Y-79431336D01*
X236063419Y-79339919D01*
X236184919Y-79218419D01*
X236276336Y-79072930D01*
X236333087Y-78910746D01*
X236352325Y-78740000D01*
X236333087Y-78569254D01*
X236276336Y-78407070D01*
X236276334Y-78407067D01*
X236276334Y-78407066D01*
X236209653Y-78300944D01*
X241412819Y-78300944D01*
X241442177Y-78542721D01*
X241442177Y-78542722D01*
X241509936Y-78776655D01*
X241509940Y-78776666D01*
X241614348Y-78996701D01*
X241743631Y-79184000D01*
X241752707Y-79197148D01*
X241760073Y-79204817D01*
X241904503Y-79355185D01*
X241921425Y-79372802D01*
X242116135Y-79519117D01*
X242331795Y-79632304D01*
X242562818Y-79709431D01*
X242803221Y-79748500D01*
X242803225Y-79748500D01*
X244485801Y-79748500D01*
X244566673Y-79741971D01*
X244667768Y-79733810D01*
X244904248Y-79675523D01*
X244904249Y-79675522D01*
X244904251Y-79675522D01*
X244959396Y-79652026D01*
X245128316Y-79580056D01*
X245334168Y-79449883D01*
X245334175Y-79449877D01*
X245334176Y-79449877D01*
X245513821Y-79290725D01*
X245516474Y-79288375D01*
X245670510Y-79099714D01*
X245792289Y-78888787D01*
X245878656Y-78661057D01*
X245927374Y-78422421D01*
X245937181Y-78179061D01*
X245907823Y-77937280D01*
X245840061Y-77703338D01*
X245811281Y-77642686D01*
X245735651Y-77483298D01*
X245696982Y-77427277D01*
X245597293Y-77282852D01*
X245428575Y-77107198D01*
X245233865Y-76960883D01*
X245018205Y-76847696D01*
X245018201Y-76847694D01*
X245018200Y-76847694D01*
X244787179Y-76770568D01*
X244546788Y-76731501D01*
X244546782Y-76731500D01*
X244546779Y-76731500D01*
X242864203Y-76731500D01*
X242864199Y-76731500D01*
X242682236Y-76746189D01*
X242445748Y-76804477D01*
X242221685Y-76899943D01*
X242015824Y-77030122D01*
X242015823Y-77030122D01*
X241833531Y-77191619D01*
X241833522Y-77191629D01*
X241679493Y-77380281D01*
X241557715Y-77591205D01*
X241557712Y-77591210D01*
X241471345Y-77818939D01*
X241471344Y-77818941D01*
X241471344Y-77818943D01*
X241442489Y-77960284D01*
X241422626Y-78057579D01*
X241412819Y-78300937D01*
X241412819Y-78300944D01*
X236209653Y-78300944D01*
X236184920Y-78261582D01*
X236184919Y-78261580D01*
X236063419Y-78140080D01*
X236063417Y-78140079D01*
X235917933Y-78048665D01*
X235917930Y-78048664D01*
X235755746Y-77991913D01*
X235755744Y-77991912D01*
X235755746Y-77991912D01*
X235585000Y-77972675D01*
X235414255Y-77991912D01*
X235252069Y-78048664D01*
X235252066Y-78048665D01*
X235106582Y-78140079D01*
X235106580Y-78140080D01*
X234985080Y-78261580D01*
X234985079Y-78261582D01*
X234893665Y-78407066D01*
X234893664Y-78407069D01*
X234836912Y-78569255D01*
X234817675Y-78740000D01*
X224168462Y-78740000D01*
X224166576Y-78731485D01*
X224191136Y-78664872D01*
X224232320Y-78629186D01*
X224265576Y-78611189D01*
X224443240Y-78472906D01*
X224595722Y-78307268D01*
X224718860Y-78118791D01*
X224809296Y-77912616D01*
X224864564Y-77694368D01*
X224883156Y-77470000D01*
X224864564Y-77245632D01*
X224813964Y-77045817D01*
X224809297Y-77027387D01*
X224809296Y-77027386D01*
X224809296Y-77027384D01*
X224718860Y-76821209D01*
X224660251Y-76731501D01*
X224595724Y-76632734D01*
X224595720Y-76632729D01*
X224443237Y-76467091D01*
X224361382Y-76403381D01*
X224265576Y-76328811D01*
X224231792Y-76310528D01*
X224181402Y-76260516D01*
X224166050Y-76191199D01*
X224190610Y-76124586D01*
X224231793Y-76088901D01*
X224265300Y-76070767D01*
X224265301Y-76070767D01*
X224442902Y-75932534D01*
X224595325Y-75766958D01*
X224718419Y-75578548D01*
X224808820Y-75372456D01*
X224808823Y-75372449D01*
X224856544Y-75184000D01*
X223951116Y-75184000D01*
X223979493Y-75139844D01*
X224020000Y-75001889D01*
X224020000Y-74858111D01*
X223979493Y-74720156D01*
X223951116Y-74676000D01*
X224856544Y-74676000D01*
X224856544Y-74675999D01*
X224808823Y-74487550D01*
X224808820Y-74487543D01*
X224718419Y-74281451D01*
X224595325Y-74093041D01*
X224442902Y-73927465D01*
X224265301Y-73789232D01*
X224265300Y-73789231D01*
X224067371Y-73682117D01*
X224067369Y-73682116D01*
X223854512Y-73609043D01*
X223854501Y-73609040D01*
X223774000Y-73595606D01*
X223774000Y-74496325D01*
X223662315Y-74445320D01*
X223555763Y-74430000D01*
X223484237Y-74430000D01*
X223377685Y-74445320D01*
X223266000Y-74496325D01*
X223266000Y-73595607D01*
X223265999Y-73595606D01*
X223185498Y-73609040D01*
X223185487Y-73609043D01*
X222972630Y-73682116D01*
X222972628Y-73682117D01*
X222774699Y-73789231D01*
X222774698Y-73789232D01*
X222597097Y-73927465D01*
X222444674Y-74093041D01*
X222321580Y-74281451D01*
X222231179Y-74487543D01*
X222231176Y-74487550D01*
X222183455Y-74675999D01*
X222183456Y-74676000D01*
X223088884Y-74676000D01*
X223060507Y-74720156D01*
X223020000Y-74858111D01*
X223020000Y-75001889D01*
X223060507Y-75139844D01*
X223088884Y-75184000D01*
X222183455Y-75184000D01*
X222231176Y-75372449D01*
X222231179Y-75372456D01*
X222321580Y-75578548D01*
X222444674Y-75766958D01*
X222597097Y-75932534D01*
X222774698Y-76070767D01*
X222774704Y-76070771D01*
X222808207Y-76088902D01*
X222858597Y-76138915D01*
X222873949Y-76208232D01*
X222849388Y-76274845D01*
X222808207Y-76310528D01*
X222774430Y-76328807D01*
X222774424Y-76328811D01*
X222596762Y-76467091D01*
X222444279Y-76632729D01*
X222444275Y-76632734D01*
X222321141Y-76821206D01*
X222230703Y-77027386D01*
X222230702Y-77027387D01*
X222175437Y-77245624D01*
X222175436Y-77245630D01*
X222175436Y-77245632D01*
X222156844Y-77470000D01*
X222171153Y-77642686D01*
X222175437Y-77694375D01*
X222230702Y-77912612D01*
X222230703Y-77912613D01*
X222230704Y-77912616D01*
X222321140Y-78118791D01*
X222321141Y-78118793D01*
X222444275Y-78307265D01*
X222444279Y-78307270D01*
X222596762Y-78472908D01*
X222613583Y-78486000D01*
X222774424Y-78611189D01*
X222807680Y-78629186D01*
X222858071Y-78679200D01*
X222873423Y-78748516D01*
X222848862Y-78815129D01*
X222807680Y-78850813D01*
X222774426Y-78868810D01*
X222774424Y-78868811D01*
X222596762Y-79007091D01*
X222444279Y-79172729D01*
X222444275Y-79172734D01*
X222321141Y-79361206D01*
X222230703Y-79567386D01*
X222230702Y-79567387D01*
X222175437Y-79785624D01*
X222175436Y-79785630D01*
X222175436Y-79785632D01*
X222156844Y-80010000D01*
X222174232Y-80219844D01*
X222175437Y-80234375D01*
X222230702Y-80452612D01*
X222230703Y-80452613D01*
X222230704Y-80452616D01*
X222321140Y-80658791D01*
X222321141Y-80658793D01*
X222444275Y-80847265D01*
X222444279Y-80847270D01*
X222596762Y-81012908D01*
X222622899Y-81033251D01*
X222774424Y-81151189D01*
X222807680Y-81169186D01*
X222858071Y-81219200D01*
X222873423Y-81288516D01*
X222848862Y-81355129D01*
X222807680Y-81390813D01*
X222774426Y-81408810D01*
X222774424Y-81408811D01*
X222596762Y-81547091D01*
X222444279Y-81712729D01*
X222444275Y-81712734D01*
X222321141Y-81901206D01*
X222230703Y-82107386D01*
X222230702Y-82107387D01*
X222175437Y-82325624D01*
X222175436Y-82325630D01*
X222175436Y-82325632D01*
X222156844Y-82550000D01*
X222175033Y-82769509D01*
X222175437Y-82774375D01*
X222230702Y-82992612D01*
X222230703Y-82992613D01*
X222230704Y-82992616D01*
X222271852Y-83086425D01*
X222321141Y-83198793D01*
X222444275Y-83387265D01*
X222444279Y-83387270D01*
X222596762Y-83552908D01*
X222651331Y-83595381D01*
X222774424Y-83691189D01*
X222807680Y-83709186D01*
X222858071Y-83759200D01*
X222873423Y-83828516D01*
X222848862Y-83895129D01*
X222807680Y-83930813D01*
X222774426Y-83948810D01*
X222774424Y-83948811D01*
X222596762Y-84087091D01*
X222444279Y-84252729D01*
X222444275Y-84252734D01*
X222321141Y-84441206D01*
X222230703Y-84647386D01*
X222230702Y-84647387D01*
X222175437Y-84865624D01*
X222175436Y-84865630D01*
X222175436Y-84865632D01*
X222156844Y-85090000D01*
X213453156Y-85090000D01*
X213434564Y-84865632D01*
X213379296Y-84647384D01*
X213288860Y-84441209D01*
X213237815Y-84363079D01*
X213165724Y-84252734D01*
X213165720Y-84252729D01*
X213013237Y-84087091D01*
X212893367Y-83993792D01*
X212835576Y-83948811D01*
X212637574Y-83841658D01*
X212637572Y-83841657D01*
X212637571Y-83841656D01*
X212424639Y-83768557D01*
X212424630Y-83768555D01*
X212368567Y-83759200D01*
X212202569Y-83731500D01*
X211977431Y-83731500D01*
X211829211Y-83756233D01*
X211755369Y-83768555D01*
X211755360Y-83768557D01*
X211542428Y-83841656D01*
X211542426Y-83841658D01*
X211344432Y-83948807D01*
X211344426Y-83948810D01*
X211344424Y-83948811D01*
X211166762Y-84087091D01*
X211105754Y-84153363D01*
X211044901Y-84189933D01*
X210973936Y-84187798D01*
X210915391Y-84147636D01*
X210894999Y-84112057D01*
X210850889Y-83993797D01*
X210850887Y-83993792D01*
X210763261Y-83876738D01*
X210646207Y-83789112D01*
X210646202Y-83789110D01*
X210509204Y-83738011D01*
X210509196Y-83738009D01*
X210448649Y-83731500D01*
X210448638Y-83731500D01*
X208651362Y-83731500D01*
X208651350Y-83731500D01*
X208590803Y-83738009D01*
X208590795Y-83738011D01*
X208453797Y-83789110D01*
X208453792Y-83789112D01*
X208336738Y-83876738D01*
X208249112Y-83993792D01*
X208249110Y-83993797D01*
X208198011Y-84130795D01*
X208198009Y-84130803D01*
X208191500Y-84191350D01*
X208191500Y-85988649D01*
X172078000Y-85988649D01*
X172078000Y-85561367D01*
X172077999Y-85561350D01*
X172071490Y-85500803D01*
X172071488Y-85500795D01*
X172042424Y-85422875D01*
X172020389Y-85363796D01*
X172020388Y-85363794D01*
X172020387Y-85363792D01*
X171932761Y-85246738D01*
X171815707Y-85159112D01*
X171815702Y-85159110D01*
X171678704Y-85108011D01*
X171678696Y-85108009D01*
X171618149Y-85101500D01*
X171618138Y-85101500D01*
X169220862Y-85101500D01*
X169220850Y-85101500D01*
X169160303Y-85108009D01*
X169160295Y-85108011D01*
X169023297Y-85159110D01*
X169023292Y-85159112D01*
X168906238Y-85246738D01*
X168818612Y-85363792D01*
X168818610Y-85363797D01*
X168767511Y-85500795D01*
X168767509Y-85500803D01*
X168761000Y-85561350D01*
X168761000Y-87158649D01*
X168767509Y-87219196D01*
X168767511Y-87219204D01*
X168818610Y-87356202D01*
X168818612Y-87356207D01*
X168906238Y-87473261D01*
X169023292Y-87560887D01*
X169023294Y-87560888D01*
X169023296Y-87560889D01*
X169055292Y-87572823D01*
X169160295Y-87611988D01*
X169160303Y-87611990D01*
X169220850Y-87618499D01*
X169220855Y-87618499D01*
X169220862Y-87618500D01*
X169220868Y-87618500D01*
X169255308Y-87618500D01*
X169323429Y-87638502D01*
X169369922Y-87692158D01*
X169380026Y-87762432D01*
X169350532Y-87827012D01*
X169329369Y-87846436D01*
X169188466Y-87948807D01*
X169188465Y-87948808D01*
X169031981Y-88112477D01*
X168907234Y-88301460D01*
X168907233Y-88301463D01*
X168818234Y-88509689D01*
X168787122Y-88645999D01*
X168787123Y-88646000D01*
X169988384Y-88646000D01*
X169960007Y-88690156D01*
X169919500Y-88828111D01*
X169919500Y-88971889D01*
X169960007Y-89109844D01*
X169988384Y-89154000D01*
X168784418Y-89154000D01*
X168788084Y-89181066D01*
X168858058Y-89396423D01*
X168965359Y-89595826D01*
X169106550Y-89772872D01*
X169277077Y-89921858D01*
X169471455Y-90037993D01*
X169471465Y-90037998D01*
X169509506Y-90052275D01*
X169566255Y-90094937D01*
X169590930Y-90161508D01*
X169575697Y-90230851D01*
X169525393Y-90280951D01*
X169519902Y-90283763D01*
X169371413Y-90355271D01*
X169371406Y-90355275D01*
X169188136Y-90488429D01*
X169188135Y-90488430D01*
X169031587Y-90652166D01*
X168906793Y-90841221D01*
X168906789Y-90841229D01*
X168817757Y-91049529D01*
X168817756Y-91049531D01*
X168767349Y-91270382D01*
X168767349Y-91270385D01*
X168760351Y-91426209D01*
X168757185Y-91496691D01*
X160880987Y-91496691D01*
X160964214Y-91397978D01*
X161083364Y-91194936D01*
X161166485Y-90974681D01*
X161211189Y-90743536D01*
X161214000Y-90690630D01*
X161214000Y-89975500D01*
X160387116Y-89975500D01*
X160415493Y-89931344D01*
X160456000Y-89793389D01*
X160456000Y-89649611D01*
X160415493Y-89511656D01*
X160387116Y-89467500D01*
X161213999Y-89467500D01*
X161213999Y-88752373D01*
X161211189Y-88699465D01*
X161211189Y-88699463D01*
X161166485Y-88468318D01*
X161083364Y-88248063D01*
X160964214Y-88045021D01*
X160812464Y-87865035D01*
X160632478Y-87713285D01*
X160429435Y-87594135D01*
X160429436Y-87594135D01*
X160243286Y-87523885D01*
X160186615Y-87481119D01*
X160162061Y-87414503D01*
X160177420Y-87345188D01*
X160227816Y-87295180D01*
X160287774Y-87280000D01*
X163754632Y-87280000D01*
X163754638Y-87280000D01*
X163754645Y-87279999D01*
X163754649Y-87279999D01*
X163815196Y-87273490D01*
X163815199Y-87273489D01*
X163815201Y-87273489D01*
X163952204Y-87222389D01*
X163956470Y-87219196D01*
X164069261Y-87134761D01*
X164156887Y-87017707D01*
X164156887Y-87017706D01*
X164156889Y-87017704D01*
X164207989Y-86880701D01*
X164212447Y-86839240D01*
X164214499Y-86820149D01*
X164214500Y-86820132D01*
X164214500Y-85090000D01*
X184589450Y-85090000D01*
X184606527Y-85252477D01*
X184607601Y-85262686D01*
X184661252Y-85427810D01*
X184661256Y-85427817D01*
X184748069Y-85578183D01*
X184748070Y-85578185D01*
X184864251Y-85707217D01*
X185004720Y-85809274D01*
X185004722Y-85809275D01*
X185004725Y-85809277D01*
X185163346Y-85879900D01*
X185333184Y-85916000D01*
X185506816Y-85916000D01*
X185676654Y-85879900D01*
X185835275Y-85809277D01*
X185975746Y-85707219D01*
X186091929Y-85578185D01*
X186178745Y-85427815D01*
X186232400Y-85262681D01*
X186250550Y-85090000D01*
X186237201Y-84963000D01*
X190621675Y-84963000D01*
X190640912Y-85133744D01*
X190697664Y-85295930D01*
X190697665Y-85295933D01*
X190789079Y-85441417D01*
X190789080Y-85441419D01*
X190910580Y-85562919D01*
X190910582Y-85562920D01*
X191056066Y-85654334D01*
X191056067Y-85654334D01*
X191056070Y-85654336D01*
X191218254Y-85711087D01*
X191218253Y-85711087D01*
X191235543Y-85713034D01*
X191389000Y-85730325D01*
X191559746Y-85711087D01*
X191721930Y-85654336D01*
X191867419Y-85562919D01*
X191988919Y-85441419D01*
X192080336Y-85295930D01*
X192137087Y-85133746D01*
X192142016Y-85090000D01*
X200972450Y-85090000D01*
X200989527Y-85252477D01*
X200990601Y-85262686D01*
X201044252Y-85427810D01*
X201044256Y-85427817D01*
X201131069Y-85578183D01*
X201131070Y-85578185D01*
X201247251Y-85707217D01*
X201387720Y-85809274D01*
X201387722Y-85809275D01*
X201387725Y-85809277D01*
X201546346Y-85879900D01*
X201716184Y-85916000D01*
X201889816Y-85916000D01*
X202059654Y-85879900D01*
X202218275Y-85809277D01*
X202358746Y-85707219D01*
X202474929Y-85578185D01*
X202561745Y-85427815D01*
X202615400Y-85262681D01*
X202633550Y-85090000D01*
X202615400Y-84917319D01*
X202598606Y-84865632D01*
X202561747Y-84752189D01*
X202561743Y-84752182D01*
X202474930Y-84601816D01*
X202474929Y-84601814D01*
X202358748Y-84472782D01*
X202218279Y-84370725D01*
X202201110Y-84363081D01*
X202059654Y-84300100D01*
X201889816Y-84264000D01*
X201716184Y-84264000D01*
X201546345Y-84300100D01*
X201387720Y-84370725D01*
X201247251Y-84472782D01*
X201131070Y-84601814D01*
X201131069Y-84601816D01*
X201044256Y-84752182D01*
X201044252Y-84752189D01*
X200990601Y-84917313D01*
X200990600Y-84917317D01*
X200990600Y-84917319D01*
X200972450Y-85090000D01*
X192142016Y-85090000D01*
X192156325Y-84963000D01*
X192137087Y-84792254D01*
X192080336Y-84630070D01*
X192080334Y-84630067D01*
X192080334Y-84630066D01*
X191988920Y-84484582D01*
X191988919Y-84484580D01*
X191867419Y-84363080D01*
X191867417Y-84363079D01*
X191721933Y-84271665D01*
X191721930Y-84271664D01*
X191700028Y-84264000D01*
X191559746Y-84214913D01*
X191559744Y-84214912D01*
X191559746Y-84214912D01*
X191389000Y-84195675D01*
X191218255Y-84214912D01*
X191056069Y-84271664D01*
X191056066Y-84271665D01*
X190910582Y-84363079D01*
X190910580Y-84363080D01*
X190789080Y-84484580D01*
X190789079Y-84484582D01*
X190697665Y-84630066D01*
X190697664Y-84630069D01*
X190640912Y-84792255D01*
X190621675Y-84963000D01*
X186237201Y-84963000D01*
X186232400Y-84917319D01*
X186215606Y-84865632D01*
X186178747Y-84752189D01*
X186178743Y-84752182D01*
X186091930Y-84601816D01*
X186091929Y-84601814D01*
X185975748Y-84472782D01*
X185835279Y-84370725D01*
X185818110Y-84363081D01*
X185676654Y-84300100D01*
X185506816Y-84264000D01*
X185333184Y-84264000D01*
X185163345Y-84300100D01*
X185004720Y-84370725D01*
X184864251Y-84472782D01*
X184748070Y-84601814D01*
X184748069Y-84601816D01*
X184661256Y-84752182D01*
X184661252Y-84752189D01*
X184607601Y-84917313D01*
X184607600Y-84917317D01*
X184607600Y-84917319D01*
X184589450Y-85090000D01*
X164214500Y-85090000D01*
X164214500Y-83222867D01*
X164214499Y-83222850D01*
X164207990Y-83162303D01*
X164207988Y-83162295D01*
X164166815Y-83051908D01*
X164156889Y-83025296D01*
X164156888Y-83025294D01*
X164156887Y-83025292D01*
X164069261Y-82908238D01*
X163952207Y-82820612D01*
X163952202Y-82820610D01*
X163815204Y-82769511D01*
X163815196Y-82769509D01*
X163754649Y-82763000D01*
X163754638Y-82763000D01*
X160157362Y-82763000D01*
X160157350Y-82763000D01*
X160096803Y-82769509D01*
X160096795Y-82769511D01*
X159959797Y-82820610D01*
X159959792Y-82820612D01*
X159842738Y-82908238D01*
X159755112Y-83025292D01*
X159755110Y-83025297D01*
X159704011Y-83162295D01*
X159704009Y-83162303D01*
X159697500Y-83222850D01*
X159697500Y-86820149D01*
X159704009Y-86880696D01*
X159704011Y-86880704D01*
X159755110Y-87017702D01*
X159755112Y-87017707D01*
X159842738Y-87134761D01*
X159959792Y-87222387D01*
X159967701Y-87226705D01*
X159965929Y-87229950D01*
X160008721Y-87261969D01*
X160033547Y-87328483D01*
X160018471Y-87397861D01*
X159968280Y-87448074D01*
X159907870Y-87463500D01*
X159210000Y-87463500D01*
X159210000Y-89221500D01*
X158702000Y-89221500D01*
X158702000Y-87463500D01*
X157986873Y-87463501D01*
X157933965Y-87466310D01*
X157933963Y-87466310D01*
X157702818Y-87511014D01*
X157482563Y-87594135D01*
X157279521Y-87713285D01*
X157099535Y-87865035D01*
X156947785Y-88045021D01*
X156828635Y-88248063D01*
X156745514Y-88468318D01*
X156700810Y-88699463D01*
X156698000Y-88752370D01*
X156698000Y-89467500D01*
X152400000Y-89467500D01*
X152400000Y-86086113D01*
X153948000Y-86086113D01*
X153958467Y-86219093D01*
X154013794Y-86438667D01*
X154013797Y-86438676D01*
X154107441Y-86644840D01*
X154107444Y-86644846D01*
X154236394Y-86830973D01*
X154236408Y-86830990D01*
X154396509Y-86991091D01*
X154396526Y-86991105D01*
X154582653Y-87120055D01*
X154582659Y-87120058D01*
X154788823Y-87213702D01*
X154788832Y-87213705D01*
X155008406Y-87269032D01*
X155141387Y-87279500D01*
X155702000Y-87279500D01*
X155702000Y-86452615D01*
X155746156Y-86480993D01*
X155884111Y-86521500D01*
X156027889Y-86521500D01*
X156165844Y-86480993D01*
X156210000Y-86452615D01*
X156210000Y-87279500D01*
X156770613Y-87279500D01*
X156903593Y-87269032D01*
X157123167Y-87213705D01*
X157123176Y-87213702D01*
X157329340Y-87120058D01*
X157329346Y-87120055D01*
X157515473Y-86991105D01*
X157515490Y-86991091D01*
X157675591Y-86830990D01*
X157675605Y-86830973D01*
X157804555Y-86644846D01*
X157804558Y-86644840D01*
X157898202Y-86438676D01*
X157898205Y-86438667D01*
X157953532Y-86219093D01*
X157964000Y-86086113D01*
X157964000Y-85275500D01*
X156456000Y-85275500D01*
X156456000Y-84767500D01*
X157964000Y-84767500D01*
X157964000Y-83956887D01*
X157953532Y-83823906D01*
X157898205Y-83604332D01*
X157898202Y-83604323D01*
X157804558Y-83398159D01*
X157804555Y-83398153D01*
X157675605Y-83212026D01*
X157675591Y-83212009D01*
X157515490Y-83051908D01*
X157515473Y-83051894D01*
X157329346Y-82922944D01*
X157329340Y-82922941D01*
X157123176Y-82829297D01*
X157123167Y-82829294D01*
X156903593Y-82773967D01*
X156770613Y-82763500D01*
X156210000Y-82763500D01*
X156210000Y-83590384D01*
X156165844Y-83562007D01*
X156027889Y-83521500D01*
X155884111Y-83521500D01*
X155746156Y-83562007D01*
X155702000Y-83590384D01*
X155702000Y-82763500D01*
X155141387Y-82763500D01*
X155008406Y-82773967D01*
X154788832Y-82829294D01*
X154788823Y-82829297D01*
X154582659Y-82922941D01*
X154582653Y-82922944D01*
X154396526Y-83051894D01*
X154396509Y-83051908D01*
X154236408Y-83212009D01*
X154236394Y-83212026D01*
X154107444Y-83398153D01*
X154107441Y-83398159D01*
X154013797Y-83604323D01*
X154013794Y-83604332D01*
X153958467Y-83823906D01*
X153948000Y-83956887D01*
X153948000Y-84767500D01*
X155456000Y-84767500D01*
X155456000Y-85275500D01*
X153948000Y-85275500D01*
X153948000Y-86086113D01*
X152400000Y-86086113D01*
X152400000Y-80010000D01*
X201353450Y-80010000D01*
X201371601Y-80182686D01*
X201425252Y-80347810D01*
X201425256Y-80347817D01*
X201512069Y-80498183D01*
X201512070Y-80498185D01*
X201628251Y-80627217D01*
X201768720Y-80729274D01*
X201768722Y-80729275D01*
X201768725Y-80729277D01*
X201927346Y-80799900D01*
X202097184Y-80836000D01*
X202270816Y-80836000D01*
X202440654Y-80799900D01*
X202599275Y-80729277D01*
X202739746Y-80627219D01*
X202855929Y-80498185D01*
X202942745Y-80347815D01*
X202969978Y-80264000D01*
X208213455Y-80264000D01*
X208261176Y-80452449D01*
X208261179Y-80452456D01*
X208351580Y-80658548D01*
X208474674Y-80846958D01*
X208627097Y-81012534D01*
X208804698Y-81150767D01*
X208804699Y-81150768D01*
X209002628Y-81257882D01*
X209002630Y-81257883D01*
X209215483Y-81330955D01*
X209215492Y-81330957D01*
X209296000Y-81344391D01*
X209296000Y-80443674D01*
X209407685Y-80494680D01*
X209514237Y-80510000D01*
X209585763Y-80510000D01*
X209692315Y-80494680D01*
X209804000Y-80443674D01*
X209804000Y-81344390D01*
X209884507Y-81330957D01*
X209884516Y-81330955D01*
X210097369Y-81257883D01*
X210097371Y-81257882D01*
X210295300Y-81150768D01*
X210295301Y-81150767D01*
X210472905Y-81012532D01*
X210534047Y-80946113D01*
X210594899Y-80909541D01*
X210665863Y-80911674D01*
X210724409Y-80951835D01*
X210744804Y-80987415D01*
X210789111Y-81106204D01*
X210789112Y-81106207D01*
X210876738Y-81223261D01*
X210993792Y-81310887D01*
X210993794Y-81310888D01*
X210993796Y-81310889D01*
X211047600Y-81330957D01*
X211130795Y-81361988D01*
X211130803Y-81361990D01*
X211191350Y-81368499D01*
X211191355Y-81368499D01*
X211191362Y-81368500D01*
X211191368Y-81368500D01*
X212988632Y-81368500D01*
X212988638Y-81368500D01*
X212988645Y-81368499D01*
X212988649Y-81368499D01*
X213049196Y-81361990D01*
X213049199Y-81361989D01*
X213049201Y-81361989D01*
X213186204Y-81310889D01*
X213214109Y-81290000D01*
X213303261Y-81223261D01*
X213390887Y-81106207D01*
X213390887Y-81106206D01*
X213390889Y-81106204D01*
X213441989Y-80969201D01*
X213442752Y-80962110D01*
X213448499Y-80908649D01*
X213448500Y-80908632D01*
X213448500Y-79111367D01*
X213448499Y-79111350D01*
X213441990Y-79050803D01*
X213441988Y-79050795D01*
X213390889Y-78913797D01*
X213390887Y-78913792D01*
X213303261Y-78796738D01*
X213186207Y-78709112D01*
X213186202Y-78709110D01*
X213049204Y-78658011D01*
X213049196Y-78658009D01*
X212988649Y-78651500D01*
X212988638Y-78651500D01*
X211191362Y-78651500D01*
X211191350Y-78651500D01*
X211130803Y-78658009D01*
X211130795Y-78658011D01*
X210993797Y-78709110D01*
X210993792Y-78709112D01*
X210876738Y-78796738D01*
X210789112Y-78913792D01*
X210789111Y-78913795D01*
X210744804Y-79032584D01*
X210702257Y-79089419D01*
X210635736Y-79114229D01*
X210566362Y-79099137D01*
X210534047Y-79073887D01*
X210472902Y-79007465D01*
X210295301Y-78869232D01*
X210295300Y-78869231D01*
X210097371Y-78762117D01*
X210097369Y-78762116D01*
X209884512Y-78689043D01*
X209884501Y-78689040D01*
X209804000Y-78675606D01*
X209804000Y-79576325D01*
X209692315Y-79525320D01*
X209585763Y-79510000D01*
X209514237Y-79510000D01*
X209407685Y-79525320D01*
X209296000Y-79576325D01*
X209296000Y-78675607D01*
X209295999Y-78675606D01*
X209215498Y-78689040D01*
X209215487Y-78689043D01*
X209002630Y-78762116D01*
X209002628Y-78762117D01*
X208804699Y-78869231D01*
X208804698Y-78869232D01*
X208627097Y-79007465D01*
X208474674Y-79173041D01*
X208351580Y-79361451D01*
X208261179Y-79567543D01*
X208261176Y-79567550D01*
X208213455Y-79755999D01*
X208213456Y-79756000D01*
X209118884Y-79756000D01*
X209090507Y-79800156D01*
X209050000Y-79938111D01*
X209050000Y-80081889D01*
X209090507Y-80219844D01*
X209118884Y-80264000D01*
X208213455Y-80264000D01*
X202969978Y-80264000D01*
X202996400Y-80182681D01*
X203014550Y-80010000D01*
X202996400Y-79837319D01*
X202979606Y-79785632D01*
X202942747Y-79672189D01*
X202942743Y-79672182D01*
X202934941Y-79658669D01*
X202892437Y-79585048D01*
X202855930Y-79521816D01*
X202855929Y-79521814D01*
X202739748Y-79392782D01*
X202599279Y-79290725D01*
X202594542Y-79288616D01*
X202440654Y-79220100D01*
X202270816Y-79184000D01*
X202097184Y-79184000D01*
X201927345Y-79220100D01*
X201768720Y-79290725D01*
X201628251Y-79392782D01*
X201512070Y-79521814D01*
X201512069Y-79521816D01*
X201425256Y-79672182D01*
X201425252Y-79672189D01*
X201371601Y-79837313D01*
X201371600Y-79837317D01*
X201371600Y-79837319D01*
X201370832Y-79844625D01*
X201353450Y-80010000D01*
X152400000Y-80010000D01*
X152400000Y-78994000D01*
X182112600Y-78994000D01*
X182131418Y-79173041D01*
X182132146Y-79179961D01*
X182189922Y-79357779D01*
X182189928Y-79357791D01*
X182283410Y-79519709D01*
X182283414Y-79519715D01*
X182408527Y-79658667D01*
X182559795Y-79768570D01*
X182559797Y-79768571D01*
X182559800Y-79768573D01*
X182730615Y-79844625D01*
X182874634Y-79875236D01*
X182913509Y-79883500D01*
X182913510Y-79883500D01*
X183100491Y-79883500D01*
X183132551Y-79876685D01*
X183283385Y-79844625D01*
X183454200Y-79768573D01*
X183605470Y-79658669D01*
X183730585Y-79519715D01*
X183796758Y-79405098D01*
X183848141Y-79356105D01*
X183879680Y-79344851D01*
X183918385Y-79336625D01*
X184089200Y-79260573D01*
X184240470Y-79150669D01*
X184365585Y-79011715D01*
X184365589Y-79011709D01*
X184447847Y-78869232D01*
X184459075Y-78849785D01*
X184516855Y-78671956D01*
X184536400Y-78486000D01*
X184516855Y-78300044D01*
X184504357Y-78261580D01*
X184459077Y-78122220D01*
X184459071Y-78122208D01*
X184365589Y-77960290D01*
X184365585Y-77960284D01*
X184240472Y-77821332D01*
X184089204Y-77711429D01*
X184071031Y-77703338D01*
X183918385Y-77635375D01*
X183735491Y-77596500D01*
X183735490Y-77596500D01*
X183548510Y-77596500D01*
X183548509Y-77596500D01*
X183365614Y-77635375D01*
X183194795Y-77711429D01*
X183043527Y-77821332D01*
X182918414Y-77960284D01*
X182918413Y-77960286D01*
X182852241Y-78074901D01*
X182800859Y-78123894D01*
X182769320Y-78135147D01*
X182730620Y-78143373D01*
X182730615Y-78143374D01*
X182730615Y-78143375D01*
X182653069Y-78177901D01*
X182559795Y-78219429D01*
X182408527Y-78329332D01*
X182283414Y-78468284D01*
X182283410Y-78468290D01*
X182189928Y-78630208D01*
X182189922Y-78630220D01*
X182132146Y-78808038D01*
X182132145Y-78808042D01*
X182132145Y-78808044D01*
X182112600Y-78994000D01*
X152400000Y-78994000D01*
X152400000Y-74222893D01*
X152420002Y-74154772D01*
X152473658Y-74108279D01*
X152543932Y-74098175D01*
X152608512Y-74127669D01*
X152622931Y-74142393D01*
X152738197Y-74281203D01*
X152739981Y-74283351D01*
X153046648Y-74590018D01*
X153046653Y-74590022D01*
X153046655Y-74590024D01*
X153380323Y-74867098D01*
X153590851Y-75011313D01*
X153738139Y-75112207D01*
X154117021Y-75323243D01*
X154117025Y-75323244D01*
X154117031Y-75323248D01*
X154513786Y-75498433D01*
X154925013Y-75636262D01*
X155347202Y-75735560D01*
X155776753Y-75795480D01*
X156026529Y-75807027D01*
X156101629Y-75810500D01*
X156101634Y-75810500D01*
X156318371Y-75810500D01*
X156390152Y-75807181D01*
X156643247Y-75795480D01*
X157072798Y-75735560D01*
X157494987Y-75636262D01*
X157906214Y-75498433D01*
X158302969Y-75323248D01*
X158606154Y-75154375D01*
X158681860Y-75112207D01*
X158681860Y-75112206D01*
X158681867Y-75112203D01*
X159039677Y-74867098D01*
X159373345Y-74590024D01*
X159680024Y-74283345D01*
X159957098Y-73949677D01*
X160202203Y-73591867D01*
X160210940Y-73576182D01*
X160413243Y-73212978D01*
X160413243Y-73212977D01*
X160413248Y-73212969D01*
X160552321Y-72898000D01*
X185986450Y-72898000D01*
X185998678Y-73014342D01*
X186004601Y-73070686D01*
X186058252Y-73235810D01*
X186058256Y-73235817D01*
X186145069Y-73386183D01*
X186145070Y-73386185D01*
X186261251Y-73515217D01*
X186401720Y-73617274D01*
X186401722Y-73617275D01*
X186401725Y-73617277D01*
X186560346Y-73687900D01*
X186730184Y-73724000D01*
X186903816Y-73724000D01*
X187073654Y-73687900D01*
X187083089Y-73683698D01*
X187153454Y-73674261D01*
X187217753Y-73704364D01*
X187227973Y-73714487D01*
X187277254Y-73769219D01*
X187417720Y-73871274D01*
X187417722Y-73871275D01*
X187417725Y-73871277D01*
X187576346Y-73941900D01*
X187746184Y-73978000D01*
X187919816Y-73978000D01*
X188089654Y-73941900D01*
X188248275Y-73871277D01*
X188388746Y-73769219D01*
X188413832Y-73741356D01*
X188474277Y-73704118D01*
X188533665Y-73702422D01*
X188635179Y-73724000D01*
X188635184Y-73724000D01*
X188660483Y-73724000D01*
X188728604Y-73744002D01*
X188775097Y-73797658D01*
X188785792Y-73863169D01*
X188780450Y-73914000D01*
X188792784Y-74031350D01*
X188798601Y-74086686D01*
X188852252Y-74251810D01*
X188852256Y-74251817D01*
X188939069Y-74402183D01*
X188939070Y-74402185D01*
X189055251Y-74531217D01*
X189201067Y-74637159D01*
X189199385Y-74639473D01*
X189239717Y-74681797D01*
X189253133Y-74751514D01*
X189226727Y-74817417D01*
X189200090Y-74840497D01*
X189201067Y-74841841D01*
X189055251Y-74947782D01*
X188939070Y-75076814D01*
X188939069Y-75076816D01*
X188852256Y-75227182D01*
X188852252Y-75227189D01*
X188798601Y-75392313D01*
X188798600Y-75392317D01*
X188798600Y-75392319D01*
X188780450Y-75565000D01*
X188798377Y-75735560D01*
X188798601Y-75737686D01*
X188852252Y-75902810D01*
X188852256Y-75902817D01*
X188939069Y-76053183D01*
X188942949Y-76058523D01*
X188941663Y-76059456D01*
X188968893Y-76116204D01*
X188960125Y-76186657D01*
X188942469Y-76214128D01*
X188942949Y-76214477D01*
X188939069Y-76219816D01*
X188852256Y-76370182D01*
X188852252Y-76370189D01*
X188798601Y-76535313D01*
X188798600Y-76535317D01*
X188798600Y-76535319D01*
X188780450Y-76708000D01*
X188790590Y-76804477D01*
X188798601Y-76880686D01*
X188852252Y-77045810D01*
X188852256Y-77045817D01*
X188939069Y-77196183D01*
X188939070Y-77196185D01*
X189055250Y-77325216D01*
X189055253Y-77325218D01*
X189055254Y-77325219D01*
X189127508Y-77377714D01*
X189170862Y-77433935D01*
X189176938Y-77504672D01*
X189162567Y-77542649D01*
X189106254Y-77640186D01*
X189106252Y-77640189D01*
X189052601Y-77805313D01*
X189052600Y-77805317D01*
X189052600Y-77805319D01*
X189034450Y-77978000D01*
X189052338Y-78148189D01*
X189052601Y-78150686D01*
X189106252Y-78315810D01*
X189106254Y-78315814D01*
X189131477Y-78359501D01*
X189148214Y-78428496D01*
X189131477Y-78485499D01*
X189106254Y-78529185D01*
X189106252Y-78529189D01*
X189052601Y-78694313D01*
X189052600Y-78694317D01*
X189052600Y-78694319D01*
X189034450Y-78867000D01*
X189051854Y-79032584D01*
X189052601Y-79039686D01*
X189106252Y-79204810D01*
X189106256Y-79204817D01*
X189193069Y-79355183D01*
X189193070Y-79355185D01*
X189309251Y-79484217D01*
X189449720Y-79586274D01*
X189449722Y-79586275D01*
X189449725Y-79586277D01*
X189608346Y-79656900D01*
X189778184Y-79693000D01*
X189951816Y-79693000D01*
X190121654Y-79656900D01*
X190280275Y-79586277D01*
X190420746Y-79484219D01*
X190422578Y-79482185D01*
X190536929Y-79355185D01*
X190536930Y-79355183D01*
X190545743Y-79339919D01*
X190623745Y-79204815D01*
X190626237Y-79197147D01*
X190673786Y-79050803D01*
X190677400Y-79039681D01*
X190682201Y-78994000D01*
X192336450Y-78994000D01*
X192348784Y-79111350D01*
X192354601Y-79166686D01*
X192408252Y-79331810D01*
X192408256Y-79331817D01*
X192495069Y-79482183D01*
X192495070Y-79482185D01*
X192611251Y-79611217D01*
X192751720Y-79713274D01*
X192751722Y-79713275D01*
X192751725Y-79713277D01*
X192910346Y-79783900D01*
X193080184Y-79820000D01*
X193253816Y-79820000D01*
X193423654Y-79783900D01*
X193582275Y-79713277D01*
X193722746Y-79611219D01*
X193838929Y-79482185D01*
X193915902Y-79348862D01*
X193967284Y-79299870D01*
X193998821Y-79288617D01*
X194058654Y-79275900D01*
X194217275Y-79205277D01*
X194357746Y-79103219D01*
X194360899Y-79099718D01*
X194473929Y-78974185D01*
X194473930Y-78974183D01*
X194508794Y-78913797D01*
X194560745Y-78823815D01*
X194563568Y-78815129D01*
X194598015Y-78709110D01*
X194614400Y-78658681D01*
X194632550Y-78486000D01*
X194614400Y-78313319D01*
X194601860Y-78274725D01*
X194560747Y-78148189D01*
X194560743Y-78148182D01*
X194556065Y-78140080D01*
X194503287Y-78048664D01*
X194473930Y-77997816D01*
X194473929Y-77997814D01*
X194357748Y-77868782D01*
X194217279Y-77766725D01*
X194058654Y-77696100D01*
X193888816Y-77660000D01*
X193715184Y-77660000D01*
X193545345Y-77696100D01*
X193386720Y-77766725D01*
X193246251Y-77868782D01*
X193130070Y-77997814D01*
X193130068Y-77997817D01*
X193053097Y-78131135D01*
X193001714Y-78180129D01*
X192970176Y-78191381D01*
X192910352Y-78204097D01*
X192751720Y-78274725D01*
X192611251Y-78376782D01*
X192495070Y-78505814D01*
X192495069Y-78505816D01*
X192408256Y-78656182D01*
X192408252Y-78656189D01*
X192354601Y-78821313D01*
X192354600Y-78821317D01*
X192354600Y-78821319D01*
X192336450Y-78994000D01*
X190682201Y-78994000D01*
X190695550Y-78867000D01*
X190677400Y-78694319D01*
X190671320Y-78675606D01*
X190623747Y-78529189D01*
X190623746Y-78529188D01*
X190623745Y-78529187D01*
X190623745Y-78529185D01*
X190598522Y-78485498D01*
X190581785Y-78416506D01*
X190598522Y-78359502D01*
X190623745Y-78315815D01*
X190626522Y-78307270D01*
X190650572Y-78233248D01*
X190677400Y-78150681D01*
X190695550Y-77978000D01*
X190677400Y-77805319D01*
X190664860Y-77766725D01*
X190623747Y-77640189D01*
X190623743Y-77640182D01*
X190536930Y-77489816D01*
X190536929Y-77489814D01*
X190420748Y-77360782D01*
X190420749Y-77360782D01*
X190348491Y-77308284D01*
X190305137Y-77252061D01*
X190299062Y-77181325D01*
X190313429Y-77143356D01*
X190369745Y-77045815D01*
X190376509Y-77024999D01*
X190417141Y-76899943D01*
X190423400Y-76880681D01*
X190441550Y-76708000D01*
X190423400Y-76535319D01*
X190419789Y-76524208D01*
X190369747Y-76370189D01*
X190369744Y-76370183D01*
X190322584Y-76288500D01*
X190282929Y-76219815D01*
X190282925Y-76219810D01*
X190279046Y-76214471D01*
X190280335Y-76213534D01*
X190253109Y-76156812D01*
X190261868Y-76086358D01*
X190279527Y-76058878D01*
X190279046Y-76058529D01*
X190282921Y-76053193D01*
X190282929Y-76053185D01*
X190369745Y-75902815D01*
X190374168Y-75889204D01*
X190404620Y-75795479D01*
X190423400Y-75737681D01*
X190441550Y-75565000D01*
X190423400Y-75392319D01*
X190400956Y-75323243D01*
X190369747Y-75227189D01*
X190369743Y-75227182D01*
X190282930Y-75076816D01*
X190282929Y-75076814D01*
X190166748Y-74947782D01*
X190020933Y-74841841D01*
X190022622Y-74839515D01*
X189982317Y-74797272D01*
X189968859Y-74727563D01*
X189995224Y-74661644D01*
X190021917Y-74638514D01*
X190020933Y-74637159D01*
X190117799Y-74566781D01*
X190166746Y-74531219D01*
X190282929Y-74402185D01*
X190369745Y-74251815D01*
X190379143Y-74222893D01*
X190401276Y-74154772D01*
X190423400Y-74086681D01*
X190441550Y-73914000D01*
X190423400Y-73741319D01*
X190405694Y-73686825D01*
X190369747Y-73576189D01*
X190369743Y-73576182D01*
X190282930Y-73425816D01*
X190282929Y-73425814D01*
X190166748Y-73296782D01*
X190026279Y-73194725D01*
X189867654Y-73124100D01*
X189697816Y-73088000D01*
X189672517Y-73088000D01*
X189604396Y-73067998D01*
X189557903Y-73014342D01*
X189547206Y-72948842D01*
X189547311Y-72947842D01*
X189567811Y-72898000D01*
X196527450Y-72898000D01*
X196539678Y-73014342D01*
X196545601Y-73070686D01*
X196599252Y-73235810D01*
X196599256Y-73235817D01*
X196686069Y-73386183D01*
X196686070Y-73386185D01*
X196802251Y-73515217D01*
X196942720Y-73617274D01*
X196942722Y-73617275D01*
X196942725Y-73617277D01*
X197101346Y-73687900D01*
X197271184Y-73724000D01*
X197444816Y-73724000D01*
X197614654Y-73687900D01*
X197751250Y-73627082D01*
X197821617Y-73617648D01*
X197853748Y-73627082D01*
X197858307Y-73629112D01*
X197990343Y-73687899D01*
X197990344Y-73687899D01*
X197990346Y-73687900D01*
X198160184Y-73724000D01*
X198333816Y-73724000D01*
X198503654Y-73687900D01*
X198662275Y-73617277D01*
X198680940Y-73603715D01*
X198747805Y-73579858D01*
X198816956Y-73595937D01*
X198829048Y-73603707D01*
X198847725Y-73617277D01*
X198992322Y-73681656D01*
X199003790Y-73686762D01*
X199057886Y-73732742D01*
X199078535Y-73800670D01*
X199077851Y-73815039D01*
X199072792Y-73863172D01*
X199067450Y-73914000D01*
X199079784Y-74031350D01*
X199085601Y-74086686D01*
X199139252Y-74251810D01*
X199139256Y-74251817D01*
X199226068Y-74402181D01*
X199226069Y-74402183D01*
X199226071Y-74402185D01*
X199248876Y-74427513D01*
X199282350Y-74464690D01*
X199313067Y-74528698D01*
X199304302Y-74599152D01*
X199282350Y-74633310D01*
X199226068Y-74695818D01*
X199139256Y-74846182D01*
X199139252Y-74846189D01*
X199085601Y-75011313D01*
X199085600Y-75011317D01*
X199085600Y-75011319D01*
X199067450Y-75184000D01*
X199085418Y-75354952D01*
X199085601Y-75356686D01*
X199139252Y-75521810D01*
X199139256Y-75521817D01*
X199226068Y-75672181D01*
X199226069Y-75672183D01*
X199226071Y-75672185D01*
X199248876Y-75697513D01*
X199282350Y-75734690D01*
X199313067Y-75798698D01*
X199304302Y-75869152D01*
X199282350Y-75903310D01*
X199226068Y-75965818D01*
X199139256Y-76116182D01*
X199139252Y-76116189D01*
X199085601Y-76281313D01*
X199085600Y-76281317D01*
X199085600Y-76281319D01*
X199076260Y-76370182D01*
X199067450Y-76454000D01*
X199085601Y-76626686D01*
X199139252Y-76791810D01*
X199139254Y-76791814D01*
X199201138Y-76899001D01*
X199217875Y-76967996D01*
X199201138Y-77024999D01*
X199139254Y-77132185D01*
X199139252Y-77132189D01*
X199085601Y-77297313D01*
X199085600Y-77297317D01*
X199085600Y-77297319D01*
X199067450Y-77470000D01*
X199085338Y-77640189D01*
X199085601Y-77642686D01*
X199139252Y-77807810D01*
X199139256Y-77807817D01*
X199226069Y-77958183D01*
X199226070Y-77958185D01*
X199342251Y-78087217D01*
X199482720Y-78189274D01*
X199482722Y-78189275D01*
X199482725Y-78189277D01*
X199641346Y-78259900D01*
X199811184Y-78296000D01*
X199984816Y-78296000D01*
X200154654Y-78259900D01*
X200313275Y-78189277D01*
X200453746Y-78087219D01*
X200569929Y-77958185D01*
X200656745Y-77807815D01*
X200710400Y-77642681D01*
X200728550Y-77470000D01*
X200710400Y-77297319D01*
X200705697Y-77282844D01*
X200656747Y-77132189D01*
X200656746Y-77132187D01*
X200656745Y-77132185D01*
X200594859Y-77024996D01*
X200578123Y-76956005D01*
X200594859Y-76899003D01*
X200656745Y-76791815D01*
X200671570Y-76746190D01*
X200710398Y-76626686D01*
X200710400Y-76626681D01*
X200728550Y-76454000D01*
X200710400Y-76281319D01*
X200700693Y-76251444D01*
X200656747Y-76116189D01*
X200656743Y-76116182D01*
X200640992Y-76088901D01*
X200569929Y-75965815D01*
X200513647Y-75903308D01*
X200482932Y-75839304D01*
X200491695Y-75768850D01*
X200513646Y-75734692D01*
X200569929Y-75672185D01*
X200656745Y-75521815D01*
X200664342Y-75498436D01*
X200691555Y-75414680D01*
X200710400Y-75356681D01*
X200728550Y-75184000D01*
X200710400Y-75011319D01*
X200689756Y-74947782D01*
X200683978Y-74930000D01*
X201607450Y-74930000D01*
X201622881Y-75076816D01*
X201625601Y-75102686D01*
X201679252Y-75267810D01*
X201679256Y-75267817D01*
X201766069Y-75418183D01*
X201766070Y-75418185D01*
X201882251Y-75547217D01*
X202022720Y-75649274D01*
X202022722Y-75649275D01*
X202022725Y-75649277D01*
X202181346Y-75719900D01*
X202351184Y-75756000D01*
X202524816Y-75756000D01*
X202694654Y-75719900D01*
X202853275Y-75649277D01*
X202993746Y-75547219D01*
X203016625Y-75521810D01*
X203109929Y-75418185D01*
X203109930Y-75418183D01*
X203196745Y-75267815D01*
X203209947Y-75227185D01*
X203238325Y-75139844D01*
X203250400Y-75102681D01*
X203268550Y-74930000D01*
X208191844Y-74930000D01*
X208209232Y-75139844D01*
X208210437Y-75154375D01*
X208265702Y-75372612D01*
X208265703Y-75372613D01*
X208265704Y-75372616D01*
X208356140Y-75578791D01*
X208356141Y-75578793D01*
X208479275Y-75767265D01*
X208479279Y-75767270D01*
X208631762Y-75932908D01*
X208674041Y-75965815D01*
X208809424Y-76071189D01*
X209007426Y-76178342D01*
X209007427Y-76178342D01*
X209007428Y-76178343D01*
X209109937Y-76213534D01*
X209220365Y-76251444D01*
X209442431Y-76288500D01*
X209442435Y-76288500D01*
X209667565Y-76288500D01*
X209667569Y-76288500D01*
X209889635Y-76251444D01*
X210102574Y-76178342D01*
X210300576Y-76071189D01*
X210478240Y-75932906D01*
X210539245Y-75866637D01*
X210600096Y-75830067D01*
X210671061Y-75832200D01*
X210729606Y-75872362D01*
X210750000Y-75907941D01*
X210794111Y-76026204D01*
X210794112Y-76026207D01*
X210881738Y-76143261D01*
X210998792Y-76230887D01*
X210998794Y-76230888D01*
X210998796Y-76230889D01*
X211053900Y-76251442D01*
X211135795Y-76281988D01*
X211135803Y-76281990D01*
X211196350Y-76288499D01*
X211196355Y-76288499D01*
X211196362Y-76288500D01*
X211196368Y-76288500D01*
X212993632Y-76288500D01*
X212993638Y-76288500D01*
X212993645Y-76288499D01*
X212993649Y-76288499D01*
X213054196Y-76281990D01*
X213054199Y-76281989D01*
X213054201Y-76281989D01*
X213055998Y-76281319D01*
X213073355Y-76274845D01*
X213191204Y-76230889D01*
X213244224Y-76191199D01*
X213308261Y-76143261D01*
X213395887Y-76026207D01*
X213395887Y-76026206D01*
X213395889Y-76026204D01*
X213446989Y-75889201D01*
X213448800Y-75872362D01*
X213453499Y-75828649D01*
X213453500Y-75828632D01*
X213453500Y-74031367D01*
X213453499Y-74031350D01*
X213446990Y-73970803D01*
X213446988Y-73970795D01*
X213395889Y-73833797D01*
X213395887Y-73833792D01*
X213308261Y-73716738D01*
X213191207Y-73629112D01*
X213191202Y-73629110D01*
X213054204Y-73578011D01*
X213054196Y-73578009D01*
X212993649Y-73571500D01*
X212993638Y-73571500D01*
X211196362Y-73571500D01*
X211196350Y-73571500D01*
X211135803Y-73578009D01*
X211135795Y-73578011D01*
X210998797Y-73629110D01*
X210998792Y-73629112D01*
X210881738Y-73716738D01*
X210794112Y-73833792D01*
X210794111Y-73833795D01*
X210750000Y-73952058D01*
X210707453Y-74008893D01*
X210640932Y-74033703D01*
X210571558Y-74018611D01*
X210539246Y-73993363D01*
X210478240Y-73927094D01*
X210478239Y-73927093D01*
X210478237Y-73927091D01*
X210358372Y-73833796D01*
X210300576Y-73788811D01*
X210102574Y-73681658D01*
X210102572Y-73681657D01*
X210102571Y-73681656D01*
X209889639Y-73608557D01*
X209889630Y-73608555D01*
X209845476Y-73601187D01*
X209667569Y-73571500D01*
X209442431Y-73571500D01*
X209297971Y-73595606D01*
X209220369Y-73608555D01*
X209220360Y-73608557D01*
X209007428Y-73681656D01*
X209007426Y-73681658D01*
X208809426Y-73788810D01*
X208809424Y-73788811D01*
X208631762Y-73927091D01*
X208479279Y-74092729D01*
X208479275Y-74092734D01*
X208356144Y-74281202D01*
X208356142Y-74281203D01*
X208265703Y-74487386D01*
X208265702Y-74487387D01*
X208210437Y-74705624D01*
X208210436Y-74705630D01*
X208210436Y-74705632D01*
X208191844Y-74930000D01*
X203268550Y-74930000D01*
X203250400Y-74757319D01*
X203233606Y-74705632D01*
X203196747Y-74592189D01*
X203196743Y-74592182D01*
X203109930Y-74441816D01*
X203109929Y-74441814D01*
X202993748Y-74312782D01*
X202853279Y-74210725D01*
X202694654Y-74140100D01*
X202524816Y-74104000D01*
X202351184Y-74104000D01*
X202181345Y-74140100D01*
X202022720Y-74210725D01*
X201882251Y-74312782D01*
X201766070Y-74441814D01*
X201766069Y-74441816D01*
X201679256Y-74592182D01*
X201679252Y-74592189D01*
X201625601Y-74757313D01*
X201625600Y-74757317D01*
X201625600Y-74757319D01*
X201607450Y-74930000D01*
X200683978Y-74930000D01*
X200656747Y-74846189D01*
X200656743Y-74846182D01*
X200569931Y-74695818D01*
X200569930Y-74695817D01*
X200569929Y-74695815D01*
X200513647Y-74633308D01*
X200482932Y-74569304D01*
X200491695Y-74498850D01*
X200513646Y-74464692D01*
X200569929Y-74402185D01*
X200656745Y-74251815D01*
X200666143Y-74222893D01*
X200688276Y-74154772D01*
X200710400Y-74086681D01*
X200728550Y-73914000D01*
X200710400Y-73741319D01*
X200692694Y-73686825D01*
X200656747Y-73576189D01*
X200656743Y-73576182D01*
X200569930Y-73425816D01*
X200569929Y-73425814D01*
X200453748Y-73296782D01*
X200313279Y-73194725D01*
X200313275Y-73194723D01*
X200157207Y-73125237D01*
X200103113Y-73079258D01*
X200082464Y-73011330D01*
X200083147Y-72996970D01*
X200093550Y-72898000D01*
X200075400Y-72725319D01*
X200043200Y-72626217D01*
X200021747Y-72560189D01*
X200021743Y-72560182D01*
X199934930Y-72409816D01*
X199934929Y-72409814D01*
X199818748Y-72280782D01*
X199678279Y-72178725D01*
X199669555Y-72174841D01*
X199519654Y-72108100D01*
X199349816Y-72072000D01*
X199176184Y-72072000D01*
X199006345Y-72108100D01*
X198847723Y-72178723D01*
X198847722Y-72178724D01*
X198829061Y-72192283D01*
X198762193Y-72216142D01*
X198693041Y-72200061D01*
X198680939Y-72192283D01*
X198662277Y-72178724D01*
X198662276Y-72178723D01*
X198503654Y-72108100D01*
X198333816Y-72072000D01*
X198160184Y-72072000D01*
X197990345Y-72108100D01*
X197853749Y-72168917D01*
X197783382Y-72178351D01*
X197751251Y-72168917D01*
X197614654Y-72108100D01*
X197444816Y-72072000D01*
X197271184Y-72072000D01*
X197101345Y-72108100D01*
X196942720Y-72178725D01*
X196802251Y-72280782D01*
X196686070Y-72409814D01*
X196686069Y-72409816D01*
X196599256Y-72560182D01*
X196599252Y-72560189D01*
X196545601Y-72725313D01*
X196545600Y-72725317D01*
X196545600Y-72725319D01*
X196527450Y-72898000D01*
X189567811Y-72898000D01*
X189574317Y-72882183D01*
X189632535Y-72841547D01*
X189672622Y-72835000D01*
X189697816Y-72835000D01*
X189867654Y-72798900D01*
X190026275Y-72728277D01*
X190166746Y-72626219D01*
X190226204Y-72560185D01*
X190282929Y-72497185D01*
X190282930Y-72497183D01*
X190333371Y-72409816D01*
X190369745Y-72346815D01*
X190370049Y-72345882D01*
X190423398Y-72181686D01*
X190423400Y-72181681D01*
X190441550Y-72009000D01*
X190423400Y-71836319D01*
X190390540Y-71735185D01*
X190369747Y-71671189D01*
X190369743Y-71671182D01*
X190282930Y-71520816D01*
X190282929Y-71520814D01*
X190166748Y-71391782D01*
X190026279Y-71289725D01*
X189867654Y-71219100D01*
X189761795Y-71196599D01*
X189699322Y-71162870D01*
X189665000Y-71100721D01*
X189662683Y-71086535D01*
X189661400Y-71074319D01*
X189657789Y-71063208D01*
X189607747Y-70909189D01*
X189607743Y-70909182D01*
X189520930Y-70758816D01*
X189520929Y-70758814D01*
X189404748Y-70629782D01*
X189264279Y-70527725D01*
X189181888Y-70491042D01*
X189105654Y-70457100D01*
X188935816Y-70421000D01*
X188762184Y-70421000D01*
X188592345Y-70457100D01*
X188433723Y-70527723D01*
X188433722Y-70527724D01*
X188415061Y-70541283D01*
X188348193Y-70565142D01*
X188279041Y-70549061D01*
X188266939Y-70541283D01*
X188248277Y-70527724D01*
X188248276Y-70527723D01*
X188089654Y-70457100D01*
X187919816Y-70421000D01*
X187746184Y-70421000D01*
X187576345Y-70457100D01*
X187417723Y-70527723D01*
X187417722Y-70527724D01*
X187399061Y-70541283D01*
X187332193Y-70565142D01*
X187263041Y-70549061D01*
X187250939Y-70541283D01*
X187232277Y-70527724D01*
X187232276Y-70527723D01*
X187073654Y-70457100D01*
X186903816Y-70421000D01*
X186730184Y-70421000D01*
X186560345Y-70457100D01*
X186401720Y-70527725D01*
X186261251Y-70629782D01*
X186145070Y-70758814D01*
X186145069Y-70758816D01*
X186058256Y-70909182D01*
X186058252Y-70909189D01*
X186004601Y-71074313D01*
X186004600Y-71074317D01*
X186004600Y-71074319D01*
X185986450Y-71247000D01*
X185990940Y-71289723D01*
X186004601Y-71419686D01*
X186058252Y-71584810D01*
X186058256Y-71584817D01*
X186145069Y-71735183D01*
X186145070Y-71735185D01*
X186261251Y-71864217D01*
X186407067Y-71970159D01*
X186405385Y-71972473D01*
X186445717Y-72014797D01*
X186459133Y-72084514D01*
X186432727Y-72150417D01*
X186406090Y-72173497D01*
X186407067Y-72174841D01*
X186261251Y-72280782D01*
X186145070Y-72409814D01*
X186145069Y-72409816D01*
X186058256Y-72560182D01*
X186058252Y-72560189D01*
X186004601Y-72725313D01*
X186004600Y-72725317D01*
X186004600Y-72725319D01*
X185986450Y-72898000D01*
X160552321Y-72898000D01*
X160588433Y-72816214D01*
X160726262Y-72404987D01*
X160825560Y-71982798D01*
X160885480Y-71553247D01*
X160905510Y-71120000D01*
X160885480Y-70686753D01*
X160825560Y-70257202D01*
X160726262Y-69835013D01*
X160588433Y-69423786D01*
X160413248Y-69027031D01*
X160413244Y-69027025D01*
X160413243Y-69027021D01*
X160202207Y-68648139D01*
X160143742Y-68562791D01*
X159957098Y-68290323D01*
X159680024Y-67956655D01*
X159680022Y-67956653D01*
X159680018Y-67956648D01*
X159373351Y-67649981D01*
X159324799Y-67609664D01*
X159232396Y-67532934D01*
X159192769Y-67474029D01*
X159191278Y-67403048D01*
X159228399Y-67342529D01*
X159292346Y-67311687D01*
X159312893Y-67310000D01*
X221699507Y-67310000D01*
X221767628Y-67330002D01*
G37*
%TD.AperFunction*%
%TD*%
M02*
